<svg width="24" height="24" viewBox="0 0 24 24" fill="none" xmlns="http://www.w3.org/2000/svg">
<rect width="24" height="24" rx="12" fill="white"/>
<path d="M21.2112 19.6541C22.442 18.1732 23.2981 16.4177 23.7069 14.536C24.1158 12.6543 24.0654 10.7018 23.5601 8.84364C23.0548 6.98551 22.1093 5.27643 20.8038 3.86096C19.4982 2.4455 17.871 1.36529 16.0597 0.711731C14.2484 0.0581692 12.3063 -0.149525 10.3977 0.10622C8.48917 0.361964 6.67028 1.07362 5.09493 2.18099C3.51958 3.28836 2.23412 4.75887 1.34728 6.46811C0.460441 8.17735 -0.00168204 10.075 4.60035e-06 12.0007C0.000651823 14.8 0.98711 17.5096 2.78628 19.6541L2.76914 19.6687C2.82913 19.7407 2.8977 19.8024 2.9594 19.8735C3.03654 19.9618 3.11967 20.0449 3.19938 20.1307C3.43935 20.3912 3.68618 20.6415 3.94501 20.8763C4.02386 20.9483 4.10528 21.0151 4.18499 21.0837C4.45925 21.3202 4.74122 21.5448 5.03347 21.7539C5.07118 21.7796 5.10546 21.813 5.14317 21.8396V21.8293C7.15048 23.2419 9.54508 24 11.9996 24C14.4541 24 16.8487 23.2419 18.856 21.8293V21.8396C18.8937 21.813 18.9271 21.7796 18.9657 21.7539C19.2571 21.5439 19.5399 21.3202 19.8142 21.0837C19.8939 21.0151 19.9753 20.9474 20.0542 20.8763C20.313 20.6406 20.5598 20.3912 20.7998 20.1307C20.8795 20.0449 20.9618 19.9618 21.0398 19.8735C21.1006 19.8024 21.17 19.7407 21.23 19.6678L21.2112 19.6541ZM11.9987 5.14424C12.7615 5.14424 13.5072 5.37044 14.1414 5.79422C14.7757 6.218 15.27 6.82034 15.5619 7.52507C15.8538 8.2298 15.9302 9.00526 15.7814 9.75339C15.6325 10.5015 15.2652 11.1887 14.7259 11.7281C14.1865 12.2675 13.4993 12.6348 12.7511 12.7836C12.003 12.9324 11.2275 12.856 10.5228 12.5641C9.8181 12.2722 9.21576 11.7779 8.79197 11.1437C8.36819 10.5094 8.142 9.76377 8.142 9.00098C8.142 7.97811 8.54833 6.99713 9.27161 6.27386C9.99489 5.55058 10.9759 5.14424 11.9987 5.14424ZM5.14831 19.6541C5.16318 18.5288 5.6205 17.4546 6.42134 16.6638C7.22218 15.8731 8.30214 15.4294 9.42757 15.4289H14.5699C15.6953 15.4294 16.7753 15.8731 17.5761 16.6638C18.377 17.4546 18.8343 18.5288 18.8491 19.6541C16.9695 21.3479 14.529 22.2853 11.9987 22.2853C9.46849 22.2853 7.02797 21.3479 5.14831 19.6541Z" fill="#CCCCCC"/>
</svg>
