<svg width="112" height="83" viewBox="0 0 112 83" fill="none" xmlns="http://www.w3.org/2000/svg">
<g clip-path="url(#clip0_6316_56496)">
<path opacity="0.08" d="M56.6226 83C56.1636 83 55.6974 82.9473 55.2384 82.8432C52.8763 82.3001 51.0501 80.4283 50.5669 78.0548L40.7093 29.7618L33.6315 50.5561C32.779 53.0594 30.4283 54.7444 27.781 54.7444H6.14847C2.73572 54.7444 -0.03125 51.976 -0.03125 48.5646C-0.03125 45.1533 2.73715 42.3849 6.14847 42.3849H23.3533L36.35 4.19327C37.2509 1.54746 39.8098 -0.188845 42.591 0.0164333C45.3751 0.1932 47.6973 2.21319 48.2561 4.94738L59.9612 62.2897L73.3442 44.8069C74.7326 43.0008 77.0021 42.1069 79.2545 42.4648C81.504 42.8354 83.3714 44.4163 84.1027 46.5732L89.889 63.5727H121.515C124.927 63.5727 127.694 66.3411 127.694 69.7525C127.694 73.1638 124.926 75.9322 121.515 75.9322H85.4627C82.8155 75.9322 80.4647 74.2458 79.6123 71.7439L76.1283 61.5043L61.5307 80.5766C60.9534 81.33 60.2104 81.9405 59.3593 82.3607C58.5082 82.781 57.5718 82.9997 56.6226 83Z" fill="white"/>
</g>
<defs>
<clipPath id="clip0_6316_56496">
<rect width="112" height="83" fill="white"/>
</clipPath>
</defs>
</svg>
