<svg width="4" height="12" viewBox="0 0 4 12" fill="none" xmlns="http://www.w3.org/2000/svg">
<path d="M3.72552 4.075L0.701522 4.454L0.593522 4.956L1.18852 5.064C1.57552 5.157 1.65252 5.296 1.56852 5.683L0.593522 10.26C0.338522 11.443 0.733522 12 1.66052 12C2.38052 12 3.21452 11.668 3.59352 11.211L3.70952 10.662C3.44652 10.894 3.05952 10.987 2.80452 10.987C2.44152 10.987 2.31052 10.732 2.40252 10.283L3.72552 4.075ZM3.81652 1.32C3.81652 1.67009 3.67745 2.00583 3.4299 2.25338C3.18236 2.50093 2.84661 2.64 2.49652 2.64C2.14644 2.64 1.81069 2.50093 1.56314 2.25338C1.31559 2.00583 1.17652 1.67009 1.17652 1.32C1.17652 0.969914 1.31559 0.634167 1.56314 0.386619C1.81069 0.139071 2.14644 0 2.49652 0C2.84661 0 3.18236 0.139071 3.4299 0.386619C3.67745 0.634167 3.81652 0.969914 3.81652 1.32Z" fill="#3C3C3C"/>
</svg>
