<svg width="12" height="12" viewBox="0 0 12 12" fill="none" xmlns="http://www.w3.org/2000/svg">
<g clip-path="url(#clip0_6868_4757)">
<path d="M1.97264 6.65217L3.19546 7.875C3.31503 8.00543 3.37764 8.16043 3.38329 8.34C3.38894 8.51956 3.32633 8.67435 3.19546 8.80435C3.06459 8.93435 2.91242 8.99956 2.73894 9C2.56546 9.00043 2.41329 8.93521 2.28242 8.80435L-0.065405 6.45652C-0.130622 6.3913 -0.176927 6.32065 -0.204318 6.24457C-0.231709 6.16848 -0.24497 6.08696 -0.2441 6C-0.243231 5.91304 -0.229535 5.83152 -0.203014 5.75543C-0.176492 5.67935 -0.130405 5.6087 -0.0647529 5.54348L2.28307 3.19565C2.41351 3.06522 2.56568 3 2.73959 3C2.91351 3 3.06568 3.06522 3.19611 3.19565C3.32655 3.32609 3.39177 3.48109 3.39177 3.66065C3.39177 3.84022 3.32655 3.995 3.19611 4.125L1.97264 5.34783H10.027L8.80415 4.125C8.68459 3.99457 8.6222 3.83978 8.61698 3.66065C8.61176 3.48152 8.67415 3.32652 8.80415 3.19565C8.93415 3.06478 9.08633 2.99957 9.26067 3C9.43502 3.00044 9.5872 3.06565 9.7172 3.19565L12.065 5.54348C12.1302 5.6087 12.1765 5.67935 12.2039 5.75543C12.2313 5.83152 12.2448 5.91304 12.2444 6C12.2439 6.08696 12.2305 6.16848 12.2039 6.24457C12.1774 6.32065 12.1311 6.3913 12.065 6.45652L9.7172 8.80435C9.58676 8.93478 9.43459 9 9.26067 9C9.08676 9 8.93459 8.93478 8.80415 8.80435C8.67372 8.67391 8.6085 8.51913 8.6085 8.34C8.6085 8.16087 8.67372 8.00587 8.80415 7.875L10.027 6.65217H1.97264Z" fill="#4D4D4D"/>
</g>
<defs>
<clipPath id="clip0_6868_4757">
<rect width="12" height="12" fill="white"/>
</clipPath>
</defs>
</svg>
