<svg width="14" height="14" viewBox="0 0 14 14" fill="none" xmlns="http://www.w3.org/2000/svg">
<path d="M4.33325 1.66683C4.33325 0.93045 4.93021 0.333496 5.66659 0.333496H8.33325C9.06963 0.333496 9.66659 0.93045 9.66659 1.66683H12.9999C13.3681 1.66683 13.6666 1.96531 13.6666 2.3335C13.6666 2.70169 13.3681 3.00016 12.9999 3.00016H12.3333C12.3333 6.11127 12.3333 9.22239 12.3333 12.3335C12.3333 13.0699 11.7363 13.6668 10.9999 13.6668H2.99992C2.26354 13.6668 1.66659 13.0699 1.66659 12.3335C1.66659 9.22239 1.66659 6.11127 1.66659 3.00016H0.999919C0.631729 3.00016 0.333252 2.70169 0.333252 2.3335C0.333252 1.96531 0.631729 1.66683 0.999919 1.66683H4.33325ZM2.99992 3.00016V12.3335H10.9999V3.00016H2.99992ZM5.66659 5.00016C6.03478 5.00016 6.33325 5.29864 6.33325 5.66683V9.66683C6.33325 10.035 6.03478 10.3335 5.66659 10.3335C5.2984 10.3335 4.99992 10.035 4.99992 9.66683V5.66683C4.99992 5.29864 5.2984 5.00016 5.66659 5.00016ZM8.33325 5.00016C8.70144 5.00016 8.99992 5.29864 8.99992 5.66683V9.66683C8.99992 10.035 8.70144 10.3335 8.33325 10.3335C7.96506 10.3335 7.66659 10.035 7.66659 9.66683V5.66683C7.66659 5.29864 7.96506 5.00016 8.33325 5.00016Z" fill="#999999"/>
</svg>
