<svg width="24" height="24" viewBox="0 0 24 24" fill="none" xmlns="http://www.w3.org/2000/svg">
<path d="M3 3C3 1.89543 3.89543 1 5 1H14.5858C14.851 1 15.1054 1.10536 15.2929 1.29289L20.7071 6.70711C20.8946 6.89464 21 7.149 21 7.41421V21C21 22.1046 20.1046 23 19 23H5C3.89543 23 3 22.1046 3 21V3Z" fill="#F34C3D"/>
<path d="M15 1.48284C15 1.30466 15.2154 1.21543 15.3414 1.34142L20.6586 6.65858C20.7846 6.78457 20.6953 7 20.5172 7H17C15.8954 7 15 6.10457 15 5V1.48284Z" fill="#BF1C0D"/>
<path d="M17.5509 15.551C17.3027 15.2604 16.7937 15.1191 15.995 15.1191C15.5307 15.1191 14.8911 15.1308 14.2483 15.2262C12.4926 13.9605 12.0811 12.6009 12.0811 12.6009C12.0811 12.6009 12.381 11.8482 12.4 10.6189C12.412 9.84174 12.2888 9.26215 11.9746 9.01299C11.8408 8.90686 11.6464 8.81812 11.4508 8.81812C11.2981 8.81812 11.1552 8.86233 11.038 8.94686C10.1253 9.60536 11.1218 12.7096 11.1484 12.7923C10.7177 13.8375 10.1751 14.9448 9.6167 15.9178C9.43525 16.2339 9.43525 16.2399 9.31337 16.3835C9.31337 16.3835 7.71569 17.1758 6.96652 18.0544C6.54323 18.5508 6.52949 18.8916 6.55196 19.147C6.58818 19.4533 6.97866 19.7272 7.37176 19.7272C7.38807 19.7272 7.40447 19.7267 7.42054 19.7257C7.82006 19.7014 8.26445 19.5915 8.75897 19.1237C9.11697 18.7851 9.51955 17.8654 10.0371 16.9655C11.522 16.549 12.8288 16.2524 13.9239 16.0832C14.7271 16.5094 15.9219 16.992 16.7353 16.992C17.0081 16.992 17.2276 16.9371 17.3876 16.829C17.5791 16.6996 17.6604 16.5384 17.7109 16.2399C17.7615 15.9415 17.6911 15.7152 17.5509 15.551ZM15.8051 16.0181C16.5468 16.0181 16.9483 16.149 17.1546 16.2587C17.2182 16.2926 17.2645 16.3253 17.2973 16.3525C17.2392 16.3976 17.1248 16.4545 16.9182 16.4545C16.5756 16.4545 16.1259 16.3093 15.5774 16.0221C15.6554 16.0195 15.7313 16.0181 15.8051 16.0181ZM11.5459 9.47577L11.5472 9.47268C11.6629 9.55796 11.717 10.1568 11.7061 10.504C11.6916 10.97 11.6881 11.15 11.6296 11.4363C11.471 10.8395 11.4598 9.7667 11.5459 9.47577ZM11.5825 13.8363C11.9442 14.4321 12.4028 15.0354 12.9197 15.4961C11.9109 15.7124 11.0733 15.9108 10.4707 16.1217C11.1167 15.0029 11.5401 13.9472 11.5825 13.8363ZM7.50951 18.8842C7.60079 18.7492 7.85017 18.4876 8.4826 17.9817C8.14318 18.7636 7.76199 18.8842 7.40763 19.0726C7.43438 19.0106 7.46803 18.9456 7.50951 18.8842Z" fill="white"/>
</svg>
