<svg width="14" height="14" viewBox="0 0 14 14" fill="none" xmlns="http://www.w3.org/2000/svg">
<path d="M10.3999 4.66672C8.65902 4.67094 7.28031 4.9893 6.12282 5.61959C5.0154 6.22261 4.15315 7.10054 3.56089 8.22809C3.46568 8.40937 3.37771 8.59597 3.297 8.78843C3.26152 8.87301 3.21646 8.9906 3.16181 9.14119C3.11995 9.25654 3.01036 9.33335 2.88764 9.33335H2.26859C2.1075 9.33336 1.97691 9.20277 1.97691 9.04169C1.97691 9.011 1.98176 8.98051 1.99126 8.95134C2.0026 8.91652 2.01297 8.88552 2.02235 8.85833C2.16601 8.44211 2.33625 8.04987 2.53208 7.67789C3.23272 6.34703 4.26087 5.30256 5.57094 4.59081C6.87342 3.88317 8.42823 3.50442 10.4 3.50005L8.71462 1.81471C8.60071 1.70081 8.60071 1.51614 8.71462 1.40223L9.1271 0.989755C9.241 0.875852 9.42567 0.875852 9.53957 0.989755L12.4269 3.87711C12.4839 3.93406 12.5124 4.0087 12.5124 4.08335C12.5124 4.15799 12.4839 4.23264 12.4269 4.28959L9.53957 7.17694C9.42567 7.29084 9.241 7.29084 9.1271 7.17694L8.71462 6.76446C8.60071 6.65056 8.60071 6.46588 8.71462 6.35198L10.3999 4.66672ZM12.25 10.7917V12.25C12.25 12.5722 11.9888 12.8334 11.6667 12.8334H2.33333C2.01117 12.8334 1.75 12.5722 1.75 12.25V10.7917C1.75 10.6306 1.88058 10.5 2.04167 10.5H2.625C2.78608 10.5 2.91667 10.6306 2.91667 10.7917V11.6667H11.0833V10.7917C11.0833 10.6306 11.2139 10.5 11.375 10.5H11.9583C12.1194 10.5 12.25 10.6306 12.25 10.7917Z" fill="#6C87FF"/>
</svg>
