<svg width="40" height="40" viewBox="0 0 40 40" fill="none" xmlns="http://www.w3.org/2000/svg">
<path d="M5 5.00008C5 3.15913 6.49238 1.66675 8.33333 1.66675H24.3096C24.7517 1.66675 25.1756 1.84234 25.4882 2.1549L34.5118 11.1786C34.8244 11.4912 35 11.9151 35 12.3571V35.0001C35 36.841 33.5076 38.3334 31.6667 38.3334H8.33333C6.49238 38.3334 5 36.841 5 35.0001V5.00008Z" fill="#6C87FF"/>
<path opacity="0.7" d="M25 2.14959C25 1.97141 25.2154 1.88218 25.3414 2.00817L34.6586 11.3253C34.7846 11.4513 34.6953 11.6667 34.5172 11.6667H28.3333C26.4924 11.6667 25 10.1744 25 8.33341V2.14959Z" fill="#0025CC"/>
<path d="M20 15C19.3096 15 18.75 15.5596 18.75 16.25V22.0833H12.9166C12.2263 22.0833 11.6666 22.643 11.6666 23.3333C11.6666 24.0237 12.2263 24.5833 12.9166 24.5833H18.75V30.4167C18.75 31.107 19.3096 31.6667 20 31.6667C20.6903 31.6667 21.25 31.107 21.25 30.4167V24.5833H27.0833C27.7736 24.5833 28.3333 24.0237 28.3333 23.3333C28.3333 22.643 27.7737 22.0833 27.0833 22.0833H21.25V16.25C21.25 15.5596 20.6903 15 20 15Z" fill="white"/>
</svg>
