<svg width="802" height="84" viewBox="0 0 802 84" fill="none" xmlns="http://www.w3.org/2000/svg">
<g filter="url(#filter0_d_5569_43914)">
<path d="M8 12C8 9.79086 9.79086 8 12 8H389.938C391.55 8 393.005 8.96786 393.627 10.4549L405.353 38.4549C405.767 39.4434 405.767 40.5566 405.353 41.5451L393.627 69.5451C393.005 71.0321 391.55 72 389.938 72H12C9.79085 72 8 70.2091 8 68V12Z" fill="#6C87FF"/>
</g>
<path d="M41.7289 30.5494C42.0185 30.2602 42.488 30.2602 42.7777 30.5494L42.7797 30.5514L45.3275 33.1119C45.6158 33.4018 45.6147 33.8707 45.3256 34.1598L45.0521 34.4332L45.057 34.4381L37.0756 42.4156H34.2465C33.8367 42.4156 33.5044 42.084 33.5043 41.6744V38.8453L41.2123 31.0807L41.2054 31.0729L41.7289 30.5494ZM35.0131 39.4733V39.4762L36.4486 40.9108H36.4506L41.5804 35.7789L40.0951 34.2945L35.0131 39.4733ZM41.1332 33.2359L42.6283 34.7301L43.7367 33.6207L42.2357 32.1119L41.1332 33.2359Z" fill="white"/>
<mask id="path-3-outside-1_5569_43914" maskUnits="userSpaceOnUse" x="24.9997" y="28.5" width="22" height="22" fill="black">
<rect fill="white" x="24.9997" y="28.5" width="22" height="22"/>
<path d="M36.1706 29.5039L36.0632 30.751C36.0432 30.7508 36.0227 30.75 36.0026 30.75C31.1687 30.7502 27.2497 34.6677 27.2497 39.5C27.2497 44.3323 31.1687 48.2498 36.0026 48.25C40.6616 48.25 44.469 44.6112 44.739 40.0215L45.9968 39.8711C45.8014 45.222 41.403 49.5 36.0026 49.5C30.4781 49.4998 25.9997 45.0227 25.9997 39.5C25.9997 33.9773 30.4781 29.5002 36.0026 29.5C36.0586 29.5 36.1149 29.503 36.1706 29.5039ZM46.0065 39.5C46.0065 39.513 46.0056 39.526 46.0056 39.5391V39.46C46.0056 39.4733 46.0065 39.4866 46.0065 39.5Z"/>
</mask>
<path d="M36.1706 29.5039L36.0632 30.751C36.0432 30.7508 36.0227 30.75 36.0026 30.75C31.1687 30.7502 27.2497 34.6677 27.2497 39.5C27.2497 44.3323 31.1687 48.2498 36.0026 48.25C40.6616 48.25 44.469 44.6112 44.739 40.0215L45.9968 39.8711C45.8014 45.222 41.403 49.5 36.0026 49.5C30.4781 49.4998 25.9997 45.0227 25.9997 39.5C25.9997 33.9773 30.4781 29.5002 36.0026 29.5C36.0586 29.5 36.1149 29.503 36.1706 29.5039ZM46.0065 39.5C46.0065 39.513 46.0056 39.526 46.0056 39.5391V39.46C46.0056 39.4733 46.0065 39.4866 46.0065 39.5Z" fill="white"/>
<path d="M36.1706 29.5039L36.3699 29.5211L36.3883 29.3075L36.1739 29.3039L36.1706 29.5039ZM36.0632 30.751L36.0618 30.951L36.2466 30.9522L36.2624 30.7681L36.0632 30.751ZM36.0026 30.75V30.55H36.0026L36.0026 30.75ZM27.2497 39.5H27.0497H27.2497ZM36.0026 48.25L36.0026 48.45H36.0026V48.25ZM44.739 40.0215L44.7152 39.8229L44.5491 39.8428L44.5393 40.0097L44.739 40.0215ZM45.9968 39.8711L46.1966 39.8784L46.2052 39.6448L45.973 39.6725L45.9968 39.8711ZM36.0026 49.5L36.0026 49.7H36.0026V49.5ZM25.9997 39.5H25.7997H25.9997ZM36.0026 29.5V29.3H36.0026L36.0026 29.5ZM46.0065 39.5H46.2065H46.0065ZM46.0056 39.5391H45.8056L46.2056 39.5398L46.0056 39.5391ZM46.0056 39.46L46.2056 39.4592L45.8056 39.46H46.0056ZM36.1706 29.5039L35.9713 29.4867L35.8639 30.7338L36.0632 30.751L36.2624 30.7681L36.3699 29.5211L36.1706 29.5039ZM36.0632 30.751L36.0645 30.551C36.0636 30.551 36.0138 30.55 36.0026 30.55V30.75V30.95C36.0316 30.95 36.0227 30.9507 36.0618 30.951L36.0632 30.751ZM36.0026 30.75L36.0026 30.55C31.0583 30.5502 27.0497 34.5571 27.0497 39.5H27.2497H27.4497C27.4497 34.7782 31.2791 30.9502 36.0026 30.95L36.0026 30.75ZM27.2497 39.5H27.0497C27.0497 44.4429 31.0583 48.4498 36.0026 48.45L36.0026 48.25L36.0026 48.05C31.2791 48.0498 27.4497 44.2218 27.4497 39.5H27.2497ZM36.0026 48.25V48.45C40.7681 48.45 44.6625 44.728 44.9386 40.0332L44.739 40.0215L44.5393 40.0097C44.2756 44.4943 40.5551 48.05 36.0026 48.05V48.25ZM44.739 40.0215L44.7627 40.2201L46.0205 40.0697L45.9968 39.8711L45.973 39.6725L44.7152 39.8229L44.739 40.0215ZM45.9968 39.8711L45.7969 39.8638C45.6055 45.1075 41.295 49.3 36.0026 49.3V49.5V49.7C41.511 49.7 45.9974 45.3364 46.1966 39.8784L45.9968 39.8711ZM36.0026 49.5L36.0026 49.3C30.5885 49.2998 26.1997 44.9122 26.1997 39.5H25.9997H25.7997C25.7997 45.1332 30.3677 49.6998 36.0026 49.7L36.0026 49.5ZM25.9997 39.5H26.1997C26.1997 34.0878 30.5885 29.7002 36.0026 29.7L36.0026 29.5L36.0026 29.3C30.3677 29.3002 25.7997 33.8668 25.7997 39.5H25.9997ZM36.0026 29.5V29.7C36.0597 29.7 36.0984 29.7027 36.1673 29.7039L36.1706 29.5039L36.1739 29.3039C36.1313 29.3032 36.0574 29.3 36.0026 29.3V29.5ZM46.0065 39.5H45.8065C45.8065 39.5023 45.8064 39.5053 45.8062 39.5122C45.806 39.518 45.8056 39.5279 45.8056 39.5383L46.0056 39.5391L46.2056 39.5398C46.2056 39.5372 46.2057 39.5341 46.2059 39.5268C46.2062 39.5207 46.2065 39.5107 46.2065 39.5H46.0065ZM46.0056 39.5391H46.2056V39.46H46.0056H45.8056V39.5391H46.0056ZM46.0056 39.46L45.8056 39.4607C45.8056 39.4712 45.806 39.4811 45.8062 39.4871C45.8064 39.4942 45.8065 39.4974 45.8065 39.5H46.0065H46.2065C46.2065 39.4892 46.2062 39.4791 46.2059 39.4729C46.2057 39.4655 46.2056 39.4621 46.2056 39.4592L46.0056 39.46Z" fill="white" mask="url(#path-3-outside-1_5569_43914)"/>
<path d="M60.812 25.124H62.604V22.548H63.934V25.124H65.278V26.398H63.934V27.434C64.354 27.91 64.788 28.414 65.236 28.96C66.02 28.064 66.692 27.028 67.252 25.838L68.358 26.384C67.938 27.28 67.462 28.106 66.944 28.848L67.966 28.54C68.134 29.618 68.568 30.584 69.268 31.438C69.814 30.598 70.192 29.59 70.402 28.442L71.662 28.694C71.396 30.15 70.92 31.396 70.248 32.404C71.116 33.132 72.222 33.748 73.552 34.252L72.866 35.442C71.466 34.882 70.318 34.21 69.422 33.426C68.442 34.406 67.21 35.106 65.726 35.526L64.956 34.336C66.412 33.958 67.574 33.328 68.456 32.446C67.616 31.438 67.084 30.276 66.846 28.988C66.594 29.324 66.328 29.646 66.076 29.954L65.782 29.744L65.082 30.752C64.648 29.912 64.27 29.198 63.934 28.638V35.372H62.604V28.792C62.17 29.996 61.638 31.102 60.994 32.11L60.434 30.668C61.414 29.408 62.114 27.994 62.548 26.398H60.812V25.124ZM65.558 24.214H68.806C68.582 23.64 68.33 23.108 68.05 22.618L69.394 22.394C69.646 22.926 69.898 23.542 70.136 24.214H73.174V25.502H65.558V24.214ZM71.116 25.768C72.152 27.028 72.964 28.148 73.524 29.1L72.418 29.856C71.844 28.82 71.06 27.672 70.08 26.412L71.116 25.768ZM75.764 22.898C76.674 24.144 77.374 25.236 77.85 26.174L76.744 26.93C76.226 25.936 75.526 24.83 74.63 23.598L75.764 22.898ZM76.688 29.044L77.892 29.52C77.304 31.592 76.632 33.552 75.904 35.372L74.644 34.826C75.428 32.936 76.114 31.004 76.688 29.044ZM80.426 28.904V30.5H83.002V28.904H80.426ZM80.426 31.718V33.454H83.002V31.718H80.426ZM80.426 34.686V35.456H79.124V27.658C78.76 28.19 78.396 28.708 78.004 29.198L77.57 27.826C78.732 26.202 79.558 24.438 80.034 22.506L81.308 22.758C81.112 23.458 80.888 24.13 80.622 24.802H83.212C83.002 24.102 82.75 23.416 82.47 22.758L83.744 22.394C84.052 23.29 84.304 24.088 84.472 24.802H87.09V26.062H84.29V27.672H86.796V28.904H84.29V30.5H86.824V31.718H84.29V33.454H87.384V34.686H80.426ZM83.002 26.062H80.426V27.672H83.002V26.062ZM94.51 22.492H95.49C97.254 24.48 99.27 26.048 101.566 27.196L100.852 28.47C100.082 28.05 99.354 27.602 98.682 27.126V28.12H91.318V27.098C90.618 27.602 89.876 28.064 89.092 28.498L88.392 27.21C90.842 25.95 92.886 24.368 94.51 22.492ZM91.668 26.846H98.304C97.072 25.922 95.966 24.872 95 23.696C94.062 24.844 92.956 25.894 91.668 26.846ZM99.564 29.618V35.428H98.276V34.672H91.724V35.428H90.436V29.618H99.564ZM91.724 33.412H98.276V30.864H91.724V33.412ZM113.382 35.386H111.548L111.184 34.056L112.948 34.112C113.256 34.112 113.41 33.916 113.41 33.524V24.27H104.59V35.428H103.26V22.982H114.74V33.818C114.74 34.854 114.278 35.386 113.382 35.386ZM105.43 25.6H112.57V26.832H105.43V25.6ZM106.158 28.106H111.856V32.796H106.158V28.106ZM110.568 31.606V29.296H107.446V31.606H110.568ZM121.964 23.248H128.698V30.094H121.964V23.248ZM127.354 28.806V24.522H123.294V28.806H127.354ZM118.436 22.632C119.332 23.318 120.088 24.004 120.718 24.69L119.808 25.614C119.262 24.97 118.492 24.27 117.498 23.542L118.436 22.632ZM116.56 26.692H119.766V32.586C120.144 32.236 120.55 31.844 120.984 31.41L121.348 32.81C120.508 33.636 119.598 34.378 118.646 35.022L118.142 33.818C118.366 33.622 118.492 33.398 118.492 33.118V27.966H116.56V26.692ZM123.434 30.738L124.61 31.312C123.938 32.936 123.126 34.336 122.202 35.526L121.026 34.672C121.964 33.58 122.762 32.278 123.434 30.738ZM127.116 30.682C128.208 32.194 129.034 33.524 129.608 34.658L128.46 35.456C127.872 34.224 127.06 32.866 126.038 31.368L127.116 30.682ZM133.43 27.7H131.26V22.996H137.406V27.7H134.718C134.69 28.204 134.648 28.68 134.606 29.128H137.574C137.574 31.62 137.504 33.16 137.364 33.748C137.224 34.756 136.524 35.26 135.264 35.26C135.068 35.26 134.732 35.232 134.284 35.204L133.976 34.028C134.396 34.07 134.746 34.098 135.054 34.098C135.67 34.098 136.02 33.79 136.132 33.174C136.202 32.894 136.244 31.956 136.272 30.374H134.438C134.298 31.158 134.13 31.802 133.906 32.306C133.388 33.51 132.534 34.546 131.33 35.414L130.476 34.364C131.526 33.636 132.268 32.768 132.702 31.76C132.87 31.382 133.01 30.92 133.122 30.374H130.784V29.128H133.304C133.36 28.68 133.402 28.204 133.43 27.7ZM138.75 23.752H140.052V32.39H138.75V23.752ZM141.508 35.316H139.492L139.198 34.042C139.842 34.098 140.458 34.126 141.046 34.126C141.438 34.126 141.648 33.888 141.648 33.426V22.562H142.964V33.762C142.964 34.798 142.474 35.316 141.508 35.316ZM136.132 26.496V24.186H132.534V26.496H136.132ZM146.002 28.064C145.638 28.54 145.26 29.016 144.84 29.492L144.406 28.064C145.694 26.44 146.66 24.536 147.29 22.38L148.536 22.968C148.214 24.004 147.808 25.012 147.304 25.978V35.47H146.002V28.064ZM148.284 24.214H152.386C152.204 23.738 151.994 23.276 151.756 22.828L153.03 22.478C153.324 23.108 153.548 23.682 153.702 24.214H157.482V25.46H148.284V24.214ZM149.558 26.314H156.292V27.504H149.558V26.314ZM149.558 28.288H156.292V29.492H149.558V28.288ZM156.586 30.374V35.442H155.298V34.714H150.538V35.442H149.25V30.374H156.586ZM150.538 33.468H155.298V31.606H150.538V33.468ZM160.576 23.472H163.67C163.838 23.122 163.964 22.772 164.062 22.408L165.448 22.59C165.364 22.898 165.238 23.192 165.098 23.472H169.536V30.542H160.576V23.472ZM168.248 29.408V28.498H161.864V29.408H168.248ZM161.864 27.434H168.248V26.552H161.864V27.434ZM161.864 25.502H168.248V24.606H161.864V25.502ZM159.82 31.354L161.08 31.606C160.744 32.908 160.296 34.028 159.708 34.98L158.588 34.266C159.176 33.37 159.582 32.39 159.82 31.354ZM166.792 35.232H163.236C162.312 35.232 161.85 34.784 161.85 33.888V31.326H163.194V33.608C163.194 33.888 163.334 34.042 163.614 34.042H166.54C166.806 34.042 166.988 33.972 167.086 33.832C167.24 33.664 167.338 33.174 167.38 32.348L168.654 32.754C168.542 33.944 168.332 34.658 168.038 34.91C167.758 35.12 167.352 35.232 166.792 35.232ZM165.07 30.78C165.756 31.48 166.288 32.082 166.652 32.614L165.658 33.314C165.266 32.726 164.748 32.082 164.09 31.382L165.07 30.78ZM169.55 31.074C170.39 32.166 171.02 33.132 171.468 33.944L170.418 34.686C169.942 33.79 169.312 32.81 168.514 31.718L169.55 31.074Z" fill="white"/>
<path d="M66.288 52.04V53.264C66.288 53.36 66.276 53.468 66.276 53.576H67.836V52.04H66.288ZM66.216 54.332C66.072 55.46 65.736 56.396 65.184 57.164L64.56 56.6C65.16 55.736 65.46 54.632 65.484 53.312V49.376C65.304 49.544 65.124 49.712 64.956 49.856L64.416 49.22C65.364 48.44 66.144 47.42 66.756 46.172L67.584 46.352C67.464 46.604 67.332 46.844 67.212 47.084H70.104V47.696C69.744 48.224 69.384 48.68 69.024 49.04H71.04V56.228C71.04 56.768 70.728 57.044 70.116 57.044H69.228L69.024 56.264C69.324 56.288 69.6 56.312 69.864 56.312C70.104 56.312 70.224 56.18 70.224 55.94V54.332H68.616V56.984H67.836V54.332H66.216ZM68.088 49.04C68.436 48.68 68.772 48.272 69.108 47.816H66.768C66.468 48.26 66.144 48.668 65.808 49.04H68.088ZM70.224 53.576V52.04H68.616V53.576H70.224ZM70.224 51.272V49.808H68.616V51.272H70.224ZM67.836 49.808H66.288V51.272H67.836V49.808ZM60.804 46.868H64.812V47.708H63C62.844 48.68 62.616 49.592 62.328 50.432H64.512V55.892H62.412V56.804H61.596V52.1C61.392 52.472 61.176 52.82 60.96 53.156L60.456 52.352C61.32 50.996 61.884 49.448 62.16 47.708H60.804V46.868ZM62.412 55.112H63.72V51.224H62.412V55.112ZM79.524 46.256H80.412C80.412 47.264 80.376 48.212 80.304 49.076C80.94 52.148 82.044 54.596 83.616 56.396L82.992 57.116C81.708 55.484 80.736 53.468 80.064 51.092C80.004 51.428 79.944 51.74 79.884 52.052C79.428 54.116 78.408 55.82 76.812 57.14L76.224 56.432C77.616 55.256 78.552 53.78 79.008 51.992C79.344 50.492 79.524 48.584 79.524 46.256ZM73.944 46.316C74.76 46.928 75.444 47.54 75.996 48.164L75.408 48.764C74.904 48.176 74.208 47.552 73.344 46.904L73.944 46.316ZM72.54 49.868H75.132V55.112C75.564 54.752 76.032 54.344 76.524 53.876L76.74 54.764C75.996 55.472 75.204 56.108 74.364 56.66L74.028 55.892C74.208 55.748 74.304 55.568 74.304 55.376V50.696H72.54V49.868ZM89.688 46.184H90.312C91.836 47.948 93.6 49.34 95.592 50.348L95.124 51.176C93.12 50.096 91.416 48.692 90 46.964C88.692 48.596 86.964 50 84.828 51.2L84.372 50.372C86.508 49.244 88.272 47.852 89.688 46.184ZM93.792 52.352V57.188H92.952V56.468H87.048V57.188H86.208V52.352H93.792ZM87.048 55.64H92.952V53.168H87.048V55.64ZM86.88 50H93.12V50.828H86.88V50ZM105.768 57.152H104.172L103.932 56.288L105.492 56.324C105.792 56.324 105.948 56.144 105.948 55.784V47.504H98.052V57.188H97.188V46.664H106.812V55.976C106.812 56.756 106.464 57.152 105.768 57.152ZM98.928 48.884H105.084V49.688H98.928V48.884ZM99.6 50.984H104.412V54.848H99.6V50.984ZM103.572 54.08V51.764H100.44V54.08H103.572ZM113.232 46.916H118.752V52.52H113.232V46.916ZM117.888 51.68V47.744H114.096V51.68H117.888ZM109.968 46.316C110.76 46.916 111.42 47.528 111.972 48.14L111.384 48.74C110.892 48.164 110.22 47.552 109.368 46.904L109.968 46.316ZM108.528 49.868H111.096V55.16C111.48 54.824 111.888 54.428 112.332 53.984L112.56 54.896C111.864 55.592 111.132 56.204 110.352 56.744L110.016 55.976C110.184 55.832 110.268 55.664 110.268 55.472V50.696H108.528V49.868ZM114.516 53.24L115.284 53.612C114.684 55.016 113.976 56.228 113.16 57.26L112.404 56.708C113.232 55.748 113.94 54.584 114.516 53.24ZM117.396 53.204C118.344 54.536 119.076 55.7 119.58 56.696L118.836 57.212C118.308 56.132 117.6 54.944 116.7 53.648L117.396 53.204ZM123.072 50.492H121.164V46.676H126.264V50.492H123.912C123.888 51.02 123.852 51.5 123.804 51.956H126.384C126.384 54.044 126.324 55.328 126.204 55.832C126.084 56.624 125.508 57.032 124.464 57.032C124.296 57.032 124.032 57.02 123.648 56.996L123.444 56.228C123.792 56.252 124.092 56.276 124.344 56.276C124.944 56.276 125.304 56.012 125.4 55.496C125.472 55.196 125.508 54.284 125.532 52.76H123.696C123.564 53.504 123.408 54.104 123.216 54.56C122.772 55.568 122.04 56.444 121.02 57.176L120.468 56.492C121.392 55.856 122.052 55.1 122.436 54.212C122.604 53.828 122.736 53.336 122.844 52.76H120.708V51.956H122.952C123 51.5 123.048 51.02 123.072 50.492ZM127.62 47.252H128.46V54.728H127.62V47.252ZM129.852 57.092H128.148L127.956 56.264C128.52 56.3 129.048 56.324 129.552 56.324C129.924 56.324 130.116 56.108 130.116 55.676V46.232H130.98V55.892C130.98 56.684 130.596 57.092 129.852 57.092ZM125.436 49.7V47.456H121.992V49.7H125.436ZM133.848 50.48C133.488 51.008 133.092 51.524 132.66 52.004L132.384 51.08C133.56 49.628 134.412 47.96 134.952 46.088L135.756 46.46C135.468 47.384 135.12 48.248 134.7 49.064V57.224H133.848V50.48ZM135.708 47.78H139.404C139.224 47.3 139.02 46.844 138.78 46.388L139.608 46.16C139.86 46.688 140.052 47.168 140.196 47.612L139.74 47.78H143.52V48.596H135.708V47.78ZM136.812 49.568H142.488V50.348H136.812V49.568ZM136.812 51.26H142.488V52.052H136.812V51.26ZM142.704 53.036V57.2H141.864V56.552H137.424V57.2H136.584V53.036H142.704ZM137.424 55.736H141.864V53.84H137.424V55.736ZM146.292 47.084H148.932C149.1 46.772 149.22 46.46 149.304 46.124L150.204 46.244C150.108 46.544 149.988 46.82 149.844 47.084H153.804V52.952H146.292V47.084ZM152.964 52.208V51.2H147.132V52.208H152.964ZM147.132 50.504H152.964V49.52H147.132V50.504ZM147.132 48.824H152.964V47.84H147.132V48.824ZM145.692 53.768L146.508 53.936C146.22 55.04 145.824 55.988 145.308 56.804L144.576 56.336C145.092 55.568 145.464 54.704 145.692 53.768ZM151.476 57.02H148.392C147.696 57.02 147.36 56.672 147.36 56V53.708H148.236V55.82C148.236 56.096 148.368 56.24 148.644 56.24H151.308C151.584 56.24 151.776 56.168 151.872 56.048C152.016 55.88 152.124 55.412 152.172 54.632L153 54.896C152.904 55.904 152.736 56.516 152.496 56.744C152.28 56.924 151.932 57.02 151.476 57.02ZM149.868 53.276C150.516 53.9 151.008 54.452 151.356 54.92L150.696 55.376C150.336 54.86 149.856 54.296 149.232 53.672L149.868 53.276ZM153.744 53.552C154.512 54.512 155.1 55.364 155.508 56.084L154.824 56.564C154.392 55.784 153.804 54.92 153.072 53.972L153.744 53.552ZM157.596 46.844H166.212V47.684H161.916V48.488C161.892 49.232 161.844 49.94 161.76 50.588H167.184V51.416H163.464V55.604C163.464 55.988 163.656 56.192 164.04 56.192H165.564C165.852 56.192 166.068 56.108 166.2 55.952C166.368 55.76 166.476 55.208 166.536 54.272L167.352 54.536C167.256 55.712 167.076 56.42 166.812 56.684C166.584 56.9 166.224 57.008 165.72 57.008H163.776C162.984 57.008 162.6 56.6 162.6 55.784V51.416H161.628C161.436 52.46 161.136 53.36 160.728 54.128C159.984 55.424 158.784 56.444 157.116 57.164L156.636 56.396C158.292 55.652 159.432 54.68 160.08 53.456C160.368 52.856 160.584 52.172 160.74 51.416H156.792V50.588H160.884C160.98 49.94 161.028 49.232 161.04 48.488V47.684H157.596V46.844ZM173.112 46.676H178.656V49.808H173.112V46.676ZM177.828 49.052V47.444H173.94V49.052H177.828ZM172.452 52.916H175.344C175.416 52.508 175.452 52.088 175.464 51.632V51.584H172.764V50.78H179.088V51.584H176.316V51.632C176.304 52.088 176.268 52.52 176.208 52.916H179.46V53.72H176.58C177.228 54.872 178.236 55.796 179.604 56.492L179.028 57.164C177.612 56.348 176.58 55.304 175.944 54.032C175.788 54.488 175.596 54.884 175.356 55.244C174.756 56.072 173.796 56.72 172.452 57.2L171.984 56.468C173.28 56.012 174.192 55.4 174.708 54.656C174.876 54.368 175.02 54.056 175.14 53.72H172.452V52.916ZM169.956 46.316C170.748 46.916 171.42 47.528 171.972 48.14L171.384 48.74C170.88 48.164 170.208 47.552 169.344 46.904L169.956 46.316ZM168.504 49.868H171.096V55.112C171.432 54.788 171.78 54.428 172.164 54.02L172.392 54.932C171.744 55.628 171.06 56.24 170.34 56.768L170.004 56C170.172 55.844 170.268 55.676 170.268 55.484V50.696H168.504V49.868ZM182.232 54.572C182.496 54.572 182.724 54.68 182.892 54.908C183.048 55.124 183.132 55.4 183.132 55.748C183.132 56.276 182.976 56.744 182.664 57.152C182.352 57.536 181.932 57.8 181.428 57.932V57.344C181.74 57.236 181.992 57.056 182.184 56.816C182.352 56.564 182.448 56.3 182.448 56.012C182.4 56.036 182.304 56.06 182.184 56.06C181.98 56.06 181.812 55.988 181.668 55.844C181.524 55.7 181.452 55.52 181.452 55.316C181.452 55.088 181.524 54.908 181.668 54.776C181.812 54.632 181.992 54.572 182.232 54.572ZM192.66 46.916H203.364V47.756H201.78V55.916C201.78 56.708 201.396 57.116 200.628 57.116H198.624L198.432 56.276C199.092 56.3 199.728 56.324 200.328 56.324C200.712 56.324 200.916 56.108 200.916 55.7V47.756H192.66V46.916ZM198.72 49.592V53.996H194.892V55.052H194.052V49.592H198.72ZM194.892 53.204H197.892V50.372H194.892V53.204ZM208.824 48.032H210.96V46.22H211.8V48.032H214.356V51.656H215.292V52.496H212.016C212.76 54.128 213.948 55.448 215.568 56.456L214.98 57.128C213.348 56.012 212.148 54.608 211.392 52.904C210.852 54.824 209.784 56.228 208.188 57.14L207.66 56.432C209.196 55.616 210.204 54.308 210.66 52.496H208.332V51.656H210.828C210.912 51.104 210.96 50.504 210.96 49.88V48.836H208.824V48.032ZM211.8 48.836V49.7C211.8 50.396 211.752 51.044 211.656 51.656H213.516V48.836H211.8ZM204.912 48.512L205.596 48.56C205.56 49.76 205.416 50.912 205.164 51.992L204.456 51.788C204.72 50.756 204.876 49.664 204.912 48.512ZM207.936 48.248C208.272 49.016 208.56 49.892 208.824 50.888L208.116 51.056C207.9 50.156 207.624 49.292 207.288 48.452L207.936 48.248ZM206.196 46.232H207.048V57.152H206.196V46.232ZM220.248 47.18H223.308V46.208H224.112V47.18H227.124V47.972H224.112V48.992H226.728V52.052H224.112V55.724H223.308V52.4C222.696 53.468 221.748 54.38 220.464 55.136L219.924 54.452C221.244 53.78 222.18 52.976 222.744 52.052H220.692V48.992H223.308V47.972H220.248V47.18ZM225.936 51.284V49.748H224.112V51.284H225.936ZM223.308 51.284V49.748H221.496V51.284H223.308ZM225.06 52.412C225.912 53.096 226.632 53.78 227.22 54.476L226.644 55.052C226.116 54.38 225.408 53.684 224.496 52.94L225.06 52.412ZM217.512 46.388C218.34 47.012 219.036 47.636 219.6 48.26L218.988 48.86C218.484 48.26 217.8 47.624 216.924 46.952L217.512 46.388ZM224.508 56.984C223.848 56.984 223.128 56.972 222.36 56.96C221.592 56.948 220.956 56.876 220.476 56.744C219.996 56.6 219.576 56.3 219.204 55.868C219.036 55.664 218.88 55.568 218.736 55.568C218.448 55.568 217.98 56.12 217.332 57.224L216.684 56.636C217.308 55.628 217.872 55.016 218.352 54.8V51.152H216.648V50.36H219.156V54.848C219.252 54.92 219.348 55.004 219.456 55.124C219.744 55.472 220.056 55.724 220.392 55.88C220.764 56.048 221.304 56.144 222.024 56.168C222.66 56.18 223.452 56.192 224.388 56.192C224.964 56.192 225.54 56.18 226.128 56.168C226.716 56.156 227.172 56.144 227.484 56.12L227.268 56.984H224.508ZM233.148 50.816H230.592V55.772C230.592 56.048 230.736 56.192 231.048 56.192H233.34C233.748 56.192 234.012 56.084 234.108 55.892C234.216 55.664 234.3 55.22 234.348 54.56L235.164 54.824C235.08 55.844 234.924 56.468 234.708 56.708C234.516 56.9 234.132 56.996 233.568 56.996H230.712C230.04 56.996 229.716 56.684 229.716 56.072V50.048H233.988V53.24C233.976 53.888 233.64 54.224 232.98 54.248C232.524 54.248 232.08 54.236 231.66 54.212L231.444 53.396C231.9 53.444 232.308 53.468 232.668 53.468C232.98 53.468 233.148 53.3 233.148 52.976V50.816ZM231.624 46.304H232.26C233.304 47.408 234.312 48.572 235.272 49.796L234.708 50.396C233.676 49.028 232.776 47.936 232.008 47.12C231.12 48.44 230.1 49.652 228.924 50.756L228.42 50.06C229.596 48.992 230.664 47.744 231.624 46.304ZM235.98 47.252H236.82V54.728H235.98V47.252ZM237.984 57.092H236.124L235.932 56.264C236.544 56.3 237.132 56.324 237.684 56.324C237.984 56.324 238.14 56.144 238.14 55.784V46.232H239.004V56C239.004 56.72 238.656 57.092 237.984 57.092ZM250.488 51.116H247.92V52.076H250.728V52.784H247.92V53.78H251.076V54.512H247.92V55.7H247.08V54.512H244.356V53.78H247.08V52.784H244.728V52.076H247.08V51.116H244.98V50.396H247.08V49.436H244.392V48.716H247.08V47.768H244.98V47.048H247.08V46.172H247.92V47.048H250.488V48.716H251.292V49.436H250.488V51.116ZM247.92 47.768V48.716H249.648V47.768H247.92ZM247.92 49.436V50.396H249.648V49.436H247.92ZM247.356 56.132C248.676 56.132 250.032 56.108 251.424 56.072L251.28 56.9H247.728C245.568 56.9 244.02 56.588 243.084 55.964C242.928 55.844 242.796 55.736 242.676 55.616C242.292 56.18 241.812 56.672 241.26 57.092L240.696 56.36C241.26 55.952 241.728 55.472 242.112 54.92C241.644 54.248 241.26 53.396 240.972 52.364L241.692 52.1C241.932 52.952 242.22 53.648 242.532 54.176C242.94 53.324 243.18 52.328 243.252 51.188H241.032V50.516C241.728 49.628 242.376 48.668 242.952 47.636H240.984V46.82H243.924V47.528C243.324 48.632 242.724 49.58 242.148 50.396H244.032V50.912C243.984 52.496 243.66 53.84 243.084 54.944C243.276 55.148 243.468 55.304 243.672 55.424C244.488 55.88 245.724 56.108 247.356 56.132ZM255.204 49.556H256.056V51.32H257.568V52.1H256.056V53.72C256.656 53.6 257.22 53.48 257.748 53.348V54.176C257.208 54.32 256.644 54.44 256.056 54.56V57.2H255.204V54.716C254.412 54.848 253.596 54.968 252.744 55.076L252.636 54.236C253.548 54.128 254.412 54.008 255.204 53.876V52.1H253.008L252.828 51.332C253.164 50.636 253.488 49.76 253.788 48.704H252.66V47.864H254.016C254.136 47.336 254.268 46.772 254.388 46.196L255.216 46.328C255.096 46.868 254.988 47.384 254.868 47.864H257.772V48.704H254.64C254.352 49.688 254.052 50.564 253.728 51.32H255.204V49.556ZM258.948 46.1L259.8 46.232C259.716 46.892 259.608 47.504 259.488 48.056H263.22V48.608C263.004 49.652 262.728 50.684 262.368 51.692L261.504 51.452C261.828 50.696 262.104 49.844 262.32 48.884H259.284C258.996 49.832 258.636 50.612 258.204 51.212L257.496 50.708C258.24 49.604 258.732 48.068 258.948 46.1ZM259.944 49.688H260.772C260.772 50.516 260.724 51.272 260.652 51.956C261.228 53.864 262.2 55.376 263.568 56.492L262.956 57.2C261.84 56.18 260.988 54.932 260.4 53.456C260.376 53.54 260.364 53.624 260.34 53.708C259.956 55.148 259.092 56.324 257.748 57.236L257.172 56.54C258.336 55.748 259.104 54.752 259.488 53.552C259.776 52.544 259.932 51.248 259.944 49.688ZM267.144 46.124L267.96 46.496C267.648 47.444 267.252 48.344 266.772 49.196V57.212H265.92V50.516C265.536 51.044 265.116 51.548 264.66 52.028L264.384 51.104C265.656 49.664 266.568 47.996 267.144 46.124ZM269.16 46.916L270.012 47.024C269.916 47.624 269.784 48.2 269.616 48.728H271.38V46.232H272.244V48.728H275.004V49.568H272.244V52.46H275.448V53.288H272.244V57.152H271.38V53.288H267.852V52.46H271.38V49.568H269.34C269.04 50.36 268.668 51.068 268.224 51.692L267.672 50.972C268.404 49.868 268.896 48.512 269.16 46.916ZM284.928 46.16C285.504 46.592 285.996 47.036 286.404 47.48L285.852 48.032H287.316V48.86H283.62C283.704 50.348 283.86 51.524 284.076 52.388C284.148 52.688 284.232 52.964 284.316 53.228C284.916 52.268 285.396 51.14 285.768 49.856L286.548 50.192C286.068 51.776 285.444 53.12 284.676 54.2C284.844 54.584 285.024 54.92 285.216 55.196C285.612 55.772 285.936 56.06 286.176 56.06C286.392 56.048 286.596 55.424 286.776 54.188L287.556 54.62C287.268 56.216 286.86 57.02 286.32 57.02C285.816 57.02 285.276 56.66 284.7 55.94C284.484 55.652 284.28 55.316 284.1 54.944C283.26 55.928 282.276 56.66 281.148 57.164L280.668 56.444C281.868 55.904 282.888 55.112 283.716 54.068C283.548 53.624 283.392 53.144 283.26 52.628C282.996 51.62 282.828 50.36 282.732 48.86H278.616V50.852H281.556C281.532 52.88 281.436 54.188 281.28 54.776C281.124 55.292 280.752 55.556 280.152 55.58C279.864 55.58 279.516 55.556 279.132 55.532L278.868 54.752C279.336 54.776 279.732 54.788 280.056 54.788C280.32 54.776 280.488 54.596 280.56 54.26C280.632 53.852 280.668 52.988 280.692 51.668H278.616V52.028C278.568 54.176 278.088 55.904 277.2 57.2L276.54 56.612C277.308 55.508 277.704 53.984 277.74 52.028V48.032H282.696C282.672 47.432 282.66 46.82 282.66 46.172H283.548C283.548 46.844 283.56 47.456 283.584 48.032H285.828C285.468 47.6 284.988 47.156 284.376 46.688L284.928 46.16ZM292.332 46.448L293.088 46.904C292.524 47.9 291.96 48.716 291.396 49.352C290.796 50.048 289.992 50.732 288.996 51.404L288.528 50.648C289.344 50.18 290.088 49.568 290.748 48.812C291.324 48.14 291.852 47.36 292.332 46.448ZM292.728 51.8H290.304V50.972H297.468C297.432 52.472 297.36 53.684 297.24 54.608C297.12 55.52 296.928 56.168 296.652 56.528C296.388 56.876 295.956 57.068 295.356 57.104H293.172L292.932 56.252C293.628 56.276 294.288 56.288 294.912 56.288C295.56 56.288 295.98 56.012 296.184 55.46C296.4 54.884 296.532 53.672 296.592 51.8H293.604C293.316 53.108 292.92 54.152 292.404 54.92C291.792 55.784 290.868 56.552 289.644 57.236L289.092 56.516C290.196 55.916 291.036 55.256 291.6 54.536C292.104 53.84 292.476 52.928 292.728 51.8ZM295.716 46.292C296.412 48.14 297.648 49.604 299.436 50.672L298.86 51.356C297 50.156 295.704 48.608 294.972 46.712L295.716 46.292ZM302.232 54.572C302.496 54.572 302.724 54.68 302.892 54.908C303.048 55.124 303.132 55.4 303.132 55.748C303.132 56.276 302.976 56.744 302.664 57.152C302.352 57.536 301.932 57.8 301.428 57.932V57.344C301.74 57.236 301.992 57.056 302.184 56.816C302.352 56.564 302.448 56.3 302.448 56.012C302.4 56.036 302.304 56.06 302.184 56.06C301.98 56.06 301.812 55.988 301.668 55.844C301.524 55.7 301.452 55.52 301.452 55.316C301.452 55.088 301.524 54.908 301.668 54.776C301.812 54.632 301.992 54.572 302.232 54.572ZM321.432 50.936V53.288H315.444V54.116H321.984V57.2H321.132V56.696H315.444V57.188H314.58V50.936H321.432ZM315.444 55.928H321.132V54.812H315.444V55.928ZM315.444 52.592H320.592V51.632H315.444V52.592ZM323.088 49.484V51.656H322.248V50.228H313.752V51.656H312.912V49.484H317.664C317.544 49.196 317.424 48.944 317.292 48.704L318.132 48.56L318.06 48.512C318.636 47.792 319.044 47.012 319.308 46.148L320.136 46.328C320.052 46.58 319.968 46.82 319.872 47.06H323.34V47.816H321.204C321.456 48.152 321.66 48.464 321.804 48.752L321.036 49.04C320.82 48.608 320.568 48.2 320.28 47.816H319.524C319.308 48.224 319.056 48.608 318.792 48.968L318.144 48.572C318.276 48.848 318.408 49.148 318.528 49.484H323.088ZM314.352 47.816C314.064 48.284 313.752 48.716 313.392 49.112L312.636 48.632C313.356 47.888 313.884 47.048 314.22 46.136L315.048 46.316C314.952 46.58 314.844 46.82 314.748 47.06H317.964V47.816H315.948C316.212 48.176 316.44 48.524 316.608 48.848L315.816 49.148C315.6 48.692 315.336 48.248 315.036 47.816H314.352ZM331.428 53.348H328.632V52.544H335.04V53.348H332.292V55.976H335.484V56.816H328.152V55.976H331.428V53.348ZM325.956 57.092H324.9L324.72 56.252C325.044 56.276 325.356 56.3 325.656 56.3C325.968 56.3 326.124 56.144 326.124 55.832V52.88C325.644 53.06 325.164 53.228 324.684 53.384L324.468 52.52C325.032 52.376 325.584 52.208 326.124 52.016V49.328H324.66V48.5H326.124V46.208H327.012V48.5H328.008V49.328H327.012V51.656C327.372 51.488 327.72 51.32 328.056 51.14V52.016C327.708 52.184 327.36 52.352 327.012 52.508V56.048C327.012 56.744 326.652 57.092 325.956 57.092ZM331.752 46.064C331.956 46.496 332.16 46.976 332.352 47.516H335.172V49.784H334.368V48.296H329.328V49.784H328.512V47.516H331.488C331.296 47.036 331.092 46.592 330.876 46.208L331.752 46.064ZM330.636 49.04L331.392 49.34C330.84 50.528 330.12 51.44 329.22 52.064L328.596 51.524C329.496 50.9 330.18 50.072 330.636 49.04ZM332.952 49.016C333.696 49.784 334.356 50.648 334.932 51.584L334.176 51.968C333.588 50.984 332.94 50.096 332.22 49.328L332.952 49.016ZM337.416 46.448C338.136 46.676 338.808 46.952 339.408 47.288L338.952 47.984C338.304 47.6 337.656 47.312 336.996 47.096L337.416 46.448ZM341.28 46.16L342.132 46.268C342.036 46.532 341.94 46.796 341.82 47.036H346.656V47.552C346.512 48.14 346.32 48.728 346.08 49.304L345.252 49.052C345.456 48.68 345.624 48.26 345.768 47.792H343.728C343.68 48.08 343.608 48.344 343.512 48.584C344.136 49.508 345.372 50.144 347.22 50.492L346.908 51.26C345.156 50.9 343.908 50.252 343.164 49.292C343.02 49.508 342.864 49.712 342.684 49.904C342.096 50.456 341.136 50.9 339.792 51.212L339.468 50.444C340.644 50.192 341.496 49.844 342.024 49.388C342.456 48.992 342.756 48.464 342.9 47.792H341.364C341.028 48.224 340.632 48.62 340.176 48.98L339.672 48.308C340.464 47.732 340.992 47.012 341.28 46.16ZM345.84 51.536V55.1H344.976V52.34H338.988V55.196H338.124V51.536H345.84ZM341.64 52.796L342.504 52.868C342.336 54.392 341.976 55.412 341.412 55.94C340.788 56.588 339.396 57.008 337.236 57.176L336.9 56.408C338.808 56.3 340.068 55.976 340.68 55.424C341.22 54.908 341.544 54.032 341.64 52.796ZM339.084 48.704L339.588 49.292C338.988 49.916 338.244 50.504 337.356 51.056L336.78 50.384C337.692 49.868 338.46 49.304 339.084 48.704ZM342.78 55.064C344.34 55.472 345.756 55.964 347.04 56.54L346.572 57.26C345.204 56.612 343.788 56.096 342.336 55.724L342.78 55.064ZM354.024 46.04C354.216 46.448 354.408 46.916 354.588 47.432H358.8V48.26H356.712C356.568 48.896 356.376 49.508 356.124 50.084H359.052V50.912H350.436V52.688C350.388 54.56 349.956 56.06 349.128 57.188L348.468 56.6C349.164 55.664 349.536 54.356 349.56 52.688V50.084H352.02L351.516 48.26H349.32V47.432H353.712C353.544 46.976 353.34 46.568 353.124 46.196L354.024 46.04ZM352.872 50.084H355.296C355.56 49.508 355.764 48.896 355.884 48.26H352.368L352.872 50.084ZM364.044 48.944C364.74 49.808 365.388 50.636 365.976 51.428C366.456 50.528 366.84 49.556 367.128 48.524L367.98 48.668C367.62 49.964 367.14 51.14 366.54 52.196C367.272 53.228 367.896 54.188 368.412 55.064L367.632 55.592C367.152 54.764 366.624 53.9 366.024 53.012C365.28 54.092 364.404 55.016 363.372 55.796L362.796 55.064C363.864 54.248 364.764 53.312 365.484 52.232C364.836 51.308 364.116 50.36 363.336 49.376L364.044 48.944ZM361.908 46.676H369.672V51.476C369.672 53.444 369.732 54.704 369.876 55.256C370.008 55.796 370.164 56.072 370.356 56.072C370.512 56.072 370.644 55.52 370.752 54.428L371.52 54.8C371.376 55.7 371.22 56.312 371.052 56.648C370.872 56.936 370.668 57.08 370.452 57.08C369.876 57.08 369.468 56.696 369.204 55.952C368.916 55.22 368.784 53.732 368.784 51.476V47.516H362.772V51.332C362.748 53.66 362.256 55.616 361.308 57.2L360.588 56.612C361.428 55.208 361.872 53.444 361.908 51.332V46.676ZM373.02 46.712H376.572V47.372C376.212 48.452 375.792 49.592 375.312 50.768C376.056 51.836 376.452 52.808 376.512 53.672C376.512 54.164 376.392 54.524 376.152 54.752C375.816 55.016 375.252 55.16 374.448 55.172L374.172 54.308C374.352 54.332 374.508 54.356 374.628 54.356C375.036 54.332 375.324 54.272 375.468 54.176C375.6 54.08 375.672 53.912 375.672 53.672C375.672 52.844 375.264 51.92 374.46 50.9C375 49.652 375.42 48.512 375.72 47.504H373.86V57.212H373.02V46.712ZM377.988 49.748C377.532 50.216 377.052 50.624 376.548 50.984L376.116 50.3C377.556 49.256 378.672 47.9 379.452 46.244H380.232C380.88 47.78 382.02 49.112 383.64 50.264L383.172 50.984C382.632 50.6 382.152 50.204 381.732 49.772V50.468H377.988V49.748ZM381.636 49.676C380.88 48.896 380.28 48.032 379.836 47.096C379.308 48.104 378.72 48.956 378.06 49.676H381.636ZM376.26 55.952H380.472C381.036 54.656 381.528 53.072 381.936 51.2L382.776 51.428C382.38 53.132 381.9 54.632 381.336 55.952H383.376V56.78H376.26V55.952ZM377.652 51.632C378.06 52.64 378.432 53.792 378.768 55.088L378.012 55.28C377.724 54.104 377.352 52.964 376.908 51.884L377.652 51.632ZM379.56 51.164C379.908 52.136 380.22 53.252 380.484 54.512L379.74 54.704C379.5 53.552 379.188 52.46 378.816 51.404L379.56 51.164Z" fill="white"/>
<path d="M407.22 13.4976C406.158 10.8684 408.093 8 410.929 8H798C800.209 8 802 9.79086 802 12V40V68C802 70.2091 800.209 72 798 72H410.929C408.093 72 406.158 69.1316 407.22 66.5024L417.315 41.4976C417.703 40.5369 417.703 39.4631 417.315 38.5024L407.22 13.4976Z" fill="#F2F2F2"/>
<path d="M447.729 31.5493C448.019 31.2601 448.488 31.2601 448.778 31.5493L448.78 31.5513L451.328 34.1118C451.616 34.4017 451.615 34.8706 451.326 35.1597L451.052 35.4331L451.057 35.438L443.076 43.4155H440.246C439.837 43.4155 439.504 43.0839 439.504 42.6743V39.8452L447.212 32.0806L447.205 32.0728L447.729 31.5493ZM441.013 40.4731V40.4761L442.449 41.9106H442.451L447.58 36.7788L446.095 35.2944L441.013 40.4731ZM447.133 34.2358L448.628 35.73L449.737 34.6206L448.236 33.1118L447.133 34.2358Z" fill="#999999"/>
<mask id="path-9-outside-2_5569_43914" maskUnits="userSpaceOnUse" x="431" y="29.5" width="22" height="22" fill="black">
<rect fill="white" x="431" y="29.5" width="22" height="22"/>
<path d="M442.171 30.5039L442.063 31.751C442.043 31.7508 442.023 31.75 442.003 31.75C437.169 31.7502 433.25 35.6677 433.25 40.5C433.25 45.3323 437.169 49.2498 442.003 49.25C446.662 49.25 450.469 45.6112 450.739 41.0215L451.997 40.8711C451.802 46.222 447.403 50.5 442.003 50.5C436.478 50.4998 432 46.0227 432 40.5C432 34.9773 436.478 30.5002 442.003 30.5C442.059 30.5 442.115 30.503 442.171 30.5039ZM452.007 40.5C452.007 40.513 452.006 40.526 452.006 40.5391V40.46C452.006 40.4733 452.007 40.4866 452.007 40.5Z"/>
</mask>
<path d="M442.171 30.5039L442.063 31.751C442.043 31.7508 442.023 31.75 442.003 31.75C437.169 31.7502 433.25 35.6677 433.25 40.5C433.25 45.3323 437.169 49.2498 442.003 49.25C446.662 49.25 450.469 45.6112 450.739 41.0215L451.997 40.8711C451.802 46.222 447.403 50.5 442.003 50.5C436.478 50.4998 432 46.0227 432 40.5C432 34.9773 436.478 30.5002 442.003 30.5C442.059 30.5 442.115 30.503 442.171 30.5039ZM452.007 40.5C452.007 40.513 452.006 40.526 452.006 40.5391V40.46C452.006 40.4733 452.007 40.4866 452.007 40.5Z" fill="#999999"/>
<path d="M442.171 30.5039L442.37 30.5211L442.388 30.3075L442.174 30.3039L442.171 30.5039ZM442.063 31.751L442.062 31.951L442.247 31.9522L442.262 31.7681L442.063 31.751ZM442.003 31.75V31.55H442.003L442.003 31.75ZM433.25 40.5H433.05H433.25ZM442.003 49.25L442.003 49.45H442.003V49.25ZM450.739 41.0215L450.715 40.8229L450.549 40.8428L450.539 41.0097L450.739 41.0215ZM451.997 40.8711L452.197 40.8784L452.205 40.6448L451.973 40.6725L451.997 40.8711ZM442.003 50.5L442.003 50.7H442.003V50.5ZM432 40.5H431.8H432ZM442.003 30.5V30.3H442.003L442.003 30.5ZM452.007 40.5H452.207H452.007ZM452.006 40.5391H451.806L452.206 40.5398L452.006 40.5391ZM452.006 40.46L452.206 40.4592L451.806 40.46H452.006ZM442.171 30.5039L441.971 30.4867L441.864 31.7338L442.063 31.751L442.262 31.7681L442.37 30.5211L442.171 30.5039ZM442.063 31.751L442.065 31.551C442.064 31.551 442.014 31.55 442.003 31.55V31.75V31.95C442.032 31.95 442.023 31.9507 442.062 31.951L442.063 31.751ZM442.003 31.75L442.003 31.55C437.058 31.5502 433.05 35.5571 433.05 40.5H433.25H433.45C433.45 35.7782 437.279 31.9502 442.003 31.95L442.003 31.75ZM433.25 40.5H433.05C433.05 45.4429 437.058 49.4498 442.003 49.45L442.003 49.25L442.003 49.05C437.279 49.0498 433.45 45.2218 433.45 40.5H433.25ZM442.003 49.25V49.45C446.768 49.45 450.663 45.728 450.939 41.0332L450.739 41.0215L450.539 41.0097C450.276 45.4943 446.555 49.05 442.003 49.05V49.25ZM450.739 41.0215L450.763 41.2201L452.021 41.0697L451.997 40.8711L451.973 40.6725L450.715 40.8229L450.739 41.0215ZM451.997 40.8711L451.797 40.8638C451.606 46.1075 447.295 50.3 442.003 50.3V50.5V50.7C447.511 50.7 451.997 46.3364 452.197 40.8784L451.997 40.8711ZM442.003 50.5L442.003 50.3C436.589 50.2998 432.2 45.9122 432.2 40.5H432H431.8C431.8 46.1332 436.368 50.6998 442.003 50.7L442.003 50.5ZM432 40.5H432.2C432.2 35.0878 436.589 30.7002 442.003 30.7L442.003 30.5L442.003 30.3C436.368 30.3002 431.8 34.8668 431.8 40.5H432ZM442.003 30.5V30.7C442.06 30.7 442.098 30.7027 442.167 30.7039L442.171 30.5039L442.174 30.3039C442.131 30.3032 442.057 30.3 442.003 30.3V30.5ZM452.007 40.5H451.807C451.807 40.5023 451.807 40.5053 451.806 40.5122C451.806 40.518 451.806 40.5279 451.806 40.5383L452.006 40.5391L452.206 40.5398C452.206 40.5372 452.206 40.5341 452.206 40.5268C452.206 40.5207 452.207 40.5107 452.207 40.5H452.007ZM452.006 40.5391H452.206V40.46H452.006H451.806V40.5391H452.006ZM452.006 40.46L451.806 40.4607C451.806 40.4712 451.806 40.4811 451.806 40.4871C451.807 40.4942 451.807 40.4974 451.807 40.5H452.007H452.207C452.207 40.4892 452.206 40.4791 452.206 40.4729C452.206 40.4655 452.206 40.4621 452.206 40.4592L452.006 40.46Z" fill="#999999" mask="url(#path-9-outside-2_5569_43914)"/>
<path d="M478.474 28.882C478.88 29.89 479.244 30.982 479.566 32.13L478.572 32.592C478.264 31.5 477.956 30.52 477.634 29.652C477.592 32.186 477.522 33.838 477.438 34.608C477.298 35.742 476.612 36.316 475.38 36.316C475.156 36.316 474.792 36.288 474.288 36.246L473.966 35.028C474.414 35.056 474.82 35.084 475.156 35.084C475.744 35.084 476.08 34.72 476.178 33.992C476.262 33.32 476.304 31.066 476.332 27.216H474.834V27.3C474.778 31.486 473.672 34.538 471.488 36.47L470.494 35.588C472.482 33.866 473.504 31.108 473.546 27.3V27.216H471.278V25.928H473.546V23.632H474.834V25.928H477.648C477.648 27.118 477.634 28.196 477.634 29.162L478.474 28.882ZM471.432 28.84L472.482 29.106C472.09 30.772 471.516 32.046 470.788 32.942L469.892 32.102C470.606 31.192 471.124 30.1 471.432 28.84ZM466.532 26.712H468.044V23.604H469.318V26.712H470.774V27.958H469.318V36.442H468.044V27.958H466.532V26.712ZM486.916 26.684C486.272 28.028 485.544 29.19 484.746 30.17L483.794 29.022C484.956 27.664 485.95 25.788 486.762 23.408L488.106 23.702C487.91 24.29 487.7 24.85 487.49 25.382H493.258V26.684H488.764V28.686H492.698V29.974H488.764V32.032H492.726V33.306H488.764V36.47H487.42V26.684H486.916ZM482.142 28.994C481.75 29.47 481.316 29.946 480.868 30.408L480.42 28.98C481.862 27.398 482.926 25.55 483.612 23.45L484.872 24.038C484.508 25.102 484.046 26.11 483.486 27.062V36.47H482.142V28.994ZM507.02 24.906V28.21H505.662V26.194H496.31V28.21H494.952V24.906H500.188C500.048 24.486 499.88 24.108 499.712 23.772L501.21 23.52C501.378 23.926 501.532 24.388 501.686 24.906H507.02ZM497.01 27.538H504.934V28.812H497.01V27.538ZM494.868 30.142H507.146V31.416H503.324V34.342C503.324 34.762 503.492 34.986 503.856 34.986H505.62C505.788 34.986 505.9 34.888 505.984 34.706C506.068 34.51 506.124 33.922 506.166 32.942L507.426 33.334C507.314 34.748 507.146 35.588 506.908 35.854C506.684 36.106 506.334 36.246 505.858 36.246H503.436C502.47 36.246 501.994 35.7 501.994 34.622V31.416H499.894V31.458C499.838 32.83 499.446 33.936 498.746 34.762C498.06 35.518 496.94 36.12 495.386 36.54L494.63 35.35C496.128 34.972 497.15 34.482 497.71 33.894C498.228 33.264 498.522 32.452 498.578 31.458V31.416H494.868V30.142ZM509.33 24.668H512.214C512.018 24.318 511.794 23.996 511.556 23.702L513.04 23.45C513.236 23.814 513.432 24.22 513.628 24.668H516.442C516.722 24.262 516.932 23.842 517.072 23.422L518.486 23.604C518.346 23.982 518.136 24.332 517.884 24.668H520.67V25.816H515.658V26.516H520.026V27.552H515.658V28.238H520.964V29.386H518.892C518.752 29.736 518.598 30.072 518.416 30.394H521.174V31.57H508.826V30.394H511.682C511.514 30.03 511.332 29.694 511.136 29.386H509.036V28.238H514.342V27.552H509.974V26.516H514.342V25.816H509.33V24.668ZM517.114 30.394C517.31 30.058 517.464 29.722 517.604 29.386H515.658V30.394H517.114ZM512.494 29.386C512.648 29.694 512.788 30.03 512.928 30.394H514.342V29.386H512.494ZM519.83 32.326V36.442H518.514V35.98H511.514V36.442H510.184V32.326H519.83ZM511.514 34.748H518.514V33.502H511.514V34.748ZM532.57 23.422C533.214 23.912 533.76 24.402 534.208 24.906L533.564 25.55H535.244V26.824H531.072C531.17 28.476 531.338 29.764 531.576 30.674C531.632 30.912 531.702 31.15 531.772 31.374C532.36 30.338 532.85 29.162 533.242 27.832L534.46 28.35C533.9 30.142 533.2 31.682 532.332 32.942C532.486 33.278 532.64 33.558 532.794 33.796C533.214 34.412 533.55 34.734 533.774 34.734C533.956 34.734 534.138 34.048 534.32 32.676L535.524 33.32C535.174 35.252 534.656 36.232 533.984 36.232C533.368 36.232 532.724 35.812 532.052 34.986C531.828 34.706 531.632 34.398 531.45 34.062C530.512 35.112 529.42 35.91 528.188 36.456L527.432 35.336C528.776 34.734 529.91 33.866 530.834 32.718C530.638 32.214 530.47 31.668 530.316 31.08C530.008 29.946 529.812 28.532 529.714 26.824H525.206V28.868H528.636C528.608 31.402 528.482 32.998 528.258 33.67C528.034 34.258 527.558 34.552 526.83 34.566C526.494 34.566 526.102 34.538 525.668 34.496L525.262 33.292C525.822 33.32 526.284 33.348 526.676 33.348C526.928 33.334 527.082 33.18 527.166 32.872C527.25 32.508 527.292 31.584 527.32 30.128H525.206V30.212C525.15 32.802 524.576 34.874 523.512 36.442L522.504 35.546C523.372 34.272 523.834 32.494 523.876 30.212V25.55H529.644C529.616 24.892 529.616 24.206 529.616 23.492H530.96C530.96 24.22 530.988 24.906 531.016 25.55H533.172C532.794 25.13 532.318 24.682 531.73 24.234L532.57 23.422ZM540.9 23.786L542.048 24.486C541.404 25.634 540.746 26.586 540.088 27.314C539.416 28.07 538.492 28.868 537.288 29.708L536.56 28.546C537.456 28.042 538.296 27.356 539.08 26.474C539.724 25.732 540.326 24.836 540.9 23.786ZM541.306 30.254H538.688V28.98H547.158C547.102 30.772 547.018 32.214 546.878 33.334C546.738 34.426 546.514 35.196 546.192 35.63C545.87 36.05 545.352 36.288 544.638 36.33H541.992L541.628 35.014C542.454 35.042 543.238 35.07 543.966 35.07C544.666 35.07 545.142 34.776 545.366 34.188C545.59 33.572 545.744 32.256 545.814 30.254H542.65C542.314 31.71 541.866 32.872 541.306 33.74C540.578 34.748 539.5 35.672 538.072 36.484L537.218 35.378C538.478 34.706 539.444 33.95 540.088 33.124C540.606 32.382 541.012 31.43 541.306 30.254ZM545.156 23.604C545.926 25.704 547.34 27.37 549.412 28.602L548.516 29.652C546.36 28.252 544.848 26.46 543.994 24.262L545.156 23.604ZM552.002 29.064C551.638 29.54 551.26 30.016 550.84 30.492L550.406 29.064C551.694 27.44 552.66 25.536 553.29 23.38L554.536 23.968C554.214 25.004 553.808 26.012 553.304 26.978V36.47H552.002V29.064ZM554.284 25.214H558.386C558.204 24.738 557.994 24.276 557.756 23.828L559.03 23.478C559.324 24.108 559.548 24.682 559.702 25.214H563.482V26.46H554.284V25.214ZM555.558 27.314H562.292V28.504H555.558V27.314ZM555.558 29.288H562.292V30.492H555.558V29.288ZM562.586 31.374V36.442H561.298V35.714H556.538V36.442H555.25V31.374H562.586ZM556.538 34.468H561.298V32.606H556.538V34.468ZM566.576 24.472H569.67C569.838 24.122 569.964 23.772 570.062 23.408L571.448 23.59C571.364 23.898 571.238 24.192 571.098 24.472H575.536V31.542H566.576V24.472ZM574.248 30.408V29.498H567.864V30.408H574.248ZM567.864 28.434H574.248V27.552H567.864V28.434ZM567.864 26.502H574.248V25.606H567.864V26.502ZM565.82 32.354L567.08 32.606C566.744 33.908 566.296 35.028 565.708 35.98L564.588 35.266C565.176 34.37 565.582 33.39 565.82 32.354ZM572.792 36.232H569.236C568.312 36.232 567.85 35.784 567.85 34.888V32.326H569.194V34.608C569.194 34.888 569.334 35.042 569.614 35.042H572.54C572.806 35.042 572.988 34.972 573.086 34.832C573.24 34.664 573.338 34.174 573.38 33.348L574.654 33.754C574.542 34.944 574.332 35.658 574.038 35.91C573.758 36.12 573.352 36.232 572.792 36.232ZM571.07 31.78C571.756 32.48 572.288 33.082 572.652 33.614L571.658 34.314C571.266 33.726 570.748 33.082 570.09 32.382L571.07 31.78ZM575.55 32.074C576.39 33.166 577.02 34.132 577.468 34.944L576.418 35.686C575.942 34.79 575.312 33.81 574.514 32.718L575.55 32.074Z" fill="#3C3C3C"/>
<path d="M466.6 52.164H477.388V53.028H466.6V52.164ZM479.164 51.504C479.14 51.564 479.104 51.624 479.08 51.684L478.408 51.252C478.972 50.004 479.38 48.624 479.644 47.112L480.46 47.28C480.364 47.724 480.28 48.144 480.184 48.552H482.008V49.38H479.956C479.788 49.956 479.596 50.484 479.392 50.988H481.972V51.756H480.916V53.232H482.152V54.024H480.916V56.784C481.312 56.568 481.72 56.304 482.128 55.968L482.272 56.712C481.66 57.168 480.952 57.552 480.16 57.852L479.812 57.132C480.028 57.048 480.136 56.928 480.136 56.76V54.024H478.792V53.232H480.136V51.756H479.164V51.504ZM488.8 52.236H487.132V53.16H488.932V53.844H487.132V54.792H489.232V55.512H487.132V56.688H486.352V55.512H484.744V54.792H486.352V53.844H485.044V53.16H486.352V52.236H485.164V51.54H486.352V50.568H484.756V49.872H486.352V48.852H485.164V48.156H486.352V47.268H487.132V48.156H488.8V49.872H489.364V50.568H488.8V52.236ZM487.132 48.852V49.872H488.068V48.852H487.132ZM487.132 50.568V51.54H488.068V50.568H487.132ZM487.636 57.216C488.428 57.216 489.064 57.192 489.532 57.168L489.376 57.996H488.068C486.292 57.972 485.08 57.756 484.456 57.348C484.168 57.168 483.916 56.952 483.7 56.7C483.436 57.252 483.112 57.72 482.74 58.128L482.152 57.552C482.56 57.12 482.908 56.604 483.172 56.004C482.752 55.332 482.416 54.492 482.176 53.484L482.824 53.244C482.98 53.952 483.208 54.576 483.496 55.128C483.736 54.312 483.88 53.376 483.928 52.32H482.5V51.72C482.98 50.904 483.424 50.016 483.808 49.068H482.416V48.324H484.588V49.032C484.18 50.04 483.784 50.892 483.388 51.612H484.624V52.08C484.6 53.58 484.396 54.864 484.024 55.92C484.336 56.304 484.696 56.58 485.08 56.76C485.62 57.024 486.472 57.168 487.636 57.216ZM491.368 47.376C492.112 48.012 492.724 48.648 493.216 49.284L492.628 49.872C492.172 49.272 491.56 48.624 490.792 47.928L491.368 47.376ZM498.508 57.984C497.824 57.984 497.08 57.972 496.276 57.96C495.46 57.948 494.8 57.876 494.296 57.744C493.804 57.6 493.372 57.3 492.988 56.868C492.82 56.664 492.652 56.568 492.496 56.568C492.256 56.568 491.836 57.108 491.248 58.212L490.636 57.648C491.188 56.652 491.68 56.04 492.112 55.824V52.14H490.648V51.336H492.928V55.848C493.024 55.92 493.132 56.004 493.24 56.124C493.552 56.472 493.888 56.724 494.224 56.88C494.62 57.048 495.184 57.144 495.916 57.168C496.588 57.18 497.404 57.192 498.388 57.192C498.952 57.192 499.528 57.18 500.116 57.168C500.692 57.156 501.148 57.144 501.46 57.12L501.256 57.984H498.508ZM494.152 48.024H495.304C495.388 47.724 495.448 47.412 495.496 47.088L496.36 47.208C496.288 47.496 496.204 47.772 496.108 48.024H497.536V51.036C498.1 50.028 498.484 48.732 498.7 47.124L499.492 47.268C499.396 47.88 499.276 48.444 499.132 48.972H501.424V49.776H500.824C500.776 51.12 500.596 52.308 500.272 53.328C500.68 54.024 501.088 54.804 501.472 55.68L500.908 56.244C500.596 55.5 500.272 54.804 499.936 54.18C499.504 55.14 498.916 55.92 498.196 56.544L497.752 55.848C498.508 55.224 499.072 54.384 499.456 53.34C499.096 52.752 498.712 52.212 498.304 51.72L498.748 51.216C499.084 51.576 499.408 51.984 499.72 52.464C499.912 51.66 500.032 50.76 500.056 49.776H498.892C498.616 50.532 498.28 51.18 497.884 51.72L497.536 51.288V51.348H496.024L496.324 52.08H497.956V52.812H495.604C495.556 53.076 495.52 53.328 495.484 53.544H497.584C497.584 54.9 497.5 55.728 497.332 56.016C497.152 56.304 496.852 56.46 496.42 56.472H495.736L495.52 55.764H496.216C496.456 55.752 496.624 55.656 496.696 55.476C496.756 55.296 496.792 54.876 496.804 54.228H495.328C495.268 54.432 495.208 54.612 495.148 54.78C494.908 55.332 494.56 55.836 494.104 56.28L493.612 55.644C493.984 55.284 494.272 54.876 494.464 54.432C494.632 54.012 494.752 53.472 494.836 52.812H493.756V52.08H495.508L495.208 51.348H494.152V48.024ZM496.804 50.748V49.98H494.884V50.748H496.804ZM494.884 49.38H496.804V48.624H494.884V49.38ZM509.368 47.196H510.196V47.976H513.172V48.684H510.196V49.488H512.74V50.184H510.196V51H513.472V51.72H506.128V51H509.368V50.184H506.944V49.488H509.368V48.684H506.464V47.976H509.368V47.196ZM507.868 54.744V55.62H511.744V54.744H507.868ZM511.744 54.072V53.184H507.868V54.072H511.744ZM507.868 56.292V58.2H507.04V52.476H512.572V57.156C512.572 57.804 512.224 58.128 511.552 58.128H510.544L510.34 57.36L511.3 57.396C511.588 57.396 511.744 57.252 511.744 56.976V56.292H507.868ZM503.956 47.328C504.76 47.928 505.432 48.54 505.984 49.152L505.396 49.752C504.892 49.176 504.208 48.564 503.344 47.916L503.956 47.328ZM502.504 50.868H505.048V56.136C505.408 55.8 505.78 55.428 506.188 55.008L506.416 55.92C505.744 56.616 505.024 57.24 504.28 57.78L503.944 57.012C504.124 56.844 504.22 56.664 504.22 56.46V51.696H502.504V50.868ZM524.944 47.904V58.2H524.104V57.456H520.168V58.212H519.34V47.904H524.944ZM520.168 56.64H524.104V54.516H520.168V56.64ZM520.168 53.712H524.104V51.588H520.168V53.712ZM520.168 50.784H524.104V48.72H520.168V50.784ZM517.228 51.924V58.188H516.376V52.104C515.968 53.256 515.452 54.288 514.804 55.224L514.468 54.372C515.344 53.208 515.968 51.876 516.352 50.376H514.684V49.548H516.376V47.208H517.228V49.548H518.776V50.376H517.228V51.012C517.78 51.588 518.332 52.236 518.884 52.944L518.416 53.64C517.96 52.944 517.564 52.368 517.228 51.924ZM529.72 47.244C530.2 47.868 530.656 48.54 531.088 49.284L530.308 49.68C529.876 48.912 529.42 48.228 528.928 47.628L529.72 47.244ZM534.232 47.136L535.06 47.364C534.772 48.228 534.412 49.008 533.98 49.692H536.452V50.532H532.444V51.096C532.42 51.696 532.372 52.26 532.276 52.764H537.148V53.604H532.78C533.368 55.224 534.916 56.484 537.436 57.384L536.932 58.188C534.292 57.12 532.66 55.668 532.012 53.844C531.784 54.528 531.484 55.128 531.1 55.644C530.284 56.7 528.952 57.528 527.104 58.116L526.636 57.36C528.472 56.772 529.756 55.992 530.476 55.032C530.764 54.6 530.992 54.132 531.16 53.604H526.852V52.764H531.376C531.484 52.236 531.544 51.684 531.556 51.096V50.532H527.536V49.692H533.02C533.476 48.996 533.872 48.144 534.232 47.136ZM548.068 50.292V55.74H547.228V51.108H541.324V55.836H540.484V50.592C540.124 50.88 539.752 51.144 539.392 51.384L538.84 50.724C540.304 49.836 541.516 48.66 542.452 47.208L543.304 47.388C543.124 47.676 542.944 47.952 542.752 48.216H546.724V48.852C546.292 49.416 545.872 49.896 545.452 50.292H548.068ZM544.444 50.292C544.852 49.92 545.26 49.488 545.668 48.984H542.152C541.744 49.464 541.3 49.896 540.844 50.292H544.444ZM544.912 55.416C546.496 55.992 547.936 56.676 549.244 57.492L548.764 58.224C547.372 57.312 545.944 56.592 544.48 56.064L544.912 55.416ZM543.82 51.804H544.66V53.46C544.612 54.756 544.192 55.776 543.412 56.544C542.644 57.252 541.384 57.804 539.644 58.212L539.176 57.48C540.904 57.096 542.116 56.604 542.8 55.98C543.436 55.332 543.772 54.492 543.82 53.46V51.804ZM551.164 47.976H555.568V47.22H556.432V47.976H560.788V48.696H556.432V49.476H560.176V50.184H556.432V50.988H561.172V51.732H550.828V50.988H555.568V50.184H551.788V49.476H555.568V48.696H551.164V47.976ZM559.684 52.44V56.028H558.856V53.208H553.108V56.124H552.28V52.44H559.684ZM556.648 55.644C558.232 56.172 559.672 56.796 560.968 57.528L560.476 58.272C559.084 57.456 557.656 56.82 556.18 56.352L556.648 55.644ZM555.592 53.844L556.432 53.928C556.276 55.092 555.808 56.028 555.028 56.724C554.344 57.348 553.132 57.84 551.392 58.2L551.044 57.384C552.568 57.096 553.672 56.688 554.356 56.148C555.028 55.596 555.436 54.828 555.592 53.844ZM568.432 47.22C568.432 48.252 568.396 49.14 568.348 49.884C569.02 53.148 570.76 55.644 573.556 57.36L572.992 58.116C570.544 56.508 568.888 54.348 568.036 51.636C567.316 54.252 565.612 56.412 562.948 58.128L562.42 57.36C565.72 55.332 567.424 52.584 567.532 49.128C567.544 48.312 567.556 47.676 567.556 47.22H568.432ZM585.076 48.48V51.168H584.2V49.32H575.776V51.168H574.9V48.48H579.508C579.364 48.072 579.22 47.7 579.052 47.364L580.024 47.196C580.18 47.58 580.336 48 580.48 48.48H585.076ZM576.616 50.712H583.336V51.552H576.616V50.712ZM574.78 52.968H585.232V53.796H581.836V56.64C581.836 57 582.004 57.192 582.352 57.192H583.948C584.164 57.192 584.308 57.108 584.392 56.952C584.488 56.772 584.56 56.232 584.608 55.32L585.424 55.584C585.352 56.736 585.208 57.444 584.992 57.684C584.8 57.9 584.512 58.02 584.104 58.02H582.076C581.332 58.02 580.972 57.612 580.972 56.82V53.796H578.956V53.88C578.92 55.056 578.596 56.004 577.996 56.724C577.396 57.372 576.424 57.888 575.08 58.26L574.588 57.492C575.896 57.156 576.808 56.712 577.336 56.148C577.816 55.572 578.068 54.816 578.104 53.88V53.796H574.78V52.968ZM587.176 48.252H589.828C589.648 47.904 589.456 47.592 589.24 47.304L590.188 47.136C590.38 47.472 590.56 47.844 590.74 48.252H593.308C593.572 47.892 593.764 47.508 593.908 47.112L594.82 47.232C594.676 47.592 594.484 47.94 594.244 48.252H596.824V49.02H592.432V49.824H596.284V50.52H592.432V51.312H597.076V52.08H595.252C595.108 52.476 594.928 52.848 594.712 53.184H597.256V53.964H586.744V53.184H589.324C589.156 52.8 588.964 52.428 588.736 52.08H586.924V51.312H591.568V50.52H587.716V49.824H591.568V49.02H587.176V48.252ZM593.86 53.184C594.088 52.812 594.268 52.44 594.412 52.08H592.432V53.184H593.86ZM589.648 52.08C589.816 52.416 589.972 52.776 590.128 53.184H591.568V52.08H589.648ZM596.008 54.828V58.2H595.144V57.732H588.856V58.2H588.004V54.828H596.008ZM588.856 56.94H595.144V55.596H588.856V56.94ZM601.204 50.556H602.056V52.32H603.568V53.1H602.056V54.72C602.656 54.6 603.22 54.48 603.748 54.348V55.176C603.208 55.32 602.644 55.44 602.056 55.56V58.2H601.204V55.716C600.412 55.848 599.596 55.968 598.744 56.076L598.636 55.236C599.548 55.128 600.412 55.008 601.204 54.876V53.1H599.008L598.828 52.332C599.164 51.636 599.488 50.76 599.788 49.704H598.66V48.864H600.016C600.136 48.336 600.268 47.772 600.388 47.196L601.216 47.328C601.096 47.868 600.988 48.384 600.868 48.864H603.772V49.704H600.64C600.352 50.688 600.052 51.564 599.728 52.32H601.204V50.556ZM604.948 47.1L605.8 47.232C605.716 47.892 605.608 48.504 605.488 49.056H609.22V49.608C609.004 50.652 608.728 51.684 608.368 52.692L607.504 52.452C607.828 51.696 608.104 50.844 608.32 49.884H605.284C604.996 50.832 604.636 51.612 604.204 52.212L603.496 51.708C604.24 50.604 604.732 49.068 604.948 47.1ZM605.944 50.688H606.772C606.772 51.516 606.724 52.272 606.652 52.956C607.228 54.864 608.2 56.376 609.568 57.492L608.956 58.2C607.84 57.18 606.988 55.932 606.4 54.456C606.376 54.54 606.364 54.624 606.34 54.708C605.956 56.148 605.092 57.324 603.748 58.236L603.172 57.54C604.336 56.748 605.104 55.752 605.488 54.552C605.776 53.544 605.932 52.248 605.944 50.688ZM613.144 47.124L613.96 47.496C613.648 48.444 613.252 49.344 612.772 50.196V58.212H611.92V51.516C611.536 52.044 611.116 52.548 610.66 53.028L610.384 52.104C611.656 50.664 612.568 48.996 613.144 47.124ZM615.16 47.916L616.012 48.024C615.916 48.624 615.784 49.2 615.616 49.728H617.38V47.232H618.244V49.728H621.004V50.568H618.244V53.46H621.448V54.288H618.244V58.152H617.38V54.288H613.852V53.46H617.38V50.568H615.34C615.04 51.36 614.668 52.068 614.224 52.692L613.672 51.972C614.404 50.868 614.896 49.512 615.16 47.916ZM630.928 47.16C631.504 47.592 631.996 48.036 632.404 48.48L631.852 49.032H633.316V49.86H629.62C629.704 51.348 629.86 52.524 630.076 53.388C630.148 53.688 630.232 53.964 630.316 54.228C630.916 53.268 631.396 52.14 631.768 50.856L632.548 51.192C632.068 52.776 631.444 54.12 630.676 55.2C630.844 55.584 631.024 55.92 631.216 56.196C631.612 56.772 631.936 57.06 632.176 57.06C632.392 57.048 632.596 56.424 632.776 55.188L633.556 55.62C633.268 57.216 632.86 58.02 632.32 58.02C631.816 58.02 631.276 57.66 630.7 56.94C630.484 56.652 630.28 56.316 630.1 55.944C629.26 56.928 628.276 57.66 627.148 58.164L626.668 57.444C627.868 56.904 628.888 56.112 629.716 55.068C629.548 54.624 629.392 54.144 629.26 53.628C628.996 52.62 628.828 51.36 628.732 49.86H624.616V51.852H627.556C627.532 53.88 627.436 55.188 627.28 55.776C627.124 56.292 626.752 56.556 626.152 56.58C625.864 56.58 625.516 56.556 625.132 56.532L624.868 55.752C625.336 55.776 625.732 55.788 626.056 55.788C626.32 55.776 626.488 55.596 626.56 55.26C626.632 54.852 626.668 53.988 626.692 52.668H624.616V53.028C624.568 55.176 624.088 56.904 623.2 58.2L622.54 57.612C623.308 56.508 623.704 54.984 623.74 53.028V49.032H628.696C628.672 48.432 628.66 47.82 628.66 47.172H629.548C629.548 47.844 629.56 48.456 629.584 49.032H631.828C631.468 48.6 630.988 48.156 630.376 47.688L630.928 47.16ZM638.332 47.448L639.088 47.904C638.524 48.9 637.96 49.716 637.396 50.352C636.796 51.048 635.992 51.732 634.996 52.404L634.528 51.648C635.344 51.18 636.088 50.568 636.748 49.812C637.324 49.14 637.852 48.36 638.332 47.448ZM638.728 52.8H636.304V51.972H643.468C643.432 53.472 643.36 54.684 643.24 55.608C643.12 56.52 642.928 57.168 642.652 57.528C642.388 57.876 641.956 58.068 641.356 58.104H639.172L638.932 57.252C639.628 57.276 640.288 57.288 640.912 57.288C641.56 57.288 641.98 57.012 642.184 56.46C642.4 55.884 642.532 54.672 642.592 52.8H639.604C639.316 54.108 638.92 55.152 638.404 55.92C637.792 56.784 636.868 57.552 635.644 58.236L635.092 57.516C636.196 56.916 637.036 56.256 637.6 55.536C638.104 54.84 638.476 53.928 638.728 52.8ZM641.716 47.292C642.412 49.14 643.648 50.604 645.436 51.672L644.86 52.356C643 51.156 641.704 49.608 640.972 47.712L641.716 47.292ZM649.72 47.244C650.2 47.868 650.656 48.54 651.088 49.284L650.308 49.68C649.876 48.912 649.42 48.228 648.928 47.628L649.72 47.244ZM654.232 47.136L655.06 47.364C654.772 48.228 654.412 49.008 653.98 49.692H656.452V50.532H652.444V51.096C652.42 51.696 652.372 52.26 652.276 52.764H657.148V53.604H652.78C653.368 55.224 654.916 56.484 657.436 57.384L656.932 58.188C654.292 57.12 652.66 55.668 652.012 53.844C651.784 54.528 651.484 55.128 651.1 55.644C650.284 56.7 648.952 57.528 647.104 58.116L646.636 57.36C648.472 56.772 649.756 55.992 650.476 55.032C650.764 54.6 650.992 54.132 651.16 53.604H646.852V52.764H651.376C651.484 52.236 651.544 51.684 651.556 51.096V50.532H647.536V49.692H653.02C653.476 48.996 653.872 48.144 654.232 47.136ZM659.164 51.504C659.14 51.564 659.104 51.624 659.08 51.684L658.408 51.252C658.972 50.004 659.38 48.624 659.644 47.112L660.46 47.28C660.364 47.724 660.28 48.144 660.184 48.552H662.008V49.38H659.956C659.788 49.956 659.596 50.484 659.392 50.988H661.972V51.756H660.916V53.232H662.152V54.024H660.916V56.784C661.312 56.568 661.72 56.304 662.128 55.968L662.272 56.712C661.66 57.168 660.952 57.552 660.16 57.852L659.812 57.132C660.028 57.048 660.136 56.928 660.136 56.76V54.024H658.792V53.232H660.136V51.756H659.164V51.504ZM668.8 52.236H667.132V53.16H668.932V53.844H667.132V54.792H669.232V55.512H667.132V56.688H666.352V55.512H664.744V54.792H666.352V53.844H665.044V53.16H666.352V52.236H665.164V51.54H666.352V50.568H664.756V49.872H666.352V48.852H665.164V48.156H666.352V47.268H667.132V48.156H668.8V49.872H669.364V50.568H668.8V52.236ZM667.132 48.852V49.872H668.068V48.852H667.132ZM667.132 50.568V51.54H668.068V50.568H667.132ZM667.636 57.216C668.428 57.216 669.064 57.192 669.532 57.168L669.376 57.996H668.068C666.292 57.972 665.08 57.756 664.456 57.348C664.168 57.168 663.916 56.952 663.7 56.7C663.436 57.252 663.112 57.72 662.74 58.128L662.152 57.552C662.56 57.12 662.908 56.604 663.172 56.004C662.752 55.332 662.416 54.492 662.176 53.484L662.824 53.244C662.98 53.952 663.208 54.576 663.496 55.128C663.736 54.312 663.88 53.376 663.928 52.32H662.5V51.72C662.98 50.904 663.424 50.016 663.808 49.068H662.416V48.324H664.588V49.032C664.18 50.04 663.784 50.892 663.388 51.612H664.624V52.08C664.6 53.58 664.396 54.864 664.024 55.92C664.336 56.304 664.696 56.58 665.08 56.76C665.62 57.024 666.472 57.168 667.636 57.216ZM671.848 51.48C671.488 52.008 671.092 52.524 670.66 53.004L670.384 52.08C671.56 50.628 672.412 48.96 672.952 47.088L673.756 47.46C673.468 48.384 673.12 49.248 672.7 50.064V58.224H671.848V51.48ZM673.708 48.78H677.404C677.224 48.3 677.02 47.844 676.78 47.388L677.608 47.16C677.86 47.688 678.052 48.168 678.196 48.612L677.74 48.78H681.52V49.596H673.708V48.78ZM674.812 50.568H680.488V51.348H674.812V50.568ZM674.812 52.26H680.488V53.052H674.812V52.26ZM680.704 54.036V58.2H679.864V57.552H675.424V58.2H674.584V54.036H680.704ZM675.424 56.736H679.864V54.84H675.424V56.736ZM684.292 48.084H686.932C687.1 47.772 687.22 47.46 687.304 47.124L688.204 47.244C688.108 47.544 687.988 47.82 687.844 48.084H691.804V53.952H684.292V48.084ZM690.964 53.208V52.2H685.132V53.208H690.964ZM685.132 51.504H690.964V50.52H685.132V51.504ZM685.132 49.824H690.964V48.84H685.132V49.824ZM683.692 54.768L684.508 54.936C684.22 56.04 683.824 56.988 683.308 57.804L682.576 57.336C683.092 56.568 683.464 55.704 683.692 54.768ZM689.476 58.02H686.392C685.696 58.02 685.36 57.672 685.36 57V54.708H686.236V56.82C686.236 57.096 686.368 57.24 686.644 57.24H689.308C689.584 57.24 689.776 57.168 689.872 57.048C690.016 56.88 690.124 56.412 690.172 55.632L691 55.896C690.904 56.904 690.736 57.516 690.496 57.744C690.28 57.924 689.932 58.02 689.476 58.02ZM687.868 54.276C688.516 54.9 689.008 55.452 689.356 55.92L688.696 56.376C688.336 55.86 687.856 55.296 687.232 54.672L687.868 54.276ZM691.744 54.552C692.512 55.512 693.1 56.364 693.508 57.084L692.824 57.564C692.392 56.784 691.804 55.92 691.072 54.972L691.744 54.552ZM696.232 55.572C696.496 55.572 696.724 55.68 696.892 55.908C697.048 56.124 697.132 56.4 697.132 56.748C697.132 57.276 696.976 57.744 696.664 58.152C696.352 58.536 695.932 58.8 695.428 58.932V58.344C695.74 58.236 695.992 58.056 696.184 57.816C696.352 57.564 696.448 57.3 696.448 57.012C696.4 57.036 696.304 57.06 696.184 57.06C695.98 57.06 695.812 56.988 695.668 56.844C695.524 56.7 695.452 56.52 695.452 56.316C695.452 56.088 695.524 55.908 695.668 55.776C695.812 55.632 695.992 55.572 696.232 55.572ZM710.596 47.88V56.16H707.896V57.108H707.032V47.88H710.596ZM707.896 55.308H709.768V52.368H707.896V55.308ZM707.896 51.54H709.768V48.732H707.896V51.54ZM712.768 51.336V53.412H715.948V51.336H712.768ZM715.948 50.532V48.42H712.768V50.532H715.948ZM712.72 54.216C712.564 55.848 712.096 57.192 711.304 58.248L710.62 57.624C711.46 56.472 711.88 55.02 711.904 53.256V47.592H716.824V57C716.824 57.72 716.452 58.092 715.72 58.092H714.148L713.92 57.24C714.472 57.264 714.976 57.288 715.444 57.288C715.78 57.288 715.948 57.084 715.948 56.688V54.216H712.72ZM724.288 53.04V54.264C724.288 54.36 724.276 54.468 724.276 54.576H725.836V53.04H724.288ZM724.216 55.332C724.072 56.46 723.736 57.396 723.184 58.164L722.56 57.6C723.16 56.736 723.46 55.632 723.484 54.312V50.376C723.304 50.544 723.124 50.712 722.956 50.856L722.416 50.22C723.364 49.44 724.144 48.42 724.756 47.172L725.584 47.352C725.464 47.604 725.332 47.844 725.212 48.084H728.104V48.696C727.744 49.224 727.384 49.68 727.024 50.04H729.04V57.228C729.04 57.768 728.728 58.044 728.116 58.044H727.228L727.024 57.264C727.324 57.288 727.6 57.312 727.864 57.312C728.104 57.312 728.224 57.18 728.224 56.94V55.332H726.616V57.984H725.836V55.332H724.216ZM726.088 50.04C726.436 49.68 726.772 49.272 727.108 48.816H724.768C724.468 49.26 724.144 49.668 723.808 50.04H726.088ZM728.224 54.576V53.04H726.616V54.576H728.224ZM728.224 52.272V50.808H726.616V52.272H728.224ZM725.836 50.808H724.288V52.272H725.836V50.808ZM718.804 47.868H722.812V48.708H721C720.844 49.68 720.616 50.592 720.328 51.432H722.512V56.892H720.412V57.804H719.596V53.1C719.392 53.472 719.176 53.82 718.96 54.156L718.456 53.352C719.32 51.996 719.884 50.448 720.16 48.708H718.804V47.868ZM720.412 56.112H721.72V52.224H720.412V56.112ZM731.164 47.976H735.568V47.22H736.432V47.976H740.788V48.696H736.432V49.476H740.176V50.184H736.432V50.988H741.172V51.732H730.828V50.988H735.568V50.184H731.788V49.476H735.568V48.696H731.164V47.976ZM739.684 52.44V56.028H738.856V53.208H733.108V56.124H732.28V52.44H739.684ZM736.648 55.644C738.232 56.172 739.672 56.796 740.968 57.528L740.476 58.272C739.084 57.456 737.656 56.82 736.18 56.352L736.648 55.644ZM735.592 53.844L736.432 53.928C736.276 55.092 735.808 56.028 735.028 56.724C734.344 57.348 733.132 57.84 731.392 58.2L731.044 57.384C732.568 57.096 733.672 56.688 734.356 56.148C735.028 55.596 735.436 54.828 735.592 53.844ZM745.444 51.948V58.152H744.58V51.924C744.148 53.196 743.56 54.336 742.828 55.356L742.444 54.384C743.428 53.208 744.136 51.876 744.556 50.376H742.696V49.548H744.58V47.208H745.444V49.548H747.028V50.376H745.444V51.06C746.044 51.636 746.656 52.296 747.268 53.016L746.776 53.748C746.26 53.004 745.816 52.404 745.444 51.948ZM751.876 48.756H748.636C748.78 50.604 749.284 52.26 750.16 53.724C751.024 52.284 751.588 50.628 751.876 48.756ZM749.656 54.492C748.588 52.764 747.964 50.856 747.796 48.756H747.316V47.928H752.716V48.744C752.368 50.988 751.684 52.92 750.676 54.528C751.444 55.608 752.404 56.592 753.58 57.468L752.992 58.164C751.864 57.276 750.916 56.304 750.172 55.26C749.332 56.4 748.3 57.36 747.088 58.152L746.536 57.456C747.796 56.616 748.84 55.632 749.656 54.492ZM757.54 47.208H758.404V52.416C758.356 55.056 757.384 56.976 755.476 58.188L754.828 57.624C756.604 56.544 757.516 54.804 757.54 52.416V47.208ZM754.996 48.324H755.86V54.204H754.996V48.324ZM759.088 48.132H764.92V57.936H764.044V57.204H758.824V56.352H764.044V52.992H759.376V52.164H764.044V48.972H759.088V48.132ZM769.672 51.828H772.504V51.204C771.52 51.228 770.452 51.252 769.324 51.252L769.108 50.604C771.976 50.604 774.364 50.496 776.26 50.28L776.62 50.904C775.672 51.024 774.568 51.108 773.32 51.168V51.828H776.2V53.916H773.32V54.6H777.016V57.168C777.016 57.828 776.692 58.164 776.068 58.164H774.808L774.616 57.432L775.828 57.468C776.092 57.468 776.236 57.312 776.236 57V55.296H774.808C775.096 55.872 775.348 56.46 775.564 57.084L774.964 57.348C774.892 57.156 774.832 56.964 774.772 56.796C773.524 56.964 772.204 57.12 770.8 57.252L770.62 56.532C771.268 56.484 771.892 56.448 772.504 56.4V55.296H769.9V58.2H769.096V54.6H772.504V53.916H769.672V51.828ZM773.272 55.296V56.328L774.532 56.184C774.4 55.86 774.268 55.56 774.124 55.296H773.272ZM775.42 53.292V52.464H773.32V53.292H775.42ZM772.504 53.292V52.464H770.464V53.292H772.504ZM775.936 48.348H768.568V49.236H775.936V48.348ZM768.568 49.896V51.168C768.556 53.832 768.088 56.124 767.176 58.032L766.54 57.456C767.32 55.836 767.716 53.736 767.728 51.168V47.652H776.764V49.896H768.568Z" fill="#999999"/>
<defs>
<filter id="filter0_d_5569_43914" x="0" y="0" width="417.663" height="84" filterUnits="userSpaceOnUse" color-interpolation-filters="sRGB">
<feFlood flood-opacity="0" result="BackgroundImageFix"/>
<feColorMatrix in="SourceAlpha" type="matrix" values="0 0 0 0 0 0 0 0 0 0 0 0 0 0 0 0 0 0 127 0" result="hardAlpha"/>
<feOffset dx="2" dy="2"/>
<feGaussianBlur stdDeviation="5"/>
<feColorMatrix type="matrix" values="0 0 0 0 0.0745098 0 0 0 0 0.235294 0 0 0 0 0.603922 0 0 0 0.1 0"/>
<feBlend mode="normal" in2="BackgroundImageFix" result="effect1_dropShadow_5569_43914"/>
<feBlend mode="normal" in="SourceGraphic" in2="effect1_dropShadow_5569_43914" result="shape"/>
</filter>
</defs>
</svg>
