<svg width="806" height="84" viewBox="0 0 806 84" fill="none" xmlns="http://www.w3.org/2000/svg">
<path d="M0 12C0 9.79086 1.79086 8 4 8H381.938C383.55 8 385.005 8.96786 385.627 10.4549L397.353 38.4549C397.767 39.4434 397.767 40.5566 397.353 41.5451L385.627 69.5451C385.005 71.0321 383.55 72 381.938 72H3.99999C1.79085 72 0 70.2091 0 68V12Z" fill="#F2F2F2"/>
<path d="M28 30C33.5228 30 38 34.4772 38 40C38 45.5228 33.5228 50 28 50C22.4772 50 18 45.5228 18 40C18 34.4772 22.4772 30 28 30ZM28 31.5C23.3056 31.5 19.5 35.3056 19.5 40C19.5 44.6944 23.3056 48.5 28 48.5C32.6944 48.5 36.5 44.6944 36.5 40C36.5 35.3056 32.6944 31.5 28 31.5ZM31.584 36.7988C31.761 36.6218 32.0485 36.6219 32.2256 36.7988L32.8672 37.4404C33.0443 37.6175 33.0443 37.9049 32.8672 38.082L27.0947 43.8545C26.9176 44.0316 26.6302 44.0316 26.4531 43.8545L23.1328 40.5342C22.9557 40.3571 22.9557 40.0697 23.1328 39.8926L23.7744 39.251C23.9516 39.0741 24.239 39.074 24.416 39.251L26.7734 41.6094L31.584 36.7988Z" fill="#999999"/>
<path d="M52.812 25.124H54.604V22.548H55.934V25.124H57.278V26.398H55.934V27.434C56.354 27.91 56.788 28.414 57.236 28.96C58.02 28.064 58.692 27.028 59.252 25.838L60.358 26.384C59.938 27.28 59.462 28.106 58.944 28.848L59.966 28.54C60.134 29.618 60.568 30.584 61.268 31.438C61.814 30.598 62.192 29.59 62.402 28.442L63.662 28.694C63.396 30.15 62.92 31.396 62.248 32.404C63.116 33.132 64.222 33.748 65.552 34.252L64.866 35.442C63.466 34.882 62.318 34.21 61.422 33.426C60.442 34.406 59.21 35.106 57.726 35.526L56.956 34.336C58.412 33.958 59.574 33.328 60.456 32.446C59.616 31.438 59.084 30.276 58.846 28.988C58.594 29.324 58.328 29.646 58.076 29.954L57.782 29.744L57.082 30.752C56.648 29.912 56.27 29.198 55.934 28.638V35.372H54.604V28.792C54.17 29.996 53.638 31.102 52.994 32.11L52.434 30.668C53.414 29.408 54.114 27.994 54.548 26.398H52.812V25.124ZM57.558 24.214H60.806C60.582 23.64 60.33 23.108 60.05 22.618L61.394 22.394C61.646 22.926 61.898 23.542 62.136 24.214H65.174V25.502H57.558V24.214ZM63.116 25.768C64.152 27.028 64.964 28.148 65.524 29.1L64.418 29.856C63.844 28.82 63.06 27.672 62.08 26.412L63.116 25.768ZM67.764 22.898C68.674 24.144 69.374 25.236 69.85 26.174L68.744 26.93C68.226 25.936 67.526 24.83 66.63 23.598L67.764 22.898ZM68.688 29.044L69.892 29.52C69.304 31.592 68.632 33.552 67.904 35.372L66.644 34.826C67.428 32.936 68.114 31.004 68.688 29.044ZM72.426 28.904V30.5H75.002V28.904H72.426ZM72.426 31.718V33.454H75.002V31.718H72.426ZM72.426 34.686V35.456H71.124V27.658C70.76 28.19 70.396 28.708 70.004 29.198L69.57 27.826C70.732 26.202 71.558 24.438 72.034 22.506L73.308 22.758C73.112 23.458 72.888 24.13 72.622 24.802H75.212C75.002 24.102 74.75 23.416 74.47 22.758L75.744 22.394C76.052 23.29 76.304 24.088 76.472 24.802H79.09V26.062H76.29V27.672H78.796V28.904H76.29V30.5H78.824V31.718H76.29V33.454H79.384V34.686H72.426ZM75.002 26.062H72.426V27.672H75.002V26.062ZM86.51 22.492H87.49C89.254 24.48 91.27 26.048 93.566 27.196L92.852 28.47C92.082 28.05 91.354 27.602 90.682 27.126V28.12H83.318V27.098C82.618 27.602 81.876 28.064 81.092 28.498L80.392 27.21C82.842 25.95 84.886 24.368 86.51 22.492ZM83.668 26.846H90.304C89.072 25.922 87.966 24.872 87 23.696C86.062 24.844 84.956 25.894 83.668 26.846ZM91.564 29.618V35.428H90.276V34.672H83.724V35.428H82.436V29.618H91.564ZM83.724 33.412H90.276V30.864H83.724V33.412ZM105.382 35.386H103.548L103.184 34.056L104.948 34.112C105.256 34.112 105.41 33.916 105.41 33.524V24.27H96.59V35.428H95.26V22.982H106.74V33.818C106.74 34.854 106.278 35.386 105.382 35.386ZM97.43 25.6H104.57V26.832H97.43V25.6ZM98.158 28.106H103.856V32.796H98.158V28.106ZM102.568 31.606V29.296H99.446V31.606H102.568ZM113.964 23.248H120.698V30.094H113.964V23.248ZM119.354 28.806V24.522H115.294V28.806H119.354ZM110.436 22.632C111.332 23.318 112.088 24.004 112.718 24.69L111.808 25.614C111.262 24.97 110.492 24.27 109.498 23.542L110.436 22.632ZM108.56 26.692H111.766V32.586C112.144 32.236 112.55 31.844 112.984 31.41L113.348 32.81C112.508 33.636 111.598 34.378 110.646 35.022L110.142 33.818C110.366 33.622 110.492 33.398 110.492 33.118V27.966H108.56V26.692ZM115.434 30.738L116.61 31.312C115.938 32.936 115.126 34.336 114.202 35.526L113.026 34.672C113.964 33.58 114.762 32.278 115.434 30.738ZM119.116 30.682C120.208 32.194 121.034 33.524 121.608 34.658L120.46 35.456C119.872 34.224 119.06 32.866 118.038 31.368L119.116 30.682ZM125.43 27.7H123.26V22.996H129.406V27.7H126.718C126.69 28.204 126.648 28.68 126.606 29.128H129.574C129.574 31.62 129.504 33.16 129.364 33.748C129.224 34.756 128.524 35.26 127.264 35.26C127.068 35.26 126.732 35.232 126.284 35.204L125.976 34.028C126.396 34.07 126.746 34.098 127.054 34.098C127.67 34.098 128.02 33.79 128.132 33.174C128.202 32.894 128.244 31.956 128.272 30.374H126.438C126.298 31.158 126.13 31.802 125.906 32.306C125.388 33.51 124.534 34.546 123.33 35.414L122.476 34.364C123.526 33.636 124.268 32.768 124.702 31.76C124.87 31.382 125.01 30.92 125.122 30.374H122.784V29.128H125.304C125.36 28.68 125.402 28.204 125.43 27.7ZM130.75 23.752H132.052V32.39H130.75V23.752ZM133.508 35.316H131.492L131.198 34.042C131.842 34.098 132.458 34.126 133.046 34.126C133.438 34.126 133.648 33.888 133.648 33.426V22.562H134.964V33.762C134.964 34.798 134.474 35.316 133.508 35.316ZM128.132 26.496V24.186H124.534V26.496H128.132ZM138.002 28.064C137.638 28.54 137.26 29.016 136.84 29.492L136.406 28.064C137.694 26.44 138.66 24.536 139.29 22.38L140.536 22.968C140.214 24.004 139.808 25.012 139.304 25.978V35.47H138.002V28.064ZM140.284 24.214H144.386C144.204 23.738 143.994 23.276 143.756 22.828L145.03 22.478C145.324 23.108 145.548 23.682 145.702 24.214H149.482V25.46H140.284V24.214ZM141.558 26.314H148.292V27.504H141.558V26.314ZM141.558 28.288H148.292V29.492H141.558V28.288ZM148.586 30.374V35.442H147.298V34.714H142.538V35.442H141.25V30.374H148.586ZM142.538 33.468H147.298V31.606H142.538V33.468ZM152.576 23.472H155.67C155.838 23.122 155.964 22.772 156.062 22.408L157.448 22.59C157.364 22.898 157.238 23.192 157.098 23.472H161.536V30.542H152.576V23.472ZM160.248 29.408V28.498H153.864V29.408H160.248ZM153.864 27.434H160.248V26.552H153.864V27.434ZM153.864 25.502H160.248V24.606H153.864V25.502ZM151.82 31.354L153.08 31.606C152.744 32.908 152.296 34.028 151.708 34.98L150.588 34.266C151.176 33.37 151.582 32.39 151.82 31.354ZM158.792 35.232H155.236C154.312 35.232 153.85 34.784 153.85 33.888V31.326H155.194V33.608C155.194 33.888 155.334 34.042 155.614 34.042H158.54C158.806 34.042 158.988 33.972 159.086 33.832C159.24 33.664 159.338 33.174 159.38 32.348L160.654 32.754C160.542 33.944 160.332 34.658 160.038 34.91C159.758 35.12 159.352 35.232 158.792 35.232ZM157.07 30.78C157.756 31.48 158.288 32.082 158.652 32.614L157.658 33.314C157.266 32.726 156.748 32.082 156.09 31.382L157.07 30.78ZM161.55 31.074C162.39 32.166 163.02 33.132 163.468 33.944L162.418 34.686C161.942 33.79 161.312 32.81 160.514 31.718L161.55 31.074Z" fill="#999999"/>
<path d="M58.288 52.04V53.264C58.288 53.36 58.276 53.468 58.276 53.576H59.836V52.04H58.288ZM58.216 54.332C58.072 55.46 57.736 56.396 57.184 57.164L56.56 56.6C57.16 55.736 57.46 54.632 57.484 53.312V49.376C57.304 49.544 57.124 49.712 56.956 49.856L56.416 49.22C57.364 48.44 58.144 47.42 58.756 46.172L59.584 46.352C59.464 46.604 59.332 46.844 59.212 47.084H62.104V47.696C61.744 48.224 61.384 48.68 61.024 49.04H63.04V56.228C63.04 56.768 62.728 57.044 62.116 57.044H61.228L61.024 56.264C61.324 56.288 61.6 56.312 61.864 56.312C62.104 56.312 62.224 56.18 62.224 55.94V54.332H60.616V56.984H59.836V54.332H58.216ZM60.088 49.04C60.436 48.68 60.772 48.272 61.108 47.816H58.768C58.468 48.26 58.144 48.668 57.808 49.04H60.088ZM62.224 53.576V52.04H60.616V53.576H62.224ZM62.224 51.272V49.808H60.616V51.272H62.224ZM59.836 49.808H58.288V51.272H59.836V49.808ZM52.804 46.868H56.812V47.708H55C54.844 48.68 54.616 49.592 54.328 50.432H56.512V55.892H54.412V56.804H53.596V52.1C53.392 52.472 53.176 52.82 52.96 53.156L52.456 52.352C53.32 50.996 53.884 49.448 54.16 47.708H52.804V46.868ZM54.412 55.112H55.72V51.224H54.412V55.112ZM71.524 46.256H72.412C72.412 47.264 72.376 48.212 72.304 49.076C72.94 52.148 74.044 54.596 75.616 56.396L74.992 57.116C73.708 55.484 72.736 53.468 72.064 51.092C72.004 51.428 71.944 51.74 71.884 52.052C71.428 54.116 70.408 55.82 68.812 57.14L68.224 56.432C69.616 55.256 70.552 53.78 71.008 51.992C71.344 50.492 71.524 48.584 71.524 46.256ZM65.944 46.316C66.76 46.928 67.444 47.54 67.996 48.164L67.408 48.764C66.904 48.176 66.208 47.552 65.344 46.904L65.944 46.316ZM64.54 49.868H67.132V55.112C67.564 54.752 68.032 54.344 68.524 53.876L68.74 54.764C67.996 55.472 67.204 56.108 66.364 56.66L66.028 55.892C66.208 55.748 66.304 55.568 66.304 55.376V50.696H64.54V49.868ZM81.688 46.184H82.312C83.836 47.948 85.6 49.34 87.592 50.348L87.124 51.176C85.12 50.096 83.416 48.692 82 46.964C80.692 48.596 78.964 50 76.828 51.2L76.372 50.372C78.508 49.244 80.272 47.852 81.688 46.184ZM85.792 52.352V57.188H84.952V56.468H79.048V57.188H78.208V52.352H85.792ZM79.048 55.64H84.952V53.168H79.048V55.64ZM78.88 50H85.12V50.828H78.88V50ZM97.768 57.152H96.172L95.932 56.288L97.492 56.324C97.792 56.324 97.948 56.144 97.948 55.784V47.504H90.052V57.188H89.188V46.664H98.812V55.976C98.812 56.756 98.464 57.152 97.768 57.152ZM90.928 48.884H97.084V49.688H90.928V48.884ZM91.6 50.984H96.412V54.848H91.6V50.984ZM95.572 54.08V51.764H92.44V54.08H95.572ZM105.232 46.916H110.752V52.52H105.232V46.916ZM109.888 51.68V47.744H106.096V51.68H109.888ZM101.968 46.316C102.76 46.916 103.42 47.528 103.972 48.14L103.384 48.74C102.892 48.164 102.22 47.552 101.368 46.904L101.968 46.316ZM100.528 49.868H103.096V55.16C103.48 54.824 103.888 54.428 104.332 53.984L104.56 54.896C103.864 55.592 103.132 56.204 102.352 56.744L102.016 55.976C102.184 55.832 102.268 55.664 102.268 55.472V50.696H100.528V49.868ZM106.516 53.24L107.284 53.612C106.684 55.016 105.976 56.228 105.16 57.26L104.404 56.708C105.232 55.748 105.94 54.584 106.516 53.24ZM109.396 53.204C110.344 54.536 111.076 55.7 111.58 56.696L110.836 57.212C110.308 56.132 109.6 54.944 108.7 53.648L109.396 53.204ZM115.072 50.492H113.164V46.676H118.264V50.492H115.912C115.888 51.02 115.852 51.5 115.804 51.956H118.384C118.384 54.044 118.324 55.328 118.204 55.832C118.084 56.624 117.508 57.032 116.464 57.032C116.296 57.032 116.032 57.02 115.648 56.996L115.444 56.228C115.792 56.252 116.092 56.276 116.344 56.276C116.944 56.276 117.304 56.012 117.4 55.496C117.472 55.196 117.508 54.284 117.532 52.76H115.696C115.564 53.504 115.408 54.104 115.216 54.56C114.772 55.568 114.04 56.444 113.02 57.176L112.468 56.492C113.392 55.856 114.052 55.1 114.436 54.212C114.604 53.828 114.736 53.336 114.844 52.76H112.708V51.956H114.952C115 51.5 115.048 51.02 115.072 50.492ZM119.62 47.252H120.46V54.728H119.62V47.252ZM121.852 57.092H120.148L119.956 56.264C120.52 56.3 121.048 56.324 121.552 56.324C121.924 56.324 122.116 56.108 122.116 55.676V46.232H122.98V55.892C122.98 56.684 122.596 57.092 121.852 57.092ZM117.436 49.7V47.456H113.992V49.7H117.436ZM125.848 50.48C125.488 51.008 125.092 51.524 124.66 52.004L124.384 51.08C125.56 49.628 126.412 47.96 126.952 46.088L127.756 46.46C127.468 47.384 127.12 48.248 126.7 49.064V57.224H125.848V50.48ZM127.708 47.78H131.404C131.224 47.3 131.02 46.844 130.78 46.388L131.608 46.16C131.86 46.688 132.052 47.168 132.196 47.612L131.74 47.78H135.52V48.596H127.708V47.78ZM128.812 49.568H134.488V50.348H128.812V49.568ZM128.812 51.26H134.488V52.052H128.812V51.26ZM134.704 53.036V57.2H133.864V56.552H129.424V57.2H128.584V53.036H134.704ZM129.424 55.736H133.864V53.84H129.424V55.736ZM138.292 47.084H140.932C141.1 46.772 141.22 46.46 141.304 46.124L142.204 46.244C142.108 46.544 141.988 46.82 141.844 47.084H145.804V52.952H138.292V47.084ZM144.964 52.208V51.2H139.132V52.208H144.964ZM139.132 50.504H144.964V49.52H139.132V50.504ZM139.132 48.824H144.964V47.84H139.132V48.824ZM137.692 53.768L138.508 53.936C138.22 55.04 137.824 55.988 137.308 56.804L136.576 56.336C137.092 55.568 137.464 54.704 137.692 53.768ZM143.476 57.02H140.392C139.696 57.02 139.36 56.672 139.36 56V53.708H140.236V55.82C140.236 56.096 140.368 56.24 140.644 56.24H143.308C143.584 56.24 143.776 56.168 143.872 56.048C144.016 55.88 144.124 55.412 144.172 54.632L145 54.896C144.904 55.904 144.736 56.516 144.496 56.744C144.28 56.924 143.932 57.02 143.476 57.02ZM141.868 53.276C142.516 53.9 143.008 54.452 143.356 54.92L142.696 55.376C142.336 54.86 141.856 54.296 141.232 53.672L141.868 53.276ZM145.744 53.552C146.512 54.512 147.1 55.364 147.508 56.084L146.824 56.564C146.392 55.784 145.804 54.92 145.072 53.972L145.744 53.552ZM149.596 46.844H158.212V47.684H153.916V48.488C153.892 49.232 153.844 49.94 153.76 50.588H159.184V51.416H155.464V55.604C155.464 55.988 155.656 56.192 156.04 56.192H157.564C157.852 56.192 158.068 56.108 158.2 55.952C158.368 55.76 158.476 55.208 158.536 54.272L159.352 54.536C159.256 55.712 159.076 56.42 158.812 56.684C158.584 56.9 158.224 57.008 157.72 57.008H155.776C154.984 57.008 154.6 56.6 154.6 55.784V51.416H153.628C153.436 52.46 153.136 53.36 152.728 54.128C151.984 55.424 150.784 56.444 149.116 57.164L148.636 56.396C150.292 55.652 151.432 54.68 152.08 53.456C152.368 52.856 152.584 52.172 152.74 51.416H148.792V50.588H152.884C152.98 49.94 153.028 49.232 153.04 48.488V47.684H149.596V46.844ZM165.112 46.676H170.656V49.808H165.112V46.676ZM169.828 49.052V47.444H165.94V49.052H169.828ZM164.452 52.916H167.344C167.416 52.508 167.452 52.088 167.464 51.632V51.584H164.764V50.78H171.088V51.584H168.316V51.632C168.304 52.088 168.268 52.52 168.208 52.916H171.46V53.72H168.58C169.228 54.872 170.236 55.796 171.604 56.492L171.028 57.164C169.612 56.348 168.58 55.304 167.944 54.032C167.788 54.488 167.596 54.884 167.356 55.244C166.756 56.072 165.796 56.72 164.452 57.2L163.984 56.468C165.28 56.012 166.192 55.4 166.708 54.656C166.876 54.368 167.02 54.056 167.14 53.72H164.452V52.916ZM161.956 46.316C162.748 46.916 163.42 47.528 163.972 48.14L163.384 48.74C162.88 48.164 162.208 47.552 161.344 46.904L161.956 46.316ZM160.504 49.868H163.096V55.112C163.432 54.788 163.78 54.428 164.164 54.02L164.392 54.932C163.744 55.628 163.06 56.24 162.34 56.768L162.004 56C162.172 55.844 162.268 55.676 162.268 55.484V50.696H160.504V49.868ZM174.232 54.572C174.496 54.572 174.724 54.68 174.892 54.908C175.048 55.124 175.132 55.4 175.132 55.748C175.132 56.276 174.976 56.744 174.664 57.152C174.352 57.536 173.932 57.8 173.428 57.932V57.344C173.74 57.236 173.992 57.056 174.184 56.816C174.352 56.564 174.448 56.3 174.448 56.012C174.4 56.036 174.304 56.06 174.184 56.06C173.98 56.06 173.812 55.988 173.668 55.844C173.524 55.7 173.452 55.52 173.452 55.316C173.452 55.088 173.524 54.908 173.668 54.776C173.812 54.632 173.992 54.572 174.232 54.572ZM184.66 46.916H195.364V47.756H193.78V55.916C193.78 56.708 193.396 57.116 192.628 57.116H190.624L190.432 56.276C191.092 56.3 191.728 56.324 192.328 56.324C192.712 56.324 192.916 56.108 192.916 55.7V47.756H184.66V46.916ZM190.72 49.592V53.996H186.892V55.052H186.052V49.592H190.72ZM186.892 53.204H189.892V50.372H186.892V53.204ZM200.824 48.032H202.96V46.22H203.8V48.032H206.356V51.656H207.292V52.496H204.016C204.76 54.128 205.948 55.448 207.568 56.456L206.98 57.128C205.348 56.012 204.148 54.608 203.392 52.904C202.852 54.824 201.784 56.228 200.188 57.14L199.66 56.432C201.196 55.616 202.204 54.308 202.66 52.496H200.332V51.656H202.828C202.912 51.104 202.96 50.504 202.96 49.88V48.836H200.824V48.032ZM203.8 48.836V49.7C203.8 50.396 203.752 51.044 203.656 51.656H205.516V48.836H203.8ZM196.912 48.512L197.596 48.56C197.56 49.76 197.416 50.912 197.164 51.992L196.456 51.788C196.72 50.756 196.876 49.664 196.912 48.512ZM199.936 48.248C200.272 49.016 200.56 49.892 200.824 50.888L200.116 51.056C199.9 50.156 199.624 49.292 199.288 48.452L199.936 48.248ZM198.196 46.232H199.048V57.152H198.196V46.232ZM212.248 47.18H215.308V46.208H216.112V47.18H219.124V47.972H216.112V48.992H218.728V52.052H216.112V55.724H215.308V52.4C214.696 53.468 213.748 54.38 212.464 55.136L211.924 54.452C213.244 53.78 214.18 52.976 214.744 52.052H212.692V48.992H215.308V47.972H212.248V47.18ZM217.936 51.284V49.748H216.112V51.284H217.936ZM215.308 51.284V49.748H213.496V51.284H215.308ZM217.06 52.412C217.912 53.096 218.632 53.78 219.22 54.476L218.644 55.052C218.116 54.38 217.408 53.684 216.496 52.94L217.06 52.412ZM209.512 46.388C210.34 47.012 211.036 47.636 211.6 48.26L210.988 48.86C210.484 48.26 209.8 47.624 208.924 46.952L209.512 46.388ZM216.508 56.984C215.848 56.984 215.128 56.972 214.36 56.96C213.592 56.948 212.956 56.876 212.476 56.744C211.996 56.6 211.576 56.3 211.204 55.868C211.036 55.664 210.88 55.568 210.736 55.568C210.448 55.568 209.98 56.12 209.332 57.224L208.684 56.636C209.308 55.628 209.872 55.016 210.352 54.8V51.152H208.648V50.36H211.156V54.848C211.252 54.92 211.348 55.004 211.456 55.124C211.744 55.472 212.056 55.724 212.392 55.88C212.764 56.048 213.304 56.144 214.024 56.168C214.66 56.18 215.452 56.192 216.388 56.192C216.964 56.192 217.54 56.18 218.128 56.168C218.716 56.156 219.172 56.144 219.484 56.12L219.268 56.984H216.508ZM225.148 50.816H222.592V55.772C222.592 56.048 222.736 56.192 223.048 56.192H225.34C225.748 56.192 226.012 56.084 226.108 55.892C226.216 55.664 226.3 55.22 226.348 54.56L227.164 54.824C227.08 55.844 226.924 56.468 226.708 56.708C226.516 56.9 226.132 56.996 225.568 56.996H222.712C222.04 56.996 221.716 56.684 221.716 56.072V50.048H225.988V53.24C225.976 53.888 225.64 54.224 224.98 54.248C224.524 54.248 224.08 54.236 223.66 54.212L223.444 53.396C223.9 53.444 224.308 53.468 224.668 53.468C224.98 53.468 225.148 53.3 225.148 52.976V50.816ZM223.624 46.304H224.26C225.304 47.408 226.312 48.572 227.272 49.796L226.708 50.396C225.676 49.028 224.776 47.936 224.008 47.12C223.12 48.44 222.1 49.652 220.924 50.756L220.42 50.06C221.596 48.992 222.664 47.744 223.624 46.304ZM227.98 47.252H228.82V54.728H227.98V47.252ZM229.984 57.092H228.124L227.932 56.264C228.544 56.3 229.132 56.324 229.684 56.324C229.984 56.324 230.14 56.144 230.14 55.784V46.232H231.004V56C231.004 56.72 230.656 57.092 229.984 57.092ZM242.488 51.116H239.92V52.076H242.728V52.784H239.92V53.78H243.076V54.512H239.92V55.7H239.08V54.512H236.356V53.78H239.08V52.784H236.728V52.076H239.08V51.116H236.98V50.396H239.08V49.436H236.392V48.716H239.08V47.768H236.98V47.048H239.08V46.172H239.92V47.048H242.488V48.716H243.292V49.436H242.488V51.116ZM239.92 47.768V48.716H241.648V47.768H239.92ZM239.92 49.436V50.396H241.648V49.436H239.92ZM239.356 56.132C240.676 56.132 242.032 56.108 243.424 56.072L243.28 56.9H239.728C237.568 56.9 236.02 56.588 235.084 55.964C234.928 55.844 234.796 55.736 234.676 55.616C234.292 56.18 233.812 56.672 233.26 57.092L232.696 56.36C233.26 55.952 233.728 55.472 234.112 54.92C233.644 54.248 233.26 53.396 232.972 52.364L233.692 52.1C233.932 52.952 234.22 53.648 234.532 54.176C234.94 53.324 235.18 52.328 235.252 51.188H233.032V50.516C233.728 49.628 234.376 48.668 234.952 47.636H232.984V46.82H235.924V47.528C235.324 48.632 234.724 49.58 234.148 50.396H236.032V50.912C235.984 52.496 235.66 53.84 235.084 54.944C235.276 55.148 235.468 55.304 235.672 55.424C236.488 55.88 237.724 56.108 239.356 56.132ZM247.204 49.556H248.056V51.32H249.568V52.1H248.056V53.72C248.656 53.6 249.22 53.48 249.748 53.348V54.176C249.208 54.32 248.644 54.44 248.056 54.56V57.2H247.204V54.716C246.412 54.848 245.596 54.968 244.744 55.076L244.636 54.236C245.548 54.128 246.412 54.008 247.204 53.876V52.1H245.008L244.828 51.332C245.164 50.636 245.488 49.76 245.788 48.704H244.66V47.864H246.016C246.136 47.336 246.268 46.772 246.388 46.196L247.216 46.328C247.096 46.868 246.988 47.384 246.868 47.864H249.772V48.704H246.64C246.352 49.688 246.052 50.564 245.728 51.32H247.204V49.556ZM250.948 46.1L251.8 46.232C251.716 46.892 251.608 47.504 251.488 48.056H255.22V48.608C255.004 49.652 254.728 50.684 254.368 51.692L253.504 51.452C253.828 50.696 254.104 49.844 254.32 48.884H251.284C250.996 49.832 250.636 50.612 250.204 51.212L249.496 50.708C250.24 49.604 250.732 48.068 250.948 46.1ZM251.944 49.688H252.772C252.772 50.516 252.724 51.272 252.652 51.956C253.228 53.864 254.2 55.376 255.568 56.492L254.956 57.2C253.84 56.18 252.988 54.932 252.4 53.456C252.376 53.54 252.364 53.624 252.34 53.708C251.956 55.148 251.092 56.324 249.748 57.236L249.172 56.54C250.336 55.748 251.104 54.752 251.488 53.552C251.776 52.544 251.932 51.248 251.944 49.688ZM259.144 46.124L259.96 46.496C259.648 47.444 259.252 48.344 258.772 49.196V57.212H257.92V50.516C257.536 51.044 257.116 51.548 256.66 52.028L256.384 51.104C257.656 49.664 258.568 47.996 259.144 46.124ZM261.16 46.916L262.012 47.024C261.916 47.624 261.784 48.2 261.616 48.728H263.38V46.232H264.244V48.728H267.004V49.568H264.244V52.46H267.448V53.288H264.244V57.152H263.38V53.288H259.852V52.46H263.38V49.568H261.34C261.04 50.36 260.668 51.068 260.224 51.692L259.672 50.972C260.404 49.868 260.896 48.512 261.16 46.916ZM276.928 46.16C277.504 46.592 277.996 47.036 278.404 47.48L277.852 48.032H279.316V48.86H275.62C275.704 50.348 275.86 51.524 276.076 52.388C276.148 52.688 276.232 52.964 276.316 53.228C276.916 52.268 277.396 51.14 277.768 49.856L278.548 50.192C278.068 51.776 277.444 53.12 276.676 54.2C276.844 54.584 277.024 54.92 277.216 55.196C277.612 55.772 277.936 56.06 278.176 56.06C278.392 56.048 278.596 55.424 278.776 54.188L279.556 54.62C279.268 56.216 278.86 57.02 278.32 57.02C277.816 57.02 277.276 56.66 276.7 55.94C276.484 55.652 276.28 55.316 276.1 54.944C275.26 55.928 274.276 56.66 273.148 57.164L272.668 56.444C273.868 55.904 274.888 55.112 275.716 54.068C275.548 53.624 275.392 53.144 275.26 52.628C274.996 51.62 274.828 50.36 274.732 48.86H270.616V50.852H273.556C273.532 52.88 273.436 54.188 273.28 54.776C273.124 55.292 272.752 55.556 272.152 55.58C271.864 55.58 271.516 55.556 271.132 55.532L270.868 54.752C271.336 54.776 271.732 54.788 272.056 54.788C272.32 54.776 272.488 54.596 272.56 54.26C272.632 53.852 272.668 52.988 272.692 51.668H270.616V52.028C270.568 54.176 270.088 55.904 269.2 57.2L268.54 56.612C269.308 55.508 269.704 53.984 269.74 52.028V48.032H274.696C274.672 47.432 274.66 46.82 274.66 46.172H275.548C275.548 46.844 275.56 47.456 275.584 48.032H277.828C277.468 47.6 276.988 47.156 276.376 46.688L276.928 46.16ZM284.332 46.448L285.088 46.904C284.524 47.9 283.96 48.716 283.396 49.352C282.796 50.048 281.992 50.732 280.996 51.404L280.528 50.648C281.344 50.18 282.088 49.568 282.748 48.812C283.324 48.14 283.852 47.36 284.332 46.448ZM284.728 51.8H282.304V50.972H289.468C289.432 52.472 289.36 53.684 289.24 54.608C289.12 55.52 288.928 56.168 288.652 56.528C288.388 56.876 287.956 57.068 287.356 57.104H285.172L284.932 56.252C285.628 56.276 286.288 56.288 286.912 56.288C287.56 56.288 287.98 56.012 288.184 55.46C288.4 54.884 288.532 53.672 288.592 51.8H285.604C285.316 53.108 284.92 54.152 284.404 54.92C283.792 55.784 282.868 56.552 281.644 57.236L281.092 56.516C282.196 55.916 283.036 55.256 283.6 54.536C284.104 53.84 284.476 52.928 284.728 51.8ZM287.716 46.292C288.412 48.14 289.648 49.604 291.436 50.672L290.86 51.356C289 50.156 287.704 48.608 286.972 46.712L287.716 46.292ZM294.232 54.572C294.496 54.572 294.724 54.68 294.892 54.908C295.048 55.124 295.132 55.4 295.132 55.748C295.132 56.276 294.976 56.744 294.664 57.152C294.352 57.536 293.932 57.8 293.428 57.932V57.344C293.74 57.236 293.992 57.056 294.184 56.816C294.352 56.564 294.448 56.3 294.448 56.012C294.4 56.036 294.304 56.06 294.184 56.06C293.98 56.06 293.812 55.988 293.668 55.844C293.524 55.7 293.452 55.52 293.452 55.316C293.452 55.088 293.524 54.908 293.668 54.776C293.812 54.632 293.992 54.572 294.232 54.572ZM313.432 50.936V53.288H307.444V54.116H313.984V57.2H313.132V56.696H307.444V57.188H306.58V50.936H313.432ZM307.444 55.928H313.132V54.812H307.444V55.928ZM307.444 52.592H312.592V51.632H307.444V52.592ZM315.088 49.484V51.656H314.248V50.228H305.752V51.656H304.912V49.484H309.664C309.544 49.196 309.424 48.944 309.292 48.704L310.132 48.56L310.06 48.512C310.636 47.792 311.044 47.012 311.308 46.148L312.136 46.328C312.052 46.58 311.968 46.82 311.872 47.06H315.34V47.816H313.204C313.456 48.152 313.66 48.464 313.804 48.752L313.036 49.04C312.82 48.608 312.568 48.2 312.28 47.816H311.524C311.308 48.224 311.056 48.608 310.792 48.968L310.144 48.572C310.276 48.848 310.408 49.148 310.528 49.484H315.088ZM306.352 47.816C306.064 48.284 305.752 48.716 305.392 49.112L304.636 48.632C305.356 47.888 305.884 47.048 306.22 46.136L307.048 46.316C306.952 46.58 306.844 46.82 306.748 47.06H309.964V47.816H307.948C308.212 48.176 308.44 48.524 308.608 48.848L307.816 49.148C307.6 48.692 307.336 48.248 307.036 47.816H306.352ZM323.428 53.348H320.632V52.544H327.04V53.348H324.292V55.976H327.484V56.816H320.152V55.976H323.428V53.348ZM317.956 57.092H316.9L316.72 56.252C317.044 56.276 317.356 56.3 317.656 56.3C317.968 56.3 318.124 56.144 318.124 55.832V52.88C317.644 53.06 317.164 53.228 316.684 53.384L316.468 52.52C317.032 52.376 317.584 52.208 318.124 52.016V49.328H316.66V48.5H318.124V46.208H319.012V48.5H320.008V49.328H319.012V51.656C319.372 51.488 319.72 51.32 320.056 51.14V52.016C319.708 52.184 319.36 52.352 319.012 52.508V56.048C319.012 56.744 318.652 57.092 317.956 57.092ZM323.752 46.064C323.956 46.496 324.16 46.976 324.352 47.516H327.172V49.784H326.368V48.296H321.328V49.784H320.512V47.516H323.488C323.296 47.036 323.092 46.592 322.876 46.208L323.752 46.064ZM322.636 49.04L323.392 49.34C322.84 50.528 322.12 51.44 321.22 52.064L320.596 51.524C321.496 50.9 322.18 50.072 322.636 49.04ZM324.952 49.016C325.696 49.784 326.356 50.648 326.932 51.584L326.176 51.968C325.588 50.984 324.94 50.096 324.22 49.328L324.952 49.016ZM329.416 46.448C330.136 46.676 330.808 46.952 331.408 47.288L330.952 47.984C330.304 47.6 329.656 47.312 328.996 47.096L329.416 46.448ZM333.28 46.16L334.132 46.268C334.036 46.532 333.94 46.796 333.82 47.036H338.656V47.552C338.512 48.14 338.32 48.728 338.08 49.304L337.252 49.052C337.456 48.68 337.624 48.26 337.768 47.792H335.728C335.68 48.08 335.608 48.344 335.512 48.584C336.136 49.508 337.372 50.144 339.22 50.492L338.908 51.26C337.156 50.9 335.908 50.252 335.164 49.292C335.02 49.508 334.864 49.712 334.684 49.904C334.096 50.456 333.136 50.9 331.792 51.212L331.468 50.444C332.644 50.192 333.496 49.844 334.024 49.388C334.456 48.992 334.756 48.464 334.9 47.792H333.364C333.028 48.224 332.632 48.62 332.176 48.98L331.672 48.308C332.464 47.732 332.992 47.012 333.28 46.16ZM337.84 51.536V55.1H336.976V52.34H330.988V55.196H330.124V51.536H337.84ZM333.64 52.796L334.504 52.868C334.336 54.392 333.976 55.412 333.412 55.94C332.788 56.588 331.396 57.008 329.236 57.176L328.9 56.408C330.808 56.3 332.068 55.976 332.68 55.424C333.22 54.908 333.544 54.032 333.64 52.796ZM331.084 48.704L331.588 49.292C330.988 49.916 330.244 50.504 329.356 51.056L328.78 50.384C329.692 49.868 330.46 49.304 331.084 48.704ZM334.78 55.064C336.34 55.472 337.756 55.964 339.04 56.54L338.572 57.26C337.204 56.612 335.788 56.096 334.336 55.724L334.78 55.064ZM346.024 46.04C346.216 46.448 346.408 46.916 346.588 47.432H350.8V48.26H348.712C348.568 48.896 348.376 49.508 348.124 50.084H351.052V50.912H342.436V52.688C342.388 54.56 341.956 56.06 341.128 57.188L340.468 56.6C341.164 55.664 341.536 54.356 341.56 52.688V50.084H344.02L343.516 48.26H341.32V47.432H345.712C345.544 46.976 345.34 46.568 345.124 46.196L346.024 46.04ZM344.872 50.084H347.296C347.56 49.508 347.764 48.896 347.884 48.26H344.368L344.872 50.084ZM356.044 48.944C356.74 49.808 357.388 50.636 357.976 51.428C358.456 50.528 358.84 49.556 359.128 48.524L359.98 48.668C359.62 49.964 359.14 51.14 358.54 52.196C359.272 53.228 359.896 54.188 360.412 55.064L359.632 55.592C359.152 54.764 358.624 53.9 358.024 53.012C357.28 54.092 356.404 55.016 355.372 55.796L354.796 55.064C355.864 54.248 356.764 53.312 357.484 52.232C356.836 51.308 356.116 50.36 355.336 49.376L356.044 48.944ZM353.908 46.676H361.672V51.476C361.672 53.444 361.732 54.704 361.876 55.256C362.008 55.796 362.164 56.072 362.356 56.072C362.512 56.072 362.644 55.52 362.752 54.428L363.52 54.8C363.376 55.7 363.22 56.312 363.052 56.648C362.872 56.936 362.668 57.08 362.452 57.08C361.876 57.08 361.468 56.696 361.204 55.952C360.916 55.22 360.784 53.732 360.784 51.476V47.516H354.772V51.332C354.748 53.66 354.256 55.616 353.308 57.2L352.588 56.612C353.428 55.208 353.872 53.444 353.908 51.332V46.676ZM365.02 46.712H368.572V47.372C368.212 48.452 367.792 49.592 367.312 50.768C368.056 51.836 368.452 52.808 368.512 53.672C368.512 54.164 368.392 54.524 368.152 54.752C367.816 55.016 367.252 55.16 366.448 55.172L366.172 54.308C366.352 54.332 366.508 54.356 366.628 54.356C367.036 54.332 367.324 54.272 367.468 54.176C367.6 54.08 367.672 53.912 367.672 53.672C367.672 52.844 367.264 51.92 366.46 50.9C367 49.652 367.42 48.512 367.72 47.504H365.86V57.212H365.02V46.712ZM369.988 49.748C369.532 50.216 369.052 50.624 368.548 50.984L368.116 50.3C369.556 49.256 370.672 47.9 371.452 46.244H372.232C372.88 47.78 374.02 49.112 375.64 50.264L375.172 50.984C374.632 50.6 374.152 50.204 373.732 49.772V50.468H369.988V49.748ZM373.636 49.676C372.88 48.896 372.28 48.032 371.836 47.096C371.308 48.104 370.72 48.956 370.06 49.676H373.636ZM368.26 55.952H372.472C373.036 54.656 373.528 53.072 373.936 51.2L374.776 51.428C374.38 53.132 373.9 54.632 373.336 55.952H375.376V56.78H368.26V55.952ZM369.652 51.632C370.06 52.64 370.432 53.792 370.768 55.088L370.012 55.28C369.724 54.104 369.352 52.964 368.908 51.884L369.652 51.632ZM371.56 51.164C371.908 52.136 372.22 53.252 372.484 54.512L371.74 54.704C371.5 53.552 371.188 52.46 370.816 51.404L371.56 51.164Z" fill="#999999"/>
<g filter="url(#filter0_d_5582_70364)">
<path d="M399.22 13.4976C398.158 10.8684 400.093 8 402.929 8H790C792.209 8 794 9.79086 794 12V40V68C794 70.2091 792.209 72 790 72H402.929C400.093 72 398.158 69.1316 399.22 66.5024L409.315 41.4976C409.703 40.5369 409.703 39.4631 409.315 38.5024L399.22 13.4976Z" fill="#6C87FF"/>
</g>
<path d="M439.729 31.5494C440.019 31.2602 440.488 31.2602 440.778 31.5494L440.78 31.5514L443.328 34.1119C443.616 34.4018 443.615 34.8707 443.326 35.1598L443.052 35.4332L443.057 35.4381L435.076 43.4156H432.247C431.837 43.4156 431.504 43.084 431.504 42.6744V39.8453L439.212 32.0807L439.206 32.0729L439.729 31.5494ZM433.013 40.4733V40.4762L434.449 41.9108H434.451L439.581 36.7789L438.095 35.2945L433.013 40.4733ZM439.133 34.2359L440.628 35.7301L441.737 34.6207L440.236 33.1119L439.133 34.2359Z" fill="white"/>
<mask id="path-7-outside-1_5582_70364" maskUnits="userSpaceOnUse" x="423" y="29.5" width="22" height="22" fill="black">
<rect fill="white" x="423" y="29.5" width="22" height="22"/>
<path d="M434.171 30.5039L434.063 31.751C434.043 31.7508 434.023 31.75 434.003 31.75C429.169 31.7502 425.25 35.6677 425.25 40.5C425.25 45.3323 429.169 49.2498 434.003 49.25C438.662 49.25 442.469 45.6112 442.739 41.0215L443.997 40.8711C443.802 46.222 439.403 50.5 434.003 50.5C428.478 50.4998 424 46.0227 424 40.5C424 34.9773 428.478 30.5002 434.003 30.5C434.059 30.5 434.115 30.503 434.171 30.5039ZM444.007 40.5C444.007 40.513 444.006 40.526 444.006 40.5391V40.46C444.006 40.4733 444.007 40.4866 444.007 40.5Z"/>
</mask>
<path d="M434.171 30.5039L434.063 31.751C434.043 31.7508 434.023 31.75 434.003 31.75C429.169 31.7502 425.25 35.6677 425.25 40.5C425.25 45.3323 429.169 49.2498 434.003 49.25C438.662 49.25 442.469 45.6112 442.739 41.0215L443.997 40.8711C443.802 46.222 439.403 50.5 434.003 50.5C428.478 50.4998 424 46.0227 424 40.5C424 34.9773 428.478 30.5002 434.003 30.5C434.059 30.5 434.115 30.503 434.171 30.5039ZM444.007 40.5C444.007 40.513 444.006 40.526 444.006 40.5391V40.46C444.006 40.4733 444.007 40.4866 444.007 40.5Z" fill="white"/>
<path d="M434.171 30.5039L434.37 30.5211L434.388 30.3075L434.174 30.3039L434.171 30.5039ZM434.063 31.751L434.062 31.951L434.247 31.9522L434.262 31.7681L434.063 31.751ZM434.003 31.75V31.55H434.003L434.003 31.75ZM425.25 40.5H425.05H425.25ZM434.003 49.25L434.003 49.45H434.003V49.25ZM442.739 41.0215L442.715 40.8229L442.549 40.8428L442.539 41.0097L442.739 41.0215ZM443.997 40.8711L444.197 40.8784L444.205 40.6448L443.973 40.6725L443.997 40.8711ZM434.003 50.5L434.003 50.7H434.003V50.5ZM424 40.5H423.8H424ZM434.003 30.5V30.3H434.003L434.003 30.5ZM444.007 40.5H444.207H444.007ZM444.006 40.5391H443.806L444.206 40.5398L444.006 40.5391ZM444.006 40.46L444.206 40.4592L443.806 40.46H444.006ZM434.171 30.5039L433.971 30.4867L433.864 31.7338L434.063 31.751L434.262 31.7681L434.37 30.5211L434.171 30.5039ZM434.063 31.751L434.065 31.551C434.064 31.551 434.014 31.55 434.003 31.55V31.75V31.95C434.032 31.95 434.023 31.9507 434.062 31.951L434.063 31.751ZM434.003 31.75L434.003 31.55C429.058 31.5502 425.05 35.5571 425.05 40.5H425.25H425.45C425.45 35.7782 429.279 31.9502 434.003 31.95L434.003 31.75ZM425.25 40.5H425.05C425.05 45.4429 429.058 49.4498 434.003 49.45L434.003 49.25L434.003 49.05C429.279 49.0498 425.45 45.2218 425.45 40.5H425.25ZM434.003 49.25V49.45C438.768 49.45 442.663 45.728 442.939 41.0332L442.739 41.0215L442.539 41.0097C442.276 45.4943 438.555 49.05 434.003 49.05V49.25ZM442.739 41.0215L442.763 41.2201L444.021 41.0697L443.997 40.8711L443.973 40.6725L442.715 40.8229L442.739 41.0215ZM443.997 40.8711L443.797 40.8638C443.606 46.1075 439.295 50.3 434.003 50.3V50.5V50.7C439.511 50.7 443.997 46.3364 444.197 40.8784L443.997 40.8711ZM434.003 50.5L434.003 50.3C428.589 50.2998 424.2 45.9122 424.2 40.5H424H423.8C423.8 46.1332 428.368 50.6998 434.003 50.7L434.003 50.5ZM424 40.5H424.2C424.2 35.0878 428.589 30.7002 434.003 30.7L434.003 30.5L434.003 30.3C428.368 30.3002 423.8 34.8668 423.8 40.5H424ZM434.003 30.5V30.7C434.06 30.7 434.098 30.7027 434.167 30.7039L434.171 30.5039L434.174 30.3039C434.131 30.3032 434.057 30.3 434.003 30.3V30.5ZM444.007 40.5H443.807C443.807 40.5023 443.807 40.5053 443.806 40.5122C443.806 40.518 443.806 40.5279 443.806 40.5383L444.006 40.5391L444.206 40.5398C444.206 40.5372 444.206 40.5341 444.206 40.5268C444.206 40.5207 444.207 40.5107 444.207 40.5H444.007ZM444.006 40.5391H444.206V40.46H444.006H443.806V40.5391H444.006ZM444.006 40.46L443.806 40.4607C443.806 40.4712 443.806 40.4811 443.806 40.4871C443.807 40.4942 443.807 40.4974 443.807 40.5H444.007H444.207C444.207 40.4892 444.206 40.4791 444.206 40.4729C444.206 40.4655 444.206 40.4621 444.206 40.4592L444.006 40.46Z" fill="white" mask="url(#path-7-outside-1_5582_70364)"/>
<path d="M470.474 28.882C470.88 29.89 471.244 30.982 471.566 32.13L470.572 32.592C470.264 31.5 469.956 30.52 469.634 29.652C469.592 32.186 469.522 33.838 469.438 34.608C469.298 35.742 468.612 36.316 467.38 36.316C467.156 36.316 466.792 36.288 466.288 36.246L465.966 35.028C466.414 35.056 466.82 35.084 467.156 35.084C467.744 35.084 468.08 34.72 468.178 33.992C468.262 33.32 468.304 31.066 468.332 27.216H466.834V27.3C466.778 31.486 465.672 34.538 463.488 36.47L462.494 35.588C464.482 33.866 465.504 31.108 465.546 27.3V27.216H463.278V25.928H465.546V23.632H466.834V25.928H469.648C469.648 27.118 469.634 28.196 469.634 29.162L470.474 28.882ZM463.432 28.84L464.482 29.106C464.09 30.772 463.516 32.046 462.788 32.942L461.892 32.102C462.606 31.192 463.124 30.1 463.432 28.84ZM458.532 26.712H460.044V23.604H461.318V26.712H462.774V27.958H461.318V36.442H460.044V27.958H458.532V26.712ZM478.916 26.684C478.272 28.028 477.544 29.19 476.746 30.17L475.794 29.022C476.956 27.664 477.95 25.788 478.762 23.408L480.106 23.702C479.91 24.29 479.7 24.85 479.49 25.382H485.258V26.684H480.764V28.686H484.698V29.974H480.764V32.032H484.726V33.306H480.764V36.47H479.42V26.684H478.916ZM474.142 28.994C473.75 29.47 473.316 29.946 472.868 30.408L472.42 28.98C473.862 27.398 474.926 25.55 475.612 23.45L476.872 24.038C476.508 25.102 476.046 26.11 475.486 27.062V36.47H474.142V28.994ZM499.02 24.906V28.21H497.662V26.194H488.31V28.21H486.952V24.906H492.188C492.048 24.486 491.88 24.108 491.712 23.772L493.21 23.52C493.378 23.926 493.532 24.388 493.686 24.906H499.02ZM489.01 27.538H496.934V28.812H489.01V27.538ZM486.868 30.142H499.146V31.416H495.324V34.342C495.324 34.762 495.492 34.986 495.856 34.986H497.62C497.788 34.986 497.9 34.888 497.984 34.706C498.068 34.51 498.124 33.922 498.166 32.942L499.426 33.334C499.314 34.748 499.146 35.588 498.908 35.854C498.684 36.106 498.334 36.246 497.858 36.246H495.436C494.47 36.246 493.994 35.7 493.994 34.622V31.416H491.894V31.458C491.838 32.83 491.446 33.936 490.746 34.762C490.06 35.518 488.94 36.12 487.386 36.54L486.63 35.35C488.128 34.972 489.15 34.482 489.71 33.894C490.228 33.264 490.522 32.452 490.578 31.458V31.416H486.868V30.142ZM501.33 24.668H504.214C504.018 24.318 503.794 23.996 503.556 23.702L505.04 23.45C505.236 23.814 505.432 24.22 505.628 24.668H508.442C508.722 24.262 508.932 23.842 509.072 23.422L510.486 23.604C510.346 23.982 510.136 24.332 509.884 24.668H512.67V25.816H507.658V26.516H512.026V27.552H507.658V28.238H512.964V29.386H510.892C510.752 29.736 510.598 30.072 510.416 30.394H513.174V31.57H500.826V30.394H503.682C503.514 30.03 503.332 29.694 503.136 29.386H501.036V28.238H506.342V27.552H501.974V26.516H506.342V25.816H501.33V24.668ZM509.114 30.394C509.31 30.058 509.464 29.722 509.604 29.386H507.658V30.394H509.114ZM504.494 29.386C504.648 29.694 504.788 30.03 504.928 30.394H506.342V29.386H504.494ZM511.83 32.326V36.442H510.514V35.98H503.514V36.442H502.184V32.326H511.83ZM503.514 34.748H510.514V33.502H503.514V34.748ZM524.57 23.422C525.214 23.912 525.76 24.402 526.208 24.906L525.564 25.55H527.244V26.824H523.072C523.17 28.476 523.338 29.764 523.576 30.674C523.632 30.912 523.702 31.15 523.772 31.374C524.36 30.338 524.85 29.162 525.242 27.832L526.46 28.35C525.9 30.142 525.2 31.682 524.332 32.942C524.486 33.278 524.64 33.558 524.794 33.796C525.214 34.412 525.55 34.734 525.774 34.734C525.956 34.734 526.138 34.048 526.32 32.676L527.524 33.32C527.174 35.252 526.656 36.232 525.984 36.232C525.368 36.232 524.724 35.812 524.052 34.986C523.828 34.706 523.632 34.398 523.45 34.062C522.512 35.112 521.42 35.91 520.188 36.456L519.432 35.336C520.776 34.734 521.91 33.866 522.834 32.718C522.638 32.214 522.47 31.668 522.316 31.08C522.008 29.946 521.812 28.532 521.714 26.824H517.206V28.868H520.636C520.608 31.402 520.482 32.998 520.258 33.67C520.034 34.258 519.558 34.552 518.83 34.566C518.494 34.566 518.102 34.538 517.668 34.496L517.262 33.292C517.822 33.32 518.284 33.348 518.676 33.348C518.928 33.334 519.082 33.18 519.166 32.872C519.25 32.508 519.292 31.584 519.32 30.128H517.206V30.212C517.15 32.802 516.576 34.874 515.512 36.442L514.504 35.546C515.372 34.272 515.834 32.494 515.876 30.212V25.55H521.644C521.616 24.892 521.616 24.206 521.616 23.492H522.96C522.96 24.22 522.988 24.906 523.016 25.55H525.172C524.794 25.13 524.318 24.682 523.73 24.234L524.57 23.422ZM532.9 23.786L534.048 24.486C533.404 25.634 532.746 26.586 532.088 27.314C531.416 28.07 530.492 28.868 529.288 29.708L528.56 28.546C529.456 28.042 530.296 27.356 531.08 26.474C531.724 25.732 532.326 24.836 532.9 23.786ZM533.306 30.254H530.688V28.98H539.158C539.102 30.772 539.018 32.214 538.878 33.334C538.738 34.426 538.514 35.196 538.192 35.63C537.87 36.05 537.352 36.288 536.638 36.33H533.992L533.628 35.014C534.454 35.042 535.238 35.07 535.966 35.07C536.666 35.07 537.142 34.776 537.366 34.188C537.59 33.572 537.744 32.256 537.814 30.254H534.65C534.314 31.71 533.866 32.872 533.306 33.74C532.578 34.748 531.5 35.672 530.072 36.484L529.218 35.378C530.478 34.706 531.444 33.95 532.088 33.124C532.606 32.382 533.012 31.43 533.306 30.254ZM537.156 23.604C537.926 25.704 539.34 27.37 541.412 28.602L540.516 29.652C538.36 28.252 536.848 26.46 535.994 24.262L537.156 23.604ZM544.002 29.064C543.638 29.54 543.26 30.016 542.84 30.492L542.406 29.064C543.694 27.44 544.66 25.536 545.29 23.38L546.536 23.968C546.214 25.004 545.808 26.012 545.304 26.978V36.47H544.002V29.064ZM546.284 25.214H550.386C550.204 24.738 549.994 24.276 549.756 23.828L551.03 23.478C551.324 24.108 551.548 24.682 551.702 25.214H555.482V26.46H546.284V25.214ZM547.558 27.314H554.292V28.504H547.558V27.314ZM547.558 29.288H554.292V30.492H547.558V29.288ZM554.586 31.374V36.442H553.298V35.714H548.538V36.442H547.25V31.374H554.586ZM548.538 34.468H553.298V32.606H548.538V34.468ZM558.576 24.472H561.67C561.838 24.122 561.964 23.772 562.062 23.408L563.448 23.59C563.364 23.898 563.238 24.192 563.098 24.472H567.536V31.542H558.576V24.472ZM566.248 30.408V29.498H559.864V30.408H566.248ZM559.864 28.434H566.248V27.552H559.864V28.434ZM559.864 26.502H566.248V25.606H559.864V26.502ZM557.82 32.354L559.08 32.606C558.744 33.908 558.296 35.028 557.708 35.98L556.588 35.266C557.176 34.37 557.582 33.39 557.82 32.354ZM564.792 36.232H561.236C560.312 36.232 559.85 35.784 559.85 34.888V32.326H561.194V34.608C561.194 34.888 561.334 35.042 561.614 35.042H564.54C564.806 35.042 564.988 34.972 565.086 34.832C565.24 34.664 565.338 34.174 565.38 33.348L566.654 33.754C566.542 34.944 566.332 35.658 566.038 35.91C565.758 36.12 565.352 36.232 564.792 36.232ZM563.07 31.78C563.756 32.48 564.288 33.082 564.652 33.614L563.658 34.314C563.266 33.726 562.748 33.082 562.09 32.382L563.07 31.78ZM567.55 32.074C568.39 33.166 569.02 34.132 569.468 34.944L568.418 35.686C567.942 34.79 567.312 33.81 566.514 32.718L567.55 32.074Z" fill="white"/>
<path d="M458.6 52.164H469.388V53.028H458.6V52.164ZM471.164 51.504C471.14 51.564 471.104 51.624 471.08 51.684L470.408 51.252C470.972 50.004 471.38 48.624 471.644 47.112L472.46 47.28C472.364 47.724 472.28 48.144 472.184 48.552H474.008V49.38H471.956C471.788 49.956 471.596 50.484 471.392 50.988H473.972V51.756H472.916V53.232H474.152V54.024H472.916V56.784C473.312 56.568 473.72 56.304 474.128 55.968L474.272 56.712C473.66 57.168 472.952 57.552 472.16 57.852L471.812 57.132C472.028 57.048 472.136 56.928 472.136 56.76V54.024H470.792V53.232H472.136V51.756H471.164V51.504ZM480.8 52.236H479.132V53.16H480.932V53.844H479.132V54.792H481.232V55.512H479.132V56.688H478.352V55.512H476.744V54.792H478.352V53.844H477.044V53.16H478.352V52.236H477.164V51.54H478.352V50.568H476.756V49.872H478.352V48.852H477.164V48.156H478.352V47.268H479.132V48.156H480.8V49.872H481.364V50.568H480.8V52.236ZM479.132 48.852V49.872H480.068V48.852H479.132ZM479.132 50.568V51.54H480.068V50.568H479.132ZM479.636 57.216C480.428 57.216 481.064 57.192 481.532 57.168L481.376 57.996H480.068C478.292 57.972 477.08 57.756 476.456 57.348C476.168 57.168 475.916 56.952 475.7 56.7C475.436 57.252 475.112 57.72 474.74 58.128L474.152 57.552C474.56 57.12 474.908 56.604 475.172 56.004C474.752 55.332 474.416 54.492 474.176 53.484L474.824 53.244C474.98 53.952 475.208 54.576 475.496 55.128C475.736 54.312 475.88 53.376 475.928 52.32H474.5V51.72C474.98 50.904 475.424 50.016 475.808 49.068H474.416V48.324H476.588V49.032C476.18 50.04 475.784 50.892 475.388 51.612H476.624V52.08C476.6 53.58 476.396 54.864 476.024 55.92C476.336 56.304 476.696 56.58 477.08 56.76C477.62 57.024 478.472 57.168 479.636 57.216ZM483.368 47.376C484.112 48.012 484.724 48.648 485.216 49.284L484.628 49.872C484.172 49.272 483.56 48.624 482.792 47.928L483.368 47.376ZM490.508 57.984C489.824 57.984 489.08 57.972 488.276 57.96C487.46 57.948 486.8 57.876 486.296 57.744C485.804 57.6 485.372 57.3 484.988 56.868C484.82 56.664 484.652 56.568 484.496 56.568C484.256 56.568 483.836 57.108 483.248 58.212L482.636 57.648C483.188 56.652 483.68 56.04 484.112 55.824V52.14H482.648V51.336H484.928V55.848C485.024 55.92 485.132 56.004 485.24 56.124C485.552 56.472 485.888 56.724 486.224 56.88C486.62 57.048 487.184 57.144 487.916 57.168C488.588 57.18 489.404 57.192 490.388 57.192C490.952 57.192 491.528 57.18 492.116 57.168C492.692 57.156 493.148 57.144 493.46 57.12L493.256 57.984H490.508ZM486.152 48.024H487.304C487.388 47.724 487.448 47.412 487.496 47.088L488.36 47.208C488.288 47.496 488.204 47.772 488.108 48.024H489.536V51.036C490.1 50.028 490.484 48.732 490.7 47.124L491.492 47.268C491.396 47.88 491.276 48.444 491.132 48.972H493.424V49.776H492.824C492.776 51.12 492.596 52.308 492.272 53.328C492.68 54.024 493.088 54.804 493.472 55.68L492.908 56.244C492.596 55.5 492.272 54.804 491.936 54.18C491.504 55.14 490.916 55.92 490.196 56.544L489.752 55.848C490.508 55.224 491.072 54.384 491.456 53.34C491.096 52.752 490.712 52.212 490.304 51.72L490.748 51.216C491.084 51.576 491.408 51.984 491.72 52.464C491.912 51.66 492.032 50.76 492.056 49.776H490.892C490.616 50.532 490.28 51.18 489.884 51.72L489.536 51.288V51.348H488.024L488.324 52.08H489.956V52.812H487.604C487.556 53.076 487.52 53.328 487.484 53.544H489.584C489.584 54.9 489.5 55.728 489.332 56.016C489.152 56.304 488.852 56.46 488.42 56.472H487.736L487.52 55.764H488.216C488.456 55.752 488.624 55.656 488.696 55.476C488.756 55.296 488.792 54.876 488.804 54.228H487.328C487.268 54.432 487.208 54.612 487.148 54.78C486.908 55.332 486.56 55.836 486.104 56.28L485.612 55.644C485.984 55.284 486.272 54.876 486.464 54.432C486.632 54.012 486.752 53.472 486.836 52.812H485.756V52.08H487.508L487.208 51.348H486.152V48.024ZM488.804 50.748V49.98H486.884V50.748H488.804ZM486.884 49.38H488.804V48.624H486.884V49.38ZM501.368 47.196H502.196V47.976H505.172V48.684H502.196V49.488H504.74V50.184H502.196V51H505.472V51.72H498.128V51H501.368V50.184H498.944V49.488H501.368V48.684H498.464V47.976H501.368V47.196ZM499.868 54.744V55.62H503.744V54.744H499.868ZM503.744 54.072V53.184H499.868V54.072H503.744ZM499.868 56.292V58.2H499.04V52.476H504.572V57.156C504.572 57.804 504.224 58.128 503.552 58.128H502.544L502.34 57.36L503.3 57.396C503.588 57.396 503.744 57.252 503.744 56.976V56.292H499.868ZM495.956 47.328C496.76 47.928 497.432 48.54 497.984 49.152L497.396 49.752C496.892 49.176 496.208 48.564 495.344 47.916L495.956 47.328ZM494.504 50.868H497.048V56.136C497.408 55.8 497.78 55.428 498.188 55.008L498.416 55.92C497.744 56.616 497.024 57.24 496.28 57.78L495.944 57.012C496.124 56.844 496.22 56.664 496.22 56.46V51.696H494.504V50.868ZM516.944 47.904V58.2H516.104V57.456H512.168V58.212H511.34V47.904H516.944ZM512.168 56.64H516.104V54.516H512.168V56.64ZM512.168 53.712H516.104V51.588H512.168V53.712ZM512.168 50.784H516.104V48.72H512.168V50.784ZM509.228 51.924V58.188H508.376V52.104C507.968 53.256 507.452 54.288 506.804 55.224L506.468 54.372C507.344 53.208 507.968 51.876 508.352 50.376H506.684V49.548H508.376V47.208H509.228V49.548H510.776V50.376H509.228V51.012C509.78 51.588 510.332 52.236 510.884 52.944L510.416 53.64C509.96 52.944 509.564 52.368 509.228 51.924ZM521.72 47.244C522.2 47.868 522.656 48.54 523.088 49.284L522.308 49.68C521.876 48.912 521.42 48.228 520.928 47.628L521.72 47.244ZM526.232 47.136L527.06 47.364C526.772 48.228 526.412 49.008 525.98 49.692H528.452V50.532H524.444V51.096C524.42 51.696 524.372 52.26 524.276 52.764H529.148V53.604H524.78C525.368 55.224 526.916 56.484 529.436 57.384L528.932 58.188C526.292 57.12 524.66 55.668 524.012 53.844C523.784 54.528 523.484 55.128 523.1 55.644C522.284 56.7 520.952 57.528 519.104 58.116L518.636 57.36C520.472 56.772 521.756 55.992 522.476 55.032C522.764 54.6 522.992 54.132 523.16 53.604H518.852V52.764H523.376C523.484 52.236 523.544 51.684 523.556 51.096V50.532H519.536V49.692H525.02C525.476 48.996 525.872 48.144 526.232 47.136ZM540.068 50.292V55.74H539.228V51.108H533.324V55.836H532.484V50.592C532.124 50.88 531.752 51.144 531.392 51.384L530.84 50.724C532.304 49.836 533.516 48.66 534.452 47.208L535.304 47.388C535.124 47.676 534.944 47.952 534.752 48.216H538.724V48.852C538.292 49.416 537.872 49.896 537.452 50.292H540.068ZM536.444 50.292C536.852 49.92 537.26 49.488 537.668 48.984H534.152C533.744 49.464 533.3 49.896 532.844 50.292H536.444ZM536.912 55.416C538.496 55.992 539.936 56.676 541.244 57.492L540.764 58.224C539.372 57.312 537.944 56.592 536.48 56.064L536.912 55.416ZM535.82 51.804H536.66V53.46C536.612 54.756 536.192 55.776 535.412 56.544C534.644 57.252 533.384 57.804 531.644 58.212L531.176 57.48C532.904 57.096 534.116 56.604 534.8 55.98C535.436 55.332 535.772 54.492 535.82 53.46V51.804ZM543.164 47.976H547.568V47.22H548.432V47.976H552.788V48.696H548.432V49.476H552.176V50.184H548.432V50.988H553.172V51.732H542.828V50.988H547.568V50.184H543.788V49.476H547.568V48.696H543.164V47.976ZM551.684 52.44V56.028H550.856V53.208H545.108V56.124H544.28V52.44H551.684ZM548.648 55.644C550.232 56.172 551.672 56.796 552.968 57.528L552.476 58.272C551.084 57.456 549.656 56.82 548.18 56.352L548.648 55.644ZM547.592 53.844L548.432 53.928C548.276 55.092 547.808 56.028 547.028 56.724C546.344 57.348 545.132 57.84 543.392 58.2L543.044 57.384C544.568 57.096 545.672 56.688 546.356 56.148C547.028 55.596 547.436 54.828 547.592 53.844ZM560.432 47.22C560.432 48.252 560.396 49.14 560.348 49.884C561.02 53.148 562.76 55.644 565.556 57.36L564.992 58.116C562.544 56.508 560.888 54.348 560.036 51.636C559.316 54.252 557.612 56.412 554.948 58.128L554.42 57.36C557.72 55.332 559.424 52.584 559.532 49.128C559.544 48.312 559.556 47.676 559.556 47.22H560.432ZM577.076 48.48V51.168H576.2V49.32H567.776V51.168H566.9V48.48H571.508C571.364 48.072 571.22 47.7 571.052 47.364L572.024 47.196C572.18 47.58 572.336 48 572.48 48.48H577.076ZM568.616 50.712H575.336V51.552H568.616V50.712ZM566.78 52.968H577.232V53.796H573.836V56.64C573.836 57 574.004 57.192 574.352 57.192H575.948C576.164 57.192 576.308 57.108 576.392 56.952C576.488 56.772 576.56 56.232 576.608 55.32L577.424 55.584C577.352 56.736 577.208 57.444 576.992 57.684C576.8 57.9 576.512 58.02 576.104 58.02H574.076C573.332 58.02 572.972 57.612 572.972 56.82V53.796H570.956V53.88C570.92 55.056 570.596 56.004 569.996 56.724C569.396 57.372 568.424 57.888 567.08 58.26L566.588 57.492C567.896 57.156 568.808 56.712 569.336 56.148C569.816 55.572 570.068 54.816 570.104 53.88V53.796H566.78V52.968ZM579.176 48.252H581.828C581.648 47.904 581.456 47.592 581.24 47.304L582.188 47.136C582.38 47.472 582.56 47.844 582.74 48.252H585.308C585.572 47.892 585.764 47.508 585.908 47.112L586.82 47.232C586.676 47.592 586.484 47.94 586.244 48.252H588.824V49.02H584.432V49.824H588.284V50.52H584.432V51.312H589.076V52.08H587.252C587.108 52.476 586.928 52.848 586.712 53.184H589.256V53.964H578.744V53.184H581.324C581.156 52.8 580.964 52.428 580.736 52.08H578.924V51.312H583.568V50.52H579.716V49.824H583.568V49.02H579.176V48.252ZM585.86 53.184C586.088 52.812 586.268 52.44 586.412 52.08H584.432V53.184H585.86ZM581.648 52.08C581.816 52.416 581.972 52.776 582.128 53.184H583.568V52.08H581.648ZM588.008 54.828V58.2H587.144V57.732H580.856V58.2H580.004V54.828H588.008ZM580.856 56.94H587.144V55.596H580.856V56.94ZM593.204 50.556H594.056V52.32H595.568V53.1H594.056V54.72C594.656 54.6 595.22 54.48 595.748 54.348V55.176C595.208 55.32 594.644 55.44 594.056 55.56V58.2H593.204V55.716C592.412 55.848 591.596 55.968 590.744 56.076L590.636 55.236C591.548 55.128 592.412 55.008 593.204 54.876V53.1H591.008L590.828 52.332C591.164 51.636 591.488 50.76 591.788 49.704H590.66V48.864H592.016C592.136 48.336 592.268 47.772 592.388 47.196L593.216 47.328C593.096 47.868 592.988 48.384 592.868 48.864H595.772V49.704H592.64C592.352 50.688 592.052 51.564 591.728 52.32H593.204V50.556ZM596.948 47.1L597.8 47.232C597.716 47.892 597.608 48.504 597.488 49.056H601.22V49.608C601.004 50.652 600.728 51.684 600.368 52.692L599.504 52.452C599.828 51.696 600.104 50.844 600.32 49.884H597.284C596.996 50.832 596.636 51.612 596.204 52.212L595.496 51.708C596.24 50.604 596.732 49.068 596.948 47.1ZM597.944 50.688H598.772C598.772 51.516 598.724 52.272 598.652 52.956C599.228 54.864 600.2 56.376 601.568 57.492L600.956 58.2C599.84 57.18 598.988 55.932 598.4 54.456C598.376 54.54 598.364 54.624 598.34 54.708C597.956 56.148 597.092 57.324 595.748 58.236L595.172 57.54C596.336 56.748 597.104 55.752 597.488 54.552C597.776 53.544 597.932 52.248 597.944 50.688ZM605.144 47.124L605.96 47.496C605.648 48.444 605.252 49.344 604.772 50.196V58.212H603.92V51.516C603.536 52.044 603.116 52.548 602.66 53.028L602.384 52.104C603.656 50.664 604.568 48.996 605.144 47.124ZM607.16 47.916L608.012 48.024C607.916 48.624 607.784 49.2 607.616 49.728H609.38V47.232H610.244V49.728H613.004V50.568H610.244V53.46H613.448V54.288H610.244V58.152H609.38V54.288H605.852V53.46H609.38V50.568H607.34C607.04 51.36 606.668 52.068 606.224 52.692L605.672 51.972C606.404 50.868 606.896 49.512 607.16 47.916ZM622.928 47.16C623.504 47.592 623.996 48.036 624.404 48.48L623.852 49.032H625.316V49.86H621.62C621.704 51.348 621.86 52.524 622.076 53.388C622.148 53.688 622.232 53.964 622.316 54.228C622.916 53.268 623.396 52.14 623.768 50.856L624.548 51.192C624.068 52.776 623.444 54.12 622.676 55.2C622.844 55.584 623.024 55.92 623.216 56.196C623.612 56.772 623.936 57.06 624.176 57.06C624.392 57.048 624.596 56.424 624.776 55.188L625.556 55.62C625.268 57.216 624.86 58.02 624.32 58.02C623.816 58.02 623.276 57.66 622.7 56.94C622.484 56.652 622.28 56.316 622.1 55.944C621.26 56.928 620.276 57.66 619.148 58.164L618.668 57.444C619.868 56.904 620.888 56.112 621.716 55.068C621.548 54.624 621.392 54.144 621.26 53.628C620.996 52.62 620.828 51.36 620.732 49.86H616.616V51.852H619.556C619.532 53.88 619.436 55.188 619.28 55.776C619.124 56.292 618.752 56.556 618.152 56.58C617.864 56.58 617.516 56.556 617.132 56.532L616.868 55.752C617.336 55.776 617.732 55.788 618.056 55.788C618.32 55.776 618.488 55.596 618.56 55.26C618.632 54.852 618.668 53.988 618.692 52.668H616.616V53.028C616.568 55.176 616.088 56.904 615.2 58.2L614.54 57.612C615.308 56.508 615.704 54.984 615.74 53.028V49.032H620.696C620.672 48.432 620.66 47.82 620.66 47.172H621.548C621.548 47.844 621.56 48.456 621.584 49.032H623.828C623.468 48.6 622.988 48.156 622.376 47.688L622.928 47.16ZM630.332 47.448L631.088 47.904C630.524 48.9 629.96 49.716 629.396 50.352C628.796 51.048 627.992 51.732 626.996 52.404L626.528 51.648C627.344 51.18 628.088 50.568 628.748 49.812C629.324 49.14 629.852 48.36 630.332 47.448ZM630.728 52.8H628.304V51.972H635.468C635.432 53.472 635.36 54.684 635.24 55.608C635.12 56.52 634.928 57.168 634.652 57.528C634.388 57.876 633.956 58.068 633.356 58.104H631.172L630.932 57.252C631.628 57.276 632.288 57.288 632.912 57.288C633.56 57.288 633.98 57.012 634.184 56.46C634.4 55.884 634.532 54.672 634.592 52.8H631.604C631.316 54.108 630.92 55.152 630.404 55.92C629.792 56.784 628.868 57.552 627.644 58.236L627.092 57.516C628.196 56.916 629.036 56.256 629.6 55.536C630.104 54.84 630.476 53.928 630.728 52.8ZM633.716 47.292C634.412 49.14 635.648 50.604 637.436 51.672L636.86 52.356C635 51.156 633.704 49.608 632.972 47.712L633.716 47.292ZM641.72 47.244C642.2 47.868 642.656 48.54 643.088 49.284L642.308 49.68C641.876 48.912 641.42 48.228 640.928 47.628L641.72 47.244ZM646.232 47.136L647.06 47.364C646.772 48.228 646.412 49.008 645.98 49.692H648.452V50.532H644.444V51.096C644.42 51.696 644.372 52.26 644.276 52.764H649.148V53.604H644.78C645.368 55.224 646.916 56.484 649.436 57.384L648.932 58.188C646.292 57.12 644.66 55.668 644.012 53.844C643.784 54.528 643.484 55.128 643.1 55.644C642.284 56.7 640.952 57.528 639.104 58.116L638.636 57.36C640.472 56.772 641.756 55.992 642.476 55.032C642.764 54.6 642.992 54.132 643.16 53.604H638.852V52.764H643.376C643.484 52.236 643.544 51.684 643.556 51.096V50.532H639.536V49.692H645.02C645.476 48.996 645.872 48.144 646.232 47.136ZM651.164 51.504C651.14 51.564 651.104 51.624 651.08 51.684L650.408 51.252C650.972 50.004 651.38 48.624 651.644 47.112L652.46 47.28C652.364 47.724 652.28 48.144 652.184 48.552H654.008V49.38H651.956C651.788 49.956 651.596 50.484 651.392 50.988H653.972V51.756H652.916V53.232H654.152V54.024H652.916V56.784C653.312 56.568 653.72 56.304 654.128 55.968L654.272 56.712C653.66 57.168 652.952 57.552 652.16 57.852L651.812 57.132C652.028 57.048 652.136 56.928 652.136 56.76V54.024H650.792V53.232H652.136V51.756H651.164V51.504ZM660.8 52.236H659.132V53.16H660.932V53.844H659.132V54.792H661.232V55.512H659.132V56.688H658.352V55.512H656.744V54.792H658.352V53.844H657.044V53.16H658.352V52.236H657.164V51.54H658.352V50.568H656.756V49.872H658.352V48.852H657.164V48.156H658.352V47.268H659.132V48.156H660.8V49.872H661.364V50.568H660.8V52.236ZM659.132 48.852V49.872H660.068V48.852H659.132ZM659.132 50.568V51.54H660.068V50.568H659.132ZM659.636 57.216C660.428 57.216 661.064 57.192 661.532 57.168L661.376 57.996H660.068C658.292 57.972 657.08 57.756 656.456 57.348C656.168 57.168 655.916 56.952 655.7 56.7C655.436 57.252 655.112 57.72 654.74 58.128L654.152 57.552C654.56 57.12 654.908 56.604 655.172 56.004C654.752 55.332 654.416 54.492 654.176 53.484L654.824 53.244C654.98 53.952 655.208 54.576 655.496 55.128C655.736 54.312 655.88 53.376 655.928 52.32H654.5V51.72C654.98 50.904 655.424 50.016 655.808 49.068H654.416V48.324H656.588V49.032C656.18 50.04 655.784 50.892 655.388 51.612H656.624V52.08C656.6 53.58 656.396 54.864 656.024 55.92C656.336 56.304 656.696 56.58 657.08 56.76C657.62 57.024 658.472 57.168 659.636 57.216ZM663.848 51.48C663.488 52.008 663.092 52.524 662.66 53.004L662.384 52.08C663.56 50.628 664.412 48.96 664.952 47.088L665.756 47.46C665.468 48.384 665.12 49.248 664.7 50.064V58.224H663.848V51.48ZM665.708 48.78H669.404C669.224 48.3 669.02 47.844 668.78 47.388L669.608 47.16C669.86 47.688 670.052 48.168 670.196 48.612L669.74 48.78H673.52V49.596H665.708V48.78ZM666.812 50.568H672.488V51.348H666.812V50.568ZM666.812 52.26H672.488V53.052H666.812V52.26ZM672.704 54.036V58.2H671.864V57.552H667.424V58.2H666.584V54.036H672.704ZM667.424 56.736H671.864V54.84H667.424V56.736ZM676.292 48.084H678.932C679.1 47.772 679.22 47.46 679.304 47.124L680.204 47.244C680.108 47.544 679.988 47.82 679.844 48.084H683.804V53.952H676.292V48.084ZM682.964 53.208V52.2H677.132V53.208H682.964ZM677.132 51.504H682.964V50.52H677.132V51.504ZM677.132 49.824H682.964V48.84H677.132V49.824ZM675.692 54.768L676.508 54.936C676.22 56.04 675.824 56.988 675.308 57.804L674.576 57.336C675.092 56.568 675.464 55.704 675.692 54.768ZM681.476 58.02H678.392C677.696 58.02 677.36 57.672 677.36 57V54.708H678.236V56.82C678.236 57.096 678.368 57.24 678.644 57.24H681.308C681.584 57.24 681.776 57.168 681.872 57.048C682.016 56.88 682.124 56.412 682.172 55.632L683 55.896C682.904 56.904 682.736 57.516 682.496 57.744C682.28 57.924 681.932 58.02 681.476 58.02ZM679.868 54.276C680.516 54.9 681.008 55.452 681.356 55.92L680.696 56.376C680.336 55.86 679.856 55.296 679.232 54.672L679.868 54.276ZM683.744 54.552C684.512 55.512 685.1 56.364 685.508 57.084L684.824 57.564C684.392 56.784 683.804 55.92 683.072 54.972L683.744 54.552ZM688.232 55.572C688.496 55.572 688.724 55.68 688.892 55.908C689.048 56.124 689.132 56.4 689.132 56.748C689.132 57.276 688.976 57.744 688.664 58.152C688.352 58.536 687.932 58.8 687.428 58.932V58.344C687.74 58.236 687.992 58.056 688.184 57.816C688.352 57.564 688.448 57.3 688.448 57.012C688.4 57.036 688.304 57.06 688.184 57.06C687.98 57.06 687.812 56.988 687.668 56.844C687.524 56.7 687.452 56.52 687.452 56.316C687.452 56.088 687.524 55.908 687.668 55.776C687.812 55.632 687.992 55.572 688.232 55.572ZM702.596 47.88V56.16H699.896V57.108H699.032V47.88H702.596ZM699.896 55.308H701.768V52.368H699.896V55.308ZM699.896 51.54H701.768V48.732H699.896V51.54ZM704.768 51.336V53.412H707.948V51.336H704.768ZM707.948 50.532V48.42H704.768V50.532H707.948ZM704.72 54.216C704.564 55.848 704.096 57.192 703.304 58.248L702.62 57.624C703.46 56.472 703.88 55.02 703.904 53.256V47.592H708.824V57C708.824 57.72 708.452 58.092 707.72 58.092H706.148L705.92 57.24C706.472 57.264 706.976 57.288 707.444 57.288C707.78 57.288 707.948 57.084 707.948 56.688V54.216H704.72ZM716.288 53.04V54.264C716.288 54.36 716.276 54.468 716.276 54.576H717.836V53.04H716.288ZM716.216 55.332C716.072 56.46 715.736 57.396 715.184 58.164L714.56 57.6C715.16 56.736 715.46 55.632 715.484 54.312V50.376C715.304 50.544 715.124 50.712 714.956 50.856L714.416 50.22C715.364 49.44 716.144 48.42 716.756 47.172L717.584 47.352C717.464 47.604 717.332 47.844 717.212 48.084H720.104V48.696C719.744 49.224 719.384 49.68 719.024 50.04H721.04V57.228C721.04 57.768 720.728 58.044 720.116 58.044H719.228L719.024 57.264C719.324 57.288 719.6 57.312 719.864 57.312C720.104 57.312 720.224 57.18 720.224 56.94V55.332H718.616V57.984H717.836V55.332H716.216ZM718.088 50.04C718.436 49.68 718.772 49.272 719.108 48.816H716.768C716.468 49.26 716.144 49.668 715.808 50.04H718.088ZM720.224 54.576V53.04H718.616V54.576H720.224ZM720.224 52.272V50.808H718.616V52.272H720.224ZM717.836 50.808H716.288V52.272H717.836V50.808ZM710.804 47.868H714.812V48.708H713C712.844 49.68 712.616 50.592 712.328 51.432H714.512V56.892H712.412V57.804H711.596V53.1C711.392 53.472 711.176 53.82 710.96 54.156L710.456 53.352C711.32 51.996 711.884 50.448 712.16 48.708H710.804V47.868ZM712.412 56.112H713.72V52.224H712.412V56.112ZM723.164 47.976H727.568V47.22H728.432V47.976H732.788V48.696H728.432V49.476H732.176V50.184H728.432V50.988H733.172V51.732H722.828V50.988H727.568V50.184H723.788V49.476H727.568V48.696H723.164V47.976ZM731.684 52.44V56.028H730.856V53.208H725.108V56.124H724.28V52.44H731.684ZM728.648 55.644C730.232 56.172 731.672 56.796 732.968 57.528L732.476 58.272C731.084 57.456 729.656 56.82 728.18 56.352L728.648 55.644ZM727.592 53.844L728.432 53.928C728.276 55.092 727.808 56.028 727.028 56.724C726.344 57.348 725.132 57.84 723.392 58.2L723.044 57.384C724.568 57.096 725.672 56.688 726.356 56.148C727.028 55.596 727.436 54.828 727.592 53.844ZM737.444 51.948V58.152H736.58V51.924C736.148 53.196 735.56 54.336 734.828 55.356L734.444 54.384C735.428 53.208 736.136 51.876 736.556 50.376H734.696V49.548H736.58V47.208H737.444V49.548H739.028V50.376H737.444V51.06C738.044 51.636 738.656 52.296 739.268 53.016L738.776 53.748C738.26 53.004 737.816 52.404 737.444 51.948ZM743.876 48.756H740.636C740.78 50.604 741.284 52.26 742.16 53.724C743.024 52.284 743.588 50.628 743.876 48.756ZM741.656 54.492C740.588 52.764 739.964 50.856 739.796 48.756H739.316V47.928H744.716V48.744C744.368 50.988 743.684 52.92 742.676 54.528C743.444 55.608 744.404 56.592 745.58 57.468L744.992 58.164C743.864 57.276 742.916 56.304 742.172 55.26C741.332 56.4 740.3 57.36 739.088 58.152L738.536 57.456C739.796 56.616 740.84 55.632 741.656 54.492ZM749.54 47.208H750.404V52.416C750.356 55.056 749.384 56.976 747.476 58.188L746.828 57.624C748.604 56.544 749.516 54.804 749.54 52.416V47.208ZM746.996 48.324H747.86V54.204H746.996V48.324ZM751.088 48.132H756.92V57.936H756.044V57.204H750.824V56.352H756.044V52.992H751.376V52.164H756.044V48.972H751.088V48.132ZM761.672 51.828H764.504V51.204C763.52 51.228 762.452 51.252 761.324 51.252L761.108 50.604C763.976 50.604 766.364 50.496 768.26 50.28L768.62 50.904C767.672 51.024 766.568 51.108 765.32 51.168V51.828H768.2V53.916H765.32V54.6H769.016V57.168C769.016 57.828 768.692 58.164 768.068 58.164H766.808L766.616 57.432L767.828 57.468C768.092 57.468 768.236 57.312 768.236 57V55.296H766.808C767.096 55.872 767.348 56.46 767.564 57.084L766.964 57.348C766.892 57.156 766.832 56.964 766.772 56.796C765.524 56.964 764.204 57.12 762.8 57.252L762.62 56.532C763.268 56.484 763.892 56.448 764.504 56.4V55.296H761.9V58.2H761.096V54.6H764.504V53.916H761.672V51.828ZM765.272 55.296V56.328L766.532 56.184C766.4 55.86 766.268 55.56 766.124 55.296H765.272ZM767.42 53.292V52.464H765.32V53.292H767.42ZM764.504 53.292V52.464H762.464V53.292H764.504ZM767.936 48.348H760.568V49.236H767.936V48.348ZM760.568 49.896V51.168C760.556 53.832 760.088 56.124 759.176 58.032L758.54 57.456C759.32 55.836 759.716 53.736 759.728 51.168V47.652H768.764V49.896H760.568Z" fill="white"/>
<defs>
<filter id="filter0_d_5582_70364" x="390.925" y="0" width="415.075" height="84" filterUnits="userSpaceOnUse" color-interpolation-filters="sRGB">
<feFlood flood-opacity="0" result="BackgroundImageFix"/>
<feColorMatrix in="SourceAlpha" type="matrix" values="0 0 0 0 0 0 0 0 0 0 0 0 0 0 0 0 0 0 127 0" result="hardAlpha"/>
<feOffset dx="2" dy="2"/>
<feGaussianBlur stdDeviation="5"/>
<feColorMatrix type="matrix" values="0 0 0 0 0.0745098 0 0 0 0 0.235294 0 0 0 0 0.603922 0 0 0 0.14 0"/>
<feBlend mode="normal" in2="BackgroundImageFix" result="effect1_dropShadow_5582_70364"/>
<feBlend mode="normal" in="SourceGraphic" in2="effect1_dropShadow_5582_70364" result="shape"/>
</filter>
</defs>
</svg>
