<?xml version="1.0" standalone="no"?><!DOCTYPE svg PUBLIC "-//W3C//DTD SVG 1.1//EN" "http://www.w3.org/Graphics/SVG/1.1/DTD/svg11.dtd"><svg t="1749614864039" class="icon" viewBox="0 0 1024 1024" version="1.1" xmlns="http://www.w3.org/2000/svg" p-id="1444" xmlns:xlink="http://www.w3.org/1999/xlink" width="200" height="200"><path d="M689.152 469.333333L567.466667 347.733333a39.168 39.168 0 0 1-12.288-29.866666 43.52 43.52 0 0 1 42.666666-43.178667 39.68 39.68 0 0 1 30.378667 12.202667L823.552 482.133333a40.96 40.96 0 0 1 0 59.733334L628.309333 737.024c-8.533333 8.533333-18.688 12.629333-30.378666 12.288a43.52 43.52 0 0 1-42.666667-43.178667 38.997333 38.997333 0 0 1 12.288-29.866666L689.152 554.666667H213.333333a41.301333 41.301333 0 0 1-30.464-12.288A41.130667 41.130667 0 0 1 170.752 512a41.642667 41.642667 0 0 1 42.666667-42.666667h475.733333z" p-id="1445"></path></svg>