<svg width="758" height="482" viewBox="0 0 758 482" fill="none" xmlns="http://www.w3.org/2000/svg">
<rect width="758" height="482" rx="6" fill="url(#paint0_linear_2421_36370)"/>
<g filter="url(#filter0_d_2421_36370)">
<path d="M48 174C48 170.686 50.6863 168 54 168H129C132.314 168 135 170.686 135 174V200H48V174Z" fill="white"/>
<path d="M74.626 177.38C75.256 177.856 75.788 178.346 76.236 178.836L75.592 179.494H77.258V180.88H73.142C73.254 182.504 73.422 183.764 73.646 184.632C73.688 184.828 73.744 185.01 73.8 185.206C74.36 184.226 74.822 183.092 75.186 181.832L76.516 182.406C75.97 184.184 75.27 185.696 74.416 186.942C74.542 187.222 74.682 187.474 74.822 187.684C75.214 188.286 75.522 188.594 75.732 188.594C75.872 188.594 76.04 187.922 76.222 186.578L77.538 187.292C77.174 189.266 76.656 190.26 75.956 190.26C75.34 190.26 74.696 189.84 74.01 189.014C73.814 188.762 73.618 188.482 73.45 188.174C72.526 189.182 71.462 189.952 70.258 190.484L69.418 189.252C70.734 188.664 71.854 187.81 72.778 186.69C72.582 186.2 72.414 185.668 72.26 185.094C71.952 183.974 71.756 182.56 71.644 180.88H67.276V182.826H70.706C70.664 185.43 70.524 187.054 70.286 187.698C70.062 188.286 69.572 188.58 68.816 188.594C68.48 188.594 68.102 188.566 67.682 188.524L67.234 187.194C67.794 187.236 68.256 187.264 68.648 187.264C68.872 187.25 69.026 187.11 69.096 186.83C69.18 186.508 69.222 185.626 69.25 184.198H67.276C67.206 186.802 66.632 188.888 65.554 190.47L64.448 189.476C65.316 188.202 65.764 186.424 65.806 184.156V179.494H71.574C71.546 178.85 71.546 178.164 71.546 177.464H73.03C73.03 178.178 73.044 178.85 73.072 179.494H75.046C74.696 179.102 74.248 178.682 73.702 178.262L74.626 177.38ZM82.41 177.744L83.67 178.514C83.026 179.662 82.368 180.614 81.71 181.342C81.066 182.07 80.142 182.868 78.91 183.75L78.112 182.448C78.98 181.972 79.82 181.3 80.604 180.418C81.234 179.69 81.836 178.808 82.41 177.744ZM82.788 184.324H80.268V182.91H88.78C88.724 184.73 88.64 186.186 88.5 187.306C88.36 188.426 88.136 189.196 87.8 189.644C87.478 190.064 86.96 190.302 86.246 190.344H83.558L83.166 188.902C83.992 188.93 84.776 188.958 85.504 188.958C86.19 188.958 86.638 188.664 86.862 188.104C87.086 187.516 87.24 186.256 87.296 184.324H84.272C83.95 185.752 83.516 186.886 82.956 187.74C82.228 188.762 81.15 189.686 79.722 190.498L78.77 189.28C80.03 188.608 80.982 187.866 81.626 187.054C82.116 186.354 82.508 185.444 82.788 184.324ZM86.792 177.576C87.548 179.662 88.962 181.314 91.034 182.518L90.04 183.68C87.884 182.294 86.372 180.502 85.518 178.29L86.792 177.576ZM95.99 177.744L97.25 178.514C96.606 179.662 95.948 180.614 95.29 181.342C94.646 182.07 93.722 182.868 92.49 183.75L91.692 182.448C92.56 181.972 93.4 181.3 94.184 180.418C94.814 179.69 95.416 178.808 95.99 177.744ZM96.368 184.324H93.848V182.91H102.36C102.304 184.73 102.22 186.186 102.08 187.306C101.94 188.426 101.716 189.196 101.38 189.644C101.058 190.064 100.54 190.302 99.826 190.344H97.138L96.746 188.902C97.572 188.93 98.356 188.958 99.084 188.958C99.77 188.958 100.218 188.664 100.442 188.104C100.666 187.516 100.82 186.256 100.876 184.324H97.852C97.53 185.752 97.096 186.886 96.536 187.74C95.808 188.762 94.73 189.686 93.302 190.498L92.35 189.28C93.61 188.608 94.562 187.866 95.206 187.054C95.696 186.354 96.088 185.444 96.368 184.324ZM100.372 177.576C101.128 179.662 102.542 181.314 104.614 182.518L103.62 183.68C101.464 182.294 99.952 180.502 99.098 178.29L100.372 177.576ZM108.828 183.638V190.428H107.386V184.016C106.966 185.192 106.434 186.27 105.804 187.264L105.174 185.654C106.14 184.436 106.854 183.05 107.302 181.496H105.51V180.082H107.386V177.492H108.828V180.082H110.564V181.496H108.828V182.056C109.472 182.7 110.102 183.386 110.732 184.128L109.934 185.304C109.514 184.632 109.136 184.072 108.828 183.638ZM117.032 177.506L117.746 178.822C116.192 179.326 114.456 179.634 112.538 179.746V181.818H118.068V183.232H116.15V190.428H114.68V183.232H112.538C112.426 186.214 111.698 188.594 110.368 190.372L109.332 189.266C110.452 187.796 111.054 185.752 111.138 183.134V178.5C113.35 178.444 115.31 178.122 117.032 177.506Z" fill="#6C87FF"/>
<path d="M48.5 200.5H226C234.56 200.5 241.5 207.44 241.5 216V308C241.5 311.038 239.038 313.5 236 313.5H54C50.9624 313.5 48.5 311.038 48.5 308V200.5Z" fill="white" fill-opacity="0.1"/>
<path d="M66.5 224.566C67.158 224.566 67.732 224.79 68.208 225.266C68.67 225.728 68.908 226.288 68.908 226.96C68.908 227.618 68.67 228.192 68.208 228.668C67.732 229.13 67.158 229.368 66.5 229.368C65.828 229.368 65.268 229.13 64.806 228.668C64.33 228.192 64.106 227.618 64.106 226.96C64.106 226.288 64.33 225.728 64.806 225.266C65.268 224.79 65.828 224.566 66.5 224.566ZM78.722 220.744C79.702 221.458 80.542 222.172 81.228 222.872L80.318 223.768C79.73 223.096 78.89 222.382 77.826 221.598L78.722 220.744ZM78.47 224.174C79.394 224.86 80.164 225.546 80.794 226.218L79.898 227.128C79.352 226.484 78.582 225.784 77.574 225.028L78.47 224.174ZM79.814 227.996L80.962 228.444C80.36 230.208 79.688 231.86 78.946 233.4L77.7 232.854C78.512 231.272 79.226 229.648 79.814 227.996ZM83.706 223.25H85.624C85.75 222.886 85.848 222.536 85.932 222.172H82.922V225.84C82.866 229.004 82.334 231.538 81.326 233.456L80.318 232.56C81.158 230.95 81.606 228.71 81.648 225.84V220.996H90.202V222.172H87.192C87.108 222.536 87.01 222.9 86.884 223.25H89.502V228.36H87.262V232.084C87.262 232.952 86.842 233.4 86.016 233.4H84.84L84.56 232.196C84.91 232.252 85.246 232.28 85.582 232.28C85.862 232.28 86.002 232.112 86.002 231.776V228.36H83.706V223.25ZM88.34 227.31V226.288H84.868V227.31H88.34ZM84.868 225.322H88.34V224.272H84.868V225.322ZM83.93 229.214L85.106 229.466C84.77 230.726 84.28 231.804 83.65 232.714L82.586 232.042C83.216 231.174 83.664 230.222 83.93 229.214ZM89.026 229.144C89.558 230.096 90.034 231.118 90.426 232.21L89.306 232.7C88.886 231.496 88.424 230.446 87.92 229.522L89.026 229.144ZM103.348 223.726L103.558 224.986L99.036 225.588C99.12 226.344 99.218 227.016 99.33 227.576C99.652 229.032 100.086 230.152 100.632 230.922C101.136 231.65 101.626 232.028 102.074 232.056C102.396 232.028 102.648 231.188 102.816 229.508L103.978 230.18C103.782 231.328 103.516 232.182 103.208 232.742C102.928 233.162 102.578 233.386 102.144 233.4C101.444 233.4 100.716 232.952 99.974 232.056C99.162 231.076 98.546 229.788 98.14 228.206C97.972 227.548 97.832 226.736 97.734 225.77L94.822 226.162L94.612 224.902L97.622 224.496C97.538 223.32 97.482 221.976 97.468 220.492H98.812C98.812 221.92 98.854 223.194 98.938 224.314L103.348 223.726ZM92.778 225.994C92.358 226.512 91.91 227.016 91.434 227.506L91.014 226.12C92.47 224.496 93.534 222.606 94.206 220.45L95.452 221.038C95.102 222.088 94.654 223.082 94.122 224.006V233.47H92.778V225.994ZM100.31 220.548C101.15 221.248 101.85 221.934 102.438 222.634L101.528 223.53C101.038 222.858 100.352 222.144 99.456 221.374L100.31 220.548ZM109.606 225.336V232.714H108.374V232.028H107.17V232.98H105.938V227.702C105.714 228.066 105.49 228.416 105.252 228.752L104.594 227.688C105.56 226.148 106.204 224.412 106.54 222.48H105V221.192H109.858V222.48H107.8C107.618 223.502 107.366 224.454 107.044 225.336H109.606ZM107.17 230.81H108.374V226.54H107.17V230.81ZM111.188 223.082L112.49 223.166L111.902 226.526H114.576L115.206 222.256H110.418V220.996H116.662L115.92 226.526H117.348C117.348 230.026 117.138 232.042 116.746 232.574C116.34 233.106 115.486 233.372 114.198 233.372C113.806 233.372 113.386 233.344 112.966 233.316L112.602 232.028C113.218 232.098 113.638 232.14 113.876 232.14C114.926 232.14 115.556 231.93 115.752 231.51C115.976 231.076 116.088 229.83 116.088 227.772H110.432L111.188 223.082ZM110.11 229.242H115.318V230.502H110.11V229.242ZM123.298 230.026V231.286C121.954 231.944 120.428 232.462 118.72 232.854L118.552 231.524C120.372 231.16 121.954 230.656 123.298 230.026ZM120.904 220.478L122.164 220.968C121.464 222.592 120.75 223.908 120.022 224.916C120.554 224.86 121.1 224.79 121.632 224.706C121.912 224.202 122.192 223.684 122.5 223.124L123.704 223.572C122.486 225.756 121.45 227.366 120.61 228.388C121.534 228.164 122.458 227.884 123.41 227.52V228.738C121.828 229.312 120.33 229.704 118.93 229.9L118.58 228.682C118.818 228.57 119.014 228.444 119.182 228.29C119.644 227.828 120.218 227.044 120.918 225.938C120.19 226.036 119.462 226.134 118.706 226.232L118.37 225C118.58 224.916 118.776 224.748 118.944 224.496C119.7 223.292 120.344 221.962 120.904 220.478ZM130.032 221.136V231.664H131.152V232.952H122.976V231.664H124.124V221.136H130.032ZM125.426 231.664H128.73V229.396H125.426V231.664ZM125.426 228.136H128.73V225.84H125.426V228.136ZM125.426 224.594H128.73V222.41H125.426V224.594ZM134.834 220.408L136.08 220.982C135.73 222.088 135.268 223.138 134.708 224.118V233.442H133.406V226.05C133.014 226.554 132.594 227.03 132.16 227.492L131.726 226.078C133.126 224.454 134.162 222.564 134.834 220.408ZM137.186 221.416L138.488 221.584C138.376 222.214 138.25 222.816 138.096 223.376H139.776V220.576H141.106V223.376H144.2V224.678H141.106V227.688H144.718V228.976H141.106V233.386H139.776V228.976H135.8V227.688H139.776V224.678H137.662C137.312 225.56 136.892 226.358 136.388 227.086L135.534 225.98C136.346 224.734 136.906 223.208 137.186 221.416ZM155.47 220.422C156.114 220.912 156.66 221.402 157.108 221.906L156.464 222.55H158.144V223.824H153.972C154.07 225.476 154.238 226.764 154.476 227.674C154.532 227.912 154.602 228.15 154.672 228.374C155.26 227.338 155.75 226.162 156.142 224.832L157.36 225.35C156.8 227.142 156.1 228.682 155.232 229.942C155.386 230.278 155.54 230.558 155.694 230.796C156.114 231.412 156.45 231.734 156.674 231.734C156.856 231.734 157.038 231.048 157.22 229.676L158.424 230.32C158.074 232.252 157.556 233.232 156.884 233.232C156.268 233.232 155.624 232.812 154.952 231.986C154.728 231.706 154.532 231.398 154.35 231.062C153.412 232.112 152.32 232.91 151.088 233.456L150.332 232.336C151.676 231.734 152.81 230.866 153.734 229.718C153.538 229.214 153.37 228.668 153.216 228.08C152.908 226.946 152.712 225.532 152.614 223.824H148.106V225.868H151.536C151.508 228.402 151.382 229.998 151.158 230.67C150.934 231.258 150.458 231.552 149.73 231.566C149.394 231.566 149.002 231.538 148.568 231.496L148.162 230.292C148.722 230.32 149.184 230.348 149.576 230.348C149.828 230.334 149.982 230.18 150.066 229.872C150.15 229.508 150.192 228.584 150.22 227.128H148.106V227.212C148.05 229.802 147.476 231.874 146.412 233.442L145.404 232.546C146.272 231.272 146.734 229.494 146.776 227.212V222.55H152.544C152.516 221.892 152.516 221.206 152.516 220.492H153.86C153.86 221.22 153.888 221.906 153.916 222.55H156.072C155.694 222.13 155.218 221.682 154.63 221.234L155.47 220.422ZM163.38 220.786L164.528 221.486C163.884 222.634 163.226 223.586 162.568 224.314C161.896 225.07 160.972 225.868 159.768 226.708L159.04 225.546C159.936 225.042 160.776 224.356 161.56 223.474C162.204 222.732 162.806 221.836 163.38 220.786ZM163.786 227.254H161.168V225.98H169.638C169.582 227.772 169.498 229.214 169.358 230.334C169.218 231.426 168.994 232.196 168.672 232.63C168.35 233.05 167.832 233.288 167.118 233.33H164.472L164.108 232.014C164.934 232.042 165.718 232.07 166.446 232.07C167.146 232.07 167.622 231.776 167.846 231.188C168.07 230.572 168.224 229.256 168.294 227.254H165.13C164.794 228.71 164.346 229.872 163.786 230.74C163.058 231.748 161.98 232.672 160.552 233.484L159.698 232.378C160.958 231.706 161.924 230.95 162.568 230.124C163.086 229.382 163.492 228.43 163.786 227.254ZM167.636 220.604C168.406 222.704 169.82 224.37 171.892 225.602L170.996 226.652C168.84 225.252 167.328 223.46 166.474 221.262L167.636 220.604ZM176.96 220.786L178.108 221.486C177.464 222.634 176.806 223.586 176.148 224.314C175.476 225.07 174.552 225.868 173.348 226.708L172.62 225.546C173.516 225.042 174.356 224.356 175.14 223.474C175.784 222.732 176.386 221.836 176.96 220.786ZM177.366 227.254H174.748V225.98H183.218C183.162 227.772 183.078 229.214 182.938 230.334C182.798 231.426 182.574 232.196 182.252 232.63C181.93 233.05 181.412 233.288 180.698 233.33H178.052L177.688 232.014C178.514 232.042 179.298 232.07 180.026 232.07C180.726 232.07 181.202 231.776 181.426 231.188C181.65 230.572 181.804 229.256 181.874 227.254H178.71C178.374 228.71 177.926 229.872 177.366 230.74C176.638 231.748 175.56 232.672 174.132 233.484L173.278 232.378C174.538 231.706 175.504 230.95 176.148 230.124C176.666 229.382 177.072 228.43 177.366 227.254ZM181.216 220.604C181.986 222.704 183.4 224.37 185.472 225.602L184.576 226.652C182.42 225.252 180.908 223.46 180.054 221.262L181.216 220.604ZM189.658 226.47V233.4H188.356V226.75C187.908 228.01 187.348 229.158 186.676 230.208L186.102 228.752C187.096 227.492 187.824 226.05 188.272 224.426H186.424V223.152H188.356V220.52H189.658V223.152H191.436V224.426H189.658V225.056C190.302 225.714 190.946 226.428 191.59 227.198L190.876 228.262C190.4 227.534 189.994 226.932 189.658 226.47ZM197.96 220.534L198.618 221.724C197.05 222.256 195.3 222.578 193.368 222.676V224.888H198.94V226.162H196.98V233.414H195.636V226.162H193.368C193.256 229.172 192.542 231.566 191.212 233.344L190.26 232.35C191.394 230.866 192.01 228.794 192.094 226.148V221.542C194.278 221.486 196.238 221.15 197.96 220.534Z" fill="white"/>
<path d="M66.5 254.566C67.158 254.566 67.732 254.79 68.208 255.266C68.67 255.728 68.908 256.288 68.908 256.96C68.908 257.618 68.67 258.192 68.208 258.668C67.732 259.13 67.158 259.368 66.5 259.368C65.828 259.368 65.268 259.13 64.806 258.668C64.33 258.192 64.106 257.618 64.106 256.96C64.106 256.288 64.33 255.728 64.806 255.266C65.268 254.79 65.828 254.566 66.5 254.566ZM78.988 251.962H89.012V253.264H78.988V251.962ZM77.7 260.768H90.286V262.098H77.7V260.768ZM92.498 250.66C93.422 251.388 94.206 252.116 94.85 252.844L93.898 253.796C93.352 253.096 92.582 252.354 91.574 251.542L92.498 250.66ZM100.506 263.204C99.75 263.204 98.924 263.19 98.042 263.176C97.146 263.162 96.418 263.078 95.844 262.938C95.284 262.77 94.808 262.434 94.388 261.958C94.206 261.72 94.038 261.608 93.87 261.608C93.59 261.608 93.086 262.238 92.372 263.498L91.392 262.588C92.092 261.454 92.722 260.74 93.282 260.46V256.498H91.392V255.266H94.528V260.572C94.584 260.628 94.654 260.684 94.724 260.768C95.032 261.146 95.368 261.426 95.718 261.608C96.124 261.804 96.726 261.93 97.538 261.958C98.322 261.972 99.246 261.986 100.324 261.986C100.996 261.986 101.696 261.972 102.41 261.958C103.11 261.944 103.656 261.916 104.034 261.888L103.712 263.204H100.506ZM95.676 252.62H97.216V250.506H98.49V252.62H100.394V250.52H101.682V252.62H103.348V253.866H101.682V256.344H103.796V257.604H101.682V261.412H100.394V257.604H98.168C97.776 259.214 97.076 260.404 96.04 261.188L95.242 260.124C96.026 259.564 96.572 258.724 96.88 257.604H95.186V256.344H97.132C97.188 255.868 97.216 255.378 97.216 254.86V253.866H95.676V252.62ZM98.49 253.866V254.552C98.49 255.196 98.448 255.784 98.392 256.344H100.394V253.866H98.49ZM106.47 253.432C106.246 253.95 105.966 254.384 105.658 254.72L104.58 253.95C105.252 253.222 105.672 252.228 105.854 250.94L107.1 251.136C107.03 251.528 106.96 251.892 106.876 252.214H108.15V250.562H109.466V252.214H111.972V253.432H109.466V254.93H112.378V256.176H109.466V257.352H112.168V261.09C112.168 262.014 111.692 262.476 110.74 262.476H110.054L109.718 261.23L110.334 261.286C110.712 261.286 110.908 261.118 110.908 260.81V258.584H109.466V263.442H108.15V258.584H106.708V262.574H105.42V257.352H108.15V256.176H104.874V254.93H108.15V253.432H106.47ZM113.036 251.822H114.324V260.39H113.036V251.822ZM115.738 263.316H113.652L113.358 262.042C114.03 262.098 114.66 262.126 115.276 262.126C115.64 262.126 115.822 261.93 115.822 261.552V250.562H117.138V261.888C117.138 262.84 116.662 263.316 115.738 263.316ZM128.31 250.422C128.954 250.912 129.5 251.402 129.948 251.906L129.304 252.55H130.984V253.824H126.812C126.91 255.476 127.078 256.764 127.316 257.674C127.372 257.912 127.442 258.15 127.512 258.374C128.1 257.338 128.59 256.162 128.982 254.832L130.2 255.35C129.64 257.142 128.94 258.682 128.072 259.942C128.226 260.278 128.38 260.558 128.534 260.796C128.954 261.412 129.29 261.734 129.514 261.734C129.696 261.734 129.878 261.048 130.06 259.676L131.264 260.32C130.914 262.252 130.396 263.232 129.724 263.232C129.108 263.232 128.464 262.812 127.792 261.986C127.568 261.706 127.372 261.398 127.19 261.062C126.252 262.112 125.16 262.91 123.928 263.456L123.172 262.336C124.516 261.734 125.65 260.866 126.574 259.718C126.378 259.214 126.21 258.668 126.056 258.08C125.748 256.946 125.552 255.532 125.454 253.824H120.946V255.868H124.376C124.348 258.402 124.222 259.998 123.998 260.67C123.774 261.258 123.298 261.552 122.57 261.566C122.234 261.566 121.842 261.538 121.408 261.496L121.002 260.292C121.562 260.32 122.024 260.348 122.416 260.348C122.668 260.334 122.822 260.18 122.906 259.872C122.99 259.508 123.032 258.584 123.06 257.128H120.946V257.212C120.89 259.802 120.316 261.874 119.252 263.442L118.244 262.546C119.112 261.272 119.574 259.494 119.616 257.212V252.55H125.384C125.356 251.892 125.356 251.206 125.356 250.492H126.7C126.7 251.22 126.728 251.906 126.756 252.55H128.912C128.534 252.13 128.058 251.682 127.47 251.234L128.31 250.422ZM136.22 250.786L137.368 251.486C136.724 252.634 136.066 253.586 135.408 254.314C134.736 255.07 133.812 255.868 132.608 256.708L131.88 255.546C132.776 255.042 133.616 254.356 134.4 253.474C135.044 252.732 135.646 251.836 136.22 250.786ZM136.626 257.254H134.008V255.98H142.478C142.422 257.772 142.338 259.214 142.198 260.334C142.058 261.426 141.834 262.196 141.512 262.63C141.19 263.05 140.672 263.288 139.958 263.33H137.312L136.948 262.014C137.774 262.042 138.558 262.07 139.286 262.07C139.986 262.07 140.462 261.776 140.686 261.188C140.91 260.572 141.064 259.256 141.134 257.254H137.97C137.634 258.71 137.186 259.872 136.626 260.74C135.898 261.748 134.82 262.672 133.392 263.484L132.538 262.378C133.798 261.706 134.764 260.95 135.408 260.124C135.926 259.382 136.332 258.43 136.626 257.254ZM140.476 250.604C141.246 252.704 142.66 254.37 144.732 255.602L143.836 256.652C141.68 255.252 140.168 253.46 139.314 251.262L140.476 250.604ZM149.8 250.786L150.948 251.486C150.304 252.634 149.646 253.586 148.988 254.314C148.316 255.07 147.392 255.868 146.188 256.708L145.46 255.546C146.356 255.042 147.196 254.356 147.98 253.474C148.624 252.732 149.226 251.836 149.8 250.786ZM150.206 257.254H147.588V255.98H156.058C156.002 257.772 155.918 259.214 155.778 260.334C155.638 261.426 155.414 262.196 155.092 262.63C154.77 263.05 154.252 263.288 153.538 263.33H150.892L150.528 262.014C151.354 262.042 152.138 262.07 152.866 262.07C153.566 262.07 154.042 261.776 154.266 261.188C154.49 260.572 154.644 259.256 154.714 257.254H151.55C151.214 258.71 150.766 259.872 150.206 260.74C149.478 261.748 148.4 262.672 146.972 263.484L146.118 262.378C147.378 261.706 148.344 260.95 148.988 260.124C149.506 259.382 149.912 258.43 150.206 257.254ZM154.056 250.604C154.826 252.704 156.24 254.37 158.312 255.602L157.416 256.652C155.26 255.252 153.748 253.46 152.894 251.262L154.056 250.604ZM162.498 256.47V263.4H161.196V256.75C160.748 258.01 160.188 259.158 159.516 260.208L158.942 258.752C159.936 257.492 160.664 256.05 161.112 254.426H159.264V253.152H161.196V250.52H162.498V253.152H164.276V254.426H162.498V255.056C163.142 255.714 163.786 256.428 164.43 257.198L163.716 258.262C163.24 257.534 162.834 256.932 162.498 256.47ZM170.8 250.534L171.458 251.724C169.89 252.256 168.14 252.578 166.208 252.676V254.888H171.78V256.162H169.82V263.414H168.476V256.162H166.208C166.096 259.172 165.382 261.566 164.052 263.344L163.1 262.35C164.234 260.866 164.85 258.794 164.934 256.148V251.542C167.118 251.486 169.078 251.15 170.8 250.534Z" fill="white"/>
<path d="M66.5 284.566C67.158 284.566 67.732 284.79 68.208 285.266C68.67 285.728 68.908 286.288 68.908 286.96C68.908 287.618 68.67 288.192 68.208 288.668C67.732 289.13 67.158 289.368 66.5 289.368C65.828 289.368 65.268 289.13 64.806 288.668C64.33 288.192 64.106 287.618 64.106 286.96C64.106 286.288 64.33 285.728 64.806 285.266C65.268 284.79 65.828 284.566 66.5 284.566ZM89.768 283.726L89.978 284.986L85.456 285.588C85.54 286.344 85.638 287.016 85.75 287.576C86.072 289.032 86.506 290.152 87.052 290.922C87.556 291.65 88.046 292.028 88.494 292.056C88.816 292.028 89.068 291.188 89.236 289.508L90.398 290.18C90.202 291.328 89.936 292.182 89.628 292.742C89.348 293.162 88.998 293.386 88.564 293.4C87.864 293.4 87.136 292.952 86.394 292.056C85.582 291.076 84.966 289.788 84.56 288.206C84.392 287.548 84.252 286.736 84.154 285.77L81.242 286.162L81.032 284.902L84.042 284.496C83.958 283.32 83.902 281.976 83.888 280.492H85.232C85.232 281.92 85.274 283.194 85.358 284.314L89.768 283.726ZM79.198 285.994C78.778 286.512 78.33 287.016 77.854 287.506L77.434 286.12C78.89 284.496 79.954 282.606 80.626 280.45L81.872 281.038C81.522 282.088 81.074 283.082 80.542 284.006V293.47H79.198V285.994ZM86.73 280.548C87.57 281.248 88.27 281.934 88.858 282.634L87.948 283.53C87.458 282.858 86.772 282.144 85.876 281.374L86.73 280.548ZM96.026 285.336V292.714H94.794V292.028H93.59V292.98H92.358V287.702C92.134 288.066 91.91 288.416 91.672 288.752L91.014 287.688C91.98 286.148 92.624 284.412 92.96 282.48H91.42V281.192H96.278V282.48H94.22C94.038 283.502 93.786 284.454 93.464 285.336H96.026ZM93.59 290.81H94.794V286.54H93.59V290.81ZM97.608 283.082L98.91 283.166L98.322 286.526H100.996L101.626 282.256H96.838V280.996H103.082L102.34 286.526H103.768C103.768 290.026 103.558 292.042 103.166 292.574C102.76 293.106 101.906 293.372 100.618 293.372C100.226 293.372 99.806 293.344 99.386 293.316L99.022 292.028C99.638 292.098 100.058 292.14 100.296 292.14C101.346 292.14 101.976 291.93 102.172 291.51C102.396 291.076 102.508 289.83 102.508 287.772H96.852L97.608 283.082ZM96.53 289.242H101.738V290.502H96.53V289.242ZM108.654 285.35V286.092C108.654 286.568 108.626 287.002 108.598 287.422H115.052V293.47H113.722V288.696H108.444C108.094 290.74 107.352 292.322 106.204 293.442L105.182 292.546C106.582 291.202 107.296 289.046 107.324 286.092V280.926H108.654V284.076H112.448V280.52H113.75V284.076H116.704V285.35H108.654ZM120.596 285.14V286.568H123.606V287.786H120.596V289.648C121.996 289.508 123.172 289.326 124.096 289.088V290.32C123.284 290.53 122.122 290.726 120.596 290.908V293.358H119.308V291.048L118.496 291.132L118.286 289.802L119.308 289.746V281.598C121.03 281.36 122.444 280.996 123.536 280.52L124.208 281.654C123.116 282.046 121.912 282.368 120.596 282.606V283.908H123.606V285.14H120.596ZM124.306 286.428H130.27V287.59C129.92 288.822 129.346 289.9 128.548 290.796C129.304 291.384 130.228 291.916 131.32 292.364L130.606 293.512C129.43 292.966 128.45 292.35 127.652 291.664C126.714 292.434 125.552 293.05 124.18 293.526L123.438 292.406C124.726 291.958 125.804 291.398 126.686 290.698C125.888 289.774 125.342 288.766 125.062 287.66H124.306V286.428ZM126.28 287.66C126.532 288.472 126.952 289.214 127.554 289.886C128.156 289.214 128.618 288.472 128.94 287.66H126.28ZM125.258 280.982H129.5V283.894C129.5 284.23 129.654 284.398 129.99 284.398H131.096V285.588H129.626C128.674 285.588 128.212 285.112 128.212 284.188V282.214H126.56V282.886C126.56 284.258 125.958 285.322 124.782 286.078L123.9 285.07C124.796 284.594 125.258 283.922 125.258 283.026V280.982ZM141.89 280.422C142.534 280.912 143.08 281.402 143.528 281.906L142.884 282.55H144.564V283.824H140.392C140.49 285.476 140.658 286.764 140.896 287.674C140.952 287.912 141.022 288.15 141.092 288.374C141.68 287.338 142.17 286.162 142.562 284.832L143.78 285.35C143.22 287.142 142.52 288.682 141.652 289.942C141.806 290.278 141.96 290.558 142.114 290.796C142.534 291.412 142.87 291.734 143.094 291.734C143.276 291.734 143.458 291.048 143.64 289.676L144.844 290.32C144.494 292.252 143.976 293.232 143.304 293.232C142.688 293.232 142.044 292.812 141.372 291.986C141.148 291.706 140.952 291.398 140.77 291.062C139.832 292.112 138.74 292.91 137.508 293.456L136.752 292.336C138.096 291.734 139.23 290.866 140.154 289.718C139.958 289.214 139.79 288.668 139.636 288.08C139.328 286.946 139.132 285.532 139.034 283.824H134.526V285.868H137.956C137.928 288.402 137.802 289.998 137.578 290.67C137.354 291.258 136.878 291.552 136.15 291.566C135.814 291.566 135.422 291.538 134.988 291.496L134.582 290.292C135.142 290.32 135.604 290.348 135.996 290.348C136.248 290.334 136.402 290.18 136.486 289.872C136.57 289.508 136.612 288.584 136.64 287.128H134.526V287.212C134.47 289.802 133.896 291.874 132.832 293.442L131.824 292.546C132.692 291.272 133.154 289.494 133.196 287.212V282.55H138.964C138.936 281.892 138.936 281.206 138.936 280.492H140.28C140.28 281.22 140.308 281.906 140.336 282.55H142.492C142.114 282.13 141.638 281.682 141.05 281.234L141.89 280.422ZM149.8 280.786L150.948 281.486C150.304 282.634 149.646 283.586 148.988 284.314C148.316 285.07 147.392 285.868 146.188 286.708L145.46 285.546C146.356 285.042 147.196 284.356 147.98 283.474C148.624 282.732 149.226 281.836 149.8 280.786ZM150.206 287.254H147.588V285.98H156.058C156.002 287.772 155.918 289.214 155.778 290.334C155.638 291.426 155.414 292.196 155.092 292.63C154.77 293.05 154.252 293.288 153.538 293.33H150.892L150.528 292.014C151.354 292.042 152.138 292.07 152.866 292.07C153.566 292.07 154.042 291.776 154.266 291.188C154.49 290.572 154.644 289.256 154.714 287.254H151.55C151.214 288.71 150.766 289.872 150.206 290.74C149.478 291.748 148.4 292.672 146.972 293.484L146.118 292.378C147.378 291.706 148.344 290.95 148.988 290.124C149.506 289.382 149.912 288.43 150.206 287.254ZM154.056 280.604C154.826 282.704 156.24 284.37 158.312 285.602L157.416 286.652C155.26 285.252 153.748 283.46 152.894 281.262L154.056 280.604ZM163.38 280.786L164.528 281.486C163.884 282.634 163.226 283.586 162.568 284.314C161.896 285.07 160.972 285.868 159.768 286.708L159.04 285.546C159.936 285.042 160.776 284.356 161.56 283.474C162.204 282.732 162.806 281.836 163.38 280.786ZM163.786 287.254H161.168V285.98H169.638C169.582 287.772 169.498 289.214 169.358 290.334C169.218 291.426 168.994 292.196 168.672 292.63C168.35 293.05 167.832 293.288 167.118 293.33H164.472L164.108 292.014C164.934 292.042 165.718 292.07 166.446 292.07C167.146 292.07 167.622 291.776 167.846 291.188C168.07 290.572 168.224 289.256 168.294 287.254H165.13C164.794 288.71 164.346 289.872 163.786 290.74C163.058 291.748 161.98 292.672 160.552 293.484L159.698 292.378C160.958 291.706 161.924 290.95 162.568 290.124C163.086 289.382 163.492 288.43 163.786 287.254ZM167.636 280.604C168.406 282.704 169.82 284.37 171.892 285.602L170.996 286.652C168.84 285.252 167.328 283.46 166.474 281.262L167.636 280.604ZM176.078 286.47V293.4H174.776V286.75C174.328 288.01 173.768 289.158 173.096 290.208L172.522 288.752C173.516 287.492 174.244 286.05 174.692 284.426H172.844V283.152H174.776V280.52H176.078V283.152H177.856V284.426H176.078V285.056C176.722 285.714 177.366 286.428 178.01 287.198L177.296 288.262C176.82 287.534 176.414 286.932 176.078 286.47ZM184.38 280.534L185.038 281.724C183.47 282.256 181.72 282.578 179.788 282.676V284.888H185.36V286.162H183.4V293.414H182.056V286.162H179.788C179.676 289.172 178.962 291.566 177.632 293.344L176.68 292.35C177.814 290.866 178.43 288.794 178.514 286.148V281.542C180.698 281.486 182.658 281.15 184.38 280.534Z" fill="white"/>
<path d="M48.5 200.5H226C234.56 200.5 241.5 207.44 241.5 216V308C241.5 311.038 239.038 313.5 236 313.5H54C50.9624 313.5 48.5 311.038 48.5 308V200.5Z" stroke="white"/>
</g>
<g filter="url(#filter1_d_2421_36370)">
<path d="M288 168.5H460C468.56 168.5 475.5 175.44 475.5 184V276C475.5 279.038 473.038 281.5 470 281.5H282.5V174C282.5 170.962 284.962 168.5 288 168.5Z" fill="white" fill-opacity="0.1"/>
<path d="M300.5 192.566C301.158 192.566 301.732 192.79 302.208 193.266C302.67 193.728 302.908 194.288 302.908 194.96C302.908 195.618 302.67 196.192 302.208 196.668C301.732 197.13 301.158 197.368 300.5 197.368C299.828 197.368 299.268 197.13 298.806 196.668C298.33 196.192 298.106 195.618 298.106 194.96C298.106 194.288 298.33 193.728 298.806 193.266C299.268 192.79 299.828 192.566 300.5 192.566ZM312.498 189.262H323.53V190.55H321.29V193.91H324.244V195.198H321.29V201.26H319.96V195.198H316.208C316.068 196.598 315.802 197.76 315.382 198.698C314.85 199.874 313.954 200.784 312.708 201.414L311.994 200.294C313.114 199.636 313.884 198.796 314.29 197.788C314.556 197.06 314.738 196.192 314.85 195.198H311.77V193.91H314.948C314.948 193.798 314.962 193.686 314.962 193.602V190.55H312.498V189.262ZM316.306 190.55V193.602C316.306 193.714 316.292 193.812 316.292 193.91H319.96V190.55H316.306ZM326.302 188.744C327.282 189.458 328.122 190.172 328.808 190.872L327.898 191.768C327.31 191.096 326.47 190.382 325.406 189.598L326.302 188.744ZM326.05 192.174C326.974 192.86 327.744 193.546 328.374 194.218L327.478 195.128C326.932 194.484 326.162 193.784 325.154 193.028L326.05 192.174ZM327.394 195.996L328.542 196.444C327.94 198.208 327.268 199.86 326.526 201.4L325.28 200.854C326.092 199.272 326.806 197.648 327.394 195.996ZM331.286 191.25H333.204C333.33 190.886 333.428 190.536 333.512 190.172H330.502V193.84C330.446 197.004 329.914 199.538 328.906 201.456L327.898 200.56C328.738 198.95 329.186 196.71 329.228 193.84V188.996H337.782V190.172H334.772C334.688 190.536 334.59 190.9 334.464 191.25H337.082V196.36H334.842V200.084C334.842 200.952 334.422 201.4 333.596 201.4H332.42L332.14 200.196C332.49 200.252 332.826 200.28 333.162 200.28C333.442 200.28 333.582 200.112 333.582 199.776V196.36H331.286V191.25ZM335.92 195.31V194.288H332.448V195.31H335.92ZM332.448 193.322H335.92V192.272H332.448V193.322ZM331.51 197.214L332.686 197.466C332.35 198.726 331.86 199.804 331.23 200.714L330.166 200.042C330.796 199.174 331.244 198.222 331.51 197.214ZM336.606 197.144C337.138 198.096 337.614 199.118 338.006 200.21L336.886 200.7C336.466 199.496 336.004 198.446 335.5 197.522L336.606 197.144ZM345.23 191.544C344.754 192.496 344.166 193.294 343.466 193.966L342.612 192.93C343.76 191.81 344.53 190.312 344.922 188.436L346.224 188.66C346.084 189.22 345.944 189.752 345.776 190.256H351.18V191.544H348.352V194.624H351.698V195.898H348.352V201.456H347.022V195.898H342.976V194.624H347.022V191.544H345.23ZM340.512 188.632C341.422 189.318 342.192 190.004 342.822 190.704L341.912 191.628C341.352 190.97 340.582 190.27 339.588 189.542L340.512 188.632ZM338.748 192.692H341.898V198.628C342.332 198.25 342.794 197.83 343.284 197.354L343.648 198.74C342.752 199.594 341.786 200.35 340.778 201.008L340.274 199.818C340.498 199.622 340.624 199.384 340.624 199.104V193.966H338.748V192.692ZM352.468 189.29H365.04V190.578H363.276V199.832C363.276 200.84 362.786 201.344 361.834 201.344H359.482L359.174 200.056C359.944 200.098 360.672 200.126 361.372 200.126C361.75 200.126 361.946 199.916 361.946 199.496V190.578H352.468V189.29ZM359.692 192.398V197.788H355.282V198.936H354.008V192.398H359.692ZM355.282 196.584H358.432V193.588H355.282V196.584ZM374.462 190.368H370.64V189.066H378.578V190.368H375.82V193.966H378.382V195.212H375.82V199.664H378.858V200.966H370.206V199.664H371.522V192.482H372.824V199.664H374.462V190.368ZM367.798 188.632C368.666 189.332 369.422 190.018 370.038 190.704L369.128 191.628C368.582 190.956 367.826 190.256 366.874 189.514L367.798 188.632ZM365.88 192.692H369.086V198.446C369.464 198.11 369.87 197.718 370.304 197.298L370.654 198.712C369.814 199.524 368.918 200.252 367.966 200.896L367.462 199.692C367.686 199.496 367.812 199.258 367.812 198.978V193.966H365.88V192.692ZM385.41 188.492H386.39C388.154 190.48 390.17 192.048 392.466 193.196L391.752 194.47C390.982 194.05 390.254 193.602 389.582 193.126V194.12H382.218V193.098C381.518 193.602 380.776 194.064 379.992 194.498L379.292 193.21C381.742 191.95 383.786 190.368 385.41 188.492ZM382.568 192.846H389.204C387.972 191.922 386.866 190.872 385.9 189.696C384.962 190.844 383.856 191.894 382.568 192.846ZM390.464 195.618V201.428H389.176V200.672H382.624V201.428H381.336V195.618H390.464ZM382.624 199.412H389.176V196.864H382.624V199.412ZM393.432 190.41H395.336V188.604H396.666V190.41H398.388V191.684H396.666V193.686H398.584V194.96H396.61C396.582 195.268 396.54 195.562 396.512 195.842C397.268 196.542 398.038 197.312 398.822 198.18L398.066 199.314C397.366 198.348 396.778 197.606 396.302 197.074C395.882 198.95 395.14 200.42 394.076 201.484L393.082 200.616C394.342 199.356 395.07 197.48 395.28 194.96H393.236V193.686H395.336V191.684H393.432V190.41ZM404.996 189.024V196.85H403.722V190.242H400.292V196.85H399.018V189.024H404.996ZM404.492 201.232H403.26C402.462 201.232 402.07 200.798 402.07 199.958V197.396C401.902 197.914 401.692 198.376 401.454 198.782C400.754 199.944 399.606 200.84 398.038 201.484L397.352 200.378C398.892 199.734 399.942 198.908 400.502 197.914C401.048 196.85 401.342 195.478 401.398 193.784V191.208H402.616V193.784C402.588 194.932 402.448 195.968 402.224 196.864H403.288V199.692C403.288 199.93 403.4 200.056 403.638 200.056H404.282C404.45 200.056 404.562 199.986 404.646 199.846C404.73 199.678 404.8 199.202 404.842 198.39L405.976 198.754C405.892 199.958 405.724 200.672 405.5 200.91C405.276 201.12 404.94 201.232 404.492 201.232ZM406.844 192.594H412.388V191.754H413.62L412.878 191.264C413.494 190.368 413.928 189.416 414.18 188.394L415.468 188.674C415.384 188.982 415.286 189.29 415.188 189.57H419.206V190.746H416.826C417.106 191.18 417.33 191.586 417.512 191.95L416.35 192.398C416.098 191.838 415.804 191.278 415.468 190.746H414.712C414.488 191.194 414.25 191.6 413.998 191.992L413.732 191.824V192.594H419.276V193.798H413.732V194.61H418.324V197.326C418.324 198.11 417.904 198.502 417.064 198.502H416.112L415.776 197.326L416.686 197.396C416.896 197.396 417.008 197.27 417.008 197.046V195.772H413.732V196.906C415.216 198.222 417.162 199.244 419.598 200L418.898 201.218C416.91 200.462 415.188 199.454 413.732 198.166V201.484H412.388V198.208C410.988 199.524 409.392 200.546 407.628 201.288L406.83 200.098C408.986 199.342 410.848 198.264 412.388 196.878V195.772H409.336V198.446H408.034V194.61H412.388V193.798H406.844V192.594ZM408.818 190.746C408.51 191.236 408.188 191.698 407.824 192.118L406.676 191.404C407.544 190.466 408.16 189.458 408.524 188.38L409.798 188.66C409.686 188.982 409.56 189.29 409.434 189.57H412.78V190.746H410.722C411.002 191.18 411.254 191.586 411.45 191.964L410.246 192.398C409.994 191.838 409.686 191.278 409.35 190.746H408.818ZM432.1 196.038V201.344H430.798V200.812H427.774V201.344H426.472V196.052C426.304 196.108 426.136 196.178 425.996 196.248L425.492 195.59V200.224H424.358V199.678H421.796V200.224H420.606V189.43H425.492V191.922C426.332 191.082 427.06 189.962 427.676 188.562L428.992 188.828C428.852 189.15 428.712 189.458 428.572 189.752H432.24V190.774C431.792 191.838 431.148 192.776 430.308 193.602C431.134 194.162 432.1 194.652 433.206 195.058L432.632 196.248C431.372 195.688 430.294 195.072 429.398 194.386C428.558 195.016 427.592 195.562 426.5 196.038H432.1ZM425.492 192.286V195.086C426.612 194.638 427.578 194.12 428.39 193.532C427.9 193.056 427.48 192.552 427.144 192.048C426.836 192.44 426.528 192.79 426.192 193.112L425.492 192.286ZM427.774 199.566H430.798V197.27H427.774V199.566ZM424.358 198.516V195.086H423.602V198.516H424.358ZM424.358 193.924V190.634H423.602V193.924H424.358ZM422.538 190.634H421.796V193.924H422.538V190.634ZM421.796 195.086V198.516H422.538V195.086H421.796ZM429.258 192.804C429.86 192.244 430.336 191.642 430.7 190.998H427.872C427.844 191.026 427.83 191.068 427.816 191.096C428.194 191.712 428.67 192.286 429.258 192.804Z" fill="white"/>
<path d="M300.5 222.566C301.158 222.566 301.732 222.79 302.208 223.266C302.67 223.728 302.908 224.288 302.908 224.96C302.908 225.618 302.67 226.192 302.208 226.668C301.732 227.13 301.158 227.368 300.5 227.368C299.828 227.368 299.268 227.13 298.806 226.668C298.33 226.192 298.106 225.618 298.106 224.96C298.106 224.288 298.33 223.728 298.806 223.266C299.268 222.79 299.828 222.566 300.5 222.566ZM323.768 221.726L323.978 222.986L319.456 223.588C319.54 224.344 319.638 225.016 319.75 225.576C320.072 227.032 320.506 228.152 321.052 228.922C321.556 229.65 322.046 230.028 322.494 230.056C322.816 230.028 323.068 229.188 323.236 227.508L324.398 228.18C324.202 229.328 323.936 230.182 323.628 230.742C323.348 231.162 322.998 231.386 322.564 231.4C321.864 231.4 321.136 230.952 320.394 230.056C319.582 229.076 318.966 227.788 318.56 226.206C318.392 225.548 318.252 224.736 318.154 223.77L315.242 224.162L315.032 222.902L318.042 222.496C317.958 221.32 317.902 219.976 317.888 218.492H319.232C319.232 219.92 319.274 221.194 319.358 222.314L323.768 221.726ZM313.198 223.994C312.778 224.512 312.33 225.016 311.854 225.506L311.434 224.12C312.89 222.496 313.954 220.606 314.626 218.45L315.872 219.038C315.522 220.088 315.074 221.082 314.542 222.006V231.47H313.198V223.994ZM320.73 218.548C321.57 219.248 322.27 219.934 322.858 220.634L321.948 221.53C321.458 220.858 320.772 220.144 319.876 219.374L320.73 218.548ZM330.026 223.336V230.714H328.794V230.028H327.59V230.98H326.358V225.702C326.134 226.066 325.91 226.416 325.672 226.752L325.014 225.688C325.98 224.148 326.624 222.412 326.96 220.48H325.42V219.192H330.278V220.48H328.22C328.038 221.502 327.786 222.454 327.464 223.336H330.026ZM327.59 228.81H328.794V224.54H327.59V228.81ZM331.608 221.082L332.91 221.166L332.322 224.526H334.996L335.626 220.256H330.838V218.996H337.082L336.34 224.526H337.768C337.768 228.026 337.558 230.042 337.166 230.574C336.76 231.106 335.906 231.372 334.618 231.372C334.226 231.372 333.806 231.344 333.386 231.316L333.022 230.028C333.638 230.098 334.058 230.14 334.296 230.14C335.346 230.14 335.976 229.93 336.172 229.51C336.396 229.076 336.508 227.83 336.508 225.772H330.852L331.608 221.082ZM330.53 227.242H335.738V228.502H330.53V227.242ZM349.976 220.088V231.428H348.632V230.644H341.688V231.428H340.344V220.088H343.368C343.648 219.57 343.872 219.038 344.012 218.478L345.37 218.674C345.23 219.178 345.02 219.64 344.768 220.088H349.976ZM341.688 229.384H348.632V227.424H341.688V229.384ZM341.688 226.192H348.632V224.358H341.688V226.192ZM341.688 223.126H348.632V221.362H341.688V223.126ZM358.068 222.09H352.986V220.788H358.068C357.844 220.102 357.578 219.444 357.27 218.814L358.558 218.464C358.908 219.304 359.174 220.074 359.37 220.774L359.328 220.788H364.508V222.09H359.412V225.002H363.836V226.248H359.412V229.664H364.998V230.966H352.496V229.664H358.068V226.248H353.658V225.002H358.068V222.09ZM366.048 219.29H378.62V220.578H376.856V229.832C376.856 230.84 376.366 231.344 375.414 231.344H373.062L372.754 230.056C373.524 230.098 374.252 230.126 374.952 230.126C375.33 230.126 375.526 229.916 375.526 229.496V220.578H366.048V219.29ZM373.272 222.398V227.788H368.862V228.936H367.588V222.398H373.272ZM368.862 226.584H372.012V223.588H368.862V226.584ZM387.412 227.06H384.318V225.814H391.808V227.06H388.756V229.762H392.326V231.05H383.758V229.762H387.412V227.06ZM381.196 231.316H379.964L379.67 230.028C380.034 230.07 380.398 230.098 380.734 230.098C381.056 230.098 381.224 229.93 381.224 229.608V226.598C380.72 226.78 380.202 226.962 379.684 227.13L379.348 225.786C379.978 225.646 380.608 225.464 381.224 225.24V222.37H379.628V221.096H381.224V218.534H382.568V221.096H383.618V222.37H382.568V224.708C382.932 224.526 383.31 224.344 383.674 224.148V225.506C383.31 225.688 382.932 225.87 382.568 226.038V229.944C382.568 230.854 382.106 231.316 381.196 231.316ZM388.14 218.366C388.35 218.842 388.56 219.374 388.77 219.962H392.018V222.79H390.786V221.152H385.368V222.79H384.122V219.962H387.44C387.244 219.458 387.034 219.01 386.782 218.59L388.14 218.366ZM386.488 221.838L387.65 222.3C387.034 223.672 386.236 224.722 385.228 225.45L384.262 224.624C385.256 223.924 385.998 222.986 386.488 221.838ZM389.498 221.81C390.352 222.706 391.094 223.686 391.738 224.75L390.562 225.352C389.918 224.204 389.19 223.196 388.392 222.3L389.498 221.81ZM393.39 219.612H398.752C398.584 219.248 398.388 218.912 398.178 218.604L399.522 218.38C399.718 218.744 399.9 219.15 400.082 219.612H405.57V220.858H399.746C399.41 221.502 399.046 222.062 398.626 222.51C399.074 222.482 399.536 222.44 399.998 222.398C400.278 222.034 400.586 221.642 400.908 221.222L402.112 221.684C400.852 223.224 399.746 224.4 398.808 225.226C399.494 225.142 400.18 225.044 400.852 224.946C400.712 224.638 400.572 224.344 400.432 224.078L401.552 223.714C402 224.498 402.392 225.338 402.728 226.234L401.538 226.78C401.44 226.472 401.342 226.192 401.244 225.94C400.88 225.996 400.516 226.038 400.152 226.094V227.466H405.794V228.726H400.152V231.498H398.808V228.726H393.194V227.466H398.808V226.262C398.192 226.332 397.59 226.388 396.974 226.43L396.708 225.268C396.848 225.24 397.002 225.212 397.156 225.17C397.66 224.918 398.29 224.358 399.06 223.49C398.402 223.546 397.716 223.602 397.002 223.658L396.75 222.608C397.394 222.3 397.94 221.712 398.374 220.858H393.39V219.612ZM395.658 223.882L396.652 224.624C395.924 225.506 395.168 226.234 394.384 226.808L393.488 225.814C394.286 225.254 395.014 224.61 395.658 223.882ZM394.524 221.124C395.308 221.67 395.98 222.216 396.526 222.776L395.602 223.7C395.126 223.168 394.454 222.594 393.614 221.992L394.524 221.124ZM403.316 223.868C404.17 224.54 404.898 225.198 405.486 225.87L404.506 226.836C404.03 226.164 403.344 225.45 402.462 224.68L403.316 223.868ZM404.156 221.082L405.192 221.838C404.562 222.58 403.904 223.196 403.218 223.686L402.378 222.734C403.022 222.258 403.624 221.712 404.156 221.082ZM406.844 222.594H412.388V221.754H413.62L412.878 221.264C413.494 220.368 413.928 219.416 414.18 218.394L415.468 218.674C415.384 218.982 415.286 219.29 415.188 219.57H419.206V220.746H416.826C417.106 221.18 417.33 221.586 417.512 221.95L416.35 222.398C416.098 221.838 415.804 221.278 415.468 220.746H414.712C414.488 221.194 414.25 221.6 413.998 221.992L413.732 221.824V222.594H419.276V223.798H413.732V224.61H418.324V227.326C418.324 228.11 417.904 228.502 417.064 228.502H416.112L415.776 227.326L416.686 227.396C416.896 227.396 417.008 227.27 417.008 227.046V225.772H413.732V226.906C415.216 228.222 417.162 229.244 419.598 230L418.898 231.218C416.91 230.462 415.188 229.454 413.732 228.166V231.484H412.388V228.208C410.988 229.524 409.392 230.546 407.628 231.288L406.83 230.098C408.986 229.342 410.848 228.264 412.388 226.878V225.772H409.336V228.446H408.034V224.61H412.388V223.798H406.844V222.594ZM408.818 220.746C408.51 221.236 408.188 221.698 407.824 222.118L406.676 221.404C407.544 220.466 408.16 219.458 408.524 218.38L409.798 218.66C409.686 218.982 409.56 219.29 409.434 219.57H412.78V220.746H410.722C411.002 221.18 411.254 221.586 411.45 221.964L410.246 222.398C409.994 221.838 409.686 221.278 409.35 220.746H408.818ZM432.1 226.038V231.344H430.798V230.812H427.774V231.344H426.472V226.052C426.304 226.108 426.136 226.178 425.996 226.248L425.492 225.59V230.224H424.358V229.678H421.796V230.224H420.606V219.43H425.492V221.922C426.332 221.082 427.06 219.962 427.676 218.562L428.992 218.828C428.852 219.15 428.712 219.458 428.572 219.752H432.24V220.774C431.792 221.838 431.148 222.776 430.308 223.602C431.134 224.162 432.1 224.652 433.206 225.058L432.632 226.248C431.372 225.688 430.294 225.072 429.398 224.386C428.558 225.016 427.592 225.562 426.5 226.038H432.1ZM425.492 222.286V225.086C426.612 224.638 427.578 224.12 428.39 223.532C427.9 223.056 427.48 222.552 427.144 222.048C426.836 222.44 426.528 222.79 426.192 223.112L425.492 222.286ZM427.774 229.566H430.798V227.27H427.774V229.566ZM424.358 228.516V225.086H423.602V228.516H424.358ZM424.358 223.924V220.634H423.602V223.924H424.358ZM422.538 220.634H421.796V223.924H422.538V220.634ZM421.796 225.086V228.516H422.538V225.086H421.796ZM429.258 222.804C429.86 222.244 430.336 221.642 430.7 220.998H427.872C427.844 221.026 427.83 221.068 427.816 221.096C428.194 221.712 428.67 222.286 429.258 222.804Z" fill="white"/>
<path d="M300.5 252.566C301.158 252.566 301.732 252.79 302.208 253.266C302.67 253.728 302.908 254.288 302.908 254.96C302.908 255.618 302.67 256.192 302.208 256.668C301.732 257.13 301.158 257.368 300.5 257.368C299.828 257.368 299.268 257.13 298.806 256.668C298.33 256.192 298.106 255.618 298.106 254.96C298.106 254.288 298.33 253.728 298.806 253.266C299.268 252.79 299.828 252.566 300.5 252.566ZM322.816 250.088V261.428H321.472V260.644H314.528V261.428H313.184V250.088H316.208C316.488 249.57 316.712 249.038 316.852 248.478L318.21 248.674C318.07 249.178 317.86 249.64 317.608 250.088H322.816ZM314.528 259.384H321.472V257.424H314.528V259.384ZM314.528 256.192H321.472V254.358H314.528V256.192ZM314.528 253.126H321.472V251.362H314.528V253.126ZM330.908 252.09H325.826V250.788H330.908C330.684 250.102 330.418 249.444 330.11 248.814L331.398 248.464C331.748 249.304 332.014 250.074 332.21 250.774L332.168 250.788H337.348V252.09H332.252V255.002H336.676V256.248H332.252V259.664H337.838V260.966H325.336V259.664H330.908V256.248H326.498V255.002H330.908V252.09ZM351.082 249.892V260.812H349.794V260.014H347.344V260.826H346.056V249.892H351.082ZM347.344 258.768H349.794V251.138H347.344V258.768ZM341.03 251.558C340.708 252.258 340.344 252.902 339.952 253.49L338.79 252.748C339.686 251.432 340.33 250.018 340.708 248.506L342.024 248.786C341.884 249.318 341.716 249.808 341.548 250.284H345.37V251.558H343.466C343.438 252.426 343.396 253.238 343.312 253.98H345.496V255.254H343.13C343.074 255.562 343.004 255.87 342.948 256.15C343.802 257.018 344.67 257.984 345.566 259.048L344.754 260.28C343.886 259.048 343.158 258.082 342.57 257.382C341.982 258.852 340.988 260.098 339.56 261.106L338.692 260.042C340.148 258.964 341.1 257.648 341.562 256.08C341.618 255.814 341.688 255.534 341.744 255.254H338.986V253.98H341.94C342.024 253.238 342.066 252.426 342.094 251.558H341.03ZM357.704 249.248H364.438V256.094H357.704V249.248ZM363.094 254.806V250.522H359.034V254.806H363.094ZM354.176 248.632C355.072 249.318 355.828 250.004 356.458 250.69L355.548 251.614C355.002 250.97 354.232 250.27 353.238 249.542L354.176 248.632ZM352.3 252.692H355.506V258.586C355.884 258.236 356.29 257.844 356.724 257.41L357.088 258.81C356.248 259.636 355.338 260.378 354.386 261.022L353.882 259.818C354.106 259.622 354.232 259.398 354.232 259.118V253.966H352.3V252.692ZM359.174 256.738L360.35 257.312C359.678 258.936 358.866 260.336 357.942 261.526L356.766 260.672C357.704 259.58 358.502 258.278 359.174 256.738ZM362.856 256.682C363.948 258.194 364.774 259.524 365.348 260.658L364.2 261.456C363.612 260.224 362.8 258.866 361.778 257.368L362.856 256.682ZM372.502 248.352C372.698 248.8 372.88 249.304 373.076 249.864H377.934V251.124H375.582C375.442 251.754 375.246 252.37 374.994 252.958H378.228V254.246H368.288V256.136C368.232 258.32 367.742 260.084 366.79 261.414L365.768 260.518C366.524 259.454 366.916 257.998 366.944 256.136V252.958H369.772L369.282 251.124H366.79V249.864H371.718C371.536 249.402 371.326 248.968 371.102 248.576L372.502 248.352ZM371.088 252.958H373.72C373.972 252.37 374.168 251.754 374.308 251.124H370.584L371.088 252.958ZM383.072 254.484V261.386H381.756V254.638C381.28 255.968 380.692 257.186 379.964 258.278L379.376 256.766C380.44 255.492 381.21 254.05 381.7 252.426H379.67V251.152H381.756V248.534H383.072V251.152H384.808V252.426H383.072V253.07C383.758 253.7 384.444 254.414 385.13 255.198L384.36 256.36C383.87 255.604 383.436 254.974 383.072 254.484ZM390.198 250.536H386.852C387.02 252.468 387.538 254.232 388.42 255.814C389.302 254.274 389.89 252.51 390.198 250.536ZM387.65 257.018C386.488 255.072 385.802 252.916 385.578 250.536H385.06V249.262H391.472V250.522C391.08 253.056 390.338 255.24 389.218 257.088C390.086 258.292 391.164 259.384 392.48 260.364L391.57 261.442C390.338 260.448 389.288 259.37 388.448 258.222C387.496 259.468 386.334 260.532 384.99 261.414L384.136 260.336C385.55 259.398 386.726 258.292 387.65 257.018ZM393.264 252.594H398.808V251.754H400.04L399.298 251.264C399.914 250.368 400.348 249.416 400.6 248.394L401.888 248.674C401.804 248.982 401.706 249.29 401.608 249.57H405.626V250.746H403.246C403.526 251.18 403.75 251.586 403.932 251.95L402.77 252.398C402.518 251.838 402.224 251.278 401.888 250.746H401.132C400.908 251.194 400.67 251.6 400.418 251.992L400.152 251.824V252.594H405.696V253.798H400.152V254.61H404.744V257.326C404.744 258.11 404.324 258.502 403.484 258.502H402.532L402.196 257.326L403.106 257.396C403.316 257.396 403.428 257.27 403.428 257.046V255.772H400.152V256.906C401.636 258.222 403.582 259.244 406.018 260L405.318 261.218C403.33 260.462 401.608 259.454 400.152 258.166V261.484H398.808V258.208C397.408 259.524 395.812 260.546 394.048 261.288L393.25 260.098C395.406 259.342 397.268 258.264 398.808 256.878V255.772H395.756V258.446H394.454V254.61H398.808V253.798H393.264V252.594ZM395.238 250.746C394.93 251.236 394.608 251.698 394.244 252.118L393.096 251.404C393.964 250.466 394.58 249.458 394.944 248.38L396.218 248.66C396.106 248.982 395.98 249.29 395.854 249.57H399.2V250.746H397.142C397.422 251.18 397.674 251.586 397.87 251.964L396.666 252.398C396.414 251.838 396.106 251.278 395.77 250.746H395.238ZM418.52 256.038V261.344H417.218V260.812H414.194V261.344H412.892V256.052C412.724 256.108 412.556 256.178 412.416 256.248L411.912 255.59V260.224H410.778V259.678H408.216V260.224H407.026V249.43H411.912V251.922C412.752 251.082 413.48 249.962 414.096 248.562L415.412 248.828C415.272 249.15 415.132 249.458 414.992 249.752H418.66V250.774C418.212 251.838 417.568 252.776 416.728 253.602C417.554 254.162 418.52 254.652 419.626 255.058L419.052 256.248C417.792 255.688 416.714 255.072 415.818 254.386C414.978 255.016 414.012 255.562 412.92 256.038H418.52ZM411.912 252.286V255.086C413.032 254.638 413.998 254.12 414.81 253.532C414.32 253.056 413.9 252.552 413.564 252.048C413.256 252.44 412.948 252.79 412.612 253.112L411.912 252.286ZM414.194 259.566H417.218V257.27H414.194V259.566ZM410.778 258.516V255.086H410.022V258.516H410.778ZM410.778 253.924V250.634H410.022V253.924H410.778ZM408.958 250.634H408.216V253.924H408.958V250.634ZM408.216 255.086V258.516H408.958V255.086H408.216ZM415.678 252.804C416.28 252.244 416.756 251.642 417.12 250.998H414.292C414.264 251.026 414.25 251.068 414.236 251.096C414.614 251.712 415.09 252.286 415.678 252.804Z" fill="white"/>
<path d="M288 168.5H460C468.56 168.5 475.5 175.44 475.5 184V276C475.5 279.038 473.038 281.5 470 281.5H282.5V174C282.5 170.962 284.962 168.5 288 168.5Z" stroke="white"/>
<path d="M282 282H369V308C369 311.314 366.314 314 363 314H288C284.686 314 282 311.314 282 308V282Z" fill="white"/>
<path d="M304.468 291.464H305.532C307.282 293.424 309.298 294.978 311.594 296.098L310.796 297.512C310.054 297.12 309.354 296.686 308.71 296.224V297.19H301.29V296.21C300.618 296.672 299.904 297.12 299.148 297.54L298.364 296.112C300.814 294.866 302.844 293.312 304.468 291.464ZM301.892 295.776H308.094C306.946 294.894 305.91 293.9 305 292.794C304.118 293.886 303.082 294.88 301.892 295.776ZM309.62 298.562V304.442H308.206V303.728H301.794V304.442H300.38V298.562H309.62ZM301.794 302.342H308.206V299.934H301.794V302.342ZM312.504 293.326H314.38V291.576H315.836V293.326H317.516V294.726H315.836V296.602H317.712V298.002H315.766L315.682 298.8C316.438 299.472 317.194 300.228 317.95 301.068L317.138 302.314C316.466 301.404 315.906 300.69 315.458 300.172C315.038 302.02 314.31 303.462 313.274 304.512L312.182 303.546C313.4 302.314 314.114 300.466 314.31 298.002H312.322V296.602H314.38V294.726H312.504V293.326ZM324.166 291.968V299.864H322.752V293.312H319.462V299.864H318.048V291.968H324.166ZM323.606 304.246H322.346C321.52 304.246 321.114 303.798 321.114 302.93V300.69C320.96 301.096 320.792 301.474 320.596 301.81C319.896 302.972 318.748 303.868 317.18 304.498L316.424 303.28C317.964 302.636 319.014 301.824 319.546 300.858C320.078 299.822 320.386 298.464 320.442 296.812V294.194H321.772V296.812C321.744 297.96 321.604 298.968 321.38 299.85H322.444V302.636C322.444 302.846 322.542 302.958 322.766 302.958H323.368C323.508 302.958 323.606 302.888 323.676 302.748C323.76 302.58 323.816 302.118 323.844 301.334L325.104 301.74C325.006 302.958 324.838 303.686 324.614 303.924C324.39 304.134 324.054 304.246 323.606 304.246ZM325.902 295.538H331.418V294.754H332.748L331.95 294.236C332.552 293.34 332.972 292.402 333.224 291.394L334.624 291.702C334.54 291.982 334.456 292.262 334.372 292.514H338.32V293.802H336.024C336.276 294.194 336.486 294.572 336.654 294.922L335.38 295.412C335.128 294.852 334.848 294.32 334.54 293.802H333.868C333.658 294.25 333.434 294.656 333.182 295.034L332.902 294.852V295.538H338.418V296.854H332.902V297.554H337.494V300.298C337.494 301.11 337.046 301.516 336.164 301.516H335.31C336.318 302.062 337.466 302.524 338.74 302.916L337.97 304.246C336.01 303.518 334.33 302.524 332.902 301.292V304.512H331.418V301.348C330.046 302.608 328.492 303.602 326.77 304.316L325.902 303.014C328.044 302.272 329.878 301.236 331.418 299.892V298.828H328.506V301.46H327.064V297.554H331.418V296.854H325.902V295.538ZM332.902 299.92C333.574 300.48 334.33 300.998 335.198 301.46L334.848 300.228L335.758 300.298C335.94 300.298 336.038 300.186 336.038 299.99V298.828H332.902V299.92ZM327.974 293.802C327.68 294.278 327.358 294.726 327.008 295.146L325.748 294.348C326.588 293.424 327.19 292.43 327.54 291.38L328.94 291.688C328.842 291.968 328.73 292.248 328.618 292.514H331.866V293.802H329.934C330.186 294.194 330.41 294.572 330.592 294.936L329.276 295.426C329.024 294.866 328.744 294.32 328.436 293.802H327.974ZM351.06 298.996C350.08 298.52 349.226 298.016 348.498 297.456C347.714 298.03 346.818 298.548 345.81 298.996H351.06ZM345.544 299.108C345.404 299.164 345.264 299.22 345.138 299.276L344.634 298.604V303.238H343.402V302.72H340.966V303.238H339.65V292.374H344.634V294.796C345.432 293.984 346.132 292.906 346.72 291.548L348.176 291.856C348.036 292.15 347.91 292.43 347.784 292.71H351.382V293.83C350.962 294.866 350.332 295.79 349.492 296.602C350.318 297.134 351.27 297.596 352.334 297.988L351.704 299.29C351.536 299.22 351.368 299.15 351.228 299.066V304.358H349.8V303.84H346.972V304.358H345.544V299.108ZM344.634 295.314V297.974C345.698 297.554 346.636 297.064 347.42 296.518C346.972 296.07 346.58 295.622 346.258 295.16C345.964 295.524 345.656 295.846 345.348 296.154L344.634 295.314ZM348.358 295.748C348.904 295.23 349.352 294.67 349.702 294.082H347.014C347 294.11 346.986 294.124 346.986 294.138C347.35 294.726 347.812 295.258 348.358 295.748ZM346.972 302.482H349.8V300.354H346.972V302.482ZM343.402 301.46V298.128H342.744V301.46H343.402ZM343.402 296.868V293.704H342.744V296.868H343.402ZM341.596 293.704H340.966V296.868H341.596V293.704ZM340.966 298.128V301.46H341.596V298.128H340.966Z" fill="#6C87FF"/>
</g>
<g filter="url(#filter2_d_2421_36370)">
<path d="M516 174C516 170.686 518.686 168 522 168H607C610.314 168 613 170.686 613 174V200H516V174Z" fill="white"/>
<path d="M537.474 182.91V184.366C536.998 184.59 536.508 184.814 536.032 185.024V188.972C536.032 189.924 535.556 190.414 534.632 190.414H533.302L532.966 189.014C533.372 189.07 533.75 189.112 534.114 189.112C534.422 189.112 534.59 188.944 534.59 188.608V185.598C534.002 185.822 533.4 186.018 532.812 186.2L532.448 184.758C533.176 184.604 533.89 184.408 534.59 184.17V181.314H532.728V179.928H534.59V177.548H536.032V179.928H537.446V181.314H536.032V183.61C536.508 183.386 536.998 183.162 537.474 182.91ZM539.364 184.282V190.47H537.978V177.954H544.558C544.558 179.634 544.46 180.768 544.278 181.328C544.082 181.86 543.508 182.126 542.556 182.126H541.492L541.1 180.88C541.31 180.88 541.576 180.894 541.898 180.894C542.22 180.894 542.458 180.88 542.626 180.852C542.766 180.81 542.892 180.726 542.976 180.586C543.06 180.404 543.13 179.97 543.158 179.27H539.364V182.952H544.642V184.212C544.432 185.626 543.998 186.844 543.34 187.852C543.97 188.398 544.712 188.902 545.566 189.364L544.586 190.498C543.788 189.994 543.102 189.462 542.514 188.902C541.87 189.56 541.114 190.092 540.246 190.512L539.546 189.224C540.33 188.846 540.988 188.37 541.52 187.81C540.652 186.718 540.106 185.542 539.896 184.282H539.364ZM541.184 184.282C541.366 185.178 541.744 186.004 542.318 186.76C542.752 186.032 543.074 185.206 543.27 184.282H541.184ZM557.368 185.08V190.456H555.884V189.798H549.36V190.456H547.876V185.08H557.368ZM549.36 188.426H555.884V186.452H549.36V188.426ZM548.982 180.712C548.506 181.342 547.946 181.916 547.33 182.434L546.462 181.286C547.694 180.292 548.52 179.074 548.954 177.646L550.41 177.814C550.256 178.346 550.06 178.836 549.836 179.312H552.02V177.492H553.49V179.312H557.9V180.712H553.49V182.518H558.978V183.946H546.182V182.518H552.02V180.712H548.982ZM563.528 180.054C563.164 180.054 562.912 180.138 562.744 180.306C562.576 180.46 562.492 180.698 562.492 181.006C562.492 181.23 562.618 181.524 562.884 181.902C563.01 182.084 563.178 182.28 563.374 182.504C564.158 182.042 564.564 181.566 564.564 181.062C564.564 180.754 564.466 180.516 564.284 180.334C564.102 180.138 563.85 180.054 563.528 180.054ZM562.058 183.246C561.652 182.798 561.372 182.448 561.218 182.182C560.98 181.804 560.868 181.426 560.868 181.048C560.868 180.348 561.134 179.788 561.68 179.382C562.17 178.99 562.8 178.808 563.57 178.808C564.284 178.808 564.886 178.976 565.376 179.326C565.922 179.718 566.202 180.264 566.202 180.964C566.202 181.776 565.782 182.462 564.942 183.036C564.704 183.162 564.466 183.302 564.242 183.442L566.174 185.5C566.426 184.842 566.58 184.058 566.636 183.148H568.26C568.218 184.576 567.924 185.78 567.378 186.774L569.464 189H567.406L566.468 187.992C565.642 188.79 564.606 189.196 563.346 189.196C562.282 189.196 561.428 188.958 560.798 188.51C560.07 187.978 559.72 187.208 559.72 186.2C559.72 185.276 560.14 184.506 560.98 183.876C560.994 183.848 561.358 183.638 562.058 183.246ZM563.276 187.754C564.144 187.754 564.844 187.446 565.404 186.844L562.912 184.184L562.618 184.352C562.226 184.604 561.918 184.87 561.722 185.164C561.47 185.486 561.358 185.836 561.358 186.228C561.358 186.704 561.54 187.082 561.932 187.362C562.282 187.614 562.73 187.754 563.276 187.754ZM570.402 179.69H572.572V179.158H569.954V178.066H572.572V177.506H573.86V178.066H576.324V179.158H573.86V179.69H576.03V180.782C576.828 179.886 577.374 178.78 577.668 177.492L578.97 177.66C578.9 177.968 578.816 178.248 578.732 178.528H582.33V179.76H581.616C581.42 180.894 581.028 181.832 580.454 182.574C581.084 182.952 581.798 183.26 582.582 183.484L581.812 184.632C580.916 184.352 580.132 183.974 579.46 183.498C578.802 183.932 577.934 184.296 576.87 184.604L576.38 183.414C577.192 183.204 577.878 182.952 578.424 182.644C578.004 182.224 577.64 181.776 577.332 181.286C577.164 181.51 576.982 181.72 576.814 181.916L576.03 180.894V182.35H573.86V182.392C574.644 182.686 575.442 183.022 576.24 183.4L575.498 184.492C574.854 184.002 574.308 183.61 573.86 183.33V184.59H572.572V183.302C571.844 183.89 571.102 184.366 570.346 184.744L569.716 183.596C570.612 183.316 571.522 182.91 572.432 182.35H570.402V179.69ZM578.088 180.096C578.438 180.768 578.886 181.342 579.432 181.832C579.88 181.3 580.188 180.6 580.356 179.76H578.256L578.088 180.096ZM574.882 181.412V180.67H573.86V181.412H574.882ZM572.572 181.412V180.67H571.55V181.412H572.572ZM575.428 186.158H570.682V184.898H581.854V186.158H576.884V186.928H581V188.16H576.884V188.93H582.526V190.218H569.982V188.93H572.068V186.592H573.412V188.93H575.428V186.158ZM591.332 180.838C591.262 181.048 591.192 181.258 591.108 181.468C591.528 182.882 592.032 184.142 592.634 185.234C593.25 183.974 593.572 182.504 593.628 180.838H591.332ZM595.056 180.838C594.958 183.106 594.44 185.024 593.502 186.592C594.342 187.74 595.322 188.622 596.442 189.266L595.602 190.512C594.468 189.84 593.488 188.944 592.648 187.81C591.724 188.902 590.548 189.798 589.134 190.484L588.238 189.28C589.764 188.608 590.968 187.698 591.836 186.55C591.248 185.542 590.758 184.394 590.338 183.134C590.1 183.54 589.848 183.918 589.596 184.254L588.7 183.12C589.652 181.734 590.296 179.858 590.632 177.506L592.06 177.758C591.962 178.346 591.85 178.92 591.724 179.452H595.98V180.838H595.056ZM585.592 187.866C586.684 187.502 587.79 187.04 588.91 186.508L589.12 187.838C587.608 188.552 585.942 189.21 584.094 189.812L583.66 188.552C583.996 188.412 584.178 188.104 584.178 187.628V182.63H587.216V179.732H583.576V178.346H588.644V183.974H585.592V187.866Z" fill="#6C87FF"/>
<path d="M516.5 200.5H694C702.56 200.5 709.5 207.44 709.5 216V308C709.5 311.038 707.038 313.5 704 313.5H522C518.962 313.5 516.5 311.038 516.5 308V200.5Z" fill="white" fill-opacity="0.1"/>
<path d="M534.5 224.566C535.158 224.566 535.732 224.79 536.208 225.266C536.67 225.728 536.908 226.288 536.908 226.96C536.908 227.618 536.67 228.192 536.208 228.668C535.732 229.13 535.158 229.368 534.5 229.368C533.828 229.368 533.268 229.13 532.806 228.668C532.33 228.192 532.106 227.618 532.106 226.96C532.106 226.288 532.33 225.728 532.806 225.266C533.268 224.79 533.828 224.566 534.5 224.566ZM551.51 220.492H552.49C554.254 222.48 556.27 224.048 558.566 225.196L557.852 226.47C557.082 226.05 556.354 225.602 555.682 225.126V226.12H548.318V225.098C547.618 225.602 546.876 226.064 546.092 226.498L545.392 225.21C547.842 223.95 549.886 222.368 551.51 220.492ZM548.668 224.846H555.304C554.072 223.922 552.966 222.872 552 221.696C551.062 222.844 549.956 223.894 548.668 224.846ZM556.564 227.618V233.428H555.276V232.672H548.724V233.428H547.436V227.618H556.564ZM548.724 231.412H555.276V228.864H548.724V231.412ZM559.532 222.41H561.436V220.604H562.766V222.41H564.488V223.684H562.766V225.686H564.684V226.96H562.71C562.682 227.268 562.64 227.562 562.612 227.842C563.368 228.542 564.138 229.312 564.922 230.18L564.166 231.314C563.466 230.348 562.878 229.606 562.402 229.074C561.982 230.95 561.24 232.42 560.176 233.484L559.182 232.616C560.442 231.356 561.17 229.48 561.38 226.96H559.336V225.686H561.436V223.684H559.532V222.41ZM571.096 221.024V228.85H569.822V222.242H566.392V228.85H565.118V221.024H571.096ZM570.592 233.232H569.36C568.562 233.232 568.17 232.798 568.17 231.958V229.396C568.002 229.914 567.792 230.376 567.554 230.782C566.854 231.944 565.706 232.84 564.138 233.484L563.452 232.378C564.992 231.734 566.042 230.908 566.602 229.914C567.148 228.85 567.442 227.478 567.498 225.784V223.208H568.716V225.784C568.688 226.932 568.548 227.968 568.324 228.864H569.388V231.692C569.388 231.93 569.5 232.056 569.738 232.056H570.382C570.55 232.056 570.662 231.986 570.746 231.846C570.83 231.678 570.9 231.202 570.942 230.39L572.076 230.754C571.992 231.958 571.824 232.672 571.6 232.91C571.376 233.12 571.04 233.232 570.592 233.232ZM572.958 223.152H574.596V220.534H575.898V223.152H577.228V224.426H575.898V225.028C576.458 225.588 577.018 226.218 577.578 226.918L576.822 228.052C576.472 227.38 576.164 226.82 575.898 226.372V233.372H574.596V227.128C574.204 228.276 573.728 229.34 573.168 230.32L572.594 228.85C573.49 227.562 574.148 226.078 574.568 224.426H572.958V223.152ZM579.202 224.916C578.726 225.392 578.222 225.826 577.704 226.19L576.99 225.07C578.6 223.922 579.846 222.41 580.714 220.548H581.946C582.674 222.256 583.948 223.768 585.74 225.056L585.012 226.176C584.466 225.784 583.976 225.378 583.542 224.958V225.7H579.202V224.916ZM583.066 224.468C582.352 223.684 581.778 222.816 581.33 221.864C580.826 222.858 580.252 223.726 579.608 224.468H583.066ZM577.312 231.762H582.114C582.646 230.306 583.108 228.514 583.514 226.4L584.774 226.722C584.41 228.598 583.948 230.278 583.416 231.762H585.418V233.05H577.312V231.762ZM579.104 226.778C579.468 227.954 579.804 229.312 580.084 230.852L578.922 231.16C578.656 229.774 578.334 228.444 577.956 227.17L579.104 226.778ZM581.204 226.288C581.554 227.422 581.862 228.724 582.142 230.194L580.938 230.516C580.714 229.172 580.42 227.884 580.07 226.652L581.204 226.288ZM587.378 220.744C588.148 221.374 588.792 222.004 589.324 222.634L588.442 223.516C587.98 222.928 587.322 222.284 586.468 221.612L587.378 220.744ZM587.154 224.174C587.896 224.86 588.526 225.532 589.044 226.204L588.176 227.086C587.714 226.442 587.07 225.77 586.244 225.042L587.154 224.174ZM588.106 228.01L589.226 228.444C588.722 230.152 588.148 231.762 587.518 233.274L586.314 232.756C587 231.216 587.602 229.634 588.106 228.01ZM594.616 221.178V229.83H593.44V222.312H590.822V229.914H589.646V221.178H594.616ZM593.118 230.404C593.93 231.132 594.602 231.846 595.162 232.574L594.28 233.442C593.818 232.742 593.16 231.986 592.32 231.174L593.118 230.404ZM591.592 223.124H592.684V227.52C592.642 229.13 592.39 230.418 591.914 231.384C591.452 232.28 590.696 232.966 589.66 233.47L588.974 232.364C589.968 231.888 590.64 231.286 591.004 230.558C591.354 229.774 591.55 228.766 591.592 227.52V223.124ZM597.486 233.33H595.946L595.666 232.098C596.142 232.154 596.604 232.182 597.052 232.182C597.332 232.182 597.486 232 597.486 231.664V220.604H598.732V231.972C598.732 232.868 598.312 233.33 597.486 233.33ZM595.442 221.752H596.604V230.404H595.442V221.752ZM604.78 225.994V227.31C604.276 227.562 603.786 227.786 603.282 227.996V232C603.282 232.924 602.834 233.4 601.938 233.4H600.622L600.314 232.126C600.72 232.182 601.098 232.21 601.462 232.21C601.798 232.21 601.98 232.028 601.98 231.678V228.514C601.364 228.738 600.748 228.948 600.132 229.144L599.796 227.828C600.538 227.66 601.266 227.464 601.98 227.212V224.258H600.062V222.984H601.98V220.562H603.282V222.984H604.738V224.258H603.282V226.708C603.786 226.484 604.29 226.246 604.78 225.994ZM606.614 227.226V233.442H605.354V221.01H611.808C611.808 222.662 611.71 223.754 611.542 224.3C611.36 224.832 610.8 225.098 609.862 225.098H608.812L608.448 223.95C608.658 223.95 608.924 223.964 609.26 223.964C609.582 223.964 609.834 223.95 610.002 223.922C610.142 223.88 610.268 223.782 610.352 223.642C610.45 223.432 610.506 222.956 610.534 222.214H606.614V226.008H611.906V227.156C611.682 228.598 611.234 229.83 610.562 230.838C611.206 231.426 611.962 231.958 612.858 232.434L611.962 233.47C611.122 232.938 610.408 232.392 609.806 231.804C609.162 232.49 608.378 233.05 607.482 233.484L606.838 232.322C607.65 231.93 608.336 231.426 608.896 230.81C608 229.704 607.454 228.514 607.23 227.226H606.614ZM608.42 227.226C608.602 228.178 609.008 229.046 609.638 229.844C610.1 229.088 610.436 228.206 610.66 227.226H608.42ZM624.632 228.122V233.428H623.288V232.756H616.596V233.428H615.252V228.122H624.632ZM616.596 231.51H623.288V229.382H616.596V231.51ZM616.274 223.656C615.798 224.3 615.252 224.874 614.622 225.392L613.824 224.342C615.056 223.348 615.896 222.13 616.344 220.674L617.66 220.842C617.492 221.388 617.296 221.906 617.058 222.382H619.41V220.506H620.74V222.382H625.206V223.656H620.74V225.588H626.27V226.89H613.53V225.588H619.41V223.656H616.274Z" fill="white"/>
<path d="M534.5 254.566C535.158 254.566 535.732 254.79 536.208 255.266C536.67 255.728 536.908 256.288 536.908 256.96C536.908 257.618 536.67 258.192 536.208 258.668C535.732 259.13 535.158 259.368 534.5 259.368C533.828 259.368 533.268 259.13 532.806 258.668C532.33 258.192 532.106 257.618 532.106 256.96C532.106 256.288 532.33 255.728 532.806 255.266C533.268 254.79 533.828 254.566 534.5 254.566ZM549.886 253.67C550.628 254.594 551.314 255.476 551.944 256.316C552.448 255.364 552.84 254.342 553.148 253.25L554.464 253.474C554.044 254.986 553.498 256.33 552.826 257.52C553.638 258.696 554.338 259.774 554.912 260.754L553.708 261.58C553.204 260.684 552.644 259.76 552 258.808C551.16 259.97 550.18 260.978 549.06 261.818L548.164 260.684C549.354 259.788 550.362 258.752 551.174 257.576C550.446 256.54 549.662 255.462 548.794 254.342L549.886 253.67ZM547.086 250.996H556.396V256.722C556.396 258.864 556.452 260.236 556.592 260.838C556.704 261.426 556.844 261.734 557.012 261.734C557.138 261.734 557.25 261.174 557.334 260.068L558.524 260.642C558.342 261.706 558.146 262.434 557.936 262.798C557.698 263.134 557.432 263.316 557.152 263.316C556.424 263.316 555.892 262.868 555.556 261.986C555.206 261.118 555.038 259.368 555.038 256.722V252.284H548.416V256.54C548.388 259.284 547.814 261.594 546.708 263.456L545.588 262.546C546.54 260.95 547.044 258.948 547.086 256.54V250.996ZM559.616 251.024H564.04V252.032C563.634 253.236 563.158 254.51 562.598 255.854C563.438 257.142 563.9 258.262 563.984 259.228C563.984 259.872 563.844 260.334 563.564 260.614C563.158 260.964 562.458 261.146 561.478 261.16L561.072 259.83C561.352 259.872 561.576 259.9 561.758 259.9C562.122 259.872 562.374 259.816 562.5 259.718C562.612 259.62 562.682 259.452 562.682 259.228C562.682 258.276 562.22 257.226 561.296 256.05C561.912 254.636 562.388 253.362 562.738 252.228H560.904V263.456H559.616V251.024ZM565.524 254.916C565.048 255.392 564.544 255.826 564.012 256.19L563.34 255.14C564.992 253.964 566.252 252.424 567.134 250.534H568.31C569.066 252.27 570.354 253.796 572.202 255.098L571.488 256.19C570.928 255.798 570.424 255.392 569.976 254.944V255.686H565.524V254.916ZM569.528 254.482C568.786 253.684 568.184 252.802 567.722 251.836C567.19 252.844 566.602 253.726 565.93 254.482H569.528ZM563.508 261.762H568.436C569.024 260.278 569.528 258.486 569.962 256.358L571.264 256.708C570.844 258.598 570.34 260.278 569.738 261.762H571.894V263.036H563.508V261.762ZM565.3 256.792C565.762 257.968 566.168 259.326 566.532 260.866L565.384 261.146C565.062 259.774 564.656 258.444 564.166 257.184L565.3 256.792ZM567.526 256.288C567.918 257.422 568.268 258.724 568.576 260.208L567.442 260.502C567.162 259.158 566.812 257.884 566.392 256.652L567.526 256.288ZM573.336 252.718H575.534V252.116H572.874V251.108H575.534V250.52H576.71V251.108H579.216V252.116H576.71V252.718H578.908V255.322H576.71V255.42C577.494 255.714 578.306 256.064 579.118 256.456L578.446 257.464C577.774 256.96 577.186 256.554 576.71 256.26V257.576H575.534V256.218C574.778 256.834 573.994 257.324 573.21 257.716L572.65 256.666C573.574 256.386 574.498 255.938 575.422 255.322H573.336V252.718ZM577.858 254.44V253.614H576.71V254.44H577.858ZM575.534 254.44V253.614H574.386V254.44H575.534ZM581.12 252.704C581.05 252.844 580.98 252.97 580.924 253.11C581.288 253.824 581.75 254.426 582.324 254.93C582.814 254.37 583.15 253.628 583.318 252.704H581.12ZM581.414 255.672C580.938 255.21 580.546 254.72 580.238 254.202C580.056 254.426 579.874 254.65 579.692 254.86L578.922 253.88C579.762 252.956 580.322 251.836 580.63 250.492L581.82 250.646C581.736 250.968 581.652 251.276 581.568 251.584H585.222V252.704H584.48C584.27 253.908 583.864 254.874 583.276 255.63C583.92 256.022 584.648 256.33 585.46 256.568L584.774 257.618C583.85 257.31 583.038 256.918 582.366 256.442C581.694 256.89 580.812 257.268 579.748 257.576L579.3 256.498C580.14 256.274 580.854 256.008 581.414 255.672ZM578.404 259.088H573.602V257.94H584.746V259.088H579.72V259.984H583.892V261.104H579.72V262.014H585.418V263.19H572.902V262.014H575.03V259.578H576.262V262.014H578.404V259.088ZM594.196 253.768C594.112 254.02 594.028 254.258 593.944 254.482C594.364 255.98 594.896 257.282 595.54 258.402C596.212 257.086 596.562 255.532 596.604 253.768H594.196ZM597.892 253.768C597.794 256.078 597.276 258.024 596.324 259.62C597.192 260.796 598.186 261.706 599.32 262.364L598.564 263.484C597.402 262.798 596.394 261.874 595.554 260.712C594.63 261.846 593.44 262.756 591.984 263.456L591.172 262.364C592.712 261.692 593.916 260.768 594.812 259.592C594.196 258.542 593.664 257.352 593.23 256.036C592.978 256.456 592.726 256.862 592.446 257.226L591.634 256.19C592.614 254.79 593.272 252.9 593.608 250.52L594.91 250.744C594.798 251.36 594.686 251.948 594.56 252.508H598.872V253.768H597.892ZM588.414 260.992C589.52 260.614 590.654 260.138 591.83 259.578L592.012 260.796C590.528 261.51 588.862 262.168 587.042 262.756L586.65 261.608C586.958 261.482 587.126 261.202 587.126 260.754V255.686H590.192V252.676H586.496V251.402H591.494V256.918H588.414V260.992ZM611.682 256.414H608.714V257.268H611.878V258.36H608.714V259.228H612.284V260.334H608.714V261.468H607.426V260.334H604.36V259.228H607.426V258.36H604.794V257.268H607.426V256.414H605.088V255.308H607.426V254.44H604.402V253.362H607.426V252.522H605.088V251.43H607.426V250.492H608.714V251.43H611.682V253.362H612.522V254.44H611.682V256.414ZM608.714 252.522V253.362H610.408V252.522H608.714ZM608.714 254.44V255.308H610.408V254.44H608.714ZM607.776 261.944C609.358 261.944 610.996 261.902 612.676 261.846L612.452 263.12H608.35C605.774 263.12 603.94 262.742 602.834 262.014C602.694 261.916 602.582 261.818 602.498 261.734C602.05 262.35 601.532 262.882 600.944 263.344L600.076 262.21C600.692 261.79 601.196 261.286 601.602 260.698C601.084 259.914 600.664 258.948 600.328 257.8L601.448 257.394C601.686 258.234 601.952 258.948 602.26 259.522C602.638 258.64 602.862 257.632 602.946 256.512H600.426V255.504C601.182 254.524 601.868 253.488 602.512 252.396H600.426V251.136H603.996V252.228C603.366 253.404 602.75 254.426 602.134 255.308H604.164V256.106C604.108 257.898 603.758 259.438 603.114 260.726C603.282 260.894 603.464 261.034 603.66 261.146C604.57 261.65 605.942 261.916 607.776 261.944ZM621.048 250.436C621.916 251.584 622.574 252.578 623.036 253.446L621.986 254.174C621.496 253.25 620.852 252.256 620.054 251.164L621.048 250.436ZM624.394 251.192L625.654 251.458C625.206 254.72 624.282 257.38 622.882 259.424C623.946 260.642 625.164 261.608 626.55 262.336L625.766 263.484C624.366 262.728 623.148 261.72 622.084 260.488C620.978 261.776 619.648 262.784 618.094 263.484L617.366 262.35C618.892 261.65 620.18 260.67 621.216 259.396C619.9 257.562 618.864 255.308 618.094 252.648L619.242 252.004C619.886 254.496 620.81 256.596 622.014 258.304C623.218 256.414 624.002 254.048 624.394 251.192ZM615.378 250.632C616.26 251.332 617.016 252.018 617.632 252.704L616.722 253.628C616.176 252.956 615.42 252.256 614.454 251.514L615.378 250.632ZM613.474 254.692H616.708V260.432C617.086 260.096 617.478 259.718 617.898 259.298L618.262 260.712C617.422 261.524 616.526 262.252 615.574 262.91L615.07 261.692C615.308 261.51 615.434 261.272 615.434 260.992V255.966H613.474V254.692Z" fill="white"/>
<path d="M534.5 284.566C535.158 284.566 535.732 284.79 536.208 285.266C536.67 285.728 536.908 286.288 536.908 286.96C536.908 287.618 536.67 288.192 536.208 288.668C535.732 289.13 535.158 289.368 534.5 289.368C533.828 289.368 533.268 289.13 532.806 288.668C532.33 288.192 532.106 287.618 532.106 286.96C532.106 286.288 532.33 285.728 532.806 285.266C533.268 284.79 533.828 284.566 534.5 284.566ZM552.098 290.684C550.964 291.888 549.144 292.812 546.652 293.456L545.924 292.322C548.528 291.636 550.306 290.768 551.244 289.704L551.482 289.382H546.05V288.122H552.168C552.504 287.282 552.7 286.344 552.756 285.308V283.6H554.044V285.308C554.002 286.344 553.848 287.282 553.568 288.122H557.964V289.382H553.022C552.952 289.494 552.882 289.606 552.826 289.718C554.758 290.474 556.536 291.37 558.16 292.378L557.432 293.526C555.696 292.35 553.918 291.412 552.098 290.684ZM548.052 285.462C549.046 285.868 549.956 286.358 550.782 286.932L550.096 287.982C549.228 287.324 548.318 286.82 547.394 286.456L548.052 285.462ZM549.424 283.502C550.418 283.894 551.328 284.384 552.14 284.958L551.454 286.008C550.586 285.364 549.69 284.846 548.766 284.482L549.424 283.502ZM557.838 281.752V284.622H556.55V282.97H547.422V284.622H546.134V281.752H551.384C551.23 281.36 551.076 280.996 550.908 280.66L552.266 280.436C552.434 280.828 552.588 281.262 552.728 281.752H557.838ZM563.858 281.486V291.972H562.57V291.104H560.89V292.308H559.588V281.486H563.858ZM560.89 289.872H562.57V286.834H560.89V289.872ZM560.89 285.588H562.57V282.69H560.89V285.588ZM565.958 285.714C566.812 287.016 567.47 288.15 567.918 289.13L566.812 289.9C566.322 288.864 565.664 287.688 564.852 286.4L565.958 285.714ZM569.01 293.302H566.532L566.238 292.014C567.05 292.056 567.82 292.084 568.562 292.084C568.898 292.084 569.066 291.902 569.066 291.538V284.258H564.404V282.984H569.066V280.632H570.424V282.984H571.992V284.258H570.424V291.874C570.424 292.826 569.948 293.302 569.01 293.302ZM577.046 283.67C577.788 284.594 578.474 285.476 579.104 286.316C579.608 285.364 580 284.342 580.308 283.25L581.624 283.474C581.204 284.986 580.658 286.33 579.986 287.52C580.798 288.696 581.498 289.774 582.072 290.754L580.868 291.58C580.364 290.684 579.804 289.76 579.16 288.808C578.32 289.97 577.34 290.978 576.22 291.818L575.324 290.684C576.514 289.788 577.522 288.752 578.334 287.576C577.606 286.54 576.822 285.462 575.954 284.342L577.046 283.67ZM574.246 280.996H583.556V286.722C583.556 288.864 583.612 290.236 583.752 290.838C583.864 291.426 584.004 291.734 584.172 291.734C584.298 291.734 584.41 291.174 584.494 290.068L585.684 290.642C585.502 291.706 585.306 292.434 585.096 292.798C584.858 293.134 584.592 293.316 584.312 293.316C583.584 293.316 583.052 292.868 582.716 291.986C582.366 291.118 582.198 289.368 582.198 286.722V282.284H575.576V286.54C575.548 289.284 574.974 291.594 573.868 293.456L572.748 292.546C573.7 290.95 574.204 288.948 574.246 286.54V280.996ZM586.776 281.024H591.2V282.032C590.794 283.236 590.318 284.51 589.758 285.854C590.598 287.142 591.06 288.262 591.144 289.228C591.144 289.872 591.004 290.334 590.724 290.614C590.318 290.964 589.618 291.146 588.638 291.16L588.232 289.83C588.512 289.872 588.736 289.9 588.918 289.9C589.282 289.872 589.534 289.816 589.66 289.718C589.772 289.62 589.842 289.452 589.842 289.228C589.842 288.276 589.38 287.226 588.456 286.05C589.072 284.636 589.548 283.362 589.898 282.228H588.064V293.456H586.776V281.024ZM592.684 284.916C592.208 285.392 591.704 285.826 591.172 286.19L590.5 285.14C592.152 283.964 593.412 282.424 594.294 280.534H595.47C596.226 282.27 597.514 283.796 599.362 285.098L598.648 286.19C598.088 285.798 597.584 285.392 597.136 284.944V285.686H592.684V284.916ZM596.688 284.482C595.946 283.684 595.344 282.802 594.882 281.836C594.35 282.844 593.762 283.726 593.09 284.482H596.688ZM590.668 291.762H595.596C596.184 290.278 596.688 288.486 597.122 286.358L598.424 286.708C598.004 288.598 597.5 290.278 596.898 291.762H599.054V293.036H590.668V291.762ZM592.46 286.792C592.922 287.968 593.328 289.326 593.692 290.866L592.544 291.146C592.222 289.774 591.816 288.444 591.326 287.184L592.46 286.792ZM594.686 286.288C595.078 287.422 595.428 288.724 595.736 290.208L594.602 290.502C594.322 289.158 593.972 287.884 593.552 286.652L594.686 286.288ZM601.616 293.316H600.384L600.09 292.028C600.454 292.07 600.818 292.098 601.154 292.098C601.476 292.098 601.644 291.93 601.644 291.608V288.612C601.168 288.794 600.678 288.962 600.188 289.13L599.866 287.786C600.468 287.646 601.056 287.464 601.644 287.254V284.37H600.062V283.096H601.644V280.562H602.988V283.096H604.29V284.37H602.988V286.694C603.352 286.526 603.702 286.344 604.052 286.148V287.506C603.688 287.688 603.338 287.87 602.988 288.038V291.958C602.988 292.854 602.526 293.316 601.616 293.316ZM605.242 280.954H611.542V286.008H605.242V280.954ZM610.24 284.93V283.978H606.53V284.93H610.24ZM606.53 282.97H610.24V282.032H606.53V282.97ZM604.332 286.736H612.382V287.926H609.022V289.214H611.78V290.39H609.022V291.874C609.54 291.93 610.142 291.972 610.842 291.972C611.598 291.972 612.242 291.944 612.774 291.888L612.41 293.176C611.864 293.176 611.374 293.162 610.926 293.148C609.064 293.134 607.79 292.966 607.104 292.63C606.614 292.378 606.166 291.93 605.774 291.286C605.452 292.056 605.032 292.77 604.514 293.428L603.52 292.574C604.528 291.314 605.088 289.928 605.2 288.388L606.376 288.528C606.348 289.032 606.278 289.508 606.18 289.97C606.6 290.782 607.076 291.314 607.622 291.538L607.748 291.58V287.926H604.332V286.736ZM614.944 290.32V291.552H618.038V290.32H614.944ZM618.038 292.672H614.944V293.358H613.894V283.586H615.168V282.158H613.516V281.01H619.326V282.158H617.8V283.586H619.074V288.976C619.676 288.206 620.096 287.268 620.32 286.176L621.468 286.302C621.398 286.624 621.328 286.932 621.244 287.212H622.378V286.232H623.652V287.212H625.948V288.374H623.652V289.55H625.64V290.698H623.652V291.93H626.298V293.176H619.606V291.93H622.378V290.698H620.348V289.55H622.378V288.374H620.81C620.53 288.962 620.208 289.494 619.816 289.97L619.074 289.004V293.344H618.038V292.672ZM616.792 283.586V282.158H616.176V283.586H616.792ZM618.038 289.27V288.136H617.464C616.988 288.136 616.764 287.87 616.764 287.352V284.678H616.246V285.49C616.232 286.974 615.938 288.066 615.35 288.752L614.944 288.388V289.27H618.038ZM617.492 284.678V287.142C617.492 287.254 617.548 287.324 617.674 287.324H618.038V284.678H617.492ZM614.944 288.066C615.322 287.478 615.518 286.61 615.532 285.49V284.678H614.944V288.066ZM619.914 280.982H625.78V285.896H619.914V280.982ZM624.534 284.846V283.964H621.146V284.846H624.534ZM621.146 282.928H624.534V282.032H621.146V282.928Z" fill="white"/>
<path d="M516.5 200.5H694C702.56 200.5 709.5 207.44 709.5 216V308C709.5 311.038 707.038 313.5 704 313.5H522C518.962 313.5 516.5 311.038 516.5 308V200.5Z" stroke="white"/>
</g>
<path fill-rule="evenodd" clip-rule="evenodd" d="M101.053 157.496C102.369 126.879 127.809 107 159 107L339 107C357.548 107 372.993 116.384 376.331 133.053H364.067C363.493 133.054 362.93 133.199 362.442 133.474C362.101 133.665 361.805 133.915 361.571 134.21C361.337 134.506 361.169 134.84 361.079 135.194C360.988 135.548 360.975 135.915 361.041 136.273C361.108 136.632 361.252 136.975 361.465 137.283L376.395 158.795C376.673 159.193 377.058 159.52 377.513 159.747C377.969 159.974 378.48 160.093 378.999 160.093C379.519 160.093 380.03 159.974 380.485 159.747C380.941 159.52 381.325 159.193 381.603 158.795L396.533 137.284C396.838 136.844 397 136.337 397 135.818C396.998 135.454 396.918 135.093 396.763 134.757C396.608 134.421 396.381 134.116 396.096 133.859C395.811 133.603 395.473 133.399 395.101 133.261C394.729 133.123 394.331 133.052 393.929 133.053H381.418C378.037 113.5 360.332 102 339 102H159C125.048 102 97.3684 124.097 96.0488 157.495C95.9943 158.874 97.1188 160 98.4995 160C99.8802 160 100.994 158.876 101.053 157.496Z" fill="url(#paint1_linear_2421_36370)" fill-opacity="0.5"/>
<path fill-rule="evenodd" clip-rule="evenodd" d="M330.006 324.504C331.322 355.121 356.762 375 387.953 375L567.953 375C586.315 375 601.636 365.803 605.18 349.446H593.021C592.446 349.446 591.883 349.3 591.395 349.025C591.054 348.834 590.758 348.584 590.524 348.289C590.29 347.994 590.122 347.659 590.032 347.305C589.941 346.951 589.928 346.584 589.995 346.226C590.061 345.867 590.205 345.524 590.418 345.216L605.348 323.705C605.627 323.307 606.011 322.979 606.466 322.752C606.922 322.525 607.433 322.406 607.952 322.406C608.472 322.406 608.983 322.525 609.438 322.752C609.894 322.979 610.278 323.307 610.556 323.705L625.486 345.215C625.791 345.655 625.953 346.163 625.953 346.681C625.951 347.045 625.871 347.406 625.716 347.742C625.561 348.078 625.334 348.383 625.049 348.64C624.764 348.897 624.426 349.1 624.054 349.238C623.682 349.377 623.284 349.447 622.882 349.446H610.281C606.687 368.696 589.103 380 567.953 380H387.953C354.001 380 326.322 357.903 325.002 324.505C324.947 323.126 326.072 322 327.453 322C328.833 322 329.947 323.124 330.006 324.504Z" fill="url(#paint2_linear_2421_36370)" fill-opacity="0.2"/>
<g opacity="0.02">
<path d="M686.47 -127C686.47 -127 688.286 -63.203 677.5 -25.3493C673.685 -3.27745 659.024 41.6809 652.834 56.6716C646.652 73.2387 642 81.9237 628.842 111.909C628.842 111.909 638.967 104.779 652.203 94.4861C655.531 85.9969 669.07 53.926 674.625 36.8909C677.71 27.4265 687.703 -12.7869 691.54 -30.1314C691.54 -30.1314 697.635 -68.7547 697.569 -85.2963C697.569 -85.2963 697.438 -118.382 697.433 -119.954L686.47 -127Z" fill="white"/>
<path d="M702.118 -119.186C702.118 -119.186 703.874 -70.3547 698.519 -41.9752C698.546 -35.6734 688.583 12.4162 685.508 25.0315C679.347 47.1131 668.548 81.0267 668.548 81.0267C668.548 81.0267 682.563 69.9428 688.007 64.4067C699.651 27.1014 703.39 4.47729 706.433 -16.0123C707.951 -27.0472 711.735 -57.7844 711.65 -79.0514C711.568 -99.5488 711.537 -107.409 711.512 -113.711L702.118 -119.186Z" fill="white"/>
<path d="M715.427 -110.575C715.427 -110.575 715.557 -77.4918 715.586 -70.4028C715.615 -63.3138 714.924 -40.4664 712.652 -22.3406C710.38 -4.21466 702.775 47.018 700.451 51.7551C700.451 51.7551 711.349 43.0447 715.238 39.0909C716.759 28.0559 721.337 -7.40471 722.059 -13.7143C722.671 -19.0663 724.306 -38.142 724.605 -60.2001C724.783 -73.3794 724.102 -89.3413 723.259 -105.094C720.125 -107.444 715.427 -110.575 715.427 -110.575" fill="white"/>
<path d="M833.705 -121.798C833.705 -121.798 798.931 -45.3051 764.034 -7.03241C746.657 16.7666 702.981 61.114 686.854 75.1235C669.822 90.9974 659.198 98.4722 626 126.025C626 126.025 642.308 123.667 664.191 119.438C673.111 111.397 707.971 81.6094 724.519 64.8053C733.714 55.4682 769.028 13.933 783.689 -4.26926C783.689 -4.26926 813.394 -46.2647 822.896 -65.8534C822.896 -65.8534 841.903 -105.033 842.807 -106.901L833.705 -121.798Z" fill="white"/>
<path d="M847.997 -103.182C847.997 -103.182 821.823 -44.4138 798.943 -14.0839C795.324 -6.6189 755.484 44.2456 744.479 57.3132C724.278 79.718 692.098 113.183 692.098 113.183C692.098 113.183 714.918 108.628 724.674 105.35C760.285 68.2385 777.89 43.7404 793.421 21.3454C801.64 9.2158 824.325 -25.1541 836.212 -50.0321C847.986 -74.3051 851.564 -83.2917 855.185 -90.7547L847.997 -103.182Z" fill="white"/>
<path d="M859.965 -84.5598C859.965 -84.5598 840.958 -45.3804 836.885 -36.9852C832.813 -28.59 818.748 -2.00044 805.516 18.0602C792.284 38.1229 753.914 93.9693 748.375 98.1737C748.375 98.1737 766.074 94.5607 773.041 92.2166C781.26 80.087 807.31 40.9193 811.832 33.8949C815.669 27.9359 828.683 6.37123 841.822 -19.5193C849.67 -34.9878 858.099 -54.2632 866.209 -73.3858C863.801 -78.0426 859.965 -84.5598 859.965 -84.5598" fill="white"/>
</g>
<g opacity="0.02">
<path d="M-17.1871 446.685C-17.1871 446.685 -17.0495 452.92 -17.0104 454.791C-15.4024 456.313 -9.28482 462.723 -5.23423 467.218C-0.903166 471.892 7.18952 482.912 10.2508 487.535C10.2508 487.535 12.5116 485.405 14.3439 482.869C11.7331 478.562 2.33833 466.519 -1.96893 461.47C-6.27789 456.421 -13.2657 449.831 -17.1871 446.685" fill="white"/>
<path d="M-17.5726 429.233C-17.5726 429.233 -17.4078 436.713 -17.3806 437.961C-14.7969 441.021 -4.1919 450.864 17.1914 479.076L21.276 473.761C9.88404 458.498 5.35921 453.231 0.446822 447.541C-5.36305 440.81 -16.3012 429.83 -17.5726 429.233" fill="white"/>
<path d="M-18.3838 413.401C-18.3838 413.401 -18.2461 419.634 -18.207 421.505C-16.2778 423.332 -2.78314 436.128 1.7417 441.64C4.32538 444.7 16.9548 460.751 23.448 469.96L27.7536 464.809C27.7536 464.809 17.7758 450.042 7.3323 438.397C-3.63133 426.168 -13.9133 416.42 -18.3838 413.401" fill="white"/>
<path d="M73.8366 395.554C73.8366 395.554 43.3933 462.52 12.843 496.026C-2.37006 516.861 -40.6068 555.685 -54.7252 567.95C-69.6358 581.847 -78.937 588.391 -108 612.512C-108 612.512 -93.7235 610.448 -74.5652 606.745C-66.7563 599.706 -36.2383 573.628 -21.751 558.917C-13.7008 550.743 17.2149 514.381 30.05 498.445C30.05 498.445 56.0551 461.68 64.3738 444.531C64.3738 444.531 81.0131 410.231 81.8052 408.596L73.8366 395.554Z" fill="white"/>
<path d="M86.3482 411.852C86.3482 411.852 63.4334 463.301 43.4031 489.853C40.2347 496.388 5.35675 540.918 -4.27764 552.358C-21.9622 571.972 -50.1345 601.27 -50.1345 601.27C-50.1345 601.27 -30.1569 597.282 -21.6155 594.412C9.56033 561.923 24.9723 540.476 38.5689 520.87C45.7641 510.251 65.6244 480.162 76.0305 458.382C86.3381 437.132 89.4708 429.265 92.6409 422.731L86.3482 411.852Z" fill="white"/>
<path d="M96.8255 428.154C96.8255 428.154 80.1862 462.454 76.6201 469.804C73.0556 477.154 60.7424 500.432 49.1583 517.994C37.5743 535.558 3.98304 584.449 -0.866455 588.13C-0.866455 588.13 14.6288 584.967 20.7277 582.914C27.9229 572.295 50.7289 538.006 54.6877 531.856C58.0465 526.639 69.4402 507.761 80.9426 485.095C87.8132 471.553 95.192 454.678 102.292 437.937C100.184 433.86 96.8255 428.154 96.8255 428.154" fill="white"/>
<path d="M95.6048 464.341C95.6048 464.341 90.8505 474.143 90.0583 475.775C91.374 481.485 99.1386 506.783 108.103 557.767L116.924 553.642C112.3 526.178 109.375 510.916 106.789 500.227C103.731 487.585 96.8558 465.972 95.6048 464.341" fill="white"/>
<path d="M104.813 443.949C104.813 443.949 100.851 452.116 99.6631 454.566C100.946 458.236 109.93 483.923 112.131 494.122C113.447 499.831 120.166 534.33 122.462 550.646L131 547.085C131 547.085 127.322 515.837 121.527 493.697C115.444 470.451 108.601 450.878 104.813 443.949" fill="white"/>
</g>
<defs>
<filter id="filter0_d_2421_36370" x="18" y="146" width="254" height="206" filterUnits="userSpaceOnUse" color-interpolation-filters="sRGB">
<feFlood flood-opacity="0" result="BackgroundImageFix"/>
<feColorMatrix in="SourceAlpha" type="matrix" values="0 0 0 0 0 0 0 0 0 0 0 0 0 0 0 0 0 0 127 0" result="hardAlpha"/>
<feOffset dy="8"/>
<feGaussianBlur stdDeviation="15"/>
<feComposite in2="hardAlpha" operator="out"/>
<feColorMatrix type="matrix" values="0 0 0 0 0.470833 0 0 0 0 0.474483 0 0 0 0 0.941667 0 0 0 0.9 0"/>
<feBlend mode="normal" in2="BackgroundImageFix" result="effect1_dropShadow_2421_36370"/>
<feBlend mode="normal" in="SourceGraphic" in2="effect1_dropShadow_2421_36370" result="shape"/>
</filter>
<filter id="filter1_d_2421_36370" x="252" y="146" width="254" height="206" filterUnits="userSpaceOnUse" color-interpolation-filters="sRGB">
<feFlood flood-opacity="0" result="BackgroundImageFix"/>
<feColorMatrix in="SourceAlpha" type="matrix" values="0 0 0 0 0 0 0 0 0 0 0 0 0 0 0 0 0 0 127 0" result="hardAlpha"/>
<feOffset dy="8"/>
<feGaussianBlur stdDeviation="15"/>
<feComposite in2="hardAlpha" operator="out"/>
<feColorMatrix type="matrix" values="0 0 0 0 0.470833 0 0 0 0 0.474483 0 0 0 0 0.941667 0 0 0 0.9 0"/>
<feBlend mode="normal" in2="BackgroundImageFix" result="effect1_dropShadow_2421_36370"/>
<feBlend mode="normal" in="SourceGraphic" in2="effect1_dropShadow_2421_36370" result="shape"/>
</filter>
<filter id="filter2_d_2421_36370" x="486" y="146" width="254" height="206" filterUnits="userSpaceOnUse" color-interpolation-filters="sRGB">
<feFlood flood-opacity="0" result="BackgroundImageFix"/>
<feColorMatrix in="SourceAlpha" type="matrix" values="0 0 0 0 0 0 0 0 0 0 0 0 0 0 0 0 0 0 127 0" result="hardAlpha"/>
<feOffset dy="8"/>
<feGaussianBlur stdDeviation="15"/>
<feComposite in2="hardAlpha" operator="out"/>
<feColorMatrix type="matrix" values="0 0 0 0 0.470833 0 0 0 0 0.474483 0 0 0 0 0.941667 0 0 0 0.9 0"/>
<feBlend mode="normal" in2="BackgroundImageFix" result="effect1_dropShadow_2421_36370"/>
<feBlend mode="normal" in="SourceGraphic" in2="effect1_dropShadow_2421_36370" result="shape"/>
</filter>
<linearGradient id="paint0_linear_2421_36370" x1="0" y1="0" x2="747.885" y2="497.215" gradientUnits="userSpaceOnUse">
<stop stop-color="#6C87FF"/>
<stop offset="1" stop-color="#996DF7"/>
</linearGradient>
<linearGradient id="paint1_linear_2421_36370" x1="401.5" y1="131" x2="96" y2="131" gradientUnits="userSpaceOnUse">
<stop stop-color="white"/>
<stop offset="1" stop-color="white" stop-opacity="0"/>
</linearGradient>
<linearGradient id="paint2_linear_2421_36370" x1="626" y1="355" x2="321" y2="355.5" gradientUnits="userSpaceOnUse">
<stop stop-color="white"/>
<stop offset="1" stop-color="white" stop-opacity="0"/>
</linearGradient>
</defs>
</svg>
