<?xml version="1.0" encoding="UTF-8"?>
<svg width="195px" height="48px" viewBox="0 0 195 48" version="1.1" xmlns="http://www.w3.org/2000/svg" xmlns:xlink="http://www.w3.org/1999/xlink">
    <title>LOGO</title>
    <defs>
        <polygon id="path-1" points="0 0 41.2963779 0 41.2963779 47.013195 0 47.013195"></polygon>
    </defs>
    <g id="页面-1" stroke="none" stroke-width="1" fill="none" fill-rule="evenodd">
        <g id="认证页面" transform="translate(-50.000000, -50.000000)">
            <g id="LOGO" transform="translate(50.000000, 50.000000)">
                <g id="编组" transform="translate(64.000000, 10.000000)">
                    <g id="编组-16" transform="translate(0.000000, 1.447455)">
                        <path d="M22.751105,14.8774184 C24.2608314,16.027079 26.1408474,17.6754381 27.0668459,18.7960428 L25.4425714,19.8026594 C24.5781047,18.6502049 22.7590711,16.9392641 21.2185788,15.7270218 L22.751105,14.8774184 Z M17.0319448,5.55971954 C17.6112776,4.49527072 18.3416929,2.77399273 18.736705,1.67909118 L20.3365315,2.29736552 C19.6659998,3.67472317 18.9655263,5.17696498 18.3548783,6.11680902 L17.0319448,5.55971954 Z M17.3931694,19.3355312 C16.9594252,18.3375754 16.0012873,16.8733297 15.1060546,15.7831777 L16.6396796,15.1836219 C17.5958946,16.2103541 18.5534832,17.6125769 19.048759,18.5476714 L17.3931694,19.3355312 Z M22.4217451,1.4452477 L14.6813754,1.47653859 L14.7000547,6.19419809 L22.4404244,6.16290721 L22.4217451,1.4452477 Z M9.99040045,19.3341343 C9.83327462,18.3663519 9.33607578,16.9001506 8.83997571,15.77759 L10.5279795,15.3956736 C11.0853367,16.4869431 11.6130267,17.9218537 11.7701526,18.8583452 L9.99040045,19.3341343 Z M8.44688646,1.75201011 C9.1885643,2.90502331 9.932165,4.49527072 10.1510973,5.49406456 L8.74081064,6.12463174 C8.49083775,5.09454702 7.80876882,3.47300873 7.0668163,2.25741376 L8.44688646,1.75201011 Z M12.7340591,6.2020208 L12.7156544,1.48464068 L5.06730779,1.51593156 L5.08571239,6.23331168 L12.7340591,6.2020208 Z M0.805956581,19.2469667 C2.12312148,18.3040496 3.46830532,16.7054206 4.23003592,15.0777359 L5.95182728,15.5705673 C5.09834838,17.2301017 3.81579511,19.1408012 2.31513363,20.3027547 L0.805956581,19.2469667 Z M27.0814047,14.7346537 L0.542798297,14.8427749 L0.536754996,13.312036 L12.7618033,13.2623059 L12.7532877,11.075576 L2.86260175,11.1158071 L2.85683315,9.58506823 L12.7472444,9.5448371 L12.7398277,7.6391664 L3.15625124,7.67800062 L3.12658412,0.0868880768 L24.4435039,0 L24.4734457,7.59139192 L14.7055486,7.63106429 L14.7132401,9.536735 L25.0030587,9.49482756 L25.009102,11.0255664 L14.7190087,11.0674739 L14.7277989,13.2542037 L27.0753614,13.2041942 L27.0814047,14.7346537 Z M27.7060623,25.104229 L27.7126549,26.8537247 L0.00714208287,26.9665954 L0,25.2170998 L12.7780103,25.1648552 L12.7672972,22.4783093 L3.24552728,22.5171435 L3.23893458,20.8302296 L12.7607045,20.7913954 L12.753013,18.7921315 L14.7802658,18.7834705 L14.788232,20.783014 L24.4327908,20.7439003 L24.4393835,22.4308143 L14.7948247,22.4699278 L14.8052631,25.1567531 L27.7060623,25.104229 Z" id="Fill-25" fill="#FFFFFF" fill-rule="nonzero"></path>
                        <path d="M22.751105,14.8774184 C24.2608314,16.027079 26.1408474,17.6754381 27.0668459,18.7960428 L25.4425714,19.8026594 C24.5781047,18.6502049 22.7590711,16.9392641 21.2185788,15.7270218 L22.751105,14.8774184 Z M17.0319448,5.55971954 C17.6112776,4.49527072 18.3416929,2.77399273 18.736705,1.67909118 L20.3365315,2.29736552 C19.6659998,3.67472317 18.9655263,5.17696498 18.3548783,6.11680902 L17.0319448,5.55971954 Z M17.3931694,19.3355312 C16.9594252,18.3375754 16.0012873,16.8733297 15.1060546,15.7831777 L16.6396796,15.1836219 C17.5958946,16.2103541 18.5534832,17.6125769 19.048759,18.5476714 L17.3931694,19.3355312 Z M22.4217451,1.4452477 L14.6813754,1.47653859 L14.7000547,6.19419809 L22.4404244,6.16290721 L22.4217451,1.4452477 Z M9.99040045,19.3341343 C9.83327462,18.3663519 9.33607578,16.9001506 8.83997571,15.77759 L10.5279795,15.3956736 C11.0853367,16.4869431 11.6130267,17.9218537 11.7701526,18.8583452 L9.99040045,19.3341343 Z M8.44688646,1.75201011 C9.1885643,2.90502331 9.932165,4.49527072 10.1510973,5.49406456 L8.74081064,6.12463174 C8.49083775,5.09454702 7.80876882,3.47300873 7.0668163,2.25741376 L8.44688646,1.75201011 Z M12.7340591,6.2020208 L12.7156544,1.48464068 L5.06730779,1.51593156 L5.08571239,6.23331168 L12.7340591,6.2020208 Z M0.805956581,19.2469667 C2.12312148,18.3040496 3.46830532,16.7054206 4.23003592,15.0777359 L5.95182728,15.5705673 C5.09834838,17.2301017 3.81579511,19.1408012 2.31513363,20.3027547 L0.805956581,19.2469667 Z M27.0814047,14.7346537 L0.542798297,14.8427749 L0.536754996,13.312036 L12.7618033,13.2623059 L12.7532877,11.075576 L2.86260175,11.1158071 L2.85683315,9.58506823 L12.7472444,9.5448371 L12.7398277,7.6391664 L3.15625124,7.67800062 L3.12658412,0.0868880768 L24.4435039,0 L24.4734457,7.59139192 L14.7055486,7.63106429 L14.7132401,9.536735 L25.0030587,9.49482756 L25.009102,11.0255664 L14.7190087,11.0674739 L14.7277989,13.2542037 L27.0753614,13.2041942 L27.0814047,14.7346537 Z M27.7060623,25.104229 L27.7126549,26.8537247 L0.00714208287,26.9665954 L0,25.2170998 L12.7780103,25.1648552 L12.7672972,22.4783093 L3.24552728,22.5171435 L3.23893458,20.8302296 L12.7607045,20.7913954 L12.753013,18.7921315 L14.7802658,18.7834705 L14.788232,20.783014 L24.4327908,20.7439003 L24.4393835,22.4308143 L14.7948247,22.4699278 L14.8052631,25.1567531 L27.7060623,25.104229 Z" id="Stroke-27" stroke="#FFFFFF"></path>
                    </g>
                    <g id="编组-14" transform="translate(34.498119, 0.308215)">
                        <path d="M27.4341138,22.4042728 L17.9428351,22.443107 L17.9659095,28.3162942 L15.9694227,28.3243963 L15.8859152,7.11252965 L17.8826768,7.10414816 L17.8920165,9.50963485 L26.5844806,9.47443261 L26.5918974,11.3175215 L17.8991585,11.3527238 L17.9134427,14.9453084 L25.9609218,14.9126206 L25.968064,16.7246981 L17.9205847,16.7573858 L17.9354183,20.5374363 L27.426697,20.4988815 L27.4341138,22.4042728 Z M18.9773384,4.31953889 L14.0935271,4.33937507 L14.0858357,2.43370436 L18.9699216,2.4135888 L18.9603072,0.00810210395 L20.98756,0 L20.9968996,2.40548669 L27.0171261,2.38090101 L27.0248175,4.2865717 L21.0045911,4.31087801 L21.0144801,6.81051674 L18.9869527,6.81861885 L18.9773384,4.31953889 Z M7.82003142,2.45912822 L12.3126762,2.43873327 L12.320093,4.34412458 L7.82744822,4.36479891 L7.83733728,6.86387887 L5.84085032,6.87198099 L5.8309614,4.37290101 L0.0868037877,4.39608979 L0.07938714,2.49069847 L5.82354461,2.46750969 L5.81365554,0.0304527352 L7.81041714,0.0223506312 L7.82003142,2.45912822 Z M9.12840607,7.17120006 L11.0944017,7.16309796 L11.1298374,16.1916355 C11.1504396,21.4708545 10.1236279,25.9116456 2.45550305,28.6917848 C2.23849365,28.1930863 1.68250994,27.4141669 1.25123805,27.0722021 C5.14669479,25.6817135 7.1668056,23.861534 8.20268219,21.7331951 C5.34832133,22.2754773 2.49396048,22.8183183 0.314526435,23.2647721 L0,21.3602189 C2.24096592,21.0386492 5.49473398,20.4633999 8.84052515,19.8560214 C9.05176597,18.8865629 9.13966858,17.8553606 9.16658873,16.8241583 L1.36468735,16.8560079 L1.35754519,15.0439306 L9.15917193,15.0123602 L9.14488774,11.3884848 L0.636744296,11.4231283 L0.629602128,9.58003934 L9.13774572,9.54539587 L9.12840607,7.17120006 Z" id="Fill-29" fill="#FFFFFF" fill-rule="nonzero"></path>
                        <path d="M27.4341138,22.4042728 L17.9428351,22.443107 L17.9659095,28.3162942 L15.9694227,28.3243963 L15.8859152,7.11252965 L17.8826768,7.10414816 L17.8920165,9.50963485 L26.5844806,9.47443261 L26.5918974,11.3175215 L17.8991585,11.3527238 L17.9134427,14.9453084 L25.9609218,14.9126206 L25.968064,16.7246981 L17.9205847,16.7573858 L17.9354183,20.5374363 L27.426697,20.4988815 L27.4341138,22.4042728 Z M18.9773384,4.31953889 L14.0935271,4.33937507 L14.0858357,2.43370436 L18.9699216,2.4135888 L18.9603072,0.00810210395 L20.98756,0 L20.9968996,2.40548669 L27.0171261,2.38090101 L27.0248175,4.2865717 L21.0045911,4.31087801 L21.0144801,6.81051674 L18.9869527,6.81861885 L18.9773384,4.31953889 Z M7.82003142,2.45912822 L12.3126762,2.43873327 L12.320093,4.34412458 L7.82744822,4.36479891 L7.83733728,6.86387887 L5.84085032,6.87198099 L5.8309614,4.37290101 L0.0868037877,4.39608979 L0.07938714,2.49069847 L5.82354461,2.46750969 L5.81365554,0.0304527352 L7.81041714,0.0223506312 L7.82003142,2.45912822 Z M9.12840607,7.17120006 L11.0944017,7.16309796 L11.1298374,16.1916355 C11.1504396,21.4708545 10.1236279,25.9116456 2.45550305,28.6917848 C2.23849365,28.1930863 1.68250994,27.4141669 1.25123805,27.0722021 C5.14669479,25.6817135 7.1668056,23.861534 8.20268219,21.7331951 C5.34832133,22.2754773 2.49396048,22.8183183 0.314526435,23.2647721 L0,21.3602189 C2.24096592,21.0386492 5.49473398,20.4633999 8.84052515,19.8560214 C9.05176597,18.8865629 9.13966858,17.8553606 9.16658873,16.8241583 L1.36468735,16.8560079 L1.35754519,15.0439306 L9.15917193,15.0123602 L9.14488774,11.3884848 L0.636744296,11.4231283 L0.629602128,9.58003934 L9.13774572,9.54539587 L9.12840607,7.17120006 Z" id="Stroke-31" stroke="#FFFFFF"></path>
                    </g>
                    <g id="编组-13" transform="translate(68.717697, 0.000000)">
                        <path d="M9.28415837,14.7285073 C8.52132896,16.012551 7.78899078,17.234013 7.08659443,18.2987413 C9.36244655,19.0396647 11.8234435,19.9353662 14.2229086,20.8942083 C15.7524132,19.2631709 16.8500964,17.228146 17.669513,14.6944225 L9.28415837,14.7285073 Z M2.81507953,10.0063776 L0.757060839,10.0147591 L0.732887589,3.86051279 L12.282185,3.81357647 C11.8478914,2.7843299 11.2290024,1.56845555 10.7026859,0.570779247 L12.7895476,0 C13.5007342,1.21531558 14.2745515,2.74326062 14.8005933,3.8032393 L25.4282873,3.75993495 L25.4527352,9.91418128 L23.3334594,9.92284215 L23.3169778,5.70527802 L2.7985977,5.78881351 L2.81507953,10.0063776 Z M20.0346412,14.6849235 C19.1861068,17.5938581 17.9664588,19.9105012 16.3457555,21.7913067 C20.0689781,23.4008316 23.5468978,25.1673696 25.9491099,26.7509119 L24.4207042,28.5691357 C22.1102404,26.9540231 18.5710636,25.1251829 14.7245027,23.391612 C11.6328049,26.0907301 7.3689814,27.6698022 1.62921906,28.7241932 C1.41220952,28.1939245 0.70184695,27.2283772 0.270025647,26.7302375 C5.64224545,25.958582 9.59950885,24.6616865 12.5088088,22.4316523 C9.61681456,21.2252771 6.6020315,20.0817628 3.86496567,19.2492018 C4.81239038,18.027181 5.81997352,16.4299491 6.79596661,14.7385651 L0.00769142737,14.766224 L0,12.76696 L7.89392447,12.734831 C8.93089987,10.8249695 9.84481183,8.88437594 10.5139701,7.16337734 L12.726917,7.5916713 C12.1190159,9.21851788 11.2660864,10.9716455 10.3513504,12.7247732 L18.183743,12.6929235 C18.4257497,11.7234649 18.60595,10.660413 18.7551097,9.56662896 L21.1213367,9.77560737 C20.9716276,10.7760775 20.7603868,11.7765476 20.5491459,12.6834245 L26.3235198,12.6599563 L26.3317607,14.6592203 L20.0346412,14.6849235 Z" id="Fill-33" fill="#FFFFFF" fill-rule="nonzero"></path>
                        <path d="M9.28415837,14.7285073 C8.52132896,16.012551 7.78899078,17.234013 7.08659443,18.2987413 C9.36244655,19.0396647 11.8234435,19.9353662 14.2229086,20.8942083 C15.7524132,19.2631709 16.8500964,17.228146 17.669513,14.6944225 L9.28415837,14.7285073 Z M2.81507953,10.0063776 L0.757060839,10.0147591 L0.732887589,3.86051279 L12.282185,3.81357647 C11.8478914,2.7843299 11.2290024,1.56845555 10.7026859,0.570779247 L12.7895476,0 C13.5007342,1.21531558 14.2745515,2.74326062 14.8005933,3.8032393 L25.4282873,3.75993495 L25.4527352,9.91418128 L23.3334594,9.92284215 L23.3169778,5.70527802 L2.7985977,5.78881351 L2.81507953,10.0063776 Z M20.0346412,14.6849235 C19.1861068,17.5938581 17.9664588,19.9105012 16.3457555,21.7913067 C20.0689781,23.4008316 23.5468978,25.1673696 25.9491099,26.7509119 L24.4207042,28.5691357 C22.1102404,26.9540231 18.5710636,25.1251829 14.7245027,23.391612 C11.6328049,26.0907301 7.3689814,27.6698022 1.62921906,28.7241932 C1.41220952,28.1939245 0.70184695,27.2283772 0.270025647,26.7302375 C5.64224545,25.958582 9.59950885,24.6616865 12.5088088,22.4316523 C9.61681456,21.2252771 6.6020315,20.0817628 3.86496567,19.2492018 C4.81239038,18.027181 5.81997352,16.4299491 6.79596661,14.7385651 L0.00769142737,14.766224 L0,12.76696 L7.89392447,12.734831 C8.93089987,10.8249695 9.84481183,8.88437594 10.5139701,7.16337734 L12.726917,7.5916713 C12.1190159,9.21851788 11.2660864,10.9716455 10.3513504,12.7247732 L18.183743,12.6929235 C18.4257497,11.7234649 18.60595,10.660413 18.7551097,9.56662896 L21.1213367,9.77560737 C20.9716276,10.7760775 20.7603868,11.7765476 20.5491459,12.6834245 L26.3235198,12.6599563 L26.3317607,14.6592203 L20.0346412,14.6849235 Z" id="Stroke-35" stroke="#FFFFFF"></path>
                    </g>
                    <g id="编组-12" transform="translate(101.834921, 0.872932)">
                        <path d="M12.8266315,0.00894025279 L15.0684215,0 C17.9727769,4.36200508 23.3345583,8.61980034 28.1650785,10.6620893 C27.7368283,11.1012792 27.064099,11.94753 26.7899529,12.4797544 C22.1736951,10.2807316 17.1816539,6.17687635 13.9707383,1.97244321 C10.8224532,5.98410215 5.58758112,10.4419356 1.29656288,12.8334531 C1.01802161,12.3034638 0.493353171,11.6184169 0,11.1518475 C3.89325926,9.23025196 8.57846571,5.52479668 11.6361012,1.95065136 L12.8266315,0.00894025279 Z" id="Fill-37" fill="#FFFFFF" fill-rule="nonzero"></path>
                        <path d="M12.8266315,0.00894025279 L15.0684215,0 C17.9727769,4.36200508 23.3345583,8.61980034 28.1650785,10.6620893 C27.7368283,11.1012792 27.064099,11.94753 26.7899529,12.4797544 C22.1736951,10.2807316 17.1816539,6.17687635 13.9707383,1.97244321 C10.8224532,5.98410215 5.58758112,10.4419356 1.29656288,12.8334531 C1.01802161,12.3034638 0.493353171,11.6184169 0,11.1518475 C3.89325926,9.23025196 8.57846571,5.52479668 11.6361012,1.95065136 L12.8266315,0.00894025279 Z" id="Stroke-39" stroke="#FFFFFF"></path>
                        <polygon id="Fill-41" fill="#FFFFFF" fill-rule="nonzero" points="15.0435066 25.4166909 27.1762571 25.3650051 27.1836739 27.3486236 1.1672637 27.4589799 1.1598469 25.4753613 12.9547221 25.4253518 12.9330211 19.7354398 4.17929971 19.7725978 4.17188291 17.8540755 12.9258791 17.8169175 12.9063756 12.6145287 5.47284076 12.6458196 5.46569874 10.6948888 22.6970725 10.6219699 22.7047639 12.5729006 14.9951601 12.6055884 15.0149382 17.8079772 23.8609572 17.7705399 23.8680993 19.6890622 15.0220802 19.7264996"></polygon>
                        <polygon id="Stroke-43" stroke="#FFFFFF" points="15.0435066 25.4166909 27.1762571 25.3650051 27.1836739 27.3486236 1.1672637 27.4589799 1.1598469 25.4753613 12.9547221 25.4253518 12.9330211 19.7354398 4.17929971 19.7725978 4.17188291 17.8540755 12.9258791 17.8169175 12.9063756 12.6145287 5.47284076 12.6458196 5.46569874 10.6948888 22.6970725 10.6219699 22.7047639 12.5729006 14.9951601 12.6055884 15.0149382 17.8079772 23.8609572 17.7705399 23.8680993 19.6890622 15.0220802 19.7264996"></polygon>
                    </g>
                </g>
                <g id="编组-5">
                    <path d="M11.5177632,0 C11.5177632,0 11.8635531,12.1025979 9.8091541,19.2836163 C9.08244051,23.4707481 6.28986327,31.9995542 5.11084907,34.8433563 C3.93331417,37.9862129 3.04720438,39.6337979 0.540874616,45.3221451 C0.540874616,45.3221451 2.4695318,43.9695281 4.99065471,42.0169449 C5.62454127,40.4065095 8.20335746,34.322519 9.26143765,31.0908749 C9.84909562,29.2954346 11.7526044,21.6667634 12.4833861,18.376423 C12.4833861,18.376423 13.6442787,11.0494066 13.6319058,7.91137962 C13.6319058,7.91137962 13.606926,1.63495406 13.6058165,1.33664274 L11.5177632,0 Z" id="Fill-1" fill="#FFFFFF" fill-rule="nonzero"></path>
                    <path d="M14.4987682,1.48238064 C14.4987682,1.48238064 14.8330934,10.7460058 13.8131056,16.1297263 C13.8182832,17.3252007 11.9206916,26.4480288 11.3348828,28.8412063 C10.161416,33.0301956 8.10442827,39.463764 8.10442827,39.463764 C8.10442827,39.463764 10.7738525,37.3610964 11.8108525,36.3108771 C14.0287158,29.2338777 14.741006,24.9419839 15.3205277,21.0550209 C15.6097339,18.9616407 16.3305303,13.1306389 16.3142577,9.09619194 C16.298725,5.2077429 16.2928076,3.71655781 16.2879999,2.52108355 L14.4987682,1.48238064 Z" id="Fill-3" fill="#FFFFFF" fill-rule="nonzero"></path>
                    <path d="M17.0343144,3.11599731 C17.0343144,3.11599731 17.0590929,9.39205139 17.0646403,10.736867 C17.0701878,12.0816827 16.9385287,16.415927 16.505829,19.8544943 C16.0731294,23.2930616 14.62451,33.012141 14.1818249,33.9107898 C14.1818249,33.9107898 16.2576739,32.2583756 16.998441,31.508325 C17.2880169,29.4149448 18.1600733,22.6878945 18.2976496,21.4909344 C18.4141457,20.4756357 18.7255415,16.8568928 18.7824951,12.6723614 C18.8165193,10.1721931 18.6867095,7.14412886 18.5262038,4.15581473 C17.9293,3.71001948 17.0343144,3.11599731 17.0343144,3.11599731" id="Fill-5" fill="#FFFFFF" fill-rule="nonzero"></path>
                    <path d="M19.7585472,12.0667485 C19.7585472,12.0667485 19.7885034,13.4178796 19.7970095,13.8231818 C20.1468676,14.1530703 21.4778814,15.542094 22.3591834,16.5161566 C23.3015072,17.5288548 25.062262,19.9168312 25.7283237,20.9187561 C25.7283237,20.9187561 26.2201961,20.4569865 26.6188715,19.9075438 C26.0508145,18.9743458 24.0067707,16.3645861 23.0696246,15.2705304 C22.1321086,14.1764745 20.6117423,12.7484438 19.7585472,12.0667485" id="Fill-7" fill="#FFFFFF" fill-rule="nonzero"></path>
                    <path d="M19.6751139,8.28465883 C19.6751139,8.28465883 19.7109872,9.90549604 19.7169046,10.1759452 C20.2790444,10.8390656 22.5864061,12.9718243 27.2388525,19.0851631 L28.127551,17.9335254 C25.6489584,14.6260962 24.6644742,13.4848604 23.595669,12.251865 C22.3315941,10.7933716 19.9517458,8.41393945 19.6751139,8.28465883" id="Fill-9" fill="#FFFFFF" fill-rule="nonzero"></path>
                    <path d="M19.497966,4.85411583 C19.497966,4.85411583 19.5279221,6.20487541 19.5364281,6.6101776 C19.9561838,7.00619238 22.8922546,9.7790388 23.8767388,10.9733986 C24.4388786,11.636519 27.1867067,15.1144648 28.5994526,17.1101416 L29.536229,15.993796 C29.536229,15.993796 27.365334,12.7941006 25.0931058,10.2705281 C22.70771,7.62064681 20.4706157,5.50832035 19.497966,4.85411583" id="Fill-11" fill="#FFFFFF" fill-rule="nonzero"></path>
                    <g id="Fill-13-Clipped" transform="translate(0.000000, 0.986805)">
                        <mask id="mask-2" fill="white">
                            <use xlink:href="#path-1"></use>
                        </mask>
                        <g id="path-1"></g>
                        <path d="M39.5626205,0 C39.5626205,0 32.9389867,14.5110067 26.2920538,21.7715253 C22.9820861,26.2863166 14.6627872,34.6992159 11.5909893,37.3568985 C8.34685105,40.3682454 6.32314786,41.7862458 -0.000184914399,47.013195 C-0.000184914399,47.013195 3.10600716,46.5659139 7.27434752,45.7634824 C8.97334102,44.2381197 15.6132473,38.5872934 18.7652981,35.3994859 C20.5168073,33.6281928 27.2432535,25.7487618 30.0358306,22.2957061 C30.0358306,22.2957061 35.6938415,14.3289737 37.5037836,10.6128988 C37.5037836,10.6128988 41.1240376,3.18037758 41.2963779,2.82597036 L39.5626205,0 Z" id="Fill-13" fill="#FFFFFF" fill-rule="nonzero" mask="url(#mask-2)"></path>
                    </g>
                    <path d="M42.2859658,4.51854345 C42.2859658,4.51854345 37.3003039,15.6671396 32.9422413,21.4208702 C32.2528803,22.8370131 24.6643633,32.4862512 22.5681736,34.9652442 C18.7204749,39.2155304 12.5909324,45.5640263 12.5909324,45.5640263 C12.5909324,45.5640263 16.9375302,44.6999264 18.79592,44.0780421 C25.5789498,37.0378206 28.9321877,32.3904053 31.8904482,28.1419766 C33.4559334,25.8409301 37.7770131,19.3208031 40.0411049,14.6013174 C42.2837468,9.99662403 42.9653413,8.29182872 43.655072,6.87605732 L42.2859658,4.51854345 Z" id="Fill-15" fill="#FFFFFF" fill-rule="nonzero"></path>
                    <path d="M44.564518,8.05139648 C44.564518,8.05139648 40.944264,15.4839177 40.168363,17.0765213 C39.3928321,18.6691248 36.7137923,23.713298 34.193409,27.5189034 C31.6730258,31.3248803 24.364469,41.9192043 23.3093476,42.7168062 C23.3093476,42.7168062 26.6807068,42.0313961 28.0076526,41.5867154 C29.5731379,39.2856689 34.5351308,31.8553766 35.3964621,30.5228204 C36.1272438,29.3923578 38.6062063,25.3014435 41.1088376,20.3898944 C42.6036857,17.4554472 44.2091126,13.7988117 45.7538874,10.1711529 C45.2952997,9.2877353 44.564518,8.05139648 44.564518,8.05139648" id="Fill-17" fill="#FFFFFF" fill-rule="nonzero"></path>
                    <path d="M41.8863288,20.847689 C41.8863288,20.847689 41.0242579,22.6174961 40.7657475,23.1479924 C40.9983699,23.8111128 41.7964604,26.5059452 42.2883327,28.3600818 C42.8338302,30.3059781 43.6452345,35.749881 43.8397645,37.4959124 C43.8397645,37.4959124 44.785047,37.2288068 45.6674584,36.784869 C45.553921,35.1937515 44.523578,29.2724762 44.0391022,27.2244185 C43.5546264,25.1767323 42.5372275,22.3043249 41.8863288,20.847689" id="Fill-19" fill="#FFFFFF" fill-rule="nonzero"></path>
                    <path d="M44.2997946,15.8923404 C44.2997946,15.8923404 43.2653834,18.0161833 43.0930432,18.3698475 C43.3792906,19.6073008 45.0686686,25.0890963 47.0191457,36.137017 L48.9381873,35.2431975 C47.9322529,29.2918311 47.2957777,25.9847733 46.7332681,23.6684955 C46.067946,20.9290837 44.5719885,16.2456331 44.2997946,15.8923404" id="Fill-21" fill="#FFFFFF" fill-rule="nonzero"></path>
                    <path d="M46.3024175,11.4739523 C46.3024175,11.4739523 45.4403465,13.2437594 45.1818362,13.7746273 C45.4610569,14.5700003 47.4156022,20.1361254 47.8945304,22.3461554 C48.180778,23.5832372 49.6427112,31.058852 50.1423499,34.5943797 L52,33.8227824 C52,33.8227824 51.1996904,27.0515243 49.938944,22.2540243 C48.6153268,17.2169096 47.126396,12.9755393 46.3024175,11.4739523" id="Fill-23" fill="#FFFFFF" fill-rule="nonzero"></path>
                </g>
            </g>
        </g>
    </g>
</svg>