<?xml version="1.0" encoding="UTF-8"?>
<svg width="131px" height="32px" viewBox="0 0 131 32" version="1.1" xmlns="http://www.w3.org/2000/svg" xmlns:xlink="http://www.w3.org/1999/xlink">
    <title>编组 3</title>
    <defs>
        <polygon id="path-1" points="0 -3.51951748e-15 27.6550319 -3.51951748e-15 27.6550319 31.34213 0 31.34213"></polygon>
    </defs>
    <g id="私有化" stroke="none" stroke-width="1" fill="none" fill-rule="evenodd">
        <g id="项目首页" transform="translate(-15.000000, -8.000000)">
            <g id="编组-3" transform="translate(15.000000, 8.000000)">
                <g id="编组" transform="translate(43.000000, 7.000000)">
                    <path d="M15.1602502,10.6956066 C16.1662598,11.4488325 17.4190127,12.5287919 18.0360539,13.2629812 L16.9537149,13.9224886 C16.3776756,13.1674322 15.1655584,12.046471 14.1390479,11.2522433 L15.1602502,10.6956066 Z M11.3492749,4.59090734 C11.7353146,3.89350984 12.2220285,2.76577598 12.4852457,2.04842669 L13.5512937,2.45350298 C13.1044834,3.35590972 12.6377213,4.34013711 12.2308146,4.955897 L11.3492749,4.59090734 Z M11.5899777,13.6164391 C11.3009513,12.962606 10.6624939,12.0032726 10.0659536,11.2890351 L11.0878881,10.8962227 C11.7250641,11.5689093 12.3631554,12.487607 12.6931836,13.1002551 L11.5899777,13.6164391 Z M14.9407805,1.89521889 L9.78296766,1.91571982 L9.79541465,5.00660018 L14.9532275,4.98609926 L14.9407805,1.89521889 Z M6.6571259,13.6155239 C6.55242475,12.9814596 6.22111518,12.0208449 5.89053778,11.2853742 L7.01534294,11.0351531 C7.38673914,11.7501228 7.73836659,12.6902366 7.84306774,13.3038 L6.6571259,13.6155239 Z M5.62860187,2.09620116 C6.12282057,2.8516236 6.61832058,3.89350984 6.76420662,4.54789201 L5.82445891,4.96102223 C5.65788891,4.28613914 5.20339074,3.22375198 4.708989,2.42732769 L5.62860187,2.09620116 Z M8.48536901,5.01172541 L8.47310506,1.92102809 L3.37661199,1.94152901 L3.38887594,5.03222633 L8.48536901,5.01172541 Z M0.537050988,13.5584141 C1.41474679,12.9406408 2.31111308,11.8932632 2.81869399,10.8268491 L3.96601355,11.1497386 C3.39729596,12.2370198 2.54266369,13.4888574 1.54269452,14.2501373 L0.537050988,13.5584141 Z M18.0457552,10.6020711 L0.361694871,10.6729091 L0.357667904,9.67001123 L8.50385645,9.63742941 L8.49818208,8.20474431 L1.90750114,8.23110264 L1.90365722,7.22820476 L8.49415512,7.20184643 L8.48921293,5.95330356 L2.10317514,5.97874667 L2.08340639,1.00525914 L16.287984,0.948332469 L16.3079358,5.92200304 L9.79907553,5.94799528 L9.80420076,7.19653816 L16.6608446,7.16908156 L16.6648716,8.17197944 L9.80804469,8.19943603 L9.81390209,9.63212113 L18.0417282,9.59935626 L18.0457552,10.6020711 Z M18.4619972,17.3959308 L18.4663902,18.5421521 L0.00475914305,18.6161019 L0,17.4698806 L8.51465604,17.4356514 L8.50751733,15.6755006 L2.16266443,15.7009437 L2.15827137,14.5957243 L8.50312427,14.5702812 L8.49799904,13.2604186 L9.84886349,13.2547442 L9.85417176,14.5647899 L16.2808453,14.5391637 L16.2852384,15.6443832 L9.85856482,15.6700093 L9.86552049,17.4303431 L18.4619972,17.3959308 Z" id="Fill-25" fill="#2F54DF"></path>
                    <path d="M15.1602502,10.6956066 C16.1662598,11.4488325 17.4190127,12.5287919 18.0360539,13.2629812 L16.9537149,13.9224886 C16.3776756,13.1674322 15.1655584,12.046471 14.1390479,11.2522433 L15.1602502,10.6956066 Z M11.3492749,4.59090734 C11.7353146,3.89350984 12.2220285,2.76577598 12.4852457,2.04842669 L13.5512937,2.45350298 C13.1044834,3.35590972 12.6377213,4.34013711 12.2308146,4.955897 L11.3492749,4.59090734 Z M11.5899777,13.6164391 C11.3009513,12.962606 10.6624939,12.0032726 10.0659536,11.2890351 L11.0878881,10.8962227 C11.7250641,11.5689093 12.3631554,12.487607 12.6931836,13.1002551 L11.5899777,13.6164391 Z M14.9407805,1.89521889 L9.78296766,1.91571982 L9.79541465,5.00660018 L14.9532275,4.98609926 L14.9407805,1.89521889 Z M6.6571259,13.6155239 C6.55242475,12.9814596 6.22111518,12.0208449 5.89053778,11.2853742 L7.01534294,11.0351531 C7.38673914,11.7501228 7.73836659,12.6902366 7.84306774,13.3038 L6.6571259,13.6155239 Z M5.62860187,2.09620116 C6.12282057,2.8516236 6.61832058,3.89350984 6.76420662,4.54789201 L5.82445891,4.96102223 C5.65788891,4.28613914 5.20339074,3.22375198 4.708989,2.42732769 L5.62860187,2.09620116 Z M8.48536901,5.01172541 L8.47310506,1.92102809 L3.37661199,1.94152901 L3.38887594,5.03222633 L8.48536901,5.01172541 Z M0.537050988,13.5584141 C1.41474679,12.9406408 2.31111308,11.8932632 2.81869399,10.8268491 L3.96601355,11.1497386 C3.39729596,12.2370198 2.54266369,13.4888574 1.54269452,14.2501373 L0.537050988,13.5584141 Z M18.0457552,10.6020711 L0.361694871,10.6729091 L0.357667904,9.67001123 L8.50385645,9.63742941 L8.49818208,8.20474431 L1.90750114,8.23110264 L1.90365722,7.22820476 L8.49415512,7.20184643 L8.48921293,5.95330356 L2.10317514,5.97874667 L2.08340639,1.00525914 L16.287984,0.948332469 L16.3079358,5.92200304 L9.79907553,5.94799528 L9.80420076,7.19653816 L16.6608446,7.16908156 L16.6648716,8.17197944 L9.80804469,8.19943603 L9.81390209,9.63212113 L18.0417282,9.59935626 L18.0457552,10.6020711 Z M18.4619972,17.3959308 L18.4663902,18.5421521 L0.00475914305,18.6161019 L0,17.4698806 L8.51465604,17.4356514 L8.50751733,15.6755006 L2.16266443,15.7009437 L2.15827137,14.5957243 L8.50312427,14.5702812 L8.49799904,13.2604186 L9.84886349,13.2547442 L9.85417176,14.5647899 L16.2808453,14.5391637 L16.2852384,15.6443832 L9.85856482,15.6700093 L9.86552049,17.4303431 L18.4619972,17.3959308 Z" id="Stroke-27" stroke="#2F54DF"></path>
                    <path d="M41.0431791,14.8805956 L34.7186441,14.9060387 L34.7340198,18.7539889 L33.4036563,18.7592972 L33.3480109,4.86186732 L34.6785575,4.856376 L34.684781,6.43238452 L40.4770241,6.40932098 L40.4819663,7.61686201 L34.6895401,7.63992555 L34.6990584,9.99368787 L40.0615143,9.97227173 L40.0662735,11.1594949 L34.7038175,11.180911 L34.7137019,13.6574958 L41.0382369,13.6322358 L41.0431791,14.8805956 Z M35.4079877,3.03197682 L32.153649,3.04497294 L32.1485238,1.79643006 L35.4030455,1.7832509 L35.3966389,0.207242375 L36.7475034,0.2019341 L36.7537269,1.77794262 L40.7653184,1.76183476 L40.7704436,3.01037763 L36.7588521,3.02630245 L36.7654417,4.66399679 L35.4143942,4.66930507 L35.4079877,3.03197682 Z M27.973291,1.81308707 L30.966975,1.79972486 L30.9719172,3.04808469 L27.9782332,3.06162994 L27.9848228,4.69895819 L26.6544592,4.70426647 L26.6478697,3.06693821 L22.8202373,3.08213086 L22.8152952,1.83377103 L26.6429275,1.81857838 L26.6363379,0.221885892 L27.9668845,0.216577617 L27.973291,1.81308707 Z M28.8451294,4.90030655 L30.155175,4.89499828 L30.1787877,10.810247 C30.192516,14.2690457 29.5082977,17.1785295 24.3986254,19 C24.2540207,18.6732665 23.8835397,18.16294 23.5961607,17.9388941 C26.1919071,17.0278843 27.5380125,15.8353529 28.2282712,14.440924 C26.3262614,14.7962123 24.4242516,15.1518668 22.9719808,15.444371 L22.7623954,14.1965603 C24.2556681,13.9858767 26.4238238,13.6089892 28.6532993,13.2110516 C28.7940601,12.5758891 28.8526342,11.9002738 28.8705725,11.2246585 L23.6717579,11.2455255 L23.6669987,10.0583024 L28.8656303,10.0376184 L28.856112,7.66335518 L23.1866914,7.68605263 L23.1819322,6.4785116 L28.8513529,6.45581415 L28.8451294,4.90030655 Z" id="Fill-29" fill="#2F54DF"></path>
                    <path d="M41.0431791,14.8805956 L34.7186441,14.9060387 L34.7340198,18.7539889 L33.4036563,18.7592972 L33.3480109,4.86186732 L34.6785575,4.856376 L34.684781,6.43238452 L40.4770241,6.40932098 L40.4819663,7.61686201 L34.6895401,7.63992555 L34.6990584,9.99368787 L40.0615143,9.97227173 L40.0662735,11.1594949 L34.7038175,11.180911 L34.7137019,13.6574958 L41.0382369,13.6322358 L41.0431791,14.8805956 Z M35.4079877,3.03197682 L32.153649,3.04497294 L32.1485238,1.79643006 L35.4030455,1.7832509 L35.3966389,0.207242375 L36.7475034,0.2019341 L36.7537269,1.77794262 L40.7653184,1.76183476 L40.7704436,3.01037763 L36.7588521,3.02630245 L36.7654417,4.66399679 L35.4143942,4.66930507 L35.4079877,3.03197682 Z M27.973291,1.81308707 L30.966975,1.79972486 L30.9719172,3.04808469 L27.9782332,3.06162994 L27.9848228,4.69895819 L26.6544592,4.70426647 L26.6478697,3.06693821 L22.8202373,3.08213086 L22.8152952,1.83377103 L26.6429275,1.81857838 L26.6363379,0.221885892 L27.9668845,0.216577617 L27.973291,1.81308707 Z M28.8451294,4.90030655 L30.155175,4.89499828 L30.1787877,10.810247 C30.192516,14.2690457 29.5082977,17.1785295 24.3986254,19 C24.2540207,18.6732665 23.8835397,18.16294 23.5961607,17.9388941 C26.1919071,17.0278843 27.5380125,15.8353529 28.2282712,14.440924 C26.3262614,14.7962123 24.4242516,15.1518668 22.9719808,15.444371 L22.7623954,14.1965603 C24.2556681,13.9858767 26.4238238,13.6089892 28.6532993,13.2110516 C28.7940601,12.5758891 28.8526342,11.9002738 28.8705725,11.2246585 L23.6717579,11.2455255 L23.6669987,10.0583024 L28.8656303,10.0376184 L28.856112,7.66335518 L23.1866914,7.68605263 L23.1819322,6.4785116 L28.8513529,6.45581415 L28.8451294,4.90030655 Z" id="Stroke-31" stroke="#2F54DF"></path>
                    <path d="M51.9857669,9.64971166 C51.4774538,10.4909817 50.9894586,11.2912499 50.5214152,11.9888305 C52.0379344,12.4742631 53.6778253,13.061102 55.2767143,13.6893089 C56.2959031,12.6206982 57.0273468,11.287406 57.5733669,9.62738029 L51.9857669,9.64971166 Z M47.6750816,6.55590259 L46.3037162,6.56139391 L46.2876083,2.52930148 L53.9835087,2.4985501 C53.6941162,1.82421614 53.2817181,1.02760881 52.9310059,0.373958817 L54.3215909,0 C54.7954917,0.79624124 55.3111266,1.79730868 55.6616558,2.49177747 L62.7434437,2.46340566 L62.7597346,6.49549808 L61.3475504,6.50117244 L61.3365678,3.73794077 L47.6640989,3.79267092 L47.6750816,6.55590259 Z M59.1493754,9.6211568 C58.5839526,11.5270105 57.7712374,13.0448111 56.6912781,14.277063 C59.1722559,15.3315793 61.4897755,16.4889663 63.090495,17.5264595 L62.0720384,18.7177096 C60.5324556,17.6595324 58.1741172,16.4613267 55.6109526,15.3255389 C53.5507928,17.0939266 50.7095844,18.1284911 46.8848808,18.819299 C46.740276,18.4718816 46.2669243,17.8392816 45.9791792,17.5129142 C49.55897,17.0073468 52.1959014,16.1576567 54.13452,14.6965998 C52.2074331,13.906216 50.1985256,13.157017 48.3746756,12.611546 C49.0059942,11.8109117 49.6773995,10.7644494 50.3277547,9.65630124 L45.8043722,9.67442259 L45.799247,8.36455999 L51.0593814,8.34350994 C51.7503723,7.0922214 52.3593596,5.82079803 52.8052547,4.69324722 L54.2798569,4.97385361 C53.8747806,6.03971861 53.3064291,7.18831948 52.6968927,8.33692035 L57.9160252,8.31605334 C58.0772869,7.68089079 58.1973638,6.98440851 58.2967567,6.26779139 L59.8734974,6.40470828 C59.7737384,7.06018871 59.6329776,7.71566914 59.4922168,8.30982985 L63.3399839,8.29445415 L63.3454752,9.60431675 L59.1493754,9.6211568 Z" id="Fill-33" fill="#2F54DF"></path>
                    <path d="M51.9857669,9.64971166 C51.4774538,10.4909817 50.9894586,11.2912499 50.5214152,11.9888305 C52.0379344,12.4742631 53.6778253,13.061102 55.2767143,13.6893089 C56.2959031,12.6206982 57.0273468,11.287406 57.5733669,9.62738029 L51.9857669,9.64971166 Z M47.6750816,6.55590259 L46.3037162,6.56139391 L46.2876083,2.52930148 L53.9835087,2.4985501 C53.6941162,1.82421614 53.2817181,1.02760881 52.9310059,0.373958817 L54.3215909,0 C54.7954917,0.79624124 55.3111266,1.79730868 55.6616558,2.49177747 L62.7434437,2.46340566 L62.7597346,6.49549808 L61.3475504,6.50117244 L61.3365678,3.73794077 L47.6640989,3.79267092 L47.6750816,6.55590259 Z M59.1493754,9.6211568 C58.5839526,11.5270105 57.7712374,13.0448111 56.6912781,14.277063 C59.1722559,15.3315793 61.4897755,16.4889663 63.090495,17.5264595 L62.0720384,18.7177096 C60.5324556,17.6595324 58.1741172,16.4613267 55.6109526,15.3255389 C53.5507928,17.0939266 50.7095844,18.1284911 46.8848808,18.819299 C46.740276,18.4718816 46.2669243,17.8392816 45.9791792,17.5129142 C49.55897,17.0073468 52.1959014,16.1576567 54.13452,14.6965998 C52.2074331,13.906216 50.1985256,13.157017 48.3746756,12.611546 C49.0059942,11.8109117 49.6773995,10.7644494 50.3277547,9.65630124 L45.8043722,9.67442259 L45.799247,8.36455999 L51.0593814,8.34350994 C51.7503723,7.0922214 52.3593596,5.82079803 52.8052547,4.69324722 L54.2798569,4.97385361 C53.8747806,6.03971861 53.3064291,7.18831948 52.6968927,8.33692035 L57.9160252,8.31605334 C58.0772869,7.68089079 58.1973638,6.98440851 58.2967567,6.26779139 L59.8734974,6.40470828 C59.7737384,7.06018871 59.6329776,7.71566914 59.4922168,8.30982985 L63.3399839,8.29445415 L63.3454752,9.60431675 L59.1493754,9.6211568 Z" id="Stroke-35" stroke="#2F54DF"></path>
                    <path d="M76.4049848,0.57777827 L77.8988066,0.571920863 C79.8341304,3.42978626 83.4069655,6.21937626 86.6257936,7.55742764 C86.3404281,7.84517275 85.8921534,8.39961291 85.7094755,8.74831166 C82.6334217,7.30757263 79.3069638,4.61883985 77.1673629,1.86421124 C75.069496,4.49253951 71.5812272,7.41318899 68.7218975,8.98004532 C68.5362909,8.63281092 68.1866769,8.18398712 67.8579299,7.8783037 C70.452212,6.61932732 73.5742099,4.19161524 75.6116722,1.84993382 L76.4049848,0.57777827 Z" id="Fill-37" fill="#2F54DF"></path>
                    <path d="M76.4049848,0.57777827 L77.8988066,0.571920863 C79.8341304,3.42978626 83.4069655,6.21937626 86.6257936,7.55742764 C86.3404281,7.84517275 85.8921534,8.39961291 85.7094755,8.74831166 C82.6334217,7.30757263 79.3069638,4.61883985 77.1673629,1.86421124 C75.069496,4.49253951 71.5812272,7.41318899 68.7218975,8.98004532 C68.5362909,8.63281092 68.1866769,8.18398712 67.8579299,7.8783037 C70.452212,6.61932732 73.5742099,4.19161524 75.6116722,1.84993382 L76.4049848,0.57777827 Z" id="Stroke-39" stroke="#2F54DF"></path>
                    <polygon id="Fill-41" fill="#2F54DF" points="77.8822045 17.2242356 85.9668902 17.1903725 85.9718324 18.4899846 68.6357387 18.562287 68.6307965 17.2626748 76.4903382 17.22991 76.4758777 13.5020366 70.6428157 13.5263815 70.6378735 12.2694186 76.4711186 12.2450737 76.4581224 8.83661207 71.5047697 8.85711299 71.5000106 7.578917 82.9821754 7.53114252 82.9873006 8.80933852 77.8499887 8.83075466 77.8631679 12.2392163 83.7577326 12.2146884 83.7624918 13.4716513 77.867927 13.4961792"></polygon>
                    <polygon id="Stroke-43" stroke="#2F54DF" points="77.8822045 17.2242356 85.9668902 17.1903725 85.9718324 18.4899846 68.6357387 18.562287 68.6307965 17.2626748 76.4903382 17.22991 76.4758777 13.5020366 70.6428157 13.5263815 70.6378735 12.2694186 76.4711186 12.2450737 76.4581224 8.83661207 71.5047697 8.85711299 71.5000106 7.578917 82.9821754 7.53114252 82.9873006 8.80933852 77.8499887 8.83075466 77.8631679 12.2392163 83.7577326 12.2146884 83.7624918 13.4716513 77.867927 13.4961792"></polygon>
                </g>
                <g id="编组-5">
                    <path d="M7.71312457,0 C7.71312457,0 7.94469043,8.06839861 6.56891677,12.8557442 C6.08225696,15.6471654 4.21214591,21.3330361 3.422593,23.2289042 C2.63403074,25.3241419 2.04062774,26.4225319 0.362208637,30.2147634 C0.362208637,30.2147634 1.65377653,29.3130187 3.34210219,28.0112966 C3.76659833,26.937673 5.49355957,22.8816793 6.20212635,20.7272499 C6.59566449,19.5302897 7.87039122,14.4445089 8.35977534,12.2509487 C8.35977534,12.2509487 9.13719271,7.3662711 9.12884005,5.27425308 C9.12884005,5.27425308 9.11217865,1.08996937 9.11143565,0.891095163 L7.71312457,0 Z" id="Fill-1" fill="#E307F3"></path>
                    <path d="M9.70942044,0.98825376 C9.70942044,0.98825376 9.93330872,7.16400389 9.25025134,10.7531509 C9.25371864,11.5501338 7.98295452,17.6320192 7.59065471,19.2274709 C6.80481676,22.0201304 5.42730945,26.309176 5.42730945,26.309176 C5.42730945,26.309176 7.21494838,24.9073976 7.90939831,24.2072514 C9.39463947,19.4892518 9.87164038,16.6279893 10.2597299,14.0366806 C10.4534032,12.6410938 10.9361004,8.75375927 10.9252031,6.06412796 C10.9148013,3.4718286 10.9108386,2.47770521 10.907619,1.68072237 L9.70942044,0.98825376 Z" id="Fill-3" fill="#E307F3"></path>
                    <path d="M11.407405,2.07733154 C11.407405,2.07733154 11.4239985,6.26136759 11.4277134,7.15791136 C11.4314284,8.05445513 11.34326,10.9439513 11.0534931,13.2363295 C10.7637262,15.5287077 9.79362621,22.008094 9.49717237,22.6071932 C9.49717237,22.6071932 10.8873105,21.5055837 11.3833816,21.00555 C11.5773025,19.6099632 12.1612943,15.125263 12.2534253,14.3272896 C12.3314395,13.6504238 12.5399726,11.2379285 12.5781128,8.44824093 C12.6008979,6.78146204 12.5139679,4.76275257 12.4064817,2.77054315 C12.0067519,2.47334632 11.407405,2.07733154 11.407405,2.07733154" id="Fill-5" fill="#E307F3"></path>
                    <path d="M13.2317477,8.04449903 C13.2317477,8.04449903 13.2518085,8.94525309 13.2575048,9.21545454 C13.491795,9.4353802 14.3831378,10.361396 14.9733212,11.0107711 C15.6043691,11.6859032 16.7834975,13.2778875 17.2295404,13.9458374 C17.2295404,13.9458374 17.5589336,13.637991 17.8259154,13.2716959 C17.4455035,12.6495639 16.0766644,10.9097241 15.4490838,10.1803536 C14.8212555,9.45098303 13.8031086,8.49896252 13.2317477,8.04449903" id="Fill-7" fill="#E307F3"></path>
                    <path d="M13.1758747,5.52310589 C13.1758747,5.52310589 13.1998981,6.60366403 13.2038608,6.78396344 C13.5803101,7.22604373 15.1254859,8.6478829 18.2410994,12.7234421 L18.836236,11.9556836 C17.1763917,9.7507308 16.5171101,8.98990692 15.8013611,8.16791002 C14.9548454,7.19558105 13.3611274,5.60929297 13.1758747,5.52310589" id="Fill-9" fill="#E307F3"></path>
                    <path d="M13.0572437,3.23607722 C13.0572437,3.23607722 13.0773045,4.13658361 13.0830007,4.40678507 C13.3640994,4.67079492 15.3303041,6.5193592 15.9895857,7.31559904 C16.366035,7.75767933 18.2061788,10.0763099 19.1522553,11.4067611 L19.7795883,10.6625307 C19.7795883,10.6625307 18.3258005,8.52940043 16.8041527,6.84701871 C15.2067197,5.08043121 13.7086001,3.67221357 13.0572437,3.23607722" id="Fill-11" fill="#E307F3"></path>
                    <g id="编组" transform="translate(0.000000, 0.657870)">
                        <mask id="mask-2" fill="white">
                            <use xlink:href="#path-1"></use>
                        </mask>
                        <g id="Clip-14"></g>
                        <path d="M26.4939829,-3.51951748e-15 C26.4939829,-3.51951748e-15 22.0583202,9.67400449 17.6070547,14.5143502 C15.3904617,17.5242111 9.81925944,23.1328106 7.76216205,24.904599 C5.58965322,26.9121636 4.23443567,27.8574972 -0.000123832013,31.34213 C-0.000123832013,31.34213 2.08000632,31.0439426 4.87142754,30.5089883 C6.00919607,29.4920798 10.455756,25.7248623 12.5665965,23.5996573 C13.7395333,22.4187952 18.2440466,17.1658412 20.1141576,14.8638041 C20.1141576,14.8638041 23.9031696,9.55264912 25.1152373,7.07526587 C25.1152373,7.07526587 27.5396204,2.12025172 27.6550319,1.88398024 L26.4939829,-3.51951748e-15 Z" id="Fill-13" fill="#2F54DF" mask="url(#mask-2)"></path>
                    </g>
                    <path d="M28.3177313,3.0123623 C28.3177313,3.0123623 24.9789726,10.4447597 22.0604997,14.2805801 C21.5988539,15.2246754 16.5170358,21.6575008 15.1132761,23.3101628 C12.5365796,26.1436869 8.43179604,30.3760175 8.43179604,30.3760175 C8.43179604,30.3760175 11.3425913,29.7999509 12.5871031,29.3853614 C17.1295089,24.6918804 19.3750787,21.5936035 21.3561432,18.7613177 C22.404505,17.2272867 25.2982115,12.8805354 26.8144106,9.73421161 C28.3162453,6.66441602 28.7726901,5.52788581 29.2345835,4.58403821 L28.3177313,3.0123623 Z" id="Fill-15" fill="#2F54DF"></path>
                    <path d="M29.8436141,5.36759765 C29.8436141,5.36759765 27.419231,10.3226118 26.8996318,11.3843475 C26.3802804,12.4460832 24.5862022,15.8088653 22.8983718,18.3459356 C21.2105415,20.8832535 16.316205,27.9461362 15.6096196,28.4778708 C15.6096196,28.4778708 17.8673248,28.0209307 18.7559434,27.7244769 C19.8043052,26.1904459 23.1272134,21.2369177 23.7040229,20.3485469 C24.193407,19.5949052 25.853499,16.867629 27.5294414,13.5932629 C28.5304994,11.6369648 29.605609,9.19920778 30.6401016,6.78076858 C30.3329982,6.19182353 29.8436141,5.36759765 29.8436141,5.36759765" id="Fill-17" fill="#2F54DF"></path>
                    <path d="M28.0501055,13.8984593 C28.0501055,13.8984593 27.4728007,15.0783307 27.2996835,15.4319949 C27.4554642,15.8740752 27.9899232,17.6706301 28.3193163,18.9067212 C28.6846208,20.2039854 29.2279956,23.833254 29.3582669,24.9972749 C29.3582669,24.9972749 29.9912962,24.8192045 30.5822225,24.523246 C30.5061897,23.462501 29.8161977,19.5149841 29.4917578,18.1496123 C29.1673179,16.7844882 28.4859942,14.8695499 28.0501055,13.8984593" id="Fill-19" fill="#2F54DF"></path>
                    <path d="M29.6663362,10.5948936 C29.6663362,10.5948936 28.9736199,12.0107889 28.8582085,12.246565 C29.0499004,13.0715339 30.1812297,16.7260642 31.4874098,24.0913447 L32.7725384,23.495465 C32.0988922,19.5278874 31.6726625,17.3231822 31.2959655,15.778997 C30.8504179,13.9527225 29.8486169,10.8304221 29.6663362,10.5948936" id="Fill-21" fill="#2F54DF"></path>
                    <path d="M31.0074369,7.64930155 C31.0074369,7.64930155 30.430132,8.82917296 30.2570149,9.18308486 C30.4440012,9.71333353 31.7529056,13.4240836 32.0736305,14.8974369 C32.2653225,15.7221581 33.2443384,20.7059013 33.5789325,23.0629198 L34.8229489,22.5485216 C34.8229489,22.5485216 34.2870039,18.0343495 33.4427172,14.8360162 C32.5563277,11.4779397 31.5592323,8.65035954 31.0074369,7.64930155" id="Fill-23" fill="#2F54DF"></path>
                </g>
            </g>
        </g>
    </g>
</svg>