<?xml version="1.0" encoding="UTF-8"?>
<svg width="300px" height="180px" viewBox="0 0 300 180" version="1.1" xmlns="http://www.w3.org/2000/svg" xmlns:xlink="http://www.w3.org/1999/xlink">
    <title>编组 4</title>
    <defs>
        <path d="M16,0 L284,0 C292.836556,-1.623249e-15 300,7.163444 300,16 L300,180 L300,180 L0,180 L0,16 C-1.082166e-15,7.163444 7.163444,1.623249e-15 16,0 Z" id="path-1"></path>
        <path d="M4.07107173,-57.9596531 C25.4219451,-11.2993816 51.1017049,18.485986 81.1103513,31.3964496 C126.123321,50.7621452 173.976001,94.3453686 173.976001,126.937192 C173.976001,148.665074 173.976001,87.0327922 173.976001,-57.9596531 L4.07107173,-57.9596531 Z" id="path-3"></path>
        <filter x="-12.9%" y="-7.4%" width="125.9%" height="129.6%" filterUnits="objectBoundingBox" id="filter-4">
            <feOffset dx="0" dy="20" in="SourceAlpha" result="shadowOffsetOuter1"></feOffset>
            <feGaussianBlur stdDeviation="4" in="shadowOffsetOuter1" result="shadowBlurOuter1"></feGaussianBlur>
            <feColorMatrix values="0 0 0 0 0.423529412   0 0 0 0 0.529411765   0 0 0 0 1  0 0 0 1 0" type="matrix" in="shadowBlurOuter1"></feColorMatrix>
        </filter>
        <linearGradient x1="50%" y1="0%" x2="50%" y2="100%" id="linearGradient-5">
            <stop stop-color="#FDFDFF" offset="0%"></stop>
            <stop stop-color="#FAFBFF" offset="100%"></stop>
        </linearGradient>
        <path d="M250.487013,209 C303.223034,209 345.974026,170.944204 345.974026,124 C345.974026,77.0557963 303.223034,-1 250.487013,-1 C197.750992,-1 65,77.0557963 65,124 C65,170.944204 197.750992,209 250.487013,209 Z" id="path-6"></path>
        <filter x="-2.5%" y="-2.4%" width="105.0%" height="106.7%" filterUnits="objectBoundingBox" id="filter-7">
            <feOffset dx="0" dy="2" in="SourceAlpha" result="shadowOffsetOuter1"></feOffset>
            <feGaussianBlur stdDeviation="2" in="shadowOffsetOuter1" result="shadowBlurOuter1"></feGaussianBlur>
            <feColorMatrix values="0 0 0 0 0.216561212   0 0 0 0 0.276560083   0 0 0 0 0.543221736  0 0 0 1 0" type="matrix" in="shadowBlurOuter1"></feColorMatrix>
        </filter>
        <path d="M0,16 L47,16 C49.209139,16 51,17.790861 51,20 L51,38 C51,40.209139 49.209139,42 47,42 L0,42 L0,42 L0,16 Z" id="path-8"></path>
        <filter x="-7.8%" y="-23.1%" width="131.4%" height="161.5%" filterUnits="objectBoundingBox" id="filter-9">
            <feOffset dx="4" dy="2" in="SourceAlpha" result="shadowOffsetOuter1"></feOffset>
            <feGaussianBlur stdDeviation="2" in="shadowOffsetOuter1" result="shadowBlurOuter1"></feGaussianBlur>
            <feColorMatrix values="0 0 0 0 0   0 0 0 0 0   0 0 0 0 0  0 0 0 0.08 0" type="matrix" in="shadowBlurOuter1"></feColorMatrix>
        </filter>
    </defs>
    <g id="模版" stroke="none" stroke-width="1" fill="none" fill-rule="evenodd">
        <g id="编组-4">
            <g id="椭圆形备份-5-+-Warning-rafiki-+-编组-蒙版">
                <g id="椭圆形备份-5-+-Warning-rafiki-蒙版">
                    <g id="蒙版">
                        <mask id="mask-2" fill="white">
                            <use xlink:href="#path-1"></use>
                        </mask>
                        <use fill="#6C87FF" xlink:href="#path-1"></use>
                        <g id="路径-7备份-8" opacity="0.106440226" mask="url(#mask-2)" transform="translate(89.023536, 36.612539) scale(-1, -1) rotate(108.000000) translate(-89.023536, -36.612539) ">
                            <use fill="black" fill-opacity="1" filter="url(#filter-4)" xlink:href="#path-3"></use>
                            <use fill="#FFFFFF" fill-rule="evenodd" xlink:href="#path-3"></use>
                        </g>
                    </g>
                    <g id="椭圆形备份-5">
                        <use fill="black" fill-opacity="1" filter="url(#filter-7)" xlink:href="#path-6"></use>
                        <use fill="url(#linearGradient-5)" fill-rule="evenodd" xlink:href="#path-6"></use>
                    </g>
                    <g id="Warning-rafiki" transform="translate(114.000000, 40.000000)" fill-rule="nonzero">
                        <g id="freepik--background-complete--inject-117">
                            <rect id="矩形" fill="#EBEBEB" x="0" y="122.848236" width="188" height="1"></rect>
                            <rect id="矩形" fill="#EBEBEB" x="156.70928" y="128.885586" width="12.45312" height="1"></rect>
                            <rect id="矩形" fill="#EBEBEB" x="121.27128" y="129.906194" width="3.26744" height="1"></rect>
                            <rect id="矩形" fill="#EBEBEB" x="149.11784" y="125.40351" width="7.21544" height="1"></rect>
                            <rect id="矩形" fill="#EBEBEB" x="19.72496" y="126.033886" width="16.23944" height="1"></rect>
                            <rect id="矩形" fill="#EBEBEB" x="39.31456" y="126.033886" width="2.38008" height="1"></rect>
                            <rect id="矩形" fill="#EBEBEB" x="49.43272" y="127.61733" width="35.22368" height="1"></rect>
                            <path d="M89.112,106.11326 L16.51016,106.11326 C15.3258954,106.11119 14.36696,105.152554 14.36696,103.970733 L14.36696,2.12376609 C14.3772645,0.949275339 15.3331959,0.00201196434 16.51016,0 L89.112,0 C90.2977333,0 91.25896,0.959242135 91.25896,2.14252728 L91.25896,103.970733 C91.25896,105.154018 90.2977333,106.11326 89.112,106.11326 Z M16.51016,0.0750447382 C15.3778101,0.0771143606 14.46096,0.993752253 14.46096,2.12376609 L14.46096,103.970733 C14.46096,105.100746 15.3778101,106.017384 16.51016,106.019454 L89.112,106.019454 C90.2449602,106.017389 91.1628907,105.101354 91.16496,103.970733 L91.16496,2.12376609 C91.1628907,0.993145015 90.2449602,0.0771098047 89.112,0.0750447382 L16.51016,0.0750447382 Z" id="形状" fill="#EBEBEB"></path>
                            <path d="M170.44456,106.11326 L97.83896,106.11326 C96.6540851,106.111194 95.6940697,105.153161 95.692,103.970733 L95.692,2.12376609 C95.7043507,0.948670688 96.6613703,0.00198984015 97.83896,0 L170.44456,0 C171.620058,0.00406393969 172.573714,0.950733405 172.584,2.12376609 L172.584,103.970733 C172.584,105.151093 171.627355,106.109125 170.44456,106.11326 Z M97.83896,0.0750447382 C96.7059998,0.0771098047 95.7880693,0.993145015 95.786,2.12376609 L95.786,103.970733 C95.7880693,105.101354 96.7059998,106.017389 97.83896,106.019454 L170.44456,106.019454 C171.57752,106.017389 172.495451,105.101354 172.49752,103.970733 L172.49752,2.12376609 C172.495451,0.993145015 171.57752,0.0771098047 170.44456,0.0750447382 L97.83896,0.0750447382 Z" id="形状" fill="#EBEBEB"></path>
                            <rect id="矩形" fill="#E6E6E6" x="38.08504" y="7.9397333" width="109.71304" height="51.2255383"></rect>
                            <rect id="矩形" fill="#F0F0F0" x="38.85584" y="7.9397333" width="110.59288" height="51.2255383"></rect>
                            <rect id="矩形" fill="#E6E6E6" x="38.08504" y="59.1652716" width="109.71304" height="2.61155689"></rect>
                            <rect id="矩形" fill="#F0F0F0" x="41.60816" y="59.1652716" width="110.59288" height="2.61155689"></rect>
                            <polygon id="矩形" fill="#FAFAFA" transform="translate(94.154160, 33.554379) rotate(90.000000) translate(-94.154160, -33.554379) " points="70.8508927 -19.4277814 117.457427 -19.4277814 117.457427 86.5365386 70.8508927 86.5365386"></polygon>
                            <polygon id="路径" fill="#FFFFFF" points="52.53848 56.8576459 58.97936 10.2511112 69.02984 10.2511112 62.58896 56.8576459"></polygon>
                            <path d="M42.23984,54.5575788 C42.14847,54.5575788 42.0744,54.4836076 42.0744,54.3924263 L42.0744,11.752006 C42.0744,11.6608247 42.14847,11.5869076 42.23984,11.5869076 C42.33121,11.5869076 42.40528,11.6608247 42.40528,11.752006 L42.40528,54.4074352 C42.3992709,54.493587 42.3263504,54.5597415 42.23984,54.5575788 Z" id="路径" fill="#F0F0F0"></path>
                            <polygon id="路径" fill="#FFFFFF" points="64.7472 56.8576459 71.18808 10.2511112 75.106 10.2511112 68.66512 56.8576459"></polygon>
                            <polygon id="矩形" fill="#E6E6E6" transform="translate(146.989680, 33.554379) rotate(90.000000) translate(-146.989680, -33.554379) " points="123.686413 33.5543786 170.292947 33.5543786 170.292947 33.5543786 123.686413 33.5543786"></polygon>
                            <polygon id="路径" fill="#EBEBEB" opacity="0.6" points="149.99392 13.7331871 40.28464 13.7331871 40.07032 11.1478959 149.78336 11.1478959"></polygon>
                            <polygon id="路径" fill="#EBEBEB" opacity="0.6" points="149.99392 17.9694626 40.28464 17.9694626 40.07032 15.3841713 149.78336 15.3841713"></polygon>
                            <polygon id="路径" fill="#EBEBEB" opacity="0.6" points="149.99392 22.2094903 40.28464 22.2094903 40.07032 19.624199 149.78336 19.624199"></polygon>
                            <polygon id="路径" fill="#EBEBEB" opacity="0.6" points="149.99392 26.4457657 40.28464 26.4457657 40.07032 23.8604745 149.78336 23.8604745"></polygon>
                            <polygon id="路径" fill="#EBEBEB" opacity="0.6" points="149.99392 30.6857935 40.28464 30.6857935 40.07032 28.1005022 149.78336 28.1005022"></polygon>
                            <polygon id="路径" fill="#EBEBEB" opacity="0.6" points="149.99392 34.9220689 40.28464 34.9220689 40.07032 32.3367777 149.78336 32.3367777"></polygon>
                            <rect id="矩形" fill="#E6E6E6" x="148.32072" y="72.0429487" width="16.74328" height="50.8052878"></rect>
                            <polygon id="路径" fill="#FAFAFA" points="160.59336 122.848236 165.064 122.848236 165.064 115.835306 155.90464 115.835306"></polygon>
                            <rect id="矩形" fill="#E6E6E6" x="102.67056" y="72.0429487" width="16.74328" height="50.8052878"></rect>
                            <rect id="矩形" fill="#FAFAFA" x="115.51096" y="72.0429487" width="49.55304" height="48.3925994"></rect>
                            <polygon id="路径" fill="#FAFAFA" points="119.9816 122.848236 115.51096 122.848236 115.51096 115.835306 124.67032 115.835306"></polygon>
                            <rect id="矩形" fill="#F0F0F0" x="118.97768" y="90.0761993" width="42.61584" height="12.1084685"></rect>
                            <rect id="矩形" fill="#F0F0F0" x="118.97768" y="104.773711" width="42.61584" height="12.1084685"></rect>
                            <path d="M125.67424,89.0255729 L154.912,89.0255729 L154.912,89.6146741 C154.912,90.5824397 154.125848,91.3669688 153.15608,91.3669688 L127.43392,91.3669688 C126.464152,91.3669688 125.678,90.5824397 125.678,89.6146741 L125.678,89.0255729 L125.67424,89.0255729 Z" id="路径" fill="#FAFAFA"></path>
                            <rect id="矩形" fill="#F0F0F0" x="118.97768" y="75.3749351" width="42.61584" height="12.1084685"></rect>
                            <path d="M125.67424,74.328061 L154.912,74.328061 L154.912,74.9171622 C154.912,75.8849278 154.125848,76.6694568 153.15608,76.6694568 L127.43392,76.6694568 C126.464152,76.6694568 125.678,75.8849278 125.678,74.9171622 L125.678,74.328061 L125.67424,74.328061 Z" id="路径" fill="#FAFAFA"></path>
                            <path d="M125.67424,103.723085 L154.912,103.723085 L154.912,104.312186 C154.912,105.279952 154.125848,106.064481 153.15608,106.064481 L127.43392,106.064481 C126.464152,106.064481 125.678,105.279952 125.678,104.312186 L125.678,103.723085 L125.67424,103.723085 Z" id="路径" fill="#FAFAFA"></path>
                            <path d="M20.08592,82.8756566 C21.0184,80.2003117 28.35792,83.8362293 31.36592,88.2638688 C33.35496,91.2131271 34.56944,94.3612538 35.12592,98.5900248 C35.05824,93.7646482 34.98304,88.582809 34.90784,83.6898921 C34.30248,82.4704151 32.92256,79.6562374 31.93368,77.4274086 C28.62488,69.9904751 20.75896,67.2213243 18.02168,62.5272759 C14.46096,56.3736073 14.48352,47.1431045 17.51408,43.8186226 C20.14608,40.9218957 28.86928,60.4898112 29.8544,62.6773654 C33.2384,70.1818392 34.216,75.7764244 34.84768,81.1833978 C34.77624,76.5869076 34.70856,72.3693933 34.65216,69.1124517 C34.46792,58.4936212 34.2348,55.0790856 34.12952,54.0284593 C33.75352,53.5144028 33.33616,52.9027882 33.08424,52.5951048 C30.97488,49.8822375 26.28992,46.6553137 23.9512,42.7117128 C20.53336,36.9557813 21.08608,30.0666744 23.4812,27.5001443 C26.00792,24.8172949 30.456,31.1435664 32.79096,37.4398199 C35.12592,43.7360734 34.13704,49.732148 34.7988,54.9515096 C34.93792,55.972118 35.07704,59.8594354 35.2124,65.2513999 C35.9268,59.4504416 37.34808,55.5631242 39.98008,51.9422156 C43.2212,47.4883103 46.01864,42.066328 48.68824,42.7679963 C51.35784,43.4696646 49.92152,50.6476938 47.8084,55.6831958 C45.9284,60.1671189 36.64872,64.6435375 35.28008,68.2494372 C35.44176,75.5587947 35.58464,84.8155631 35.68992,93.4344513 C36.41936,88.9805461 35.91552,88.6090746 38.916,81.8025169 C40.69824,77.750101 48.00392,72.7558737 48.87624,75.5400335 C49.74856,78.3241933 48.42128,83.5848294 45.6652,87.2695261 C43.43928,90.2450499 38.5212,90.2412977 37.35936,92.083646 C37.0924,92.5151533 36.23136,94.1661375 35.70872,95.1117012 C35.82528,105.636726 35.88168,114.923512 35.82152,118.0904 L35.34024,118.12417 C35.36656,117.306183 35.3064,111.95174 35.2124,104.867517 C34.01296,101.11528 25.944,98.9014605 23.45112,94.9803729 C20.84168,90.8679213 18.96544,86.080067 20.08592,82.8756566 Z" id="路径" fill="#E6E6E6"></path>
                            <path d="M27.6736,122.848236 L43.1648,122.848236 C44.0108776,122.847555 44.7398677,122.253338 44.90944,121.426139 L46.00736,116.015413 L24.816,116.015413 L25.944,121.426139 C26.1124099,122.247849 26.8331796,122.840475 27.6736,122.848236 L27.6736,122.848236 Z" id="路径" fill="#F0F0F0"></path>
                            <path d="M24.38736,118.112913 L46.45104,118.112913 C46.9807793,118.112417 47.4257553,117.715188 47.48504,117.189863 L47.93624,113.189979 C47.9682571,112.896702 47.8738785,112.603665 47.6766335,112.383922 C47.4793884,112.16418 47.1978618,112.038437 46.90224,112.038042 L23.93616,112.038042 C23.6405382,112.038437 23.3590116,112.16418 23.1617665,112.383922 C22.9645215,112.603665 22.8701429,112.896702 22.90216,113.189979 L23.35336,117.189863 C23.4126447,117.715188 23.8576207,118.112417 24.38736,118.112913 Z" id="路径" fill="#F0F0F0"></path>
                            <rect id="矩形" fill="#E0E0E0" x="53.62888" y="98.5412457" width="13.23896" height="24.3069907"></rect>
                            <polygon id="路径" fill="#E6E6E6" points="100.61008 122.848236 56.28344 122.848236 51.6248 89.866074 95.95144 89.866074"></polygon>
                            <polygon id="路径" fill="#F0F0F0" points="107.07728 122.848236 58.04312 122.848236 53.38824 89.866074 102.41864 89.866074"></polygon>
                            <polygon id="路径" fill="#FFFFFF" points="62.84088 117.692663 58.9192 95.0216475 97.62088 95.0216475 101.54256 117.692663"></polygon>
                            <polygon id="路径" fill="#FAFAFA" points="79.47136 117.692663 66.31888 95.0216475 70.4436 95.0216475 83.59984 117.692663"></polygon>
                            <polygon id="路径" fill="#FAFAFA" points="85.34824 117.692663 72.192 95.0216475 79.23072 95.0216475 92.3832 117.692663"></polygon>
                        </g>
                        <g id="freepik--Shadow--inject-117" transform="translate(21.000000, 132.000000)" fill="#F5F5F5">
                            <ellipse id="freepik--path--inject-117" cx="73" cy="4" rx="73" ry="4"></ellipse>
                        </g>
                        <g id="freepik--Warning--inject-117" transform="translate(28.000000, 37.000000)">
                            <path d="M0.995826562,25.3600121 C0.912157868,25.3603746 0.842057283,25.2968232 0.834274862,25.2135534 L0.000217245102,15.1867688 C-0.00418357445,15.102348 0.0587845497,15.0294698 0.142983864,15.0215334 C0.230926622,15.0150237 0.307844302,15.0802076 0.315806613,15.167992 L1.14986423,25.1947767 C1.15637678,25.2826804 1.09116396,25.359564 1.00334059,25.3675228 L0.995826562,25.3600121 Z" id="路径" fill="#DBDCDD"></path>
                            <path d="M1.49175271,31.3159988 C1.40808402,31.3163598 1.33798343,31.2528084 1.33020101,31.1695386 L1.07848092,28.1352158 C1.07431972,28.0927427 1.08755501,28.0503969 1.11516538,28.0178452 C1.14277574,27.9852936 1.18240432,27.9653148 1.22500456,27.9624697 C1.26749651,27.9583103 1.3098611,27.9715397 1.34242717,27.9991379 C1.37499325,28.026736 1.39498091,28.066347 1.39782731,28.1089283 L1.6495474,31.1432512 C1.65605994,31.2311549 1.59084713,31.3080385 1.50302376,31.3159988 L1.49175271,31.3159988 Z" id="路径" fill="#DBDCDD"></path>
                            <path d="M86.0133482,59.8494359 L8.43847583,59.8494359 C6.41557746,59.8095331 4.74191603,58.264059 4.54244994,56.2515216 L0.173039994,3.75548321 C0.0786082122,2.82804815 0.385029697,1.90446141 1.01517223,1.21720763 C1.64531476,0.529953856 2.53915654,0.144494757 3.4717003,0.157521582 L81.0428156,0.157521582 C83.0664843,0.197269357 84.7413383,1.74235462 84.9425986,3.75548321 L89.3120085,56.2440109 C89.4074969,57.1723968 89.1016833,58.0973412 88.4715441,58.786026 C87.8414049,59.4747109 86.9469592,59.861541 86.0133482,59.8494359 Z" id="路径" fill="#FFFFFF"></path>
                            <path d="M86.0133482,59.9996882 L8.43847583,59.9996882 C6.33607526,59.9651696 4.59451281,58.3585351 4.39216929,56.266543 L0.0227593428,3.77425996 C-0.0664603996,2.80582047 0.256801973,1.84464368 0.913172204,1.12673817 C1.56640302,0.403885598 2.497199,-0.00597483302 3.4717003,6.58419267e-05 L81.0428156,6.58419267e-05 C83.1544969,0.0336363321 84.90115,1.65318967 85.0928792,3.75548321 L89.4585321,56.2440109 C89.5560848,57.2122049 89.235615,58.1759931 88.5776512,58.8931927 C87.9196874,59.6103922 86.9867786,60.0128229 86.0133482,59.9996882 L86.0133482,59.9996882 Z M3.4717003,0.315170809 C2.57965974,0.301100702 1.7241345,0.669222969 1.12154147,1.32682776 C0.518948433,1.98443255 0.227005492,2.86853281 0.31956363,3.75548321 L4.68897358,56.2402556 C4.88135557,58.1792892 6.49684995,59.6664996 8.44598987,59.6992742 L86.0133482,59.6992742 C86.9032887,59.7120855 87.7564406,59.3444987 88.357926,58.6887542 C88.9594114,58.0330098 89.2519012,57.1516084 89.1617278,56.266543 L84.7923179,3.77425996 C84.6015655,1.83441435 82.9851174,0.346325841 81.0353016,0.315170809 L3.4717003,0.315170809 Z" id="形状" fill="#DBDCDD"></path>
                            <path d="M81.0428156,0.165368551 L3.4717003,0.165368551 C2.54060338,0.152241811 1.64810685,0.53669261 1.01822972,1.22222277 C0.388352583,1.90775293 0.080898766,2.82927454 0.173039994,3.75548321 L84.9425986,3.75548321 C84.7377892,1.74532043 83.0638963,0.204345591 81.0428156,0.165368551 Z" id="路径" fill="#DBDCDD"></path>
                            <path d="M5.28633917,1.96418123 C5.30791091,2.16437512 5.24247453,2.36419383 5.10664898,2.51288917 C4.97082343,2.66158451 4.77767692,2.74485003 4.57626309,2.74153869 C4.13947653,2.73232596 3.77828258,2.39869208 3.73469144,1.96418123 C3.71436255,1.7642599 3.78022837,1.56515261 3.91578381,1.41675298 C4.05133925,1.26835334 4.243738,1.18472488 4.44476752,1.18682377 C4.88291367,1.19264962 5.24601879,1.52804884 5.28633917,1.96418123 Z" id="路径" fill="#FFFFFF"></path>
                            <path d="M8.44223285,1.96418123 C8.46380459,2.16437512 8.39836821,2.36419383 8.26254267,2.51288917 C8.12671712,2.66158451 7.93357061,2.74485003 7.73215677,2.74153869 C7.30116162,2.72492312 6.9484243,2.39317656 6.90561319,1.96418123 C6.8852843,1.7642599 6.95115012,1.56515261 7.08670556,1.41675298 C7.222261,1.26835334 7.41465975,1.18472488 7.61568927,1.18682377 C8.04804501,1.20017579 8.40259791,1.53362989 8.44223285,1.96418123 Z" id="路径" fill="#FFFFFF"></path>
                            <path d="M11.5981265,1.96418123 C11.6196983,2.16437512 11.5542619,2.36419383 11.4184363,2.51288917 C11.2826108,2.66158451 11.0894643,2.74485003 10.8880505,2.74153869 C10.4512639,2.73232596 10.09007,2.39869208 10.0464788,1.96418123 C10.0261499,1.7642599 10.0920157,1.56515261 10.2275712,1.41675298 C10.3631266,1.26835334 10.5555254,1.18472488 10.7565549,1.18682377 C11.194701,1.19264962 11.5578062,1.52804884 11.5981265,1.96418123 Z" id="路径" fill="#FFFFFF"></path>
                            <path d="M79.280775,52.9695645 L14.0439441,52.9695645 C12.4356281,52.9392254 11.1040314,51.711473 10.9444057,50.1115243 L7.87868041,13.5193934 C7.80457398,12.781238 8.04961979,12.0466156 8.55207895,11.500613 C9.05453812,10.9546103 9.76650174,10.6492882 10.5085918,10.6612151 L75.7566937,10.6612151 C77.3650097,10.6916923 78.6966064,11.9194446 78.8562322,13.5193934 L81.9031724,50.1303011 C81.9714194,50.8640606 81.7247912,51.5922805 81.2246692,52.1337197 C80.7245472,52.6751589 80.0179638,52.9788994 79.280775,52.9695645 Z" id="路径" fill="#F0F0F0"></path>
                            <path d="M59.0980835,17.0531778 L38.8853358,41.3803354 C37.5932745,42.9339409 37.2066195,45.0491622 37.8655596,46.9590876 C38.5244998,48.8690131 40.133374,50.2963707 42.1088558,50.7236464 L74.907608,57.8099919 C76.9980168,58.2632191 79.167971,57.5258635 80.5489135,55.8930629 C81.9298559,54.2602623 82.2961464,51.9988094 81.5011716,50.0138852 L68.9264381,18.5966266 C68.170665,16.7000123 66.4699069,15.3426514 64.4522241,15.0257937 C62.4345414,14.708936 60.3993016,15.4795942 59.0980835,17.0531778 Z" id="路径" fill="#263238" opacity="0.1"></path>
                            <path d="M14.1040564,20.4630356 L7.06340787,39.4313087 C6.63482186,40.6084035 6.84000965,41.9229487 7.60695944,42.9135973 C8.37390924,43.904246 9.59548437,44.4326125 10.8429663,44.3132638 L31.4051164,42.2966408 C32.7380735,42.1665103 33.8928198,41.3174817 34.4140508,40.0843183 C34.9352817,38.8511548 34.7393588,37.4317344 33.9035322,36.3857198 L20.3782736,19.4490911 C19.5556412,18.4227711 18.2442839,17.9181009 16.9454778,18.1279944 C15.6466717,18.3378879 14.5612245,19.2298935 14.1040564,20.4630356 Z" id="路径" fill="#263238" opacity="0.1"></path>
                        </g>
                    </g>
                </g>
                <g id="编组" transform="translate(163.000000, 83.000000)" fill="#6C87FF" fill-rule="nonzero">
                    <path d="M47,4.8 L27.4,4.8 C26.8477153,4.8 26.4,4.35228475 26.4,3.8 L26.4,1 C26.4,0.44771525 25.9522847,-1.01453063e-16 25.4,0 L22.6,0 C22.0477153,-9.5692398e-18 21.6,0.44771525 21.6,1 L21.6,3.8 C21.6,4.35228475 21.1522847,4.8 20.6,4.8 L1,4.8 C0.44771525,4.8 -6.76353751e-17,5.24771525 0,5.8 L0,37.088 C6.76353751e-17,37.6402847 0.44771525,38.088 1,38.088 L12.2489605,38.088 C12.8012452,38.088 13.2489605,38.5357153 13.2489605,39.088 C13.2489605,39.2653914 13.2017732,39.4395901 13.1122388,39.5927282 L10.1072354,44.7324334 C9.82848175,45.2092088 9.98901009,45.8216862 10.4657855,46.1004399 C10.4672114,46.1012736 10.4686394,46.1021037 10.4700694,46.1029303 L12.8882245,47.5007078 C13.3655962,47.7766452 13.9762448,47.6141121 14.2532818,47.1373776 L19.2228602,38.5855615 C19.4018584,38.2775354 19.7312141,38.088 20.0874731,38.088 L27.8897298,38.088 C28.2453431,38.088 28.5742033,38.2768546 28.7534328,38.583999 L33.7460677,47.1398421 C34.0236106,47.6154654 34.6334543,47.7771941 35.1102151,47.5016098 L37.5311381,46.1022323 C38.009289,45.8258445 38.1728502,45.2141701 37.8964625,44.7360193 C37.8958675,44.73499 37.8952708,44.7339619 37.8946722,44.7329348 L34.8842604,39.5675288 C34.6061691,39.0903667 34.7675479,38.4781129 35.24471,38.2000216 C35.3975653,38.1109371 35.5713186,38.064 35.7482389,38.064 L47,38.064 C47.5522847,38.064 48,37.6162847 48,37.064 L48,5.8 C48,5.24771525 47.5522847,4.8 47,4.8 Z M38.4,28.56 L9.6,28.56 L9.6,23.76 L38.4,23.76 L38.4,28.56 Z M38.4,18.96 L9.6,18.96 L9.6,14.4 L38.4,14.4 L38.4,18.96 Z" id="形状"></path>
                </g>
            </g>
            <g id="矩形">
                <use fill="black" fill-opacity="1" filter="url(#filter-9)" xlink:href="#path-8"></use>
                <use fill="#FCFCFF" fill-rule="evenodd" xlink:href="#path-8"></use>
            </g>
            <text id="Demo" font-family="PingFangSC-Regular, PingFang SC" font-size="12" font-weight="normal" letter-spacing="1" fill="#6C87FF">
                <tspan x="6" y="34">Demo</tspan>
            </text>
        </g>
    </g>
</svg>