<?xml version="1.0" encoding="UTF-8"?>
<svg width="300px" height="180px" viewBox="0 0 300 180" version="1.1" xmlns="http://www.w3.org/2000/svg" xmlns:xlink="http://www.w3.org/1999/xlink">
    <title> Docker检测</title>
    <defs>
        <path d="M16,0 L284,0 C292.836556,-1.623249e-15 300,7.163444 300,16 L300,180 L300,180 L0,180 L0,16 C-1.082166e-15,7.163444 7.163444,1.623249e-15 16,0 Z" id="path-1"></path>
        <path d="M4.07107173,-57.9596531 C25.4219451,-11.2993816 51.1017049,18.485986 81.1103513,31.3964496 C126.123321,50.7621452 173.976001,94.3453686 173.976001,126.937192 C173.976001,148.665074 173.976001,87.0327922 173.976001,-57.9596531 L4.07107173,-57.9596531 Z" id="path-3"></path>
        <filter x="-12.9%" y="-7.4%" width="125.9%" height="129.6%" filterUnits="objectBoundingBox" id="filter-4">
            <feOffset dx="0" dy="20" in="SourceAlpha" result="shadowOffsetOuter1"></feOffset>
            <feGaussianBlur stdDeviation="4" in="shadowOffsetOuter1" result="shadowBlurOuter1"></feGaussianBlur>
            <feColorMatrix values="0 0 0 0 0.423529412   0 0 0 0 0.529411765   0 0 0 0 1  0 0 0 1 0" type="matrix" in="shadowBlurOuter1"></feColorMatrix>
        </filter>
        <linearGradient x1="50%" y1="0%" x2="50%" y2="100%" id="linearGradient-5">
            <stop stop-color="#FDFDFF" offset="0%"></stop>
            <stop stop-color="#FAFBFF" offset="100%"></stop>
        </linearGradient>
        <path d="M185.487013,210 C238.223034,210 280.974026,171.944204 280.974026,125 C280.974026,78.0557963 238.223034,0 185.487013,0 C132.750992,0 0,78.0557963 0,125 C0,171.944204 132.750992,210 185.487013,210 Z" id="path-6"></path>
        <filter x="-2.5%" y="-2.4%" width="105.0%" height="106.7%" filterUnits="objectBoundingBox" id="filter-8">
            <feOffset dx="0" dy="2" in="SourceAlpha" result="shadowOffsetOuter1"></feOffset>
            <feGaussianBlur stdDeviation="2" in="shadowOffsetOuter1" result="shadowBlurOuter1"></feGaussianBlur>
            <feColorMatrix values="0 0 0 0 0.216561212   0 0 0 0 0.276560083   0 0 0 0 0.543221736  0 0 0 1 0" type="matrix" in="shadowBlurOuter1"></feColorMatrix>
        </filter>
    </defs>
    <g id="模版" stroke="none" stroke-width="1" fill="none" fill-rule="evenodd">
        <g id="-Docker检测">
            <g id="路径-7备份-8-+-椭圆形备份-5-+-Warning-rafiki-蒙版">
                <mask id="mask-2" fill="white">
                    <use xlink:href="#path-1"></use>
                </mask>
                <use id="蒙版" fill="#6C87FF" xlink:href="#path-1"></use>
                <g id="路径-7备份-8" opacity="0.106440226" mask="url(#mask-2)" transform="translate(89.023536, 36.612539) scale(-1, -1) rotate(108.000000) translate(-89.023536, -36.612539) ">
                    <use fill="black" fill-opacity="1" filter="url(#filter-4)" xlink:href="#path-3"></use>
                    <use fill="#FFFFFF" fill-rule="evenodd" xlink:href="#path-3"></use>
                </g>
                <g id="Warning-rafiki" mask="url(#mask-2)">
                    <g transform="translate(65.000000, -1.000000)">
                        <mask id="mask-7" fill="white">
                            <use xlink:href="#path-6"></use>
                        </mask>
                        <g id="蒙版" stroke="none" fill="none">
                            <use fill="black" fill-opacity="1" filter="url(#filter-8)" xlink:href="#path-6"></use>
                            <use fill="url(#linearGradient-5)" fill-rule="evenodd" xlink:href="#path-6"></use>
                        </g>
                        <g id="Warning-rafiki" stroke="none" stroke-width="1" fill="none" fill-rule="evenodd" mask="url(#mask-7)">
                            <g transform="translate(49.000000, 41.000000)">
                                <g id="freepik--background-complete--inject-117">
                                    <rect id="矩形" fill="#EBEBEB" fill-rule="nonzero" x="0" y="122.848236" width="188" height="1"></rect>
                                    <rect id="矩形" fill="#EBEBEB" fill-rule="nonzero" x="156.70928" y="128.885586" width="12.45312" height="1"></rect>
                                    <rect id="矩形" fill="#EBEBEB" fill-rule="nonzero" x="121.27128" y="129.906194" width="3.26744" height="1"></rect>
                                    <rect id="矩形" fill="#EBEBEB" fill-rule="nonzero" x="149.11784" y="125.40351" width="7.21544" height="1"></rect>
                                    <rect id="矩形" fill="#EBEBEB" fill-rule="nonzero" x="19.72496" y="126.033886" width="16.23944" height="1"></rect>
                                    <rect id="矩形" fill="#EBEBEB" fill-rule="nonzero" x="39.31456" y="126.033886" width="2.38008" height="1"></rect>
                                    <rect id="矩形" fill="#EBEBEB" fill-rule="nonzero" x="49.43272" y="127.61733" width="35.22368" height="1"></rect>
                                    <path d="M89.112,106.11326 L16.51016,106.11326 C15.3258954,106.11119 14.36696,105.152554 14.36696,103.970733 L14.36696,2.12376609 C14.3772645,0.949275339 15.3331959,0.00201196434 16.51016,0 L89.112,0 C90.2977333,0 91.25896,0.959242135 91.25896,2.14252728 L91.25896,103.970733 C91.25896,105.154018 90.2977333,106.11326 89.112,106.11326 Z M16.51016,0.0750447382 C15.3778101,0.0771143606 14.46096,0.993752253 14.46096,2.12376609 L14.46096,103.970733 C14.46096,105.100746 15.3778101,106.017384 16.51016,106.019454 L89.112,106.019454 C90.2449602,106.017389 91.1628907,105.101354 91.16496,103.970733 L91.16496,2.12376609 C91.1628907,0.993145015 90.2449602,0.0771098047 89.112,0.0750447382 L16.51016,0.0750447382 Z" id="形状" fill="#EBEBEB" fill-rule="nonzero"></path>
                                    <path d="M170.44456,106.11326 L97.83896,106.11326 C96.6540851,106.111194 95.6940697,105.153161 95.692,103.970733 L95.692,2.12376609 C95.7043507,0.948670688 96.6613703,0.00198984015 97.83896,0 L170.44456,0 C171.620058,0.00406393969 172.573714,0.950733405 172.584,2.12376609 L172.584,103.970733 C172.584,105.151093 171.627355,106.109125 170.44456,106.11326 Z M97.83896,0.0750447382 C96.7059998,0.0771098047 95.7880693,0.993145015 95.786,2.12376609 L95.786,103.970733 C95.7880693,105.101354 96.7059998,106.017389 97.83896,106.019454 L170.44456,106.019454 C171.57752,106.017389 172.495451,105.101354 172.49752,103.970733 L172.49752,2.12376609 C172.495451,0.993145015 171.57752,0.0771098047 170.44456,0.0750447382 L97.83896,0.0750447382 Z" id="形状" fill="#EBEBEB" fill-rule="nonzero"></path>
                                    <rect id="矩形" fill="#E6E6E6" fill-rule="nonzero" x="38.08504" y="7.9397333" width="109.71304" height="51.2255383"></rect>
                                    <rect id="矩形" fill="#F0F0F0" fill-rule="nonzero" x="38.85584" y="7.9397333" width="110.59288" height="51.2255383"></rect>
                                    <rect id="矩形" fill="#E6E6E6" fill-rule="nonzero" x="38.08504" y="59.1652716" width="109.71304" height="2.61155689"></rect>
                                    <rect id="矩形" fill="#F0F0F0" fill-rule="nonzero" x="41.60816" y="59.1652716" width="110.59288" height="2.61155689"></rect>
                                    <polygon id="矩形" fill="#FAFAFA" fill-rule="nonzero" transform="translate(94.154160, 33.554379) rotate(90.000000) translate(-94.154160, -33.554379) " points="70.8508927 -19.4277814 117.457427 -19.4277814 117.457427 86.5365386 70.8508927 86.5365386"></polygon>
                                    <polygon id="路径" fill="#FFFFFF" fill-rule="nonzero" points="52.53848 56.8576459 58.97936 10.2511112 69.02984 10.2511112 62.58896 56.8576459"></polygon>
                                    <path d="M42.23984,54.5575788 C42.14847,54.5575788 42.0744,54.4836076 42.0744,54.3924263 L42.0744,11.752006 C42.0744,11.6608247 42.14847,11.5869076 42.23984,11.5869076 C42.33121,11.5869076 42.40528,11.6608247 42.40528,11.752006 L42.40528,54.4074352 C42.3992709,54.493587 42.3263504,54.5597415 42.23984,54.5575788 Z" id="路径" fill="#F0F0F0" fill-rule="nonzero"></path>
                                    <polygon id="路径" fill="#FFFFFF" fill-rule="nonzero" points="64.7472 56.8576459 71.18808 10.2511112 75.106 10.2511112 68.66512 56.8576459"></polygon>
                                    <polygon id="矩形" fill="#E6E6E6" fill-rule="nonzero" transform="translate(146.989680, 33.554379) rotate(90.000000) translate(-146.989680, -33.554379) " points="123.686413 33.5543786 170.292947 33.5543786 170.292947 33.5543786 123.686413 33.5543786"></polygon>
                                    <polygon id="路径" fill="#EBEBEB" fill-rule="nonzero" opacity="0.6" points="149.99392 13.7331871 40.28464 13.7331871 40.07032 11.1478959 149.78336 11.1478959"></polygon>
                                    <polygon id="路径" fill="#EBEBEB" fill-rule="nonzero" opacity="0.6" points="149.99392 17.9694626 40.28464 17.9694626 40.07032 15.3841713 149.78336 15.3841713"></polygon>
                                    <polygon id="路径" fill="#EBEBEB" fill-rule="nonzero" opacity="0.6" points="149.99392 22.2094903 40.28464 22.2094903 40.07032 19.624199 149.78336 19.624199"></polygon>
                                    <polygon id="路径" fill="#EBEBEB" fill-rule="nonzero" opacity="0.6" points="149.99392 26.4457657 40.28464 26.4457657 40.07032 23.8604745 149.78336 23.8604745"></polygon>
                                    <polygon id="路径" fill="#EBEBEB" fill-rule="nonzero" opacity="0.6" points="149.99392 30.6857935 40.28464 30.6857935 40.07032 28.1005022 149.78336 28.1005022"></polygon>
                                    <polygon id="路径" fill="#EBEBEB" fill-rule="nonzero" opacity="0.6" points="149.99392 34.9220689 40.28464 34.9220689 40.07032 32.3367777 149.78336 32.3367777"></polygon>
                                    <rect id="矩形" fill="#E6E6E6" fill-rule="nonzero" x="148.32072" y="72.0429487" width="16.74328" height="50.8052878"></rect>
                                    <polygon id="路径" fill="#FAFAFA" fill-rule="nonzero" points="160.59336 122.848236 165.064 122.848236 165.064 115.835306 155.90464 115.835306"></polygon>
                                    <rect id="矩形" fill="#E6E6E6" fill-rule="nonzero" x="102.67056" y="72.0429487" width="16.74328" height="50.8052878"></rect>
                                    <rect id="矩形" fill="#FAFAFA" fill-rule="nonzero" x="115.51096" y="72.0429487" width="49.55304" height="48.3925994"></rect>
                                    <polygon id="路径" fill="#FAFAFA" fill-rule="nonzero" points="119.9816 122.848236 115.51096 122.848236 115.51096 115.835306 124.67032 115.835306"></polygon>
                                    <rect id="矩形" fill="#F0F0F0" fill-rule="nonzero" x="118.97768" y="90.0761993" width="42.61584" height="12.1084685"></rect>
                                    <rect id="矩形" fill="#F0F0F0" fill-rule="nonzero" x="118.97768" y="104.773711" width="42.61584" height="12.1084685"></rect>
                                    <path d="M125.67424,89.0255729 L154.912,89.0255729 L154.912,89.6146741 C154.912,90.5824397 154.125848,91.3669688 153.15608,91.3669688 L127.43392,91.3669688 C126.464152,91.3669688 125.678,90.5824397 125.678,89.6146741 L125.678,89.0255729 L125.67424,89.0255729 Z" id="路径" fill="#FAFAFA" fill-rule="nonzero"></path>
                                    <rect id="矩形" fill="#F0F0F0" fill-rule="nonzero" x="118.97768" y="75.3749351" width="42.61584" height="12.1084685"></rect>
                                    <path d="M125.67424,74.328061 L154.912,74.328061 L154.912,74.9171622 C154.912,75.8849278 154.125848,76.6694568 153.15608,76.6694568 L127.43392,76.6694568 C126.464152,76.6694568 125.678,75.8849278 125.678,74.9171622 L125.678,74.328061 L125.67424,74.328061 Z" id="路径" fill="#FAFAFA" fill-rule="nonzero"></path>
                                    <path d="M125.67424,103.723085 L154.912,103.723085 L154.912,104.312186 C154.912,105.279952 154.125848,106.064481 153.15608,106.064481 L127.43392,106.064481 C126.464152,106.064481 125.678,105.279952 125.678,104.312186 L125.678,103.723085 L125.67424,103.723085 Z" id="路径" fill="#FAFAFA" fill-rule="nonzero"></path>
                                    <path d="M20.08592,82.8756566 C21.0184,80.2003117 28.35792,83.8362293 31.36592,88.2638688 C33.35496,91.2131271 34.56944,94.3612538 35.12592,98.5900248 C35.05824,93.7646482 34.98304,88.582809 34.90784,83.6898921 C34.30248,82.4704151 32.92256,79.6562374 31.93368,77.4274086 C28.62488,69.9904751 20.75896,67.2213243 18.02168,62.5272759 C14.46096,56.3736073 14.48352,47.1431045 17.51408,43.8186226 C20.14608,40.9218957 28.86928,60.4898112 29.8544,62.6773654 C33.2384,70.1818392 34.216,75.7764244 34.84768,81.1833978 C34.77624,76.5869076 34.70856,72.3693933 34.65216,69.1124517 C34.46792,58.4936212 34.2348,55.0790856 34.12952,54.0284593 C33.75352,53.5144028 33.33616,52.9027882 33.08424,52.5951048 C30.97488,49.8822375 26.28992,46.6553137 23.9512,42.7117128 C20.53336,36.9557813 21.08608,30.0666744 23.4812,27.5001443 C26.00792,24.8172949 30.456,31.1435664 32.79096,37.4398199 C35.12592,43.7360734 34.13704,49.732148 34.7988,54.9515096 C34.93792,55.972118 35.07704,59.8594354 35.2124,65.2513999 C35.9268,59.4504416 37.34808,55.5631242 39.98008,51.9422156 C43.2212,47.4883103 46.01864,42.066328 48.68824,42.7679963 C51.35784,43.4696646 49.92152,50.6476938 47.8084,55.6831958 C45.9284,60.1671189 36.64872,64.6435375 35.28008,68.2494372 C35.44176,75.5587947 35.58464,84.8155631 35.68992,93.4344513 C36.41936,88.9805461 35.91552,88.6090746 38.916,81.8025169 C40.69824,77.750101 48.00392,72.7558737 48.87624,75.5400335 C49.74856,78.3241933 48.42128,83.5848294 45.6652,87.2695261 C43.43928,90.2450499 38.5212,90.2412977 37.35936,92.083646 C37.0924,92.5151533 36.23136,94.1661375 35.70872,95.1117012 C35.82528,105.636726 35.88168,114.923512 35.82152,118.0904 L35.34024,118.12417 C35.36656,117.306183 35.3064,111.95174 35.2124,104.867517 C34.01296,101.11528 25.944,98.9014605 23.45112,94.9803729 C20.84168,90.8679213 18.96544,86.080067 20.08592,82.8756566 Z" id="路径" fill="#E6E6E6" fill-rule="nonzero"></path>
                                    <path d="M27.6736,122.848236 L43.1648,122.848236 C44.0108776,122.847555 44.7398677,122.253338 44.90944,121.426139 L46.00736,116.015413 L24.816,116.015413 L25.944,121.426139 C26.1124099,122.247849 26.8331796,122.840475 27.6736,122.848236 L27.6736,122.848236 Z" id="路径" fill="#F0F0F0" fill-rule="nonzero"></path>
                                    <path d="M24.38736,118.112913 L46.45104,118.112913 C46.9807793,118.112417 47.4257553,117.715188 47.48504,117.189863 L47.93624,113.189979 C47.9682571,112.896702 47.8738785,112.603665 47.6766335,112.383922 C47.4793884,112.16418 47.1978618,112.038437 46.90224,112.038042 L23.93616,112.038042 C23.6405382,112.038437 23.3590116,112.16418 23.1617665,112.383922 C22.9645215,112.603665 22.8701429,112.896702 22.90216,113.189979 L23.35336,117.189863 C23.4126447,117.715188 23.8576207,118.112417 24.38736,118.112913 Z" id="路径" fill="#F0F0F0" fill-rule="nonzero"></path>
                                    <rect id="矩形" fill="#E0E0E0" fill-rule="nonzero" x="53.62888" y="98.5412457" width="13.23896" height="24.3069907"></rect>
                                    <polygon id="路径" fill="#E6E6E6" fill-rule="nonzero" points="100.61008 122.848236 56.28344 122.848236 51.6248 89.866074 95.95144 89.866074"></polygon>
                                    <polygon id="路径" fill="#F0F0F0" fill-rule="nonzero" points="107.07728 122.848236 58.04312 122.848236 53.38824 89.866074 102.41864 89.866074"></polygon>
                                    <polygon id="路径" fill="#FFFFFF" fill-rule="nonzero" points="62.84088 117.692663 58.9192 95.0216475 97.62088 95.0216475 101.54256 117.692663"></polygon>
                                    <polygon id="路径" fill="#FAFAFA" fill-rule="nonzero" points="79.47136 117.692663 66.31888 95.0216475 70.4436 95.0216475 83.59984 117.692663"></polygon>
                                    <polygon id="路径" fill="#FAFAFA" fill-rule="nonzero" points="85.34824 117.692663 72.192 95.0216475 79.23072 95.0216475 92.3832 117.692663"></polygon>
                                </g>
                                <g id="freepik--Shadow--inject-117" transform="translate(21.000000, 132.000000)">
                                    <ellipse id="freepik--path--inject-117" fill="#F5F5F5" fill-rule="nonzero" cx="73" cy="4" rx="73" ry="4"></ellipse>
                                </g>
                                <g id="freepik--Warning--inject-117" transform="translate(28.000000, 37.000000)">
                                    <path d="M0.995826562,25.3600121 C0.912157868,25.3603746 0.842057283,25.2968232 0.834274862,25.2135534 L0.000217245102,15.1867688 C-0.00418357445,15.102348 0.0587845497,15.0294698 0.142983864,15.0215334 C0.230926622,15.0150237 0.307844302,15.0802076 0.315806613,15.167992 L1.14986423,25.1947767 C1.15637678,25.2826804 1.09116396,25.359564 1.00334059,25.3675228 L0.995826562,25.3600121 Z" id="路径" fill="#DBDCDD" fill-rule="nonzero"></path>
                                    <path d="M1.49175271,31.3159988 C1.40808402,31.3163598 1.33798343,31.2528084 1.33020101,31.1695386 L1.07848092,28.1352158 C1.07431972,28.0927427 1.08755501,28.0503969 1.11516538,28.0178452 C1.14277574,27.9852936 1.18240432,27.9653148 1.22500456,27.9624697 C1.26749651,27.9583103 1.3098611,27.9715397 1.34242717,27.9991379 C1.37499325,28.026736 1.39498091,28.066347 1.39782731,28.1089283 L1.6495474,31.1432512 C1.65605994,31.2311549 1.59084713,31.3080385 1.50302376,31.3159988 L1.49175271,31.3159988 Z" id="路径" fill="#DBDCDD" fill-rule="nonzero"></path>
                                    <path d="M86.0133482,59.8494359 L8.43847583,59.8494359 C6.41557746,59.8095331 4.74191603,58.264059 4.54244994,56.2515216 L0.173039994,3.75548321 C0.0786082122,2.82804815 0.385029697,1.90446141 1.01517223,1.21720763 C1.64531476,0.529953856 2.53915654,0.144494757 3.4717003,0.157521582 L81.0428156,0.157521582 C83.0664843,0.197269357 84.7413383,1.74235462 84.9425986,3.75548321 L89.3120085,56.2440109 C89.4074969,57.1723968 89.1016833,58.0973412 88.4715441,58.786026 C87.8414049,59.4747109 86.9469592,59.861541 86.0133482,59.8494359 Z" id="路径" fill="#FFFFFF" fill-rule="nonzero"></path>
                                    <path d="M86.0133482,59.9996882 L8.43847583,59.9996882 C6.33607526,59.9651696 4.59451281,58.3585351 4.39216929,56.266543 L0.0227593428,3.77425996 C-0.0664603996,2.80582047 0.256801973,1.84464368 0.913172204,1.12673817 C1.56640302,0.403885598 2.497199,-0.00597483302 3.4717003,6.58419267e-05 L81.0428156,6.58419267e-05 C83.1544969,0.0336363321 84.90115,1.65318967 85.0928792,3.75548321 L89.4585321,56.2440109 C89.5560848,57.2122049 89.235615,58.1759931 88.5776512,58.8931927 C87.9196874,59.6103922 86.9867786,60.0128229 86.0133482,59.9996882 L86.0133482,59.9996882 Z M3.4717003,0.315170809 C2.57965974,0.301100702 1.7241345,0.669222969 1.12154147,1.32682776 C0.518948433,1.98443255 0.227005492,2.86853281 0.31956363,3.75548321 L4.68897358,56.2402556 C4.88135557,58.1792892 6.49684995,59.6664996 8.44598987,59.6992742 L86.0133482,59.6992742 C86.9032887,59.7120855 87.7564406,59.3444987 88.357926,58.6887542 C88.9594114,58.0330098 89.2519012,57.1516084 89.1617278,56.266543 L84.7923179,3.77425996 C84.6015655,1.83441435 82.9851174,0.346325841 81.0353016,0.315170809 L3.4717003,0.315170809 Z" id="形状" fill="#DBDCDD" fill-rule="nonzero"></path>
                                    <path d="M81.0428156,0.165368551 L3.4717003,0.165368551 C2.54060338,0.152241811 1.64810685,0.53669261 1.01822972,1.22222277 C0.388352583,1.90775293 0.080898766,2.82927454 0.173039994,3.75548321 L84.9425986,3.75548321 C84.7377892,1.74532043 83.0638963,0.204345591 81.0428156,0.165368551 Z" id="路径" fill="#DBDCDD" fill-rule="nonzero"></path>
                                    <path d="M5.28633917,1.96418123 C5.30791091,2.16437512 5.24247453,2.36419383 5.10664898,2.51288917 C4.97082343,2.66158451 4.77767692,2.74485003 4.57626309,2.74153869 C4.13947653,2.73232596 3.77828258,2.39869208 3.73469144,1.96418123 C3.71436255,1.7642599 3.78022837,1.56515261 3.91578381,1.41675298 C4.05133925,1.26835334 4.243738,1.18472488 4.44476752,1.18682377 C4.88291367,1.19264962 5.24601879,1.52804884 5.28633917,1.96418123 Z" id="路径" fill="#FFFFFF" fill-rule="nonzero"></path>
                                    <path d="M8.44223285,1.96418123 C8.46380459,2.16437512 8.39836821,2.36419383 8.26254267,2.51288917 C8.12671712,2.66158451 7.93357061,2.74485003 7.73215677,2.74153869 C7.30116162,2.72492312 6.9484243,2.39317656 6.90561319,1.96418123 C6.8852843,1.7642599 6.95115012,1.56515261 7.08670556,1.41675298 C7.222261,1.26835334 7.41465975,1.18472488 7.61568927,1.18682377 C8.04804501,1.20017579 8.40259791,1.53362989 8.44223285,1.96418123 Z" id="路径" fill="#FFFFFF" fill-rule="nonzero"></path>
                                    <path d="M11.5981265,1.96418123 C11.6196983,2.16437512 11.5542619,2.36419383 11.4184363,2.51288917 C11.2826108,2.66158451 11.0894643,2.74485003 10.8880505,2.74153869 C10.4512639,2.73232596 10.09007,2.39869208 10.0464788,1.96418123 C10.0261499,1.7642599 10.0920157,1.56515261 10.2275712,1.41675298 C10.3631266,1.26835334 10.5555254,1.18472488 10.7565549,1.18682377 C11.194701,1.19264962 11.5578062,1.52804884 11.5981265,1.96418123 Z" id="路径" fill="#FFFFFF" fill-rule="nonzero"></path>
                                    <path d="M79.280775,52.9695645 L14.0439441,52.9695645 C12.4356281,52.9392254 11.1040314,51.711473 10.9444057,50.1115243 L7.87868041,13.5193934 C7.80457398,12.781238 8.04961979,12.0466156 8.55207895,11.500613 C9.05453812,10.9546103 9.76650174,10.6492882 10.5085918,10.6612151 L75.7566937,10.6612151 C77.3650097,10.6916923 78.6966064,11.9194446 78.8562322,13.5193934 L81.9031724,50.1303011 C81.9714194,50.8640606 81.7247912,51.5922805 81.2246692,52.1337197 C80.7245472,52.6751589 80.0179638,52.9788994 79.280775,52.9695645 Z" id="路径" fill="#F0F0F0" fill-rule="nonzero"></path>
                                    <path d="M59.0980835,17.0531778 L38.8853358,41.3803354 C37.5932745,42.9339409 37.2066195,45.0491622 37.8655596,46.9590876 C38.5244998,48.8690131 40.133374,50.2963707 42.1088558,50.7236464 L74.907608,57.8099919 C76.9980168,58.2632191 79.167971,57.5258635 80.5489135,55.8930629 C81.9298559,54.2602623 82.2961464,51.9988094 81.5011716,50.0138852 L68.9264381,18.5966266 C68.170665,16.7000123 66.4699069,15.3426514 64.4522241,15.0257937 C62.4345414,14.708936 60.3993016,15.4795942 59.0980835,17.0531778 Z" id="路径" fill="#263238" fill-rule="nonzero" opacity="0.1"></path>
                                    <path d="M14.1040564,20.4630356 L7.06340787,39.4313087 C6.63482186,40.6084035 6.84000965,41.9229487 7.60695944,42.9135973 C8.37390924,43.904246 9.59548437,44.4326125 10.8429663,44.3132638 L31.4051164,42.2966408 C32.7380735,42.1665103 33.8928198,41.3174817 34.4140508,40.0843183 C34.9352817,38.8511548 34.7393588,37.4317344 33.9035322,36.3857198 L20.3782736,19.4490911 C19.5556412,18.4227711 18.2442839,17.9181009 16.9454778,18.1279944 C15.6466717,18.3378879 14.5612245,19.2298935 14.1040564,20.4630356 Z" id="路径" fill="#263238" fill-rule="nonzero" opacity="0.1"></path>
                                </g>
                            </g>
                        </g>
                    </g>
                </g>
            </g>
            <g id="编组" transform="translate(144.000000, 82.000000)" fill-rule="nonzero">
                <path d="M49.5987421,15.4872219 L57.2972746,15.4872219 L57.2972746,23.3940471 L61.1916142,23.3940471 C62.9945493,23.3940471 64.833543,23.0676185 66.5463312,22.4873011 C67.3756813,22.1971424 68.3132075,21.7981741 69.1425576,21.3085313 C68.0607966,19.8758725 67.5018868,18.0805155 67.3396226,16.3032933 C67.1232704,13.8913489 67.6100629,10.7358727 69.2327044,8.84984108 L70.0440251,7.90682521 L70.9995807,8.68662677 C73.4335429,10.6451981 75.4708595,13.3835711 75.8314465,16.5209123 C78.7522012,15.6504362 82.1777778,15.8680552 84.7559748,17.3551186 L85.8197065,17.971706 L85.2607966,19.0598012 C83.0792453,23.3396423 78.5178197,24.6634915 74.0645702,24.4277376 C67.3937106,41.1299991 52.8981132,49.0368243 35.3014675,49.0368243 C26.2146751,49.0368243 17.867086,45.6274593 13.1253669,37.503015 L13.0532495,37.3760706 L12.3681342,35.9615468 C10.763522,32.3889676 10.2226415,28.4718248 10.5832285,24.5728169 L10.6914046,23.3940471 L17.2721174,23.3940471 L17.2721174,15.4872219 L24.9706499,15.4872219 L24.9706499,7.74361097 L40.3677149,7.74361097 L40.3677149,0 L49.5987421,0 L49.5987421,15.4872219 Z" id="形状" fill="#394D54"></path>
                <path d="M74.497177,18.3003919 C75.0220065,14.255905 71.9997124,11.0676834 70.1356626,9.55555556 C67.9820518,12.069696 67.6562956,18.6283233 71.0224436,21.3975214 C69.1402963,23.0918334 65.158831,24.6039614 61.1049754,24.6039614 L11.5719271,24.6039614 C11.1737805,28.8852876 11.9157809,32.8204639 13.6169524,36.1908696 L14.1779771,37.2293189 C14.5399285,37.8305264 14.9199774,38.4317339 15.3543191,38.9965046 C17.3812469,39.1240335 19.2633941,39.1786887 20.9826633,39.1422519 C24.3488112,39.0693782 27.1177394,38.6685733 29.19896,37.9398369 C29.5066187,37.8305264 29.8504725,37.9944921 29.9590579,38.304205 C30.0676433,38.613918 29.9047652,38.9600677 29.5971065,39.0693782 C29.325643,39.1604703 29.0360819,39.2515623 28.7284231,39.3426544 C27.0815443,39.816333 25.32608,40.126046 23.0457863,40.2717932 C23.1724693,40.2717932 22.9010057,40.2900116 22.9010057,40.2900117 C22.8286154,40.2900117 22.72003,40.30823 22.6476397,40.30823 C21.7608588,40.3628853 20.78359,40.3628853 19.8063212,40.3628853 C18.7204671,40.3628853 17.670808,40.3446669 16.4763684,40.2900117 L16.4401733,40.30823 C20.5664192,44.9721427 27.009154,47.7777778 35.0987677,47.7777778 C52.2190686,47.7777778 66.7333195,40.1442644 73.1579568,23.0007415 C77.7185444,23.4744201 82.0981562,22.3084419 84.0888889,18.3914839 C80.9399117,16.5332062 76.849861,17.1161953 74.497177,18.3003919 L74.497177,18.3003919 Z" id="路径" fill="#00AADA"></path>
                <path d="M74.203123,18.2046008 C74.7351286,14.2044173 71.6715102,11.0511196 69.7819731,9.55555556 C67.5989157,12.0421561 67.2687053,18.52894 70.6808791,21.2678043 C68.772997,22.9435568 64.7370926,24.4391209 60.6278081,24.439121 L13.3893812,24.439121 C13.187586,30.907886 15.6274737,35.8270305 19.9568984,38.8001398 C23.3690721,38.7280644 26.1758602,38.3316499 28.2855376,37.6108961 C28.597403,37.5027831 28.9459583,37.6649527 29.0560285,37.971273 C29.1660986,38.2775934 29.0009934,38.6199514 28.6891281,38.7280645 C28.4139528,38.8181587 28.1204325,38.9082529 27.808567,38.9983472 C26.1391702,39.4668371 24.194598,39.827214 21.9014706,39.9533459 L21.8464356,39.8992893 C27.7535321,42.8723986 36.3206564,42.8723986 46.1352421,39.1605167 C57.1422542,35.0161825 67.3787755,27.087891 74.5333333,18.0424312 C74.4049182,18.1145066 74.3131931,18.1685631 74.203123,18.2046008 Z" id="路径" fill="#24B8EB"></path>
                <path d="M11.4666667,30.5777778 C11.7795451,32.7735224 12.4605157,34.8124282 13.4543647,36.6944951 L14.0249077,37.6878082 C14.3929999,38.2628842 14.7794967,38.8379601 15.2212075,39.3781831 C17.3009285,39.5001689 19.1966035,39.5524485 20.9450416,39.5175954 C24.3682993,39.4478892 27.1842049,39.0645053 29.3007352,38.3674435 C29.6136136,38.2628842 29.9633012,38.4197231 30.0737289,38.7159744 C30.1841565,39.0122257 30.0185151,39.34333 29.7056367,39.4478892 C29.4295675,39.5350219 29.1350937,39.6221547 28.8222153,39.7092874 C27.1473957,40.1623775 25.2149115,40.4760554 22.8959304,40.6154678 C22.8223119,40.6154678 22.6750751,40.6154678 22.6014567,40.6328943 C21.6996307,40.6851739 20.7241863,40.7026005 19.7119326,40.7026005 C18.6076559,40.7026005 17.4849747,40.685174 16.2886749,40.6328943 C20.4849263,45.0940898 27.0921819,47.7777778 35.3190432,47.7777778 C50.2267785,47.7777778 63.183625,42.4278284 70.7111111,30.5952043 L11.4666667,30.5952043 L11.4666667,30.5777778 Z" id="路径" fill="#008BB8"></path>
                <path d="M15.2888889,30.5777778 C16.1462097,34.8431477 18.2359294,38.1821024 21.2544133,40.4595398 C24.5765317,40.3823385 27.309242,39.9577316 29.3632399,39.1857189 C29.6668744,39.069917 30.0062305,39.2436198 30.1133957,39.5717252 C30.2205607,39.8998306 30.0598131,40.2665366 29.7561786,40.3823385 C29.4882659,40.4788401 29.2024923,40.5753417 28.8988578,40.6718432 C27.2735203,41.1736514 25.3624092,41.5210572 23.1119418,41.6754597 C28.8631361,44.8600119 37.1684319,44.8214113 46.7239875,40.8455461 C52.5109034,38.4523069 58.0656282,34.8817484 63.0666667,30.5777778 L15.2888889,30.5777778 L15.2888889,30.5777778 Z" id="路径" fill="#039BC6"></path>
                <path d="M23.1467447,18.3413913 L23.7030531,18.3413913 L23.7030531,24.24977 L23.1467447,24.24977 L23.1467447,18.3413913 Z M22.0724941,18.3413913 L22.6479855,18.3413913 L22.6479855,24.24977 L22.0724941,24.24977 L22.0724941,18.3413913 Z M20.9982434,18.3413913 L21.5737348,18.3413913 L21.5737348,24.24977 L20.9982434,24.24977 L20.9982434,18.3413913 Z M19.9239928,18.3413913 L20.4994842,18.3413913 L20.4994842,24.24977 L19.9239928,24.24977 L19.9239928,18.3413913 Z M18.8497421,18.3413913 L19.4252336,18.3413913 L19.4252336,24.24977 L18.8497421,24.24977 L18.8497421,18.3413913 Z M17.7946745,18.3413913 L18.3509829,18.3413913 L18.3509829,24.24977 L17.7946745,24.24977 L17.7946745,18.3413913 Z M17.2,17.7467169 L24.2977276,17.7467169 L24.2977276,24.8444444 L17.2,24.8444444 L17.2,17.7467169 Z M31.337906,10.15023 L31.8942144,10.15023 L31.8942144,16.0586087 L31.337906,16.0586087 L31.337906,10.15023 Z M30.2636553,10.15023 L30.8391468,10.15023 L30.8391468,16.0586087 L30.2636553,16.0586087 L30.2636553,10.15023 Z M29.1894047,10.15023 L29.7648961,10.15023 L29.7648961,16.0586087 L29.1894047,16.0586087 L29.1894047,10.15023 Z M28.1151541,10.15023 L28.6906455,10.15023 L28.6906455,16.0586087 L28.1151541,16.0586087 L28.1151541,10.15023 Z M27.0409034,10.15023 L27.6163948,10.15023 L27.6163948,16.0586087 L27.0409034,16.0586087 L27.0409034,10.15023 Z M25.9858357,10.15023 L26.5421442,10.15023 L26.5421442,16.0586087 L25.9858357,16.0586087 L25.9858357,10.15023 L25.9858357,10.15023 Z M25.3911613,9.55555556 L32.4888889,9.55555556 L32.4888889,16.6532832 L25.3911613,16.6532832 L25.3911613,9.55555556 Z" id="形状" fill="#00ACD3"></path>
                <path d="M31.2492492,17.8404805 L31.8484084,17.8404805 L31.8484084,24.203964 L31.2492492,24.203964 L31.2492492,17.8404805 Z M30.0922522,17.8404805 L30.712072,17.8404805 L30.712072,24.203964 L30.0922522,24.203964 L30.0922522,17.8404805 Z M28.9352552,17.8404805 L29.5550751,17.8404805 L29.5550751,24.203964 L28.9352552,24.203964 L28.9352552,17.8404805 Z M27.7782583,17.8404805 L28.3980781,17.8404805 L28.3980781,24.203964 L27.7782583,24.203964 L27.7782583,17.8404805 Z M26.6212612,17.8404805 L27.241081,17.8404805 L27.241081,24.203964 L26.6212612,24.203964 L26.6212612,17.8404805 Z M25.4849249,17.8404805 L26.0840841,17.8404805 L26.0840841,24.203964 L25.4849249,24.203964 L25.4849249,17.8404805 L25.4849249,17.8404805 Z M24.8444444,17.2 L32.4888889,17.2 L32.4888889,24.8444444 L24.8444444,24.8444444 L24.8444444,17.2 Z" id="形状" fill="#20C2EF"></path>
                <path d="M38.8936937,17.8404805 L39.4928529,17.8404805 L39.4928529,24.203964 L38.8936937,24.203964 L38.8936937,17.8404805 Z M37.7366967,17.8404805 L38.3565165,17.8404805 L38.3565165,24.203964 L37.7366967,24.203964 L37.7366967,17.8404805 Z M36.5796998,17.8404805 L37.1995196,17.8404805 L37.1995196,24.203964 L36.5796998,24.203964 L36.5796998,17.8404805 Z M35.4227027,17.8404805 L36.0425225,17.8404805 L36.0425225,24.203964 L35.4227027,24.203964 L35.4227027,17.8404805 Z M34.245045,17.8404805 L34.8648649,17.8404805 L34.8648649,24.203964 L34.245045,24.203964 L34.245045,17.8404805 Z M33.1293694,17.8404805 L33.7285285,17.8404805 L33.7285285,24.203964 L33.1293694,24.203964 L33.1293694,17.8404805 Z M32.4888889,17.2 L40.1333333,17.2 L40.1333333,24.8444444 L32.4888889,24.8444444 L32.4888889,17.2 L32.4888889,17.2 Z" id="形状" fill="#00ACD3"></path>
                <path d="M38.4356336,10.15023 L38.991942,10.15023 L38.991942,16.0586087 L38.4356336,16.0586087 L38.4356336,10.15023 Z M37.361383,10.15023 L37.9368744,10.15023 L37.9368744,16.0586087 L37.361383,16.0586087 L37.361383,10.15023 Z M36.2871324,10.15023 L36.8626238,10.15023 L36.8626238,16.0586087 L36.2871324,16.0586087 L36.2871324,10.15023 Z M35.2128817,10.15023 L35.7883731,10.15023 L35.7883731,16.0586087 L35.2128817,16.0586087 L35.2128817,10.15023 Z M34.1194479,10.15023 L34.6949394,10.15023 L34.6949394,16.0586087 L34.1194479,16.0586087 L34.1194479,10.15023 Z M33.0835634,10.15023 L33.6398717,10.15023 L33.6398717,16.0586087 L33.0835634,16.0586087 L33.0835634,10.15023 Z M32.4888889,9.55555556 L39.5866165,9.55555556 L39.5866165,16.6532832 L32.4888889,16.6532832 L32.4888889,9.55555556 L32.4888889,9.55555556 Z M46.6267949,18.3413913 L47.1831033,18.3413913 L47.1831033,24.24977 L46.6267949,24.24977 L46.6267949,18.3413913 Z M45.5525443,18.3413913 L46.1280357,18.3413913 L46.1280357,24.24977 L45.5525443,24.24977 L45.5525443,18.3413913 Z M44.4782936,18.3413913 L45.053785,18.3413913 L45.053785,24.24977 L44.4782936,24.24977 L44.4782936,18.3413913 Z M43.3848599,18.3413913 L43.9603513,18.3413913 L43.9603513,24.24977 L43.3848599,24.24977 L43.3848599,18.3413913 Z M42.3106092,18.3413913 L42.8861007,18.3413913 L42.8861007,24.24977 L42.3106092,24.24977 L42.3106092,18.3413913 Z M41.2747246,18.3413913 L41.831033,18.3413913 L41.831033,24.24977 L41.2747246,24.24977 L41.2747246,18.3413913 Z M40.6800502,17.7467169 L47.7777778,17.7467169 L47.7777778,24.8444444 L40.6800502,24.8444444 L40.6800502,17.7467169 Z" id="形状" fill="#20C2EF"></path>
                <path d="M46.5381381,10.196036 L47.1372972,10.196036 L47.1372972,16.5595195 L46.5381381,16.5595195 L46.5381381,10.196036 Z M45.3811412,10.196036 L46.000961,10.196036 L46.000961,16.5595195 L45.3811412,16.5595195 L45.3811412,10.196036 Z M44.2241441,10.196036 L44.8439639,10.196036 L44.8439639,16.5595195 L44.2241441,16.5595195 L44.2241441,10.196036 Z M43.0464865,10.196036 L43.6663063,10.196036 L43.6663063,16.5595195 L43.0464865,16.5595195 L43.0464865,10.196036 Z M41.8894895,10.196036 L42.5093093,10.196036 L42.5093093,16.5595195 L41.8894895,16.5595195 L41.8894895,10.196036 Z M40.7738138,10.196036 L41.372973,10.196036 L41.372973,16.5595195 L40.7738138,16.5595195 L40.7738138,10.196036 Z M40.1333333,9.55555556 L47.7777778,9.55555556 L47.7777778,17.2 L40.1333333,17.2 L40.1333333,9.55555556 Z" id="形状" fill="#00ACD3"></path>
                <path d="M46.5381381,2.55159164 L47.1372972,2.55159164 L47.1372972,8.91507511 L46.5381381,8.91507511 L46.5381381,2.55159164 Z M45.3811412,2.55159164 L46.000961,2.55159164 L46.000961,8.91507511 L45.3811412,8.91507511 L45.3811412,2.55159164 Z M44.2241441,2.55159164 L44.8439639,2.55159164 L44.8439639,8.91507511 L44.2241441,8.91507511 L44.2241441,2.55159164 Z M43.0464865,2.55159164 L43.6663063,2.55159164 L43.6663063,8.91507511 L43.0464865,8.91507511 L43.0464865,2.55159164 Z M41.8894895,2.55159164 L42.5093093,2.55159164 L42.5093093,8.91507511 L41.8894895,8.91507511 L41.8894895,2.55159164 Z M40.7738138,2.55159164 L41.372973,2.55159164 L41.372973,8.91507511 L40.7738138,8.91507511 L40.7738138,2.55159164 Z M40.1333333,1.91111111 L47.7777778,1.91111111 L47.7777778,9.55555556 L40.1333333,9.55555556 L40.1333333,1.91111111 Z" id="形状" fill="#20C2EF"></path>
                <path d="M54.1825826,17.8404805 L54.7817418,17.8404805 L54.7817418,24.203964 L54.1825826,24.203964 L54.1825826,17.8404805 Z M53.0255856,17.8404805 L53.6454054,17.8404805 L53.6454054,24.203964 L53.0255856,24.203964 L53.0255856,17.8404805 Z M51.8479279,17.8404805 L52.4677477,17.8404805 L52.4677477,24.203964 L51.8479279,24.203964 L51.8479279,17.8404805 Z M50.6909309,17.8404805 L51.3107508,17.8404805 L51.3107508,24.203964 L50.6909309,24.203964 L50.6909309,17.8404805 Z M49.533934,17.8404805 L50.1537538,17.8404805 L50.1537538,24.203964 L49.533934,24.203964 L49.533934,17.8404805 Z M48.3975976,17.8404805 L48.9967567,17.8404805 L48.9967567,24.203964 L48.3975976,24.203964 L48.3975976,17.8404805 L48.3975976,17.8404805 Z M47.7777778,17.2 L55.4222222,17.2 L55.4222222,24.8444444 L47.7777778,24.8444444 L47.7777778,17.2 Z" id="形状" fill="#00ACD3"></path>
                <path d="M32.4888889,34.4 C33.5381263,34.4 34.4,35.2618736 34.4,36.3111111 C34.4,37.3603486 33.5381264,38.2222222 32.4888889,38.2222222 C31.4396513,38.2222222 30.5777778,37.3603486 30.5777778,36.3111111 C30.5777778,35.2618736 31.420915,34.4 32.4888889,34.4" id="路径" fill="#D4EDF1"></path>
                <path d="M32.7049905,35.3555556 C32.8679722,35.3555556 33.0309538,35.394825 33.1758265,35.4537291 C33.0128448,35.5519026 32.9041904,35.7482496 32.9041904,35.9642313 C32.9041904,36.2783866 33.1396083,36.5532724 33.4474626,36.5532724 C33.6466624,36.5532724 33.8277532,36.4354643 33.9182986,36.2391172 C33.9907349,36.4158296 34.0269531,36.5925419 34.0269531,36.7888889 C34.0269531,37.574277 33.4293536,38.2222222 32.7049905,38.2222222 C31.9806274,38.2222222 31.383028,37.574277 31.383028,36.7888889 C31.383028,36.0035008 31.9625184,35.3555556 32.7049905,35.3555556 M0,30.623592 L86,30.623592 C84.1347652,30.1130898 80.0783323,29.4062404 80.7483681,26.7555556 C77.3438619,31.0359209 69.1404506,29.7596651 67.0579069,27.6391172 C64.7580543,31.2715373 51.3211202,29.8971081 50.3794483,27.0697108 C47.4819962,30.7414003 38.5180037,30.7414003 35.6205517,27.0697108 C34.6788798,29.8971081 21.2419457,31.2715372 18.9420931,27.6391172 C16.8776584,29.7400305 8.65613814,31.0162862 5.25163193,26.7555556 C5.92166775,29.4258752 1.86523478,30.1130898 0,30.623592" id="形状" fill="#394D54"></path>
                <path d="M36.3111111,47.7543986 C31.7339836,45.7706072 29.2192771,43.0759572 27.8262382,40.1333333 C26.1256454,40.5796864 24.0813157,40.8607235 21.7113405,40.9764447 C20.8248613,41.0260394 19.8841078,41.0425711 18.8890801,41.0425711 C17.7493211,41.0425711 16.5552878,41.0095079 15.2888889,40.9433815 C19.4860968,44.7787115 24.6421496,47.7213354 34.1944157,47.7709302 C34.9180723,47.7874617 35.605546,47.7709302 36.3111111,47.7543986 L36.3111111,47.7543986 Z" id="路径" fill="#BFDBE0"></path>
                <path d="M30.5777778,43.9555556 C29.9584362,42.8601626 29.3567901,41.4617886 28.9144033,40.1333333 C27.2510288,40.7626017 25.2514403,41.1588076 22.9333333,41.3219512 C24.5259259,42.4639567 26.8086419,43.5127372 30.5777778,43.9555556 Z" id="路径" fill="#D4EDF1"></path>
            </g>
        </g>
    </g>
</svg>