<?xml version="1.0" encoding="UTF-8"?>
<svg width="300px" height="180px" viewBox="0 0 300 180" version="1.1" xmlns="http://www.w3.org/2000/svg" xmlns:xlink="http://www.w3.org/1999/xlink">
    <title>编组 11</title>
    <defs>
        <path d="M16,0 L284,0 C292.836556,-1.623249e-15 300,7.163444 300,16 L300,180 L300,180 L0,180 L0,16 C-1.082166e-15,7.163444 7.163444,1.623249e-15 16,0 Z" id="path-1"></path>
        <linearGradient x1="50%" y1="0%" x2="50%" y2="100%" id="linearGradient-3">
            <stop stop-color="#FDFDFF" offset="0%"></stop>
            <stop stop-color="#FAFBFF" offset="100%"></stop>
        </linearGradient>
        <path d="M250.487013,209 C303.223034,209 345.974026,170.944204 345.974026,124 C345.974026,77.0557963 303.223034,-1 250.487013,-1 C197.750992,-1 65,77.0557963 65,124 C65,170.944204 197.750992,209 250.487013,209 Z" id="path-4"></path>
        <filter x="-2.5%" y="-2.4%" width="105.0%" height="106.7%" filterUnits="objectBoundingBox" id="filter-5">
            <feOffset dx="0" dy="2" in="SourceAlpha" result="shadowOffsetOuter1"></feOffset>
            <feGaussianBlur stdDeviation="2" in="shadowOffsetOuter1" result="shadowBlurOuter1"></feGaussianBlur>
            <feColorMatrix values="0 0 0 0 0.216561212   0 0 0 0 0.276560083   0 0 0 0 0.543221736  0 0 0 1 0" type="matrix" in="shadowBlurOuter1"></feColorMatrix>
        </filter>
        <linearGradient x1="25.1768046%" y1="43.3091462%" x2="99.1720575%" y2="67.4338046%" id="linearGradient-6">
            <stop stop-color="#FE2857" offset="21%"></stop>
            <stop stop-color="#293896" offset="100%"></stop>
        </linearGradient>
        <linearGradient x1="2.27834696%" y1="77.1495472%" x2="90.6955004%" y2="24.0933671%" id="linearGradient-7">
            <stop stop-color="#FE2857" offset="0%"></stop>
            <stop stop-color="#FE2857" offset="1%"></stop>
            <stop stop-color="#FF318C" offset="86%"></stop>
        </linearGradient>
        <linearGradient x1="6.29867254%" y1="13.9182513%" x2="94.6438712%" y2="87.6937925%" id="linearGradient-8">
            <stop stop-color="#FF318C" offset="2%"></stop>
            <stop stop-color="#FE2857" offset="21%"></stop>
            <stop stop-color="#FDB60D" offset="86%"></stop>
        </linearGradient>
        <linearGradient x1="91.0869055%" y1="27.7208436%" x2="1.96658946%" y2="68.6215164%" id="linearGradient-9">
            <stop stop-color="#FDB60D" offset="1%"></stop>
            <stop stop-color="#FCF84A" offset="86%"></stop>
        </linearGradient>
        <path d="M4.07107173,-57.9596531 C25.4219451,-11.2993816 51.1017049,18.485986 81.1103513,31.3964496 C126.123321,50.7621452 173.976001,94.3453686 173.976001,126.937192 C173.976001,148.665074 173.976001,87.0327922 173.976001,-57.9596531 L4.07107173,-57.9596531 Z" id="path-10"></path>
        <filter x="-12.9%" y="-7.4%" width="125.9%" height="129.6%" filterUnits="objectBoundingBox" id="filter-11">
            <feOffset dx="0" dy="20" in="SourceAlpha" result="shadowOffsetOuter1"></feOffset>
            <feGaussianBlur stdDeviation="4" in="shadowOffsetOuter1" result="shadowBlurOuter1"></feGaussianBlur>
            <feColorMatrix values="0 0 0 0 0.423529412   0 0 0 0 0.529411765   0 0 0 0 1  0 0 0 1 0" type="matrix" in="shadowBlurOuter1"></feColorMatrix>
        </filter>
        <path d="M0,16 L67,16 C69.209139,16 71,17.790861 71,20 L71,38 C71,40.209139 69.209139,42 67,42 L0,42 L0,42 L0,16 Z" id="path-12"></path>
        <filter x="-4.9%" y="-17.3%" width="119.7%" height="150.0%" filterUnits="objectBoundingBox" id="filter-13">
            <feOffset dx="4" dy="2" in="SourceAlpha" result="shadowOffsetOuter1"></feOffset>
            <feGaussianBlur stdDeviation="1.5" in="shadowOffsetOuter1" result="shadowBlurOuter1"></feGaussianBlur>
            <feColorMatrix values="0 0 0 0 0   0 0 0 0 0   0 0 0 0 0  0 0 0 0.08 0" type="matrix" in="shadowBlurOuter1"></feColorMatrix>
        </filter>
        <path d="M0,76 L67,76 C69.209139,76 71,77.790861 71,80 L71,98 C71,100.209139 69.209139,102 67,102 L0,102 L0,102 L0,76 Z" id="path-14"></path>
        <filter x="-4.9%" y="-17.3%" width="119.7%" height="150.0%" filterUnits="objectBoundingBox" id="filter-15">
            <feOffset dx="4" dy="2" in="SourceAlpha" result="shadowOffsetOuter1"></feOffset>
            <feGaussianBlur stdDeviation="1.5" in="shadowOffsetOuter1" result="shadowBlurOuter1"></feGaussianBlur>
            <feColorMatrix values="0 0 0 0 0   0 0 0 0 0   0 0 0 0 0  0 0 0 0.08 0" type="matrix" in="shadowBlurOuter1"></feColorMatrix>
        </filter>
        <path d="M0,46 L67,46 C69.209139,46 71,47.790861 71,50 L71,68 C71,70.209139 69.209139,72 67,72 L0,72 L0,72 L0,46 Z" id="path-16"></path>
        <filter x="-4.9%" y="-17.3%" width="119.7%" height="150.0%" filterUnits="objectBoundingBox" id="filter-17">
            <feOffset dx="4" dy="2" in="SourceAlpha" result="shadowOffsetOuter1"></feOffset>
            <feGaussianBlur stdDeviation="1.5" in="shadowOffsetOuter1" result="shadowBlurOuter1"></feGaussianBlur>
            <feColorMatrix values="0 0 0 0 0   0 0 0 0 0   0 0 0 0 0  0 0 0 0.08 0" type="matrix" in="shadowBlurOuter1"></feColorMatrix>
        </filter>
    </defs>
    <g id="模版" stroke="none" stroke-width="1" fill="none" fill-rule="evenodd">
        <g id="编组-11">
            <g id="路径-7备份-8">
                <g id="蒙版">
                    <mask id="mask-2" fill="white">
                        <use xlink:href="#path-1"></use>
                    </mask>
                    <use fill="#6C87FF" xlink:href="#path-1"></use>
                    <g id="椭圆形备份-5" mask="url(#mask-2)">
                        <use fill="black" fill-opacity="1" filter="url(#filter-5)" xlink:href="#path-4"></use>
                        <use fill="url(#linearGradient-3)" fill-rule="evenodd" xlink:href="#path-4"></use>
                    </g>
                    <g id="Warning-rafiki" mask="url(#mask-2)">
                        <g transform="translate(114.000000, 40.000000)">
                            <g id="freepik--background-complete--inject-117">
                                <rect id="矩形" fill="#EBEBEB" fill-rule="nonzero" x="0" y="122.848236" width="188" height="1"></rect>
                                <rect id="矩形" fill="#EBEBEB" fill-rule="nonzero" x="156.70928" y="128.885586" width="12.45312" height="1"></rect>
                                <rect id="矩形" fill="#EBEBEB" fill-rule="nonzero" x="121.27128" y="129.906194" width="3.26744" height="1"></rect>
                                <rect id="矩形" fill="#EBEBEB" fill-rule="nonzero" x="149.11784" y="125.40351" width="7.21544" height="1"></rect>
                                <rect id="矩形" fill="#EBEBEB" fill-rule="nonzero" x="19.72496" y="126.033886" width="16.23944" height="1"></rect>
                                <rect id="矩形" fill="#EBEBEB" fill-rule="nonzero" x="39.31456" y="126.033886" width="2.38008" height="1"></rect>
                                <rect id="矩形" fill="#EBEBEB" fill-rule="nonzero" x="49.43272" y="127.61733" width="35.22368" height="1"></rect>
                                <path d="M89.112,106.11326 L16.51016,106.11326 C15.3258954,106.11119 14.36696,105.152554 14.36696,103.970733 L14.36696,2.12376609 C14.3772645,0.949275339 15.3331959,0.00201196434 16.51016,0 L89.112,0 C90.2977333,0 91.25896,0.959242135 91.25896,2.14252728 L91.25896,103.970733 C91.25896,105.154018 90.2977333,106.11326 89.112,106.11326 Z M16.51016,0.0750447382 C15.3778101,0.0771143606 14.46096,0.993752253 14.46096,2.12376609 L14.46096,103.970733 C14.46096,105.100746 15.3778101,106.017384 16.51016,106.019454 L89.112,106.019454 C90.2449602,106.017389 91.1628907,105.101354 91.16496,103.970733 L91.16496,2.12376609 C91.1628907,0.993145015 90.2449602,0.0771098047 89.112,0.0750447382 L16.51016,0.0750447382 Z" id="形状" fill="#EBEBEB" fill-rule="nonzero"></path>
                                <path d="M170.44456,106.11326 L97.83896,106.11326 C96.6540851,106.111194 95.6940697,105.153161 95.692,103.970733 L95.692,2.12376609 C95.7043507,0.948670688 96.6613703,0.00198984015 97.83896,0 L170.44456,0 C171.620058,0.00406393969 172.573714,0.950733405 172.584,2.12376609 L172.584,103.970733 C172.584,105.151093 171.627355,106.109125 170.44456,106.11326 Z M97.83896,0.0750447382 C96.7059998,0.0771098047 95.7880693,0.993145015 95.786,2.12376609 L95.786,103.970733 C95.7880693,105.101354 96.7059998,106.017389 97.83896,106.019454 L170.44456,106.019454 C171.57752,106.017389 172.495451,105.101354 172.49752,103.970733 L172.49752,2.12376609 C172.495451,0.993145015 171.57752,0.0771098047 170.44456,0.0750447382 L97.83896,0.0750447382 Z" id="形状" fill="#EBEBEB" fill-rule="nonzero"></path>
                                <rect id="矩形" fill="#E6E6E6" fill-rule="nonzero" x="38.08504" y="7.9397333" width="109.71304" height="51.2255383"></rect>
                                <rect id="矩形" fill="#F0F0F0" fill-rule="nonzero" x="38.85584" y="7.9397333" width="110.59288" height="51.2255383"></rect>
                                <rect id="矩形" fill="#E6E6E6" fill-rule="nonzero" x="38.08504" y="59.1652716" width="109.71304" height="2.61155689"></rect>
                                <rect id="矩形" fill="#F0F0F0" fill-rule="nonzero" x="41.60816" y="59.1652716" width="110.59288" height="2.61155689"></rect>
                                <polygon id="矩形" fill="#FAFAFA" fill-rule="nonzero" transform="translate(94.154160, 33.554379) rotate(90.000000) translate(-94.154160, -33.554379) " points="70.8508927 -19.4277814 117.457427 -19.4277814 117.457427 86.5365386 70.8508927 86.5365386"></polygon>
                                <polygon id="路径" fill="#FFFFFF" fill-rule="nonzero" points="52.53848 56.8576459 58.97936 10.2511112 69.02984 10.2511112 62.58896 56.8576459"></polygon>
                                <path d="M42.23984,54.5575788 C42.14847,54.5575788 42.0744,54.4836076 42.0744,54.3924263 L42.0744,11.752006 C42.0744,11.6608247 42.14847,11.5869076 42.23984,11.5869076 C42.33121,11.5869076 42.40528,11.6608247 42.40528,11.752006 L42.40528,54.4074352 C42.3992709,54.493587 42.3263504,54.5597415 42.23984,54.5575788 Z" id="路径" fill="#F0F0F0" fill-rule="nonzero"></path>
                                <polygon id="路径" fill="#FFFFFF" fill-rule="nonzero" points="64.7472 56.8576459 71.18808 10.2511112 75.106 10.2511112 68.66512 56.8576459"></polygon>
                                <polygon id="矩形" fill="#E6E6E6" fill-rule="nonzero" transform="translate(146.989680, 33.554379) rotate(90.000000) translate(-146.989680, -33.554379) " points="123.686413 33.5543786 170.292947 33.5543786 170.292947 33.5543786 123.686413 33.5543786"></polygon>
                                <polygon id="路径" fill="#EBEBEB" fill-rule="nonzero" opacity="0.6" points="149.99392 13.7331871 40.28464 13.7331871 40.07032 11.1478959 149.78336 11.1478959"></polygon>
                                <polygon id="路径" fill="#EBEBEB" fill-rule="nonzero" opacity="0.6" points="149.99392 17.9694626 40.28464 17.9694626 40.07032 15.3841713 149.78336 15.3841713"></polygon>
                                <polygon id="路径" fill="#EBEBEB" fill-rule="nonzero" opacity="0.6" points="149.99392 22.2094903 40.28464 22.2094903 40.07032 19.624199 149.78336 19.624199"></polygon>
                                <polygon id="路径" fill="#EBEBEB" fill-rule="nonzero" opacity="0.6" points="149.99392 26.4457657 40.28464 26.4457657 40.07032 23.8604745 149.78336 23.8604745"></polygon>
                                <polygon id="路径" fill="#EBEBEB" fill-rule="nonzero" opacity="0.6" points="149.99392 30.6857935 40.28464 30.6857935 40.07032 28.1005022 149.78336 28.1005022"></polygon>
                                <polygon id="路径" fill="#EBEBEB" fill-rule="nonzero" opacity="0.6" points="149.99392 34.9220689 40.28464 34.9220689 40.07032 32.3367777 149.78336 32.3367777"></polygon>
                                <rect id="矩形" fill="#E6E6E6" fill-rule="nonzero" x="148.32072" y="72.0429487" width="16.74328" height="50.8052878"></rect>
                                <polygon id="路径" fill="#FAFAFA" fill-rule="nonzero" points="160.59336 122.848236 165.064 122.848236 165.064 115.835306 155.90464 115.835306"></polygon>
                                <rect id="矩形" fill="#E6E6E6" fill-rule="nonzero" x="102.67056" y="72.0429487" width="16.74328" height="50.8052878"></rect>
                                <rect id="矩形" fill="#FAFAFA" fill-rule="nonzero" x="115.51096" y="72.0429487" width="49.55304" height="48.3925994"></rect>
                                <polygon id="路径" fill="#FAFAFA" fill-rule="nonzero" points="119.9816 122.848236 115.51096 122.848236 115.51096 115.835306 124.67032 115.835306"></polygon>
                                <rect id="矩形" fill="#F0F0F0" fill-rule="nonzero" x="118.97768" y="90.0761993" width="42.61584" height="12.1084685"></rect>
                                <rect id="矩形" fill="#F0F0F0" fill-rule="nonzero" x="118.97768" y="104.773711" width="42.61584" height="12.1084685"></rect>
                                <path d="M125.67424,89.0255729 L154.912,89.0255729 L154.912,89.6146741 C154.912,90.5824397 154.125848,91.3669688 153.15608,91.3669688 L127.43392,91.3669688 C126.464152,91.3669688 125.678,90.5824397 125.678,89.6146741 L125.678,89.0255729 L125.67424,89.0255729 Z" id="路径" fill="#FAFAFA" fill-rule="nonzero"></path>
                                <rect id="矩形" fill="#F0F0F0" fill-rule="nonzero" x="118.97768" y="75.3749351" width="42.61584" height="12.1084685"></rect>
                                <path d="M125.67424,74.328061 L154.912,74.328061 L154.912,74.9171622 C154.912,75.8849278 154.125848,76.6694568 153.15608,76.6694568 L127.43392,76.6694568 C126.464152,76.6694568 125.678,75.8849278 125.678,74.9171622 L125.678,74.328061 L125.67424,74.328061 Z" id="路径" fill="#FAFAFA" fill-rule="nonzero"></path>
                                <path d="M125.67424,103.723085 L154.912,103.723085 L154.912,104.312186 C154.912,105.279952 154.125848,106.064481 153.15608,106.064481 L127.43392,106.064481 C126.464152,106.064481 125.678,105.279952 125.678,104.312186 L125.678,103.723085 L125.67424,103.723085 Z" id="路径" fill="#FAFAFA" fill-rule="nonzero"></path>
                                <path d="M20.08592,82.8756566 C21.0184,80.2003117 28.35792,83.8362293 31.36592,88.2638688 C33.35496,91.2131271 34.56944,94.3612538 35.12592,98.5900248 C35.05824,93.7646482 34.98304,88.582809 34.90784,83.6898921 C34.30248,82.4704151 32.92256,79.6562374 31.93368,77.4274086 C28.62488,69.9904751 20.75896,67.2213243 18.02168,62.5272759 C14.46096,56.3736073 14.48352,47.1431045 17.51408,43.8186226 C20.14608,40.9218957 28.86928,60.4898112 29.8544,62.6773654 C33.2384,70.1818392 34.216,75.7764244 34.84768,81.1833978 C34.77624,76.5869076 34.70856,72.3693933 34.65216,69.1124517 C34.46792,58.4936212 34.2348,55.0790856 34.12952,54.0284593 C33.75352,53.5144028 33.33616,52.9027882 33.08424,52.5951048 C30.97488,49.8822375 26.28992,46.6553137 23.9512,42.7117128 C20.53336,36.9557813 21.08608,30.0666744 23.4812,27.5001443 C26.00792,24.8172949 30.456,31.1435664 32.79096,37.4398199 C35.12592,43.7360734 34.13704,49.732148 34.7988,54.9515096 C34.93792,55.972118 35.07704,59.8594354 35.2124,65.2513999 C35.9268,59.4504416 37.34808,55.5631242 39.98008,51.9422156 C43.2212,47.4883103 46.01864,42.066328 48.68824,42.7679963 C51.35784,43.4696646 49.92152,50.6476938 47.8084,55.6831958 C45.9284,60.1671189 36.64872,64.6435375 35.28008,68.2494372 C35.44176,75.5587947 35.58464,84.8155631 35.68992,93.4344513 C36.41936,88.9805461 35.91552,88.6090746 38.916,81.8025169 C40.69824,77.750101 48.00392,72.7558737 48.87624,75.5400335 C49.74856,78.3241933 48.42128,83.5848294 45.6652,87.2695261 C43.43928,90.2450499 38.5212,90.2412977 37.35936,92.083646 C37.0924,92.5151533 36.23136,94.1661375 35.70872,95.1117012 C35.82528,105.636726 35.88168,114.923512 35.82152,118.0904 L35.34024,118.12417 C35.36656,117.306183 35.3064,111.95174 35.2124,104.867517 C34.01296,101.11528 25.944,98.9014605 23.45112,94.9803729 C20.84168,90.8679213 18.96544,86.080067 20.08592,82.8756566 Z" id="路径" fill="#E6E6E6" fill-rule="nonzero"></path>
                                <path d="M27.6736,122.848236 L43.1648,122.848236 C44.0108776,122.847555 44.7398677,122.253338 44.90944,121.426139 L46.00736,116.015413 L24.816,116.015413 L25.944,121.426139 C26.1124099,122.247849 26.8331796,122.840475 27.6736,122.848236 L27.6736,122.848236 Z" id="路径" fill="#F0F0F0" fill-rule="nonzero"></path>
                                <path d="M24.38736,118.112913 L46.45104,118.112913 C46.9807793,118.112417 47.4257553,117.715188 47.48504,117.189863 L47.93624,113.189979 C47.9682571,112.896702 47.8738785,112.603665 47.6766335,112.383922 C47.4793884,112.16418 47.1978618,112.038437 46.90224,112.038042 L23.93616,112.038042 C23.6405382,112.038437 23.3590116,112.16418 23.1617665,112.383922 C22.9645215,112.603665 22.8701429,112.896702 22.90216,113.189979 L23.35336,117.189863 C23.4126447,117.715188 23.8576207,118.112417 24.38736,118.112913 Z" id="路径" fill="#F0F0F0" fill-rule="nonzero"></path>
                                <rect id="矩形" fill="#E0E0E0" fill-rule="nonzero" x="53.62888" y="98.5412457" width="13.23896" height="24.3069907"></rect>
                                <polygon id="路径" fill="#E6E6E6" fill-rule="nonzero" points="100.61008 122.848236 56.28344 122.848236 51.6248 89.866074 95.95144 89.866074"></polygon>
                                <polygon id="路径" fill="#F0F0F0" fill-rule="nonzero" points="107.07728 122.848236 58.04312 122.848236 53.38824 89.866074 102.41864 89.866074"></polygon>
                                <polygon id="路径" fill="#FFFFFF" fill-rule="nonzero" points="62.84088 117.692663 58.9192 95.0216475 97.62088 95.0216475 101.54256 117.692663"></polygon>
                                <polygon id="路径" fill="#FAFAFA" fill-rule="nonzero" points="79.47136 117.692663 66.31888 95.0216475 70.4436 95.0216475 83.59984 117.692663"></polygon>
                                <polygon id="路径" fill="#FAFAFA" fill-rule="nonzero" points="85.34824 117.692663 72.192 95.0216475 79.23072 95.0216475 92.3832 117.692663"></polygon>
                            </g>
                            <g id="freepik--Shadow--inject-117" transform="translate(21.000000, 132.000000)">
                                <ellipse id="freepik--path--inject-117" fill="#F5F5F5" fill-rule="nonzero" cx="73" cy="4" rx="73" ry="4"></ellipse>
                            </g>
                            <g id="freepik--Warning--inject-117" transform="translate(28.000000, 37.000000)">
                                <path d="M0.995826562,25.3600121 C0.912157868,25.3603746 0.842057283,25.2968232 0.834274862,25.2135534 L0.000217245102,15.1867688 C-0.00418357445,15.102348 0.0587845497,15.0294698 0.142983864,15.0215334 C0.230926622,15.0150237 0.307844302,15.0802076 0.315806613,15.167992 L1.14986423,25.1947767 C1.15637678,25.2826804 1.09116396,25.359564 1.00334059,25.3675228 L0.995826562,25.3600121 Z" id="路径" fill="#DBDCDD" fill-rule="nonzero"></path>
                                <path d="M1.49175271,31.3159988 C1.40808402,31.3163598 1.33798343,31.2528084 1.33020101,31.1695386 L1.07848092,28.1352158 C1.07431972,28.0927427 1.08755501,28.0503969 1.11516538,28.0178452 C1.14277574,27.9852936 1.18240432,27.9653148 1.22500456,27.9624697 C1.26749651,27.9583103 1.3098611,27.9715397 1.34242717,27.9991379 C1.37499325,28.026736 1.39498091,28.066347 1.39782731,28.1089283 L1.6495474,31.1432512 C1.65605994,31.2311549 1.59084713,31.3080385 1.50302376,31.3159988 L1.49175271,31.3159988 Z" id="路径" fill="#DBDCDD" fill-rule="nonzero"></path>
                                <path d="M86.0133482,59.8494359 L8.43847583,59.8494359 C6.41557746,59.8095331 4.74191603,58.264059 4.54244994,56.2515216 L0.173039994,3.75548321 C0.0786082122,2.82804815 0.385029697,1.90446141 1.01517223,1.21720763 C1.64531476,0.529953856 2.53915654,0.144494757 3.4717003,0.157521582 L81.0428156,0.157521582 C83.0664843,0.197269357 84.7413383,1.74235462 84.9425986,3.75548321 L89.3120085,56.2440109 C89.4074969,57.1723968 89.1016833,58.0973412 88.4715441,58.786026 C87.8414049,59.4747109 86.9469592,59.861541 86.0133482,59.8494359 Z" id="路径" fill="#FFFFFF" fill-rule="nonzero"></path>
                                <path d="M86.0133482,59.9996882 L8.43847583,59.9996882 C6.33607526,59.9651696 4.59451281,58.3585351 4.39216929,56.266543 L0.0227593428,3.77425996 C-0.0664603996,2.80582047 0.256801973,1.84464368 0.913172204,1.12673817 C1.56640302,0.403885598 2.497199,-0.00597483302 3.4717003,6.58419267e-05 L81.0428156,6.58419267e-05 C83.1544969,0.0336363321 84.90115,1.65318967 85.0928792,3.75548321 L89.4585321,56.2440109 C89.5560848,57.2122049 89.235615,58.1759931 88.5776512,58.8931927 C87.9196874,59.6103922 86.9867786,60.0128229 86.0133482,59.9996882 L86.0133482,59.9996882 Z M3.4717003,0.315170809 C2.57965974,0.301100702 1.7241345,0.669222969 1.12154147,1.32682776 C0.518948433,1.98443255 0.227005492,2.86853281 0.31956363,3.75548321 L4.68897358,56.2402556 C4.88135557,58.1792892 6.49684995,59.6664996 8.44598987,59.6992742 L86.0133482,59.6992742 C86.9032887,59.7120855 87.7564406,59.3444987 88.357926,58.6887542 C88.9594114,58.0330098 89.2519012,57.1516084 89.1617278,56.266543 L84.7923179,3.77425996 C84.6015655,1.83441435 82.9851174,0.346325841 81.0353016,0.315170809 L3.4717003,0.315170809 Z" id="形状" fill="#DBDCDD" fill-rule="nonzero"></path>
                                <path d="M81.0428156,0.165368551 L3.4717003,0.165368551 C2.54060338,0.152241811 1.64810685,0.53669261 1.01822972,1.22222277 C0.388352583,1.90775293 0.080898766,2.82927454 0.173039994,3.75548321 L84.9425986,3.75548321 C84.7377892,1.74532043 83.0638963,0.204345591 81.0428156,0.165368551 Z" id="路径" fill="#DBDCDD" fill-rule="nonzero"></path>
                                <path d="M5.28633917,1.96418123 C5.30791091,2.16437512 5.24247453,2.36419383 5.10664898,2.51288917 C4.97082343,2.66158451 4.77767692,2.74485003 4.57626309,2.74153869 C4.13947653,2.73232596 3.77828258,2.39869208 3.73469144,1.96418123 C3.71436255,1.7642599 3.78022837,1.56515261 3.91578381,1.41675298 C4.05133925,1.26835334 4.243738,1.18472488 4.44476752,1.18682377 C4.88291367,1.19264962 5.24601879,1.52804884 5.28633917,1.96418123 Z" id="路径" fill="#FFFFFF" fill-rule="nonzero"></path>
                                <path d="M8.44223285,1.96418123 C8.46380459,2.16437512 8.39836821,2.36419383 8.26254267,2.51288917 C8.12671712,2.66158451 7.93357061,2.74485003 7.73215677,2.74153869 C7.30116162,2.72492312 6.9484243,2.39317656 6.90561319,1.96418123 C6.8852843,1.7642599 6.95115012,1.56515261 7.08670556,1.41675298 C7.222261,1.26835334 7.41465975,1.18472488 7.61568927,1.18682377 C8.04804501,1.20017579 8.40259791,1.53362989 8.44223285,1.96418123 Z" id="路径" fill="#FFFFFF" fill-rule="nonzero"></path>
                                <path d="M11.5981265,1.96418123 C11.6196983,2.16437512 11.5542619,2.36419383 11.4184363,2.51288917 C11.2826108,2.66158451 11.0894643,2.74485003 10.8880505,2.74153869 C10.4512639,2.73232596 10.09007,2.39869208 10.0464788,1.96418123 C10.0261499,1.7642599 10.0920157,1.56515261 10.2275712,1.41675298 C10.3631266,1.26835334 10.5555254,1.18472488 10.7565549,1.18682377 C11.194701,1.19264962 11.5578062,1.52804884 11.5981265,1.96418123 Z" id="路径" fill="#FFFFFF" fill-rule="nonzero"></path>
                                <path d="M79.280775,52.9695645 L14.0439441,52.9695645 C12.4356281,52.9392254 11.1040314,51.711473 10.9444057,50.1115243 L7.87868041,13.5193934 C7.80457398,12.781238 8.04961979,12.0466156 8.55207895,11.500613 C9.05453812,10.9546103 9.76650174,10.6492882 10.5085918,10.6612151 L75.7566937,10.6612151 C77.3650097,10.6916923 78.6966064,11.9194446 78.8562322,13.5193934 L81.9031724,50.1303011 C81.9714194,50.8640606 81.7247912,51.5922805 81.2246692,52.1337197 C80.7245472,52.6751589 80.0179638,52.9788994 79.280775,52.9695645 Z" id="路径" fill="#F0F0F0" fill-rule="nonzero"></path>
                                <path d="M59.0980835,17.0531778 L38.8853358,41.3803354 C37.5932745,42.9339409 37.2066195,45.0491622 37.8655596,46.9590876 C38.5244998,48.8690131 40.133374,50.2963707 42.1088558,50.7236464 L74.907608,57.8099919 C76.9980168,58.2632191 79.167971,57.5258635 80.5489135,55.8930629 C81.9298559,54.2602623 82.2961464,51.9988094 81.5011716,50.0138852 L68.9264381,18.5966266 C68.170665,16.7000123 66.4699069,15.3426514 64.4522241,15.0257937 C62.4345414,14.708936 60.3993016,15.4795942 59.0980835,17.0531778 Z" id="路径" fill="#263238" fill-rule="nonzero" opacity="0.1"></path>
                                <path d="M14.1040564,20.4630356 L7.06340787,39.4313087 C6.63482186,40.6084035 6.84000965,41.9229487 7.60695944,42.9135973 C8.37390924,43.904246 9.59548437,44.4326125 10.8429663,44.3132638 L31.4051164,42.2966408 C32.7380735,42.1665103 33.8928198,41.3174817 34.4140508,40.0843183 C34.9352817,38.8511548 34.7393588,37.4317344 33.9035322,36.3857198 L20.3782736,19.4490911 C19.5556412,18.4227711 18.2442839,17.9181009 16.9454778,18.1279944 C15.6466717,18.3378879 14.5612245,19.2298935 14.1040564,20.4630356 Z" id="路径" fill="#263238" fill-rule="nonzero" opacity="0.1"></path>
                            </g>
                        </g>
                    </g>
                    <g id="jb_beam-(1)" mask="url(#mask-2)">
                        <g transform="translate(150.000000, 71.000000)">
                            <path d="M33.5302222,34.4141111 L16.5307778,20.0252222 C14.6321475,18.4363895 11.9673935,18.137045 9.7635702,19.2650296 C7.55974693,20.3930142 6.24415465,22.7296225 6.42259167,25.198903 C6.60102869,27.6681836 8.2388978,29.7913666 10.582,30.5907778 L10.6436667,30.5907778 L10.804,30.6401111 L32.2475556,37.1726667 C32.4031559,37.2288864 32.567224,37.2580849 32.7326667,37.259 C33.4177268,37.255436 34.0173169,36.7979035 34.201607,36.1380874 C34.3858972,35.4782713 34.1101742,34.7762591 33.5261111,34.4182222 L33.5302222,34.4141111 Z" id="路径" fill="url(#linearGradient-6)" fill-rule="nonzero"></path>
                            <path d="M36.9384155,10.6601111 C36.9483003,9.01130282 36.051176,7.49046767 34.6032742,6.70164044 C33.1553724,5.91281321 31.3910741,5.98368641 30.0111111,6.88611111 L9.25,19.4907778 C7.32631237,20.7446095 6.25859396,22.9634372 6.4790678,25.2490573 C6.69954165,27.5346775 8.1716891,29.5085064 10.2995702,30.3715187 C12.4274513,31.2345309 14.85861,30.8437795 16.6088889,29.3574444 L35.2198889,14.1915556 L35.3678889,14.0682222 C36.3633791,13.2156012 36.9369688,11.9708214 36.9384155,10.6601111 Z" id="路径" fill="url(#linearGradient-7)" fill-rule="nonzero"></path>
                            <path d="M67.1303333,37.8222222 L35.631,7.48633333 C34.469435,6.32061235 32.7627654,5.88460683 31.1844064,6.3503552 C29.6060474,6.81610357 28.4094913,8.10880435 28.0668733,9.71838554 C27.7242554,11.3279667 28.2906018,12.9959217 29.5424444,14.0641111 L29.6,14.1134444 L63.0644444,42.3074444 C63.9659344,43.0636369 65.224058,43.2286326 66.2900502,42.7304642 C67.3560425,42.2322958 68.0365605,41.1613179 68.0347813,39.9846667 C68.0347813,39.1718891 67.708934,38.3930363 67.1303333,37.8222222 Z" id="路径" fill="url(#linearGradient-8)" fill-rule="nonzero"></path>
                            <path d="M68.03897,39.997 C68.0472206,38.8567949 67.4130021,37.8089954 66.3989439,37.2876288 C65.3848858,36.7662621 64.163695,36.8601236 63.2412222,37.5303333 L25.1271111,56.1536667 C23.0552495,57.194725 21.7424876,59.3100004 21.7291651,61.628672 C21.7160442,63.9473437 23.0045977,66.0774524 25.0644522,67.142071 C27.1243066,68.2066895 29.6072546,68.0258497 31.4911111,66.674 L66.7356667,42.4842222 C67.5523066,41.9195942 68.0394739,40.9898269 68.03897,39.997 L68.03897,39.997 Z" id="路径" fill="url(#linearGradient-9)" fill-rule="nonzero"></path>
                            <polygon id="路径" fill="#000000" fill-rule="nonzero" points="24.6666667 24.6666667 49.3333333 24.6666667 49.3333333 49.3333333 24.6666667 49.3333333"></polygon>
                            <g id="编组" stroke-width="1" fill="none" fill-rule="evenodd" transform="translate(26.964778, 27.758222)">
                                <polygon id="路径" fill="#FFFFFF" fill-rule="nonzero" points="0.386444444 16.9501111 9.63644444 16.9501111 9.63644444 18.4917778 0.386444444 18.4917778"></polygon>
                                <path d="M0,3.26833333 L0.686555556,2.61877778 C0.819082742,2.82791625 1.04378403,2.96090273 1.29088889,2.97644444 C1.554,2.97644444 1.72666667,2.79144444 1.72666667,2.43377778 L1.72666667,1.16844805e-14 L2.78733333,1.16844805e-14 L2.78733333,2.442 C2.81939215,2.83962018 2.68203328,3.2322874 2.40911111,3.52322222 C2.12749818,3.79825502 1.74599675,3.94669916 1.35255556,3.93433333 C0.817977063,3.95586708 0.308870294,3.70518229 0,3.26833333 L0,3.26833333 Z" id="路径" fill="#FFFFFF" fill-rule="nonzero"></path>
                                <polygon id="路径" fill="#FFFFFF" fill-rule="nonzero" points="3.26422222 5.84224027e-15 6.35988889 5.84224027e-15 6.35988889 0.900333333 4.30433333 0.900333333 4.30433333 1.48822222 6.15022222 1.48822222 6.15022222 2.31044444 4.32077778 2.31044444 4.32077778 2.923 6.37633333 2.923 6.37633333 3.82744444 3.25188889 3.82744444"></polygon>
                                <polygon id="路径" fill="#FFFFFF" fill-rule="nonzero" points="7.86866667 0.933222222 6.71755556 0.933222222 6.71755556 1.16844805e-14 10.0927778 1.16844805e-14 10.0927778 0.933222222 8.93755556 0.933222222 8.93755556 3.848 7.86866667 3.848"></polygon>
                                <path d="M0.427555556,5.36911111 L2.24466667,5.36911111 C2.62571794,5.33777174 3.00340129,5.46070397 3.293,5.71033333 C3.45812624,5.87583723 3.54868133,6.10148269 3.54377778,6.33522222 C3.55008744,6.71988819 3.31019188,7.0656687 2.94766667,7.19444444 C3.39953321,7.27727303 3.72390952,7.67663956 3.71233333,8.13588889 C3.71233333,8.83066667 3.17377778,9.24177778 2.25288889,9.24177778 L0.427555556,9.24177778 L0.427555556,5.36911111 Z M2.48311111,6.55722222 C2.48311111,6.34344444 2.31044444,6.22833333 1.998,6.22833333 L1.46766667,6.22833333 L1.46766667,6.90255556 L1.98155556,6.90255556 C2.30222222,6.90255556 2.49133333,6.79155556 2.49133333,6.56955556 L2.48311111,6.55722222 Z M2.11311111,7.65077778 L1.46766667,7.65077778 L1.46766667,8.362 L2.13366667,8.362 C2.46255556,8.362 2.64344444,8.23455556 2.64344444,8.00844444 C2.63522222,7.79055556 2.479,7.65077778 2.12133333,7.65077778 L2.11311111,7.65077778 Z" id="形状" fill="#FFFFFF" fill-rule="nonzero"></path>
                                <path d="M4.05355556,5.36911111 L5.75966667,5.36911111 C6.21590768,5.33195628 6.66788252,5.48014475 7.01355556,5.78022222 C7.24686422,6.01858607 7.37048334,6.34327242 7.35477778,6.67644444 C7.36996408,7.20094319 7.0516259,7.67762574 6.56133333,7.86455556 L7.48222222,9.24177778 L6.24888889,9.24177778 L5.47188889,8.07422222 L5.11422222,8.07422222 L5.11422222,9.24177778 L4.04533333,9.24177778 L4.05355556,5.36911111 Z M5.698,7.21911111 C6.05566667,7.21911111 6.27355556,7.04233333 6.27355556,6.75866667 C6.27355556,6.45033333 6.04744444,6.29411111 5.69388889,6.29411111 L5.12244444,6.29411111 L5.12244444,7.22733333 L5.698,7.21911111 Z" id="形状" fill="#FFFFFF" fill-rule="nonzero"></path>
                                <path d="M8.83888889,5.34033333 L9.86666667,5.34033333 L11.5111111,9.22122222 L10.3641111,9.22122222 L10.0886667,8.52644444 L8.59633333,8.52644444 L8.32088889,9.24177778 L7.20677778,9.24177778 L8.83888889,5.34033333 Z M9.77622222,7.696 L9.34455556,6.60655556 L8.90877778,7.696 L9.77622222,7.696 Z" id="形状" fill="#FFFFFF" fill-rule="nonzero"></path>
                                <polygon id="路径" fill="#FFFFFF" fill-rule="nonzero" points="11.6796667 5.35677778 12.7485556 5.35677778 12.7485556 9.20888889 11.6796667 9.20888889"></polygon>
                                <polygon id="路径" fill="#FFFFFF" fill-rule="nonzero" points="13.1432222 5.35677778 14.1463333 5.35677778 15.5317778 7.41233333 15.5317778 5.35677778 16.5883333 5.35677778 16.5883333 9.20888889 15.6551111 9.20888889 14.2038889 7.09577778 14.2038889 9.20888889 13.1432222 9.20888889"></polygon>
                                <path d="M16.7651111,8.63744444 L17.3571111,7.92622222 C17.703848,8.21610851 18.1386241,8.37987416 18.5904444,8.39077778 C18.8823333,8.39077778 19.0344444,8.288 19.0344444,8.12355556 C19.0344444,7.955 18.9111111,7.87277778 18.3807778,7.74944444 C17.5585556,7.56033333 16.9295556,7.33833333 16.9295556,6.54488889 C16.9295556,5.82955556 17.4968889,5.31155556 18.4218889,5.31155556 C18.9936732,5.29013071 19.5545204,5.47222396 20.0046667,5.82544444 L19.4907778,6.55722222 C19.1797918,6.32223698 18.803293,6.19003129 18.4136667,6.179 C18.1546667,6.179 18.0272222,6.28177778 18.0272222,6.42566667 C18.0272222,6.60244444 18.1587778,6.68055556 18.6973333,6.79977778 C19.5812222,6.993 20.128,7.28077778 20.128,8.00022222 C20.128,8.78544444 19.5072222,9.23355556 18.574,9.23355556 C17.9186052,9.26146099 17.2755085,9.04953139 16.7651111,8.63744444 L16.7651111,8.63744444 Z" id="路径" fill="#FFFFFF" fill-rule="nonzero"></path>
                            </g>
                            <polygon id="路径" fill="none" points="0 0 74 0 74 74 0 74"></polygon>
                        </g>
                    </g>
                </g>
                <g opacity="0.106440226" transform="translate(89.023536, 36.612539) scale(-1, -1) rotate(108.000000) translate(-89.023536, -36.612539) ">
                    <use fill="black" fill-opacity="1" filter="url(#filter-11)" xlink:href="#path-10"></use>
                    <use fill="#FFFFFF" fill-rule="evenodd" xlink:href="#path-10"></use>
                </g>
            </g>
            <g id="矩形">
                <use fill="black" fill-opacity="1" filter="url(#filter-13)" xlink:href="#path-12"></use>
                <use fill="#FCFCFF" fill-rule="evenodd" xlink:href="#path-12"></use>
            </g>
            <g id="矩形备份">
                <use fill="black" fill-opacity="1" filter="url(#filter-15)" xlink:href="#path-14"></use>
                <use fill="#FCFCFF" fill-rule="evenodd" xlink:href="#path-14"></use>
            </g>
            <g id="矩形备份-3">
                <use fill="black" fill-opacity="1" filter="url(#filter-17)" xlink:href="#path-16"></use>
                <use fill="#FCFCFF" fill-rule="evenodd" xlink:href="#path-16"></use>
            </g>
            <text id="漏洞检测" font-family="PingFangSC-Regular, PingFang SC" font-size="12" font-weight="normal" letter-spacing="3.6" fill="#6C87FF">
                <tspan x="6" y="34">漏洞检测</tspan>
            </text>
            <text id="一键修复" font-family="PingFangSC-Regular, PingFang SC" font-size="12" font-weight="normal" letter-spacing="3.6" fill="#6C87FF">
                <tspan x="6" y="94">一键修复</tspan>
            </text>
            <text id="SBOM识别" font-family="PingFangSC-Regular, PingFang SC" font-size="12" font-weight="normal" fill="#6C87FF">
                <tspan x="6" y="64">SBOM识别</tspan>
            </text>
        </g>
    </g>
</svg>