<?xml version="1.0" encoding="UTF-8"?>
<svg width="300px" height="180px" viewBox="0 0 300 180" version="1.1" xmlns="http://www.w3.org/2000/svg" xmlns:xlink="http://www.w3.org/1999/xlink">
    <title>编组 4</title>
    <defs>
        <path d="M16,0 L284,0 C292.836556,-1.623249e-15 300,7.163444 300,16 L300,180 L300,180 L0,180 L0,16 C-1.082166e-15,7.163444 7.163444,1.623249e-15 16,0 Z" id="path-1"></path>
        <path d="M4.07107173,-57.9596531 C25.4219451,-11.2993816 51.1017049,18.485986 81.1103513,31.3964496 C126.123321,50.7621452 173.976001,94.3453686 173.976001,126.937192 C173.976001,148.665074 173.976001,87.0327922 173.976001,-57.9596531 L4.07107173,-57.9596531 Z" id="path-3"></path>
        <filter x="-12.9%" y="-7.4%" width="125.9%" height="129.6%" filterUnits="objectBoundingBox" id="filter-4">
            <feOffset dx="0" dy="20" in="SourceAlpha" result="shadowOffsetOuter1"></feOffset>
            <feGaussianBlur stdDeviation="4" in="shadowOffsetOuter1" result="shadowBlurOuter1"></feGaussianBlur>
            <feColorMatrix values="0 0 0 0 0.423529412   0 0 0 0 0.529411765   0 0 0 0 1  0 0 0 1 0" type="matrix" in="shadowBlurOuter1"></feColorMatrix>
        </filter>
        <linearGradient x1="50%" y1="0%" x2="50%" y2="100%" id="linearGradient-5">
            <stop stop-color="#FDFDFF" offset="0%"></stop>
            <stop stop-color="#FAFBFF" offset="100%"></stop>
        </linearGradient>
        <path d="M250.487013,209 C303.223034,209 345.974026,170.944204 345.974026,124 C345.974026,77.0557963 303.223034,-1 250.487013,-1 C197.750992,-1 65,77.0557963 65,124 C65,170.944204 197.750992,209 250.487013,209 Z" id="path-6"></path>
        <filter x="-2.5%" y="-2.4%" width="105.0%" height="106.7%" filterUnits="objectBoundingBox" id="filter-7">
            <feOffset dx="0" dy="2" in="SourceAlpha" result="shadowOffsetOuter1"></feOffset>
            <feGaussianBlur stdDeviation="2" in="shadowOffsetOuter1" result="shadowBlurOuter1"></feGaussianBlur>
            <feColorMatrix values="0 0 0 0 0.216561212   0 0 0 0 0.276560083   0 0 0 0 0.543221736  0 0 0 1 0" type="matrix" in="shadowBlurOuter1"></feColorMatrix>
        </filter>
        <path d="M0,16 L67,16 C69.209139,16 71,17.790861 71,20 L71,38 C71,40.209139 69.209139,42 67,42 L0,42 L0,42 L0,16 Z" id="path-8"></path>
        <filter x="-5.6%" y="-23.1%" width="122.5%" height="161.5%" filterUnits="objectBoundingBox" id="filter-9">
            <feOffset dx="4" dy="2" in="SourceAlpha" result="shadowOffsetOuter1"></feOffset>
            <feGaussianBlur stdDeviation="2" in="shadowOffsetOuter1" result="shadowBlurOuter1"></feGaussianBlur>
            <feColorMatrix values="0 0 0 0 0   0 0 0 0 0   0 0 0 0 0  0 0 0 0.08 0" type="matrix" in="shadowBlurOuter1"></feColorMatrix>
        </filter>
        <path d="M0,46 L67,46 C69.209139,46 71,47.790861 71,50 L71,68 C71,70.209139 69.209139,72 67,72 L0,72 L0,72 L0,46 Z" id="path-10"></path>
        <filter x="-5.6%" y="-23.1%" width="122.5%" height="161.5%" filterUnits="objectBoundingBox" id="filter-11">
            <feOffset dx="4" dy="2" in="SourceAlpha" result="shadowOffsetOuter1"></feOffset>
            <feGaussianBlur stdDeviation="2" in="shadowOffsetOuter1" result="shadowBlurOuter1"></feGaussianBlur>
            <feColorMatrix values="0 0 0 0 0   0 0 0 0 0   0 0 0 0 0  0 0 0 0.08 0" type="matrix" in="shadowBlurOuter1"></feColorMatrix>
        </filter>
    </defs>
    <g id="模版" stroke="none" stroke-width="1" fill="none" fill-rule="evenodd">
        <g id="创建新的任务-选择模板/自定义-备份-11" transform="translate(-56.000000, -641.000000)">
            <g id="编组-4" transform="translate(56.000000, 641.000000)">
                <g id="路径-7备份-8-+-椭圆形备份-5-+-Warning-rafiki-蒙版">
                    <mask id="mask-2" fill="white">
                        <use xlink:href="#path-1"></use>
                    </mask>
                    <use id="蒙版" fill="#6C87FF" xlink:href="#path-1"></use>
                    <g id="路径-7备份-8" opacity="0.106440226" mask="url(#mask-2)" transform="translate(89.023536, 36.612539) scale(-1, -1) rotate(108.000000) translate(-89.023536, -36.612539) ">
                        <use fill="black" fill-opacity="1" filter="url(#filter-4)" xlink:href="#path-3"></use>
                        <use fill="#FFFFFF" fill-rule="evenodd" xlink:href="#path-3"></use>
                    </g>
                    <g id="椭圆形备份-5" mask="url(#mask-2)">
                        <use fill="black" fill-opacity="1" filter="url(#filter-7)" xlink:href="#path-6"></use>
                        <use fill="url(#linearGradient-5)" fill-rule="evenodd" xlink:href="#path-6"></use>
                    </g>
                    <g id="Warning-rafiki" mask="url(#mask-2)">
                        <g transform="translate(114.000000, 40.000000)">
                            <g id="freepik--background-complete--inject-117">
                                <rect id="矩形" fill="#EBEBEB" fill-rule="nonzero" x="0" y="122.848236" width="188" height="1"></rect>
                                <rect id="矩形" fill="#EBEBEB" fill-rule="nonzero" x="156.70928" y="128.885586" width="12.45312" height="1"></rect>
                                <rect id="矩形" fill="#EBEBEB" fill-rule="nonzero" x="121.27128" y="129.906194" width="3.26744" height="1"></rect>
                                <rect id="矩形" fill="#EBEBEB" fill-rule="nonzero" x="149.11784" y="125.40351" width="7.21544" height="1"></rect>
                                <rect id="矩形" fill="#EBEBEB" fill-rule="nonzero" x="19.72496" y="126.033886" width="16.23944" height="1"></rect>
                                <rect id="矩形" fill="#EBEBEB" fill-rule="nonzero" x="39.31456" y="126.033886" width="2.38008" height="1"></rect>
                                <rect id="矩形" fill="#EBEBEB" fill-rule="nonzero" x="49.43272" y="127.61733" width="35.22368" height="1"></rect>
                                <path d="M89.112,106.11326 L16.51016,106.11326 C15.3258954,106.11119 14.36696,105.152554 14.36696,103.970733 L14.36696,2.12376609 C14.3772645,0.949275339 15.3331959,0.00201196434 16.51016,0 L89.112,0 C90.2977333,0 91.25896,0.959242135 91.25896,2.14252728 L91.25896,103.970733 C91.25896,105.154018 90.2977333,106.11326 89.112,106.11326 Z M16.51016,0.0750447382 C15.3778101,0.0771143606 14.46096,0.993752253 14.46096,2.12376609 L14.46096,103.970733 C14.46096,105.100746 15.3778101,106.017384 16.51016,106.019454 L89.112,106.019454 C90.2449602,106.017389 91.1628907,105.101354 91.16496,103.970733 L91.16496,2.12376609 C91.1628907,0.993145015 90.2449602,0.0771098047 89.112,0.0750447382 L16.51016,0.0750447382 Z" id="形状" fill="#EBEBEB" fill-rule="nonzero"></path>
                                <path d="M170.44456,106.11326 L97.83896,106.11326 C96.6540851,106.111194 95.6940697,105.153161 95.692,103.970733 L95.692,2.12376609 C95.7043507,0.948670688 96.6613703,0.00198984015 97.83896,0 L170.44456,0 C171.620058,0.00406393969 172.573714,0.950733405 172.584,2.12376609 L172.584,103.970733 C172.584,105.151093 171.627355,106.109125 170.44456,106.11326 Z M97.83896,0.0750447382 C96.7059998,0.0771098047 95.7880693,0.993145015 95.786,2.12376609 L95.786,103.970733 C95.7880693,105.101354 96.7059998,106.017389 97.83896,106.019454 L170.44456,106.019454 C171.57752,106.017389 172.495451,105.101354 172.49752,103.970733 L172.49752,2.12376609 C172.495451,0.993145015 171.57752,0.0771098047 170.44456,0.0750447382 L97.83896,0.0750447382 Z" id="形状" fill="#EBEBEB" fill-rule="nonzero"></path>
                                <rect id="矩形" fill="#E6E6E6" fill-rule="nonzero" x="38.08504" y="7.9397333" width="109.71304" height="51.2255383"></rect>
                                <rect id="矩形" fill="#F0F0F0" fill-rule="nonzero" x="38.85584" y="7.9397333" width="110.59288" height="51.2255383"></rect>
                                <rect id="矩形" fill="#E6E6E6" fill-rule="nonzero" x="38.08504" y="59.1652716" width="109.71304" height="2.61155689"></rect>
                                <rect id="矩形" fill="#F0F0F0" fill-rule="nonzero" x="41.60816" y="59.1652716" width="110.59288" height="2.61155689"></rect>
                                <polygon id="矩形" fill="#FAFAFA" fill-rule="nonzero" transform="translate(94.154160, 33.554379) rotate(90.000000) translate(-94.154160, -33.554379) " points="70.8508927 -19.4277814 117.457427 -19.4277814 117.457427 86.5365386 70.8508927 86.5365386"></polygon>
                                <polygon id="路径" fill="#FFFFFF" fill-rule="nonzero" points="52.53848 56.8576459 58.97936 10.2511112 69.02984 10.2511112 62.58896 56.8576459"></polygon>
                                <path d="M42.23984,54.5575788 C42.14847,54.5575788 42.0744,54.4836076 42.0744,54.3924263 L42.0744,11.752006 C42.0744,11.6608247 42.14847,11.5869076 42.23984,11.5869076 C42.33121,11.5869076 42.40528,11.6608247 42.40528,11.752006 L42.40528,54.4074352 C42.3992709,54.493587 42.3263504,54.5597415 42.23984,54.5575788 Z" id="路径" fill="#F0F0F0" fill-rule="nonzero"></path>
                                <polygon id="路径" fill="#FFFFFF" fill-rule="nonzero" points="64.7472 56.8576459 71.18808 10.2511112 75.106 10.2511112 68.66512 56.8576459"></polygon>
                                <polygon id="矩形" fill="#E6E6E6" fill-rule="nonzero" transform="translate(146.989680, 33.554379) rotate(90.000000) translate(-146.989680, -33.554379) " points="123.686413 33.5543786 170.292947 33.5543786 170.292947 33.5543786 123.686413 33.5543786"></polygon>
                                <polygon id="路径" fill="#EBEBEB" fill-rule="nonzero" opacity="0.6" points="149.99392 13.7331871 40.28464 13.7331871 40.07032 11.1478959 149.78336 11.1478959"></polygon>
                                <polygon id="路径" fill="#EBEBEB" fill-rule="nonzero" opacity="0.6" points="149.99392 17.9694626 40.28464 17.9694626 40.07032 15.3841713 149.78336 15.3841713"></polygon>
                                <polygon id="路径" fill="#EBEBEB" fill-rule="nonzero" opacity="0.6" points="149.99392 22.2094903 40.28464 22.2094903 40.07032 19.624199 149.78336 19.624199"></polygon>
                                <polygon id="路径" fill="#EBEBEB" fill-rule="nonzero" opacity="0.6" points="149.99392 26.4457657 40.28464 26.4457657 40.07032 23.8604745 149.78336 23.8604745"></polygon>
                                <polygon id="路径" fill="#EBEBEB" fill-rule="nonzero" opacity="0.6" points="149.99392 30.6857935 40.28464 30.6857935 40.07032 28.1005022 149.78336 28.1005022"></polygon>
                                <polygon id="路径" fill="#EBEBEB" fill-rule="nonzero" opacity="0.6" points="149.99392 34.9220689 40.28464 34.9220689 40.07032 32.3367777 149.78336 32.3367777"></polygon>
                                <rect id="矩形" fill="#E6E6E6" fill-rule="nonzero" x="148.32072" y="72.0429487" width="16.74328" height="50.8052878"></rect>
                                <polygon id="路径" fill="#FAFAFA" fill-rule="nonzero" points="160.59336 122.848236 165.064 122.848236 165.064 115.835306 155.90464 115.835306"></polygon>
                                <rect id="矩形" fill="#E6E6E6" fill-rule="nonzero" x="102.67056" y="72.0429487" width="16.74328" height="50.8052878"></rect>
                                <rect id="矩形" fill="#FAFAFA" fill-rule="nonzero" x="115.51096" y="72.0429487" width="49.55304" height="48.3925994"></rect>
                                <polygon id="路径" fill="#FAFAFA" fill-rule="nonzero" points="119.9816 122.848236 115.51096 122.848236 115.51096 115.835306 124.67032 115.835306"></polygon>
                                <rect id="矩形" fill="#F0F0F0" fill-rule="nonzero" x="118.97768" y="90.0761993" width="42.61584" height="12.1084685"></rect>
                                <rect id="矩形" fill="#F0F0F0" fill-rule="nonzero" x="118.97768" y="104.773711" width="42.61584" height="12.1084685"></rect>
                                <path d="M125.67424,89.0255729 L154.912,89.0255729 L154.912,89.6146741 C154.912,90.5824397 154.125848,91.3669688 153.15608,91.3669688 L127.43392,91.3669688 C126.464152,91.3669688 125.678,90.5824397 125.678,89.6146741 L125.678,89.0255729 L125.67424,89.0255729 Z" id="路径" fill="#FAFAFA" fill-rule="nonzero"></path>
                                <rect id="矩形" fill="#F0F0F0" fill-rule="nonzero" x="118.97768" y="75.3749351" width="42.61584" height="12.1084685"></rect>
                                <path d="M125.67424,74.328061 L154.912,74.328061 L154.912,74.9171622 C154.912,75.8849278 154.125848,76.6694568 153.15608,76.6694568 L127.43392,76.6694568 C126.464152,76.6694568 125.678,75.8849278 125.678,74.9171622 L125.678,74.328061 L125.67424,74.328061 Z" id="路径" fill="#FAFAFA" fill-rule="nonzero"></path>
                                <path d="M125.67424,103.723085 L154.912,103.723085 L154.912,104.312186 C154.912,105.279952 154.125848,106.064481 153.15608,106.064481 L127.43392,106.064481 C126.464152,106.064481 125.678,105.279952 125.678,104.312186 L125.678,103.723085 L125.67424,103.723085 Z" id="路径" fill="#FAFAFA" fill-rule="nonzero"></path>
                                <path d="M20.08592,82.8756566 C21.0184,80.2003117 28.35792,83.8362293 31.36592,88.2638688 C33.35496,91.2131271 34.56944,94.3612538 35.12592,98.5900248 C35.05824,93.7646482 34.98304,88.582809 34.90784,83.6898921 C34.30248,82.4704151 32.92256,79.6562374 31.93368,77.4274086 C28.62488,69.9904751 20.75896,67.2213243 18.02168,62.5272759 C14.46096,56.3736073 14.48352,47.1431045 17.51408,43.8186226 C20.14608,40.9218957 28.86928,60.4898112 29.8544,62.6773654 C33.2384,70.1818392 34.216,75.7764244 34.84768,81.1833978 C34.77624,76.5869076 34.70856,72.3693933 34.65216,69.1124517 C34.46792,58.4936212 34.2348,55.0790856 34.12952,54.0284593 C33.75352,53.5144028 33.33616,52.9027882 33.08424,52.5951048 C30.97488,49.8822375 26.28992,46.6553137 23.9512,42.7117128 C20.53336,36.9557813 21.08608,30.0666744 23.4812,27.5001443 C26.00792,24.8172949 30.456,31.1435664 32.79096,37.4398199 C35.12592,43.7360734 34.13704,49.732148 34.7988,54.9515096 C34.93792,55.972118 35.07704,59.8594354 35.2124,65.2513999 C35.9268,59.4504416 37.34808,55.5631242 39.98008,51.9422156 C43.2212,47.4883103 46.01864,42.066328 48.68824,42.7679963 C51.35784,43.4696646 49.92152,50.6476938 47.8084,55.6831958 C45.9284,60.1671189 36.64872,64.6435375 35.28008,68.2494372 C35.44176,75.5587947 35.58464,84.8155631 35.68992,93.4344513 C36.41936,88.9805461 35.91552,88.6090746 38.916,81.8025169 C40.69824,77.750101 48.00392,72.7558737 48.87624,75.5400335 C49.74856,78.3241933 48.42128,83.5848294 45.6652,87.2695261 C43.43928,90.2450499 38.5212,90.2412977 37.35936,92.083646 C37.0924,92.5151533 36.23136,94.1661375 35.70872,95.1117012 C35.82528,105.636726 35.88168,114.923512 35.82152,118.0904 L35.34024,118.12417 C35.36656,117.306183 35.3064,111.95174 35.2124,104.867517 C34.01296,101.11528 25.944,98.9014605 23.45112,94.9803729 C20.84168,90.8679213 18.96544,86.080067 20.08592,82.8756566 Z" id="路径" fill="#E6E6E6" fill-rule="nonzero"></path>
                                <path d="M27.6736,122.848236 L43.1648,122.848236 C44.0108776,122.847555 44.7398677,122.253338 44.90944,121.426139 L46.00736,116.015413 L24.816,116.015413 L25.944,121.426139 C26.1124099,122.247849 26.8331796,122.840475 27.6736,122.848236 L27.6736,122.848236 Z" id="路径" fill="#F0F0F0" fill-rule="nonzero"></path>
                                <path d="M24.38736,118.112913 L46.45104,118.112913 C46.9807793,118.112417 47.4257553,117.715188 47.48504,117.189863 L47.93624,113.189979 C47.9682571,112.896702 47.8738785,112.603665 47.6766335,112.383922 C47.4793884,112.16418 47.1978618,112.038437 46.90224,112.038042 L23.93616,112.038042 C23.6405382,112.038437 23.3590116,112.16418 23.1617665,112.383922 C22.9645215,112.603665 22.8701429,112.896702 22.90216,113.189979 L23.35336,117.189863 C23.4126447,117.715188 23.8576207,118.112417 24.38736,118.112913 Z" id="路径" fill="#F0F0F0" fill-rule="nonzero"></path>
                                <rect id="矩形" fill="#E0E0E0" fill-rule="nonzero" x="53.62888" y="98.5412457" width="13.23896" height="24.3069907"></rect>
                                <polygon id="路径" fill="#E6E6E6" fill-rule="nonzero" points="100.61008 122.848236 56.28344 122.848236 51.6248 89.866074 95.95144 89.866074"></polygon>
                                <polygon id="路径" fill="#F0F0F0" fill-rule="nonzero" points="107.07728 122.848236 58.04312 122.848236 53.38824 89.866074 102.41864 89.866074"></polygon>
                                <polygon id="路径" fill="#FFFFFF" fill-rule="nonzero" points="62.84088 117.692663 58.9192 95.0216475 97.62088 95.0216475 101.54256 117.692663"></polygon>
                                <polygon id="路径" fill="#FAFAFA" fill-rule="nonzero" points="79.47136 117.692663 66.31888 95.0216475 70.4436 95.0216475 83.59984 117.692663"></polygon>
                                <polygon id="路径" fill="#FAFAFA" fill-rule="nonzero" points="85.34824 117.692663 72.192 95.0216475 79.23072 95.0216475 92.3832 117.692663"></polygon>
                            </g>
                            <g id="freepik--Shadow--inject-117" transform="translate(21.000000, 132.000000)">
                                <ellipse id="freepik--path--inject-117" fill="#F5F5F5" fill-rule="nonzero" cx="73" cy="4" rx="73" ry="4"></ellipse>
                            </g>
                            <g id="freepik--Warning--inject-117" transform="translate(28.000000, 37.000000)">
                                <path d="M0.995826562,25.3600121 C0.912157868,25.3603746 0.842057283,25.2968232 0.834274862,25.2135534 L0.000217245102,15.1867688 C-0.00418357445,15.102348 0.0587845497,15.0294698 0.142983864,15.0215334 C0.230926622,15.0150237 0.307844302,15.0802076 0.315806613,15.167992 L1.14986423,25.1947767 C1.15637678,25.2826804 1.09116396,25.359564 1.00334059,25.3675228 L0.995826562,25.3600121 Z" id="路径" fill="#DBDCDD" fill-rule="nonzero"></path>
                                <path d="M1.49175271,31.3159988 C1.40808402,31.3163598 1.33798343,31.2528084 1.33020101,31.1695386 L1.07848092,28.1352158 C1.07431972,28.0927427 1.08755501,28.0503969 1.11516538,28.0178452 C1.14277574,27.9852936 1.18240432,27.9653148 1.22500456,27.9624697 C1.26749651,27.9583103 1.3098611,27.9715397 1.34242717,27.9991379 C1.37499325,28.026736 1.39498091,28.066347 1.39782731,28.1089283 L1.6495474,31.1432512 C1.65605994,31.2311549 1.59084713,31.3080385 1.50302376,31.3159988 L1.49175271,31.3159988 Z" id="路径" fill="#DBDCDD" fill-rule="nonzero"></path>
                                <path d="M86.0133482,59.8494359 L8.43847583,59.8494359 C6.41557746,59.8095331 4.74191603,58.264059 4.54244994,56.2515216 L0.173039994,3.75548321 C0.0786082122,2.82804815 0.385029697,1.90446141 1.01517223,1.21720763 C1.64531476,0.529953856 2.53915654,0.144494757 3.4717003,0.157521582 L81.0428156,0.157521582 C83.0664843,0.197269357 84.7413383,1.74235462 84.9425986,3.75548321 L89.3120085,56.2440109 C89.4074969,57.1723968 89.1016833,58.0973412 88.4715441,58.786026 C87.8414049,59.4747109 86.9469592,59.861541 86.0133482,59.8494359 Z" id="路径" fill="#FFFFFF" fill-rule="nonzero"></path>
                                <path d="M86.0133482,59.9996882 L8.43847583,59.9996882 C6.33607526,59.9651696 4.59451281,58.3585351 4.39216929,56.266543 L0.0227593428,3.77425996 C-0.0664603996,2.80582047 0.256801973,1.84464368 0.913172204,1.12673817 C1.56640302,0.403885598 2.497199,-0.00597483302 3.4717003,6.58419267e-05 L81.0428156,6.58419267e-05 C83.1544969,0.0336363321 84.90115,1.65318967 85.0928792,3.75548321 L89.4585321,56.2440109 C89.5560848,57.2122049 89.235615,58.1759931 88.5776512,58.8931927 C87.9196874,59.6103922 86.9867786,60.0128229 86.0133482,59.9996882 L86.0133482,59.9996882 Z M3.4717003,0.315170809 C2.57965974,0.301100702 1.7241345,0.669222969 1.12154147,1.32682776 C0.518948433,1.98443255 0.227005492,2.86853281 0.31956363,3.75548321 L4.68897358,56.2402556 C4.88135557,58.1792892 6.49684995,59.6664996 8.44598987,59.6992742 L86.0133482,59.6992742 C86.9032887,59.7120855 87.7564406,59.3444987 88.357926,58.6887542 C88.9594114,58.0330098 89.2519012,57.1516084 89.1617278,56.266543 L84.7923179,3.77425996 C84.6015655,1.83441435 82.9851174,0.346325841 81.0353016,0.315170809 L3.4717003,0.315170809 Z" id="形状" fill="#DBDCDD" fill-rule="nonzero"></path>
                                <path d="M81.0428156,0.165368551 L3.4717003,0.165368551 C2.54060338,0.152241811 1.64810685,0.53669261 1.01822972,1.22222277 C0.388352583,1.90775293 0.080898766,2.82927454 0.173039994,3.75548321 L84.9425986,3.75548321 C84.7377892,1.74532043 83.0638963,0.204345591 81.0428156,0.165368551 Z" id="路径" fill="#DBDCDD" fill-rule="nonzero"></path>
                                <path d="M5.28633917,1.96418123 C5.30791091,2.16437512 5.24247453,2.36419383 5.10664898,2.51288917 C4.97082343,2.66158451 4.77767692,2.74485003 4.57626309,2.74153869 C4.13947653,2.73232596 3.77828258,2.39869208 3.73469144,1.96418123 C3.71436255,1.7642599 3.78022837,1.56515261 3.91578381,1.41675298 C4.05133925,1.26835334 4.243738,1.18472488 4.44476752,1.18682377 C4.88291367,1.19264962 5.24601879,1.52804884 5.28633917,1.96418123 Z" id="路径" fill="#FFFFFF" fill-rule="nonzero"></path>
                                <path d="M8.44223285,1.96418123 C8.46380459,2.16437512 8.39836821,2.36419383 8.26254267,2.51288917 C8.12671712,2.66158451 7.93357061,2.74485003 7.73215677,2.74153869 C7.30116162,2.72492312 6.9484243,2.39317656 6.90561319,1.96418123 C6.8852843,1.7642599 6.95115012,1.56515261 7.08670556,1.41675298 C7.222261,1.26835334 7.41465975,1.18472488 7.61568927,1.18682377 C8.04804501,1.20017579 8.40259791,1.53362989 8.44223285,1.96418123 Z" id="路径" fill="#FFFFFF" fill-rule="nonzero"></path>
                                <path d="M11.5981265,1.96418123 C11.6196983,2.16437512 11.5542619,2.36419383 11.4184363,2.51288917 C11.2826108,2.66158451 11.0894643,2.74485003 10.8880505,2.74153869 C10.4512639,2.73232596 10.09007,2.39869208 10.0464788,1.96418123 C10.0261499,1.7642599 10.0920157,1.56515261 10.2275712,1.41675298 C10.3631266,1.26835334 10.5555254,1.18472488 10.7565549,1.18682377 C11.194701,1.19264962 11.5578062,1.52804884 11.5981265,1.96418123 Z" id="路径" fill="#FFFFFF" fill-rule="nonzero"></path>
                                <path d="M79.280775,52.9695645 L14.0439441,52.9695645 C12.4356281,52.9392254 11.1040314,51.711473 10.9444057,50.1115243 L7.87868041,13.5193934 C7.80457398,12.781238 8.04961979,12.0466156 8.55207895,11.500613 C9.05453812,10.9546103 9.76650174,10.6492882 10.5085918,10.6612151 L75.7566937,10.6612151 C77.3650097,10.6916923 78.6966064,11.9194446 78.8562322,13.5193934 L81.9031724,50.1303011 C81.9714194,50.8640606 81.7247912,51.5922805 81.2246692,52.1337197 C80.7245472,52.6751589 80.0179638,52.9788994 79.280775,52.9695645 Z" id="路径" fill="#F0F0F0" fill-rule="nonzero"></path>
                                <path d="M59.0980835,17.0531778 L38.8853358,41.3803354 C37.5932745,42.9339409 37.2066195,45.0491622 37.8655596,46.9590876 C38.5244998,48.8690131 40.133374,50.2963707 42.1088558,50.7236464 L74.907608,57.8099919 C76.9980168,58.2632191 79.167971,57.5258635 80.5489135,55.8930629 C81.9298559,54.2602623 82.2961464,51.9988094 81.5011716,50.0138852 L68.9264381,18.5966266 C68.170665,16.7000123 66.4699069,15.3426514 64.4522241,15.0257937 C62.4345414,14.708936 60.3993016,15.4795942 59.0980835,17.0531778 Z" id="路径" fill="#263238" fill-rule="nonzero" opacity="0.1"></path>
                                <path d="M14.1040564,20.4630356 L7.06340787,39.4313087 C6.63482186,40.6084035 6.84000965,41.9229487 7.60695944,42.9135973 C8.37390924,43.904246 9.59548437,44.4326125 10.8429663,44.3132638 L31.4051164,42.2966408 C32.7380735,42.1665103 33.8928198,41.3174817 34.4140508,40.0843183 C34.9352817,38.8511548 34.7393588,37.4317344 33.9035322,36.3857198 L20.3782736,19.4490911 C19.5556412,18.4227711 18.2442839,17.9181009 16.9454778,18.1279944 C15.6466717,18.3378879 14.5612245,19.2298935 14.1040564,20.4630356 Z" id="路径" fill="#263238" fill-rule="nonzero" opacity="0.1"></path>
                            </g>
                        </g>
                    </g>
                </g>
                <g id="编组-2" transform="translate(157.000000, 69.000000)" fill-rule="nonzero">
                    <path d="M13.4599025,48.2344665 C12.6297764,48.7354547 0,56.7217967 0,57.222785 L0,57.8711227 L2.31249427,63.7356322 L53.5431365,63.7356322 C53.5431365,63.7356322 56.0038675,55.8966397 55.8556307,53.9516265 C55.8556307,52.9791199 47.6433113,47.5861288 47.6433113,47.5861288 C47.6433113,47.5861288 54.0471416,41.2206311 54.2250258,27.3403097 C54.247869,26.031404 54.1884587,24.7223577 54.0471416,23.4208134 C52.8908945,7.74282832 42.870086,2.20248776 32.3749197,1.70149953 C21.8797534,1.20051131 15.7723968,6.26933351 15.7723968,6.26933351 C15.7723968,6.26933351 9.04244557,8.56798546 8.39020358,13.9315066 C8.39020358,13.9315066 3.14262044,14.9040132 5.92947245,25.5131761 C3.79486236,27.1340204 3.29085722,29.4326724 3.29085722,31.0535167 C3.29085722,33.1753493 3.94309922,35.6213507 5.24758314,37.0948455 C8.03443523,40.0418352 10.3469295,39.3934974 10.3469295,39.3934974 C10.3469295,39.3934974 11.3252925,44.6391391 13.4599025,48.2344665 Z" id="路径" fill="#FFE0B2"></path>
                    <path d="M53.5398368,56.4041777 C53.1915951,54.6137268 52.1468699,53.7931034 49.8674695,53.7931034 L49.5192278,53.7931034 C48.8227443,53.9423077 47.7780192,54.2158488 44.770477,55.8570955 L43.0292684,56.8269231 C42.5962199,56.6563575 42.120589,56.5629564 41.6363016,56.553382 C40.7980534,56.5760669 39.994424,56.8215509 39.3569012,57.2496684 L37.6156926,56.553382 L34.6398088,55.3100132 C33.0568919,54.762931 31.473975,54.3401856 30.2709581,54.3401856 C29.4785726,54.3325181 28.6958938,54.4776764 27.9915578,54.762931 C27.1051243,55.3100133 26.7568826,56.1389257 26.9468326,57.2496684 C26.9468326,57.7967507 27.1367826,58.4930371 27.1367826,59.0401193 C27.4850243,61.9247347 27.6749744,63.9887268 31.1573916,64.137931 L31.6955834,64.137931 C33.9850165,64.0844669 36.1926256,63.4570685 37.9955926,62.3474801 L39.5785096,61.5268568 C40.1429295,61.8497129 40.8128273,62.0394898 41.5096682,62.073939 C42.2599804,62.0591383 42.9875632,61.8686348 43.5991185,61.5268568 L46.0684689,61.9496021 C46.9966671,62.1006563 47.9389733,62.1921384 48.886061,62.2231433 L49.5825444,62.2231433 C50.4689779,62.2231433 51.3237531,62.2231433 52.2101866,61.8003979 C53.0966201,61.3776525 53.7931034,60.4326923 53.7931034,58.9157825 C53.7931034,58.219496 53.6031534,57.5480769 53.6031534,56.9761273 L53.5398368,56.4041777 Z" id="路径" fill="#F44336"></path>
                    <path d="M24.6578852,58.6768244 C24.6578852,58.0152366 24.4895003,57.3536488 24.4895003,56.5116279 C24.3339211,55.7151018 24.4431231,54.8853552 24.798206,54.1659984 C17.024435,53.9855654 14.5267252,49.6551724 14.5267252,49.6551724 C14.5267252,49.6551724 14.0496346,52.3315958 16.2386387,55.308741 C19.5502089,59.4887731 24.5175644,60 24.5175644,60 L24.8262701,60 C24.83717,59.5520931 24.7803056,59.1052505 24.6578852,58.6768244 L24.6578852,58.6768244 Z" id="路径" fill="#FFFFFF"></path>
                    <path d="M28.9655172,64.137931 L27.782918,61.9444258 C27.5677685,61.3845787 27.3955096,60.8113423 27.2674261,60.2289923 L27.0854877,59.1322397 L25.9028885,58.9635085 C24.3867356,58.6541681 20.6873226,57.7261466 18.0188936,54.7452293 C17.2408199,53.8411638 16.6729816,52.7975028 16.3511255,51.6799464 L15.6840182,49.6551724 L13.8343117,50.7238031 C10.4684524,52.7485772 4.91933292,56.0107131 3.06962641,57.4168062 L2.06896552,58.2042182 L4.58577924,64.1098092 L28.9655172,64.137931 Z" id="路径" fill="#546E7A"></path>
                    <path d="M10.3479671,64.137931 L28.9655172,64.137931 L27.7410915,61.8713677 C27.5183326,61.292874 27.3399811,60.700545 27.2073675,60.0987989 L27.0189943,58.9655172 L25.7945686,58.7911662 C24.224792,58.4715227 20.3945372,57.512592 17.6317305,54.4323905 C17.4433573,54.2580395 17.2863796,53.9383959 17.0980064,53.7931034 L8.27586207,59.3142193 L10.3479671,64.137931 Z" id="路径" fill="#455A64"></path>
                    <path d="M57.56396,53.5740365 C56.4627364,52.7707911 53.1256952,51.0182556 51.8242492,50.336714 L50.5228031,49.6551724 C49.8023455,50.2513477 48.9969165,50.7898796 48.1201335,51.2616633 L49.4215796,52.2109533 C50.0045117,52.7092701 50.3858119,53.316088 50.5228031,53.9634888 L50.5228031,54.3772819 C50.6891761,55.0024438 50.756359,55.639495 50.7230256,56.275862 C50.7230256,58.5638945 49.621802,58.9776876 49.0545051,59.0993914 C48.5980374,59.2663451 48.0966845,59.3577682 47.5862069,59.36714 L47.7864294,62.0689655 L55.3615128,62.0689655 L55.7285873,61.1196755 C56.6629589,58.9533469 57.7641825,55.862069 57.9310345,54.5233266 L57.9310345,53.841785 L57.56396,53.5740365 Z" id="路径" fill="#546E7A"></path>
                    <path d="M55.9891726,66.2068966 L56.377545,64.8841153 C56.9777568,63.3917468 57.3661292,61.3227812 57.9310345,59.6269079 L50.6931858,55.862069 C50.6931858,56.4386659 50.9050253,57.1848502 50.9050253,57.9310344 C50.9050253,61.1192764 49.7399082,61.6958733 49.1396964,61.8654607 C48.6567443,62.098101 48.1263026,62.2254939 47.5862069,62.2385528 L47.7980464,66.0033917 L56.0244792,66.2068966 L55.9891726,66.2068966 Z" id="路径" fill="#455A64"></path>
                    <path d="M4.66341528,28.4724663 L4.84888032,28.2795088 C5.72537072,27.5310459 6.80785057,27.0918238 7.93996428,27.0252845 C8.96002198,27.0252845 9.48550623,27.37904 9.98007969,27.5719977 C12.2056601,28.826222 12.7311444,31.1417129 12.8856985,32.7496927 L12.8856985,33.1034483 C13.9057562,32.7496927 14.9258139,32.3959371 15.296744,32.2029796 C15.2946239,31.8407033 15.2318642,31.48158 15.111279,31.1417129 C14.9422971,30.2897837 14.7150394,29.451501 14.4312406,28.6332644 C13.7512021,26.6715289 13.9057563,24.19524 14.9567248,20.9792803 L15.1421898,20.6255248 C15.3276549,19.9180136 15.6676741,19.2105025 15.6676741,18.6637893 C15.7039979,18.242062 15.7659434,17.8231497 15.8531391,17.4095651 C15.8008851,16.9168352 15.6648195,16.4377007 15.4512983,15.9945428 L15.111279,15.0940741 L15.6367633,14.1936054 C17.1823052,11.5243588 22.8389889,2.6161505 34.3069103,2.6161505 L35.1724138,2.6161505 C34.4192346,2.24526895 33.5945802,2.05827564 32.7613683,2.06943738 L31.5558456,2.06943738 C22.3135046,2.06943738 16.656821,6.1537062 15.6367633,6.8933769 L15.4512983,7.08633448 L15.2658332,7.27929206 C14.2457755,7.6330476 8.92911112,9.94853857 7.90905342,14.7403185 L7.56903421,15.2870317 L6.88899572,15.6407872 C6.21638169,15.9832025 5.67257306,16.5489803 5.34345377,17.2487671 C4.13793103,19.3713005 3.98337686,22.5872602 4.81796945,27.0574441 L5.00343449,27.9579128 L4.32339607,28.826222 L4.13793103,29.0191795 L4.66341528,28.4724663 Z" id="路径" fill="#616161"></path>
                    <path d="M37.7660154,60.7965946 L47.5862069,60.7965946 L47.5862069,64.137931 L37.7660154,64.137931 L37.7660154,60.7965946 Z M15.1677434,29.735435 C14.9902701,28.2276117 14.5170078,26.9007272 13.3634311,26.237285 C12.9520239,26.0498159 12.5114974,25.9375338 12.06196,25.9055639 C11.233751,25.9055639 10.2576477,26.237285 9.42943878,27.4133871 L8.27586207,24.0358629 C9.75480655,23.1914819 11.0562778,22.7089785 12.3577489,22.7089785 C13.2007903,22.7175996 14.0343158,22.8916553 14.8127967,23.2216384 C15.4878421,23.5643739 16.1065259,24.0120133 16.6466879,24.5485229 C16.3213201,22.1963186 16.8241612,19.693332 17.4748968,17.7030052 C17.8002646,16.8586241 17.9777379,16.0443995 18.1256324,15.5317396 C18.3031058,14.5365763 18.1256324,14.3556375 17.8002646,13.8731341 C15.8572548,14.0921013 13.9370206,14.4856656 12.06196,15.0492362 L11.233751,11.8526508 C11.4112244,11.8526508 14.6649022,10.8574875 18.4510002,10.5257664 L19.6045769,10.3448276 L20.107418,11.339991 C20.2016646,11.4269242 20.264226,11.5438599 20.2848914,11.6717121 C20.7877325,12.1843719 21.4384681,13.1795353 21.5863626,14.8381409 C21.6005172,15.346924 21.540711,15.8550404 21.4088892,16.3459642 C21.2314159,17.1903453 20.9060481,17.8537875 20.7581536,18.8489509 C20.107418,20.8392776 19.6045769,23.191482 20.2553125,24.8500875 C20.5806803,25.8452509 20.7581536,26.8404143 20.9060481,27.534013 C21.0539425,28.2276118 21.2314158,29.7052785 20.5806803,30.2179384 C19.9299448,30.7305983 16.1438468,31.8765441 16.1438468,31.8765441 C16.1438468,31.8765441 15.3452168,31.2432583 15.1677434,29.735435 L15.1677434,29.735435 Z" id="形状" fill="#263238"></path>
                    <path d="M19.7126437,12.4137931 L16.5517241,11.2435268 C16.5517241,11.083945 23.0316092,-0.831494089 39.3103448,0.0462056651 L39.1206897,2.99846847 C25.1494253,2.38673836 19.7126437,12.4137931 19.7126437,12.4137931 Z" id="路径" fill="#263238"></path>
                    <path d="M24.8275862,54.1659984 C17.1215682,54.1659984 14.5255692,49.6551724 14.5255692,49.6551724 C14.5255692,49.6551724 14.0610221,52.3315958 16.1924738,55.308741 C19.3896515,59.4887731 24.2264075,60 24.2264075,60" id="路径" fill="#FFFFFF"></path>
                    <path d="M24.4430778,60.1652528 C24.2643809,60.1652528 18.5162973,59.5835628 14.7040968,55.4852925 C11.904512,52.2595572 12.3810371,49.6155118 12.559734,49.3246667 L13.3936529,45.5172414 L15.7167126,48.875179 C15.8954095,49.0338218 18.1886863,52.1009144 25.4556936,52.1009144 L25.4556936,55.0358048 C22.0008869,55.0358048 19.3502162,54.4541148 17.3845503,53.5815798 L17.3845503,53.7402226 C20.362832,56.8073152 24.8004716,57.2568029 24.9791685,57.2568029 L24.4430778,60.1652528 Z M46.2440996,62.0689655 L45.7377918,62.0689655 C42.7595101,62.0689655 39.9599254,61.1964305 39.8110112,61.1964305 L40.9725411,58.4201829 C42.4611954,58.8697077 44.0171525,59.1192401 45.5888777,59.1605156 L45.7675746,59.1605156 C46.6014935,59.1605156 47.4056296,59.1605156 47.9119374,59.0018728 C48.4182453,58.8432301 48.4182453,57.6798502 48.4182453,57.0981602 C48.4182453,56.5164702 48.2395484,55.7761375 48.2395484,55.1944475 L48.2395484,54.7449598 C48.0608515,53.5815798 47.5843264,53.1320921 46.2738825,53.1320921 C44.9634386,53.1320921 42.1638538,55.3266497 41.0023239,56.0669825 L40.168405,56.6486725 L38.2027391,54.2954721 L38.8579611,53.8459843 C41.9851569,51.7836289 44.4571306,50.329404 46.1249684,50.329404 C49.1032501,50.329404 50.9200019,51.783629 51.396527,54.4276743 L51.396527,54.877162 C51.5752239,55.458852 51.5752239,56.331387 51.7241379,57.0717197 C51.7241379,59.2662774 51.0689159,60.8791451 49.4010782,61.460835 C48.2097655,62.0689655 47.2269326,62.0689655 46.2440996,62.0689655 L46.2440996,62.0689655 Z" id="形状" fill="#263238"></path>
                    <path d="M31.6128006,64.137931 L31.1547271,64.137931 C26.545362,63.797686 26.2304364,59.8694021 26.0872884,56.2504319 C26.0872884,55.5699417 25.9155109,54.8894517 25.9155109,54.2089615 C25.6005853,51.4560697 26.7171396,50.0950894 27.4901387,49.4145993 C29.5514697,47.8680309 32.7293549,48.5485209 35.1056114,49.7548443 L39.8581245,52.5077362 L38.4266446,55.6008731 L33.6741316,52.8170499 C31.7845782,51.7963147 29.8663952,51.6107265 29.3796921,52.1365597 C28.892989,52.662393 29.0647665,53.1572949 29.0647665,53.6831283 C29.2006454,54.4159444 29.2582812,55.16318 29.2365441,55.9101868 C29.5514696,60.024059 29.8663952,60.5498922 31.4696526,60.704549 C34.7906858,61.0447941 38.1403486,57.6114121 38.1403487,57.4567553 L40.3734572,59.8694021 C40.029902,60.2096471 36.2221657,64.137931 31.6128006,64.137931 L31.6128006,64.137931 Z M26.402214,15.8231323 C26.402214,15.8231323 26.0872884,16.8438675 25.4574373,16.8438675 C24.8275862,16.8438675 24.8275862,16.1633773 24.8275862,15.4828872 C24.8275862,13.4414168 26.0872884,10.8431818 27.3756203,9.66778979 C28.3921476,8.76565133 29.667443,8.27357025 30.9829495,8.27587009 C31.6128006,8.27587009 32.4144293,8.27587009 33.0442804,8.61612321 C33.6741316,8.95636825 34.3039827,9.6368584 34.3039827,11.02877 C34.3039827,11.02877 34.3039827,11.7092602 32.2426517,11.7092602 C30.9829495,11.7092602 29.379692,11.8948484 28.7498409,12.5753385 C28.1199898,13.2558287 27.1752131,13.9363187 26.402214,15.8231323 Z M34.9624634,25.4118567 C34.1052155,25.3837028 33.2522255,25.269801 32.4144293,25.0716117 C31.9912773,25.0077451 31.6181306,24.7390142 31.4007704,24.3416 C31.1834102,23.9441859 31.1455325,23.4614135 31.297875,23.0301413 L31.6128006,22.5043081 C31.7600433,22.1729791 32.0744127,21.9667665 32.4144293,21.9784747 L32.9011325,21.9784747 C34.1608347,22.3187198 36.0790177,22.3187198 36.7088688,22.3187198 C35.9072401,19.0709261 36.0790176,16.6582793 36.5370912,16.6582793 C36.9951648,16.6582793 38.2834966,20.5865632 38.9133478,21.4526415 C39.5039193,22.219248 39.428055,23.3530781 38.7415702,24.0199451 C37.6536455,25.0716117 36.3939432,25.4118567 34.9624634,25.4118567 L34.9624634,25.4118567 Z M50.82326,25.4118567 L50.0216312,25.4118567 C49.0768546,25.2262685 48.5901514,24.5457784 48.5901514,23.5250432 C48.5901514,23.5250432 48.761929,21.9784748 49.5349281,21.9784747 C50.3079272,21.9784747 50.9664079,22.3187198 51.2813335,22.3187198 C50.966408,20.2772495 50.4797048,16.8438675 50.9664079,16.8438675 C51.4531111,16.8438675 52.5696654,20.9577395 54.7741443,22.5043081 C55.4039955,23.0301413 55.4039955,24.0508765 54.4592188,24.7313666 C53.2979236,25.2043954 52.0641584,25.4353015 50.82326,25.4118567 L50.82326,25.4118567 Z M53.8293676,14.2765638 C53.5144421,12.9155836 52.0829622,11.7092602 50.5083344,11.1834269 C49.324889,10.8650029 48.0733139,11.0534242 47.0155236,11.7092602 C47.0155236,10.1626917 48.1320779,8.95636832 48.5901514,8.80171143 C49.048225,8.64705453 49.5349281,8.27587818 50.1647793,8.27587818 C53.4858125,8.27587818 54.7741443,10.5029368 55.862069,12.7299953 L53.8293676,14.2765638 Z" id="形状" fill="#263238"></path>
                    <path d="M40.6706629,38.6631075 L39.9983527,38.6631075 C38.8065301,38.6631075 37.7980647,38.3010934 37.1257544,37.3796029 C35.781134,35.7340842 35.5977767,33.5619995 36.1172891,33.1999854 C36.6368015,32.8379712 36.9729567,34.1214759 38.6537322,34.6480418 C38.6537322,34.6480418 39.8455549,34.8455041 40.1817101,34.8455041 L41.0373776,34.8455041 C43.2376656,34.8455041 45.1017986,34.2860277 45.7741088,33.7594617 C45.8929429,33.6011004 45.9576722,33.4035927 45.9574662,33.1999854 C45.9574662,33.1999854 45.9574662,32.640509 43.7571781,30.4684243 C41.8738605,28.5872612 40.8282756,25.9279435 40.8845798,23.1623213 C40.8845798,20.4307603 41.2207349,18.6206897 41.5568901,18.6206897 C41.8930453,18.6206897 42.5653555,24.4458259 46.1408235,27.7368632 C48.6772666,30.1064102 49.3495769,31.7519289 49.3495769,33.3974476 C49.3495769,35.0429664 48.4939093,35.9644568 48.0049564,36.4910228 C46.1102639,38.3010934 43.0543083,38.6631075 40.6706629,38.6631075 L40.6706629,38.6631075 Z M39.8455549,44.15914 C34.5893112,43.9616777 31.9000704,40.5060884 31.9000704,40.5060884 C31.9000704,40.5060884 37.8286242,41.0655648 41.7096879,41.0655648 L41.7096879,44.15914 L39.8455549,44.15914 Z M43.5738208,44.15914 L43.5738208,40.8681025 C43.9099759,40.6706403 46.6297764,41.0655648 49.6551724,39.7820602 C48.9828622,43.5996635 43.7266186,44.15914 43.5738208,44.15914 Z M35.9339318,49.6222621 C32.2056659,49.6222621 30.341533,48.5362197 28.9969126,43.7971259 C28.9969126,43.7971259 28.8135552,43.4351118 29.3330676,43.2376495 C29.8525801,43.0401871 30.0053779,43.4351117 30.0053779,43.4351117 C30.6776882,45.4426446 33.5502864,46.0021209 37.1257544,46.0021209 L42.7181532,46.0021209 C42.7181532,46.0021209 42.045843,49.6551724 38.5009345,49.6551724 L35.9339318,49.6222621 Z" id="形状" fill="#263238"></path>
                    <path d="M38.0148787,57.9308211 C32.6105605,57.9308211 28.3664914,56.2621255 23.8170936,51.3773984 C21.2828653,48.6771456 21.2828653,45.1577149 21.6187269,44.8239758 C21.9545884,44.4902367 22.4736473,46.8264105 24.4888167,49.0108847 C28.5496886,53.3798331 34.2898684,54.7147896 39.2056607,54.3810505 C45.6175637,53.8652719 48.3349892,50.1941416 48.854048,49.8300625 L51.7241379,51.8324972 C51.5409407,52.0145367 47.663266,57.0509634 39.5415223,57.7184416 C39.0460195,57.8639047 38.531532,57.9354777 38.0148787,57.9308211 L38.0148787,57.9308211 Z M11.634478,44.4902367 L11.4512807,42.8215411 L11.2680835,41.1528455 C11.6210049,40.9568948 11.9579014,40.7337165 12.2756683,40.4853673 C12.7291198,40.1515907 13.3488602,40.1515907 13.8023118,40.4853673 L14.6572322,41.1528455 C14.9052194,41.3977377 15.0446672,41.7308011 15.0446672,42.078213 C15.0446672,42.425625 14.9052194,42.7586884 14.6572322,43.0035806 C13.1611215,44.338537 11.7871423,44.4902367 11.634478,44.4902367 L11.634478,44.4902367 Z M10.9627548,34.4173833 L13.6801803,35.4186007 C13.4969831,34.7511224 12.6725955,31.7171305 10.2910316,31.0496522 C9.31505414,30.9234013 8.41776091,31.5988731 8.27586207,32.5666483 L8.27586207,33.2341265 C8.4590593,36.0860789 10.9932876,37.7851144 10.9932877,37.7851144 L10.9627548,34.4173833 Z" id="形状" fill="#263238"></path>
                    <path d="M40.3443888,62.0680879 C37.4879859,62.0680879 35.1724138,59.7525158 35.1724138,56.8961129 C35.1724138,54.03971 37.4879859,51.7241379 40.3443888,51.7241379 C43.2007917,51.7241379 45.5163637,54.03971 45.5163637,56.8961129 C45.5419938,58.2755035 45.0053251,59.6059597 44.0297803,60.5815045 C43.0542355,61.5570493 41.7237794,62.0937179 40.3443888,62.0680879 L40.3443888,62.0680879 Z M40.3443888,55.1513503 C39.4049652,55.1679812 38.6474135,55.9255328 38.6307827,56.8649564 C38.6307827,57.5580454 39.0482894,58.1828884 39.6886201,58.4481221 C40.3289509,58.7133558 41.0660034,58.566747 41.5560914,58.076659 C42.0461793,57.5865711 42.1927882,56.8495185 41.9275545,56.2091877 C41.6623208,55.568857 41.0374778,55.1513503 40.3443888,55.1513503 L40.3443888,55.1513503 Z" id="形状" fill="#263238"></path>
                    <path d="M55.9894339,66.2068966 L4.03009525,66.2068966 C3.36857587,66.2068966 2.70705656,65.8783376 2.52664219,65.2212196 L0.181255374,59.426634 C0.0533906063,59.1139325 -0.00803225156,58.7783545 0.000841003588,58.440957 L0.000841003588,57.7838391 C0.181255374,56.1410442 9.50266453,50.3464587 13.17109,48.1958908 C12.1431034,46.0273721 11.3566439,43.7538018 10.8257032,41.4156282 C9.50266453,41.2364142 7.81879703,40.5792963 5.83423896,38.6079425 C3.84968088,36.6365887 3.33850686,33.6496888 3.33850686,31.4991209 C3.30355872,29.2263686 4.14232713,27.0258986 5.68389367,25.3461074 C4.69161463,20.8657577 4.84195992,17.400954 6.34541298,15.1010411 C7.00693236,13.9361502 7.84886604,13.4582462 8.51038543,12.9504732 C9.8634932,7.81300556 15.3360624,5.48322372 16.6891703,4.82610581 C18.0422781,4.16898791 24.1763666,-0.311361852 34.4900548,0.017197102 C48.4721685,0.524970043 57.1320582,9.12724145 58.1544064,23.5240985 C58.2977335,24.8432692 58.3579889,26.1700435 58.3348207,27.4966752 C58.3348207,38.2495145 54.5160499,44.880432 52.5014228,47.5089038 C59.9886192,52.6463715 59.9886192,53.4528344 59.9886192,54.2891664 C60.1690335,56.4397342 58.1544064,62.8914378 57.492887,64.8926606 C57.3660386,65.6278866 56.7397056,66.1753925 55.9894339,66.2068966 Z M5.20278866,62.8914378 L54.6663952,62.8914378 C55.6586743,59.755193 56.500608,56.4397342 56.6509533,55.1254983 C55.6586743,54.1398213 52.140594,51.4814806 48.9833426,49.5101267 C48.6525829,49.1815677 48.3218232,48.8530087 48.3218232,48.3452358 C48.3144566,47.8579315 48.497706,47.3867945 48.8329972,47.0309999 C48.8329972,47.0309999 54.8167405,40.9078553 54.9971549,27.6758892 C55.0161753,26.4089435 54.9559211,25.1420479 54.8167405,23.8825265 C53.6440471,6.67798366 41.4961462,3.69108385 34.3397095,3.36252489 C24.356781,3.03396594 18.6737283,7.48444661 18.523383,7.66366059 C18.3730376,7.84287458 18.1926233,7.84287458 18.012209,7.99221955 C17.8317946,8.14156451 12.178811,9.96357341 11.697706,14.4439231 C11.5172916,15.1010411 11.0361866,15.758159 10.3746673,15.937373 C9.20197389,16.265932 7.3677611,18.7450589 9.20197389,25.7045354 C9.38238826,26.3616533 9.20197389,27.0187713 8.6907998,27.3473302 C7.00693236,28.6615661 6.85658701,30.63292 6.85658708,31.618597 C6.85658708,33.5899508 7.51810646,35.5911737 8.51038543,36.5768506 C10.4949435,38.7274184 11.9983966,38.3988595 11.9983966,38.3988595 C12.4460759,38.2851635 12.9207472,38.3494607 13.3214353,38.5780734 C13.652195,38.9066324 13.9829547,39.2351914 13.9829547,39.7429644 C13.9829547,39.7429644 14.8248885,44.880432 16.9898608,48.1660218 C17.2200048,48.564044 17.2847327,49.035557 17.1702752,49.4802577 C16.9898608,49.9880306 16.8395155,50.3165896 16.3283415,50.4659346 C15.1556481,51.1230526 5.83423896,57.0968521 3.48885214,58.739647 L5.20278866,62.8914378 Z" id="形状" fill="#263238"></path>
                </g>
                <g id="矩形">
                    <use fill="black" fill-opacity="1" filter="url(#filter-9)" xlink:href="#path-8"></use>
                    <use fill="#FCFCFF" fill-rule="evenodd" xlink:href="#path-8"></use>
                </g>
                <g id="矩形备份-3">
                    <use fill="black" fill-opacity="1" filter="url(#filter-11)" xlink:href="#path-10"></use>
                    <use fill="#FCFCFF" fill-rule="evenodd" xlink:href="#path-10"></use>
                </g>
                <text id="漏洞检测" font-family="PingFangSC-Regular, PingFang SC" font-size="12" font-weight="normal" letter-spacing="3.6" fill="#6C87FF">
                    <tspan x="6" y="34">漏洞检测</tspan>
                </text>
                <text id="SBOM识别" font-family="PingFangSC-Regular, PingFang SC" font-size="12" font-weight="normal" fill="#6C87FF">
                    <tspan x="6" y="64">SBOM识别</tspan>
                </text>
            </g>
        </g>
    </g>
</svg>