<svg width="25" height="22" viewBox="0 0 25 22" fill="none" xmlns="http://www.w3.org/2000/svg">
<path d="M12.0026 0C13.2414 0.049471 14.4102 0.587452 15.2535 1.49631C16.0968 2.40517 16.5459 3.61095 16.5026 4.85C16.5088 5.61859 16.3377 6.37827 16.0026 7.07L19.6526 10.07C20.1084 9.71817 20.6668 9.52503 21.2426 9.52C22.0075 9.55121 22.7288 9.88463 23.2481 10.4471C23.7674 11.0095 24.0424 11.755 24.0126 12.52C24.0287 12.8991 23.9697 13.2776 23.839 13.6339C23.7083 13.9901 23.5085 14.317 23.2511 14.5957C22.9937 14.8745 22.6838 15.0997 22.3391 15.2583C21.9944 15.4169 21.6218 15.5058 21.2426 15.52C20.8634 15.5058 20.4908 15.4169 20.1461 15.2583C19.8014 15.0997 19.4914 14.8745 19.234 14.5957C18.9766 14.317 18.7769 13.9901 18.6462 13.6339C18.5155 13.2776 18.4565 12.8991 18.4726 12.52C18.4706 12.1589 18.5315 11.8002 18.6526 11.46L15.0026 8.46C14.403 9.04689 13.6455 9.44649 12.8226 9.61V14.26C13.652 14.4912 14.3807 14.9923 14.8933 15.6842C15.4059 16.3761 15.6731 17.2192 15.6526 18.08C15.6877 19.0837 15.323 20.0602 14.6387 20.7952C13.9543 21.5302 13.0062 21.9635 12.0026 22C11.0007 21.9609 10.0552 21.5265 9.37297 20.7918C8.69074 20.0571 8.32743 19.082 8.36259 18.08C8.33977 17.2201 8.60486 16.3772 9.11576 15.6851C9.62666 14.993 10.3541 14.4915 11.1826 14.26V9.61C10.3604 9.44431 9.60352 9.04502 9.00259 8.46L5.36259 11.46C5.48367 11.8002 5.54458 12.1589 5.54259 12.52C5.55866 12.8991 5.49966 13.2776 5.36899 13.6339C5.23832 13.9901 5.03854 14.317 4.78113 14.5957C4.52373 14.8745 4.21378 15.0997 3.86909 15.2583C3.52439 15.4169 3.15176 15.5058 2.77259 15.52C2.39341 15.5058 2.02078 15.4169 1.67608 15.2583C1.33139 15.0997 1.02144 14.8745 0.764037 14.5957C0.506635 14.317 0.306856 13.9901 0.176182 13.6339C0.045507 13.2776 -0.0134883 12.8991 0.00258547 12.52C-0.027189 11.755 0.247762 11.0095 0.767088 10.4471C1.28642 9.88463 2.00768 9.55121 2.77259 9.52C3.34838 9.52503 3.90675 9.71817 4.36259 10.07L8.00259 7.07C7.6675 6.37827 7.4964 5.61859 7.50259 4.85C7.4593 3.61095 7.90839 2.40517 8.75166 1.49631C9.59493 0.587452 10.7638 0.049471 12.0026 0Z" fill="white"/>
</svg>
