<svg width="20" height="21" viewBox="0 0 20 21" fill="none" xmlns="http://www.w3.org/2000/svg">
<path d="M10.0001 9.55719L15.1452 4.41218C15.2753 4.282 15.4864 4.282 15.6166 4.41218L16.088 4.88358C16.2181 5.01376 16.2181 5.22481 16.088 5.35498L10.943 10.5L16.088 15.645C16.2181 15.7752 16.2181 15.9862 16.088 16.1164L15.6166 16.5878C15.4864 16.718 15.2753 16.718 15.1452 16.5878L10.0001 11.4428L4.85514 16.5878C4.72496 16.718 4.51391 16.718 4.38373 16.5878L3.91233 16.1164C3.78215 15.9862 3.78215 15.7752 3.91233 15.645L9.05734 10.5L3.91233 5.35498C3.78215 5.22481 3.78215 5.01376 3.91233 4.88358L4.38373 4.41218C4.51391 4.282 4.72496 4.282 4.85514 4.41218L10.0001 9.55719Z" fill="#959499"/>
</svg>
