<svg width="18" height="18" viewBox="0 0 18 18" fill="" xmlns="http://www.w3.org/2000/svg">
<g clip-path="url(#clip0_15409_61156)">
<path fill-rule="evenodd" clip-rule="evenodd" d="M5.55586 0.685087C7.20039 0.00389947 9.00999 -0.17433 10.7558 0.172936C12.5016 0.520203 14.1053 1.37737 15.364 2.63604C16.6226 3.89471 17.4798 5.49836 17.8271 7.24418C18.1743 8.99001 17.9961 10.7996 17.3149 12.4441C16.6337 14.0887 15.4802 15.4943 14.0001 16.4832C12.5201 17.4721 10.78 18 9 18C7.63056 18 6.32898 17.694 5.16394 17.1437L1.08093 17.9816C0.784596 18.0424 0.477529 17.9503 0.263619 17.7364C0.0497086 17.5225 -0.0424252 17.2154 0.0183873 16.9191L0.856269 12.8361C0.30602 11.6712 1.50625e-05 10.3703 1.50625e-05 8.99999C1.50625e-05 7.21996 0.527856 5.47991 1.51679 3.99987C2.50572 2.51983 3.91132 1.36628 5.55586 0.685087ZM10.4047 1.93835C9.00799 1.66053 7.56031 1.80312 6.24469 2.34807C4.92906 2.89302 3.80458 3.81586 3.01343 4.99989C2.22229 6.18393 1.80001 7.57597 1.80001 8.99999C1.80001 10.1924 2.08816 11.3135 2.59923 12.3005C2.69397 12.4834 2.72306 12.6934 2.68164 12.8952L2.05599 15.944L5.10479 15.3184C5.30663 15.2769 5.51657 15.306 5.69954 15.4008C6.68648 15.9118 7.80845 16.2 9 16.2C10.424 16.2 11.8161 15.7777 13.0001 14.9866C14.1841 14.1954 15.107 13.0709 15.6519 11.7553C16.1969 10.4397 16.3395 8.99201 16.0617 7.59535C15.7838 6.19868 15.0981 4.91577 14.0912 3.90883C13.0842 2.90189 11.8013 2.21616 10.4047 1.93835Z" fill=""/>
</g>
<defs>
<clipPath id="clip0_15409_61156">
<rect width="18" height="18" fill="white"/>
</clipPath>
</defs>
</svg>
