<svg width="16" height="16" viewBox="0 0 16 16" fill="none" xmlns="http://www.w3.org/2000/svg">
<path d="M15.4978 2.22074L8.71364 0.0327786C8.64992 0.012292 8.58246 0 8.51499 0C8.44753 0 8.38381 0.00819465 8.32009 0.0286812L1.89205 2.07734C1.8021 2.08143 1.71964 2.11012 1.64468 2.15519L1.52474 2.19206C1.22489 2.2863 1.01874 2.5854 1.01874 2.92958L1 12.4271C1 12.7467 1.17991 13.0335 1.45352 13.1483L8.23388 15.9508C8.31259 15.9836 8.3988 16 8.48126 16C8.56372 16 8.64992 15.9836 8.72864 15.9508L15.5277 13.1729C15.8013 13.0622 15.985 12.7754 15.985 12.4558L16 2.96236C16 2.61818 15.7976 2.31908 15.4978 2.22074ZM8.81484 1.31114L12.7691 2.5854C12.9003 2.62638 12.9003 2.83124 12.7729 2.87631L8.82609 4.24481C8.61244 4.31857 8.38756 4.31857 8.17391 4.24481L4.24213 2.85992C4.11094 2.81485 4.11469 2.60999 4.24588 2.56901L8.21514 1.30704C8.41005 1.24968 8.61994 1.24968 8.81484 1.31114ZM2.52174 3.5114L7.73163 5.34289C7.86282 5.38796 7.95277 5.52318 7.95277 5.67478V14.0538C7.95277 14.2955 7.73163 14.4635 7.52174 14.3775L2.3006 12.2182C2.17691 12.1649 2.09445 12.0379 2.09445 11.8904L2.10945 3.84328C2.1057 3.60563 2.31934 3.44174 2.52174 3.5114Z" fill="#2A2B32"/>
</svg>
