<svg width="16" height="17" viewBox="0 0 16 17" fill="none" xmlns="http://www.w3.org/2000/svg">
<path d="M13 8.5C13 8.36739 13.0527 8.24021 13.1464 8.14645C13.2402 8.05268 13.3674 8 13.5 8C13.6326 8 13.7598 8.05268 13.8536 8.14645C13.9473 8.24021 14 8.36739 14 8.5V14C14 14.1326 13.9473 14.2598 13.8536 14.3536C13.7598 14.4473 13.6326 14.5 13.5 14.5H2.5C2.36739 14.5 2.24021 14.4473 2.14645 14.3536C2.05268 14.2598 2 14.1326 2 14V3C2 2.86739 2.05268 2.74021 2.14645 2.64645C2.24021 2.55268 2.36739 2.5 2.5 2.5H8C8.13261 2.5 8.25979 2.55268 8.35355 2.64645C8.44732 2.74021 8.5 2.86739 8.5 3C8.5 3.13261 8.44732 3.25979 8.35355 3.35355C8.25979 3.44732 8.13261 3.5 8 3.5H3V13.5H13V8.5Z" fill="#858585"/>
<path d="M7.34298 9.15976L8.16798 9.04176L13.236 3.97476C13.2837 3.92864 13.3218 3.87347 13.348 3.81246C13.3742 3.75146 13.388 3.68585 13.3886 3.61946C13.3892 3.55307 13.3765 3.48723 13.3514 3.42578C13.3263 3.36434 13.2891 3.30851 13.2422 3.26156C13.1952 3.21462 13.1394 3.17749 13.078 3.15235C13.0165 3.12721 12.9507 3.11456 12.8843 3.11514C12.8179 3.11571 12.7523 3.12951 12.6913 3.15571C12.6303 3.18192 12.5751 3.22001 12.529 3.26776L7.45998 8.33476L7.34198 9.15976H7.34298ZM13.943 2.55976C14.0824 2.69906 14.193 2.86446 14.2684 3.04651C14.3438 3.22857 14.3827 3.4237 14.3827 3.62076C14.3827 3.81783 14.3438 4.01296 14.2684 4.19501C14.193 4.37706 14.0824 4.54246 13.943 4.68176L8.75798 9.86676C8.68153 9.9435 8.58221 9.99334 8.47498 10.0088L6.82498 10.2448C6.74809 10.2558 6.66968 10.2488 6.59597 10.2242C6.52226 10.1997 6.45528 10.1583 6.40035 10.1034C6.34542 10.0485 6.30405 9.98149 6.27951 9.90778C6.25497 9.83407 6.24794 9.75566 6.25898 9.67876L6.49498 8.02876C6.51014 7.92166 6.55961 7.82236 6.63598 7.74576L11.822 2.56076C12.1033 2.27956 12.4847 2.12158 12.8825 2.12158C13.2802 2.12158 13.6617 2.27956 13.943 2.56076V2.55976Z" fill="#858585"/>
</svg>
