<svg width="16" height="16" viewBox="0 0 16 16" fill="none" xmlns="http://www.w3.org/2000/svg">
<path d="M5.3321 1.5C6.1721 1.5 6.8791 2.064 7.0971 2.833H11.6661C13.2841 2.833 14.4991 4.038 14.4991 5.667C14.4991 7.235 13.3721 8.41 11.8441 8.495L11.6661 8.5H4.3321C3.2641 8.5 2.4991 9.26 2.4991 10.333C2.4991 11.353 3.1891 12.09 4.1751 12.161L4.3321 12.167L8.9021 12.166C9.01125 11.7823 9.24252 11.4447 9.56085 11.2043C9.87918 10.9639 10.2672 10.8339 10.6661 10.8339C11.065 10.8339 11.453 10.9639 11.7713 11.2043C12.0897 11.4447 12.3209 11.7823 12.4301 12.166H13.9991C14.1251 12.1643 14.2471 12.2101 14.3407 12.2945C14.4343 12.3788 14.4926 12.4953 14.504 12.6208C14.5153 12.7463 14.4789 12.8714 14.402 12.9712C14.3251 13.071 14.2133 13.1381 14.0891 13.159L13.9991 13.167H12.4301C12.3212 13.5511 12.09 13.8892 11.7716 14.1299C11.4531 14.3706 11.0648 14.5009 10.6656 14.5009C10.2664 14.5009 9.87807 14.3706 9.55962 14.1299C9.24116 13.8892 9.00996 13.5511 8.9011 13.167H4.3321C2.7141 13.167 1.4991 11.962 1.4991 10.333C1.4991 8.765 2.6261 7.59 4.1541 7.505L4.3321 7.5H11.6661C12.7331 7.5 13.4991 6.741 13.4991 5.667C13.4991 4.647 12.8091 3.91 11.8231 3.839L11.6661 3.833L7.0961 3.834C6.98694 4.21767 6.75567 4.5553 6.43735 4.79569C6.11902 5.03609 5.731 5.16614 5.3321 5.16614C4.9332 5.16614 4.54518 5.03609 4.22685 4.79569C3.90852 4.5553 3.67725 4.21767 3.5681 3.834H1.9991C1.87312 3.83574 1.75113 3.78986 1.65753 3.70553C1.56392 3.62121 1.5056 3.50465 1.49423 3.37918C1.48286 3.25371 1.51927 3.12857 1.59619 3.02878C1.67311 2.929 1.78486 2.86194 1.9091 2.841L1.9991 2.833H3.5681C3.6771 2.44917 3.9083 2.11135 4.22664 1.87079C4.54498 1.63023 4.93309 1.50005 5.3321 1.5ZM10.6661 11.833C10.445 11.833 10.233 11.9208 10.0767 12.0771C9.92041 12.2334 9.8326 12.4454 9.8326 12.6665C9.8326 12.8876 9.92041 13.0996 10.0767 13.2559C10.233 13.4122 10.445 13.5 10.6661 13.5C10.8872 13.5 11.0992 13.4122 11.2555 13.2559C11.4118 13.0996 11.4996 12.8876 11.4996 12.6665C11.4996 12.4454 11.4118 12.2334 11.2555 12.0771C11.0992 11.9208 10.8872 11.833 10.6661 11.833ZM5.3321 2.5C5.22264 2.5 5.11426 2.52156 5.01313 2.56345C4.91201 2.60533 4.82012 2.66673 4.74273 2.74413C4.66533 2.82152 4.60393 2.91341 4.56204 3.01453C4.52016 3.11566 4.4986 3.22404 4.4986 3.3335C4.4986 3.44296 4.52016 3.55134 4.56204 3.65247C4.60393 3.75359 4.66533 3.84548 4.74273 3.92287C4.82012 4.00027 4.91201 4.06167 5.01313 4.10355C5.11426 4.14544 5.22264 4.167 5.3321 4.167C5.55316 4.167 5.76516 4.07919 5.92147 3.92287C6.07778 3.76656 6.1656 3.55456 6.1656 3.3335C6.1656 3.11244 6.07778 2.90044 5.92147 2.74413C5.76516 2.58782 5.55316 2.5 5.3321 2.5Z" fill="#858585" stroke="#858585" stroke-width="0.4"/>
</svg>
