<svg width="16" height="16" viewBox="0 0 16 16" fill="none" xmlns="http://www.w3.org/2000/svg">
<path d="M8.0013 1.3335C5.05964 1.3335 2.66797 3.72516 2.66797 6.66683C2.66797 8.5935 3.6813 10.3352 5.33464 11.2852V12.1668C5.33464 12.4435 5.55797 12.6668 5.83464 12.6668H10.168C10.4446 12.6668 10.668 12.4435 10.668 12.1668V11.2852C12.3213 10.3352 13.3346 8.5935 13.3346 6.66683C13.3346 3.72516 10.9413 1.3335 8.0013 1.3335ZM9.94464 10.5402C9.8113 10.6068 9.7213 10.7235 9.68797 10.8568C9.68464 10.8702 9.6813 10.8835 9.67797 10.8985C9.67463 10.9152 9.67297 10.9318 9.6713 10.9485C9.66964 10.9652 9.66797 10.9835 9.66797 11.0002V11.6668H6.33464V11.0002C6.33464 10.9835 6.33297 10.9652 6.3313 10.9485C6.32964 10.9318 6.32797 10.9152 6.32464 10.8985C6.29964 10.7485 6.20464 10.6135 6.05797 10.5402C4.58464 9.80183 3.66797 8.3185 3.66797 6.66683C3.66797 4.27683 5.6113 2.3335 8.0013 2.3335C10.3913 2.3335 12.3346 4.27683 12.3346 6.66683C12.3346 8.3185 11.418 9.80183 9.94464 10.5402Z" fill="#858585" stroke="#858585" stroke-width="0.4"/>
<path d="M9.33253 9.66667C9.22092 9.66686 9.11246 9.6297 9.02442 9.56111C8.93637 9.49252 8.87381 9.39644 8.84669 9.28818C8.81956 9.17992 8.82944 9.0657 8.87475 8.9637C8.92005 8.8617 8.99818 8.77779 9.0967 8.72534C9.47012 8.52664 9.78239 8.23003 10 7.86732C10.2177 7.50461 10.3324 7.08949 10.332 6.6665C10.332 6.5339 10.3847 6.40672 10.4785 6.31295C10.5722 6.21918 10.6994 6.1665 10.832 6.1665C10.9646 6.1665 11.0918 6.21918 11.1856 6.31295C11.2794 6.40672 11.332 6.5339 11.332 6.6665C11.332 7.89984 10.6559 9.02684 9.56736 9.6075C9.49518 9.64635 9.4145 9.66668 9.33253 9.66667ZM10.1654 14.6665H5.83203C5.69942 14.6665 5.57225 14.6138 5.47848 14.5201C5.38471 14.4263 5.33203 14.2991 5.33203 14.1665C5.33203 14.0339 5.38471 13.9067 5.47848 13.813C5.57225 13.7192 5.69942 13.6665 5.83203 13.6665H10.1654C10.298 13.6665 10.4251 13.7192 10.5189 13.813C10.6127 13.9067 10.6654 14.0339 10.6654 14.1665C10.6654 14.2991 10.6127 14.4263 10.5189 14.5201C10.4251 14.6138 10.298 14.6665 10.1654 14.6665Z" fill="#858585" stroke="#858585" stroke-width="0.4"/>
</svg>
