<svg width="16" height="16" viewBox="0 0 16 16" fill="none" xmlns="http://www.w3.org/2000/svg">
<g clip-path="url(#clip0_13168_9769)">
<path d="M7.99912 1.99988C6.76099 2.00013 5.55325 2.38341 4.54155 3.09715C3.52984 3.81089 2.76372 4.82014 2.34824 5.98648C1.93277 7.15282 1.88829 8.41914 2.22091 9.61175C2.55353 10.8044 3.24695 11.8649 4.20608 12.6478C5.16522 13.4308 6.34308 13.8979 7.57815 13.985C8.81321 14.0721 10.045 13.775 11.1045 13.1345C12.1641 12.4939 12.9995 11.5412 13.4963 10.4071C13.993 9.27302 14.1267 8.013 13.8791 6.79988C13.8599 6.71341 13.8582 6.62397 13.8739 6.5368C13.8896 6.44964 13.9226 6.36648 13.9708 6.29218C14.0191 6.21789 14.0816 6.15394 14.1548 6.10408C14.228 6.05422 14.3105 6.01944 14.3973 6.00178C14.4841 5.98411 14.5735 5.98391 14.6604 6.00119C14.7473 6.01847 14.8298 6.05288 14.9033 6.10241C14.9767 6.15195 15.0395 6.21561 15.0881 6.28969C15.1367 6.36377 15.17 6.44678 15.1861 6.53388C15.501 8.0783 15.31 9.68309 14.6412 11.1104C13.9724 12.5377 12.8616 13.7115 11.4733 14.4578C10.085 15.2042 8.49313 15.4833 6.93372 15.2539C5.3743 15.0245 3.9303 14.2988 2.81576 13.1842C1.70122 12.0697 0.975462 10.6257 0.746059 9.06628C0.516656 7.50687 0.79582 5.91504 1.54217 4.52674C2.28853 3.13845 3.46234 2.02758 4.88963 1.35881C6.31691 0.69004 7.9217 0.498955 9.46612 0.813881C9.55468 0.828463 9.63938 0.860769 9.71516 0.908862C9.79094 0.956955 9.85623 1.01985 9.90713 1.09377C9.95802 1.16769 9.99348 1.25113 10.0114 1.33908C10.0293 1.42703 10.0292 1.51768 10.0112 1.60562C9.99325 1.69355 9.95771 1.77695 9.90674 1.85082C9.85577 1.92469 9.79042 1.98752 9.71459 2.03553C9.63876 2.08355 9.55403 2.11577 9.46545 2.13026C9.37688 2.14476 9.28629 2.14123 9.19912 2.11988C8.80413 2.03989 8.40212 1.99969 7.99912 1.99988Z" fill="#858585"/>
<path d="M8 5.33301C7.47252 5.33301 6.95688 5.48943 6.5183 5.78248C6.07971 6.07554 5.73787 6.49206 5.53601 6.9794C5.33416 7.46673 5.28134 8.00297 5.38425 8.52032C5.48715 9.03766 5.74116 9.51288 6.11415 9.88587C6.48713 10.2589 6.96235 10.5129 7.4797 10.6158C7.99704 10.7187 8.53329 10.6659 9.02062 10.464C9.50795 10.2621 9.92448 9.9203 10.2175 9.48172C10.5106 9.04313 10.667 8.52749 10.667 8.00001C10.6635 7.91031 10.6782 7.82084 10.7101 7.73694C10.7421 7.65305 10.7906 7.57646 10.8528 7.51177C10.9151 7.44708 10.9897 7.39562 11.0723 7.36046C11.1549 7.32531 11.2437 7.30719 11.3335 7.30719C11.4233 7.30719 11.5121 7.32531 11.5947 7.36046C11.6773 7.39562 11.752 7.44708 11.8142 7.51177C11.8764 7.57646 11.925 7.65305 11.9569 7.73694C11.9888 7.82084 12.0035 7.91031 12 8.00001C12 8.79114 11.7654 9.5645 11.3259 10.2223C10.8864 10.8801 10.2616 11.3928 9.53074 11.6955C8.79983 11.9983 7.99556 12.0775 7.21964 11.9232C6.44372 11.7688 5.73098 11.3878 5.17157 10.8284C4.61216 10.269 4.2312 9.5563 4.07686 8.78037C3.92252 8.00445 4.00173 7.20018 4.30448 6.46928C4.60723 5.73837 5.11992 5.11366 5.77772 4.67413C6.43552 4.23461 7.20888 4.00001 8 4.00001C8.0897 3.99654 8.17918 4.0112 8.26307 4.04313C8.34697 4.07506 8.42355 4.1236 8.48824 4.18583C8.55293 4.24806 8.6044 4.32271 8.63955 4.40531C8.6747 4.4879 8.69282 4.57675 8.69282 4.66651C8.69282 4.75628 8.6747 4.84512 8.63955 4.92772C8.6044 5.01031 8.55293 5.08496 8.48824 5.14719C8.42355 5.20943 8.34697 5.25796 8.26307 5.28989C8.17918 5.32182 8.0897 5.33649 8 5.33301Z" fill="#858585"/>
<path d="M12.6467 0.67993C12.9967 0.73493 13.3217 0.98193 13.4267 1.38493L13.6727 2.32593L14.6127 2.57193C15.0167 2.67693 15.2627 3.00193 15.3197 3.35193C15.3727 3.68793 15.2537 4.02893 15.0097 4.27193L14.2437 5.03893C13.3977 5.88493 12.3537 5.95593 11.2687 5.67293L8.46969 8.47193C8.40874 8.53798 8.33507 8.59103 8.25311 8.6279C8.17114 8.66477 8.08257 8.68469 7.99271 8.68647C7.90285 8.68825 7.81356 8.67185 7.7302 8.63826C7.64684 8.60467 7.57113 8.55458 7.50761 8.49099C7.44409 8.4274 7.39408 8.35164 7.36058 8.26824C7.32707 8.18484 7.31077 8.09554 7.31265 8.00568C7.31452 7.91582 7.33454 7.82728 7.37149 7.74535C7.40844 7.66342 7.46157 7.58981 7.52769 7.52893L10.3257 4.72993C10.0427 3.64393 10.1137 2.60093 10.9597 1.75493L11.7257 0.98893C11.9697 0.74493 12.3107 0.62593 12.6467 0.67893V0.67993Z" fill="#858585"/>
</g>
<defs>
<clipPath id="clip0_13168_9769">
<rect width="16" height="16" fill="white"/>
</clipPath>
</defs>
</svg>
