<svg width="16" height="16" viewBox="0 0 16 16" fill="none" xmlns="http://www.w3.org/2000/svg">
<path d="M13.3333 0.666992C13.5101 0.666992 13.6797 0.73723 13.8047 0.862254C13.9298 0.987279 14 1.15685 14 1.33366V14.9033C14 15.0178 13.9705 15.1303 13.9144 15.2301C13.8582 15.3299 13.7774 15.4135 13.6795 15.4729C13.5817 15.5324 13.4702 15.5656 13.3558 15.5695C13.2414 15.5734 13.1279 15.5477 13.0263 15.495L8.30667 12.873C8.21181 12.8238 8.10652 12.7981 7.99967 12.7981C7.89281 12.7981 7.78752 12.8238 7.69267 12.873L2.97333 15.495C2.87176 15.5476 2.75835 15.5732 2.64402 15.5693C2.52969 15.5654 2.41829 15.5322 2.32052 15.4728C2.22275 15.4134 2.14191 15.3299 2.08578 15.2302C2.02965 15.1305 2.00011 15.0181 2 14.9037V1.33366C2 1.15685 2.07024 0.987279 2.19526 0.862254C2.32029 0.73723 2.48986 0.666992 2.66667 0.666992L13.3333 0.666992ZM12.6667 2.00033H3.33333V13.8063L7.07867 11.6897C7.36331 11.5419 7.6793 11.4648 8 11.4648C8.3207 11.4648 8.63669 11.5419 8.92133 11.6897L12.6667 13.8063V2.00033ZM6.37367 4.43133L8.02367 6.08133L9.67367 4.43133C9.73618 4.36884 9.82094 4.33373 9.90933 4.33373C9.99772 4.33373 10.0825 4.36884 10.145 4.43133L10.6163 4.90266C10.6788 4.96517 10.7139 5.04994 10.7139 5.13833C10.7139 5.22671 10.6788 5.31148 10.6163 5.37399L8.96633 7.02399L10.6163 8.67399C10.6788 8.7365 10.7139 8.82127 10.7139 8.90966C10.7139 8.99805 10.6788 9.08282 10.6163 9.14533L10.145 9.61666C10.0825 9.67915 9.99772 9.71425 9.90933 9.71425C9.82094 9.71425 9.73618 9.67915 9.67367 9.61666L8.02367 7.96666L6.37367 9.61666C6.31116 9.67915 6.22639 9.71425 6.138 9.71425C6.04961 9.71425 5.96484 9.67915 5.90233 9.61666L5.431 9.14533C5.36851 9.08282 5.3334 8.99805 5.3334 8.90966C5.3334 8.82127 5.36851 8.7365 5.431 8.67399L7.081 7.02399L5.431 5.37399C5.36851 5.31148 5.3334 5.22671 5.3334 5.13833C5.3334 5.04994 5.36851 4.96517 5.431 4.90266L5.90233 4.43133C5.96484 4.36884 6.04961 4.33373 6.138 4.33373C6.22639 4.33373 6.31116 4.36884 6.37367 4.43133Z" fill="#FF9940"/>
</svg>
