<svg width="16" height="17" viewBox="0 0 16 17" fill="none" xmlns="http://www.w3.org/2000/svg">
<path d="M7.5 1C8.98336 1 10.4334 1.43987 11.6668 2.26398C12.9001 3.08809 13.8614 4.25943 14.4291 5.62987C14.9967 7.00032 15.1453 8.50832 14.8559 9.96317C14.5665 11.418 13.8522 12.7544 12.8033 13.8033C11.7544 14.8522 10.418 15.5665 8.96317 15.8559C7.50832 16.1453 6.00032 15.9967 4.62987 15.4291C3.25943 14.8614 2.08809 13.9001 1.26398 12.6668C0.439867 11.4334 0 9.98336 0 8.5C0 6.51087 0.790176 4.60322 2.1967 3.1967C3.60322 1.79018 5.51087 1 7.5 1ZM7.5 2.66687C6.34632 2.66687 5.21854 3.00898 4.25929 3.64993C3.30004 4.29088 2.55239 5.20189 2.11089 6.26776C1.6694 7.33362 1.55388 8.50647 1.77896 9.63798C2.00403 10.7695 2.55958 11.8089 3.37536 12.6246C4.19113 13.4404 5.2305 13.996 6.36201 14.221C7.49353 14.4461 8.66637 14.3306 9.73224 13.8891C10.7981 13.4476 11.7091 12.7 12.3501 11.7407C12.991 10.7815 13.3331 9.65368 13.3331 8.5C13.3331 6.95296 12.7186 5.46928 11.6246 4.37536C10.5307 3.28143 9.04704 2.66687 7.5 2.66687ZM4.99969 5.99969L7.5 8.5L4.99969 11.0003V9.33344H3.33375V7.66656H4.99969V5.99969ZM9.99937 5.99969V7.66656H11.6662V9.33344H10.0003V11.0003L7.5 8.5L10.0003 5.99969H9.99937Z" fill="#F34D3D"/>
</svg>
