<svg width="12" height="12" viewBox="0 0 12 12" fill="" xmlns="http://www.w3.org/2000/svg">
<path d="M4.76855 9C4.02347 9.00103 3.29485 8.77368 2.67502 8.34674C2.05519 7.9198 1.57203 7.31249 1.28676 6.60175C1.0015 5.89101 0.926959 5.10883 1.07259 4.3543C1.21823 3.59978 1.57748 2.90688 2.10484 2.36337L4.39363 0L5.15061 0.781647L2.86182 3.14502C2.38706 3.67296 2.129 4.37039 2.14192 5.09072C2.15483 5.81104 2.43769 6.49814 2.93105 7.00758C3.42441 7.51701 4.08982 7.80909 4.78742 7.82242C5.48501 7.83576 6.16044 7.5693 6.67171 7.07906L7.24302 6.48914L8 7.27079L7.42869 7.86071C7.07978 8.22212 6.66518 8.50882 6.20867 8.70433C5.75217 8.89984 5.26276 9.00032 4.76855 9Z" fill=""/>
<path d="M7.65802 12L6.89019 11.2095L9.21177 8.81951C9.69333 8.28562 9.95507 7.58032 9.94198 6.85187C9.92888 6.12342 9.64196 5.42857 9.14154 4.91339C8.64112 4.39822 7.96617 4.10284 7.25859 4.08936C6.55101 4.07587 5.86591 4.34534 5.34731 4.8411L4.76782 5.43768L4 4.64721L4.57949 4.05064C5.30451 3.35779 6.26228 2.98143 7.25134 3.00071C8.24039 3.01998 9.18364 3.43341 9.88267 4.15401C10.5817 4.87461 10.982 5.84623 10.9994 6.86448C11.0168 7.88272 10.6499 8.86823 9.97597 9.6137L7.65802 12Z" fill=""/>
</svg>
