<svg width="792" height="76" viewBox="0 0 792 76" fill="none" xmlns="http://www.w3.org/2000/svg">
<path d="M7.33391 8.6665C7.33391 8.48241 7.48315 8.33317 7.66724 8.33317H8.33391C8.518 8.33317 8.66724 8.48241 8.66724 8.6665V12.6665C8.66724 12.8506 8.518 12.9998 8.33391 12.9998H7.66724C7.48315 12.9998 7.33391 12.8506 7.33391 12.6665V8.6665Z" fill="#D83931"/>
<path d="M7.33391 13.9998C7.33391 13.8157 7.48315 13.6665 7.66724 13.6665H8.33391C8.518 13.6665 8.66724 13.8157 8.66724 13.9998V14.6665C8.66724 14.8506 8.518 14.9998 8.33391 14.9998H7.66724C7.48315 14.9998 7.33391 14.8506 7.33391 14.6665V13.9998Z" fill="#D83931"/>
<path d="M6.84585 4.33317C7.35905 3.44428 8.64205 3.44428 9.15525 4.33317L15.5062 15.6665C16.0194 16.5554 15.3779 17.6665 14.3515 17.6665H1.64977C0.623374 17.6665 -0.018125 16.5554 0.495075 15.6665L6.84585 4.33317ZM8.00055 4.99984L1.64977 16.3332L14.3515 16.3332L8.00055 4.99984Z" fill="#D83931"/>
<path d="M29.754 9.714H32.68V8.72H30.258V4.996H36.446V8.72H33.996V9.714H36.894V13.69H33.996V15.468C34.5 15.412 34.99 15.342 35.494 15.272C35.354 14.908 35.2 14.544 35.06 14.208L36.25 13.886C36.754 15.048 37.132 16.112 37.398 17.064L36.236 17.512C36.124 17.12 36.012 16.756 35.9 16.42C33.94 16.728 31.882 16.98 29.712 17.19L29.39 15.916C30.51 15.832 31.602 15.734 32.68 15.622V13.69H29.754V9.714ZM35.69 12.556V10.848H33.996V12.556H35.69ZM32.68 12.556V10.848H30.958V12.556H32.68ZM26.408 9.322L26.17 11.31H29.068C29.068 13.676 28.984 15.258 28.844 16.042C28.676 16.84 27.948 17.274 26.688 17.344C26.324 17.344 25.946 17.316 25.568 17.288L25.246 16.084C25.624 16.112 26.002 16.14 26.394 16.14C27.108 16.14 27.514 15.902 27.626 15.44C27.724 14.964 27.78 13.97 27.78 12.458H24.84L25.274 8.132H27.668V6.214H24.966V4.996H28.914V9.322H26.408ZM35.228 7.614V6.088H31.49V7.614H35.228ZM40.184 9.98C39.904 10.26 39.596 10.54 39.288 10.806L38.602 9.672C39.792 8.762 40.66 7.614 41.22 6.228H39.106V4.996H45.84V6.228H42.508C42.34 6.648 42.172 7.054 41.99 7.432H45.308V8.482C44.692 11.142 42.774 13.018 39.582 14.082L38.938 12.934C40.17 12.542 41.192 12.038 42.004 11.408C41.486 10.932 40.884 10.456 40.184 9.98ZM41.332 8.552C41.206 8.734 41.08 8.916 40.94 9.098C41.668 9.63 42.312 10.134 42.858 10.624C43.39 10.008 43.796 9.308 44.062 8.552H41.332ZM46.61 5.542H47.87V11.31H46.61V5.542ZM49.228 13.704H47.52L47.226 12.486C47.772 12.528 48.29 12.556 48.78 12.556C49.158 12.556 49.354 12.388 49.354 12.066V4.59H50.628V12.388C50.628 13.256 50.152 13.704 49.228 13.704ZM40.38 14.068L41.486 14.6C41.01 15.692 40.45 16.644 39.806 17.442L38.7 16.644C39.344 15.916 39.904 15.062 40.38 14.068ZM43.656 14.18C43.964 15.034 44.23 15.958 44.482 16.952L43.138 17.246C42.942 16.182 42.704 15.244 42.41 14.432L43.656 14.18ZM46.568 13.942C47.002 14.866 47.38 15.86 47.702 16.924L46.372 17.218C46.092 16.07 45.742 15.062 45.322 14.194L46.568 13.942ZM49.536 13.914C50.306 14.95 50.894 15.846 51.3 16.616L50.194 17.386C49.774 16.546 49.186 15.622 48.458 14.586L49.536 13.914ZM64.362 10.414H61.394V11.268H64.558V12.36H61.394V13.228H64.964V14.334H61.394V15.468H60.106V14.334H57.04V13.228H60.106V12.36H57.474V11.268H60.106V10.414H57.768V9.308H60.106V8.44H57.082V7.362H60.106V6.522H57.768V5.43H60.106V4.492H61.394V5.43H64.362V7.362H65.202V8.44H64.362V10.414ZM61.394 6.522V7.362H63.088V6.522H61.394ZM61.394 8.44V9.308H63.088V8.44H61.394ZM60.456 15.944C62.038 15.944 63.676 15.902 65.356 15.846L65.132 17.12H61.03C58.454 17.12 56.62 16.742 55.514 16.014C55.374 15.916 55.262 15.818 55.178 15.734C54.73 16.35 54.212 16.882 53.624 17.344L52.756 16.21C53.372 15.79 53.876 15.286 54.282 14.698C53.764 13.914 53.344 12.948 53.008 11.8L54.128 11.394C54.366 12.234 54.632 12.948 54.94 13.522C55.318 12.64 55.542 11.632 55.626 10.512H53.106V9.504C53.862 8.524 54.548 7.488 55.192 6.396H53.106V5.136H56.676V6.228C56.046 7.404 55.43 8.426 54.814 9.308H56.844V10.106C56.788 11.898 56.438 13.438 55.794 14.726C55.962 14.894 56.144 15.034 56.34 15.146C57.25 15.65 58.622 15.916 60.456 15.944ZM74.148 4.436C75.016 5.584 75.674 6.578 76.136 7.446L75.086 8.174C74.596 7.25 73.952 6.256 73.154 5.164L74.148 4.436ZM77.494 5.192L78.754 5.458C78.306 8.72 77.382 11.38 75.982 13.424C77.046 14.642 78.264 15.608 79.65 16.336L78.866 17.484C77.466 16.728 76.248 15.72 75.184 14.488C74.078 15.776 72.748 16.784 71.194 17.484L70.466 16.35C71.992 15.65 73.28 14.67 74.316 13.396C73 11.562 71.964 9.308 71.194 6.648L72.342 6.004C72.986 8.496 73.91 10.596 75.114 12.304C76.318 10.414 77.102 8.048 77.494 5.192ZM68.478 4.632C69.36 5.332 70.116 6.018 70.732 6.704L69.822 7.628C69.276 6.956 68.52 6.256 67.554 5.514L68.478 4.632ZM66.574 8.692H69.808V14.432C70.186 14.096 70.578 13.718 70.998 13.298L71.362 14.712C70.522 15.524 69.626 16.252 68.674 16.91L68.17 15.692C68.408 15.51 68.534 15.272 68.534 14.992V9.966H66.574V8.692ZM87.952 4.478L89.24 4.646C89.128 4.968 88.988 5.276 88.848 5.556H92.726V6.69C92.32 7.53 91.704 8.272 90.864 8.902C91.606 9.21 92.46 9.462 93.426 9.672L92.908 10.918C91.592 10.596 90.472 10.19 89.576 9.7C88.61 10.204 87.462 10.61 86.146 10.932L85.642 9.742C86.678 9.518 87.574 9.238 88.358 8.902C87.882 8.524 87.504 8.118 87.21 7.684C86.958 7.908 86.706 8.132 86.426 8.328L85.67 7.348C86.79 6.564 87.56 5.612 87.952 4.478ZM88.05 6.816C88.414 7.362 88.932 7.838 89.604 8.258C90.304 7.81 90.864 7.32 91.27 6.76H88.092C88.064 6.774 88.05 6.788 88.05 6.816ZM83.374 4.478L84.578 5.038C84.256 6.074 83.85 7.068 83.346 7.992V17.456H82.072V10.008C81.68 10.512 81.274 11.002 80.854 11.478L80.462 10.148C81.778 8.524 82.758 6.634 83.374 4.478ZM84.284 7.026H85.502V14.95H84.284V7.026ZM89.912 10.428L90.864 11.03C90.332 11.464 89.8 11.828 89.24 12.108C88.68 12.374 87.896 12.668 86.888 13.004L86.258 11.954C87 11.8 87.7 11.59 88.372 11.31C88.918 11.058 89.436 10.764 89.912 10.428ZM91.27 11.478L92.138 12.15C91.004 13.494 89.338 14.474 87.126 15.076L86.608 13.942C88.68 13.438 90.234 12.612 91.27 11.478ZM86.594 17.568L86.034 16.364C87.644 15.944 88.932 15.454 89.884 14.908C90.864 14.348 91.704 13.634 92.432 12.738L93.37 13.438C92.726 14.404 91.788 15.244 90.528 15.958C89.268 16.658 87.952 17.204 86.594 17.568ZM97.99 6.606C97.822 6.858 97.654 7.11 97.486 7.348H105.55V11.968H100.02C99.838 12.234 99.656 12.486 99.46 12.724H105.606V13.662C104.976 14.446 104.164 15.118 103.17 15.664C104.402 15.958 105.76 16.126 107.244 16.182L106.936 17.4C104.934 17.302 103.142 16.966 101.56 16.392C99.908 16.98 97.92 17.344 95.596 17.484L95.064 16.336C96.954 16.266 98.592 16.056 99.964 15.706C99.166 15.286 98.424 14.81 97.752 14.264C97.192 14.642 96.576 14.992 95.918 15.3L95.232 14.166C96.716 13.578 97.808 12.85 98.536 11.968H96.898V8.048C96.478 8.496 96.016 8.902 95.526 9.28L94.728 8.23C96.128 7.18 97.08 5.892 97.584 4.38L98.886 4.618C98.788 4.912 98.69 5.192 98.578 5.472H106.586V6.606H97.99ZM101.574 15.188C102.526 14.81 103.31 14.348 103.94 13.788H98.844C99.656 14.348 100.566 14.824 101.574 15.188ZM104.262 10.932V10.134H98.2V10.932H104.262ZM98.2 9.154H104.262V8.37H98.2V9.154Z" fill="#2A2B32"/>
<rect y="30" width="792" height="46" rx="6" fill="#F7F8FB"/>
<path d="M17.75 54.01H22.524V52.638H23.56V54.01H28.208V54.976H23.56V58.084C23.56 58.924 23.126 59.358 22.258 59.358H20.69L20.466 58.392C20.97 58.434 21.46 58.462 21.908 58.462C22.314 58.462 22.524 58.252 22.524 57.832V54.976H17.75V54.01ZM20.06 55.844L20.76 56.46C19.892 57.454 18.828 58.322 17.568 59.064L16.924 58.21C18.17 57.538 19.22 56.754 20.06 55.844ZM28.11 59.036C27.088 58.028 26.052 57.146 25.002 56.39L25.66 55.774C26.556 56.334 27.62 57.174 28.838 58.294L28.11 59.036ZM21.124 46.408L22.104 46.632C21.88 46.982 21.67 47.318 21.446 47.626H26.906V48.41C26.108 49.39 25.142 50.23 24.008 50.944C25.52 51.574 27.312 52.022 29.384 52.288L28.922 53.226C26.598 52.89 24.638 52.316 23.014 51.518C21.334 52.386 19.36 53.002 17.064 53.38L16.63 52.47C18.702 52.176 20.508 51.686 22.048 50.986C21.236 50.496 20.536 49.95 19.934 49.348C19.36 49.894 18.744 50.384 18.1 50.804L17.456 50.034C18.94 49.11 20.158 47.892 21.124 46.408ZM20.55 48.732C21.222 49.404 22.048 49.992 23.028 50.496C24.036 49.922 24.904 49.264 25.646 48.522H20.732L20.55 48.732ZM33.668 46.478L34.62 46.912C34.256 48.018 33.794 49.068 33.234 50.062V59.414H32.24V51.602C31.792 52.218 31.302 52.806 30.77 53.366L30.448 52.288C31.932 50.608 32.996 48.662 33.668 46.478ZM36.02 47.402L37.014 47.528C36.902 48.228 36.748 48.9 36.552 49.516H38.61V46.604H39.618V49.516H42.838V50.496H39.618V53.87H43.356V54.836H39.618V59.344H38.61V54.836H34.494V53.87H38.61V50.496H36.23C35.88 51.42 35.446 52.246 34.928 52.974L34.284 52.134C35.138 50.846 35.712 49.264 36.02 47.402ZM47.5 49.474C47.738 49.474 47.948 49.558 48.116 49.74C48.284 49.894 48.368 50.09 48.368 50.342C48.368 50.58 48.284 50.776 48.116 50.944C47.948 51.112 47.738 51.196 47.5 51.196C47.248 51.196 47.052 51.112 46.884 50.944C46.716 50.776 46.646 50.58 46.646 50.342C46.646 50.09 46.716 49.894 46.884 49.74C47.052 49.558 47.248 49.474 47.5 49.474ZM47.5 54.598C47.738 54.598 47.948 54.682 48.116 54.864C48.284 55.018 48.368 55.214 48.368 55.466C48.368 55.704 48.284 55.9 48.116 56.068C47.948 56.236 47.738 56.32 47.5 56.32C47.248 56.32 47.052 56.236 46.884 56.068C46.716 55.9 46.646 55.704 46.646 55.466C46.646 55.214 46.716 55.018 46.884 54.864C47.052 54.682 47.248 54.598 47.5 54.598ZM63.32 47.808C64.426 47.808 65.364 48.102 66.12 48.69C66.876 49.278 67.324 50.076 67.464 51.07H66.358C66.218 50.342 65.854 49.782 65.294 49.39C64.748 49.012 64.09 48.83 63.306 48.83C62.144 48.83 61.248 49.236 60.618 50.048C60.03 50.804 59.736 51.798 59.736 53.044C59.736 54.29 60.016 55.284 60.604 56.012C61.22 56.782 62.102 57.174 63.278 57.174C64.076 57.174 64.748 56.964 65.308 56.544C65.896 56.096 66.302 55.438 66.498 54.57H67.604C67.38 55.732 66.862 56.642 66.036 57.286C65.266 57.888 64.342 58.196 63.278 58.196C61.724 58.196 60.534 57.678 59.708 56.656C58.952 55.732 58.588 54.528 58.588 53.044C58.588 51.56 58.966 50.342 59.736 49.39C60.576 48.326 61.78 47.808 63.32 47.808ZM68.2555 48.004H69.5155L72.6375 56.754H72.6795L75.8015 48.004H77.0615L73.3655 58H71.9515L68.2555 48.004ZM81.495 47.808C82.615 47.808 83.511 48.06 84.155 48.578C84.827 49.11 85.205 49.908 85.303 50.958H84.169C84.043 50.23 83.763 49.698 83.329 49.348C82.881 48.984 82.251 48.816 81.439 48.816C80.697 48.816 80.123 48.928 79.703 49.18C79.227 49.46 78.989 49.88 78.989 50.454C78.989 50.958 79.269 51.364 79.843 51.672C80.095 51.812 80.711 52.022 81.677 52.302C82.993 52.694 83.861 53.016 84.281 53.268C85.107 53.772 85.527 54.472 85.527 55.382C85.527 56.25 85.177 56.95 84.477 57.454C83.777 57.944 82.839 58.196 81.649 58.196C80.473 58.196 79.549 57.944 78.877 57.44C78.093 56.838 77.659 55.928 77.575 54.696H78.709C78.807 55.564 79.115 56.208 79.619 56.614C80.081 56.978 80.753 57.174 81.649 57.174C82.461 57.174 83.133 57.02 83.637 56.712C84.141 56.404 84.393 55.984 84.393 55.452C84.393 54.822 84.057 54.332 83.399 53.982C83.119 53.814 82.405 53.576 81.285 53.254C80.081 52.89 79.311 52.61 78.989 52.442C78.219 51.994 77.841 51.35 77.841 50.51C77.841 49.642 78.205 48.956 78.947 48.48C79.605 48.032 80.459 47.808 81.495 47.808ZM90.3407 47.808C91.4607 47.808 92.3567 48.06 93.0007 48.578C93.6727 49.11 94.0507 49.908 94.1487 50.958H93.0147C92.8887 50.23 92.6087 49.698 92.1747 49.348C91.7267 48.984 91.0967 48.816 90.2847 48.816C89.5427 48.816 88.9687 48.928 88.5487 49.18C88.0727 49.46 87.8347 49.88 87.8347 50.454C87.8347 50.958 88.1147 51.364 88.6887 51.672C88.9407 51.812 89.5567 52.022 90.5227 52.302C91.8387 52.694 92.7067 53.016 93.1267 53.268C93.9527 53.772 94.3727 54.472 94.3727 55.382C94.3727 56.25 94.0227 56.95 93.3227 57.454C92.6227 57.944 91.6847 58.196 90.4947 58.196C89.3187 58.196 88.3947 57.944 87.7227 57.44C86.9387 56.838 86.5047 55.928 86.4207 54.696H87.5547C87.6527 55.564 87.9607 56.208 88.4647 56.614C88.9267 56.978 89.5987 57.174 90.4947 57.174C91.3067 57.174 91.9787 57.02 92.4827 56.712C92.9867 56.404 93.2387 55.984 93.2387 55.452C93.2387 54.822 92.9027 54.332 92.2447 53.982C91.9647 53.814 91.2507 53.576 90.1307 53.254C88.9267 52.89 88.1567 52.61 87.8347 52.442C87.0647 51.994 86.6867 51.35 86.6867 50.51C86.6867 49.642 87.0507 48.956 87.7927 48.48C88.4507 48.032 89.3047 47.808 90.3407 47.808ZM95.5184 50.79L102.588 53.94V54.822L95.5184 57.986V56.936L101.272 54.388L95.5184 51.826V50.79ZM103.995 52.47H111.065V53.408H103.995V52.47ZM103.995 55.34H111.065V56.292H103.995V55.34ZM112.247 48.004H118.813V48.942L115.131 58H113.913L117.637 49.054H112.247V48.004ZM131.328 46.422H132.308C131.748 47.346 131.3 48.312 130.978 49.32C130.558 50.552 130.362 51.756 130.362 52.96C130.362 54.15 130.558 55.368 130.978 56.6C131.3 57.594 131.748 58.56 132.308 59.498H131.328C130.712 58.588 130.236 57.622 129.886 56.614C129.466 55.41 129.27 54.192 129.27 52.974C129.27 51.728 129.466 50.51 129.886 49.306C130.236 48.284 130.712 47.318 131.328 46.422ZM140.61 46.478C140.764 46.856 140.918 47.276 141.058 47.738H146.602V48.662H134.24V47.738H139.98C139.84 47.346 139.672 46.996 139.504 46.674L140.61 46.478ZM144.362 59.358H143.186L142.948 58.448L144.068 58.49C144.642 58.49 144.936 58.266 144.936 57.818V54.01H135.92V59.4H134.954V53.128H145.902V58.028C145.902 58.91 145.384 59.358 144.362 59.358ZM136.522 49.572H144.348V52.288H136.522V49.572ZM143.368 51.504V50.356H137.502V51.504H143.368ZM137.684 54.906H143.186V57.706H137.684V54.906ZM142.29 56.95V55.662H138.594V56.95H142.29ZM152.23 46.366L153.266 46.59C153.042 46.954 152.818 47.304 152.58 47.64H157.984V48.368C157.41 49.04 156.836 49.628 156.276 50.104H160.434V51.084H150.956V53.366C150.886 55.9 150.172 57.93 148.828 59.456L148.016 58.728C149.248 57.44 149.892 55.662 149.948 53.366V50.454C149.528 50.79 149.108 51.098 148.688 51.392L148.016 50.58C149.724 49.516 151.138 48.102 152.23 46.366ZM154.96 50.104C155.534 49.642 156.108 49.11 156.668 48.508H151.922C151.432 49.082 150.914 49.614 150.368 50.104H154.96ZM157.48 53.576H153.742V57.594C153.742 58.028 153.994 58.252 154.498 58.252H158.25C158.894 58.252 159.3 58.126 159.454 57.888C159.622 57.608 159.734 57.062 159.818 56.25L160.784 56.558C160.658 57.79 160.448 58.56 160.14 58.84C159.86 59.064 159.314 59.19 158.516 59.19H154.092C153.168 59.19 152.72 58.77 152.72 57.93V52.68H158.502V55.186C158.502 55.998 158.096 56.432 157.298 56.46C156.682 56.46 156.08 56.446 155.492 56.418L155.254 55.466C155.87 55.522 156.43 55.55 156.934 55.55C157.298 55.55 157.48 55.326 157.48 54.878V53.576ZM166.706 48.088C167.98 49.558 168.96 50.846 169.632 51.938L168.778 52.526C168.064 51.35 167.098 50.048 165.866 48.606L166.706 48.088ZM171.522 54.948C170.598 56.642 169.114 58.084 167.07 59.26L166.398 58.434C168.778 57.062 170.36 55.354 171.13 53.282C171.718 51.532 172.012 49.306 172.026 46.604H173.076C173.076 49.264 172.782 51.504 172.194 53.352C172.124 53.562 172.054 53.772 171.97 53.982C173.118 55.438 174.084 56.894 174.868 58.35L174.098 59.12C173.44 57.804 172.586 56.418 171.522 54.948ZM163.234 57.804L162.898 56.852C163.15 56.656 163.276 56.404 163.276 56.082V46.968H164.312V56.32C165.404 55.872 166.482 55.326 167.56 54.682L167.84 55.662C166.412 56.488 164.872 57.202 163.234 57.804ZM181.252 46.562H182.288V50.888H187.482V51.868H182.288V57.86H188.672V58.84H176.212V57.86H181.252V46.562ZM190.548 46.422H191.528C192.13 47.318 192.606 48.284 192.97 49.306C193.376 50.51 193.586 51.728 193.586 52.974C193.586 54.192 193.376 55.41 192.97 56.614C192.606 57.622 192.13 58.588 191.528 59.498H190.548C191.108 58.56 191.542 57.594 191.878 56.6C192.284 55.368 192.494 54.15 192.494 52.96C192.494 51.756 192.284 50.552 191.878 49.32C191.542 48.312 191.108 47.346 190.548 46.422ZM205.85 56.04C206.382 56.418 206.928 56.88 207.46 57.44C207.922 57.916 208.328 58.406 208.664 58.882L207.964 59.47C207.628 58.994 207.222 58.518 206.774 58.042C206.256 57.482 205.738 57.02 205.22 56.628L205.85 56.04ZM222.328 51.602V53.128H227.886V51.602H222.328ZM227.886 54.01H222.328V55.494H227.886V54.01ZM227.886 56.376H222.328V59.372H221.376V52.05C220.592 53.03 219.682 53.94 218.674 54.752L218.016 53.898C219.78 52.498 221.138 50.902 222.104 49.096H218.394V48.116H222.566C222.804 47.57 223.014 47.024 223.182 46.478L224.204 46.604C224.036 47.122 223.868 47.626 223.672 48.116H230.63V49.096H223.252C222.972 49.656 222.678 50.202 222.342 50.72H228.838V58.28C228.838 58.966 228.446 59.316 227.662 59.344H226.094L225.842 58.42C226.374 58.448 226.878 58.476 227.34 58.476C227.704 58.476 227.886 58.308 227.886 57.972V56.376ZM237.098 48.004H241.186C243.482 48.004 244.63 48.984 244.63 50.944C244.63 52.918 243.468 53.912 241.172 53.912H238.246V58H237.098V48.004ZM238.246 48.998V52.918H241.116C241.928 52.918 242.516 52.75 242.908 52.428C243.286 52.106 243.482 51.616 243.482 50.944C243.482 50.272 243.286 49.782 242.894 49.488C242.502 49.152 241.914 48.998 241.116 48.998H238.246ZM250.448 47.808C251.932 47.808 253.122 48.298 253.99 49.306C254.802 50.258 255.222 51.49 255.222 53.016C255.222 54.528 254.802 55.746 253.99 56.698C253.122 57.692 251.932 58.196 250.434 58.196C248.936 58.196 247.76 57.692 246.892 56.698C246.066 55.746 245.66 54.514 245.66 53.016C245.66 51.504 246.066 50.272 246.892 49.32C247.76 48.312 248.936 47.808 250.448 47.808ZM250.448 48.83C249.3 48.83 248.39 49.222 247.732 50.02C247.116 50.776 246.808 51.77 246.808 53.016C246.808 54.248 247.116 55.242 247.732 55.998C248.376 56.782 249.286 57.174 250.434 57.174C251.582 57.174 252.492 56.782 253.136 56.026C253.752 55.27 254.074 54.276 254.074 53.016C254.074 51.742 253.752 50.734 253.136 49.978C252.492 49.208 251.596 48.83 250.448 48.83ZM261.125 47.808C262.231 47.808 263.169 48.102 263.925 48.69C264.681 49.278 265.129 50.076 265.269 51.07H264.163C264.023 50.342 263.659 49.782 263.099 49.39C262.553 49.012 261.895 48.83 261.111 48.83C259.949 48.83 259.053 49.236 258.423 50.048C257.835 50.804 257.541 51.798 257.541 53.044C257.541 54.29 257.821 55.284 258.409 56.012C259.025 56.782 259.907 57.174 261.083 57.174C261.881 57.174 262.553 56.964 263.113 56.544C263.701 56.096 264.107 55.438 264.303 54.57H265.409C265.185 55.732 264.667 56.642 263.841 57.286C263.071 57.888 262.147 58.196 261.083 58.196C259.529 58.196 258.339 57.678 257.513 56.656C256.757 55.732 256.393 54.528 256.393 53.044C256.393 51.56 256.771 50.342 257.541 49.39C258.381 48.326 259.585 47.808 261.125 47.808ZM273.074 56.04C273.606 56.418 274.152 56.88 274.684 57.44C275.146 57.916 275.552 58.406 275.888 58.882L275.188 59.47C274.852 58.994 274.446 58.518 273.998 58.042C273.48 57.482 272.962 57.02 272.444 56.628L273.074 56.04ZM285.73 47.99H289.538C289.72 47.5 289.888 47.01 290.028 46.506L291.05 46.632C290.91 47.094 290.77 47.542 290.616 47.99H297.784V48.97H290.238C289.72 50.174 289.076 51.28 288.32 52.288V59.414H287.34V53.492C286.864 54.01 286.374 54.5 285.842 54.976L285.212 54.178C286.92 52.68 288.222 50.944 289.132 48.97H285.73V47.99ZM289.412 54.5H293.472V53.198C294.27 52.75 295.026 52.232 295.754 51.616H290.49V50.678H297.042V51.616C296.286 52.316 295.432 52.988 294.48 53.618V54.5H297.98V55.466H294.48V58.112C294.48 58.938 294.06 59.358 293.234 59.358H291.484L291.218 58.406C291.722 58.42 292.254 58.434 292.828 58.434C293.248 58.434 293.472 58.21 293.472 57.79V55.466H289.412V54.5ZM303.678 53.086H306.884V50.482H307.906V53.086H311.252V54.066H307.906V57.93H311.882V58.924H303.104V57.93H306.884V54.066H303.678V53.086ZM301.424 53.702C300.906 54.234 300.36 54.752 299.772 55.242L299.142 54.416C300.892 52.974 302.25 51.322 303.23 49.46H299.632V48.466H303.706C303.986 47.822 304.238 47.15 304.434 46.464L305.484 46.59C305.288 47.234 305.078 47.864 304.826 48.466H311.868V49.46H304.378C303.832 50.566 303.174 51.602 302.418 52.554V59.442H301.424V53.702ZM313.422 47.402H325.91V48.382H324.062V57.902C324.062 58.826 323.614 59.302 322.718 59.302H320.38L320.156 58.322C320.926 58.35 321.668 58.378 322.368 58.378C322.816 58.378 323.054 58.126 323.054 57.65V48.382H313.422V47.402ZM320.492 50.524V55.662H316.026V56.894H315.046V50.524H320.492ZM316.026 54.738H319.526V51.434H316.026V54.738ZM327.716 47.836H333.12C333.176 47.388 333.232 46.954 333.274 46.52L334.296 46.66C334.254 47.066 334.212 47.458 334.156 47.836H339.588V48.802H334.002C333.932 49.208 333.848 49.6 333.764 49.964H337.796V58.14H339.868V59.078H327.45V58.14H329.452V49.964H332.728C332.812 49.572 332.896 49.18 332.966 48.802H327.716V47.836ZM330.446 58.14H336.802V56.908H330.446V58.14ZM330.446 56.082H336.802V54.892H330.446V56.082ZM330.446 54.08H336.802V52.904H330.446V54.08ZM330.446 52.078H336.802V50.86H330.446V52.078ZM348.058 48.928C348.422 49.558 348.744 50.244 349.052 51H350.424C350.816 50.3 351.138 49.558 351.418 48.774L352.37 49.11C352.104 49.81 351.81 50.44 351.488 51H353.756V51.966H345.944V51H348.086C347.806 50.384 347.526 49.824 347.232 49.32L348.058 48.928ZM349.906 46.478C350.06 46.87 350.214 47.318 350.368 47.808H353.504V48.732H346.266V47.808H349.346C349.192 47.388 349.024 46.996 348.856 46.646L349.906 46.478ZM342.92 59.274H341.702L341.492 58.294C341.87 58.322 342.234 58.35 342.57 58.35C342.934 58.35 343.13 58.168 343.13 57.804V54.36C342.57 54.584 341.996 54.794 341.422 54.976L341.17 53.968C341.828 53.8 342.486 53.59 343.13 53.338V50.216H341.422V49.25H343.13V46.604H344.166V49.25H345.328V50.216H344.166V52.904C344.558 52.708 344.95 52.512 345.342 52.302V53.324C344.95 53.534 344.558 53.73 344.166 53.912V58.056C344.166 58.868 343.746 59.274 342.92 59.274ZM348.674 52.358L349.64 52.47C349.5 52.848 349.346 53.212 349.178 53.562H353.98V54.542H352.44C352.23 55.578 351.796 56.46 351.138 57.174C352.09 57.622 353.014 58.098 353.896 58.602L353.35 59.414C352.51 58.896 351.544 58.378 350.424 57.846C349.5 58.518 348.03 59.064 346.014 59.456L345.622 58.546C347.246 58.252 348.506 57.86 349.374 57.356C348.52 56.964 347.61 56.586 346.63 56.194C347.008 55.62 347.344 55.074 347.638 54.542H345.762V53.562H348.156C348.352 53.142 348.52 52.75 348.674 52.358ZM351.488 54.542H348.66C348.408 54.976 348.142 55.396 347.862 55.788C348.674 56.096 349.458 56.418 350.214 56.754C350.844 56.166 351.264 55.438 351.488 54.542ZM355.338 54.318H363.864V53.436H364.872V54.318H367.952V55.298H364.872V58.266C364.872 59.05 364.438 59.442 363.598 59.442H361.806L361.582 58.448C362.17 58.49 362.716 58.518 363.248 58.518C363.654 58.518 363.864 58.35 363.864 58.014V55.298H355.338V54.318ZM365.838 47.108V50.44H357.816V51.448C357.816 51.826 358.026 52.022 358.418 52.022H365.908C366.188 52.008 366.37 51.91 366.482 51.742C366.566 51.588 366.65 51.224 366.706 50.636L367.658 50.944C367.588 51.574 367.49 52.022 367.378 52.302C367.182 52.722 366.79 52.932 366.202 52.96H358.054C357.214 52.96 356.808 52.568 356.808 51.812V47.108H365.838ZM357.816 49.516H364.83V48.018H357.816V49.516ZM358.558 55.718C359.496 56.446 360.28 57.188 360.924 57.916L360.168 58.672C359.608 57.958 358.824 57.202 357.844 56.404L358.558 55.718ZM377.57 49.67C377.5 49.922 377.43 50.174 377.374 50.426C377.738 52.078 378.228 53.492 378.83 54.696C379.474 53.254 379.81 51.574 379.866 49.67H377.57ZM378.34 55.662C377.766 54.57 377.29 53.338 376.898 51.952C376.618 52.68 376.324 53.31 375.988 53.87L375.344 53.086C376.24 51.462 376.842 49.292 377.15 46.548L378.088 46.716C378.004 47.416 377.892 48.074 377.78 48.704H381.756V49.67H380.804C380.72 52.022 380.258 54.024 379.39 55.676C380.146 56.908 381.056 57.874 382.106 58.546L381.532 59.372C380.496 58.672 379.614 57.734 378.872 56.558C378.088 57.734 377.094 58.714 375.876 59.498L375.344 58.658C376.618 57.874 377.612 56.88 378.34 55.662ZM375.176 56.95V57.916C373.44 58.364 371.564 58.728 369.562 59.022L369.324 58.07C370.192 57.958 371.032 57.832 371.858 57.692V55.172H369.758V54.192H371.858V52.428H372.824V54.192H374.868V55.172H372.824V57.51C373.622 57.342 374.406 57.146 375.176 56.95ZM369.296 47.15H375.302V48.102H372.656C371.97 49.544 371.368 50.58 370.864 51.224C371.886 51.14 372.894 51.042 373.874 50.902C373.622 50.328 373.356 49.81 373.104 49.334L373.958 49.068C374.504 50.034 374.98 51.07 375.386 52.162L374.532 52.54C374.42 52.246 374.322 51.966 374.21 51.7C372.81 51.882 371.312 52.022 369.688 52.134L369.464 51.252C369.548 51.224 369.618 51.196 369.66 51.168C370.164 50.79 370.836 49.768 371.648 48.102H369.296V47.15ZM391.864 49.67L391.682 50.398C392.032 52.036 392.48 53.45 393.04 54.626C393.586 53.212 393.88 51.56 393.936 49.67H391.864ZM392.578 55.634C392.032 54.556 391.57 53.324 391.192 51.924C390.94 52.568 390.66 53.142 390.366 53.646L389.736 52.876C390.562 51.308 391.122 49.194 391.402 46.534L392.382 46.702C392.298 47.416 392.186 48.088 392.074 48.704H395.77V49.67H394.86C394.79 52.008 394.356 54.01 393.572 55.662C394.3 56.922 395.154 57.888 396.162 58.574L395.616 59.4C394.636 58.7 393.796 57.748 393.096 56.572C392.424 57.692 391.556 58.63 390.506 59.386L389.988 58.546C391.08 57.79 391.934 56.824 392.578 55.634ZM385.942 53.072L386.88 53.184C386.782 53.45 386.684 53.702 386.6 53.954H389.526V54.78C389.218 55.704 388.7 56.502 387.972 57.174C388.644 57.482 389.288 57.79 389.904 58.126L389.358 58.91C388.742 58.546 388.028 58.168 387.202 57.804C386.278 58.448 385.116 58.966 383.716 59.358L383.24 58.518C384.388 58.21 385.382 57.832 386.194 57.37C385.578 57.104 384.934 56.838 384.248 56.586C384.612 55.97 384.934 55.396 385.214 54.836H383.562V53.954H385.606C385.732 53.646 385.844 53.352 385.942 53.072ZM387.048 56.782C387.748 56.222 388.28 55.564 388.616 54.836H386.208C385.984 55.312 385.732 55.76 385.452 56.18C386.012 56.376 386.544 56.572 387.048 56.782ZM384.668 46.828C385.004 47.374 385.284 47.962 385.536 48.578L384.808 48.914C384.514 48.228 384.206 47.626 383.87 47.094L384.668 46.828ZM388.924 46.786L389.652 47.122C389.372 47.738 389.022 48.34 388.574 48.928L387.86 48.564C388.308 47.962 388.672 47.374 388.924 46.786ZM383.59 49.25H386.32V46.576H387.258V49.25H389.806V50.132H387.258V50.286C388.014 50.664 388.798 51.098 389.582 51.574L389.064 52.358C388.364 51.798 387.762 51.35 387.258 51.014V52.834H386.32V50.174C385.858 51.28 385.018 52.232 383.814 53.044L383.324 52.232C384.402 51.602 385.158 50.902 385.578 50.132H383.59V49.25ZM398.948 59.274H397.758L397.548 58.322C397.912 58.364 398.276 58.392 398.612 58.392C398.962 58.392 399.144 58.182 399.144 57.79V54.36C398.584 54.57 398.038 54.766 397.492 54.934L397.24 53.954C397.884 53.8 398.528 53.604 399.144 53.38V50.216H397.464V49.25H399.144V46.604H400.124V49.25H401.468V50.216H400.124V52.974C400.572 52.778 401.006 52.568 401.426 52.344V53.338C400.992 53.562 400.558 53.758 400.124 53.954V58.042C400.124 58.854 399.732 59.274 398.948 59.274ZM403.134 53.086C402.966 55.48 402.42 57.58 401.496 59.4L400.712 58.7C401.706 56.852 402.21 54.444 402.224 51.504V47.122H409.602V50.524H406.97V52.176H409.966V53.086H406.97V54.808H409.322V59.4H408.384V58.714H404.59V59.4H403.652V54.808H405.99V53.086H403.134ZM405.99 50.524H403.204V51.504C403.204 51.728 403.19 51.952 403.19 52.176H405.99V50.524ZM404.59 57.818H408.384V55.704H404.59V57.818ZM408.622 48.06H403.204V49.614H408.622V48.06ZM421.32 54.892V51.084H419.5V54.892H421.32ZM419.5 50.104H421.32V46.576H422.328V50.104H424.036V51.084H422.328V55.844H418.534V51.084H416.77V57.888H423.714V58.868H415.776V51.084H414.614V50.104H415.776V46.996H416.77V50.104H418.534V46.576H419.5V50.104ZM412.276 46.786C413.172 47.472 413.928 48.158 414.544 48.844L413.83 49.558C413.27 48.914 412.514 48.214 411.562 47.486L412.276 46.786ZM412.094 50.062C412.934 50.762 413.648 51.448 414.236 52.148L413.508 52.862C412.99 52.204 412.276 51.504 411.38 50.762L412.094 50.062ZM413.634 53.94L414.544 54.304C413.956 56.068 413.312 57.734 412.612 59.288L411.604 58.854C412.388 57.258 413.074 55.62 413.634 53.94ZM430.42 51.28H437.756V52.162H434.48V53.268H437.602V58.28C437.602 58.924 437.294 59.246 436.678 59.246H435.544L435.334 58.462L436.37 58.49C436.622 58.49 436.748 58.336 436.748 58.028V54.08H434.48V59.19H433.612V54.08H431.414V59.274H430.588V53.268H433.612V52.162H430.42V51.28ZM432.198 54.57C432.674 54.962 433.08 55.354 433.416 55.746L432.94 56.222C432.632 55.858 432.226 55.452 431.708 55.032L432.198 54.57ZM435.236 56.292C435.712 56.684 436.104 57.076 436.44 57.468L435.964 57.944C435.67 57.566 435.264 57.174 434.76 56.754L435.236 56.292ZM432.184 56.446C432.646 56.838 433.038 57.244 433.36 57.65L432.884 58.126C432.604 57.734 432.198 57.328 431.694 56.908L432.184 56.446ZM435.292 54.584C435.782 54.948 436.202 55.312 436.538 55.69L436.062 56.166C435.754 55.816 435.334 55.438 434.816 55.046L435.292 54.584ZM426.402 46.772C427.242 47.402 427.942 48.032 428.516 48.648L427.844 49.32C427.326 48.718 426.626 48.074 425.744 47.388L426.402 46.772ZM425.912 50.174C426.752 50.804 427.466 51.434 428.054 52.064L427.368 52.75C426.85 52.134 426.136 51.49 425.24 50.804L425.912 50.174ZM426.99 53.926L427.858 54.276C427.382 56.012 426.864 57.664 426.29 59.204L425.366 58.798C425.996 57.216 426.542 55.592 426.99 53.926ZM436.44 47.962H430.07V49.334H436.44V47.962ZM430.07 50.188V52.316C430.056 55.088 429.524 57.468 428.474 59.456L427.732 58.77C428.656 57.104 429.132 54.948 429.146 52.316V47.094H437.378V50.188H430.07ZM444.308 48.984V58.532H443.328V57.734H440.78V58.938H439.8V48.984H441.102C441.382 48.2 441.578 47.388 441.704 46.548L442.712 46.688C442.544 47.514 442.334 48.284 442.054 48.984H444.308ZM440.78 56.796H443.328V53.73H440.78V56.796ZM440.78 52.82H443.328V49.936H440.78V52.82ZM446.744 52.232C447.752 53.394 448.508 54.416 449.04 55.284L448.242 55.844C447.668 54.92 446.898 53.884 445.932 52.736L446.744 52.232ZM451.546 48.998C451.546 53.646 451.476 56.53 451.336 57.622C451.196 58.686 450.552 59.232 449.376 59.232C449.096 59.232 448.62 59.204 447.948 59.176L447.71 58.252C448.298 58.28 448.802 58.294 449.236 58.294C449.894 58.294 450.272 57.93 450.384 57.216C450.468 56.432 450.524 54.01 450.552 49.978H446.702C446.31 50.86 445.848 51.658 445.302 52.372L444.7 51.574C445.68 50.202 446.338 48.522 446.702 46.534L447.696 46.66C447.528 47.486 447.332 48.27 447.08 48.998H451.546ZM458.42 51.28H465.756V52.162H462.48V53.268H465.602V58.28C465.602 58.924 465.294 59.246 464.678 59.246H463.544L463.334 58.462L464.37 58.49C464.622 58.49 464.748 58.336 464.748 58.028V54.08H462.48V59.19H461.612V54.08H459.414V59.274H458.588V53.268H461.612V52.162H458.42V51.28ZM460.198 54.57C460.674 54.962 461.08 55.354 461.416 55.746L460.94 56.222C460.632 55.858 460.226 55.452 459.708 55.032L460.198 54.57ZM463.236 56.292C463.712 56.684 464.104 57.076 464.44 57.468L463.964 57.944C463.67 57.566 463.264 57.174 462.76 56.754L463.236 56.292ZM460.184 56.446C460.646 56.838 461.038 57.244 461.36 57.65L460.884 58.126C460.604 57.734 460.198 57.328 459.694 56.908L460.184 56.446ZM463.292 54.584C463.782 54.948 464.202 55.312 464.538 55.69L464.062 56.166C463.754 55.816 463.334 55.438 462.816 55.046L463.292 54.584ZM454.402 46.772C455.242 47.402 455.942 48.032 456.516 48.648L455.844 49.32C455.326 48.718 454.626 48.074 453.744 47.388L454.402 46.772ZM453.912 50.174C454.752 50.804 455.466 51.434 456.054 52.064L455.368 52.75C454.85 52.134 454.136 51.49 453.24 50.804L453.912 50.174ZM454.99 53.926L455.858 54.276C455.382 56.012 454.864 57.664 454.29 59.204L453.366 58.798C453.996 57.216 454.542 55.592 454.99 53.926ZM464.44 47.962H458.07V49.334H464.44V47.962ZM458.07 50.188V52.316C458.056 55.088 457.524 57.468 456.474 59.456L455.732 58.77C456.656 57.104 457.132 54.948 457.146 52.316V47.094H465.378V50.188H458.07ZM468.248 46.772C469.2 47.43 469.998 48.088 470.642 48.746L469.956 49.432C469.368 48.816 468.57 48.144 467.548 47.43L468.248 46.772ZM468.038 50.076C468.962 50.748 469.732 51.42 470.348 52.092L469.662 52.792C469.102 52.148 468.332 51.462 467.352 50.734L468.038 50.076ZM469.69 53.926L470.586 54.276C469.914 56.04 469.158 57.692 468.318 59.246L467.366 58.84C468.262 57.244 469.032 55.606 469.69 53.926ZM473.414 51.924H477.306V56.628H473.414V51.924ZM476.41 55.76V52.806H474.324V55.76H476.41ZM478.09 59.316H476.326L476.074 58.322L477.74 58.364C478.244 58.364 478.496 58.168 478.496 57.79V48.06H472.154V59.358H471.174V47.122H479.476V58C479.476 58.868 479.014 59.316 478.09 59.316ZM473.05 49.6H477.712V50.51H473.05V49.6ZM488.17 51.224V52.834H487.134V50.286H487.05C486.21 51.546 484.614 52.638 482.276 53.548L481.73 52.68C483.9 51.98 485.384 51.182 486.168 50.286H481.744V49.348H487.134V46.548H488.17V49.348H493.56V50.286H488.17V50.538C490.046 51.098 491.782 51.756 493.35 52.526L492.804 53.366C491.292 52.484 489.738 51.77 488.17 51.224ZM487.47 55.816C487.19 56.362 486.854 56.852 486.434 57.272C485.524 58.168 483.998 58.868 481.856 59.386L481.464 58.448C483.382 58.028 484.768 57.426 485.622 56.642C485.958 56.32 486.252 55.956 486.476 55.55H481.632V54.612H486.882C487.022 54.192 487.12 53.758 487.176 53.282H488.212C488.156 53.758 488.058 54.206 487.946 54.612H493.672V55.55H488.352C489.668 56.964 491.502 57.944 493.868 58.504L493.364 59.4C490.76 58.714 488.786 57.524 487.47 55.816ZM484.236 46.758C484.642 47.318 485.006 47.976 485.314 48.704L484.46 48.928C484.18 48.284 483.816 47.654 483.368 47.052L484.236 46.758ZM491.026 46.73L491.908 46.954C491.614 47.71 491.222 48.368 490.746 48.956L489.906 48.648C490.34 48.144 490.718 47.5 491.026 46.73ZM495.954 47.192H502.534V48.088H501.12V50.188H502.842V51.112H501.12V54.192H500.14V51.112H498.306C498.152 52.554 497.62 53.632 496.696 54.36L495.94 53.702C496.724 53.114 497.186 52.26 497.326 51.112H495.59V50.188H497.382V48.088H495.954V47.192ZM498.348 48.088V50.188H500.14V48.088H498.348ZM503.668 47.514H504.634V52.33H503.668V47.514ZM496.29 55.564H501.204V54.346H502.212V55.564H507.028V56.488H502.212V58.126H507.798V59.05H495.506V58.126H501.204V56.488H496.29V55.564ZM506.048 54.318H504.172L503.962 53.366C504.578 53.408 505.152 53.436 505.712 53.436C506.034 53.436 506.202 53.212 506.202 52.792V46.744H507.168V53.03C507.168 53.884 506.79 54.318 506.048 54.318ZM515.736 56.04C516.268 56.418 516.814 56.88 517.346 57.44C517.808 57.916 518.214 58.406 518.55 58.882L517.85 59.47C517.514 58.994 517.108 58.518 516.66 58.042C516.142 57.482 515.624 57.02 515.106 56.628L515.736 56.04ZM528.126 50.342H530.912V48.438C530.114 48.578 529.302 48.69 528.476 48.746L528.168 47.808C530.45 47.626 532.354 47.234 533.88 46.618L534.37 47.472C533.586 47.78 532.774 48.032 531.934 48.228V50.342H534.524V51.308H531.934V51.952C532.802 52.708 533.698 53.562 534.622 54.528L534.02 55.424C533.208 54.388 532.508 53.576 531.934 52.988V59.4H530.912V53.114C530.24 54.472 529.358 55.704 528.266 56.81L527.818 55.648C529.26 54.388 530.296 52.946 530.912 51.336V51.308H528.126V50.342ZM535.686 47.878H536.694V56.53H535.686V47.878ZM538.696 59.274H536.638L536.428 58.294C537.1 58.322 537.744 58.35 538.36 58.35C538.766 58.35 538.976 58.112 538.976 57.664V46.604H539.998V57.916C539.998 58.812 539.564 59.274 538.696 59.274ZM544.296 51.448V53.898H547.852V51.448H544.296ZM544.24 54.822C544.086 56.614 543.568 58.098 542.672 59.274L541.902 58.588C542.798 57.342 543.26 55.76 543.288 53.842V47.122H553.718V57.608C553.718 58.588 553.228 59.078 552.248 59.078H550.638L550.372 58.084C550.932 58.112 551.45 58.14 551.926 58.14C552.43 58.14 552.696 57.846 552.696 57.258V54.822H548.888V58.924H547.852V54.822H544.24ZM552.696 53.898V51.448H548.888V53.898H552.696ZM552.696 50.51V48.102H548.888V50.51H552.696ZM547.852 48.102H544.296V50.51H547.852V48.102ZM557.064 54.01H561.838V52.638H562.874V54.01H567.522V54.976H562.874V58.084C562.874 58.924 562.44 59.358 561.572 59.358H560.004L559.78 58.392C560.284 58.434 560.774 58.462 561.222 58.462C561.628 58.462 561.838 58.252 561.838 57.832V54.976H557.064V54.01ZM559.374 55.844L560.074 56.46C559.206 57.454 558.142 58.322 556.882 59.064L556.238 58.21C557.484 57.538 558.534 56.754 559.374 55.844ZM567.424 59.036C566.402 58.028 565.366 57.146 564.316 56.39L564.974 55.774C565.87 56.334 566.934 57.174 568.152 58.294L567.424 59.036ZM560.438 46.408L561.418 46.632C561.194 46.982 560.984 47.318 560.76 47.626H566.22V48.41C565.422 49.39 564.456 50.23 563.322 50.944C564.834 51.574 566.626 52.022 568.698 52.288L568.236 53.226C565.912 52.89 563.952 52.316 562.328 51.518C560.648 52.386 558.674 53.002 556.378 53.38L555.944 52.47C558.016 52.176 559.822 51.686 561.362 50.986C560.55 50.496 559.85 49.95 559.248 49.348C558.674 49.894 558.058 50.384 557.414 50.804L556.77 50.034C558.254 49.11 559.472 47.892 560.438 46.408ZM559.864 48.732C560.536 49.404 561.362 49.992 562.342 50.496C563.35 49.922 564.218 49.264 564.96 48.522H560.046L559.864 48.732ZM572.982 46.478L573.934 46.912C573.57 48.018 573.108 49.068 572.548 50.062V59.414H571.554V51.602C571.106 52.218 570.616 52.806 570.084 53.366L569.762 52.288C571.246 50.608 572.31 48.662 572.982 46.478ZM575.334 47.402L576.328 47.528C576.216 48.228 576.062 48.9 575.866 49.516H577.924V46.604H578.932V49.516H582.152V50.496H578.932V53.87H582.67V54.836H578.932V59.344H577.924V54.836H573.808V53.87H577.924V50.496H575.544C575.194 51.42 574.76 52.246 574.242 52.974L573.598 52.134C574.452 50.846 575.026 49.264 575.334 47.402ZM585.89 46.912C586.702 47.752 587.332 48.494 587.78 49.138L586.996 49.684C586.506 48.984 585.876 48.242 585.12 47.458L585.89 46.912ZM590.818 52.82C591.826 53.926 592.596 54.892 593.142 55.704L592.26 56.32C591.7 55.424 590.958 54.416 590.006 53.324L590.818 52.82ZM589.068 46.562H590.062V48.228C590.048 48.844 590.02 49.446 589.978 50.02H595.746C595.746 54.024 595.564 56.572 595.214 57.664C594.85 58.756 594.192 59.302 593.254 59.302C592.568 59.302 591.994 59.274 591.518 59.246L591.252 58.266C591.966 58.322 592.61 58.35 593.198 58.35C593.982 58.294 594.444 57.496 594.556 55.984C594.668 54.458 594.724 52.792 594.724 51H589.88C589.656 52.764 589.264 54.234 588.69 55.438C587.864 57.104 586.506 58.406 584.602 59.344L584.028 58.448C585.904 57.496 587.22 56.236 587.948 54.654C588.382 53.618 588.69 52.4 588.872 51H584.518V50.02H588.984C589.026 49.432 589.054 48.844 589.068 48.228V46.562ZM603.376 52.68V57.706C603.81 57.538 604.23 57.342 604.636 57.146L604.804 58.028C604.076 58.322 603.208 58.63 602.228 58.952L601.962 58.084C602.256 57.986 602.41 57.804 602.41 57.538V48.312C605.364 47.864 607.66 47.36 609.298 46.8L609.858 47.612C609.158 47.85 608.346 48.074 607.394 48.298C607.408 49.614 607.45 50.748 607.506 51.714H610.502V52.68H607.59C607.646 53.282 607.73 53.814 607.814 54.262C608.038 55.508 608.318 56.446 608.64 57.076C608.948 57.664 609.186 57.958 609.368 57.958C609.55 57.944 609.718 57.174 609.858 55.634L610.698 56.096C610.432 58.112 610.04 59.134 609.536 59.134C609.102 59.134 608.64 58.756 608.15 58.014C607.646 57.244 607.24 56.11 606.932 54.612C606.806 54.038 606.708 53.394 606.638 52.68H603.376ZM606.428 48.508C605.504 48.704 604.482 48.886 603.376 49.068V51.714H606.554C606.47 50.762 606.428 49.684 606.428 48.508ZM605.686 56.278C606.47 57.23 607.086 58.084 607.52 58.826L606.75 59.344C606.288 58.546 605.7 57.692 604.986 56.782L605.686 56.278ZM601.052 46.548L601.962 46.968C601.612 48.032 601.164 49.04 600.632 49.992V59.428H599.652V51.518C599.176 52.162 598.672 52.764 598.112 53.352L597.79 52.288C599.288 50.622 600.38 48.704 601.052 46.548Z" fill="#2A2C32"/>
</svg>
