<svg width="792" height="76" viewBox="0 0 792 76" fill="none" xmlns="http://www.w3.org/2000/svg">
<path d="M7.33391 8.6665C7.33391 8.48241 7.48315 8.33317 7.66724 8.33317H8.33391C8.518 8.33317 8.66724 8.48241 8.66724 8.6665V12.6665C8.66724 12.8506 8.518 12.9998 8.33391 12.9998H7.66724C7.48315 12.9998 7.33391 12.8506 7.33391 12.6665V8.6665Z" fill="#646A73"/>
<path d="M7.33391 13.9998C7.33391 13.8157 7.48315 13.6665 7.66724 13.6665H8.33391C8.518 13.6665 8.66724 13.8157 8.66724 13.9998V14.6665C8.66724 14.8506 8.518 14.9998 8.33391 14.9998H7.66724C7.48315 14.9998 7.33391 14.8506 7.33391 14.6665V13.9998Z" fill="#646A73"/>
<path d="M6.84585 4.33317C7.35905 3.44428 8.64205 3.44428 9.15525 4.33317L15.5062 15.6665C16.0194 16.5554 15.3779 17.6665 14.3515 17.6665H1.64977C0.623374 17.6665 -0.018125 16.5554 0.495075 15.6665L6.84585 4.33317ZM8.00055 4.99984L1.64977 16.3332L14.3515 16.3332L8.00055 4.99984Z" fill="#646A73"/>
<path d="M24.728 5.29H37.3V6.578H35.536V15.832C35.536 16.84 35.046 17.344 34.094 17.344H31.742L31.434 16.056C32.204 16.098 32.932 16.126 33.632 16.126C34.01 16.126 34.206 15.916 34.206 15.496V6.578H24.728V5.29ZM31.952 8.398V13.788H27.542V14.936H26.268V8.398H31.952ZM27.542 12.584H30.692V9.588H27.542V12.584ZM39.89 4.66C40.814 5.402 41.584 6.144 42.214 6.872L41.276 7.796C40.744 7.096 39.974 6.34 38.98 5.528L39.89 4.66ZM47.912 17.204C47.156 17.204 46.316 17.19 45.42 17.176C44.51 17.162 43.768 17.078 43.194 16.938C42.634 16.77 42.144 16.434 41.724 15.958C41.528 15.72 41.346 15.608 41.192 15.608C40.884 15.608 40.38 16.238 39.666 17.512L38.686 16.602C39.386 15.454 40.03 14.74 40.59 14.46V10.498H38.714V9.266H41.836V14.572C41.892 14.628 41.962 14.684 42.032 14.768C42.368 15.146 42.704 15.426 43.04 15.608C43.46 15.804 44.076 15.93 44.916 15.958C45.7 15.972 46.638 15.986 47.73 15.986C48.416 15.986 49.116 15.972 49.83 15.958C50.53 15.944 51.076 15.916 51.468 15.888L51.132 17.204H47.912ZM46.568 4.478H47.856V6.158H50.544V7.432H47.856V9.168H51.034V10.442H48.766V13.872C48.766 14.096 48.906 14.222 49.186 14.222H49.494C49.634 14.222 49.76 14.166 49.858 14.082C49.97 13.984 50.054 13.466 50.096 12.514L51.258 12.906C51.146 14.11 50.992 14.824 50.796 15.034C50.6 15.23 50.264 15.342 49.774 15.356H48.78C48.36 15.356 48.052 15.244 47.842 15.034C47.618 14.796 47.52 14.502 47.52 14.166V10.442H46.358C46.302 11.352 46.162 12.15 45.924 12.822C45.56 13.886 44.72 14.754 43.404 15.454L42.536 14.418C43.642 13.872 44.37 13.2 44.706 12.402C44.916 11.87 45.042 11.212 45.098 10.442H42.956V9.168H46.568V7.432H44.524C44.272 7.908 44.02 8.356 43.74 8.776L42.592 8.062C43.348 7.012 43.88 5.892 44.202 4.702L45.476 4.954C45.35 5.374 45.224 5.78 45.084 6.158H46.568V4.478ZM59.952 4.478L61.24 4.646C61.128 4.968 60.988 5.276 60.848 5.556H64.726V6.69C64.32 7.53 63.704 8.272 62.864 8.902C63.606 9.21 64.46 9.462 65.426 9.672L64.908 10.918C63.592 10.596 62.472 10.19 61.576 9.7C60.61 10.204 59.462 10.61 58.146 10.932L57.642 9.742C58.678 9.518 59.574 9.238 60.358 8.902C59.882 8.524 59.504 8.118 59.21 7.684C58.958 7.908 58.706 8.132 58.426 8.328L57.67 7.348C58.79 6.564 59.56 5.612 59.952 4.478ZM60.05 6.816C60.414 7.362 60.932 7.838 61.604 8.258C62.304 7.81 62.864 7.32 63.27 6.76H60.092C60.064 6.774 60.05 6.788 60.05 6.816ZM55.374 4.478L56.578 5.038C56.256 6.074 55.85 7.068 55.346 7.992V17.456H54.072V10.008C53.68 10.512 53.274 11.002 52.854 11.478L52.462 10.148C53.778 8.524 54.758 6.634 55.374 4.478ZM56.284 7.026H57.502V14.95H56.284V7.026ZM61.912 10.428L62.864 11.03C62.332 11.464 61.8 11.828 61.24 12.108C60.68 12.374 59.896 12.668 58.888 13.004L58.258 11.954C59 11.8 59.7 11.59 60.372 11.31C60.918 11.058 61.436 10.764 61.912 10.428ZM63.27 11.478L64.138 12.15C63.004 13.494 61.338 14.474 59.126 15.076L58.608 13.942C60.68 13.438 62.234 12.612 63.27 11.478ZM58.594 17.568L58.034 16.364C59.644 15.944 60.932 15.454 61.884 14.908C62.864 14.348 63.704 13.634 64.432 12.738L65.37 13.438C64.726 14.404 63.788 15.244 62.528 15.958C61.268 16.658 59.952 17.204 58.594 17.568ZM69.99 6.606C69.822 6.858 69.654 7.11 69.486 7.348H77.55V11.968H72.02C71.838 12.234 71.656 12.486 71.46 12.724H77.606V13.662C76.976 14.446 76.164 15.118 75.17 15.664C76.402 15.958 77.76 16.126 79.244 16.182L78.936 17.4C76.934 17.302 75.142 16.966 73.56 16.392C71.908 16.98 69.92 17.344 67.596 17.484L67.064 16.336C68.954 16.266 70.592 16.056 71.964 15.706C71.166 15.286 70.424 14.81 69.752 14.264C69.192 14.642 68.576 14.992 67.918 15.3L67.232 14.166C68.716 13.578 69.808 12.85 70.536 11.968H68.898V8.048C68.478 8.496 68.016 8.902 67.526 9.28L66.728 8.23C68.128 7.18 69.08 5.892 69.584 4.38L70.886 4.618C70.788 4.912 70.69 5.192 70.578 5.472H78.586V6.606H69.99ZM73.574 15.188C74.526 14.81 75.31 14.348 75.94 13.788H70.844C71.656 14.348 72.566 14.824 73.574 15.188ZM76.262 10.932V10.134H70.2V10.932H76.262ZM70.2 9.154H76.262V8.37H70.2V9.154Z" fill="#2A2B32"/>
<rect y="30" width="792" height="46" rx="6" fill="#F7F8FB"/>
<path d="M17.148 47.122H21.124V47.92C20.76 49.194 20.312 50.524 19.794 51.896C20.578 53.114 20.998 54.22 21.054 55.2C21.054 55.816 20.914 56.25 20.662 56.516C20.298 56.852 19.654 57.034 18.744 57.034L18.408 56.012C18.632 56.04 18.814 56.068 18.954 56.068C19.388 56.04 19.682 55.97 19.822 55.844C19.962 55.718 20.046 55.508 20.046 55.2C20.046 54.262 19.626 53.212 18.786 52.05C19.346 50.58 19.78 49.25 20.102 48.074H18.128V59.414H17.148V47.122ZM24.708 59.26H23.252L23.028 58.28C23.49 58.308 23.938 58.336 24.358 58.336C24.61 58.336 24.736 58.168 24.736 57.846V53.926H21.46V52.946H24.736V51.294H22.888V50.356H27.48V51.294H25.772V52.946H28.908V53.926H25.772V58.098C25.772 58.868 25.408 59.26 24.708 59.26ZM24.75 46.772H25.73C26.57 48.214 27.83 49.418 29.496 50.384L28.908 51.238C27.382 50.356 26.164 49.194 25.24 47.738C24.204 49.222 22.958 50.426 21.502 51.322L20.928 50.468C22.496 49.502 23.77 48.27 24.75 46.772ZM27.382 54.878C28.124 56.026 28.698 57.034 29.104 57.902L28.264 58.476C27.858 57.538 27.298 56.502 26.598 55.354L27.382 54.878ZM22.748 54.948L23.616 55.382C23.056 56.6 22.412 57.664 21.67 58.56L20.844 57.972C21.572 57.132 22.216 56.124 22.748 54.948ZM36.384 46.324V47.024C36.006 47.136 35.712 47.346 35.488 47.654C35.278 47.92 35.18 48.228 35.18 48.564C35.236 48.536 35.348 48.522 35.488 48.522C35.726 48.522 35.936 48.592 36.104 48.76C36.258 48.928 36.342 49.124 36.342 49.376C36.342 49.628 36.244 49.838 36.076 50.006C35.908 50.16 35.698 50.244 35.432 50.244C35.11 50.244 34.858 50.104 34.662 49.852C34.48 49.6 34.396 49.264 34.396 48.872C34.396 48.242 34.564 47.696 34.928 47.248C35.292 46.786 35.768 46.478 36.384 46.324ZM33.612 46.324V47.024C33.234 47.136 32.94 47.346 32.73 47.64C32.506 47.92 32.408 48.228 32.408 48.564C32.464 48.536 32.576 48.522 32.73 48.522C32.954 48.522 33.15 48.592 33.318 48.76C33.486 48.928 33.57 49.124 33.57 49.376C33.57 49.628 33.486 49.838 33.332 50.006C33.164 50.16 32.94 50.244 32.66 50.244C32.338 50.244 32.086 50.104 31.904 49.852C31.708 49.6 31.624 49.278 31.624 48.872C31.624 48.242 31.806 47.696 32.17 47.248C32.52 46.786 32.996 46.478 33.612 46.324ZM43.3855 51.812H46.3535V50.622H43.8895V47.122H49.8395V50.622H47.3615V51.812H50.3155V55.592H47.3615V57.72C48.0055 57.636 48.6355 57.538 49.2375 57.454C49.0695 57.034 48.8875 56.614 48.7055 56.194L49.6155 55.942C50.1335 57.09 50.5395 58.154 50.8195 59.106L49.9375 59.442C49.8255 59.064 49.6995 58.7 49.5735 58.336C47.5855 58.644 45.4575 58.896 43.2175 59.12L42.9795 58.154C44.1275 58.07 45.2615 57.958 46.3535 57.846V55.592H43.3855V51.812ZM49.3915 54.724V52.68H47.3615V54.724H49.3915ZM46.3535 54.724V52.68H44.2955V54.724H46.3535ZM39.7595 51.168L39.4795 53.436H42.4615C42.4615 55.76 42.3775 57.3 42.2375 58.028C42.0695 58.826 41.3695 59.246 40.1515 59.302C39.7875 59.302 39.4375 59.274 39.0735 59.246L38.8355 58.322C39.1995 58.35 39.5635 58.378 39.9275 58.378C40.7115 58.378 41.1735 58.112 41.2995 57.608C41.4115 57.076 41.4815 55.984 41.4815 54.318H38.4575L38.8915 50.258H41.3695V48.06H38.5835V47.122H42.3215V51.168H39.7595ZM48.9155 49.768V47.962H44.8275V49.768H48.9155ZM53.7035 51.784C53.3675 52.12 53.0315 52.442 52.6815 52.736L52.1635 51.882C53.4515 50.888 54.3755 49.614 54.9635 48.074H52.6675V47.15H59.3175V48.074H55.9295C55.7335 48.606 55.5235 49.096 55.2995 49.558H58.7295V50.37C58.0435 53.044 56.1395 54.92 53.0035 56.012L52.5135 55.144C53.8015 54.71 54.8795 54.136 55.7335 53.422C55.1735 52.89 54.4875 52.344 53.7035 51.784ZM54.7815 50.426C54.6135 50.678 54.4455 50.902 54.2775 51.126C55.0895 51.686 55.7895 52.246 56.3775 52.806C57.0075 52.106 57.4695 51.322 57.7775 50.426H54.7815ZM60.2835 47.584H61.2355V53.38H60.2835V47.584ZM62.7335 55.662H61.0255L60.8155 54.738C61.3615 54.766 61.8935 54.794 62.3975 54.794C62.8175 54.794 63.0275 54.598 63.0275 54.22V46.632H63.9935V54.472C63.9935 55.256 63.5735 55.662 62.7335 55.662ZM54.0395 56.138L54.8795 56.544C54.3895 57.636 53.8155 58.588 53.1435 59.386L52.3175 58.784C52.9755 58.042 53.5495 57.16 54.0395 56.138ZM57.0075 56.222C57.3155 57.076 57.6095 58 57.8615 59.008L56.8395 59.232C56.6295 58.168 56.3635 57.23 56.0555 56.418L57.0075 56.222ZM59.9335 56.012C60.3675 56.922 60.7455 57.902 61.0815 58.966L60.0735 59.176C59.7655 58.056 59.4015 57.062 58.9815 56.208L59.9335 56.012ZM62.9155 55.998C63.6995 57.062 64.3015 57.972 64.7215 58.756L63.8815 59.344C63.4475 58.49 62.8595 57.552 62.1035 56.516L62.9155 55.998ZM77.7555 52.302H74.7595V53.422H78.0355V54.248H74.7595V55.41H78.4415V56.264H74.7595V57.65H73.7795V56.264H70.6015V55.41H73.7795V54.248H71.0355V53.422H73.7795V52.302H71.3295V51.462H73.7795V50.342H70.6435V49.502H73.7795V48.396H71.3295V47.556H73.7795V46.534H74.7595V47.556H77.7555V49.502H78.6935V50.342H77.7555V52.302ZM74.7595 48.396V49.502H76.7755V48.396H74.7595ZM74.7595 50.342V51.462H76.7755V50.342H74.7595ZM74.1015 58.154C75.6415 58.154 77.2235 58.126 78.8475 58.084L78.6795 59.05H74.5355C72.0155 59.05 70.2095 58.686 69.1175 57.958C68.9355 57.818 68.7815 57.692 68.6415 57.552C68.1935 58.21 67.6335 58.784 66.9895 59.274L66.3315 58.42C66.9895 57.944 67.5355 57.384 67.9835 56.74C67.4375 55.956 66.9895 54.962 66.6535 53.758L67.4935 53.45C67.7735 54.444 68.1095 55.256 68.4735 55.872C68.9495 54.878 69.2295 53.716 69.3135 52.386H66.7235V51.602C67.5355 50.566 68.2915 49.446 68.9635 48.242H66.6675V47.29H70.0975V48.116C69.3975 49.404 68.6975 50.51 68.0255 51.462H70.2235V52.064C70.1675 53.912 69.7895 55.48 69.1175 56.768C69.3415 57.006 69.5655 57.188 69.8035 57.328C70.7555 57.86 72.1975 58.126 74.1015 58.154ZM87.4715 46.506C88.3675 47.682 89.0535 48.704 89.5295 49.6L88.7315 50.146C88.1995 49.166 87.5275 48.144 86.7155 47.052L87.4715 46.506ZM91.1955 47.206L92.1475 47.402C91.6855 50.706 90.7335 53.394 89.3055 55.466C90.3835 56.768 91.6575 57.79 93.1135 58.546L92.5255 59.428C91.0695 58.63 89.7955 57.58 88.7035 56.264C87.5835 57.636 86.2115 58.686 84.5875 59.428L84.0415 58.574C85.6375 57.846 86.9815 56.796 88.0595 55.438C86.6875 53.562 85.6235 51.266 84.8395 48.55L85.7075 48.074C86.4075 50.678 87.3875 52.862 88.6475 54.626C89.9355 52.666 90.7755 50.202 91.1955 47.206ZM81.8435 46.702C82.7675 47.43 83.5375 48.144 84.1815 48.858L83.4955 49.558C82.9215 48.858 82.1375 48.13 81.1435 47.36L81.8435 46.702ZM80.1495 50.846H83.1735V56.894C83.6215 56.502 84.0835 56.068 84.5875 55.564L84.8535 56.642C84.0555 57.426 83.2015 58.14 82.2775 58.784L81.8855 57.86C82.0955 57.692 82.2075 57.496 82.2075 57.272V51.812H80.1495V50.846ZM101.626 46.52L102.606 46.646C102.48 47.01 102.326 47.36 102.158 47.696H106.162V48.564C105.7 49.488 105 50.286 104.062 50.958C104.874 51.322 105.812 51.63 106.89 51.882L106.498 52.82C105.14 52.484 104.006 52.064 103.096 51.56C102.116 52.092 100.954 52.526 99.5955 52.862L99.2175 51.952C100.352 51.686 101.346 51.35 102.186 50.958C101.598 50.51 101.122 50.006 100.786 49.474C100.492 49.754 100.184 50.006 99.8475 50.258L99.2735 49.502C100.422 48.69 101.206 47.696 101.626 46.52ZM101.416 48.802C101.808 49.432 102.368 49.978 103.11 50.454C103.95 49.922 104.594 49.32 105.07 48.62H101.556C101.5 48.676 101.458 48.746 101.416 48.802ZM97.0475 46.548L97.9435 46.968C97.6075 48.018 97.2015 49.012 96.7115 49.936V59.414H95.7455V51.532C95.3115 52.162 94.8355 52.764 94.3175 53.324L94.0235 52.316C95.4095 50.636 96.4175 48.718 97.0475 46.548ZM97.9575 49.026H98.8675V56.95H97.9575V49.026ZM103.558 52.47L104.286 52.932C103.754 53.38 103.222 53.744 102.676 54.038C102.088 54.346 101.318 54.654 100.366 54.962L99.8755 54.164C100.66 53.968 101.374 53.73 102.018 53.436C102.578 53.156 103.082 52.834 103.558 52.47ZM104.888 53.506L105.56 54.024C104.44 55.424 102.802 56.418 100.632 57.034L100.226 56.18C102.298 55.634 103.852 54.738 104.888 53.506ZM100.072 59.498L99.6515 58.574C101.248 58.154 102.536 57.65 103.53 57.062C104.524 56.488 105.378 55.732 106.078 54.808L106.792 55.34C106.176 56.306 105.238 57.16 103.978 57.888C102.718 58.588 101.416 59.134 100.072 59.498ZM111.412 48.48C111.202 48.816 110.978 49.138 110.74 49.446H118.972V53.87H113.428C113.218 54.206 112.98 54.514 112.728 54.822H119V55.55C118.3 56.446 117.376 57.174 116.228 57.762C117.572 58.154 119.084 58.378 120.736 58.434L120.498 59.358C118.454 59.26 116.62 58.91 115.024 58.294C113.372 58.91 111.384 59.274 109.032 59.414L108.626 58.532C110.656 58.448 112.392 58.196 113.834 57.776C112.882 57.314 112.028 56.754 111.272 56.096C110.698 56.488 110.04 56.866 109.312 57.202L108.794 56.348C110.404 55.704 111.58 54.878 112.336 53.87H110.544V49.684C110.068 50.23 109.536 50.734 108.92 51.196L108.318 50.412C109.76 49.32 110.74 48.004 111.258 46.436L112.252 46.604C112.14 46.94 112.014 47.276 111.874 47.598H120.064V48.48H111.412ZM115.038 57.37C116.158 56.908 117.068 56.334 117.754 55.648H112C112.896 56.348 113.904 56.922 115.038 57.37ZM117.992 53.058V52.022H111.538V53.058H117.992ZM111.538 51.266H117.992V50.244H111.538V51.266ZM126.35 46.31C126.658 46.31 126.924 46.436 127.12 46.688C127.302 46.94 127.4 47.262 127.4 47.682C127.4 48.298 127.218 48.844 126.854 49.306C126.49 49.754 126 50.062 125.412 50.23V49.53C125.776 49.404 126.07 49.208 126.294 48.928C126.504 48.634 126.602 48.326 126.602 47.99C126.546 48.018 126.434 48.032 126.294 48.032C126.056 48.032 125.86 47.948 125.692 47.78C125.524 47.612 125.44 47.416 125.44 47.178C125.44 46.912 125.524 46.702 125.706 46.548C125.86 46.38 126.07 46.31 126.35 46.31ZM123.592 46.31C123.9 46.31 124.152 46.436 124.348 46.688C124.53 46.94 124.628 47.262 124.628 47.682C124.628 48.298 124.446 48.844 124.082 49.306C123.718 49.754 123.228 50.062 122.64 50.23V49.53C123.004 49.404 123.284 49.208 123.508 48.928C123.732 48.634 123.83 48.326 123.83 47.99C123.774 48.018 123.662 48.032 123.522 48.032C123.284 48.032 123.088 47.948 122.934 47.78C122.766 47.612 122.682 47.416 122.682 47.178C122.682 46.912 122.752 46.702 122.92 46.548C123.088 46.38 123.312 46.31 123.592 46.31ZM141.779 47.514V58.84H140.799V57.734H137.397V58.98H136.431V47.514H141.779ZM137.397 56.782H140.799V48.452H137.397V56.782ZM130.033 50.412H132.483V48.396C131.783 48.508 131.069 48.592 130.341 48.648L130.019 47.752C132.105 47.584 133.841 47.234 135.241 46.702L135.717 47.542C134.989 47.808 134.247 48.032 133.463 48.2V50.412H135.857V51.35H133.463V52.05C134.275 52.764 135.087 53.576 135.913 54.5L135.325 55.368C134.597 54.374 133.981 53.576 133.463 52.988V59.302H132.483V53.086C131.881 54.416 131.083 55.62 130.089 56.698L129.669 55.606C130.971 54.374 131.909 52.988 132.483 51.448V51.35H130.033V50.412ZM149.423 46.324V47.024C149.045 47.136 148.751 47.346 148.527 47.654C148.317 47.92 148.219 48.228 148.219 48.564C148.275 48.536 148.387 48.522 148.527 48.522C148.765 48.522 148.975 48.592 149.143 48.76C149.297 48.928 149.381 49.124 149.381 49.376C149.381 49.628 149.283 49.838 149.115 50.006C148.947 50.16 148.737 50.244 148.471 50.244C148.149 50.244 147.897 50.104 147.701 49.852C147.519 49.6 147.435 49.264 147.435 48.872C147.435 48.242 147.603 47.696 147.967 47.248C148.331 46.786 148.807 46.478 149.423 46.324ZM146.651 46.324V47.024C146.273 47.136 145.979 47.346 145.769 47.64C145.545 47.92 145.447 48.228 145.447 48.564C145.503 48.536 145.615 48.522 145.769 48.522C145.993 48.522 146.189 48.592 146.357 48.76C146.525 48.928 146.609 49.124 146.609 49.376C146.609 49.628 146.525 49.838 146.371 50.006C146.203 50.16 145.979 50.244 145.699 50.244C145.377 50.244 145.125 50.104 144.943 49.852C144.747 49.6 144.663 49.278 144.663 48.872C144.663 48.242 144.845 47.696 145.209 47.248C145.559 46.786 146.035 46.478 146.651 46.324ZM162.795 52.302H159.799V53.422H163.075V54.248H159.799V55.41H163.481V56.264H159.799V57.65H158.819V56.264H155.641V55.41H158.819V54.248H156.075V53.422H158.819V52.302H156.369V51.462H158.819V50.342H155.683V49.502H158.819V48.396H156.369V47.556H158.819V46.534H159.799V47.556H162.795V49.502H163.733V50.342H162.795V52.302ZM159.799 48.396V49.502H161.815V48.396H159.799ZM159.799 50.342V51.462H161.815V50.342H159.799ZM159.141 58.154C160.681 58.154 162.263 58.126 163.887 58.084L163.719 59.05H159.575C157.055 59.05 155.249 58.686 154.157 57.958C153.975 57.818 153.821 57.692 153.681 57.552C153.233 58.21 152.673 58.784 152.029 59.274L151.371 58.42C152.029 57.944 152.575 57.384 153.023 56.74C152.477 55.956 152.029 54.962 151.693 53.758L152.533 53.45C152.813 54.444 153.149 55.256 153.513 55.872C153.989 54.878 154.269 53.716 154.353 52.386H151.763V51.602C152.575 50.566 153.331 49.446 154.003 48.242H151.707V47.29H155.137V48.116C154.437 49.404 153.737 50.51 153.065 51.462H155.263V52.064C155.207 53.912 154.829 55.48 154.157 56.768C154.381 57.006 154.605 57.188 154.843 57.328C155.795 57.86 157.237 58.126 159.141 58.154ZM172.511 46.506C173.407 47.682 174.093 48.704 174.569 49.6L173.771 50.146C173.239 49.166 172.567 48.144 171.755 47.052L172.511 46.506ZM176.235 47.206L177.187 47.402C176.725 50.706 175.773 53.394 174.345 55.466C175.423 56.768 176.697 57.79 178.153 58.546L177.565 59.428C176.109 58.63 174.835 57.58 173.743 56.264C172.623 57.636 171.251 58.686 169.627 59.428L169.081 58.574C170.677 57.846 172.021 56.796 173.099 55.438C171.727 53.562 170.663 51.266 169.879 48.55L170.747 48.074C171.447 50.678 172.427 52.862 173.687 54.626C174.975 52.666 175.815 50.202 176.235 47.206ZM166.883 46.702C167.807 47.43 168.577 48.144 169.221 48.858L168.535 49.558C167.961 48.858 167.177 48.13 166.183 47.36L166.883 46.702ZM165.189 50.846H168.213V56.894C168.661 56.502 169.123 56.068 169.627 55.564L169.893 56.642C169.095 57.426 168.241 58.14 167.317 58.784L166.925 57.86C167.135 57.692 167.247 57.496 167.247 57.272V51.812H165.189V50.846ZM186.665 46.52L187.645 46.646C187.519 47.01 187.365 47.36 187.197 47.696H191.201V48.564C190.739 49.488 190.039 50.286 189.101 50.958C189.913 51.322 190.851 51.63 191.929 51.882L191.537 52.82C190.179 52.484 189.045 52.064 188.135 51.56C187.155 52.092 185.993 52.526 184.635 52.862L184.257 51.952C185.391 51.686 186.385 51.35 187.225 50.958C186.637 50.51 186.161 50.006 185.825 49.474C185.531 49.754 185.223 50.006 184.887 50.258L184.313 49.502C185.461 48.69 186.245 47.696 186.665 46.52ZM186.455 48.802C186.847 49.432 187.407 49.978 188.149 50.454C188.989 49.922 189.633 49.32 190.109 48.62H186.595C186.539 48.676 186.497 48.746 186.455 48.802ZM182.087 46.548L182.983 46.968C182.647 48.018 182.241 49.012 181.751 49.936V59.414H180.785V51.532C180.351 52.162 179.875 52.764 179.357 53.324L179.063 52.316C180.449 50.636 181.457 48.718 182.087 46.548ZM182.997 49.026H183.907V56.95H182.997V49.026ZM188.597 52.47L189.325 52.932C188.793 53.38 188.261 53.744 187.715 54.038C187.127 54.346 186.357 54.654 185.405 54.962L184.915 54.164C185.699 53.968 186.413 53.73 187.057 53.436C187.617 53.156 188.121 52.834 188.597 52.47ZM189.927 53.506L190.599 54.024C189.479 55.424 187.841 56.418 185.671 57.034L185.265 56.18C187.337 55.634 188.891 54.738 189.927 53.506ZM185.111 59.498L184.691 58.574C186.287 58.154 187.575 57.65 188.569 57.062C189.563 56.488 190.417 55.732 191.117 54.808L191.831 55.34C191.215 56.306 190.277 57.16 189.017 57.888C187.757 58.588 186.455 59.134 185.111 59.498ZM196.451 48.48C196.241 48.816 196.017 49.138 195.779 49.446H204.011V53.87H198.467C198.257 54.206 198.019 54.514 197.767 54.822H204.039V55.55C203.339 56.446 202.415 57.174 201.267 57.762C202.611 58.154 204.123 58.378 205.775 58.434L205.537 59.358C203.493 59.26 201.659 58.91 200.063 58.294C198.411 58.91 196.423 59.274 194.071 59.414L193.665 58.532C195.695 58.448 197.431 58.196 198.873 57.776C197.921 57.314 197.067 56.754 196.311 56.096C195.737 56.488 195.079 56.866 194.351 57.202L193.833 56.348C195.443 55.704 196.619 54.878 197.375 53.87H195.583V49.684C195.107 50.23 194.575 50.734 193.959 51.196L193.357 50.412C194.799 49.32 195.779 48.004 196.297 46.436L197.291 46.604C197.179 46.94 197.053 47.276 196.913 47.598H205.103V48.48H196.451ZM200.077 57.37C201.197 56.908 202.107 56.334 202.793 55.648H197.039C197.935 56.348 198.943 56.922 200.077 57.37ZM203.031 53.058V52.022H196.577V53.058H203.031ZM196.577 51.266H203.031V50.244H196.577V51.266ZM211.389 46.31C211.697 46.31 211.963 46.436 212.159 46.688C212.341 46.94 212.439 47.262 212.439 47.682C212.439 48.298 212.257 48.844 211.893 49.306C211.529 49.754 211.039 50.062 210.451 50.23V49.53C210.815 49.404 211.109 49.208 211.333 48.928C211.543 48.634 211.641 48.326 211.641 47.99C211.585 48.018 211.473 48.032 211.333 48.032C211.095 48.032 210.899 47.948 210.731 47.78C210.563 47.612 210.479 47.416 210.479 47.178C210.479 46.912 210.563 46.702 210.745 46.548C210.899 46.38 211.109 46.31 211.389 46.31ZM208.631 46.31C208.939 46.31 209.191 46.436 209.387 46.688C209.569 46.94 209.667 47.262 209.667 47.682C209.667 48.298 209.485 48.844 209.121 49.306C208.757 49.754 208.267 50.062 207.679 50.23V49.53C208.043 49.404 208.323 49.208 208.547 48.928C208.771 48.634 208.869 48.326 208.869 47.99C208.813 48.018 208.701 48.032 208.561 48.032C208.323 48.032 208.127 47.948 207.973 47.78C207.805 47.612 207.721 47.416 207.721 47.178C207.721 46.912 207.791 46.702 207.959 46.548C208.127 46.38 208.351 46.31 208.631 46.31ZM215.828 54.01H220.602V52.638H221.638V54.01H226.286V54.976H221.638V58.084C221.638 58.924 221.204 59.358 220.336 59.358H218.768L218.544 58.392C219.048 58.434 219.538 58.462 219.986 58.462C220.392 58.462 220.602 58.252 220.602 57.832V54.976H215.828V54.01ZM218.138 55.844L218.838 56.46C217.97 57.454 216.906 58.322 215.646 59.064L215.002 58.21C216.248 57.538 217.298 56.754 218.138 55.844ZM226.188 59.036C225.166 58.028 224.13 57.146 223.08 56.39L223.738 55.774C224.634 56.334 225.698 57.174 226.916 58.294L226.188 59.036ZM219.202 46.408L220.182 46.632C219.958 46.982 219.748 47.318 219.524 47.626H224.984V48.41C224.186 49.39 223.22 50.23 222.086 50.944C223.598 51.574 225.39 52.022 227.462 52.288L227 53.226C224.676 52.89 222.716 52.316 221.092 51.518C219.412 52.386 217.438 53.002 215.142 53.38L214.708 52.47C216.78 52.176 218.586 51.686 220.126 50.986C219.314 50.496 218.614 49.95 218.012 49.348C217.438 49.894 216.822 50.384 216.178 50.804L215.534 50.034C217.018 49.11 218.236 47.892 219.202 46.408ZM218.628 48.732C219.3 49.404 220.126 49.992 221.106 50.496C222.114 49.922 222.982 49.264 223.724 48.522H218.81L218.628 48.732ZM231.746 46.478L232.698 46.912C232.334 48.018 231.872 49.068 231.312 50.062V59.414H230.318V51.602C229.87 52.218 229.38 52.806 228.848 53.366L228.526 52.288C230.01 50.608 231.074 48.662 231.746 46.478ZM234.098 47.402L235.092 47.528C234.98 48.228 234.826 48.9 234.63 49.516H236.688V46.604H237.696V49.516H240.916V50.496H237.696V53.87H241.434V54.836H237.696V59.344H236.688V54.836H232.572V53.87H236.688V50.496H234.308C233.958 51.42 233.524 52.246 233.006 52.974L232.362 52.134C233.216 50.846 233.79 49.264 234.098 47.402ZM247.356 48.088C248.63 49.558 249.61 50.846 250.282 51.938L249.428 52.526C248.714 51.35 247.748 50.048 246.516 48.606L247.356 48.088ZM252.172 54.948C251.248 56.642 249.764 58.084 247.72 59.26L247.048 58.434C249.428 57.062 251.01 55.354 251.78 53.282C252.368 51.532 252.662 49.306 252.676 46.604H253.726C253.726 49.264 253.432 51.504 252.844 53.352C252.774 53.562 252.704 53.772 252.62 53.982C253.768 55.438 254.734 56.894 255.518 58.35L254.748 59.12C254.09 57.804 253.236 56.418 252.172 54.948ZM243.884 57.804L243.548 56.852C243.8 56.656 243.926 56.404 243.926 56.082V46.968H244.962V56.32C246.054 55.872 247.132 55.326 248.21 54.682L248.49 55.662C247.062 56.488 245.522 57.202 243.884 57.804ZM264.982 46.59H266.018V50.818C267.18 51.672 268.356 52.638 269.56 53.716L268.944 54.64C267.796 53.492 266.83 52.582 266.018 51.938V59.386H264.982V46.59ZM259.326 52.148C260.11 52.568 260.824 53.058 261.468 53.618C262.112 52.386 262.546 51.014 262.756 49.516H259.984C259.312 51.112 258.402 52.414 257.282 53.45L256.596 52.596C258.192 51.112 259.284 49.096 259.844 46.576L260.852 46.744C260.712 47.374 260.544 47.976 260.348 48.55H263.75V49.432C263.274 53.674 261.23 56.88 257.59 59.05L256.904 58.196C258.654 57.188 260.026 55.928 261.006 54.416C260.278 53.8 259.536 53.296 258.794 52.932L259.326 52.148ZM275.734 48.984V58.532H274.754V57.734H272.206V58.938H271.226V48.984H272.528C272.808 48.2 273.004 47.388 273.13 46.548L274.138 46.688C273.97 47.514 273.76 48.284 273.48 48.984H275.734ZM272.206 56.796H274.754V53.73H272.206V56.796ZM272.206 52.82H274.754V49.936H272.206V52.82ZM278.17 52.232C279.178 53.394 279.934 54.416 280.466 55.284L279.668 55.844C279.094 54.92 278.324 53.884 277.358 52.736L278.17 52.232ZM282.972 48.998C282.972 53.646 282.902 56.53 282.762 57.622C282.622 58.686 281.978 59.232 280.802 59.232C280.522 59.232 280.046 59.204 279.374 59.176L279.136 58.252C279.724 58.28 280.228 58.294 280.662 58.294C281.32 58.294 281.698 57.93 281.81 57.216C281.894 56.432 281.95 54.01 281.978 49.978H278.128C277.736 50.86 277.274 51.658 276.728 52.372L276.126 51.574C277.106 50.202 277.764 48.522 278.128 46.534L279.122 46.66C278.954 47.486 278.758 48.27 278.506 48.998H282.972ZM285.058 47.794H287.424V46.506H288.446V47.794H293.71V46.506H294.732V47.794H297.098V48.746H294.732V55.158H297.364V56.096H284.806V55.158H287.424V48.746H285.058V47.794ZM288.446 55.158H293.71V53.562H288.446V55.158ZM288.446 52.694H293.71V51.14H288.446V52.694ZM288.446 50.272H293.71V48.746H288.446V50.272ZM289.174 56.432L289.888 57.076C288.74 57.944 287.326 58.7 285.646 59.358L285.016 58.546C286.668 57.93 288.054 57.23 289.174 56.432ZM292.87 56.474C294.438 57.034 295.866 57.706 297.154 58.504L296.594 59.358C295.222 58.462 293.808 57.748 292.366 57.23L292.87 56.474ZM301.648 46.478L302.558 46.898C302.222 47.948 301.816 48.942 301.326 49.88V59.428H300.332V51.504C299.884 52.148 299.38 52.778 298.848 53.366L298.526 52.316C299.954 50.608 301.004 48.662 301.648 46.478ZM309.516 59.134H304.7C303.72 59.134 303.244 58.63 303.244 57.65V51.994L301.914 52.414V51.392L303.244 50.958V47.85H304.252V50.636L306.338 49.964V46.548H307.346V49.642L310.412 48.662C310.412 51.616 310.342 53.408 310.216 54.038C310.076 54.654 309.53 54.976 308.55 54.976H308.326L308.032 53.996C308.298 54.01 308.536 54.024 308.76 54.024C309.054 54.024 309.236 53.856 309.306 53.52C309.362 53.212 309.39 52.05 309.404 50.048L307.346 50.692V56.306H306.338V51.014L304.252 51.672V57.51C304.252 57.944 304.476 58.168 304.952 58.168H309.348C309.712 58.168 309.964 58.056 310.132 57.86C310.272 57.65 310.37 56.922 310.426 55.676L311.378 55.998C311.294 57.468 311.126 58.364 310.888 58.672C310.636 58.98 310.174 59.134 309.516 59.134ZM313.828 54.01H318.602V52.638H319.638V54.01H324.286V54.976H319.638V58.084C319.638 58.924 319.204 59.358 318.336 59.358H316.768L316.544 58.392C317.048 58.434 317.538 58.462 317.986 58.462C318.392 58.462 318.602 58.252 318.602 57.832V54.976H313.828V54.01ZM316.138 55.844L316.838 56.46C315.97 57.454 314.906 58.322 313.646 59.064L313.002 58.21C314.248 57.538 315.298 56.754 316.138 55.844ZM324.188 59.036C323.166 58.028 322.13 57.146 321.08 56.39L321.738 55.774C322.634 56.334 323.698 57.174 324.916 58.294L324.188 59.036ZM317.202 46.408L318.182 46.632C317.958 46.982 317.748 47.318 317.524 47.626H322.984V48.41C322.186 49.39 321.22 50.23 320.086 50.944C321.598 51.574 323.39 52.022 325.462 52.288L325 53.226C322.676 52.89 320.716 52.316 319.092 51.518C317.412 52.386 315.438 53.002 313.142 53.38L312.708 52.47C314.78 52.176 316.586 51.686 318.126 50.986C317.314 50.496 316.614 49.95 316.012 49.348C315.438 49.894 314.822 50.384 314.178 50.804L313.534 50.034C315.018 49.11 316.236 47.892 317.202 46.408ZM316.628 48.732C317.3 49.404 318.126 49.992 319.106 50.496C320.114 49.922 320.982 49.264 321.724 48.522H316.81L316.628 48.732ZM329.746 46.478L330.698 46.912C330.334 48.018 329.872 49.068 329.312 50.062V59.414H328.318V51.602C327.87 52.218 327.38 52.806 326.848 53.366L326.526 52.288C328.01 50.608 329.074 48.662 329.746 46.478ZM332.098 47.402L333.092 47.528C332.98 48.228 332.826 48.9 332.63 49.516H334.688V46.604H335.696V49.516H338.916V50.496H335.696V53.87H339.434V54.836H335.696V59.344H334.688V54.836H330.572V53.87H334.688V50.496H332.308C331.958 51.42 331.524 52.246 331.006 52.974L330.362 52.134C331.216 50.846 331.79 49.264 332.098 47.402Z" fill="#2A2C32"/>
</svg>
