<svg width="20" height="20" viewBox="0 0 20 20" fill="none" xmlns="http://www.w3.org/2000/svg">
<path d="M3.03359 7.56102C3.03359 6.49302 3.04659 5.42402 3.02759 4.35602C3.01959 3.89002 3.20759 3.64502 3.65759 3.53402C5.68159 3.03602 7.70159 2.51902 9.72559 2.02302C9.90959 1.97802 10.1266 2.00202 10.3156 2.04802C12.2656 2.52402 14.2136 3.00902 16.1616 3.49402C16.8416 3.66402 16.9286 3.77902 16.9286 4.48502C16.9296 6.40502 16.9326 8.32402 16.9276 10.244C16.9216 12.391 16.0686 14.122 14.4096 15.489C13.1736 16.508 11.9036 17.461 10.3776 17.999C10.1416 18.082 9.82259 18.091 9.59359 18.002C7.53359 17.207 5.79259 15.941 4.36859 14.266C3.50059 13.245 3.10159 12.003 3.04859 10.672C3.00759 9.63602 3.04059 8.59802 3.04059 7.56102H3.03359ZM9.99459 4.38802C9.95659 4.38102 9.91959 4.37302 9.88159 4.36602C8.91259 6.14302 7.93359 7.91502 6.98059 9.70002C6.69859 10.229 6.98159 10.646 7.59359 10.66C8.08859 10.671 8.58359 10.663 9.07859 10.663H9.99459V14.592C11.0146 12.878 11.9556 11.156 12.8926 9.43302C13.2926 8.69602 13.0426 8.28402 12.1986 8.28202C11.4776 8.28002 10.7566 8.28202 9.99459 8.28202V4.38802Z" fill="#858585"/>
</svg>
