<svg width="32" height="32" viewBox="0 0 32 32" fill="none" xmlns="http://www.w3.org/2000/svg">
<path d="M18.6667 2.66666H13.3333V6.66666H14.6667V9.33332H7.33333C5.86057 9.33332 4.66667 10.5272 4.66667 12V26.6667C4.66667 28.1394 5.86057 29.3333 7.33333 29.3333H24.6667C26.1394 29.3333 27.3333 28.1394 27.3333 26.6667V12C27.3333 10.5272 26.1394 9.33332 24.6667 9.33332H17.3333V6.66666H18.6667V2.66666ZM9.33333 17.3333H13.3333V21.3333H9.33333V17.3333ZM22.6667 17.3333V21.3333H18.6667V17.3333H22.6667Z" fill="url(#paint0_linear_3402_49663)"/>
<path d="M2.66667 16H0V22.6667H2.66667V16Z" fill="url(#paint1_linear_3402_49663)"/>
<path d="M29.3333 16H32V22.6667H29.3333V16Z" fill="url(#paint2_linear_3402_49663)"/>
<defs>
<linearGradient id="paint0_linear_3402_49663" x1="0" y1="2.66666" x2="36.2094" y2="21.0358" gradientUnits="userSpaceOnUse">
<stop stop-color="#6C87FF"/>
<stop offset="1" stop-color="#996DF7"/>
</linearGradient>
<linearGradient id="paint1_linear_3402_49663" x1="0" y1="2.66666" x2="36.2094" y2="21.0358" gradientUnits="userSpaceOnUse">
<stop stop-color="#6C87FF"/>
<stop offset="1" stop-color="#996DF7"/>
</linearGradient>
<linearGradient id="paint2_linear_3402_49663" x1="0" y1="2.66666" x2="36.2094" y2="21.0358" gradientUnits="userSpaceOnUse">
<stop stop-color="#6C87FF"/>
<stop offset="1" stop-color="#996DF7"/>
</linearGradient>
</defs>
</svg>
