<svg width="14" height="14" viewBox="0 0 14 14" fill="none" xmlns="http://www.w3.org/2000/svg">
<path d="M13.2887 1.24084L9.28866 11.5742C9.2491 11.6765 9.18488 11.7675 9.10171 11.8391C9.01854 11.9107 8.91899 11.9606 8.81189 11.9845C8.70479 12.0083 8.59346 12.0054 8.48776 11.9759C8.38207 11.9465 8.28528 11.8914 8.206 11.8155L5.95133 9.65884L4.56866 11.0408C4.52201 11.0873 4.46262 11.119 4.39799 11.1318C4.33337 11.1445 4.26641 11.1379 4.20556 11.1126C4.14472 11.0874 4.09272 11.0447 4.05613 10.9899C4.01954 10.9351 4.00001 10.8707 4 10.8048V7.79217L0.53933 4.48217C0.453465 4.40002 0.391119 4.29642 0.358744 4.18208C0.32637 4.06775 0.325145 3.94683 0.355196 3.83186C0.385247 3.7169 0.445482 3.61205 0.529664 3.52818C0.613847 3.44431 0.718917 3.38446 0.833996 3.35484L12.5007 0.354838C12.6193 0.324453 12.744 0.327321 12.861 0.363125C12.9781 0.398929 13.0831 0.466287 13.1644 0.557812C13.2458 0.649336 13.3003 0.761491 13.3221 0.881975C13.3439 1.00246 13.3321 1.12662 13.288 1.24084H13.2887ZM11.6667 2.00084L4.35466 6.76817L5.51133 7.87484L11.6667 2.00084Z" fill="white"/>
</svg>
