<svg width="16" height="16" viewBox="0 0 16 16" fill="none" xmlns="http://www.w3.org/2000/svg">
<g clip-path="url(#clip0_18395_9700)">
<path d="M15 14.0002C15 14.2653 14.8947 14.5197 14.7072 14.7072C14.5197 14.8947 14.2653 15 14.0002 15H1.99983C1.86853 15 1.73852 14.9741 1.61721 14.9239C1.49591 14.8736 1.38569 14.8 1.29284 14.7072C1.10534 14.5197 1 14.2653 1 14.0002V1.99983C1 1.448 1.448 1 1.99983 1H14.0002C14.552 1 15 1.448 15 1.99983V14.0002ZM13.999 12.102H1.99983V14.0002H14.0002L13.999 12.102ZM13.999 1.99983H2.001V10.9353H14.0002V1.99983H13.999ZM6.803 5.03667L9.63683 7.8705L12.0833 5.42167L12.9082 6.2465L9.63567 9.519L6.80067 6.68517L4.41133 9.0745L3.5865 8.24967L6.80067 5.0355L6.803 5.03667Z" fill="#858585" stroke="#858585" stroke-width="0.3"/>
</g>
<defs>
<clipPath id="clip0_18395_9700">
<rect width="16" height="16" fill="white"/>
</clipPath>
</defs>
</svg>
