<svg width="16" height="16" viewBox="0 0 16 16" fill="none" xmlns="http://www.w3.org/2000/svg">
<g clip-path="url(#clip0_16379_135822)">
<path d="M8.00033 14.0003C11.314 14.0003 14.0003 11.314 14.0003 8.00033C14.0003 4.68666 11.314 2.00033 8.00033 2.00033C4.68666 2.00033 2.00033 4.68666 2.00033 8.00033C2.00033 11.314 4.68666 14.0003 8.00033 14.0003ZM8.00033 15.3337C3.95033 15.3337 0.666992 12.0503 0.666992 8.00033C0.666992 3.95033 3.95033 0.666992 8.00033 0.666992C12.0503 0.666992 15.3337 3.95033 15.3337 8.00033C15.3337 12.0503 12.0503 15.3337 8.00033 15.3337ZM7.33366 10.3337V7.66699H7.00033C6.95655 7.66699 6.91321 7.65837 6.87277 7.64162C6.83232 7.62487 6.79558 7.60031 6.76463 7.56936C6.73367 7.53841 6.70912 7.50166 6.69237 7.46122C6.67562 7.42078 6.66699 7.37743 6.66699 7.33366V6.66699C6.66699 6.62322 6.67562 6.57987 6.69237 6.53943C6.70912 6.49899 6.73367 6.46224 6.76463 6.43129C6.79558 6.40034 6.83232 6.37578 6.87277 6.35903C6.91321 6.34228 6.95655 6.33366 7.00033 6.33366H8.33366C8.37747 6.33353 8.42088 6.34206 8.46138 6.35876C8.50188 6.37547 8.53868 6.40002 8.56966 6.43099C8.60064 6.46197 8.62519 6.49877 8.64189 6.53927C8.6586 6.57978 8.66713 6.62318 8.667 6.66699V10.3337H9.33366C9.37744 10.3337 9.42078 10.3423 9.46122 10.359C9.50167 10.3758 9.53841 10.4003 9.56936 10.4313C9.60032 10.4622 9.62487 10.499 9.64162 10.5394C9.65837 10.5799 9.667 10.6232 9.667 10.667V11.3337C9.667 11.3774 9.65837 11.4208 9.64162 11.4612C9.62487 11.5017 9.60032 11.5384 9.56936 11.5694C9.53841 11.6003 9.50167 11.6249 9.46122 11.6416C9.42078 11.6584 9.37744 11.667 9.33366 11.667H6.66699C6.62322 11.667 6.57987 11.6584 6.53943 11.6416C6.49899 11.6249 6.46224 11.6003 6.43129 11.5694C6.40034 11.5384 6.37579 11.5017 6.35903 11.4612C6.34228 11.4208 6.33366 11.3774 6.33366 11.3337V10.667C6.33366 10.6232 6.34228 10.5799 6.35903 10.5394C6.37579 10.499 6.40034 10.4622 6.43129 10.4313C6.46224 10.4003 6.49899 10.3758 6.53943 10.359C6.57987 10.3423 6.62322 10.3337 6.66699 10.3337H7.33366ZM7.66699 5.66699C7.62322 5.66699 7.57988 5.65837 7.53943 5.64162C7.49899 5.62487 7.46225 5.60031 7.43129 5.56936C7.40034 5.53841 7.37579 5.50166 7.35904 5.46122C7.34228 5.42078 7.33366 5.37743 7.33366 5.33366V4.66699C7.33366 4.62322 7.34228 4.57987 7.35904 4.53943C7.37579 4.49899 7.40034 4.46224 7.43129 4.43129C7.46225 4.40034 7.49899 4.37578 7.53943 4.35903C7.57988 4.34228 7.62322 4.33366 7.66699 4.33366H8.33366C8.37744 4.33366 8.42078 4.34228 8.46122 4.35903C8.50167 4.37578 8.53841 4.40034 8.56936 4.43129C8.60032 4.46224 8.62487 4.49899 8.64162 4.53943C8.65837 4.57987 8.667 4.62322 8.667 4.66699V5.33366C8.667 5.37743 8.65837 5.42078 8.64162 5.46122C8.62487 5.50166 8.60032 5.53841 8.56936 5.56936C8.53841 5.60031 8.50167 5.62487 8.46122 5.64162C8.42078 5.65837 8.37744 5.66699 8.33366 5.66699H7.66699Z" fill="#858585"/>
</g>
<defs>
<clipPath id="clip0_16379_135822">
<rect width="16" height="16" fill="white"/>
</clipPath>
</defs>
</svg>
