<svg width="16" height="16" viewBox="0 0 16 16" fill="none" xmlns="http://www.w3.org/2000/svg">
<g clip-path="url(#clip0_18177_9066)">
<path d="M16 9.14889C16 9.32629 15.9338 9.47835 15.8096 9.60507C15.6855 9.73178 15.5365 9.79937 15.3626 9.79937H13.1195C13.1195 10.9652 12.896 11.9451 12.449 12.7561L14.5266 14.8849C14.6508 15.0116 14.717 15.1637 14.717 15.3411C14.717 15.5185 14.6508 15.6705 14.5266 15.7973C14.4108 15.924 14.2535 15.9916 14.0797 15.9916C13.8976 15.9916 13.7486 15.924 13.6327 15.7973L11.6461 13.8036C11.613 13.8374 11.5634 13.8796 11.4972 13.9388C11.4309 13.9894 11.2902 14.0908 11.075 14.226C10.8598 14.3696 10.6446 14.4879 10.4211 14.5977C10.1976 14.7075 9.92447 14.8089 9.60166 14.8933C9.27884 14.9778 8.94775 15.0285 8.63321 15.0285V5.87962H7.35851V15.0201C7.01914 15.0201 6.67977 14.9778 6.3404 14.8849C6.00103 14.792 5.71133 14.6822 5.47129 14.547C5.23125 14.4118 5.00776 14.2851 4.8091 14.1499C4.61045 14.0148 4.46974 13.905 4.37041 13.8205L4.22142 13.6769L2.39214 15.7888C2.2597 15.9324 2.10243 16 1.91205 16C1.75479 16 1.60579 15.9493 1.48163 15.8395C1.35748 15.7212 1.28298 15.5692 1.2747 15.3833C1.26643 15.2059 1.31609 15.0454 1.43197 14.9102L3.45163 12.5956C3.0626 11.8184 2.87222 10.8891 2.87222 9.79937H0.637351C0.463528 9.79937 0.314537 9.73178 0.190378 9.60507C0.0662183 9.47835 0 9.32629 0 9.14889C0 8.97149 0.0662183 8.81943 0.190378 8.69271C0.314537 8.566 0.463528 8.49842 0.637351 8.49842H2.8805V5.49947L1.15054 3.7339C1.02638 3.60718 0.960165 3.45512 0.960165 3.27772C0.960165 3.10032 1.02638 2.94826 1.15054 2.82154C1.2747 2.69483 1.42369 2.62724 1.59752 2.62724C1.77134 2.62724 1.92033 2.69483 2.04449 2.82154L3.77444 4.58712H12.209L13.9472 2.81309C14.0714 2.68638 14.2204 2.6188 14.3942 2.6188C14.568 2.6188 14.717 2.68638 14.8412 2.81309C14.9653 2.93981 15.0316 3.09187 15.0316 3.26927C15.0316 3.44667 14.9653 3.59873 14.8412 3.72545L13.1195 5.49947V8.49842H15.3544C15.5282 8.49842 15.6772 8.566 15.8013 8.69271C15.9338 8.81943 16 8.97149 16 9.14889ZM11.1992 3.26927H4.80083C4.80083 2.36536 5.11536 1.59662 5.73616 0.954593C6.35696 0.321014 7.11019 0 8.00414 0C8.88981 0 9.64304 0.321014 10.2721 0.954593C10.8846 1.59662 11.1992 2.36536 11.1992 3.26927Z" fill="#2A2B32"/>
</g>
<defs>
<clipPath id="clip0_18177_9066">
<rect width="16" height="16" fill="white"/>
</clipPath>
</defs>
</svg>
