<svg width="32" height="32" viewBox="0 0 32 32" fill="none" xmlns="http://www.w3.org/2000/svg">
<path d="M14.2609 29.5188L14.2539 29.0618L27.1799 23.5508L29.2179 23.8388L29.2059 24.2238L16.2639 30.5578L14.2609 29.5188Z" fill="#977753"/>
<path d="M14.2676 29.0674L27.1796 23.1904L29.2296 23.8534L16.2636 30.1174L14.2676 29.0674Z" fill="#7A552C"/>
<path d="M14.2578 27.6299L16.2678 28.7159V30.1319L14.2578 29.0459V27.6299Z" fill="#886947"/>
<path d="M29.1392 22.4648L27.6182 23.2308V24.6468L29.1392 23.8808V22.4648Z" fill="#9A7246"/>
<path d="M20.1777 24.751L22.1877 25.837V27.253L20.1777 26.167V24.751Z" fill="#694A27"/>
<path d="M23.7075 25.0723L22.1865 25.8383V27.2543L23.7075 26.4883V25.0723Z" fill="#9A7246"/>
<path d="M8.72184 26.749L8.71484 26.349L21.6398 20.835L23.6778 21.123L23.6658 21.508L10.7238 27.788L8.72184 26.749Z" fill="#715A40"/>
<path d="M8.71877 24.9141L10.7278 26.0001V27.4161L8.71777 26.3301L8.71877 24.9141Z" fill="#886947"/>
<path d="M12.2485 25.2344L10.7275 26.0004V27.4164L12.2485 26.6504V25.2344Z" fill="#6D471E"/>
<path d="M3.45427 24.0875L3.44727 23.7385L16.3733 18.2275L18.4113 18.5155L18.4003 18.8995L5.45627 25.1265L3.45427 24.0875Z" fill="#7A5F41"/>
<path d="M3.45117 22.3076L5.46117 23.3936V24.8096L3.45117 23.7236V22.3076Z" fill="#886947"/>
<path d="M6.98096 22.6279L5.45996 23.3939V24.8099L6.98096 24.0439V22.6279Z" fill="#6D471E"/>
<path d="M3.34489 22.6224L3.33789 22.3404C3.33789 22.3404 5.87689 22.2504 5.02689 22.4554C6.07989 21.7924 16.1819 17.9004 16.1819 17.9004L29.1429 22.3404L29.2049 22.6194L16.2629 28.7094L3.34489 22.6224Z" fill="#977753"/>
<path d="M3.2998 22.3598L16.2658 17.8408L29.2288 22.3598L16.2638 28.3788L3.2998 22.3598Z" fill="#C69C6D"/>
<path d="M16.3719 6.64018L10.1719 4.15918V12.2822L16.3719 14.8042V6.64018Z" fill="#E5AC3D" stroke="#73561F" stroke-width="1.35773" stroke-miterlimit="10"/>
<path d="M16.3312 6.67401L22.4462 4.23901L16.3002 1.70801L10.1592 4.17501L16.3312 6.67401Z" fill="#E3B04E" stroke="#73561F" stroke-width="1.35177" stroke-miterlimit="10"/>
<g clip-path="url(#clip0_16611_68145)">
<path d="M10.9184 6.46202V5.79716L11.1377 5.92679L10.8486 5.09493L10.5596 5.58515L10.7789 5.71476V6.37961L10.9184 6.46202Z" fill="#231F20"/>
</g>
<path d="M22.5088 17.1089L28.7088 14.6279V21.9389L22.5088 24.8169V17.1089Z" fill="#E5AC3D" stroke="#73561F" stroke-width="1.35773" stroke-miterlimit="10"/>
<path d="M22.5 9.13375L28.7 6.71875V14.6248L22.5 17.1338V9.13375Z" fill="#E5AC3D" stroke="#73561F" stroke-width="1.35773" stroke-miterlimit="10"/>
<path d="M22.4334 9.1192L16.4004 6.5572L22.4624 4.2832L28.6624 6.6832L22.4334 9.1192Z" fill="#E3B04E" stroke="#73561F" stroke-width="1.35773" stroke-miterlimit="10"/>
<path d="M10.0721 17.0922L3.87207 14.7002V22.0752L10.0721 24.9222V17.0922Z" fill="#E5AC3D" stroke="#73561F" stroke-width="1.35773" stroke-miterlimit="10"/>
<path d="M10.0564 17.1437L16.2564 14.7267L10.0564 12.2617L3.85645 14.6617L10.0564 17.1437Z" fill="#E3B04E" stroke="#73561F" stroke-width="1.35773" stroke-miterlimit="10"/>
<path d="M6.95215 15.883L13.1481 13.416" stroke="#73561F" stroke-width="1.35773" stroke-miterlimit="10"/>
<path d="M16.2996 19.6583L10.0996 17.1943V24.9093L16.2996 27.8663V19.6583Z" fill="#E5AC3D" stroke="#73561F" stroke-width="1.35773" stroke-miterlimit="10"/>
<path d="M16.25 19.729L22.505 17.248V24.909L16.25 27.866V19.729Z" fill="#E5AC3D" stroke="#73561F" stroke-width="1.35773" stroke-miterlimit="10"/>
<path d="M16.2637 11.5466L22.4637 9.10059V17.2606L16.2637 19.7456V11.5466Z" fill="#E5AC3D" stroke="#73561F" stroke-width="1.35773" stroke-miterlimit="10"/>
<path d="M16.2645 11.5279L10.0645 9.04688V17.1699L16.2645 19.6919V11.5279Z" fill="#E5AC3D" stroke="#73561F" stroke-width="1.35773" stroke-miterlimit="10"/>
<path d="M16.2769 11.508L22.4459 9.07299L16.2459 6.54199L10.0459 9.00899L16.2769 11.508Z" fill="#E3B04E" stroke="#73561F" stroke-width="1.35773" stroke-miterlimit="10"/>
<path d="M12.8203 10.1486L19.0163 7.68164" stroke="#73561F" stroke-width="1.35773" stroke-miterlimit="10"/>
<path d="M13.0371 5.37032L19.2331 2.90332" stroke="#73561F" stroke-width="1.35773" stroke-miterlimit="10"/>
<path d="M19.8105 5.28613L26.1265 7.73313" stroke="#73561F" stroke-width="1.35773" stroke-miterlimit="10"/>
<path opacity="0.3" d="M18.3005 7.39453L12.0605 9.87853L13.5425 10.4715L19.7385 8.00553L18.3005 7.39453Z" fill="white" stroke="#73561F" stroke-width="1.1853" stroke-miterlimit="10"/>
<path opacity="0.3" d="M18.573 2.61621L12.333 5.10021L13.815 5.69321L20.01 3.22721L18.573 2.61621Z" fill="white" stroke="#73561F" stroke-width="1.1853" stroke-miterlimit="10"/>
<path opacity="0.3" d="M6.26562 15.6282L7.74663 16.2202L10.0886 15.2882L10.0626 14.1162L6.26562 15.6282Z" fill="white" stroke="#73561F" stroke-width="1.1853" stroke-miterlimit="10"/>
<path opacity="0.3" d="M20.4953 5.0293L19.1562 5.5543L25.3832 7.9673L26.7253 7.4433L20.4953 5.0293Z" fill="white" stroke="#73561F" stroke-width="1.04655" stroke-miterlimit="10"/>
<path opacity="0.3" d="M7.71863 16.1949L6.26562 15.6299V17.2749L6.46663 17.1389L6.64663 17.4239L6.75063 17.4649L6.88863 17.3429L7.02563 17.5709L7.15463 17.6219L7.34363 17.4559L7.58162 17.7879L7.71863 17.8409V16.1949Z" fill="white" stroke="#73561F" stroke-width="1.66537" stroke-miterlimit="10"/>
<path opacity="0.3" d="M13.8017 5.65875L12.3477 5.09375V6.73875L12.5497 6.60275L12.7287 6.88775L12.8327 6.92875L12.9707 6.80675L13.1077 7.03475L13.2377 7.08575L13.4257 6.91975L13.6647 7.25175L13.8017 7.30475V5.65875Z" fill="white" stroke="#73561F" stroke-width="1.66537" stroke-miterlimit="10"/>
<path opacity="0.3" d="M13.5624 10.4703L12.1094 9.90527V11.5503L12.3104 11.4143L12.4904 11.6993L12.5944 11.7393L12.7324 11.6183L12.8694 11.8463L12.9984 11.8963L13.1874 11.7303L13.4254 12.0623L13.5624 12.1153V10.4703Z" fill="white" stroke="#73561F" stroke-width="1.66537" stroke-miterlimit="10"/>
<path opacity="0.3" d="M12.1392 18.0464L13.6002 18.5914L13.5772 16.9464L13.3772 17.0854L13.1932 16.8034L13.0892 16.7644L12.9532 16.8874L12.8132 16.6614L12.6822 16.6124L12.4962 16.7814L12.2532 16.4524L12.1162 16.4014L12.1392 18.0464Z" fill="white" stroke="#73561F" stroke-width="1.66537" stroke-miterlimit="10"/>
<path opacity="0.3" d="M6.32671 23.2056L7.71871 23.8446L7.76571 22.1046L7.56571 22.2436L7.38171 21.9616L7.27771 21.9226L7.14071 22.0456L7.00071 21.8196L6.87071 21.7716L6.68471 21.9396L6.44171 21.6116L6.30371 21.5596L6.32671 23.2056Z" fill="white" stroke="#73561F" stroke-width="1.66537" stroke-miterlimit="10"/>
<path opacity="0.3" d="M26.7801 15.4067L25.3271 15.9717V14.3267L25.5281 14.4627L25.7081 14.1777L25.8121 14.1377L25.9501 14.2587L26.0871 14.0307L26.2161 13.9797L26.4051 14.1457L26.6431 13.8137L26.7801 13.7607V15.4067Z" fill="white" stroke="#73561F" stroke-width="1.66537" stroke-miterlimit="10"/>
<path opacity="0.3" d="M25.356 7.99324L26.817 7.44824L26.794 9.09324L26.595 8.95524L26.411 9.23724L26.307 9.27624L26.17 9.15224L26.03 9.37924L25.9 9.42724L25.714 9.25924L25.471 9.58724L25.333 9.63924L25.356 7.99324Z" fill="white" stroke="#73561F" stroke-width="1.66537" stroke-miterlimit="10"/>
<path opacity="0.3" d="M20.4472 25.8706L18.9932 26.5446V24.7906L19.1952 24.9266L19.3752 24.6416L19.4782 24.6016L19.6172 24.7226L19.7532 24.4946L19.8832 24.4446L20.0722 24.6106L20.3102 24.2786L20.4472 24.2256V25.8706Z" fill="white" stroke="#73561F" stroke-width="1.66537" stroke-miterlimit="10"/>
<path opacity="0.3" d="M19.023 18.6202L20.484 18.0762L20.461 19.7212L20.262 19.5822L20.078 19.8642L19.973 19.9032L19.837 19.7802L19.697 20.0062L19.567 20.0552L19.38 19.8862L19.138 20.2152L19 20.2662L19.023 18.6202Z" fill="white" stroke="#73561F" stroke-width="1.66537" stroke-miterlimit="10"/>
<path opacity="0.55" d="M21.4264 13.4901L21.2544 13.4511V13.4001L21.4024 13.1921C21.4096 13.1831 21.4148 13.1726 21.4179 13.1615C21.421 13.1503 21.4219 13.1386 21.4204 13.1271C21.4191 13.1184 21.4146 13.1104 21.4078 13.1049C21.4009 13.0993 21.3922 13.0966 21.3834 13.0971L21.1944 13.1031L21.1794 13.0581L21.2974 12.8361C21.3032 12.8269 21.3069 12.8164 21.3081 12.8054C21.3093 12.7945 21.308 12.7835 21.3044 12.7731C21.3003 12.7652 21.2935 12.7591 21.2852 12.7558C21.277 12.7524 21.2678 12.7522 21.2594 12.7551L21.0594 12.8061L21.0354 12.7691L21.1194 12.5401C21.1245 12.5313 21.1272 12.5213 21.1272 12.5111C21.1272 12.501 21.1245 12.491 21.1194 12.4821C21.1127 12.4756 21.1041 12.4715 21.0949 12.4704C21.0857 12.4694 21.0764 12.4714 21.0684 12.4761L20.8684 12.5701L20.8364 12.5431L20.8834 12.3161C20.8864 12.3069 20.8865 12.2969 20.8837 12.2876C20.8808 12.2783 20.8751 12.2701 20.8674 12.2641C20.8584 12.2598 20.8483 12.2581 20.8383 12.2594C20.8284 12.2606 20.8191 12.2647 20.8114 12.2711L20.6114 12.4041L20.5724 12.3871L20.5794 12.1721C20.5808 12.1631 20.579 12.1538 20.5742 12.1459C20.5695 12.138 20.5621 12.1321 20.5534 12.1291C20.5428 12.1275 20.532 12.1284 20.5219 12.1319C20.5118 12.1354 20.5027 12.1413 20.4954 12.1491L20.3114 12.3151L20.2664 12.3091L20.2334 12.1091C20.2324 12.1003 20.2282 12.0922 20.2215 12.0862C20.2149 12.0803 20.2063 12.0771 20.1974 12.0771C20.1862 12.078 20.1754 12.0813 20.1656 12.0866C20.1558 12.092 20.1472 12.0993 20.1404 12.1081L19.9764 12.3021L19.9274 12.3071L19.8564 12.1391C19.853 12.1308 19.8466 12.124 19.8385 12.1201C19.8303 12.1162 19.821 12.1155 19.8124 12.1181C19.7894 12.1246 19.7697 12.1397 19.7574 12.1601L19.6194 12.3741L19.5694 12.3901L19.4624 12.2551C19.4561 12.2484 19.4478 12.244 19.4388 12.2425C19.4297 12.2411 19.4204 12.2427 19.4124 12.2471C19.39 12.2574 19.3722 12.2756 19.3624 12.2981L19.2554 12.5241L19.2054 12.5501L19.0674 12.4501C19.0592 12.4448 19.0497 12.4419 19.0399 12.4419C19.0301 12.4419 19.0205 12.4448 19.0124 12.4501C18.9915 12.4639 18.976 12.4843 18.9684 12.5081L18.8974 12.7361L18.8484 12.7721L18.6844 12.7181C18.6742 12.716 18.6637 12.7164 18.6537 12.7194C18.6438 12.7223 18.6347 12.7278 18.6274 12.7351C18.6084 12.7513 18.5957 12.7736 18.5914 12.7981L18.5584 13.0211L18.5134 13.0651L18.3294 13.0551C18.3182 13.0555 18.3072 13.0582 18.2972 13.0632C18.2872 13.0683 18.2784 13.0754 18.2714 13.0841C18.2552 13.102 18.2459 13.1251 18.2454 13.1491L18.2524 13.3581L18.2134 13.4081L18.0134 13.4431C17.9902 13.4487 17.9702 13.4631 17.9574 13.4831C17.9505 13.4923 17.9455 13.5028 17.9427 13.514C17.94 13.5252 17.9395 13.5368 17.9414 13.5481L17.9874 13.7351L17.9554 13.7891L17.7554 13.8681C17.733 13.8777 17.7148 13.8951 17.7044 13.9171C17.6996 13.9268 17.6971 13.9374 17.6971 13.9481C17.6971 13.9589 17.6996 13.9695 17.7044 13.9791L17.7884 14.1361L17.7644 14.1931L17.5644 14.3121C17.5433 14.3254 17.5274 14.3456 17.5194 14.3691C17.5153 14.3784 17.5138 14.3886 17.515 14.3986C17.5163 14.4087 17.5202 14.4182 17.5264 14.4261L17.6444 14.5481L17.6294 14.6061L17.4404 14.7611C17.4212 14.7769 17.4082 14.7988 17.4034 14.8231C17.4007 14.8323 17.401 14.8421 17.4042 14.8511C17.4075 14.8601 17.4135 14.8678 17.4214 14.8731L17.5694 14.9551V15.0101L17.3974 15.1951C17.3804 15.2127 17.3705 15.2358 17.3694 15.2601C17.3684 15.2692 17.3706 15.2783 17.3758 15.2859C17.3809 15.2934 17.3886 15.2988 17.3974 15.3011L17.5694 15.3401V15.3911L17.4214 15.5991C17.4143 15.6083 17.409 15.6187 17.4059 15.6299C17.4028 15.641 17.402 15.6527 17.4034 15.6641C17.4046 15.6729 17.4091 15.6809 17.416 15.6864C17.4229 15.692 17.4316 15.6947 17.4404 15.6941L17.6294 15.6881L17.6444 15.7331L17.5264 15.9551C17.5206 15.9644 17.5169 15.9749 17.5157 15.9859C17.5145 15.9968 17.5157 16.0078 17.5194 16.0181C17.5235 16.0261 17.5303 16.0322 17.5385 16.0355C17.5468 16.0388 17.556 16.0391 17.5644 16.0361L17.7644 15.9851L17.7884 16.0221L17.7044 16.2511C17.6993 16.26 17.6966 16.27 17.6966 16.2801C17.6966 16.2903 17.6993 16.3003 17.7044 16.3091C17.711 16.3156 17.7196 16.3198 17.7289 16.3209C17.7381 16.3219 17.7474 16.3199 17.7554 16.3151L17.9554 16.2211L17.9874 16.2481L17.9414 16.4751C17.9386 16.4843 17.9386 16.494 17.9414 16.5031C17.9443 16.5123 17.9499 16.5203 17.9574 16.5261C17.9664 16.5305 17.9765 16.5321 17.9864 16.5309C17.9963 16.5297 18.0057 16.5256 18.0134 16.5191L18.2134 16.3861L18.2524 16.4031L18.2454 16.6181C18.244 16.6272 18.2458 16.6365 18.2505 16.6444C18.2553 16.6523 18.2627 16.6582 18.2714 16.6611C18.2819 16.6628 18.2928 16.6619 18.3029 16.6584C18.313 16.6549 18.3221 16.649 18.3294 16.6411L18.5134 16.4751L18.5584 16.4812L18.5914 16.6811C18.5921 16.6901 18.5963 16.6984 18.603 16.7043C18.6097 16.7103 18.6184 16.7134 18.6274 16.7131C18.6385 16.7122 18.6493 16.709 18.6592 16.7037C18.669 16.6983 18.6776 16.691 18.6844 16.6821L18.8484 16.4882L18.8974 16.4831L18.9684 16.6511C18.9719 16.6593 18.9784 16.6659 18.9865 16.6696C18.9947 16.6733 19.0039 16.6739 19.0124 16.6711C19.0354 16.6647 19.0551 16.6497 19.0674 16.6291L19.2054 16.4152L19.2554 16.3991L19.3624 16.5341C19.3686 16.5409 19.3769 16.5453 19.386 16.5468C19.3951 16.5482 19.4044 16.5466 19.4124 16.5421C19.4348 16.5319 19.4526 16.5137 19.4624 16.4911L19.5694 16.2651L19.6194 16.2382L19.7574 16.3381C19.7655 16.3435 19.7751 16.3464 19.7849 16.3464C19.7947 16.3464 19.8042 16.3435 19.8124 16.3381C19.8333 16.3244 19.8488 16.304 19.8564 16.2801L19.9274 16.0521L19.9764 16.0162L20.1404 16.0701C20.1505 16.0722 20.1611 16.0718 20.171 16.0688C20.181 16.0658 20.19 16.0605 20.1974 16.0531C20.2164 16.037 20.2291 16.0147 20.2334 15.9901L20.2664 15.7671L20.3114 15.7231L20.4954 15.7331C20.5066 15.7328 20.5176 15.7301 20.5276 15.7251C20.5376 15.72 20.5464 15.7129 20.5534 15.7041C20.5696 15.6863 20.5788 15.6632 20.5794 15.6391L20.5724 15.4301L20.6114 15.3801L20.8114 15.3451C20.8346 15.3397 20.8547 15.3253 20.8674 15.3051C20.8743 15.296 20.8793 15.2855 20.8821 15.2743C20.8848 15.2631 20.8853 15.2515 20.8834 15.2401L20.8374 15.0531L20.8544 15.0001L21.0544 14.9211C21.0768 14.9116 21.0949 14.8941 21.1054 14.8721C21.1101 14.8625 21.1126 14.8519 21.1126 14.8411C21.1126 14.8304 21.1101 14.8198 21.1054 14.8101L21.0214 14.6531L21.0454 14.5961L21.2454 14.4771C21.2665 14.4639 21.2824 14.4438 21.2904 14.4201C21.2945 14.4109 21.296 14.4007 21.2947 14.3907C21.2935 14.3806 21.2896 14.3711 21.2834 14.3631L21.1654 14.2411L21.1804 14.1831L21.3694 14.0281C21.3885 14.0124 21.4016 13.9905 21.4064 13.9661C21.4091 13.957 21.4088 13.9472 21.4056 13.9382C21.4023 13.9292 21.3963 13.9215 21.3884 13.9161L21.2404 13.8341V13.7791L21.4124 13.5941C21.4293 13.5766 21.4393 13.5535 21.4404 13.5291C21.4421 13.522 21.4417 13.5145 21.4392 13.5076C21.4367 13.5007 21.4322 13.4946 21.4264 13.4901ZM20.2734 15.4781C20.2074 15.4911 20.1654 15.4411 20.1794 15.3661C20.1866 15.3288 20.2039 15.2941 20.2295 15.2659C20.2551 15.2376 20.2879 15.217 20.3244 15.2061C20.3904 15.1931 20.4324 15.2431 20.4184 15.3181C20.4111 15.3555 20.3937 15.3901 20.3681 15.4183C20.3426 15.4465 20.3098 15.4672 20.2734 15.4781ZM20.2144 15.0881C20.1811 15.0981 20.1513 15.117 20.128 15.1427C20.1047 15.1685 20.089 15.2001 20.0824 15.2341L20.0214 15.5591C19.8384 15.7256 19.6293 15.8607 19.4024 15.9591C19.2041 16.0487 18.9877 16.0908 18.7704 16.0821L18.7094 15.8091C18.6964 15.7521 18.6374 15.7371 18.5774 15.7761L18.3254 15.9401C18.2786 15.9093 18.235 15.8738 18.1954 15.8341L19.4214 15.3131C19.4354 15.3071 19.4444 15.3011 19.4444 15.2871V14.8321C19.4444 14.8191 19.4354 14.8201 19.4214 14.8261L19.0624 14.9781V14.6901L19.4504 14.5251C19.473 14.5122 19.4985 14.5049 19.5246 14.504C19.5507 14.5031 19.5766 14.5085 19.6001 14.5198C19.6236 14.5312 19.644 14.548 19.6596 14.569C19.6751 14.5899 19.6854 14.6144 19.6894 14.6401C19.7044 14.6971 19.7384 14.8891 19.7614 14.9401C19.7844 14.9911 19.8784 15.1121 19.9784 15.0701L20.5894 14.8101L20.6114 14.7981C20.5694 14.8761 20.5224 14.9531 20.4724 15.0281L20.2144 15.0881ZM18.5144 16.2181C18.4484 16.2611 18.3834 16.2441 18.3694 16.1811C18.3653 16.1435 18.3719 16.1055 18.3886 16.0715C18.4052 16.0375 18.4312 16.009 18.4634 15.9891C18.5294 15.9461 18.5944 15.9631 18.6084 16.0261C18.6129 16.0634 18.6068 16.1011 18.5909 16.1351C18.575 16.169 18.5499 16.1978 18.5184 16.2181H18.5144ZM18.0494 14.4391C18.0612 14.4748 18.0616 14.5132 18.0505 14.5491C18.0393 14.585 18.0173 14.6164 17.9874 14.6391C17.9254 14.6941 17.8534 14.6951 17.8264 14.6391C17.8146 14.6035 17.8142 14.5651 17.8253 14.5292C17.8364 14.4933 17.8585 14.4619 17.8884 14.4391C17.9544 14.3881 18.0264 14.3861 18.0534 14.4391H18.0494ZM17.9064 14.8551L18.1694 14.6211C18.1959 14.6008 18.2155 14.5729 18.2257 14.5411C18.2359 14.5093 18.2361 14.4751 18.2264 14.4431L18.1724 14.3381L18.3854 14.2481V15.2481L17.9564 15.4301C17.9173 15.2981 17.8981 15.1609 17.8994 15.0231C17.9004 14.9711 17.9004 14.9131 17.9104 14.8551H17.9064ZM19.0584 14.2681V13.9681L19.5644 13.7531C19.5904 13.7421 19.7494 13.7061 19.7494 13.8301C19.7494 13.9301 19.6274 14.0221 19.5274 14.0641L19.0574 14.2641L19.0584 14.2681ZM20.8984 13.7521C20.8984 13.7915 20.8984 13.8308 20.8984 13.8701L20.7444 13.9351C20.7374 13.9381 20.7315 13.9431 20.7276 13.9496C20.7236 13.9561 20.7218 13.9636 20.7224 13.9711V14.0451C20.7264 14.107 20.7118 14.1687 20.6804 14.2222C20.649 14.2756 20.6024 14.3185 20.5464 14.3451C20.4684 14.3881 20.3814 14.3811 20.3704 14.3351C20.3244 14.0821 20.2474 14.0571 20.1254 14.0081C20.291 13.8563 20.3997 13.6523 20.4334 13.4301C20.4387 13.3582 20.4178 13.2867 20.3746 13.2288C20.3315 13.171 20.2689 13.1306 20.1984 13.1151C20.0908 13.0925 19.9789 13.1015 19.8764 13.1411L18.2844 13.8181C18.497 13.4745 18.7841 13.183 19.1244 12.9651L19.3124 13.0921C19.3544 13.1211 19.4254 13.0921 19.4694 13.0291L19.6794 12.7291C19.8637 12.6718 20.0613 12.6727 20.2451 12.7317C20.4289 12.7908 20.59 12.9051 20.7064 13.0591L20.5624 13.4591C20.5374 13.5281 20.5624 13.5871 20.6194 13.5891L20.8964 13.6001C20.899 13.6488 20.9004 13.6995 20.9004 13.7521H20.8984ZM19.3074 12.7081C19.3564 12.6391 19.4334 12.6081 19.4794 12.6391C19.5254 12.6701 19.5244 12.7521 19.4794 12.8221C19.4344 12.8921 19.3534 12.9221 19.3074 12.8911C19.2614 12.8601 19.2634 12.7771 19.3124 12.7071L19.3074 12.7081ZM20.7344 13.3081C20.7454 13.2727 20.7665 13.2413 20.7951 13.2177C20.8237 13.1941 20.8585 13.1793 20.8954 13.1751C20.9574 13.1751 20.9844 13.2411 20.9574 13.3171C20.9464 13.3526 20.9253 13.384 20.8967 13.4076C20.8681 13.4312 20.8332 13.446 20.7964 13.4501C20.7394 13.4441 20.7114 13.3801 20.7384 13.3001L20.7344 13.3081Z" fill="black"/>
<path opacity="0.56" d="M15.3142 23.4209L15.1242 23.2259L15.1192 23.1689L15.2822 23.0839C15.2907 23.0786 15.2973 23.0707 15.3009 23.0613C15.3045 23.0519 15.305 23.0416 15.3022 23.0319C15.2966 23.0061 15.2821 22.9831 15.2612 22.9669L15.0532 22.8039L15.0372 22.7439L15.1672 22.6169C15.1738 22.6086 15.178 22.5985 15.1793 22.5879C15.1805 22.5773 15.1787 22.5666 15.1742 22.5569C15.1649 22.5317 15.1473 22.5105 15.1242 22.4969L14.9042 22.3709L14.8782 22.3109L14.9702 22.1459C14.9747 22.1355 14.9766 22.1241 14.9757 22.1128C14.9748 22.1015 14.9712 22.0905 14.9652 22.0809C14.953 22.0573 14.9328 22.0389 14.9082 22.0289L14.6852 21.9459L14.6502 21.8889L14.7012 21.6889C14.7033 21.677 14.7028 21.6648 14.6999 21.6531C14.697 21.6414 14.6916 21.6304 14.6842 21.6209C14.67 21.5996 14.6481 21.5846 14.6232 21.5789L14.4062 21.5409L14.3632 21.4879L14.3712 21.2679C14.3705 21.2424 14.3602 21.218 14.3422 21.1999C14.3344 21.1906 14.3248 21.1831 14.3139 21.1778C14.3031 21.1724 14.2912 21.1694 14.2792 21.1689L14.0792 21.1789L14.0302 21.1319L13.9942 20.8979C13.9894 20.872 13.9756 20.8486 13.9552 20.8319C13.9469 20.8241 13.9368 20.8183 13.9259 20.8152C13.9149 20.8121 13.9033 20.8116 13.8922 20.8139L13.7112 20.8699L13.6572 20.8319L13.5792 20.5919C13.5707 20.5666 13.5537 20.5451 13.5312 20.5309C13.5226 20.5246 13.5125 20.5207 13.5019 20.5198C13.4913 20.519 13.4806 20.5211 13.4712 20.5259L13.3192 20.6259L13.2602 20.5999L13.1432 20.3619C13.1317 20.338 13.1123 20.3189 13.0882 20.3079C13.0794 20.3031 13.0692 20.3012 13.0593 20.3027C13.0494 20.3041 13.0402 20.3088 13.0332 20.3159L12.9162 20.4579L12.8612 20.4409L12.7092 20.2159C12.6956 20.1941 12.6741 20.1783 12.6492 20.1719C12.64 20.169 12.6301 20.1696 12.6212 20.1735C12.6124 20.1773 12.6053 20.1842 12.6012 20.1929L12.5232 20.3689L12.4692 20.3629L12.2882 20.1629C12.2805 20.1534 12.2709 20.1455 12.2601 20.1398C12.2493 20.1342 12.2374 20.1308 12.2252 20.1299C12.2156 20.1296 12.2062 20.1329 12.199 20.1392C12.1917 20.1455 12.1872 20.1544 12.1862 20.1639L12.1502 20.3689L12.1012 20.3749L11.9012 20.1999C11.893 20.1917 11.8831 20.1856 11.8721 20.1819C11.8612 20.1783 11.8496 20.1773 11.8382 20.1789C11.8287 20.1817 11.8206 20.1878 11.8153 20.196C11.81 20.2043 11.8078 20.2142 11.8092 20.2239L11.8172 20.4499L11.7742 20.4679L11.5572 20.3279C11.5487 20.3212 11.5385 20.3169 11.5278 20.3155C11.517 20.3141 11.5061 20.3156 11.4962 20.3199C11.488 20.3259 11.4819 20.3344 11.4789 20.3441C11.4758 20.3538 11.4759 20.3643 11.4792 20.3739L11.5302 20.6119L11.4952 20.6399L11.2722 20.5399C11.2633 20.5346 11.2529 20.5324 11.2427 20.5335C11.2324 20.5345 11.2228 20.5389 11.2152 20.5459C11.2088 20.5546 11.205 20.5649 11.2041 20.5757C11.2032 20.5865 11.2053 20.5973 11.2102 20.6069L11.3022 20.8469L11.2762 20.8859L11.0562 20.8319C11.0469 20.8286 11.0368 20.8286 11.0276 20.8321C11.0185 20.8356 11.0108 20.8423 11.0062 20.8509C11.0021 20.8617 11.0006 20.8733 11.0018 20.8847C11.0031 20.8962 11.0069 20.9072 11.0132 20.9169L11.1432 21.1509L11.1272 21.1979L10.9192 21.1909C10.9095 21.19 10.8999 21.1928 10.8923 21.1988C10.8847 21.2047 10.8796 21.2134 10.8782 21.2229C10.8767 21.235 10.8777 21.2473 10.8811 21.259C10.8845 21.2707 10.8903 21.2815 10.8982 21.2909L11.0612 21.5099L11.0562 21.5629L10.8662 21.6029C10.8566 21.6051 10.8482 21.6106 10.8425 21.6185C10.8368 21.6265 10.8342 21.6362 10.8352 21.6459C10.8363 21.6717 10.8474 21.6961 10.8662 21.7139L11.0562 21.9089L11.0612 21.9659L10.8982 22.0509C10.8896 22.0562 10.883 22.0641 10.8794 22.0735C10.8758 22.0829 10.8753 22.0932 10.8782 22.1029C10.8838 22.1287 10.8983 22.1517 10.9192 22.1679L11.1272 22.3309L11.1432 22.3909L11.0132 22.5179C11.0065 22.5262 11.0023 22.5363 11.0011 22.5469C10.9998 22.5575 11.0016 22.5682 11.0062 22.5779C11.0154 22.6031 11.0331 22.6243 11.0562 22.6379L11.2762 22.7639L11.3022 22.8239L11.2102 22.9889C11.2057 22.9993 11.2039 23.0107 11.2048 23.022C11.2056 23.0333 11.2092 23.0443 11.2152 23.0539C11.2273 23.0775 11.2476 23.0959 11.2722 23.1059L11.4952 23.1889L11.5302 23.2459L11.4792 23.4459C11.4771 23.4578 11.4775 23.47 11.4804 23.4817C11.4833 23.4934 11.4887 23.5044 11.4962 23.5139C11.5104 23.5352 11.5322 23.5502 11.5572 23.5559L11.7742 23.5939L11.8172 23.6469L11.8092 23.8669C11.8098 23.8924 11.8202 23.9168 11.8382 23.9349C11.8459 23.9442 11.8555 23.9517 11.8664 23.957C11.8772 23.9624 11.8891 23.9654 11.9012 23.9659L12.1012 23.9569L12.1502 24.0039L12.1862 24.2379C12.1909 24.2638 12.2047 24.2872 12.2252 24.3039C12.2333 24.3119 12.2434 24.3178 12.2543 24.3211C12.2653 24.3245 12.2769 24.3251 12.2882 24.3229L12.4682 24.2669L12.5222 24.3049L12.6002 24.5449C12.6086 24.5702 12.6256 24.5917 12.6482 24.6059C12.6567 24.6123 12.6668 24.6161 12.6774 24.617C12.688 24.6179 12.6987 24.6158 12.7082 24.6109L12.8602 24.5109L12.9152 24.5389L13.0322 24.7769C13.0436 24.8008 13.0631 24.8199 13.0872 24.8309C13.096 24.8356 13.1061 24.8373 13.116 24.8359C13.1259 24.8345 13.135 24.8299 13.1422 24.8229L13.2592 24.6809L13.3142 24.6979L13.4662 24.9229C13.4798 24.9447 13.5012 24.9605 13.5262 24.9669C13.5353 24.9698 13.5453 24.9692 13.5541 24.9654C13.5629 24.9615 13.57 24.9546 13.5742 24.9459L13.6522 24.7699L13.7062 24.7759L13.8872 24.9759C13.8949 24.9854 13.9044 24.9932 13.9153 24.9989C13.9261 25.0046 13.938 25.008 13.9502 25.0089C13.9598 25.0092 13.9691 25.0059 13.9763 24.9996C13.9836 24.9933 13.9882 24.9844 13.9892 24.9749L14.0252 24.7749L14.0742 24.7689L14.2742 24.9439C14.2823 24.9521 14.2922 24.9582 14.3032 24.9619C14.3141 24.9655 14.3257 24.9666 14.3372 24.9649C14.3466 24.9621 14.3547 24.956 14.36 24.9478C14.3653 24.9395 14.3675 24.9296 14.3662 24.9199L14.3582 24.6939L14.4012 24.6759L14.6182 24.8159C14.6266 24.8227 14.6368 24.8271 14.6475 24.8285C14.6583 24.8299 14.6692 24.8283 14.6792 24.8239C14.6874 24.8179 14.6934 24.8094 14.6965 24.7997C14.6995 24.79 14.6994 24.7795 14.6962 24.7699L14.6452 24.5319L14.6802 24.5039L14.9032 24.6039C14.912 24.6092 14.9224 24.6114 14.9327 24.6103C14.9429 24.6093 14.9526 24.6049 14.9602 24.5979C14.9665 24.5892 14.9703 24.5789 14.9712 24.5681C14.9721 24.5573 14.97 24.5466 14.9652 24.5369L14.8732 24.2969L14.8992 24.2579L15.1192 24.3119C15.1284 24.3152 15.1385 24.3152 15.1477 24.3117C15.1569 24.3082 15.1645 24.3015 15.1692 24.2929C15.1733 24.2821 15.1748 24.2705 15.1736 24.2591C15.1724 24.2476 15.1685 24.2366 15.1622 24.2269L15.0322 23.9929L15.0482 23.9459L15.2562 23.9529C15.2658 23.9538 15.2754 23.951 15.283 23.945C15.2906 23.9391 15.2957 23.9304 15.2972 23.9209C15.2987 23.9088 15.2977 23.8965 15.2942 23.8848C15.2908 23.8731 15.285 23.8623 15.2772 23.8529L15.1142 23.6339L15.1192 23.5809L15.3092 23.5409C15.3187 23.5388 15.3271 23.5332 15.3328 23.5253C15.3385 23.5174 15.3411 23.5076 15.3402 23.4979C15.3415 23.484 15.3398 23.4699 15.3353 23.4566C15.3309 23.4434 15.3236 23.4312 15.3142 23.4209ZM14.0452 24.4749C14.0113 24.4544 13.984 24.4247 13.9663 24.3893C13.9486 24.3539 13.9413 24.3143 13.9452 24.2749C13.9602 24.2089 14.0322 24.1919 14.1042 24.2369C14.138 24.2574 14.1653 24.2871 14.183 24.3225C14.2007 24.3579 14.208 24.3975 14.2042 24.4369C14.1892 24.4999 14.1182 24.5199 14.0452 24.4749ZM13.9812 24.0129C13.9152 23.9719 13.8502 23.9869 13.8362 24.0479L13.7692 24.3349C13.5353 24.3406 13.303 24.2956 13.0882 24.2029C12.8323 24.0964 12.5958 23.9485 12.3882 23.7649L12.3212 23.4229C12.3136 23.3864 12.2961 23.3528 12.2705 23.3257C12.2448 23.2987 12.2122 23.2794 12.1762 23.2699L11.8992 23.2159C11.8478 23.1419 11.8002 23.0659 11.7562 22.9879L13.1062 23.5399C13.1212 23.5459 13.1312 23.5479 13.1312 23.5339V23.0569C13.1312 23.0429 13.1212 23.0359 13.1062 23.0299L12.7112 22.8689V22.5689L13.1382 22.7439C13.2058 22.7743 13.2651 22.8207 13.3109 22.8791C13.3567 22.9374 13.3877 23.006 13.4012 23.0789C13.4182 23.1529 13.4552 23.3839 13.4812 23.4639C13.5203 23.5985 13.6047 23.7154 13.7202 23.7949L14.3922 24.0699L14.4162 24.0779C14.3695 24.1223 14.3182 24.1615 14.2632 24.1949L13.9812 24.0129ZM12.1142 23.6789C12.0749 23.668 12.0393 23.6466 12.0113 23.617C11.9833 23.5874 11.9639 23.5507 11.9552 23.5109C11.9402 23.4319 11.9862 23.3789 12.0552 23.3929C12.0944 23.4039 12.1299 23.4253 12.1579 23.4549C12.1859 23.4845 12.2053 23.5211 12.2142 23.5609C12.2332 23.6399 12.1872 23.6929 12.1142 23.6789ZM11.6002 21.3929C11.6302 21.4729 11.6002 21.5399 11.5322 21.5419C11.4922 21.5379 11.4543 21.5224 11.4229 21.4974C11.3915 21.4724 11.368 21.4389 11.3552 21.4009C11.3252 21.3209 11.3552 21.2539 11.4232 21.2519C11.4631 21.2559 11.501 21.2714 11.5324 21.2964C11.5638 21.3214 11.5873 21.3549 11.6002 21.3929ZM11.4432 21.7019L11.7322 21.6919C11.7942 21.6919 11.8222 21.6289 11.7942 21.5559L11.7342 21.3969L11.9682 21.4969V22.5519L11.4962 22.3589C11.4553 22.2025 11.4342 22.0416 11.4332 21.8799C11.4337 21.8197 11.4377 21.7596 11.4452 21.6999L11.4432 21.7019ZM12.7112 22.1179V21.8069L13.2682 22.0349C13.2972 22.0469 13.4682 22.1509 13.4682 22.2819C13.4682 22.3899 13.3342 22.3739 13.2242 22.3289L12.7072 22.1179H12.7112ZM14.7362 23.2259C14.7362 23.2672 14.7362 23.3076 14.7362 23.3469L14.5672 23.2779C14.5502 23.2709 14.5432 23.2779 14.5432 23.2959V23.3739C14.5432 23.5569 14.4432 23.5549 14.3492 23.5279C14.3067 23.5153 14.2675 23.4938 14.234 23.4648C14.2006 23.4359 14.1737 23.4001 14.1552 23.3599C14.1312 23.1474 14.0365 22.9491 13.8862 22.7969C14.0522 22.7589 14.2252 22.6749 14.2252 22.4659C14.2066 22.26 14.1147 22.0677 13.9662 21.9239C13.8653 21.8151 13.7449 21.7262 13.6112 21.6619L11.8592 20.9449C11.9943 20.8572 12.1465 20.799 12.3058 20.7742C12.465 20.7494 12.6277 20.7585 12.7832 20.8009L12.9902 21.1009C13.0372 21.1689 13.1142 21.2009 13.1632 21.1759L13.3942 21.0489C13.8868 21.3514 14.2797 21.792 14.5242 22.3159L14.3662 22.6089C14.3556 22.6426 14.356 22.6788 14.3671 22.7124C14.3782 22.7459 14.3996 22.7751 14.4282 22.7959L14.7282 23.0559C14.7348 23.1139 14.7382 23.1706 14.7382 23.2259H14.7362ZM12.9872 20.6999C13.0412 20.6709 13.1252 20.7069 13.1772 20.7819C13.2292 20.8569 13.2262 20.9409 13.1772 20.9699C13.1282 20.9989 13.0392 20.9629 12.9872 20.8879C12.9352 20.8129 12.9342 20.7319 12.9872 20.6999ZM14.5572 22.6049C14.5872 22.5489 14.6662 22.5509 14.7342 22.6049C14.7655 22.6276 14.789 22.6597 14.8012 22.6964C14.8134 22.7332 14.8137 22.7729 14.8022 22.8099C14.7722 22.8659 14.6932 22.8639 14.6252 22.8099C14.5944 22.7874 14.5713 22.7558 14.5591 22.7197C14.547 22.6835 14.5463 22.6445 14.5572 22.6079V22.6049Z" fill="black"/>
<path opacity="0.55" d="M27.8377 18.7236L27.6657 18.6846V18.6336L27.8137 18.4256C27.8208 18.4165 27.8261 18.4061 27.8292 18.3949C27.8323 18.3838 27.8331 18.3721 27.8317 18.3606C27.8304 18.3519 27.8259 18.3439 27.819 18.3384C27.8122 18.3328 27.8035 18.33 27.7947 18.3306L27.6057 18.3366L27.5907 18.2916L27.7087 18.0696C27.7145 18.0603 27.7181 18.0498 27.7193 18.0389C27.7206 18.028 27.7193 18.017 27.7157 18.0066C27.7116 17.9987 27.7048 17.9925 27.6965 17.9892C27.6882 17.9859 27.6791 17.9857 27.6707 17.9886L27.4707 18.0396L27.4407 17.9996L27.5247 17.7706C27.5297 17.7618 27.5324 17.7518 27.5324 17.7416C27.5324 17.7314 27.5297 17.7214 27.5247 17.7126C27.518 17.7061 27.5094 17.702 27.5002 17.7009C27.491 17.6998 27.4816 17.7018 27.4737 17.7066L27.2737 17.8006L27.2417 17.7736L27.2887 17.5466C27.2917 17.5374 27.2918 17.5274 27.2889 17.5181C27.2861 17.5088 27.2804 17.5006 27.2727 17.4946C27.2636 17.4903 27.2536 17.4886 27.2436 17.4899C27.2337 17.4911 27.2243 17.4952 27.2167 17.5016L27.0167 17.6346L26.9777 17.6176L26.9847 17.4026C26.9861 17.3935 26.9843 17.3842 26.9795 17.3764C26.9747 17.3685 26.9674 17.3626 26.9587 17.3596C26.9481 17.3579 26.9373 17.3589 26.9271 17.3623C26.917 17.3658 26.9079 17.3718 26.9007 17.3796L26.7167 17.5456L26.6717 17.5396L26.6387 17.3396C26.6377 17.3308 26.6334 17.3226 26.6268 17.3167C26.6201 17.3108 26.6115 17.3076 26.6027 17.3076C26.5915 17.3085 26.5807 17.3117 26.5709 17.3171C26.5611 17.3224 26.5525 17.3298 26.5457 17.3386L26.3817 17.5326L26.3327 17.5376L26.2617 17.3696C26.2583 17.3612 26.2519 17.3544 26.2438 17.3505C26.2356 17.3466 26.2263 17.346 26.2177 17.3486C26.1946 17.3551 26.175 17.3701 26.1627 17.3906L26.0247 17.6046L25.9747 17.6206L25.8677 17.4856C25.8614 17.4789 25.8531 17.4744 25.844 17.473C25.835 17.4715 25.8257 17.4732 25.8177 17.4776C25.7953 17.4879 25.7775 17.506 25.7677 17.5286L25.6607 17.7546L25.6107 17.7806L25.4727 17.6806C25.4645 17.6752 25.4549 17.6724 25.4452 17.6724C25.4354 17.6724 25.4258 17.6752 25.4177 17.6806C25.3968 17.6943 25.3812 17.7148 25.3737 17.7386L25.3027 17.9666L25.2537 18.0026L25.0897 17.9486C25.0795 17.9464 25.0689 17.9469 25.059 17.9498C25.049 17.9528 25.04 17.9582 25.0327 17.9656C25.0137 17.9818 25.001 18.0041 24.9967 18.0286L24.9637 18.2516L24.9187 18.2956L24.7347 18.2856C24.7235 18.2859 24.7125 18.2887 24.7025 18.2937C24.6924 18.2987 24.6836 18.3059 24.6767 18.3146C24.6604 18.3324 24.6512 18.3555 24.6507 18.3796L24.6577 18.5886L24.6187 18.6386L24.4187 18.6736C24.3955 18.6792 24.3754 18.6935 24.3627 18.7136C24.3557 18.7228 24.3507 18.7333 24.348 18.7445C24.3452 18.7556 24.3448 18.7673 24.3467 18.7786L24.3927 18.9656L24.3607 19.0196L24.1607 19.0986C24.1383 19.1082 24.1201 19.1256 24.1097 19.1476C24.1049 19.1573 24.1024 19.1679 24.1024 19.1786C24.1024 19.1894 24.1049 19.2 24.1097 19.2096L24.1937 19.3666L24.1697 19.4236L23.9697 19.5426C23.9486 19.5559 23.9327 19.576 23.9247 19.5996C23.9206 19.6089 23.9191 19.619 23.9203 19.6291C23.9215 19.6391 23.9255 19.6486 23.9317 19.6566L24.0497 19.7786L24.0347 19.8366L23.8457 19.9916C23.8265 20.0074 23.8134 20.0293 23.8087 20.0536C23.806 20.0628 23.8063 20.0726 23.8095 20.0816C23.8127 20.0905 23.8187 20.0983 23.8267 20.1036L23.9747 20.1856V20.2406L23.8027 20.4256C23.7857 20.4431 23.7758 20.4663 23.7747 20.4906C23.7736 20.4997 23.7759 20.5088 23.781 20.5163C23.7862 20.5238 23.7938 20.5293 23.8027 20.5316L23.9747 20.5706V20.6216L23.8267 20.8296C23.8195 20.8387 23.8143 20.8492 23.8112 20.8603C23.8081 20.8715 23.8072 20.8831 23.8087 20.8946C23.8099 20.9034 23.8144 20.9113 23.8213 20.9169C23.8281 20.9224 23.8368 20.9252 23.8457 20.9246L24.0347 20.9186L24.0497 20.9636L23.9317 21.1856C23.9258 21.1949 23.9222 21.2054 23.921 21.2163C23.9197 21.2272 23.921 21.2383 23.9247 21.2486C23.9287 21.2565 23.9355 21.2627 23.9438 21.266C23.9521 21.2693 23.9612 21.2695 23.9697 21.2666L24.1697 21.2156L24.1937 21.2526L24.0997 21.4996C24.0946 21.5084 24.0919 21.5184 24.0919 21.5286C24.0919 21.5388 24.0946 21.5488 24.0997 21.5576C24.1063 21.5641 24.1149 21.5682 24.1241 21.5693C24.1334 21.5704 24.1427 21.5684 24.1507 21.5636L24.3507 21.4696L24.3827 21.4966L24.3367 21.7236C24.3338 21.7327 24.3338 21.7425 24.3367 21.7516C24.3396 21.7607 24.3451 21.7687 24.3527 21.7746C24.3617 21.779 24.3718 21.7806 24.3817 21.7794C24.3916 21.7781 24.401 21.7741 24.4087 21.7676L24.6087 21.6346L24.6477 21.6516L24.6407 21.8666C24.6392 21.8757 24.6411 21.885 24.6458 21.8929C24.6506 21.9007 24.6579 21.9067 24.6667 21.9096C24.6772 21.9113 24.688 21.9104 24.6982 21.9069C24.7083 21.9034 24.7174 21.8975 24.7247 21.8896L24.9087 21.7236L24.9537 21.7296L24.9867 21.9296C24.9874 21.9385 24.9916 21.9468 24.9983 21.9528C25.005 21.9587 25.0137 21.9619 25.0227 21.9616C25.0338 21.9607 25.0446 21.9575 25.0544 21.9522C25.0643 21.9468 25.0728 21.9395 25.0797 21.9306L25.2437 21.7366L25.2927 21.7316L25.3637 21.8996C25.3672 21.9078 25.3737 21.9144 25.3818 21.9181C25.3899 21.9218 25.3991 21.9223 25.4077 21.9196C25.4307 21.9132 25.4504 21.8982 25.4627 21.8776L25.6007 21.6636L25.6507 21.6476L25.7577 21.7826C25.7639 21.7894 25.7722 21.7938 25.7813 21.7953C25.7903 21.7967 25.7996 21.7951 25.8077 21.7906C25.83 21.7804 25.8478 21.7622 25.8577 21.7396L25.9647 21.5136L26.0147 21.4866L26.1527 21.5866C26.1608 21.592 26.1704 21.5949 26.1802 21.5949C26.1899 21.5949 26.1995 21.592 26.2077 21.5866C26.2285 21.5729 26.2441 21.5524 26.2517 21.5286L26.3227 21.3006L26.3717 21.2646L26.5357 21.3186C26.5458 21.3207 26.5563 21.3202 26.5663 21.3173C26.5762 21.3143 26.5853 21.3089 26.5927 21.3016C26.6116 21.2855 26.6244 21.2632 26.6287 21.2386L26.6667 20.9996L26.7117 20.9556L26.8957 20.9656C26.9069 20.9653 26.9178 20.9625 26.9279 20.9575C26.9379 20.9525 26.9467 20.9454 26.9537 20.9366C26.9699 20.9188 26.9791 20.8957 26.9797 20.8716L26.9727 20.6626L27.0117 20.6126L27.2117 20.5776C27.2348 20.5721 27.2549 20.5578 27.2677 20.5376C27.2746 20.5284 27.2796 20.5179 27.2823 20.5068C27.2851 20.4956 27.2855 20.484 27.2837 20.4726L27.2377 20.2856L27.2697 20.2316L27.4697 20.1526C27.4921 20.143 27.5102 20.1256 27.5207 20.1036C27.5254 20.094 27.5279 20.0834 27.5279 20.0726C27.5279 20.0619 27.5254 20.0513 27.5207 20.0416L27.4367 19.8846L27.4607 19.8276L27.6607 19.7086C27.6818 19.6954 27.6977 19.6752 27.7057 19.6516C27.709 19.6431 27.7102 19.6339 27.7091 19.6249C27.7081 19.6158 27.7048 19.6071 27.6997 19.5996L27.5817 19.4776L27.5967 19.4196L27.7857 19.2646C27.8048 19.2489 27.8179 19.2269 27.8227 19.2026C27.8254 19.1935 27.8251 19.1837 27.8218 19.1747C27.8186 19.1657 27.8126 19.158 27.8047 19.1526L27.6567 19.0706V19.0156L27.8287 18.8306C27.8456 18.8131 27.8556 18.79 27.8567 18.7656C27.8585 18.7575 27.8577 18.749 27.8543 18.7414C27.8508 18.7338 27.845 18.7276 27.8377 18.7236ZM26.6847 20.7116C26.6187 20.7246 26.5767 20.6746 26.5907 20.5996C26.5979 20.5622 26.6152 20.5275 26.6408 20.4993C26.6663 20.4711 26.6992 20.4505 26.7357 20.4396C26.8017 20.4266 26.8437 20.4766 26.8297 20.5516C26.8224 20.5893 26.805 20.6242 26.7792 20.6526C26.7535 20.681 26.7204 20.7018 26.6837 20.7126L26.6847 20.7116ZM26.6257 20.3216C26.5924 20.3316 26.5625 20.3505 26.5393 20.3762C26.516 20.4019 26.5002 20.4335 26.4937 20.4676L26.4327 20.7926C26.2497 20.959 26.0406 21.0942 25.8137 21.1926C25.6154 21.2822 25.399 21.3243 25.1817 21.3156L25.1207 21.0426C25.1077 20.9856 25.0487 20.9706 24.9887 21.0096L24.7367 21.1736C24.6898 21.1428 24.6463 21.1073 24.6067 21.0676L25.8327 20.5466C25.8467 20.5406 25.8557 20.5346 25.8557 20.5206V20.0656C25.8557 20.0526 25.8467 20.0536 25.8327 20.0596L25.4737 20.2116V19.9236L25.8617 19.7586C25.8843 19.7457 25.9098 19.7384 25.9359 19.7375C25.9619 19.7366 25.9879 19.742 26.0114 19.7533C26.0349 19.7646 26.0553 19.7815 26.0709 19.8024C26.0864 19.8234 26.0966 19.8478 26.1007 19.8736C26.1157 19.9306 26.1497 20.1226 26.1727 20.1736C26.1957 20.2246 26.2897 20.3456 26.3897 20.3036L27.0007 20.0436L27.0227 20.0316C26.9807 20.1096 26.9337 20.1866 26.8837 20.2616L26.6257 20.3216ZM24.9257 21.4516C24.8597 21.4946 24.7947 21.4776 24.7807 21.4146C24.7766 21.377 24.7832 21.339 24.7999 21.305C24.8165 21.271 24.8424 21.2424 24.8747 21.2226C24.9407 21.1796 25.0057 21.1966 25.0197 21.2596C25.0242 21.2968 25.0181 21.3346 25.0022 21.3685C24.9863 21.4025 24.9611 21.4313 24.9297 21.4516H24.9257ZM24.4607 19.6726C24.4725 19.7083 24.4728 19.7467 24.4617 19.7826C24.4506 19.8184 24.4286 19.8499 24.3987 19.8726C24.3367 19.9276 24.2647 19.9286 24.2377 19.8726C24.2258 19.837 24.2255 19.7985 24.2366 19.7627C24.2477 19.7268 24.2698 19.6953 24.2997 19.6726C24.3647 19.6216 24.4367 19.6196 24.4647 19.6726H24.4607ZM24.3177 20.0886L24.5807 19.8546C24.6072 19.8343 24.6268 19.8063 24.637 19.7745C24.6472 19.7427 24.6474 19.7086 24.6377 19.6766L24.5837 19.5716L24.7967 19.4816V20.4816L24.3677 20.6636C24.3285 20.5315 24.3093 20.3944 24.3107 20.2566C24.3127 20.1996 24.3157 20.1466 24.3217 20.0886H24.3177ZM25.4697 19.5016V19.2016L25.9757 18.9866C26.0017 18.9756 26.1607 18.9396 26.1607 19.0636C26.1607 19.1636 26.0387 19.2556 25.9387 19.2976L25.4687 19.4976L25.4697 19.5016ZM27.3097 18.9856C27.3097 19.025 27.3097 19.0643 27.3097 19.1036L27.1557 19.1686C27.1487 19.1715 27.1428 19.1766 27.1388 19.1831C27.1349 19.1895 27.1331 19.1971 27.1337 19.2046V19.2786C27.1377 19.3405 27.1231 19.4021 27.0917 19.4556C27.0603 19.5091 27.0136 19.5519 26.9577 19.5786C26.8797 19.6216 26.7927 19.6146 26.7817 19.5686C26.7357 19.3156 26.6587 19.2906 26.5367 19.2416C26.7023 19.0898 26.811 18.8858 26.8447 18.6636C26.8499 18.5916 26.8291 18.5201 26.7859 18.4623C26.7428 18.4044 26.6802 18.3641 26.6097 18.3486C26.5021 18.3259 26.3902 18.335 26.2877 18.3746L24.6997 19.0496C24.9123 18.706 25.1994 18.4145 25.5397 18.1966L25.7277 18.3236C25.7697 18.3526 25.8407 18.3236 25.8847 18.2606L26.0947 17.9606C26.279 17.9033 26.4765 17.9042 26.6603 17.9632C26.8441 18.0223 27.0052 18.1366 27.1217 18.2906L26.9777 18.6906C26.9527 18.7596 26.9777 18.8186 27.0347 18.8206L27.3117 18.8316C27.313 18.8816 27.3137 18.933 27.3137 18.9856H27.3097ZM25.7187 17.9416C25.7677 17.8726 25.8447 17.8416 25.8907 17.8726C25.9367 17.9036 25.9357 17.9856 25.8907 18.0556C25.8457 18.1256 25.7647 18.1556 25.7187 18.1246C25.6727 18.0936 25.6737 18.0106 25.7227 17.9406L25.7187 17.9416ZM27.1457 18.5416C27.1567 18.5062 27.1778 18.4748 27.2064 18.4512C27.235 18.4275 27.2698 18.4128 27.3067 18.4086C27.3687 18.4086 27.3957 18.4746 27.3687 18.5506C27.3576 18.586 27.3365 18.6175 27.3079 18.6411C27.2794 18.6647 27.2445 18.6795 27.2077 18.6836C27.1497 18.6776 27.1217 18.6136 27.1497 18.5376L27.1457 18.5416Z" fill="black"/>
<g clip-path="url(#clip1_16611_68145)">
<path d="M4.67325 16.9981V16.3333L4.89261 16.4629L4.60351 15.6311L4.31445 16.1213L4.53379 16.2509V16.9157L4.67325 16.9981Z" fill="#231F20"/>
</g>
<g clip-path="url(#clip2_16611_68145)">
<path d="M9.23477 18.8439V18.179L9.45414 18.3086L9.16503 17.4768L8.87598 17.967L9.09532 18.0966V18.7614L9.23477 18.8439Z" fill="#231F20"/>
</g>
<g clip-path="url(#clip3_16611_68145)">
<path d="M10.81 11.3497V10.6849L11.0293 10.8145L10.7402 9.98262L10.4512 10.4728L10.6705 10.6025V11.2673L10.81 11.3497Z" fill="#231F20"/>
</g>
<g clip-path="url(#clip4_16611_68145)">
<path d="M15.3715 13.1964V12.5315L15.5909 12.6612L15.3018 11.8293L15.0127 12.3195L15.232 12.4491V13.114L15.3715 13.1964Z" fill="#231F20"/>
</g>
<g clip-path="url(#clip5_16611_68145)">
<path d="M17.0996 21.3443V20.6795L17.299 20.5598L17.0362 20.0565L16.7734 20.8752L16.9728 20.7555V21.4204L17.0996 21.3443Z" fill="#231F20"/>
</g>
<g clip-path="url(#clip6_16611_68145)">
<path d="M21.7149 19.4986V18.8338L21.9143 18.7141L21.6515 18.2108L21.3887 19.0295L21.5881 18.9098V19.5747L21.7149 19.4986Z" fill="#231F20"/>
</g>
<g clip-path="url(#clip7_16611_68145)">
<path d="M23.3984 10.9713V10.3064L23.5979 10.1868L23.335 9.68344L23.0723 10.5021L23.2717 10.3825V11.0474L23.3984 10.9713Z" fill="#231F20"/>
</g>
<g clip-path="url(#clip8_16611_68145)">
<path d="M28.0156 9.12558V8.46073L28.2151 8.34107L27.9522 7.83774L27.6895 8.65643L27.8889 8.53679V9.20165L28.0156 9.12558Z" fill="#231F20"/>
</g>
<defs>
<clipPath id="clip0_16611_68145">
<rect width="1.32588" height="0.671556" fill="white" transform="matrix(0 -1 0.860927 0.508729 10.5596 6.25)"/>
</clipPath>
<clipPath id="clip1_16611_68145">
<rect width="1.32588" height="0.671556" fill="white" transform="matrix(0 -1 0.860927 0.508729 4.31445 16.7861)"/>
</clipPath>
<clipPath id="clip2_16611_68145">
<rect width="1.32588" height="0.671556" fill="white" transform="matrix(0 -1 0.860927 0.508729 8.87598 18.6318)"/>
</clipPath>
<clipPath id="clip3_16611_68145">
<rect width="1.32588" height="0.671556" fill="white" transform="matrix(0 -1 0.860927 0.508729 10.4512 11.1377)"/>
</clipPath>
<clipPath id="clip4_16611_68145">
<rect width="1.32588" height="0.671556" fill="white" transform="matrix(0 -1 0.860927 0.508729 15.0127 12.9844)"/>
</clipPath>
<clipPath id="clip5_16611_68145">
<rect width="1.32588" height="0.61295" fill="white" transform="matrix(0 -1 0.857493 -0.514496 16.7734 21.54)"/>
</clipPath>
<clipPath id="clip6_16611_68145">
<rect width="1.32588" height="0.61295" fill="white" transform="matrix(0 -1 0.857493 -0.514496 21.3887 19.6943)"/>
</clipPath>
<clipPath id="clip7_16611_68145">
<rect width="1.32588" height="0.61295" fill="white" transform="matrix(0 -1 0.857493 -0.514496 23.0723 11.167)"/>
</clipPath>
<clipPath id="clip8_16611_68145">
<rect width="1.32588" height="0.61295" fill="white" transform="matrix(0 -1 0.857493 -0.514496 27.6895 9.32129)"/>
</clipPath>
</defs>
</svg>
