<svg width="32" height="32" viewBox="0 0 32 32" fill="none" xmlns="http://www.w3.org/2000/svg">
<path d="M15.7968 0L0.9375 7.123L15.7968 16.1926L30.9723 7.931L15.7968 0Z" fill="#AFD4E5"/>
<path d="M0.9375 21.3233L15.7968 31.9999V16.1925L0.9375 7.12305V21.3233Z" fill="#6699CC"/>
<path d="M15.7969 16.1922V31.9995L30.9724 22.1222V7.93066L15.7969 16.1922Z" fill="#7DA7D3"/>
<path d="M24.007 26.6559L24.3608 26.4255L24.0608 11.6934L23.793 11.8391L24.007 26.6559Z" fill="#336699"/>
<path d="M21.1767 9.63178L24.9893 7.57328C24.9893 7.57328 19.2432 1.30365 12.4756 4.94415C9.29169 6.6569 8.34282 8.37828 9.75232 10.2163C12.0851 13.2585 14.8987 12.917 14.8987 12.917L18.5678 11.1313C18.5678 11.1313 14.5833 11.6569 12.8983 10.2614C11.5162 9.11653 12.0966 7.65928 14.0039 6.3314C15.6774 5.16628 19.0084 5.63578 20.1888 6.5269C21.3691 7.41778 21.8277 8.66378 21.1767 9.63178Z" fill="#6699CC"/>
</svg>
