<svg width="32" height="32" viewBox="0 0 32 32" fill="none" xmlns="http://www.w3.org/2000/svg">
<path fill-rule="evenodd" clip-rule="evenodd" d="M5.98678 17.1504C6.02678 17.9764 6.85178 17.5944 7.22578 17.3364C7.58078 17.0914 7.68478 17.2954 7.71578 16.8114C7.74796 16.4942 7.76098 16.1753 7.75478 15.8564C7.20385 15.8012 6.65115 15.9429 6.19478 16.2564C5.96778 16.4214 5.54378 16.9464 5.98678 17.1564" fill="#F6D2A2"/>
<path d="M6.41596 17.7316C6.33441 17.7331 6.25362 17.7156 6.17996 17.6806C6.0958 17.6319 6.02631 17.5614 5.9788 17.4766C5.93128 17.3918 5.9075 17.2958 5.90996 17.1986C5.85539 17.1722 5.80842 17.1324 5.77344 17.0829C5.73846 17.0334 5.71662 16.9758 5.70996 16.9156C5.72488 16.7703 5.77126 16.63 5.84586 16.5045C5.92046 16.3789 6.0215 16.2711 6.14196 16.1886C6.61312 15.8628 7.18524 15.7163 7.75496 15.7756L7.82296 15.7816V15.8496C7.83174 16.0988 7.82406 16.3483 7.79996 16.5966C7.79396 16.6696 7.78896 16.7416 7.78396 16.8146C7.76196 17.1576 7.69796 17.2096 7.52096 17.2706C7.42799 17.3003 7.34001 17.3437 7.25996 17.3996C7.01184 17.5809 6.72115 17.6953 6.41596 17.7316ZM7.52596 15.9236C7.06667 15.9174 6.61699 16.0552 6.23996 16.3176C6.07796 16.4356 5.85296 16.7116 5.87196 16.9016C5.87763 16.9418 5.89438 16.9797 5.92034 17.0109C5.9463 17.0422 5.98045 17.0656 6.01896 17.0786L6.06196 17.0986V17.1456C6.07196 17.3516 6.13396 17.4836 6.24696 17.5396C6.46496 17.6476 6.87096 17.4816 7.17796 17.2706C7.27004 17.2066 7.37116 17.1567 7.47796 17.1226C7.59396 17.0826 7.61796 17.0736 7.63496 16.8046C7.63496 16.7316 7.64496 16.6586 7.65096 16.5846C7.67138 16.3659 7.68006 16.1462 7.67696 15.9266C7.62563 15.9246 7.57463 15.9236 7.52596 15.9236Z" fill="black"/>
<path fill-rule="evenodd" clip-rule="evenodd" d="M5.9873 17.1498C6.11286 17.1221 6.22735 17.0577 6.3163 16.9648L5.9873 17.1498Z" fill="#C6B198"/>
<path d="M5.98708 17.2292C5.96906 17.2285 5.95182 17.2217 5.93823 17.2098C5.92464 17.198 5.9155 17.1819 5.91235 17.1641C5.9092 17.1463 5.91221 17.128 5.92089 17.1122C5.92958 17.0964 5.9434 17.0841 5.96008 17.0772L6.01308 17.0582C6.10553 17.0371 6.18949 16.9887 6.25408 16.9192C6.25976 16.9098 6.26736 16.9016 6.2764 16.8952C6.28543 16.8889 6.2957 16.8845 6.30653 16.8824C6.31737 16.8802 6.32853 16.8804 6.3393 16.8828C6.35007 16.8853 6.36021 16.8899 6.36906 16.8965C6.37791 16.9031 6.38528 16.9115 6.39069 16.9212C6.3961 16.9308 6.39944 16.9414 6.40047 16.9524C6.40151 16.9634 6.40023 16.9745 6.39672 16.985C6.39321 16.9955 6.38754 17.0051 6.38008 17.0132C6.2976 17.1081 6.18801 17.1755 6.06608 17.2062L6.01508 17.2242C6.00613 17.2276 5.99664 17.2293 5.98708 17.2292Z" fill="black"/>
<path fill-rule="evenodd" clip-rule="evenodd" d="M7.89433 7.3093C4.73133 6.4203 7.08333 2.4003 9.62233 4.0523L7.89433 7.3093Z" fill="#6AD7E5"/>
<path d="M7.93352 7.39978L7.87252 7.38278C7.49184 7.31804 7.13939 7.14042 6.86087 6.87296C6.58236 6.60549 6.39062 6.26052 6.31052 5.88278C6.27296 5.49466 6.34452 5.10376 6.51713 4.75412C6.68975 4.40447 6.95656 4.10997 7.28752 3.90378C7.64632 3.67731 8.06493 3.56393 8.48898 3.57838C8.91304 3.59282 9.32296 3.73442 9.66552 3.98478L9.72552 4.02378L7.93352 7.39978ZM8.38252 3.73378C8.02391 3.73388 7.67304 3.8381 7.37252 4.03378C7.06669 4.22316 6.81976 4.49411 6.65953 4.81617C6.49929 5.13823 6.4321 5.49862 6.46552 5.85678C6.53738 6.19479 6.70743 6.50407 6.95435 6.74583C7.20127 6.98759 7.51406 7.15107 7.85352 7.21578L9.51852 4.07878C9.17908 3.86112 8.7857 3.74234 8.38252 3.73578V3.73378Z" fill="black"/>
<path fill-rule="evenodd" clip-rule="evenodd" d="M21.9443 3.75028C24.4443 1.99228 26.7093 5.95928 23.8003 6.95728L21.9443 3.75028Z" fill="#6AD7E5"/>
<path d="M23.7648 7.05165L21.8398 3.72665L21.8988 3.68565C22.219 3.4293 22.6082 3.27406 23.017 3.23969C23.4257 3.20532 23.8354 3.29338 24.1938 3.49265C24.5327 3.69144 24.8097 3.98039 24.9941 4.32733C25.1784 4.67427 25.2628 5.06557 25.2378 5.45765C25.1871 5.83126 25.0252 6.18099 24.7733 6.46148C24.5213 6.74197 24.1909 6.94027 23.8248 7.03065L23.7648 7.05165ZM22.0488 3.77265L23.8358 6.85965C24.1597 6.77144 24.4504 6.59 24.6719 6.33789C24.8935 6.08578 25.036 5.77411 25.0818 5.44165C25.1043 5.07941 25.0258 4.71805 24.8551 4.39779C24.6844 4.07752 24.4281 3.81091 24.1148 3.62765C23.795 3.4439 23.4277 3.35956 23.0598 3.38538C22.6918 3.41121 22.3399 3.54602 22.0488 3.77265Z" fill="black"/>
<path fill-rule="evenodd" clip-rule="evenodd" d="M22.4828 27.3174C23.1188 27.7104 24.2828 28.9004 23.3268 29.4774C22.4108 30.3164 21.8978 28.5564 21.0928 28.3124C21.2474 28.0631 21.4499 27.8468 21.6884 27.6761C21.927 27.5053 22.1969 27.3834 22.4828 27.3174Z" fill="#F6D2A2"/>
<path d="M22.8439 29.7812H22.8059C22.4449 29.7592 22.1449 29.4072 21.8549 29.0662C21.6558 28.7767 21.3854 28.5436 21.0699 28.3892L20.9639 28.3572L21.0299 28.2672C21.3561 27.7486 21.874 27.3798 22.4709 27.2412H22.4999L22.5249 27.2562C22.9319 27.5082 23.7719 28.2442 23.7679 28.9102C23.7658 29.0418 23.7281 29.1704 23.659 29.2823C23.5898 29.3943 23.4916 29.4855 23.3749 29.5462C23.2341 29.689 23.0443 29.773 22.8439 29.7812ZM21.2189 28.2812C21.5154 28.4559 21.7727 28.6897 21.9749 28.9682C22.2559 29.2982 22.5219 29.6102 22.8159 29.6282C22.9017 29.628 22.9865 29.6101 23.0651 29.5757C23.1438 29.5413 23.2145 29.4911 23.2729 29.4282L23.2849 29.4192C23.3801 29.3727 23.4606 29.3009 23.5178 29.2116C23.5749 29.1224 23.6064 29.0192 23.6089 28.9132C23.6089 28.3812 22.9369 27.7132 22.4649 27.4132C21.9547 27.5316 21.5091 27.8403 21.2189 28.2762V28.2812Z" fill="black"/>
<path d="M23.3272 29.5558C23.3127 29.5557 23.2985 29.5517 23.2862 29.5441C23.2738 29.5365 23.2638 29.5257 23.2572 29.5128C23.2107 29.4151 23.1696 29.315 23.1342 29.2128C23.0797 29.0205 22.9818 28.8434 22.8482 28.6948C22.8358 28.6798 22.8294 28.6608 22.8301 28.6414C22.8309 28.622 22.8387 28.6036 22.8522 28.5896C22.8657 28.5756 22.8839 28.5671 22.9032 28.5656C22.9226 28.5642 22.9418 28.57 22.9572 28.5818C23.1087 28.7464 23.2199 28.9439 23.2822 29.1588C23.3158 29.2541 23.3545 29.3476 23.3982 29.4388C23.4076 29.4575 23.4092 29.4791 23.4026 29.499C23.3961 29.5189 23.3819 29.5354 23.3632 29.5448C23.3523 29.5513 23.3399 29.5551 23.3272 29.5558Z" fill="black"/>
<path fill-rule="evenodd" clip-rule="evenodd" d="M11.1238 28.6619C10.3778 28.7769 9.95778 29.4509 9.33578 29.7929C8.74978 30.1429 8.52478 29.6809 8.47278 29.5869C8.38078 29.5449 8.38878 29.6259 8.24678 29.4869C7.69978 28.6249 8.81178 27.9999 9.38978 27.5719C10.1948 27.4089 10.6998 28.1069 11.1238 28.6619Z" fill="#F6D2A2"/>
<path d="M8.93901 30.0004C8.89142 30.0007 8.844 29.9947 8.79801 29.9824C8.71584 29.9556 8.63988 29.9126 8.57461 29.8559C8.50934 29.7992 8.45609 29.73 8.41801 29.6524H8.40001C8.33401 29.6524 8.28501 29.6384 8.18701 29.5394L8.17601 29.5264C7.65301 28.7004 8.54301 28.0734 9.13301 27.6584C9.20701 27.6064 9.27701 27.5584 9.34001 27.5104L9.35401 27.5004H9.37101C10.2 27.3324 10.724 28.0184 11.144 28.5694L11.263 28.7244L11.132 28.7444C10.7106 28.8456 10.327 29.0656 10.027 29.3784C9.82517 29.563 9.60503 29.7265 9.37001 29.8664C9.24086 29.9487 9.09205 29.995 8.93901 30.0004ZM8.41201 29.4944C8.44386 29.4945 8.4753 29.5016 8.50401 29.5154L8.52701 29.5264L8.54701 29.5614C8.57518 29.6235 8.61554 29.6794 8.6657 29.7256C8.71586 29.7718 8.7748 29.8074 8.83901 29.8304C8.91784 29.8451 8.99881 29.8438 9.07714 29.8266C9.15546 29.8094 9.22954 29.7767 9.29501 29.7304C9.52136 29.5952 9.73344 29.4374 9.92801 29.2594C10.2238 28.9638 10.5858 28.7431 10.984 28.6154C10.584 28.0894 10.122 27.5214 9.42201 27.6524C9.36101 27.6964 9.29501 27.7434 9.22201 27.7914C8.62201 28.2154 7.87001 28.7434 8.30301 29.4394C8.36501 29.5014 8.38001 29.5004 8.39301 29.5004L8.41201 29.4944Z" fill="black"/>
<path d="M8.47183 29.6652H8.46483C8.44403 29.6634 8.42479 29.6535 8.4113 29.6375C8.39781 29.6216 8.39117 29.601 8.39283 29.5802C8.42512 29.3705 8.51242 29.1731 8.64583 29.0082C8.70873 28.9211 8.76394 28.8288 8.81083 28.7322C8.82024 28.7146 8.83596 28.7012 8.85484 28.6947C8.87371 28.6882 8.89434 28.6891 8.91258 28.6972C8.93082 28.7053 8.94531 28.7201 8.95315 28.7384C8.96099 28.7568 8.96159 28.7774 8.95483 28.7962C8.90438 28.9012 8.84482 29.0016 8.77683 29.0962C8.65912 29.2402 8.5812 29.4126 8.55083 29.5962C8.54838 29.6154 8.53899 29.633 8.52443 29.6457C8.50987 29.6584 8.49116 29.6653 8.47183 29.6652Z" fill="black"/>
<path fill-rule="evenodd" clip-rule="evenodd" d="M8.02595 6.19974C7.60895 5.97874 7.30295 5.67974 7.55795 5.19974C7.79395 4.75274 8.23295 4.79974 8.64995 5.02174L8.02595 6.19974Z" fill="black"/>
<path fill-rule="evenodd" clip-rule="evenodd" d="M23.1406 5.77787C23.5576 5.55687 23.8636 5.25787 23.6086 4.77787C23.3726 4.33087 22.9336 4.37787 22.5166 4.59987L23.1406 5.77787Z" fill="black"/>
<path fill-rule="evenodd" clip-rule="evenodd" d="M26.0127 17.0459C25.9727 17.8719 25.1477 17.4899 24.7737 17.2319C24.4187 16.9869 24.3147 17.1909 24.2837 16.7069C24.2515 16.3897 24.2385 16.0708 24.2447 15.7519C24.7956 15.6967 25.3483 15.8384 25.8047 16.1519C26.0317 16.3169 26.4557 16.8419 26.0127 17.0519" fill="#F6D2A2"/>
<path d="M25.5836 17.627C25.275 17.5927 24.9807 17.4787 24.7296 17.296C24.6495 17.2402 24.5615 17.1967 24.4686 17.167C24.2916 17.105 24.2276 17.053 24.2056 16.711C24.2056 16.638 24.1956 16.566 24.1896 16.493C24.1655 16.2448 24.1578 15.9953 24.1666 15.746V15.678L24.2346 15.672C24.8043 15.6128 25.3764 15.7593 25.8476 16.085C25.968 16.1676 26.0691 16.2754 26.1437 16.401C26.2183 16.5265 26.2647 16.6668 26.2796 16.812C26.2729 16.8723 26.2511 16.9299 26.2161 16.9794C26.1811 17.0289 26.1341 17.0687 26.0796 17.095C26.082 17.1922 26.0583 17.2883 26.0107 17.3731C25.9632 17.4579 25.8937 17.5284 25.8096 17.577C25.7389 17.6103 25.6617 17.6273 25.5836 17.627ZM24.3206 15.827C24.3175 16.0467 24.3262 16.2663 24.3466 16.485C24.3526 16.558 24.3576 16.631 24.3626 16.705C24.3796 16.974 24.4036 16.982 24.5196 17.023C24.6264 17.0572 24.7275 17.1071 24.8196 17.171C25.1256 17.383 25.5326 17.548 25.7506 17.44C25.8636 17.384 25.9256 17.252 25.9356 17.046V16.999L25.9786 16.979C26.0171 16.9661 26.0512 16.9427 26.0772 16.9114C26.1032 16.8801 26.1199 16.8423 26.1256 16.802C26.1436 16.612 25.9196 16.336 25.7576 16.218C25.3379 15.926 24.8306 15.7869 24.3206 15.824V15.827Z" fill="black"/>
<path fill-rule="evenodd" clip-rule="evenodd" d="M26.0126 17.0463C25.887 17.0186 25.7725 16.9542 25.6836 16.8613L26.0126 17.0463Z" fill="#C6B198"/>
<path d="M26.0133 17.1236C26.0044 17.1252 25.9953 17.1252 25.9863 17.1236L25.9353 17.1056C25.8134 17.075 25.7038 17.0076 25.6213 16.9126C25.6139 16.9045 25.6082 16.8949 25.6047 16.8844C25.6012 16.8739 25.5999 16.8628 25.6009 16.8518C25.602 16.8409 25.6053 16.8302 25.6107 16.8206C25.6161 16.8109 25.6235 16.8026 25.6323 16.796C25.6412 16.7893 25.6513 16.7847 25.6621 16.7822C25.6729 16.7798 25.684 16.7796 25.6949 16.7818C25.7057 16.7839 25.716 16.7883 25.725 16.7946C25.734 16.801 25.7417 16.8092 25.7473 16.8186C25.8119 16.8881 25.8959 16.9365 25.9883 16.9576L26.0413 16.9766C26.058 16.9835 26.0718 16.9959 26.0805 17.0117C26.0892 17.0275 26.0922 17.0458 26.0891 17.0635C26.0859 17.0813 26.0768 17.0974 26.0632 17.1093C26.0496 17.1211 26.0324 17.1279 26.0143 17.1286L26.0133 17.1236Z" fill="black"/>
<path fill-rule="evenodd" clip-rule="evenodd" d="M15.6827 2.0791C18.8487 2.0791 21.8167 2.5321 23.3637 5.5741C24.7527 8.9831 24.2587 12.6601 24.4707 16.2631C24.6527 19.3571 25.0557 22.9311 23.6207 25.7991C22.1107 28.8151 18.3377 29.5741 15.2287 29.4631C12.7867 29.3761 9.83768 28.5791 8.45968 26.3481C6.84268 23.7311 7.60868 19.8391 7.72568 16.9271C7.86468 13.4781 6.79168 10.0171 7.92568 6.6421C9.10168 3.1421 12.2717 2.3491 15.6837 2.0791" fill="#6AD7E5"/>
<path d="M15.7696 29.55C15.5696 29.55 15.3896 29.55 15.2266 29.54C13.7266 29.486 10.0506 29.071 8.39361 26.388C7.08661 24.272 7.31961 21.347 7.52461 18.766C7.57661 18.117 7.62461 17.503 7.64861 16.923C7.67195 15.6989 7.61952 14.4746 7.49161 13.257C7.15149 11.0422 7.27407 8.78102 7.85161 6.616C8.09087 5.84445 8.48833 5.13126 9.01865 4.52191C9.54896 3.91257 10.2005 3.42047 10.9316 3.077C12.431 2.42137 14.0411 2.05592 15.6766 2H15.6826C18.7736 2 21.8526 2.429 23.4336 5.538V5.544C24.2768 8.0403 24.6312 10.6756 24.4776 13.306C24.4826 14.275 24.4886 15.278 24.5456 16.258C24.5626 16.558 24.5826 16.858 24.6026 17.158C24.7866 19.999 24.9946 23.22 23.6876 25.831C22.0586 29.092 17.9466 29.55 15.7696 29.55ZM15.6856 2.157C12.3916 2.418 9.18561 3.145 7.99861 6.666C7.42883 8.8109 7.30864 11.0504 7.6456 13.244C7.77305 14.4683 7.82448 15.6993 7.79961 16.93C7.77561 17.514 7.72761 18.13 7.67561 18.78C7.47561 21.337 7.24161 24.235 8.52161 26.307C10.1396 28.926 13.7496 29.332 15.2266 29.384C17.1486 29.453 21.8056 29.237 23.5446 25.763C24.8326 23.19 24.6256 19.992 24.4446 17.171C24.4246 16.871 24.4056 16.565 24.3876 16.271C24.3296 15.287 24.3246 14.282 24.3196 13.311C24.4721 10.702 24.1221 8.08797 23.2886 5.611C21.7496 2.576 18.7246 2.158 15.6856 2.157Z" fill="black"/>
<path fill-rule="evenodd" clip-rule="evenodd" d="M16.2419 6.32947C16.8099 9.62947 22.2119 8.76047 21.4359 5.42947C20.7359 2.44147 16.0529 3.26847 16.2419 6.32947Z" fill="white"/>
<path d="M18.8075 8.48457C18.4715 8.48583 18.1376 8.43108 17.8195 8.32258C17.3865 8.17935 17.0022 7.91782 16.7101 7.56756C16.418 7.21729 16.2297 6.79227 16.1665 6.34058V6.33258C16.1267 5.64203 16.3562 4.96294 16.8068 4.43813C17.2574 3.91332 17.8939 3.5837 18.5825 3.51858C19.221 3.38609 19.886 3.51018 20.4337 3.86404C20.9814 4.21789 21.3679 4.77307 21.5095 5.40957C21.6267 5.82404 21.6258 6.263 21.5069 6.67698C21.388 7.09096 21.1558 7.46349 20.8365 7.75257C20.2709 8.2338 19.5501 8.49384 18.8075 8.48457ZM16.3175 6.31958C16.3776 6.7433 16.5546 7.14187 16.8288 7.47046C17.103 7.79905 17.4634 8.04463 17.8695 8.17958C18.3534 8.34183 18.8709 8.37739 19.3724 8.28286C19.874 8.18832 20.3429 7.96685 20.7345 7.63958C21.0341 7.36799 21.2515 7.01797 21.3623 6.62915C21.4732 6.24033 21.4729 5.82825 21.3615 5.43958C21.2263 4.84067 20.8607 4.31912 20.3437 3.98784C19.8268 3.65656 19.2002 3.54222 18.5995 3.66958C17.9506 3.73111 17.3506 4.04135 16.9252 4.53531C16.4999 5.02928 16.2821 5.66866 16.3175 6.31958Z" fill="black"/>
<path fill-rule="evenodd" clip-rule="evenodd" d="M9.78809 6.8631C10.5241 9.7401 15.1301 9.0001 14.9561 6.1181C14.7481 2.6621 9.08309 3.3291 9.78709 6.8631" fill="white"/>
<path d="M12.2447 8.76079C11.7763 8.76528 11.3141 8.65326 10.8997 8.4348C10.6039 8.27419 10.3455 8.05276 10.1414 7.78509C9.93732 7.51742 9.79224 7.20957 9.7157 6.88179C9.60202 6.43392 9.61944 5.96282 9.76588 5.52456C9.91232 5.08631 10.1816 4.69936 10.5417 4.40979C10.9762 4.07849 11.4903 3.86761 12.0323 3.79844C12.5743 3.72927 13.1249 3.80424 13.6287 4.01579C14.0387 4.1949 14.3887 4.48805 14.6369 4.86034C14.8851 5.23264 15.0211 5.66841 15.0287 6.11579C15.052 6.76076 14.8278 7.39021 14.402 7.87525C13.9763 8.3603 13.3812 8.66422 12.7387 8.7248C12.5752 8.74954 12.4101 8.76158 12.2447 8.76079ZM9.8597 6.84679C10.0182 7.44976 10.4051 7.96737 10.9386 8.29008C11.472 8.61279 12.1101 8.71526 12.7177 8.5758C13.3235 8.52002 13.885 8.23487 14.2875 7.77869C14.6899 7.32251 14.9029 6.72979 14.8827 6.12179C14.8763 5.70108 14.749 5.29108 14.5161 4.94071C14.2831 4.59034 13.9542 4.3144 13.5687 4.14579C13.0898 3.94447 12.5663 3.87303 12.051 3.9387C11.5357 4.00436 11.0468 4.20481 10.6337 4.51979C10.2953 4.79275 10.0425 5.15718 9.90525 5.56972C9.76803 5.98226 9.75222 6.42553 9.8597 6.84679Z" fill="black"/>
<path fill-rule="evenodd" clip-rule="evenodd" d="M16.8943 10.2935C16.9417 10.7484 16.947 11.2067 16.9103 11.6625C16.8003 11.8695 16.5853 11.8915 16.4003 11.9755C16.2742 11.9557 16.1553 11.9041 16.0547 11.8256C15.9541 11.747 15.8751 11.6441 15.8253 11.5265C15.7978 11.0099 15.8115 10.492 15.8663 9.97754L16.8943 10.2935Z" fill="white"/>
<path d="M16.4114 12.057H16.3884C16.2486 12.0349 16.1169 11.9773 16.0057 11.8898C15.8946 11.8023 15.8077 11.6877 15.7534 11.557V11.547V11.536C15.7201 11.1823 15.7231 10.8261 15.7624 10.473C15.7754 10.31 15.7884 10.142 15.7934 9.97305V9.87305L16.9744 10.235V10.293C16.9744 10.435 16.9864 10.582 16.9984 10.737C17.0351 11.0491 17.0324 11.3646 16.9904 11.676V11.688L16.9844 11.699C16.9389 11.7741 16.8788 11.8394 16.8077 11.8909C16.7366 11.9424 16.6559 11.9792 16.5704 11.999C16.5234 12.016 16.4794 12.031 16.4364 12.051L16.4114 12.057ZM15.9024 11.506C15.9463 11.6054 16.0136 11.6926 16.0986 11.7602C16.1836 11.8277 16.2837 11.8737 16.3904 11.894C16.4314 11.877 16.4734 11.862 16.5134 11.847C16.6436 11.82 16.7586 11.7446 16.8354 11.636C16.8711 11.3415 16.8711 11.0436 16.8354 10.749C16.8254 10.612 16.8154 10.481 16.8124 10.349L15.9374 10.081C15.9304 10.217 15.9204 10.352 15.9104 10.481C15.8723 10.8215 15.8689 11.1649 15.9004 11.506H15.9024Z" fill="black"/>
<path d="M11.0583 7.23576C11.488 7.23576 11.8363 6.85878 11.8363 6.39376C11.8363 5.92873 11.488 5.55176 11.0583 5.55176C10.6286 5.55176 10.2803 5.92873 10.2803 6.39376C10.2803 6.85878 10.6286 7.23576 11.0583 7.23576Z" fill="black"/>
<path d="M11.4115 6.79812C11.5126 6.79812 11.5945 6.70231 11.5945 6.58412C11.5945 6.46593 11.5126 6.37012 11.4115 6.37012C11.3104 6.37012 11.2285 6.46593 11.2285 6.58412C11.2285 6.70231 11.3104 6.79812 11.4115 6.79812Z" fill="white"/>
<path d="M17.5736 7.0258C17.9961 7.0258 18.3386 6.64882 18.3386 6.1838C18.3386 5.71877 17.9961 5.3418 17.5736 5.3418C17.1511 5.3418 16.8086 5.71877 16.8086 6.1838C16.8086 6.64882 17.1511 7.0258 17.5736 7.0258Z" fill="black"/>
<path d="M17.9222 6.58816C18.0216 6.58816 18.1022 6.49235 18.1022 6.37416C18.1022 6.25597 18.0216 6.16016 17.9222 6.16016C17.8228 6.16016 17.7422 6.25597 17.7422 6.37416C17.7422 6.49235 17.8228 6.58816 17.9222 6.58816Z" fill="white"/>
<path fill-rule="evenodd" clip-rule="evenodd" d="M14.6707 10.2471C14.3317 11.0691 14.8597 12.7141 15.7807 11.5011C15.7531 10.9845 15.7668 10.4666 15.8217 9.95215L14.6707 10.2471Z" fill="white"/>
<path d="M15.1659 12.0126C15.0864 12.0122 15.0085 11.9908 14.9399 11.9506C14.7193 11.7271 14.5693 11.4436 14.5086 11.1354C14.448 10.8273 14.4794 10.5081 14.5989 10.2176L14.6139 10.1816L15.8999 9.84961V9.94961C15.8949 10.1196 15.8809 10.2896 15.8679 10.4496C15.8291 10.792 15.8257 11.1375 15.8579 11.4806V11.5126L15.8389 11.5386C15.5739 11.8996 15.3449 12.0126 15.1659 12.0126ZM14.7299 10.3126C14.6345 10.5648 14.6109 10.8385 14.6618 11.1033C14.7126 11.3681 14.8359 11.6137 15.0179 11.8126C15.2559 11.9486 15.5179 11.7126 15.6989 11.4776C15.67 11.1343 15.6744 10.7891 15.7119 10.4466C15.7219 10.3176 15.7319 10.1856 15.7389 10.0546L14.7299 10.3126Z" fill="black"/>
<path fill-rule="evenodd" clip-rule="evenodd" d="M14.7873 8.66305C14.6294 8.67789 14.4774 8.73003 14.3437 8.81519C14.21 8.90034 14.0984 9.01606 14.0182 9.1528C13.9381 9.28955 13.8915 9.4434 13.8825 9.60166C13.8734 9.75993 13.9022 9.91807 13.9663 10.0631C14.4013 10.8511 15.3733 9.99305 15.9793 10.0741C16.6793 10.0881 17.2473 10.8111 17.8063 10.2051C18.4283 9.53105 17.5383 8.87405 16.8423 8.58105L14.7873 8.66305Z" fill="#F6D2A2"/>
<path d="M17.3078 10.526C17.0846 10.5085 16.8669 10.4477 16.6668 10.347C16.4513 10.2399 16.2176 10.1741 15.9778 10.153H15.9688C15.7235 10.1532 15.4809 10.205 15.2568 10.305C14.7658 10.475 14.2088 10.667 13.8968 10.105C13.8212 9.9635 13.7828 9.8051 13.7853 9.64469C13.7877 9.48428 13.8309 9.32712 13.9108 9.188C13.995 9.02413 14.1184 8.88361 14.27 8.77893C14.4216 8.67426 14.5967 8.60867 14.7798 8.588L16.8568 8.5L16.8728 8.507C17.3898 8.725 17.9788 9.124 18.0798 9.59C18.0934 9.70252 18.0839 9.81663 18.052 9.92538C18.0201 10.0341 17.9664 10.1353 17.8942 10.2226C17.822 10.31 17.7328 10.3817 17.632 10.4336C17.5312 10.4854 17.4209 10.5161 17.3078 10.524V10.526ZM15.9848 10C16.2433 10.0212 16.4954 10.0911 16.7278 10.206C17.1208 10.371 17.4278 10.501 17.7488 10.156C17.8204 10.09 17.8743 10.0071 17.9054 9.91477C17.9365 9.8225 17.9439 9.72388 17.9268 9.628C17.8398 9.228 17.2848 8.859 16.8268 8.664L14.7908 8.745C14.6345 8.76468 14.4854 8.822 14.3561 8.91206C14.2269 9.00211 14.1214 9.1222 14.0488 9.262C13.9815 9.37811 13.9449 9.5094 13.9423 9.64356C13.9396 9.77772 13.9711 9.91035 14.0338 10.029C14.2818 10.478 14.7338 10.323 15.2038 10.159C15.4496 10.0501 15.716 9.99582 15.9848 10Z" fill="#231F20"/>
<path fill-rule="evenodd" clip-rule="evenodd" d="M14.7078 8.62966C14.6608 7.53466 16.7498 7.39966 16.9998 8.31466C17.2498 9.22966 14.8138 9.44266 14.7108 8.63066L14.7078 8.62966Z" fill="black"/>
</svg>
