<svg width="32" height="32" viewBox="0 0 32 32" fill="none" xmlns="http://www.w3.org/2000/svg">
<path d="M2.88618 10.5964L14.1282 16.3604C14.4382 16.5204 14.6342 16.8404 14.6342 17.1884V31.0344C14.6344 31.1979 14.5915 31.3585 14.5099 31.5001C14.4282 31.6417 14.3107 31.7593 14.1692 31.841C14.0276 31.9227 13.8671 31.9657 13.7036 31.9656C13.5402 31.9655 13.3796 31.9223 13.2382 31.8404L2.00018 25.3464C1.85853 25.2649 1.74087 25.1474 1.65906 25.0059C1.57725 24.8644 1.53418 24.7039 1.53418 24.5404V11.4244C1.53413 11.2651 1.57501 11.1084 1.6529 10.9695C1.73079 10.8305 1.84308 10.7138 1.97899 10.6307C2.11491 10.5476 2.2699 10.5008 2.4291 10.4948C2.58831 10.4888 2.74638 10.5238 2.88818 10.5964H2.88618Z" fill="#0161FE"/>
<path d="M4.45179 6.63607L15.5698 0.230065C15.7112 0.148441 15.8715 0.105469 16.0348 0.105469C16.198 0.105469 16.3584 0.148441 16.4998 0.230065L27.6138 6.63607C27.7584 6.71967 27.8778 6.84066 27.9594 6.98633C28.0411 7.132 28.082 7.29698 28.0779 7.46393C28.0739 7.63089 28.0249 7.79366 27.9362 7.93515C27.8475 8.07665 27.7223 8.19164 27.5738 8.26806L16.4538 13.9881C16.3223 14.0556 16.1766 14.0909 16.0288 14.0909C15.881 14.0909 15.7353 14.0556 15.6038 13.9881L4.48979 8.26806C4.3413 8.19164 4.21612 8.07665 4.12741 7.93515C4.0387 7.79366 3.98972 7.63089 3.98563 7.46393C3.98154 7.29698 4.02248 7.132 4.10415 6.98633C4.18583 6.84066 4.30522 6.71967 4.44979 6.63607H4.45179Z" fill="#94C7FF"/>
<path d="M29.1698 10.6004L17.9318 16.3624C17.7794 16.4404 17.6515 16.559 17.5622 16.7051C17.473 16.8512 17.4257 17.0192 17.4258 17.1904V31.0304C17.4252 31.194 17.4678 31.3549 17.5493 31.4967C17.6308 31.6386 17.7483 31.7565 17.8899 31.8384C18.0315 31.9204 18.1922 31.9636 18.3559 31.9636C18.5195 31.9635 18.6802 31.9204 18.8218 31.8384L30.0618 25.3484C30.2034 25.2668 30.3211 25.1494 30.4029 25.0079C30.4847 24.8664 30.5278 24.7058 30.5278 24.5424V11.4264C30.5278 11.2671 30.487 11.1104 30.4091 10.9714C30.3312 10.8324 30.2189 10.7158 30.083 10.6327C29.9471 10.5496 29.7921 10.5028 29.6329 10.4968C29.4737 10.4907 29.3156 10.5257 29.1738 10.5984L29.1698 10.6004Z" fill="#0161FE"/>
</svg>
