<svg width="32" height="32" viewBox="0 0 32 32" fill="none" xmlns="http://www.w3.org/2000/svg">
<path d="M15.7462 13.7228C15.7346 13.7502 15.7236 13.7857 15.7134 13.8284L15.7059 13.8618C15.7034 13.8734 15.701 13.8854 15.6986 13.8979L15.6918 13.9366L15.6852 13.9778L15.679 14.0214L15.6731 14.0675L15.6677 14.1158L15.6626 14.1664C15.6618 14.175 15.661 14.1837 15.6602 14.1925L15.6557 14.2463L15.6517 14.3022L15.6481 14.3601C15.6475 14.3699 15.647 14.3798 15.6465 14.3897L16.005 14.5633C15.9996 14.354 16.0063 14.156 16.0252 13.9742L16.0288 13.9418L16.0263 13.9715L16.0231 14.0206L16.0219 14.044L16.02 14.0974L16.0192 14.1275L16.0184 14.1944L16.0185 14.2505L16.0194 14.3118L16.0204 14.3557L16.0227 14.4258L16.0248 14.4756L16.0274 14.5277C16.0279 14.5366 16.0284 14.5456 16.0289 14.5547C16.0957 14.5003 16.1757 14.4288 16.2589 14.3507L16.3147 14.2977C16.324 14.2887 16.3334 14.2797 16.3427 14.2707L16.3987 14.2161L16.454 14.1611L16.5079 14.1067L16.5598 14.0533C16.5025 13.9361 16.4406 13.85 16.3831 13.7871L16.3641 13.767C16.3515 13.7541 16.3392 13.7424 16.3273 13.7317L16.3097 13.7163L16.2927 13.7024C16.2871 13.698 16.2817 13.6939 16.2764 13.6899L16.2608 13.6788L16.2461 13.6689L16.2257 13.6563L16.2076 13.6461L16.1874 13.6361L16.1722 13.6296L16.1446 13.6196L16.1244 13.6131L16.1048 13.6076L16.0898 13.6038L16.0735 13.6002C16.0707 13.5996 16.0679 13.599 16.065 13.5985L16.0471 13.5953L16.0283 13.5926C15.9291 13.5801 15.8011 13.5932 15.7462 13.7228Z" fill="url(#paint0_linear_16611_66461)"/>
<path d="M16.0987 15.6207C16.0821 15.5014 16.067 15.384 16.0534 15.2687C16.0423 15.1729 16.0332 15.0785 16.0258 14.985L16.0194 14.9012C16.0193 14.899 16.0192 14.8969 16.0192 14.8949C16.0114 14.7813 16.0057 14.6706 16.0032 14.5622L15.6454 14.3896L15.6444 14.4116L15.642 14.4571C15.6385 14.5428 15.6358 14.6339 15.6351 14.7296C15.6342 14.8375 15.6352 14.9501 15.6372 15.068C15.6397 15.1764 15.6441 15.2895 15.65 15.4046C15.6544 15.4784 15.6591 15.5528 15.6646 15.6282L15.6712 15.7154L16.1498 15.9579L16.1329 15.8449L16.0987 15.6207Z" fill="url(#paint1_linear_16611_66461)"/>
<path d="M16.791 18.4004L16.7984 18.426L16.846 18.5875C16.8528 18.6104 16.8597 18.6335 16.8667 18.6566L16.8894 18.7301L16.8972 18.7565C16.8986 18.7608 16.9 18.7651 16.9017 18.7694L16.9788 19.0165C17.0471 19.0024 17.1303 19.0279 17.2182 19.0662L17.2536 19.0822C17.1889 19.0043 17.0993 18.9522 16.9922 18.9402C17.2854 18.7447 17.4783 18.4928 17.4512 18.1924C17.4483 18.1658 17.4446 18.1383 17.4393 18.1104C17.4349 18.2212 17.3907 18.3025 17.2626 18.3893L17.2468 18.3998C17.3793 18.1666 17.4158 18.0084 17.4001 17.8038C17.3962 17.7553 17.3902 17.7038 17.3813 17.6484C17.3389 17.953 17.1753 18.1501 16.9361 18.2667L16.791 18.4004Z" fill="url(#paint2_linear_16611_66461)"/>
<path d="M16.6193 18.0438L16.5888 17.9297L16.5276 17.6986C16.4986 17.587 16.4705 17.4746 16.4427 17.3606C16.4149 17.2465 16.388 17.1318 16.3612 17.017C16.3339 16.8995 16.3084 16.7823 16.2838 16.6644L16.2595 16.5478L16.2128 16.3146C16.2045 16.2724 16.1969 16.2311 16.1895 16.1882C16.1761 16.1164 16.1637 16.0439 16.1513 15.9714L16.1488 15.9597L15.6729 15.7168L15.6744 15.7319C15.6746 15.7345 15.6747 15.7371 15.6746 15.7397C15.6842 15.8475 15.6935 15.957 15.7063 16.067C15.7187 16.1787 15.7329 16.2906 15.7495 16.4038C15.7637 16.4992 15.7788 16.5939 15.7946 16.6896L15.8049 16.7469C15.8269 16.8653 15.8503 16.9795 15.8757 17.0863C15.9042 17.2074 15.9347 17.321 15.9655 17.4268C15.9862 17.4962 16.0065 17.5629 16.0273 17.6262L16.0457 17.6795L16.0838 17.7856C16.1293 17.9094 16.1797 18.0295 16.2341 18.1467L16.7151 18.3905C16.6895 18.302 16.6658 18.2121 16.6397 18.121L16.6264 18.0699L16.6193 18.0438Z" fill="url(#paint3_linear_16611_66461)"/>
<path d="M16.2416 18.1621C16.2996 18.2862 16.3628 18.4063 16.4326 18.5216L16.4713 18.5843C16.4257 18.5659 16.3681 18.5568 16.3121 18.5527L16.2843 18.5511C16.2797 18.5509 16.2751 18.5507 16.2706 18.5505L16.2439 18.5499L16.2063 18.5501L16.1727 18.5511L16.1445 18.5525L16.1049 18.5558C16.1046 18.5558 16.1045 18.5558 16.1045 18.5558C16.3477 18.6402 16.561 18.7435 16.6956 18.9001C16.6421 18.959 16.542 19.0037 16.4162 19.0402C16.5099 19.0504 16.5812 19.0462 16.6327 19.0378L16.6535 19.034C16.6568 19.0333 16.66 19.0326 16.6631 19.0319L16.6803 19.0277L16.6953 19.0233L16.7134 19.017L16.7227 19.0132C16.6454 19.0776 16.597 19.1874 16.5568 19.3104L16.543 19.3544C16.5407 19.3618 16.5384 19.3692 16.5362 19.3766C16.6385 19.2094 16.7401 19.0986 16.8389 19.0563C16.9493 19.4224 17.077 19.812 17.2171 20.2186L17.2827 20.4074C17.3048 20.4707 17.3272 20.5344 17.3499 20.5985C17.3825 20.5564 17.3861 20.5099 17.3725 20.4625L17.3277 20.336L17.2766 20.188L17.1975 19.9534L17.1327 19.7567L17.0611 19.5347L16.9928 19.3182L16.93 19.1153L16.8839 18.9633L16.8463 18.8378C16.8413 18.8214 16.8367 18.8046 16.8317 18.7876L16.8176 18.7411L16.777 18.6009L16.7357 18.4567L16.7172 18.3902L16.7165 18.3892L16.2354 18.1455C16.2365 18.1497 16.2377 18.1532 16.2392 18.1567L16.2416 18.1621Z" fill="url(#paint4_linear_16611_66461)"/>
<path d="M16.2052 15.9693L16.2138 16.0159C16.2199 16.0476 16.2257 16.0797 16.2318 16.1119L16.2838 16.3789L16.3029 16.4719L16.3308 16.6033C16.3355 16.6255 16.3403 16.6478 16.3451 16.6704C16.3595 16.7369 16.3746 16.8044 16.3905 16.8734L16.4232 17.0134L16.4557 17.15C16.4613 17.1731 16.4669 17.1963 16.4726 17.2196L16.5075 17.361L16.5424 17.4983C16.5602 17.5677 16.5784 17.6383 16.5977 17.7103C16.6118 17.7634 16.6264 17.8173 16.6413 17.8718L16.6913 18.054L16.7291 18.1879L16.7682 18.3246C16.7748 18.3476 16.7814 18.3707 16.7882 18.3939C16.7886 18.3965 16.7891 18.3992 16.7905 18.4012L16.9356 18.2675L16.9321 18.2689L16.9244 18.2727C17.0966 18.1101 17.2442 17.7842 17.2779 17.4905C17.2935 17.3552 17.292 17.2112 17.2734 17.0542C17.26 16.9371 17.2362 16.8141 17.2035 16.681C17.1749 16.5659 17.1397 16.4438 17.0967 16.3152C17.07 16.3695 17.0322 16.4229 16.9859 16.4751L16.9607 16.5026L16.9521 16.5115L16.9339 16.5298C17.0609 16.3323 17.076 16.1203 17.0384 15.9002C17.0153 15.9655 16.9699 16.0622 16.8947 16.1491C16.8851 16.1607 16.8738 16.1721 16.8625 16.1834C16.8605 16.1848 16.8589 16.1867 16.8568 16.1887L16.8534 16.1916C16.8955 16.1214 16.9266 16.0547 16.9466 15.9872C16.9498 15.9778 16.9522 15.9683 16.9544 15.9588L16.9575 15.9444C16.9626 15.9226 16.966 15.9004 16.9694 15.8783L16.9742 15.8355C16.9761 15.8103 16.9767 15.7844 16.9754 15.7581L16.9721 15.7097C16.9718 15.7061 16.9714 15.7026 16.9708 15.699L16.9657 15.668C16.9649 15.6631 16.964 15.6582 16.963 15.6534C16.9531 15.5958 16.9423 15.5446 16.9312 15.4991L16.9207 15.4583L16.9113 15.4238L16.899 15.383L16.8831 15.3353C16.8814 15.3304 16.8797 15.3258 16.878 15.3214L16.8683 15.2973C16.8652 15.2899 16.8623 15.2831 16.8595 15.277L16.8516 15.2607C16.85 15.2669 16.8481 15.2734 16.8455 15.2799L16.841 15.2896C16.8111 15.36 16.7414 15.4564 16.6778 15.5242C16.6768 15.525 16.6758 15.5257 16.6756 15.5274L16.6625 15.5405C16.6602 15.5428 16.658 15.5453 16.6559 15.5479L16.6584 15.543L16.2012 15.9617C16.205 15.9649 16.2055 15.9676 16.2052 15.9693Z" fill="url(#paint5_linear_16611_66461)"/>
<path d="M16.0293 14.5544C16.0311 14.5878 16.0334 14.6226 16.0359 14.6588L16.0414 14.733C16.0424 14.7457 16.0435 14.7585 16.0445 14.7714L16.0513 14.851C16.0525 14.8646 16.0538 14.8783 16.055 14.8921L16.0561 14.9053C16.0564 14.9074 16.0567 14.9095 16.0573 14.9116C16.0611 14.9524 16.0654 14.9943 16.0702 15.0376L16.0803 15.1259C16.0839 15.156 16.0877 15.1866 16.0918 15.218L16.1108 15.3616C16.1197 15.4269 16.1293 15.4944 16.1401 15.5649L16.1484 15.6183C16.1566 15.6727 16.1657 15.7283 16.1753 15.7855L16.2055 15.9616L16.6627 15.543C16.758 15.3703 16.7789 15.2628 16.7776 15.1293C16.7771 15.1024 16.7758 15.0745 16.7741 15.0458L16.7721 15.0169C16.7648 14.8999 16.7508 14.7758 16.7308 14.656C16.712 14.5398 16.6891 14.4283 16.6628 14.3327C16.6461 14.2709 16.6284 14.2159 16.6104 14.1687C16.594 14.1279 16.5771 14.0904 16.5599 14.0547L16.5081 14.1076C16.4993 14.1165 16.4904 14.1255 16.4814 14.1346L16.4267 14.189L16.371 14.2436L16.315 14.2977C16.3056 14.3066 16.2963 14.3155 16.287 14.3243L16.2316 14.3763C16.1584 14.4442 16.0887 14.506 16.0293 14.5544Z" fill="url(#paint6_linear_16611_66461)"/>
<path d="M13.2575 13.9242C13.5113 13.9516 13.7343 14.0031 13.9263 14.0785C14.1253 14.154 14.2865 14.2569 14.41 14.3872C14.5403 14.5107 14.626 14.6719 14.6672 14.8708C14.6878 14.9875 14.6878 15.1212 14.6672 15.2721C14.6466 15.4231 14.6192 15.5774 14.5849 15.7352L14.1219 18.0298C14.1013 18.1601 14.0773 18.2939 14.0498 18.4311C14.0224 18.5614 14.0121 18.6815 14.019 18.7912C14.019 18.8118 14.0155 18.8358 14.0087 18.8633V18.925C14.0087 19.0005 14.0018 19.0759 13.9881 19.1514C13.9744 19.2268 13.9298 19.2783 13.8543 19.3057C13.8063 19.3263 13.7548 19.3366 13.7 19.3366H12.7945C12.7396 19.3297 12.6984 19.3126 12.671 19.2852C12.6298 19.2577 12.6024 19.22 12.5887 19.172C12.575 19.1171 12.5509 19.0725 12.5166 19.0382C12.5029 19.0245 12.4858 19.0142 12.4652 19.0073C12.4515 18.9936 12.4275 18.9902 12.3932 18.997C12.352 19.0108 12.3143 19.0279 12.28 19.0485C12.2457 19.0691 12.2114 19.0862 12.1771 19.0999C12.1359 19.1274 12.0913 19.1514 12.0433 19.172C12.0022 19.1925 11.9576 19.2131 11.9095 19.2337C11.8135 19.2749 11.714 19.3092 11.6111 19.3366C11.5082 19.3572 11.4054 19.3812 11.3025 19.4086C11.2476 19.4224 11.1961 19.4292 11.1481 19.4292C11.1069 19.4361 11.0624 19.4429 11.0143 19.4498H10.9526C10.932 19.4567 10.9114 19.4601 10.8909 19.4601H10.7777C10.7022 19.4738 10.6336 19.4738 10.5719 19.4601H10.4793C10.4313 19.4464 10.3832 19.4395 10.3352 19.4395C10.2941 19.4464 10.2529 19.4429 10.2117 19.4292C10.15 19.4155 10.0883 19.4018 10.0265 19.3881C9.96478 19.3812 9.90991 19.364 9.86189 19.3366C9.67667 19.2611 9.52575 19.1651 9.40914 19.0485C9.29252 18.925 9.21363 18.7638 9.17247 18.5649C9.15875 18.5169 9.14846 18.4654 9.1416 18.4105C9.1416 18.3556 9.13817 18.2973 9.13131 18.2356C9.12445 18.2013 9.12445 18.167 9.13131 18.1327C9.14503 18.0984 9.15189 18.0641 9.15189 18.0298C9.15189 18.0092 9.15532 17.9681 9.16218 17.9063C9.1759 17.8377 9.18962 17.7897 9.20334 17.7623C9.23078 17.6937 9.24793 17.6354 9.25479 17.5873L9.35769 17.361C9.39885 17.2787 9.44344 17.2066 9.49145 17.1449C9.64237 16.9459 9.80358 16.795 9.97507 16.6921C10.1466 16.5892 10.3592 16.5001 10.613 16.4246C10.7091 16.3903 10.8051 16.3663 10.9012 16.3526C10.9972 16.3389 11.0967 16.3217 11.1996 16.3011C11.2544 16.2874 11.3127 16.2805 11.3745 16.2805C11.4431 16.2737 11.5082 16.2634 11.57 16.2497C11.618 16.236 11.666 16.2325 11.714 16.2394C11.7621 16.2394 11.8169 16.2325 11.8787 16.2188C11.9267 16.2051 11.9747 16.1982 12.0227 16.1982C12.0708 16.1982 12.1222 16.1914 12.1771 16.1776C12.328 16.1433 12.4652 16.1159 12.5887 16.0953C12.719 16.0679 12.8425 16.0061 12.9591 15.9101C13.0277 15.8484 13.0826 15.7798 13.1237 15.7043C13.1306 15.6837 13.134 15.6666 13.134 15.6529C13.134 15.6391 13.1375 15.6254 13.1443 15.6117C13.158 15.598 13.1649 15.5774 13.1649 15.55C13.1718 15.5225 13.1786 15.502 13.1855 15.4882V15.3339C13.158 15.1281 13.0414 14.9875 12.8356 14.912C12.7807 14.8914 12.7087 14.8777 12.6195 14.8708C12.5372 14.8571 12.4515 14.8537 12.3623 14.8606C12.2731 14.8606 12.1839 14.8674 12.0948 14.8811C12.0124 14.8949 11.9404 14.912 11.8787 14.9326C11.8307 14.9463 11.7861 14.9669 11.7449 14.9943C11.7038 15.0149 11.6626 15.0389 11.6214 15.0664C11.5803 15.0938 11.5357 15.1315 11.4877 15.1795C11.4397 15.2276 11.4054 15.2721 11.3848 15.3133C11.3368 15.3819 11.2956 15.4471 11.2613 15.5088C11.227 15.5705 11.1687 15.6117 11.0864 15.6323C11.0315 15.646 10.9732 15.6529 10.9114 15.6529H10.3352C10.3009 15.6529 10.2632 15.6563 10.222 15.6632C10.1877 15.6632 10.1603 15.6597 10.1397 15.6529H10.0471C10.0334 15.646 10.0162 15.6426 9.99565 15.6426C9.97507 15.6426 9.95792 15.6357 9.9442 15.622C9.89618 15.6083 9.86875 15.5637 9.86189 15.4882C9.86189 15.4539 9.86875 15.4196 9.88247 15.3853C9.89618 15.351 9.9099 15.3202 9.92362 15.2927C9.95792 15.2173 9.99222 15.1487 10.0265 15.0869C10.0677 15.0183 10.1088 14.9566 10.15 14.9017L10.2323 14.7988C10.2598 14.7645 10.2872 14.7302 10.3146 14.6959C10.3832 14.6205 10.4656 14.5484 10.5616 14.4798C10.5822 14.473 10.6062 14.4558 10.6336 14.4284C10.6748 14.4009 10.7091 14.3769 10.7365 14.3564C10.7708 14.3358 10.8085 14.3152 10.8497 14.2946C10.98 14.2192 11.1138 14.1609 11.251 14.1197C11.3951 14.0717 11.5391 14.0271 11.6832 13.9859C11.7724 13.9653 11.8615 13.9516 11.9507 13.9448C12.0399 13.9379 12.1325 13.9242 12.2285 13.9036C12.256 13.8967 12.2971 13.8967 12.352 13.9036C12.4069 13.9105 12.4446 13.907 12.4652 13.8933C12.7465 13.8865 13.0106 13.8967 13.2575 13.9242ZM24.6972 14.0065C24.9304 14.0888 25.1328 14.1986 25.3043 14.3358C25.3591 14.3769 25.4106 14.425 25.4586 14.4798C25.5135 14.5279 25.5581 14.5793 25.5924 14.6342C25.6061 14.6685 25.6301 14.6959 25.6644 14.7165C25.7056 14.792 25.7399 14.8708 25.7673 14.9532C25.8016 15.0286 25.8393 15.1075 25.8805 15.1898C25.9011 15.2516 25.9148 15.3167 25.9216 15.3853C25.9354 15.4471 25.9491 15.5157 25.9628 15.5911C25.9765 15.6803 25.9834 15.7729 25.9834 15.869C25.9902 15.965 25.9971 16.061 26.004 16.1571C26.004 16.2119 25.9937 16.2737 25.9731 16.3423C25.9594 16.404 25.9559 16.4623 25.9628 16.5172L25.9422 16.6304C25.9422 16.6853 25.9285 16.747 25.9011 16.8156C25.8736 16.8842 25.8393 16.9288 25.7982 16.9494C25.7639 16.9768 25.7124 16.9974 25.6438 17.0111C25.5752 17.018 25.4998 17.0248 25.4174 17.0317H25.1808C25.1053 17.0248 25.0367 17.0214 24.975 17.0214H22.3202C22.2791 17.0214 22.2413 17.0283 22.207 17.042C22.1453 17.0694 22.1041 17.0969 22.0836 17.1243C22.0698 17.138 22.0493 17.1655 22.0218 17.2066C22.0012 17.2409 21.9909 17.2752 21.9909 17.3095C21.9978 17.3507 21.9978 17.3918 21.9909 17.433C21.9909 17.4673 21.9944 17.505 22.0012 17.5462C22.0218 17.7108 22.0595 17.848 22.1144 17.9578C22.1762 18.0607 22.2653 18.1533 22.382 18.2356C22.43 18.2699 22.4814 18.2939 22.5363 18.3076C22.598 18.3145 22.6564 18.3282 22.7112 18.3488C22.7661 18.3625 22.8381 18.3728 22.9273 18.3797C23.0234 18.3865 23.1091 18.3831 23.1846 18.3694H23.2772C23.3458 18.3556 23.4109 18.3419 23.4727 18.3282L23.6579 18.2665C23.7334 18.2322 23.8191 18.1876 23.9151 18.1327C24.0112 18.0778 24.0866 18.0229 24.1415 17.9681C24.1827 17.92 24.2273 17.8755 24.2753 17.8343C24.3233 17.7863 24.3747 17.752 24.4296 17.7314C24.5051 17.6971 24.5943 17.6834 24.6972 17.6902H25.119C25.1671 17.6834 25.2082 17.6868 25.2425 17.7005H25.3454C25.4072 17.7143 25.4517 17.7314 25.4792 17.752C25.4998 17.7657 25.5066 17.7966 25.4998 17.8446C25.4998 17.8926 25.4895 17.9338 25.4689 17.9681C25.414 18.0641 25.3557 18.1499 25.294 18.2253C25.2391 18.3008 25.1773 18.3762 25.1087 18.4517C24.9167 18.6781 24.7109 18.8598 24.4914 18.997C24.2718 19.1342 24.0077 19.2509 23.6991 19.3469C23.6167 19.3743 23.5378 19.3915 23.4624 19.3983C23.3869 19.4052 23.3046 19.4189 23.2154 19.4395C23.188 19.4464 23.1571 19.4464 23.1228 19.4395C23.0954 19.4395 23.0679 19.4429 23.0405 19.4498H22.9273C22.8862 19.4635 22.845 19.4669 22.8038 19.4601C22.7627 19.4601 22.725 19.4567 22.6907 19.4498C22.6358 19.4429 22.5878 19.4429 22.5466 19.4498C22.5054 19.4567 22.4608 19.4532 22.4128 19.4395C22.3785 19.4258 22.3408 19.4189 22.2996 19.4189C22.2585 19.4189 22.2242 19.4121 22.1967 19.3983C22.1213 19.3846 22.0458 19.3675 21.9704 19.3469C21.9018 19.3332 21.84 19.3092 21.7852 19.2749C21.7166 19.2474 21.6514 19.2234 21.5896 19.2028C21.5279 19.1754 21.473 19.1445 21.425 19.1102C21.2329 18.973 21.0683 18.8153 20.9311 18.6369C20.8008 18.4517 20.7047 18.239 20.643 17.9989C20.6224 17.9235 20.6087 17.848 20.6018 17.7726C20.6018 17.6902 20.5915 17.6079 20.571 17.5256V17.4536C20.5778 17.4261 20.5813 17.3987 20.5813 17.3713C20.5744 17.2889 20.5744 17.1998 20.5813 17.1037L20.6224 16.8156C20.6293 16.7813 20.6327 16.7436 20.6327 16.7024C20.6396 16.6613 20.6499 16.6235 20.6636 16.5892L20.6944 16.4658L20.7768 16.2188C20.8248 16.1022 20.8694 15.989 20.9105 15.8792C20.9517 15.7695 21.0031 15.6666 21.0649 15.5705C21.5039 14.8571 22.1076 14.3529 22.8759 14.058C22.9788 14.0168 23.0817 13.9894 23.1846 13.9756C23.2875 13.9551 23.3972 13.931 23.5138 13.9036C23.5687 13.8967 23.6202 13.8933 23.6682 13.8933C23.7162 13.8933 23.7677 13.8899 23.8225 13.883C24.1724 13.8762 24.4639 13.9173 24.6972 14.0065ZM3.38705 12C3.50367 12 3.58598 12.024 3.634 12.072C3.67516 12.1063 3.69917 12.1578 3.70603 12.2264C3.71289 12.2881 3.72318 12.3499 3.7369 12.4116C3.75062 12.5213 3.76434 12.6345 3.77806 12.7512C3.79864 12.8609 3.81579 12.9741 3.82951 13.0907C3.90497 13.5229 3.96671 13.9619 4.01472 14.4078C4.0696 14.8537 4.13477 15.2962 4.21023 15.7352C4.23767 15.8724 4.25825 16.013 4.27197 16.1571C4.28569 16.3011 4.30627 16.4417 4.33371 16.5789C4.34057 16.6132 4.34743 16.6475 4.35429 16.6818C4.36115 16.7161 4.3783 16.7436 4.40574 16.7642C4.41946 16.771 4.42975 16.7779 4.4366 16.7847C4.45032 16.7916 4.46747 16.7882 4.48805 16.7745C4.54293 16.7607 4.58752 16.7196 4.62182 16.651C4.65612 16.5824 4.69042 16.5206 4.72472 16.4658C4.80704 16.308 4.88592 16.1536 4.96138 16.0027C5.03684 15.8449 5.11916 15.6872 5.20834 15.5294C5.42785 15.1109 5.64737 14.6925 5.86688 14.274C6.09326 13.8487 6.3162 13.4234 6.53572 12.9981C6.5906 12.8883 6.64548 12.782 6.70035 12.6791C6.76209 12.5694 6.8204 12.4596 6.87528 12.3499C6.90272 12.295 6.93359 12.2401 6.96789 12.1852C7.00219 12.1303 7.05021 12.0857 7.11194 12.0514C7.15996 12.0171 7.21484 12 7.27658 12H9.04642C9.11502 12 9.16304 12.0137 9.19048 12.0412C9.25908 12.0823 9.27966 12.1612 9.25222 12.2778C9.23164 12.3876 9.21106 12.5008 9.19048 12.6174L8.88179 14.1609L8.11005 17.9886L7.93513 18.8839C7.92141 18.9593 7.90426 19.0348 7.88368 19.1102C7.8631 19.1788 7.8288 19.2303 7.78078 19.2646C7.73276 19.2989 7.67788 19.3195 7.61614 19.3263H6.63862C6.5906 19.3126 6.54601 19.3023 6.50485 19.2954C6.47055 19.2886 6.44311 19.2646 6.42253 19.2234C6.40195 19.1891 6.39509 19.1445 6.40195 19.0897C6.41567 19.0348 6.42939 18.9765 6.44311 18.9147L6.54601 18.3899L7.08108 15.7455C7.0948 15.6494 7.10851 15.5603 7.12223 15.4779C7.14281 15.3888 7.15996 15.2996 7.17368 15.2104C7.1874 15.1555 7.20112 15.1007 7.21484 15.0458C7.22856 14.984 7.23542 14.9257 7.23542 14.8708C7.22856 14.8228 7.22856 14.7714 7.23542 14.7165C7.24914 14.6616 7.23885 14.6273 7.20455 14.6136C7.18397 14.6067 7.16682 14.6102 7.1531 14.6239L7.12223 14.6548C7.08793 14.6822 7.05707 14.7165 7.02963 14.7577L6.96789 14.8606C6.90615 14.9635 6.84441 15.0698 6.78267 15.1795C6.72779 15.2893 6.66605 15.3991 6.59746 15.5088L6.53572 15.6323C6.522 15.6734 6.50142 15.7146 6.47398 15.7558C6.4191 15.8449 6.36765 15.9341 6.31963 16.0233C6.27847 16.1125 6.23045 16.2017 6.17558 16.2908C6.16186 16.3114 6.15157 16.3354 6.14471 16.3629C6.13785 16.3834 6.12756 16.404 6.11384 16.4246C6.07268 16.4863 6.03495 16.5515 6.00065 16.6201C5.97321 16.6887 5.93548 16.7573 5.88746 16.8259C5.8463 16.8876 5.80857 16.9528 5.77427 17.0214C5.74684 17.09 5.71254 17.1586 5.67138 17.2272C5.5479 17.4261 5.43471 17.6285 5.33181 17.8343C5.22892 18.0332 5.12259 18.2322 5.01283 18.4311C4.99225 18.4517 4.97853 18.4723 4.97167 18.4928C4.97167 18.5134 4.96138 18.534 4.9408 18.5546C4.89278 18.63 4.8482 18.7089 4.80704 18.7912C4.77274 18.8667 4.73158 18.9422 4.68356 19.0176C4.65612 19.0656 4.62868 19.1102 4.60124 19.1514C4.5738 19.1925 4.54293 19.2268 4.50863 19.2543C4.46747 19.2817 4.42975 19.2989 4.39545 19.3057C4.36115 19.3057 4.31656 19.3126 4.26168 19.3263H4.02501C3.977 19.3263 3.91869 19.3297 3.85009 19.3366H3.65458C3.59284 19.3366 3.53454 19.3332 3.47966 19.3263C3.42478 19.3195 3.38705 19.3057 3.36647 19.2852C3.31845 19.2509 3.28758 19.2131 3.27386 19.172C3.267 19.1239 3.25328 19.0691 3.2327 19.0073C3.21898 18.925 3.20869 18.8427 3.20183 18.7604C3.19497 18.6712 3.18125 18.5855 3.16067 18.5031L3.15038 18.4105C3.1298 18.3282 3.11608 18.2425 3.10923 18.1533C3.10237 18.0572 3.08865 17.9681 3.06807 17.8857V17.8343C3.06807 17.8137 3.06464 17.7931 3.05778 17.7726C3.0372 17.7108 3.02348 17.6457 3.01662 17.5771C3.00976 17.5085 2.99947 17.4399 2.98575 17.3713V17.3198C2.98575 17.2992 2.98232 17.2821 2.97546 17.2684C2.96174 17.1998 2.95145 17.1312 2.94459 17.0626C2.94459 16.994 2.9343 16.9254 2.91372 16.8568C2.88628 16.7196 2.86227 16.5755 2.84169 16.4246C2.82797 16.2737 2.80739 16.1262 2.77995 15.9821C2.75251 15.8106 2.7285 15.6357 2.70792 15.4574C2.6942 15.279 2.66334 15.1075 2.61532 14.9429C2.6016 14.8468 2.58102 14.7679 2.55358 14.7062C2.53986 14.6925 2.52614 14.6822 2.51242 14.6753C2.50556 14.6616 2.49184 14.6616 2.47126 14.6753C2.4301 14.6959 2.40266 14.7302 2.38894 14.7782C2.38208 14.8263 2.36836 14.8743 2.34778 14.9223C2.32034 14.9703 2.30319 15.0218 2.29633 15.0766C2.28947 15.1247 2.28261 15.1761 2.27575 15.231C2.26203 15.3064 2.24488 15.3819 2.2243 15.4574C2.21059 15.5328 2.19344 15.6083 2.17286 15.6837L1.6275 18.4208L1.5246 18.925L1.48344 19.0897C1.47658 19.1445 1.456 19.1891 1.4217 19.2234C1.3874 19.2714 1.3291 19.3023 1.24678 19.316C1.19876 19.3297 1.14731 19.3366 1.09243 19.3366C1.03755 19.3297 0.982673 19.3263 0.927794 19.3263H0.186931C0.125192 19.3195 0.0771733 19.2989 0.042874 19.2646C0.00857481 19.2303 -0.00514488 19.1788 0.00171496 19.1102L0.042874 18.8839L0.2178 17.9784L0.989533 14.1506L1.27765 12.71C1.28451 12.6688 1.29137 12.6208 1.29823 12.5659C1.31195 12.5042 1.32567 12.4459 1.33938 12.391C1.3531 12.3361 1.36682 12.2847 1.38054 12.2367C1.40112 12.1818 1.41827 12.1406 1.43199 12.1132C1.47315 12.0652 1.53489 12.0309 1.61721 12.0103C1.63779 12.0034 1.65151 12.0034 1.65837 12.0103C1.67209 12.0103 1.68924 12.0069 1.70982 12H3.38705ZM31.3672 14.0682C31.621 14.1986 31.7993 14.3907 31.9022 14.6445C31.9365 14.7199 31.9571 14.8022 31.964 14.8914C31.9777 14.9737 31.988 15.0595 31.9949 15.1487C32.0017 15.2035 32.0017 15.255 31.9949 15.303C31.988 15.351 31.988 15.3991 31.9949 15.4471C31.9811 15.4882 31.9777 15.5157 31.9846 15.5294C31.9777 15.6254 31.964 15.7249 31.9434 15.8278C31.9228 15.9307 31.9022 16.0302 31.8817 16.1262L31.7067 17.042L31.3672 18.7089C31.3397 18.8393 31.3123 18.9662 31.2849 19.0897C31.2574 19.2063 31.1923 19.2817 31.0894 19.316C31.0482 19.3297 31.0002 19.3366 30.9453 19.3366H30.225C30.1427 19.3366 30.0707 19.3332 30.0089 19.3263C29.9472 19.3126 29.9026 19.2817 29.8752 19.2337C29.8546 19.1925 29.8477 19.1411 29.8546 19.0794C29.8683 19.0108 29.882 18.9387 29.8957 18.8633L30.0398 18.143L30.3485 16.6098C30.3965 16.356 30.4308 16.1228 30.4514 15.9101C30.4788 15.6906 30.4548 15.5054 30.3794 15.3545C30.3108 15.2173 30.1907 15.1212 30.0192 15.0664C29.9849 15.0526 29.9472 15.0458 29.906 15.0458C29.8717 15.0458 29.8374 15.0389 29.8031 15.0252C29.7688 15.0183 29.7242 15.0183 29.6694 15.0252C29.6213 15.0252 29.5836 15.0286 29.5562 15.0355C29.5219 15.0423 29.4944 15.0458 29.4739 15.0458C29.4533 15.0458 29.4327 15.0492 29.4121 15.0561C29.2475 15.0972 29.1103 15.1521 29.0005 15.2207C28.7467 15.3785 28.5684 15.6083 28.4655 15.9101C28.3694 16.2119 28.2837 16.5515 28.2082 16.9288L27.951 18.215L27.8275 18.8427C27.8138 18.9044 27.8001 18.9662 27.7863 19.0279C27.7726 19.0897 27.752 19.1411 27.7246 19.1823C27.6766 19.2577 27.6114 19.3023 27.5291 19.316C27.4536 19.3297 27.361 19.3366 27.2513 19.3366H26.7368C26.6613 19.3366 26.5859 19.3332 26.5104 19.3263C26.4349 19.3195 26.3869 19.2954 26.3664 19.2543C26.3252 19.1925 26.3183 19.1034 26.3458 18.9868C26.3732 18.8701 26.3972 18.7604 26.4178 18.6575L26.6956 17.2581L27.1484 14.9943L27.2616 14.4695C27.2753 14.3941 27.289 14.3255 27.3027 14.2637C27.3164 14.202 27.3473 14.1506 27.3953 14.1094C27.409 14.0888 27.4331 14.0751 27.4674 14.0682C27.5017 14.0545 27.536 14.0442 27.5703 14.0374H27.6217C27.656 14.0305 27.6903 14.0271 27.7246 14.0271H28.27C28.3248 14.0271 28.3763 14.0305 28.4243 14.0374C28.4792 14.0374 28.5272 14.0442 28.5684 14.058C28.6095 14.0785 28.6335 14.1094 28.6404 14.1506C28.6541 14.1917 28.661 14.2397 28.661 14.2946C28.661 14.3221 28.6575 14.3461 28.6507 14.3666C28.6438 14.3872 28.6438 14.4078 28.6507 14.4284C28.6575 14.4627 28.6644 14.4833 28.6713 14.4901C28.685 14.497 28.7021 14.5073 28.7227 14.521C28.7913 14.5279 28.8565 14.5038 28.9182 14.449C28.98 14.3872 29.0417 14.3392 29.1034 14.3049C29.3161 14.1677 29.5425 14.058 29.7826 13.9756C29.8512 13.9551 29.9163 13.9413 29.9781 13.9345C30.0467 13.9276 30.1221 13.9173 30.2044 13.9036C30.225 13.8967 30.2559 13.8967 30.297 13.9036C30.3382 13.9036 30.3656 13.9002 30.3794 13.8933C30.791 13.8796 31.1202 13.9379 31.3672 14.0682ZM12.6916 16.8671C12.6641 16.8739 12.6401 16.8808 12.6195 16.8876C12.599 16.8876 12.5715 16.8911 12.5372 16.8979C12.4892 16.9116 12.4378 16.9219 12.3829 16.9288C12.328 16.9357 12.2697 16.9459 12.208 16.9597C12.1874 16.9665 12.1565 16.97 12.1153 16.97C12.0193 16.9905 11.9267 17.0043 11.8375 17.0111C11.7483 17.018 11.6592 17.0351 11.57 17.0626L11.4054 17.1037C11.3573 17.1106 11.3093 17.1243 11.2613 17.1449C11.1035 17.2066 10.9629 17.2992 10.8394 17.4227C10.7159 17.5462 10.6439 17.7177 10.6233 17.9372C10.6165 18.0538 10.637 18.1499 10.6851 18.2253C10.7125 18.3008 10.7708 18.3625 10.86 18.4105C10.9492 18.4517 11.0486 18.4826 11.1584 18.5031C11.2682 18.5237 11.3848 18.5306 11.5082 18.5237C11.6386 18.51 11.7621 18.486 11.8787 18.4517C12.0708 18.3968 12.2285 18.3111 12.352 18.1944C12.4823 18.071 12.5921 17.92 12.6813 17.7417C12.7019 17.6937 12.719 17.6457 12.7327 17.5976C12.7465 17.5428 12.767 17.4879 12.7945 17.433L12.815 17.3404C12.8288 17.3061 12.8391 17.2684 12.8459 17.2272C12.8528 17.1792 12.8562 17.138 12.8562 17.1037C12.8562 17.0626 12.8596 17.0248 12.8665 16.9905C12.8734 16.9562 12.8631 16.9288 12.8356 16.9082C12.8082 16.8808 12.7602 16.8671 12.6916 16.8671ZM23.6167 14.9635C23.5962 14.9772 23.5721 14.9806 23.5447 14.9737C23.5173 14.9669 23.4933 14.9669 23.4727 14.9737C23.4315 14.9875 23.3904 14.9978 23.3492 15.0046C23.308 15.0046 23.2703 15.0115 23.236 15.0252C22.9136 15.1212 22.6529 15.3099 22.454 15.5911C22.4334 15.6186 22.4094 15.6563 22.382 15.7043C22.3545 15.7455 22.3339 15.7901 22.3202 15.8381C22.3065 15.8792 22.2996 15.9204 22.2996 15.9616C22.2996 16.0027 22.3168 16.037 22.3511 16.0645C22.3991 16.0988 22.4711 16.1159 22.5672 16.1159H24.2856C24.3953 16.109 24.4708 16.0782 24.5119 16.0233C24.5737 15.9547 24.5943 15.8724 24.5737 15.7763C24.56 15.6734 24.5497 15.598 24.5428 15.55C24.4811 15.3648 24.3816 15.2241 24.2444 15.1281C24.1072 15.0252 23.898 14.9703 23.6167 14.9635Z" fill="black"/>
<path d="M20.4315 13.8136C20.4168 13.8197 20.4009 13.8272 20.3837 13.8363L20.357 13.851C20.3386 13.8616 20.319 13.8736 20.2983 13.8871L20.2664 13.9083L20.2329 13.9316L20.1979 13.957L20.1613 13.9843C20.1551 13.9891 20.1488 13.9939 20.1425 13.9988L20.1037 14.0291L20.0636 14.0613L20.0222 14.0955L19.9796 14.1314L19.9358 14.1692L19.8908 14.2087L19.8447 14.25C19.8369 14.257 19.8291 14.2641 19.8213 14.2713L19.972 14.6958C20.1351 14.5218 20.2989 14.3669 20.4596 14.2349L20.5162 14.189L20.5203 14.1859L20.4814 14.2175L20.4432 14.2505L20.4019 14.2879L20.3627 14.3246L20.3297 14.3563L20.3061 14.3795L20.2548 14.4309L20.2129 14.4739L20.1525 14.5376L20.1204 14.5721L20.087 14.6085L20.0346 14.6667L19.9981 14.708C20.0356 14.7115 20.0767 14.7146 20.1205 14.7172L20.188 14.7208L20.2588 14.7238L20.3323 14.726L20.4076 14.7277L20.484 14.7287C20.4968 14.7288 20.5097 14.7289 20.5225 14.729L20.5994 14.7291C20.6122 14.7291 20.625 14.729 20.6377 14.729L20.7135 14.7282C20.726 14.7281 20.7385 14.7279 20.7508 14.7277L20.8239 14.7261C20.8839 14.5473 20.8976 14.4036 20.8929 14.2962L20.8913 14.2691L20.889 14.2436C20.8886 14.2394 20.8881 14.2354 20.8876 14.2314L20.8844 14.2084L20.8807 14.187C20.8801 14.1836 20.8794 14.1803 20.8788 14.177L20.8746 14.1582L20.8703 14.141L20.866 14.1256L20.8616 14.1118L20.8536 14.0894L20.847 14.0738L20.8314 14.0417L20.8224 14.0246L20.8148 14.0111L20.806 13.9963L20.796 13.9804L20.7848 13.9638L20.7725 13.9466C20.7037 13.854 20.5863 13.7497 20.4315 13.8136Z" fill="url(#paint7_linear_16611_66461)"/>
<path d="M19.2056 15.6226C19.287 15.5134 19.3681 15.407 19.4487 15.3032C19.5327 15.1958 19.6175 15.0927 19.7032 14.9925C19.7083 14.9863 19.7134 14.9801 19.7183 14.9752C19.8022 14.8775 19.8856 14.7839 19.9697 14.6946L19.8187 14.2715L19.8005 14.2884L19.7624 14.3231C19.6915 14.3893 19.617 14.4605 19.5403 14.5369C19.4971 14.58 19.4533 14.6244 19.4088 14.6701L19.3189 14.7632C19.3037 14.779 19.2885 14.7949 19.2731 14.811C19.189 14.9003 19.1027 14.9949 19.0161 15.0922C18.9609 15.1551 18.9056 15.2188 18.8501 15.2838L18.7861 15.3592L18.9788 15.9346L19.0549 15.8303L19.2056 15.6226Z" fill="url(#paint8_linear_16611_66461)"/>
<path d="M17.5551 18.4098L17.5265 18.4627L17.4507 18.6041C17.438 18.628 17.4253 18.652 17.4125 18.6763L17.3724 18.7534C17.3648 18.7676 17.3573 18.7804 17.351 18.7948L17.3089 18.8761L17.2168 19.055C17.2918 19.1036 17.3419 19.2084 17.3858 19.3262C17.3956 19.2121 17.3649 19.099 17.2883 19.0042C17.6796 19.0797 18.035 19.0302 18.2518 18.7669C18.2706 18.7432 18.2896 18.7181 18.3074 18.6915C18.2156 18.7774 18.1151 18.8076 17.9421 18.7753L17.9226 18.7715C18.2145 18.689 18.3696 18.5906 18.5195 18.4135C18.5549 18.3714 18.5909 18.3251 18.6278 18.2734C18.3517 18.4849 18.0634 18.5137 17.7782 18.4175L17.5551 18.4098Z" fill="url(#paint9_linear_16611_66461)"/>
<path d="M17.6864 18.0122L17.7677 17.8695L17.9019 17.6349C17.9672 17.5219 18.0339 17.4092 18.1021 17.2953C18.1704 17.1814 18.24 17.0677 18.3096 16.954C18.3809 16.8377 18.4534 16.723 18.5273 16.6086C18.5996 16.4953 18.6747 16.3824 18.7482 16.2706C18.775 16.23 18.8017 16.1907 18.8299 16.1503C18.8761 16.0819 18.9237 16.0137 18.9713 15.9455L18.9786 15.9341L18.7884 15.3604L18.7777 15.3737C18.7758 15.376 18.7738 15.3782 18.7716 15.3802C18.6937 15.4745 18.6142 15.5701 18.5371 15.6688C18.4584 15.7686 18.3809 15.87 18.3043 15.9744C18.2399 16.0624 18.1768 16.1506 18.1135 16.2402L18.0763 16.2946C17.9999 16.4073 17.928 16.5179 17.8637 16.624C17.7904 16.7441 17.7247 16.8598 17.6654 16.9694C17.6269 17.0418 17.5902 17.1116 17.5567 17.179C17.5288 17.2362 17.5021 17.295 17.4756 17.3523C17.4139 17.4881 17.359 17.6248 17.3096 17.7624L17.5032 18.3408L17.5409 18.2721L17.6179 18.134C17.6308 18.1108 17.6437 18.0874 17.6566 18.0639L17.6864 18.0122Z" fill="url(#paint10_linear_16611_66461)"/>
<path d="M17.3023 17.781C17.2505 17.9269 17.2059 18.0738 17.1705 18.2222L17.1519 18.3033C17.1345 18.2631 17.1064 18.2216 17.0749 18.1824L17.0555 18.1592C17.0523 18.1554 17.049 18.1516 17.0457 18.1479L17.0257 18.1258L17.0057 18.1048L16.986 18.085L16.9579 18.0578L16.9323 18.0343L16.9043 18.0098L16.8792 17.989C17.0079 18.2502 17.0976 18.5028 17.0815 18.7358C16.9916 18.7407 16.8755 18.6972 16.7452 18.6265C16.8013 18.6953 16.8528 18.7438 16.8962 18.7778L16.9157 18.7925C16.9188 18.7948 16.9219 18.797 16.925 18.7991L16.9426 18.811L16.9588 18.8211L16.9737 18.8296L16.987 18.8365L16.9988 18.8422L17.009 18.8465C17.0106 18.8472 17.012 18.8478 17.0134 18.8483C16.9043 18.8391 16.7833 18.8851 16.6584 18.9484L16.6166 18.9701L16.5745 18.9928C16.7898 18.9394 16.9596 18.9309 17.0728 18.9754C17.0172 19.0806 16.9612 19.1884 16.9049 19.2984L16.8202 19.4652C16.6928 19.7178 16.5637 19.9816 16.4334 20.2542L16.3463 20.4373C16.3172 20.4987 16.288 20.5606 16.2588 20.6228C16.3184 20.6149 16.3583 20.5803 16.385 20.5313L16.4836 20.3222L16.5744 20.1342L16.6904 19.8981L16.7928 19.6928L16.8943 19.4922L16.9908 19.3041L17.1246 19.0468L17.2196 18.8668L17.2523 18.8054L17.2804 18.7534L17.306 18.7047L17.3451 18.6326L17.4251 18.4856C17.4387 18.4608 17.4523 18.4358 17.4661 18.4107L17.504 18.3424L17.5042 18.3411L17.3106 17.7627C17.3081 17.767 17.3063 17.7707 17.3047 17.7747L17.3023 17.781Z" fill="url(#paint11_linear_16611_66461)"/>
<path d="M19.0167 15.9875L18.9865 16.0318C18.9663 16.0623 18.9454 16.0926 18.9247 16.1234L18.8254 16.2732L18.7545 16.3797L18.7365 16.4073C18.7095 16.4486 18.6825 16.4906 18.6552 16.5332L18.5723 16.6631C18.5172 16.7497 18.4618 16.8389 18.4052 16.9313L18.3625 17.0013C18.2947 17.1124 18.2247 17.2289 18.1543 17.348L18.0733 17.4864C18.0324 17.5563 17.991 17.6276 17.9494 17.7009C17.9247 17.744 17.8998 17.7878 17.8749 17.8322L17.7517 18.052L17.7139 18.1204L17.6372 18.2599C17.6115 18.307 17.5856 18.3545 17.5596 18.4025C17.5578 18.405 17.5561 18.4076 17.5557 18.4103L17.7787 18.418C17.7748 18.416 17.7707 18.4154 17.7655 18.4132C18.0333 18.4191 18.4111 18.274 18.6716 18.0644C18.7916 17.9679 18.9048 17.8508 19.0146 17.7096C19.0969 17.6047 19.1754 17.4867 19.2548 17.3536C19.3233 17.2383 19.3919 17.1119 19.4595 16.9742C19.3949 16.9968 19.322 17.0098 19.2433 17.0149L19.2012 17.0171C19.1918 17.0176 19.1826 17.0175 19.1729 17.0175L19.1579 17.0177C19.4171 16.9597 19.5977 16.801 19.7422 16.5939C19.6718 16.6281 19.5584 16.6699 19.4288 16.6801C19.4119 16.6818 19.3938 16.682 19.3756 16.6821C19.3729 16.6817 19.3701 16.6819 19.3669 16.6818L19.3618 16.6814C19.4515 16.6584 19.5296 16.6295 19.5993 16.591C19.6093 16.5859 19.6188 16.5802 19.6281 16.5743L19.642 16.5652C19.6635 16.5517 19.6838 16.5365 19.7041 16.5214L19.7421 16.4908C19.7708 16.4658 19.7986 16.4378 19.824 16.4067L19.8403 16.3879C19.8429 16.3848 19.8453 16.3816 19.8477 16.3782L19.8682 16.3492C19.8715 16.3446 19.8747 16.3399 19.8777 16.3353C19.9162 16.28 19.9488 16.2292 19.9763 16.183L19.9878 16.1634C20.0027 16.1378 20.0158 16.1146 20.0274 16.0927L20.041 16.0668L20.0615 16.0252C20.0657 16.0166 20.0696 16.0084 20.073 16.0005L20.079 15.9865L20.0892 15.9613C20.0922 15.9535 20.0948 15.9463 20.097 15.9399L20.0999 15.9307C20.0938 15.9344 20.0871 15.9381 20.0798 15.9412L20.0685 15.9455C19.9885 15.9784 19.8557 16.0007 19.7507 16.0047C19.7494 16.0045 19.748 16.0043 19.7464 16.0055L19.7255 16.0056C19.7218 16.0058 19.718 16.006 19.7143 16.0064L19.7201 16.0044L19.0194 15.9782C19.02 15.9838 19.0182 15.9864 19.0167 15.9875Z" fill="url(#paint12_linear_16611_66461)"/>
<path d="M19.9977 14.708C19.9727 14.7364 19.9468 14.7661 19.9201 14.7973L19.8656 14.8614L19.809 14.9291L19.7405 15.0118C19.7391 15.0137 19.7377 15.0156 19.7364 15.0178C19.6974 15.0656 19.6573 15.1158 19.616 15.1686L19.553 15.2497C19.5424 15.2636 19.5316 15.2776 19.5208 15.2918L19.4303 15.4114L19.3712 15.4907C19.3412 15.531 19.3107 15.5726 19.2796 15.6156L19.2483 15.659C19.2169 15.7022 19.1853 15.7465 19.1533 15.7921L19.0883 15.8849L19.0215 15.9808L19.7222 16.007C19.9361 15.9437 20.0383 15.8738 20.1433 15.7653C20.1643 15.7433 20.1855 15.7198 20.2068 15.6953L20.2282 15.6705C20.3153 15.5705 20.4026 15.4594 20.4818 15.3471C20.5589 15.2387 20.6291 15.1306 20.6838 15.0328C20.7195 14.9699 20.749 14.9115 20.7719 14.8592C20.7912 14.8133 20.8074 14.7697 20.8219 14.7273L20.7493 14.7286L20.6745 14.7294L20.5984 14.7296L20.5217 14.7293C20.5089 14.7292 20.4961 14.7291 20.4833 14.729L20.4069 14.7279L20.3317 14.7262C20.3193 14.7258 20.307 14.7255 20.2948 14.7251L20.2226 14.7225C20.2108 14.722 20.1991 14.7214 20.1876 14.7209L20.1201 14.7173C20.0763 14.7147 20.0352 14.7116 19.9977 14.708Z" fill="url(#paint13_linear_16611_66461)"/>
<defs>
<linearGradient id="paint0_linear_16611_66461" x1="34.5371" y1="75.5188" x2="150.735" y2="37.6273" gradientUnits="userSpaceOnUse">
<stop stop-color="#F69923"/>
<stop offset="0.3123" stop-color="#F79A23"/>
<stop offset="0.8383" stop-color="#E97826"/>
</linearGradient>
<linearGradient id="paint1_linear_16611_66461" x1="26.5319" y1="633.786" x2="169.103" y2="67.7658" gradientUnits="userSpaceOnUse">
<stop offset="0.3233" stop-color="#9E2064"/>
<stop offset="0.6302" stop-color="#C92037"/>
<stop offset="0.7514" stop-color="#CD2335"/>
<stop offset="1" stop-color="#E97826"/>
</linearGradient>
<linearGradient id="paint2_linear_16611_66461" x1="39.9279" y1="293.379" x2="133.587" y2="-162.762" gradientUnits="userSpaceOnUse">
<stop stop-color="#282662"/>
<stop offset="0.0954839" stop-color="#662E8D"/>
<stop offset="0.7882" stop-color="#9F2064"/>
<stop offset="0.9487" stop-color="#CD2032"/>
</linearGradient>
<linearGradient id="paint3_linear_16611_66461" x1="47.1877" y1="471.569" x2="254.487" y2="-32.518" gradientUnits="userSpaceOnUse">
<stop offset="0.3233" stop-color="#9E2064"/>
<stop offset="0.6302" stop-color="#C92037"/>
<stop offset="0.7514" stop-color="#CD2335"/>
<stop offset="1" stop-color="#E97826"/>
</linearGradient>
<linearGradient id="paint4_linear_16611_66461" x1="56.3183" y1="207.772" x2="223.243" y2="-0.205745" gradientUnits="userSpaceOnUse">
<stop stop-color="#282662"/>
<stop offset="0.0954839" stop-color="#662E8D"/>
<stop offset="0.7882" stop-color="#9F2064"/>
<stop offset="0.9487" stop-color="#CD2032"/>
</linearGradient>
<linearGradient id="paint5_linear_16611_66461" x1="59.5226" y1="604.659" x2="211.934" y2="-116.804" gradientUnits="userSpaceOnUse">
<stop offset="0.3233" stop-color="#9E2064"/>
<stop offset="0.6302" stop-color="#C92037"/>
<stop offset="0.7514" stop-color="#CD2335"/>
<stop offset="1" stop-color="#E97826"/>
</linearGradient>
<linearGradient id="paint6_linear_16611_66461" x1="32.7188" y1="902.314" x2="176.154" y2="67.3685" gradientUnits="userSpaceOnUse">
<stop offset="0.3233" stop-color="#9E2064"/>
<stop offset="0.6302" stop-color="#C92037"/>
<stop offset="0.7514" stop-color="#CD2335"/>
<stop offset="1" stop-color="#E97826"/>
</linearGradient>
<linearGradient id="paint7_linear_16611_66461" x1="37.661" y1="70.1922" x2="188.474" y2="29.9955" gradientUnits="userSpaceOnUse">
<stop stop-color="#F69923"/>
<stop offset="0.3123" stop-color="#F79A23"/>
<stop offset="0.8383" stop-color="#E97826"/>
</linearGradient>
<linearGradient id="paint8_linear_16611_66461" x1="-82.3168" y1="671.166" x2="224.541" y2="108.964" gradientUnits="userSpaceOnUse">
<stop offset="0.3233" stop-color="#9E2064"/>
<stop offset="0.6302" stop-color="#C92037"/>
<stop offset="0.7514" stop-color="#CD2335"/>
<stop offset="1" stop-color="#E97826"/>
</linearGradient>
<linearGradient id="paint9_linear_16611_66461" x1="-11.8753" y1="154.329" x2="126.693" y2="-78.4068" gradientUnits="userSpaceOnUse">
<stop stop-color="#282662"/>
<stop offset="0.0954839" stop-color="#662E8D"/>
<stop offset="0.7882" stop-color="#9F2064"/>
<stop offset="0.9487" stop-color="#CD2032"/>
</linearGradient>
<linearGradient id="paint10_linear_16611_66461" x1="32.6947" y1="523.514" x2="343.876" y2="-3.24069" gradientUnits="userSpaceOnUse">
<stop offset="0.3233" stop-color="#9E2064"/>
<stop offset="0.6302" stop-color="#C92037"/>
<stop offset="0.7514" stop-color="#CD2335"/>
<stop offset="1" stop-color="#E97826"/>
</linearGradient>
<linearGradient id="paint11_linear_16611_66461" x1="62.3961" y1="238.865" x2="233.078" y2="-15.0726" gradientUnits="userSpaceOnUse">
<stop stop-color="#282662"/>
<stop offset="0.0954839" stop-color="#662E8D"/>
<stop offset="0.7882" stop-color="#9F2064"/>
<stop offset="0.9487" stop-color="#CD2032"/>
</linearGradient>
<linearGradient id="paint12_linear_16611_66461" x1="-70.8457" y1="467.579" x2="287.886" y2="-107.233" gradientUnits="userSpaceOnUse">
<stop offset="0.3233" stop-color="#9E2064"/>
<stop offset="0.6302" stop-color="#C92037"/>
<stop offset="0.7514" stop-color="#CD2335"/>
<stop offset="1" stop-color="#E97826"/>
</linearGradient>
<linearGradient id="paint13_linear_16611_66461" x1="-214.793" y1="360.83" x2="14.9499" y2="-17.8077" gradientUnits="userSpaceOnUse">
<stop offset="0.3233" stop-color="#9E2064"/>
<stop offset="0.6302" stop-color="#C92037"/>
<stop offset="0.7514" stop-color="#CD2335"/>
<stop offset="1" stop-color="#E97826"/>
</linearGradient>
</defs>
</svg>
