<svg width="14" height="14" viewBox="0 0 14 14" fill="none" xmlns="http://www.w3.org/2000/svg">
<path d="M2.28497 11.3504C1.64835 10.6603 1.16121 9.83003 0.875 8.91118L1.8955 7.51665C2.12066 7.20896 2.12066 6.79088 1.8955 6.48319L0.875 5.08866C1.16121 4.1698 1.64835 3.33959 2.28497 2.64946L3.99991 2.83601C4.37913 2.87726 4.74136 2.6681 4.89521 2.31905L5.59194 0.738341C6.04505 0.636817 6.51627 0.583252 7 0.583252C7.48373 0.583252 7.95495 0.636817 8.40806 0.738341L9.10479 2.31905C9.25864 2.6681 9.62087 2.87726 10.0001 2.83601L11.715 2.64946C12.3517 3.33959 12.8388 4.1698 13.125 5.08866L12.1045 6.48319C11.8793 6.79088 11.8793 7.20896 12.1045 7.51665L13.125 8.91118C12.8388 9.83003 12.3517 10.6603 11.715 11.3504L10.0001 11.1638C9.62087 11.1226 9.25864 11.3317 9.10479 11.6808L8.40806 13.2615C7.95495 13.363 7.48373 13.4166 7 13.4166C6.51627 13.4166 6.04505 13.363 5.59194 13.2615L4.89521 11.6808C4.74136 11.3317 4.37913 11.1226 3.99991 11.1638L2.28497 11.3504ZM7 9.33325C8.28866 9.33325 9.33333 8.28858 9.33333 6.99992C9.33333 5.71125 8.28866 4.66658 7 4.66658C5.71134 4.66658 4.66667 5.71125 4.66667 6.99992C4.66667 8.28858 5.71134 9.33325 7 9.33325Z" fill="#3C3C3C"/>
</svg>
