<svg width="14" height="14" viewBox="0 0 14 14" fill="none" xmlns="http://www.w3.org/2000/svg">
<path d="M7.00008 1.16687C6.67791 1.16687 6.41675 1.42804 6.41675 1.7502V6.41687H1.75008C1.42792 6.41687 1.16675 6.67804 1.16675 7.0002C1.16675 7.32237 1.42792 7.58354 1.75008 7.58354H6.41675V12.2502C6.41675 12.5724 6.67791 12.8335 7.00008 12.8335C7.32225 12.8335 7.58341 12.5724 7.58341 12.2502V7.58354H12.2501C12.5722 7.58354 12.8334 7.32237 12.8334 7.0002C12.8334 6.67804 12.5722 6.41687 12.2501 6.41687H7.58341V1.7502C7.58341 1.42804 7.32225 1.16687 7.00008 1.16687Z" fill="#6C87FF"/>
</svg>
