<svg width="17" height="17" viewBox="0 0 17 17" fill="none" xmlns="http://www.w3.org/2000/svg">
<g clip-path="url(#clip0_12347_30624)">
<path d="M2.61839 6.00239C2.93742 5.24204 3.40215 4.55147 3.98639 3.9696C4.5685 3.38527 5.25935 2.92053 6.01999 2.6016C7.58758 1.95034 9.34782 1.93857 10.924 2.5688C10.9398 3.08678 11.1569 3.5782 11.5291 3.93877C11.9013 4.29933 12.3994 4.50065 12.9176 4.5C14.0264 4.5 14.9176 3.6088 14.9176 2.5C14.9176 1.3912 14.0264 0.5 12.9176 0.5C12.3664 0.5 11.868 0.7208 11.5072 1.08C9.56239 0.3016 7.32879 0.3136 5.39919 1.1272C4.44719 1.5272 3.59119 2.1032 2.85519 2.8384C2.11205 3.58176 1.52301 4.46455 1.12187 5.43611C0.720722 6.40767 0.515371 7.44888 0.517596 8.49999H2.11759C2.11759 7.63119 2.28639 6.79119 2.61839 6.00239ZM14.416 10.9976C14.0952 11.7592 13.6344 12.444 13.048 13.0304C12.4616 13.6168 11.7768 14.0776 11.0144 14.3984C9.44679 15.0496 7.68655 15.0614 6.11039 14.4312C6.09458 13.9133 5.87764 13.422 5.50559 13.0615C5.13355 12.7009 4.63567 12.4995 4.11759 12.5C3.00879 12.5 2.11759 13.3912 2.11759 14.5C2.11759 15.6088 3.00879 16.5 4.11759 16.5C4.66879 16.5 5.16719 16.2792 5.52799 15.92C6.47819 16.303 7.49311 16.4999 8.51759 16.5C10.0909 16.5033 11.6301 16.0418 12.942 15.1733C14.2538 14.3048 15.2798 13.0681 15.8912 11.6184C16.3066 10.6313 16.5196 9.5709 16.5176 8.49999H14.9176C14.9194 9.35772 14.7489 10.2071 14.416 10.9976Z" fill="#3C3C3C"/>
<path d="M8.51775 5.0957C6.64125 5.0957 5.11426 6.6227 5.11426 8.4992C5.11426 10.3757 6.64125 11.9027 8.51775 11.9027C10.3942 11.9027 11.9212 10.3757 11.9212 8.4992C11.9212 6.6227 10.3942 5.0957 8.51775 5.0957Z" fill="#3C3C3C"/>
</g>
<defs>
<clipPath id="clip0_12347_30624">
<rect width="16" height="16" fill="white" transform="translate(0.517578 0.5)"/>
</clipPath>
</defs>
</svg>
