<svg width="16" height="16" viewBox="0 0 16 16" fill="none" xmlns="http://www.w3.org/2000/svg">
<path d="M7.06005 8.93999C7.33338 9.19999 7.33338 9.62666 7.06005 9.88666C6.80005 10.1467 6.37338 10.1467 6.11338 9.88666C5.48897 9.2613 5.13826 8.41371 5.13826 7.52999C5.13826 6.64627 5.48897 5.79868 6.11338 5.17332L8.47338 2.81332C9.09874 2.18891 9.94633 1.8382 10.8301 1.8382C11.7138 1.8382 12.5614 2.18891 13.1867 2.81332C13.8111 3.43868 14.1618 4.28627 14.1618 5.16999C14.1618 6.05371 13.8111 6.90131 13.1867 7.52666L12.1934 8.51999C12.2001 7.97332 12.1134 7.42666 11.9267 6.90666L12.2401 6.58666C12.4271 6.40187 12.5756 6.1818 12.677 5.93919C12.7783 5.69658 12.8305 5.43626 12.8305 5.17332C12.8305 4.91039 12.7783 4.65007 12.677 4.40746C12.5756 4.16485 12.4271 3.94477 12.2401 3.75999C12.0553 3.57294 11.8352 3.42442 11.5926 3.32306C11.35 3.2217 11.0897 3.16951 10.8267 3.16951C10.5638 3.16951 10.3035 3.2217 10.0609 3.32306C9.81825 3.42442 9.59817 3.57294 9.41338 3.75999L7.06005 6.11332C6.873 6.29811 6.72449 6.51818 6.62313 6.76079C6.52176 7.00341 6.46957 7.26372 6.46957 7.52666C6.46957 7.78959 6.52176 8.04991 6.62313 8.29252C6.72449 8.53513 6.873 8.75521 7.06005 8.93999ZM8.94005 6.11332C9.20005 5.85332 9.62672 5.85332 9.88672 6.11332C10.5111 6.73868 10.8618 7.58627 10.8618 8.46999C10.8618 9.35371 10.5111 10.2013 9.88672 10.8267L7.52672 13.1867C6.90137 13.8111 6.05377 14.1618 5.17005 14.1618C4.28633 14.1618 3.43874 13.8111 2.81338 13.1867C2.18897 12.5613 1.83826 11.7137 1.83826 10.83C1.83826 9.94627 2.18897 9.09868 2.81338 8.47332L3.80672 7.47999C3.80005 8.02666 3.88672 8.57332 4.07338 9.09999L3.76005 9.41332C3.573 9.59811 3.42449 9.81818 3.32312 10.0608C3.22176 10.3034 3.16957 10.5637 3.16957 10.8267C3.16957 11.0896 3.22176 11.3499 3.32312 11.5925C3.42449 11.8351 3.573 12.0552 3.76005 12.24C3.94483 12.427 4.16491 12.5756 4.40752 12.6769C4.65013 12.7783 4.91045 12.8305 5.17338 12.8305C5.43632 12.8305 5.69664 12.7783 5.93925 12.6769C6.18186 12.5756 6.40193 12.427 6.58672 12.24L8.94005 9.88666C9.1271 9.70187 9.27562 9.4818 9.37698 9.23919C9.47834 8.99657 9.53053 8.73626 9.53053 8.47332C9.53053 8.21039 9.47834 7.95007 9.37698 7.70746C9.27562 7.46485 9.1271 7.24477 8.94005 7.05999C8.8753 6.99932 8.82369 6.92601 8.78841 6.84459C8.75313 6.76318 8.73492 6.67539 8.73492 6.58666C8.73492 6.49793 8.75313 6.41014 8.78841 6.32872C8.82369 6.24731 8.8753 6.174 8.94005 6.11332Z" fill="#3C3C3C"/>
</svg>
