<svg width="16" height="16" viewBox="0 0 16 16" fill="none" xmlns="http://www.w3.org/2000/svg">
<path d="M8.36843 11.6843L8.40634 11.6852C8.79567 11.705 9.10523 12.0268 9.10523 12.4211C9.10523 12.828 8.77538 13.1579 8.36843 13.1579H1.7368C1.32985 13.1579 1 12.828 1 12.4211C1 12.0141 1.32985 11.6843 1.7368 11.6843H8.36843ZM11.3158 12.4211V5.35785L10.3631 6.31052L9.32111 5.26839L11.5316 3.05785L11.5592 3.03181C11.8484 2.77048 12.2949 2.77913 12.5736 3.05785L14.7842 5.26839C15.0719 5.55615 15.0719 6.02276 14.7842 6.31052C14.5054 6.58924 14.0589 6.59789 13.7697 6.33656L13.7422 6.31052L12.7895 5.35785V12.4211C12.7895 12.828 12.4596 13.1579 12.0527 13.1579C11.6458 13.1579 11.3158 12.828 11.3158 12.4211ZM6.89469 7.2632L6.9326 7.26414C7.32195 7.28385 7.63163 7.60575 7.63163 8C7.63163 8.40695 7.30164 8.7368 6.89469 8.7368H1.7368C1.32985 8.7368 1 8.40695 1 8C1 7.59305 1.32985 7.2632 1.7368 7.2632H6.89469ZM10.3631 6.31052C10.0753 6.59823 9.60885 6.59824 9.32111 6.31052C9.03335 6.02276 9.03335 5.55615 9.32111 5.26839L10.3631 6.31052ZM6.89469 2.84211C7.30164 2.84211 7.63163 3.17197 7.63163 3.57892C7.63163 3.98586 7.30164 4.31572 6.89469 4.31572H1.7368C1.32985 4.31572 1 3.98586 1 3.57892C1 3.17197 1.32985 2.84211 1.7368 2.84211H6.89469Z" fill="#666666"/>
</svg>
