<?xml version="1.0" standalone="no"?><!DOCTYPE svg PUBLIC "-//W3C//DTD SVG 1.1//EN" "http://www.w3.org/Graphics/SVG/1.1/DTD/svg11.dtd"><svg t="1744266956422" class="icon" viewBox="0 0 1024 1024" version="1.1" xmlns="http://www.w3.org/2000/svg" p-id="1095" xmlns:xlink="http://www.w3.org/1999/xlink" width="200" height="200"><path d="M162.304 147.072l-5.568 136.32L48 355.968l371.264 87.68-256.96-296.576z m310.72 4.416h44.8l68.672 126.144 72.192-44.032L564.864 64H424.576L331.712 234.88l72.064 44.096 69.248-127.488z m469.696 205.248l-108.608-72.704-5.632-136.192-257.28 295.872 371.52-86.976zM381.056 958.72l113.664-62.848 114.176 62.848-114.304-383.552-113.536 383.552z m-18.304-271.168H222.336l-24.96-46.72L270.08 508.16l-72.128-44.032-96.192 176.64 72.704 134.336h188.48v-87.488h-0.192z m356.416-180.608l72.704 133.76-24.96 46.208H628.672V774.4h185.856l72.768-134.272L791.04 462.72l-71.936 44.16z" p-id="1096"></path></svg>