<?xml version="1.0" standalone="no"?><!DOCTYPE svg PUBLIC "-//W3C//DTD SVG 1.1//EN" "http://www.w3.org/Graphics/SVG/1.1/DTD/svg11.dtd"><svg t="1744632142389" class="icon" viewBox="0 0 1024 1024" version="1.1" xmlns="http://www.w3.org/2000/svg" p-id="1357" xmlns:xlink="http://www.w3.org/1999/xlink" width="200" height="200"><path d="M414.500571 61.44V24.356571C414.500571 10.971429 425.398857 0 438.857143 0h146.285714c13.458286 0 24.356571 10.971429 24.356572 24.356571V61.44c168.228571 44.690286 292.571429 202.386286 292.571428 389.997714V731.428571h73.142857c13.458286 0 24.429714 10.971429 24.429715 24.356572V804.571429c0 13.458286-10.971429 24.356571-24.429715 24.356571H48.786286A24.356571 24.356571 0 0 1 24.356571 804.571429v-48.786286c0-13.458286 10.971429-24.356571 24.429715-24.356572h73.142857V451.437714c0-187.611429 124.342857-345.234286 292.571428-389.997714zM219.428571 731.428571h585.142858V451.584C804.571429 282.989714 673.645714 146.285714 512 146.285714S219.428571 282.989714 219.428571 451.584V731.428571z m170.642286 170.642286h243.858286c13.458286 0 24.356571 10.971429 24.356571 24.429714v48.713143c0 13.458286-10.971429 24.429714-24.356571 24.429715H390.070857A24.356571 24.356571 0 0 1 365.714286 975.213714v-48.713143c0-13.458286 10.971429-24.429714 24.356571-24.429714z" p-id="1358"></path></svg>