<svg width="16" height="16" viewBox="0 0 16 16" fill="none" xmlns="http://www.w3.org/2000/svg">
<path d="M13.1855 13.1855C13.5761 12.795 13.5761 12.1618 13.1855 11.7713L9.41429 8.00007L13.1855 4.22884C13.576 3.83832 13.576 3.20516 13.1855 2.81463C12.795 2.42411 12.1618 2.42411 11.7713 2.81463L8.00008 6.58586L4.22885 2.81462C3.83832 2.4241 3.20516 2.4241 2.81463 2.81462C2.42411 3.20515 2.42411 3.83831 2.81463 4.22884L6.58587 8.00007L2.81462 11.7713C2.4241 12.1618 2.4241 12.795 2.81462 13.1855C3.20515 13.5761 3.83831 13.5761 4.22883 13.1855L8.00008 9.41428L11.7713 13.1855C12.1618 13.576 12.795 13.576 13.1855 13.1855Z" fill="#999999"/>
</svg>
