<svg width="16" height="16" viewBox="0 0 16 16" fill="none" xmlns="http://www.w3.org/2000/svg">
<path d="M8.36843 4.31572L8.40634 4.31477C8.79567 4.29504 9.10523 3.97315 9.10523 3.57892C9.10523 3.17197 8.77538 2.84211 8.36843 2.84211H1.7368C1.32985 2.84211 1 3.17197 1 3.57892C1 3.98587 1.32985 4.31572 1.7368 4.31572H8.36843ZM11.3158 3.57892V10.6422L10.3631 9.68948L9.32111 10.7316L11.5316 12.9421L11.5592 12.9682C11.8484 13.2295 12.2949 13.2209 12.5736 12.9421L14.7842 10.7316C15.0719 10.4438 15.0719 9.97724 14.7842 9.68948C14.5054 9.41076 14.0589 9.40211 13.7697 9.66344L13.7422 9.68948L12.7895 10.6422V3.57892C12.7895 3.17198 12.4596 2.84214 12.0527 2.84211C11.6458 2.84211 11.3158 3.17197 11.3158 3.57892ZM6.89469 8.7368L6.9326 8.73586C7.32195 8.71615 7.63163 8.39425 7.63163 8C7.63163 7.59305 7.30164 7.2632 6.89469 7.2632H1.7368C1.32985 7.2632 1 7.59305 1 8C1 8.40695 1.32985 8.7368 1.7368 8.7368H6.89469ZM10.3631 9.68948C10.0753 9.40177 9.60885 9.40176 9.32111 9.68948C9.03335 9.97724 9.03335 10.4438 9.32111 10.7316L10.3631 9.68948ZM6.89469 13.1579C7.30164 13.1579 7.63163 12.828 7.63163 12.4211C7.63163 12.0141 7.30164 11.6843 6.89469 11.6843H1.7368C1.32985 11.6843 1 12.0141 1 12.4211C1 12.828 1.32985 13.1579 1.7368 13.1579H6.89469Z" fill="#666666"/>
</svg>
