<?xml version="1.0" standalone="no"?><!DOCTYPE svg PUBLIC "-//W3C//DTD SVG 1.1//EN" "http://www.w3.org/Graphics/SVG/1.1/DTD/svg11.dtd"><svg t="1744266961357" class="icon" viewBox="0 0 1024 1024" version="1.1" xmlns="http://www.w3.org/2000/svg" p-id="1253" xmlns:xlink="http://www.w3.org/1999/xlink" width="200" height="200"><path d="M886.976 183.36l-46.208-46.208a8.96 8.96 0 0 0-12.416 0l-691.2 691.328a8.96 8.96 0 0 0 0 12.416l46.208 46.208c3.456 3.328 8.96 3.328 12.416 0l691.2-691.328a8.448 8.448 0 0 0 0.32-12.032l-0.32-0.384zM285.056 442.24A157.12 157.12 0 1 0 284.928 128a157.12 157.12 0 0 0 0.128 314.24z m0-235.904a78.592 78.592 0 1 1-78.528 78.592 78.592 78.592 0 0 1 78.528-78.336v-0.256z m453.888 375.424A157.184 157.184 0 1 0 896 739.008c0-86.72-70.4-156.928-157.056-157.056v-0.256z m0 235.904a78.592 78.592 0 1 1 78.528-78.592c0 43.392-35.2 78.592-78.72 78.592h0.192z" p-id="1254"></path></svg>