<svg width="17" height="16" viewBox="0 0 17 16" fill="none" xmlns="http://www.w3.org/2000/svg">
<path d="M13.2 8C13.2 7.86739 13.2526 7.74021 13.3464 7.64645C13.4402 7.55268 13.5673 7.5 13.7 7.5C13.8326 7.5 13.9597 7.55268 14.0535 7.64645C14.1473 7.74021 14.2 7.86739 14.2 8V13.5C14.2 13.6326 14.1473 13.7598 14.0535 13.8536C13.9597 13.9473 13.8326 14 13.7 14H2.69995C2.56734 14 2.44017 13.9473 2.3464 13.8536C2.25263 13.7598 2.19995 13.6326 2.19995 13.5V2.5C2.19995 2.36739 2.25263 2.24021 2.3464 2.14645C2.44017 2.05268 2.56734 2 2.69995 2H8.19995C8.33256 2 8.45974 2.05268 8.5535 2.14645C8.64727 2.24021 8.69995 2.36739 8.69995 2.5C8.69995 2.63261 8.64727 2.75979 8.5535 2.85355C8.45974 2.94732 8.33256 3 8.19995 3H3.19995V13H13.2V8Z" fill="#858585"/>
<path d="M7.54294 8.66001L8.36794 8.54201L13.4359 3.47501C13.4837 3.42888 13.5218 3.37371 13.548 3.31271C13.5742 3.25171 13.588 3.1861 13.5886 3.11971C13.5891 3.05332 13.5765 2.98748 13.5513 2.92603C13.5262 2.86458 13.4891 2.80875 13.4421 2.76181C13.3952 2.71486 13.3394 2.67774 13.2779 2.65259C13.2165 2.62745 13.1506 2.6148 13.0842 2.61538C13.0178 2.61596 12.9522 2.62975 12.8912 2.65596C12.8302 2.68216 12.7751 2.72025 12.7289 2.76801L7.65994 7.83501L7.54194 8.66001H7.54294ZM14.1429 2.06001C14.2823 2.19931 14.3929 2.36471 14.4683 2.54676C14.5438 2.72881 14.5826 2.92394 14.5826 3.12101C14.5826 3.31807 14.5438 3.5132 14.4683 3.69525C14.3929 3.8773 14.2823 4.04271 14.1429 4.18201L8.95794 9.36701C8.88148 9.44375 8.78216 9.49358 8.67494 9.50901L7.02494 9.74501C6.94804 9.75605 6.86963 9.74902 6.79592 9.72448C6.72221 9.69994 6.65524 9.65857 6.6003 9.60364C6.54537 9.54871 6.504 9.48173 6.47946 9.40802C6.45492 9.33431 6.44789 9.2559 6.45894 9.17901L6.69494 7.52901C6.71009 7.4219 6.75956 7.3226 6.83594 7.24601L12.0219 2.06101C12.3032 1.7798 12.6847 1.62183 13.0824 1.62183C13.4802 1.62183 13.8616 1.7798 14.1429 2.06101V2.06001Z" fill="#858585"/>
</svg>
