<svg width="12" height="12" viewBox="0 0 12 12" fill="currentColor" xmlns="http://www.w3.org/2000/svg">
<g clip-path="url(#clip0_5385_27754)">
<path d="M5.29391 8.58105L5.29391 0.706261C5.29391 0.506155 5.36171 0.338536 5.49731 0.203405C5.63292 0.068274 5.80053 0.000473091 6.00017 2.26054e-06C6.19981 -0.00046857 6.36743 0.0673324 6.50303 0.203405C6.63863 0.339478 6.70643 0.507096 6.70643 0.706261V8.58105L8.71927 6.56821C8.86052 6.42696 9.02531 6.35916 9.21365 6.36481C9.40199 6.37046 9.56678 6.43826 9.70803 6.56821C9.84928 6.70946 9.92273 6.87732 9.92838 7.07177C9.93403 7.26623 9.86647 7.43385 9.72569 7.57463L6.49455 10.8058C6.42393 10.8764 6.34741 10.9265 6.26502 10.9562C6.18262 10.9859 6.09434 11.0005 6.00017 11C5.906 10.9995 5.81772 10.9849 5.73532 10.9562C5.65293 10.9275 5.57642 10.8773 5.50579 10.8058L2.27465 7.57463C2.1334 7.43338 2.0656 7.26576 2.07125 7.07177C2.0769 6.87779 2.15059 6.70993 2.29231 6.56821C2.43356 6.43873 2.59836 6.37093 2.78669 6.36481C2.97503 6.35869 3.13982 6.42649 3.28107 6.56821L5.29391 8.58105Z" fill="currentColor"/>
</g>
<defs>
<clipPath id="clip0_5385_27754">
<rect width="12" height="12" fill="currentColor"/>
</clipPath>
</defs>
</svg>
