<?xml version="1.0" standalone="no"?><!DOCTYPE svg PUBLIC "-//W3C//DTD SVG 1.1//EN" "http://www.w3.org/Graphics/SVG/1.1/DTD/svg11.dtd"><svg t="1744362625966" class="icon" viewBox="0 0 1097 1024" version="1.1" xmlns="http://www.w3.org/2000/svg" p-id="1341" xmlns:xlink="http://www.w3.org/1999/xlink" width="214.2578125" height="200"><path d="M914.285714 789.357714v106.642286a42.642286 42.642286 0 0 1-42.642285 42.715429H188.928A42.642286 42.642286 0 0 1 146.285714 896v-106.642286c0-11.776 9.508571-21.357714 21.357715-21.357714h42.642285c11.776 0 21.357714 9.508571 21.357715 21.357714v64h597.284571v-64c0-11.776 9.508571-21.357714 21.357714-21.357714h42.642286c11.776 0 21.357714 9.508571 21.357714 21.357714zM572.928 598.893714L701.44 470.454857a21.357714 21.357714 0 0 1 30.208 0l30.134857 30.134857a21.357714 21.357714 0 0 1 0 30.208l-211.163428 211.163429a21.211429 21.211429 0 0 1-30.134858 0L309.174857 530.797714a21.357714 21.357714 0 0 1 0-30.208l30.208-30.134857a21.357714 21.357714 0 0 1 30.134857 0l118.125715 118.052572V128c0-11.702857 9.508571-21.357714 21.284571-21.357714h42.715429c11.702857 0 21.284571 9.581714 21.284571 21.357714v470.893714z" p-id="1342"></path></svg>