<svg width="16" height="16" viewBox="0 0 16 16" fill="none" xmlns="http://www.w3.org/2000/svg">
<path d="M13.8527 13.8521C14.113 13.5918 14.113 13.1697 13.8527 12.9093L8.94335 7.99998L13.8526 3.09071C14.113 2.83036 14.113 2.40825 13.8526 2.1479C13.5923 1.88755 13.1702 1.88755 12.9098 2.1479L8.00054 7.05717L3.09126 2.14789C2.83091 1.88754 2.4088 1.88754 2.14845 2.14789C1.8881 2.40824 1.8881 2.83035 2.14845 3.0907L7.05773 7.99998L2.14839 12.9093C1.88804 13.1697 1.88804 13.5918 2.14839 13.8521C2.40874 14.1125 2.83085 14.1125 3.0912 13.8521L8.00054 8.94279L12.9099 13.8521C13.1702 14.1125 13.5923 14.1125 13.8527 13.8521Z" fill="#999999"/>
</svg>
