<svg width="16" height="16" viewBox="0 0 16 16" fill="none" xmlns="http://www.w3.org/2000/svg">
<path d="M11.2814 2.21287L13.7876 4.7242C13.8551 4.79166 13.9085 4.87175 13.945 4.9599C13.9814 5.04805 14.0001 5.14252 14 5.2379C13.9999 5.33329 13.981 5.42772 13.9443 5.51578C13.9077 5.60384 13.854 5.68381 13.7864 5.75111L5.51151 14H2.729C2.63339 14.0001 2.53868 13.9814 2.4503 13.9449C2.36192 13.9084 2.28159 13.8549 2.21389 13.7874C2.1462 13.7199 2.09247 13.6397 2.05577 13.5514C2.01907 13.4631 2.00012 13.3684 2 13.2728V10.4999L9.73761 2.72768L9.73551 2.72558L10.25 2.21287C10.387 2.07654 10.5724 2 10.7657 2C10.959 2 11.1444 2.07654 11.2814 2.21287ZM8.68581 5.48441L3.2468 10.9481L5.057 12.7583L10.517 7.31563L8.68581 5.48441ZM10.7648 3.39399L10.5878 3.57039V3.57429L9.53301 4.6339L11.3672 6.46812L12.6035 5.23631L10.7651 3.39399H10.7648Z" fill="#3C3C3C"/>
</svg>
