<svg width="400" height="400" viewBox="0 0 400 400" fill="none" xmlns="http://www.w3.org/2000/svg">
<path d="M192.08 324.56C283.582 324.56 357.76 319.08 357.76 312.32C357.76 305.56 283.582 300.08 192.08 300.08C100.577 300.08 26.3999 305.56 26.3999 312.32C26.3999 319.08 100.577 324.56 192.08 324.56Z" fill="#E6E6E6"/>
<path d="M301.6 147.44C312 147.44 320.4 155.6 320.4 165.68V293.2C320.4 301.84 313.12 308.88 304.24 308.88H124.64C115.68 308.88 108.48 301.84 108.48 293.2V143.84C108.48 135.12 115.76 128.16 124.64 128.16H194C204.96 128.16 213.92 136.8 213.92 147.44H301.6Z" fill="#231F20"/>
<path d="M137.6 288V89.4399H270L300.96 120.4V284.56L137.6 288Z" fill="#6682FF"/>
<path d="M137.6 288.56C137.44 288.56 137.28 288.48 137.2 288.4C137.12 288.32 137.04 288.16 137.04 288V89.4398C137.04 89.1198 137.28 88.7998 137.6 88.7998H270C270.16 88.7998 270.32 88.8798 270.4 88.9598L301.36 119.92C301.44 120 301.52 120.16 301.52 120.32V284.56C301.52 284.88 301.28 285.12 300.96 285.2L137.6 288.56ZM138.24 89.9998V287.36L300.4 284V120.64L269.84 90.0798L138.24 89.9998Z" fill="#231F20"/>
<path d="M284.56 131.28H151.2C150.88 131.28 150.56 131.04 150.56 130.64C150.56 130.24 150.8 130 151.2 130H284.56C284.88 130 285.2 130.24 285.2 130.64C285.2 131.04 284.88 131.28 284.56 131.28Z" fill="white"/>
<path d="M284.56 152.56H151.2C150.88 152.56 150.56 152.32 150.56 151.92C150.56 151.52 150.8 151.28 151.2 151.28H284.56C284.88 151.28 285.2 151.52 285.2 151.92C285.2 152.32 284.88 152.56 284.56 152.56Z" fill="white"/>
<path d="M284.56 173.84H151.2C150.88 173.84 150.56 173.6 150.56 173.2C150.56 172.8 150.8 172.56 151.2 172.56H284.56C284.88 172.56 285.2 172.8 285.2 173.2C285.2 173.6 284.88 173.84 284.56 173.84Z" fill="white"/>
<path d="M284.56 194.64H151.2C150.88 194.64 150.56 194.4 150.56 194C150.56 193.6 150.8 193.36 151.2 193.36H284.56C284.88 193.36 285.2 193.6 285.2 194C285.2 194.4 284.88 194.64 284.56 194.64Z" fill="white"/>
<path d="M192.16 109.2C190.64 109.12 189.2 108.24 188.56 106.88C187.44 104.72 183.92 92.48 183.28 87.12C182.96 84.88 184.08 83.28 186.4 82.64C188.88 81.92 191.76 82.8 192.4 84.32C193.04 85.84 194.32 88.8 194.4 89.04C194.56 89.36 194.4 89.68 194.08 89.84C193.76 90 193.44 89.84 193.28 89.6C193.2 89.36 192 86.48 191.28 84.88C190.88 83.92 188.64 83.28 186.64 83.84C184.96 84.32 184.24 85.36 184.4 86.96C185.04 92.16 188.48 104.16 189.6 106.32C190.08 107.44 191.36 108.16 192.56 107.92C193.6 107.68 193.76 106.48 193.68 105.84C193.52 102 188.32 87.76 188.08 87.12L189.2 86.72C189.76 88.24 194.72 101.84 194.88 105.84C194.96 107.52 194.16 108.72 192.8 109.12C192.72 109.2 192.48 109.2 192.16 109.2Z" fill="#231F20"/>
<path d="M300.72 120.96H270C269.68 120.96 269.44 120.72 269.36 120.4V89.7601C269.36 89.4401 269.6 89.1201 270 89.1201C270.4 89.1201 270.64 89.3601 270.64 89.7601V119.84H300.72C301.04 119.84 301.36 120.08 301.36 120.48C301.36 120.88 301.04 120.96 300.72 120.96Z" fill="#231F20"/>
<path d="M169.68 105.12H151.04C150.72 105.12 150.4 104.88 150.4 104.48C150.4 104.08 150.64 103.84 151.04 103.84H169.68C170 103.84 170.32 104.08 170.32 104.48C170.32 104.88 170 105.12 169.68 105.12Z" fill="white"/>
<path d="M90.9601 184.8C88.7201 185.68 85.0401 186.48 84.0801 183.36C83.9201 182.8 83.8401 182.24 83.9201 181.68C84.0001 180.88 84.1601 180 84.4001 179.2C85.0401 176.96 85.8401 174.72 86.8001 172.56C87.0401 172 87.5201 171.36 88.0801 171.6C88.6401 171.84 88.6401 172.4 88.6401 172.88C88.6401 174.32 88.4001 175.68 88.4801 177.12C91.4401 176.4 93.2801 173.2 96.1601 172.56C96.9601 172.4 97.9201 172.32 98.0001 173.36C98.0801 174.64 95.8401 175.6 95.0401 176.32C95.9201 175.6 96.8801 175.04 97.9201 174.64C98.2401 174.48 98.5601 174.48 98.8801 174.48C99.2001 174.48 99.4401 174.8 99.5201 175.12C99.5201 175.36 99.3601 175.6 99.2001 175.84C98.8001 176.32 98.2401 176.8 97.7601 177.2C98.3201 176.56 99.0401 176.16 99.8401 176C100.24 175.84 100.72 176 100.96 176.32C101.28 176.88 100.64 177.44 100.08 177.76C100.48 177.36 101.04 177.12 101.6 176.96C102.16 176.88 102.72 177.28 102.88 177.84C102.88 178.32 102.64 178.72 102.24 178.96C99.2001 181.68 94.7201 183.36 90.9601 184.8Z" fill="white"/>
<path d="M87.3599 186.16C86.6399 186.16 85.9199 186 85.2799 185.76C84.3999 185.28 83.6799 184.48 83.4399 183.52C83.2799 182.88 83.1999 182.24 83.2799 181.6C83.3599 180.72 83.5199 179.84 83.7599 179.04C84.3999 176.72 85.1999 174.48 86.1599 172.32C86.6399 171.2 87.3599 170.72 88.1599 170.96C88.6399 171.12 89.1199 171.6 89.1199 172.8C89.1199 173.44 89.0399 174 89.0399 174.64C89.0399 175.28 88.9599 175.68 88.9599 176.24C89.9999 175.76 90.9599 175.04 91.8399 174.32C92.9599 173.28 94.3199 172.4 95.8399 172C96.4799 171.76 97.1999 171.84 97.8399 172.16C98.1599 172.4 98.3999 172.88 98.3999 173.28C98.3999 173.44 98.3999 173.6 98.3999 173.76C98.5599 173.76 98.7199 173.76 98.8799 173.76C99.5199 173.84 99.9999 174.32 99.9999 174.96C99.9999 175.04 99.9999 175.12 99.9999 175.2C100.48 175.2 101.04 175.36 101.28 175.84C101.36 176 101.44 176.08 101.44 176.24C101.92 176.16 102.4 176.32 102.8 176.64C103.12 176.88 103.28 177.28 103.36 177.6C103.36 178.24 103.04 178.8 102.56 179.2C99.6799 182.08 95.4399 183.68 91.6799 185.12L91.1999 185.28C89.9999 185.84 88.7199 186.16 87.3599 186.16ZM87.8399 172.08C87.7599 172.08 87.5199 172.32 87.3599 172.72C86.3999 174.8 85.5999 177.04 85.0399 179.28C84.7999 180.08 84.7199 180.88 84.6399 181.68C84.5599 182.16 84.6399 182.64 84.7999 183.12C84.9599 183.76 85.3599 184.32 85.9999 184.64C87.0399 185.12 88.7999 184.96 90.8799 184.24L91.3599 184.08C95.0399 182.64 99.1199 181.12 101.84 178.4C101.92 178.32 102.32 177.92 102.24 177.76C102.24 177.68 102.16 177.6 102.16 177.6C102 177.52 101.84 177.44 101.68 177.44C101.36 177.44 101.12 177.6 100.88 177.76C100.72 177.92 100.56 178 100.32 178.16C99.9999 178.32 99.6799 178.24 99.5199 177.92C99.3599 177.68 99.4399 177.36 99.6799 177.2C99.8399 177.12 99.9999 176.96 100.16 176.88C100.24 176.8 100.32 176.64 100.4 176.56C100.24 176.48 100.08 176.48 99.9199 176.56C99.5999 176.64 99.2799 176.72 99.0399 176.88C98.7199 177.2 98.4799 177.44 98.1599 177.68C97.9199 177.84 97.5199 177.76 97.3599 177.52C97.1999 177.28 97.1999 177.04 97.3599 176.8C97.6799 176.48 97.9999 176.16 98.3199 175.92C98.4799 175.76 98.6399 175.6 98.7999 175.44C98.9599 175.28 98.9599 175.2 98.9599 175.12C98.8799 175.12 98.8799 175.04 98.7999 175.04C98.5599 175.04 98.3199 175.04 98.1599 175.2C97.7599 175.36 97.4399 175.52 97.1199 175.68C96.7999 175.92 96.5599 176.08 96.2399 176.24C95.9999 176.4 95.6799 176.56 95.4399 176.8C95.1999 177.04 94.7999 176.96 94.5599 176.72C94.3199 176.48 94.3999 176.08 94.6399 175.84C95.1999 175.36 95.7599 174.96 96.3999 174.64C96.9599 174.24 97.3599 173.84 97.3599 173.44C97.3599 173.36 97.3599 173.28 97.2799 173.2C97.1999 173.2 97.0399 173.04 96.2399 173.2C94.9599 173.6 93.7599 174.32 92.7199 175.28C91.5199 176.4 90.1599 177.2 88.5599 177.68C88.3999 177.76 88.1599 177.68 88.0799 177.6C87.9199 177.52 87.8399 177.28 87.8399 177.12C87.8399 176.24 87.8399 175.44 87.9199 174.64C87.9999 174.08 87.9999 173.44 87.9999 172.88C87.9999 172.32 87.8399 172.08 87.8399 172.08Z" fill="#231F20"/>
<path d="M88.48 177.12C89.84 178.8 89.92 181.2 88.56 182.96H88.88" fill="white"/>
<path d="M88.56 183.6C88.24 183.6 88 183.36 88 182.96C88 182.8 88.08 182.72 88.16 182.56C89.28 181.04 89.28 178.96 88.08 177.52C87.84 177.28 87.92 176.88 88.16 176.64C88.4 176.4 88.8 176.48 89.04 176.72C90.48 178.4 90.64 180.8 89.52 182.72C89.52 182.8 89.52 182.8 89.52 182.88C89.52 183.2 89.28 183.52 88.96 183.52L88.56 183.6Z" fill="#231F20"/>
<path d="M93.7013 139.648L83.7466 243.409L227.005 257.153L236.959 153.392L93.7013 139.648Z" fill="white"/>
<path d="M227.04 257.76L83.6801 244C83.3601 244 83.1201 243.68 83.1201 243.36L93.0401 139.6C93.0401 139.44 93.1201 139.28 93.2801 139.2C93.4401 139.12 93.6001 139.04 93.7601 139.04L237.04 152.8C237.36 152.8 237.6 153.12 237.6 153.44L227.68 257.2C227.6 257.52 227.36 257.76 227.04 257.76ZM84.4001 242.88L226.48 256.48L236.32 153.92L94.2401 140.32L84.4001 242.88Z" fill="#231F20"/>
<path d="M215.28 247.28L97.1201 236C96.8001 236 96.5601 235.68 96.5601 235.36L104.8 150.08C104.8 149.92 104.88 149.76 105.04 149.68C105.2 149.6 105.36 149.52 105.52 149.52L223.6 160.8C223.92 160.8 224.16 161.12 224.16 161.44L216 246.64C215.92 247.04 215.6 247.28 215.28 247.28ZM97.8401 234.8L214.72 246L222.8 162L105.92 150.8L97.8401 234.8Z" fill="#E6E6E6"/>
<path d="M190.4 213.6C190.24 213.6 190.08 213.52 189.92 213.36C188.24 211.36 147.84 165.2 142.56 161.44C139.84 159.52 128.8 165.84 120 171.44C112.48 176.24 105.36 181.44 102.56 183.44C102.32 183.6 101.92 183.6 101.68 183.28C101.44 182.96 101.52 182.64 101.84 182.4C104.56 180.4 111.76 175.2 119.28 170.4C133.04 161.52 140.48 158.48 143.2 160.4C148.64 164.24 189.04 210.56 190.8 212.56C191.04 212.8 190.96 213.2 190.72 213.36C190.64 213.6 190.56 213.68 190.4 213.6Z" fill="#E6E6E6"/>
<path d="M220.64 205.68C220.4 205.68 220.24 205.6 220.16 205.36C203.12 177.28 199.68 175.6 199.2 175.6C197.36 175.84 184.64 185.92 173.68 195.04C173.44 195.28 173.04 195.2 172.88 194.96C172.64 194.72 172.72 194.32 172.96 194.08C178.4 189.52 196.32 174.72 199.12 174.32C201.36 173.92 208.8 184.16 221.28 204.64C221.44 204.88 221.36 205.28 221.12 205.44C220.88 205.68 220.72 205.68 220.64 205.68Z" fill="#E6E6E6"/>
<path d="M176.8 176C173.92 176 171.68 173.68 171.68 170.88C171.68 168.08 174 165.76 176.8 165.76C179.68 165.76 181.92 168.08 181.92 170.88C181.92 173.68 179.68 176 176.8 176ZM176.8 166.88C174.64 166.88 172.88 168.64 172.88 170.8C172.88 172.96 174.64 174.72 176.8 174.72C178.96 174.72 180.72 172.96 180.72 170.8C180.8 168.64 178.96 166.88 176.8 166.88Z" fill="#E6E6E6"/>
<path d="M39.6002 306.24L38.7202 312.88C38.7202 312.88 57.2002 314.8 56.4802 313.2C55.7602 311.6 52.0002 306.56 52.0002 306.56" fill="white"/>
<path d="M52.4801 314.4C48.8001 314.4 43.3601 313.92 38.6401 313.44C38.4801 313.44 38.3201 313.36 38.2401 313.2C38.1601 313.04 38.0801 312.88 38.0801 312.72L38.9601 306.08C39.0401 305.76 39.2801 305.52 39.6001 305.6C39.9201 305.68 40.1601 305.92 40.0801 306.24L39.2801 312.24C46.3201 312.96 53.8401 313.36 55.6001 312.96C54.6401 311.12 51.4401 306.8 51.3601 306.8C51.2001 306.56 51.2001 306.16 51.5201 306C51.7601 305.84 52.1601 305.92 52.3201 306.16C52.4801 306.4 56.0801 311.28 56.8801 312.96C56.9601 313.2 56.9601 313.52 56.8001 313.76C56.5601 314.24 54.8801 314.4 52.4801 314.4Z" fill="#231F20"/>
<path d="M85.1203 185.68C85.1203 185.68 97.1203 193.68 101.76 191.28C104.48 189.84 106.72 187.84 109.2 186.08C111.6 184.48 113.92 182.8 116.08 180.96C116.32 180.72 116.56 180.48 116.72 180.24C116.88 179.92 117.04 179.68 117.12 179.36C117.52 178.16 118.08 176.96 118.64 175.84C118.8 175.36 119.2 174.96 119.6 174.72C122.08 173.76 120.48 178.88 120 179.76C121.92 178 123.84 176.16 125.92 174.56C126.16 174.32 126.4 174.24 126.72 174.24C127.04 174.32 127.2 174.72 127.12 174.96C127.04 175.28 126.88 175.52 126.64 175.76L123.36 179.68C124.32 178.56 125.36 177.44 126.48 176.4C126.88 176.08 128 174.96 128.56 175.44C129.52 176.16 126 180.16 125.44 180.88C126.4 179.6 127.44 178.48 128.72 177.44C129.04 177.12 129.52 176.88 129.92 176.88C130.16 177.12 129.92 177.52 129.68 177.76L127.36 180.4C128.48 179.12 129.84 177.76 131.52 177.44C131.52 177.76 131.44 178.08 131.2 178.24C127.84 182.24 124.4 186.08 120.88 189.92C116.08 194.96 110.96 200.8 104.16 202.72C96.1603 205.04 88.9603 200.32 82.3203 196.24" fill="white"/>
<path d="M99.8402 204C93.6002 204 87.9202 200.48 82.8002 197.28L82.0002 196.8C81.6802 196.64 81.6002 196.32 81.7602 196C81.9202 195.68 82.2402 195.6 82.5602 195.76C82.5602 195.76 82.6402 195.76 82.6402 195.84L83.4402 196.32C89.8402 200.32 96.5602 204.4 104 202.24C110.24 200.4 115.2 195.12 119.6 190.48L120.4 189.6C123.84 186 127.12 182.24 129.92 178.96C129.12 179.52 128.4 180.24 127.84 180.96C127.6 181.2 127.28 181.2 126.96 181.04C126.72 180.8 126.72 180.48 126.88 180.24L128.08 178.8C127.84 178.96 127.68 179.2 127.44 179.44C126.8 180.24 126.16 180.96 125.76 181.44C125.52 181.68 125.2 181.68 124.96 181.52C124.72 181.28 124.72 180.96 124.88 180.72C125.36 180 125.92 179.36 126.56 178.8C127.28 178 127.76 177.12 128.16 176.24C127.68 176.48 127.28 176.8 126.96 177.12L126.88 177.2C126.08 177.92 125.36 178.64 124.72 179.44L123.92 180.4C123.68 180.64 123.36 180.64 123.12 180.48C122.88 180.24 122.8 179.92 123.04 179.6C123.28 179.28 123.6 178.96 123.92 178.64L126.4 175.76C126.56 175.6 126.64 175.44 126.72 175.2C126.64 175.28 126.56 175.28 126.56 175.36C124.4 177.04 122.4 178.88 120.64 180.48C120.4 180.72 120 180.72 119.76 180.48C119.6 180.32 119.52 180 119.68 179.76C120.16 178.88 120.88 176 120.4 175.52C120.4 175.44 120.24 175.52 120 175.6C119.68 175.76 119.44 176.08 119.28 176.4C118.72 177.52 118.16 178.64 117.76 179.84C117.68 180.16 117.52 180.56 117.28 180.88C117.04 181.2 116.8 181.44 116.48 181.68C114.48 183.44 112.32 185.04 110.16 186.48L109.6 186.88C108.72 187.44 107.92 188.08 107.12 188.72C105.52 190 103.84 191.12 102.08 192.16C97.2002 194.64 85.3602 186.88 84.8802 186.56C84.6402 186.4 84.5602 186 84.7202 185.76C84.8802 185.52 85.2802 185.44 85.5202 185.6C88.8002 187.76 98.0002 192.96 101.52 191.12C103.28 190.16 104.88 189.04 106.4 187.84C107.2 187.2 108 186.56 108.88 186L109.44 185.6C111.6 184.16 113.68 182.64 115.68 180.88C115.92 180.72 116.08 180.48 116.24 180.32C116.4 180.08 116.48 179.84 116.56 179.6C116.96 178.32 117.52 177.12 118.16 175.92C118.4 175.28 118.88 174.8 119.44 174.56C120 174.24 120.72 174.32 121.2 174.8C121.76 175.52 121.68 176.88 121.36 178.08C122.64 176.88 124.08 175.6 125.6 174.48C125.92 174.16 126.4 174 126.88 174.08C127.36 174.24 127.76 174.72 127.76 175.2C128.16 175.04 128.56 175.12 128.88 175.36C129.12 175.52 129.28 175.84 129.28 176.16C129.28 176.4 129.28 176.64 129.2 176.8C129.44 176.72 129.68 176.72 129.92 176.72C130.08 176.72 130.16 176.8 130.32 176.88C130.48 177.04 130.64 177.28 130.64 177.6C130.88 177.52 131.2 177.44 131.44 177.36C131.76 177.28 132 177.52 132.16 177.76C132.24 178.24 132.08 178.72 131.76 179.12C128.72 182.64 125.12 186.8 121.36 190.8L120.56 191.68C116.08 196.48 110.96 201.92 104.4 203.76C102.88 203.84 101.36 204.08 99.8402 204Z" fill="#231F20"/>
<path d="M80.88 216.4L92.64 307.44L80.08 307.12L64.32 242.72L53.2 307.28L39.04 306.24L46.96 212.08L80.88 216.4Z" fill="#231F20"/>
<path d="M60.3202 182C60.6402 174.4 59.2002 158.96 59.2002 158.96C59.2002 158.96 68.8802 159.52 72.1602 154.88C76.1602 158 76.9602 166.8 76.2402 169.44C74.7202 174.64 68.0002 173.52 68.0002 173.52L68.8802 183.04L60.3202 182Z" fill="white"/>
<path d="M68.8801 183.6L60.3201 182.64C60.0001 182.64 59.7601 182.32 59.7601 182C60.0801 174.56 58.5601 159.2 58.5601 159.04C58.5601 158.88 58.6401 158.72 58.7201 158.56C58.8801 158.48 59.0401 158.4 59.2001 158.4C59.2801 158.4 68.5601 158.88 71.6001 154.56C71.6801 154.4 71.8401 154.32 72.0001 154.32C72.1601 154.32 72.3201 154.32 72.4801 154.48C76.6401 157.76 77.5201 166.88 76.8001 169.68C75.6801 173.76 71.3601 174.48 68.7201 174.24L69.5201 183.04C69.5201 183.2 69.4401 183.36 69.3601 183.52C69.1201 183.6 69.0401 183.6 68.8801 183.6ZM60.9601 181.44L68.1601 182.32L67.3601 173.52C67.3601 173.36 67.4401 173.12 67.5201 173.04C67.6801 172.88 67.8401 172.88 68.0001 172.88C68.2401 172.96 74.2401 173.84 75.5201 169.28C76.1601 167.04 75.5201 159.04 72.0801 155.76C68.9601 159.44 61.9201 159.68 59.7601 159.6C60.0801 162.56 61.2001 174.72 60.9601 181.44Z" fill="#231F20"/>
<path d="M67.9998 173.52C67.9998 173.52 65.1998 173.2 63.8398 171.76C63.8398 171.76 65.6798 176.4 68.4798 177.04L67.9998 173.52Z" fill="#231F20"/>
<path d="M68.48 177.68C68.4 177.68 68.4 177.68 68.32 177.68C65.2 176.96 63.28 172.24 63.2 172C63.04 171.68 63.2 171.36 63.52 171.2C63.76 171.12 64 171.2 64.16 171.36C65.36 172.56 68 172.96 68 172.96C68.24 172.96 68.48 173.2 68.56 173.44L69.04 177.04C69.04 177.2 69.04 177.44 68.88 177.6C68.8 177.6 68.64 177.68 68.48 177.68ZM65.28 173.36C65.84 174.4 66.72 175.36 67.68 176.08L67.36 174C66.72 173.84 66 173.68 65.28 173.36Z" fill="#231F20"/>
<path d="M75.2802 178.08L97.3602 190.24L92.0002 205.68C92.0002 205.68 64.1602 190.96 64.0002 186.96C63.8402 182.96 75.2802 178.08 75.2802 178.08Z" fill="#0025CC"/>
<path d="M82.3202 224.8C82.3202 224.8 83.2002 204.8 81.2802 192.8C80.4002 187.68 80.7202 184.08 79.0402 181.28C73.3602 172 51.2002 174.8 47.9202 181.2C44.6402 187.6 42.1602 224.96 42.1602 224.96L82.3202 224.8Z" fill="#0025CC"/>
<path d="M60.7199 164.4C60.4799 163.2 59.5999 162.24 58.3999 161.84C57.8399 161.68 57.2799 161.76 56.7999 162C56.2399 162.48 55.9999 163.2 56.0799 163.92C56.1599 165.04 56.7199 166.16 57.5199 166.96C58.3999 167.76 59.5199 168.16 60.6399 168.16" fill="white"/>
<path d="M60.5603 168.8C59.2803 168.8 58.0803 168.32 57.1203 167.44C56.1603 166.56 55.5203 165.28 55.4403 164C55.2803 163.04 55.6803 162.08 56.4003 161.52C57.0403 161.12 57.7603 161.04 58.4803 161.28C59.9203 161.68 60.9603 162.8 61.2803 164.32C61.3603 164.64 61.1203 164.96 60.8003 165.04C60.4803 165.12 60.1603 164.88 60.0803 164.56C59.8403 163.6 59.1203 162.8 58.1603 162.48C57.7603 162.32 57.3603 162.4 57.0403 162.56C56.6403 162.96 56.4803 163.44 56.5603 164C56.6403 164.96 57.1203 165.92 57.8403 166.64C58.5603 167.28 59.5203 167.68 60.5603 167.68C60.8803 167.68 61.1203 167.92 61.2003 168.24C61.2803 168.48 60.9603 168.72 60.5603 168.8Z" fill="#231F20"/>
<path d="M72.6705 160.677C72.9236 160.598 73.0113 160.158 72.8666 159.694C72.7218 159.23 72.3993 158.918 72.1462 158.997C71.8931 159.076 71.8054 159.516 71.9501 159.98C72.0949 160.444 72.4174 160.756 72.6705 160.677Z" fill="#231F20"/>
<path d="M80.08 307.12C80.08 307.12 79.76 312.64 80.4 313.52C81.04 314.4 98.8 315.52 97.92 313.36C97.04 311.2 91.6 306.72 91.6 306.72" fill="white"/>
<path d="M90.9603 315.12C86.1603 315.12 80.6403 314.64 80.0003 313.84C79.2003 312.88 79.3603 308.8 79.5203 307.04C79.5203 306.72 79.8403 306.48 80.1603 306.48C80.4803 306.48 80.7203 306.8 80.7203 307.12C80.5603 309.52 80.6403 312.4 80.8803 313.04C81.5203 313.28 84.8003 313.76 89.2003 313.92C94.2403 314.08 96.7203 313.76 97.3603 313.44C96.4803 311.76 92.7203 308.4 91.2803 307.2C91.0403 306.96 90.9603 306.64 91.2003 306.32C91.4403 306.08 91.7603 306 92.0803 306.24C92.6403 306.72 97.6803 310.88 98.6403 313.12C98.8803 313.6 98.6403 314.16 98.0803 314.4C97.1203 314.96 94.1603 315.12 90.9603 315.12Z" fill="#231F20"/>
<path d="M74.5603 160.08C74.5603 160.08 78.4803 164.48 77.5203 165.44C76.5603 166.4 74.3203 165.92 74.3203 165.92" fill="white"/>
<path d="M75.5201 166.64C75.0401 166.64 74.6401 166.56 74.1601 166.48C73.8401 166.4 73.6001 166.08 73.6801 165.76C73.7601 165.44 74.0801 165.2 74.4001 165.28C74.8801 165.36 76.4801 165.52 77.0401 164.96C77.2001 164.48 75.7601 162.32 74.0801 160.4C73.8401 160.16 73.9201 159.76 74.1601 159.52C74.4001 159.28 74.8001 159.36 75.0401 159.6C78.5601 163.6 78.5601 165.2 77.9201 165.84C77.2001 166.4 76.3201 166.72 75.5201 166.64Z" fill="#231F20"/>
<path d="M91.5999 205.52C91.4399 205.44 75.9199 196.8 70.3999 193.76L91.5999 205.52Z" fill="#231F20"/>
<path d="M91.6003 206.08C91.5203 206.08 91.3603 206.08 91.2803 206C90.9603 205.76 75.6803 197.36 70.0803 194.32C69.7603 194.16 69.6803 193.84 69.8403 193.52C70.0003 193.2 70.3203 193.12 70.6403 193.28C76.1603 196.32 91.7603 204.88 91.9203 205.04C92.2403 205.2 92.3202 205.6 92.1602 205.84C92.0002 206 91.8403 206.08 91.6003 206.08Z" fill="#231F20"/>
<path d="M68.6401 167.2C69.1201 168.4 70.2401 169.2 71.5201 169.28C72.8001 169.36 74.0001 168.88 74.8801 167.92" fill="white"/>
<path d="M71.8399 169.84C71.6799 169.84 71.5999 169.84 71.4399 169.84C69.9199 169.76 68.6399 168.8 68.0799 167.36C67.9199 167.04 68.0799 166.72 68.3999 166.56C68.7199 166.4 69.0399 166.56 69.1999 166.88C69.5999 167.84 70.5599 168.48 71.5199 168.56C72.5599 168.64 73.5999 168.16 74.3199 167.36C74.5599 167.12 74.9599 167.12 75.1999 167.36C75.4399 167.6 75.4399 168 75.1999 168.24C74.3199 169.28 73.1199 169.84 71.8399 169.84Z" fill="#231F20"/>
<path d="M56.48 173.52C54.24 173.52 52.08 172.96 50.08 172C49.04 171.52 48.16 170.72 47.52 169.76C47.28 169.36 47.12 168.88 47.12 168.32C46.4 168.32 45.6 168.16 44.96 167.76C43.76 167.12 42.72 166.16 41.92 165.04C41.2 164.24 41.2 163.04 42 162.32L42.72 161.52C44 160.24 45.12 158.8 46.08 157.28C46.64 156.16 47.12 154.96 47.44 153.76C47.76 152.88 48.08 151.84 48.48 150.88C51.52 144.08 57.04 142.96 62.08 142.8C65.2 142.72 69.2 143.6 71.28 146.48C72 146.24 72.8 146.24 73.52 146.56C74.4 147.04 75.12 147.84 75.52 148.8C77.36 152.16 78.24 155.92 77.92 159.76C77.84 160.08 77.52 160.32 77.2 160.24C76.88 160.16 76.72 159.92 76.72 159.68C76.96 156.08 76.24 152.56 74.48 149.36C74.16 148.64 73.6 148.08 72.96 147.68C72.56 147.52 72.08 147.44 71.68 147.6C71.6 147.6 71.52 147.68 71.44 147.76C71.28 147.84 71.12 147.92 70.96 147.84C70.8 147.84 70.64 147.68 70.56 147.52C68.88 144.72 64.96 143.84 62.16 143.92C57.52 144.08 52.4 145.12 49.68 151.28C49.28 152.16 48.96 153.12 48.64 154C48.24 155.28 47.76 156.48 47.2 157.68C46.24 159.36 45.04 160.88 43.68 162.16L42.96 162.96C42.8 163.12 42.64 163.36 42.64 163.6C42.64 163.84 42.8 164.08 42.96 164.24C43.6 165.2 44.48 166.08 45.52 166.64C46.16 166.96 46.96 167.12 47.68 167.04C47.84 167.04 48.08 167.04 48.24 167.2C48.4 167.36 48.4 167.52 48.4 167.68C48.32 168.16 48.4 168.64 48.64 169.04C49.12 169.84 49.84 170.4 50.72 170.8C52.72 171.84 55.04 172.32 57.28 172.16C57.6 172.16 57.92 172.4 57.92 172.72C57.92 173.04 57.68 173.36 57.36 173.36L56.48 173.52Z" fill="#231F20"/>
<path d="M64.2402 242.24C64.0802 242.24 63.9202 242.16 63.7602 242.08C60.1602 238.24 59.2802 232.48 59.2802 232.24C59.2002 231.92 59.4402 231.6 59.7602 231.52C60.0802 231.44 60.4002 231.68 60.4002 232C60.4002 232.08 61.2002 237.68 64.5602 241.2C64.8002 241.44 64.8002 241.84 64.5602 242.08C64.5602 242.16 64.4002 242.24 64.2402 242.24Z" fill="white"/>
<path d="M180.16 183.2H363.36C371.36 183.2 375.52 188.72 372.8 195.52L331.6 297.44C328.8 304.24 320.16 309.84 312.16 309.84H128.96C120.96 309.84 116.8 304.32 119.52 297.44L160.72 195.52C163.44 188.72 172.16 183.2 180.16 183.2Z" fill="white"/>
<path d="M312.16 310.48H128.96C124.72 310.48 121.28 308.96 119.44 306.24C117.76 303.76 117.6 300.64 118.96 297.28L160.16 195.36C163.04 188.32 172 182.64 180.16 182.64H363.36C367.6 182.64 371.04 184.16 372.88 186.88C374.56 189.36 374.72 192.56 373.36 195.84L332.16 297.76C329.28 304.72 320.32 310.48 312.16 310.48ZM180.16 183.84C172.4 183.84 164 189.2 161.28 195.84L120.08 297.76C118.88 300.64 119.04 303.44 120.48 305.6C122.08 307.92 125.2 309.28 128.96 309.28H312.16C319.92 309.28 328.32 303.92 331.04 297.28L372.24 195.36C373.44 192.4 373.28 189.68 371.84 187.52C370.24 185.2 367.12 183.84 363.36 183.84H180.16Z" fill="#231F20"/>
<path d="M342.16 217.52H279.44C277.92 217.6 276.48 216.88 275.52 215.6C274.64 214.08 274.56 212.24 275.36 210.72L277.52 205.6C278.88 202.4 282.64 199.76 285.92 199.76H348.64C350.16 199.68 351.6 200.4 352.56 201.68C353.44 203.2 353.52 205.04 352.72 206.56L350.56 211.76C349.2 214.88 345.44 217.52 342.16 217.52ZM285.84 200.96C283.04 200.96 279.76 203.28 278.56 206.08L276.4 211.2C275.76 212.4 275.84 213.76 276.48 214.96C277.12 215.84 278.24 216.4 279.36 216.32H342.08C344.88 216.32 348.16 214 349.36 211.2L351.52 206.08C352.16 204.88 352.08 203.52 351.44 202.32C350.8 201.44 349.68 200.88 348.56 200.96H285.84Z" fill="#E6E6E6"/>
</svg>
