<svg width="24" height="24" viewBox="0 0 24 24" fill="none" xmlns="http://www.w3.org/2000/svg">
    <rect x="0.5" y="0.5" width="23" height="23" rx="2.5" fill="#F2F2F2" />
    <rect x="0.5" y="0.5" width="23" height="23" rx="2.5" stroke="#E6E6E6" />
    <path
        d="M13.7255 10.075L10.7015 10.454L10.5935 10.956L11.1885 11.064C11.5755 11.157 11.6525 11.296 11.5685 11.683L10.5935 16.26C10.3385 17.443 10.7335 18 11.6605 18C12.3805 18 13.2145 17.668 13.5935 17.211L13.7095 16.662C13.4465 16.894 13.0595 16.987 12.8045 16.987C12.4415 16.987 12.3105 16.732 12.4025 16.283L13.7255 10.075ZM13.8165 7.32C13.8165 7.67009 13.6775 8.00583 13.4299 8.25338C13.1824 8.50093 12.8466 8.64 12.4965 8.64C12.1464 8.64 11.8107 8.50093 11.5631 8.25338C11.3156 8.00583 11.1765 7.67009 11.1765 7.32C11.1765 6.96991 11.3156 6.63417 11.5631 6.38662C11.8107 6.13907 12.1464 6 12.4965 6C12.8466 6 13.1824 6.13907 13.4299 6.38662C13.6775 6.63417 13.8165 6.96991 13.8165 7.32Z"
        fill="#3C3C3C" />
</svg>