<svg width="14" height="14" viewBox="0 0 14 14" fill="none" xmlns="http://www.w3.org/2000/svg">
<path d="M9.33341 6.6681V12.5417C9.33341 12.7027 9.20283 12.8333 9.04175 12.8333H8.45841C8.29733 12.8333 8.16675 12.7027 8.16675 12.5417V6.41666C8.16675 6.33093 8.18524 6.24952 8.21845 6.17621C8.26277 6.06618 8.34211 5.96927 8.45169 5.90386L11.6667 3.98469V2.33332H2.33341V4.00504L5.45136 5.86898C5.67435 5.95096 5.83341 6.16523 5.83341 6.41666V10.5C5.83341 10.6611 5.70283 10.7917 5.54175 10.7917H4.95841C4.79733 10.7917 4.66675 10.6611 4.66675 10.5V6.68801L1.44314 4.76091C1.37079 4.71765 1.31165 4.66064 1.26713 4.59518C1.20563 4.5417 1.16675 4.46289 1.16675 4.37499V1.74999C1.16675 1.42782 1.42792 1.16666 1.75008 1.16666H12.2501C12.4112 1.16666 12.557 1.23195 12.6626 1.33751C12.7681 1.44307 12.8334 1.58891 12.8334 1.74999V4.19596C12.8379 4.23693 12.8379 4.27804 12.8334 4.31854V4.37499C12.8334 4.47323 12.7848 4.56013 12.7104 4.61298C12.6701 4.66248 12.6206 4.7059 12.5626 4.7405L9.33341 6.6681Z" fill="#3C3C3C"/>
</svg>
