<?xml version="1.0" standalone="no"?><!DOCTYPE svg PUBLIC "-//W3C//DTD SVG 1.1//EN" "http://www.w3.org/Graphics/SVG/1.1/DTD/svg11.dtd"><svg t="1746718133466" class="icon" viewBox="0 0 1024 1024" version="1.1" xmlns="http://www.w3.org/2000/svg" p-id="1473" xmlns:xlink="http://www.w3.org/1999/xlink" width="200" height="200"><path d="M405.714286 747.428571q0 37.714286-53.142857 37.714286-61.142857 0-61.142858-36 0-36.571429 56-36.571428 58.285714 0 58.285715 34.857142z m-20.571429-266.285714q0 48.571429-42.285714 48.571429-44 0-44-48 0-51.428571 44-51.428572 20.571429 0 31.428571 14.571429t10.857143 36.285714z m94.857143-42.857143V366.857143q-44.571429 16.571429-77.142857 16.571428-28.571429-16.571429-62.857143-16.571428-49.142857 0-82.857143 32.571428t-33.714286 81.714286q0 28.571429 16.857143 58.285714t42 38.285715v1.714285q-21.714286 9.714286-21.714285 48.571429 0 30.285714 23.428571 44v1.714286q-64.571429 21.142857-64.571429 79.428571 0 25.714286 11.428572 44.857143t30.857143 29.142857 41.142857 14.571429 46.285714 4.571428q128 0 128-107.428571 0-38.285714-27.428571-56.571429t-72-26.285714q-15.428571-2.857143-29.428572-11.714286T334.285714 621.714286q0-25.142857 28-29.714286 44-8.571429 69.714286-40t25.714286-76.571429q0-13.714286-5.714286-29.714285 21.142857-5.142857 28-7.428572z m33.714286 239.428572h78.285714q-1.142857-15.428571-1.142857-46.857143V409.714286q0-26.285714 1.142857-39.428572H513.714286q1.714286 13.142857 1.714285 40.571429v224q0 28.571429-1.714285 42.857143z m290.857143-9.142857v-69.142858q-17.142857 12-38.857143 12-30.285714 0-30.285715-46.857142V436h29.714286q5.142857 0 15.142857 0.571429t15.142857 0.571428V370.285714h-60q0-46.857143 1.714286-58.285714h-80q2.285714 13.714286 2.285714 31.428571v26.857143h-34.285714v66.857143q20.571429-1.714286 21.142857-1.714286 1.714286 0 6.285715 0.285715t6.857142 0.285714v1.142857h-1.142857v124q0 21.142857 1.428572 36.571429t6.571428 32.285714 14 27.714286 24.857143 17.714285 37.714286 6.857143q36.571429 0 61.714286-13.714285z m-203.428572-403.428572q0-20.571429-13.714286-36.285714T553.142857 213.142857t-34.571428 15.428572-14 36.571428q0 20.571429 14.285714 35.714286t34.285714 15.142857 34-15.428571 14-35.428572z m349.714286-27.428571v548.571428q0 68-48.285714 116.285715T786.285714 950.857143H237.714286q-68 0-116.285715-48.285714T73.142857 786.285714V237.714286q0-68 48.285714-116.285715T237.714286 73.142857h548.571428q68 0 116.285715 48.285714T950.857143 237.714286z" p-id="1474"></path></svg>