<svg width="10" height="10" viewBox="0 0 10 10" fill="none" xmlns="http://www.w3.org/2000/svg">
<g clip-path="url(#clip0_5385_27816)">
<path d="M4.41159 7.15088V0.588551C4.41159 0.421795 4.46809 0.282113 4.58109 0.169504C4.6941 0.056895 4.83378 0.000394243 5.00014 1.88379e-06C5.16651 -0.000390475 5.30619 0.0561103 5.41919 0.169504C5.53219 0.282898 5.58869 0.42258 5.58869 0.588551V7.15088L7.26606 5.47351C7.38377 5.3558 7.5211 5.2993 7.67804 5.30401C7.83499 5.30872 7.97232 5.36522 8.09003 5.47351C8.20774 5.59122 8.26894 5.7311 8.27365 5.89315C8.27836 6.05519 8.22206 6.19488 8.10474 6.31219L5.41213 9.00481C5.35327 9.06366 5.28951 9.10545 5.22085 9.13017C5.15218 9.15489 5.07862 9.16705 5.00014 9.16666C4.92167 9.16626 4.8481 9.1541 4.77944 9.13017C4.71077 9.10623 4.64701 9.06445 4.58816 9.00481L1.89554 6.31219C1.77783 6.19448 1.72133 6.0548 1.72604 5.89315C1.73075 5.73149 1.79216 5.59161 1.91026 5.47351C2.02797 5.36561 2.1653 5.30911 2.32224 5.30401C2.47919 5.29891 2.61652 5.35541 2.73423 5.47351L4.41159 7.15088Z" fill="#999999"/>
</g>
<defs>
<clipPath id="clip0_5385_27816">
<rect width="10" height="10" fill="white"/>
</clipPath>
</defs>
</svg>
