<svg width="16" height="16" viewBox="0 0 16 16" fill="none" xmlns="http://www.w3.org/2000/svg">
<path d="M5.66671 3.33333C4.74671 3.33333 4.00004 4.07967 4.00004 5C4.00004 5.92033 4.74671 6.66667 5.66671 6.66667C6.58671 6.66667 7.33337 5.92033 7.33337 5C7.33337 4.07967 6.58671 3.33333 5.66671 3.33333ZM2.66671 5C2.66671 3.343 4.01004 2 5.66671 2C7.32337 2 8.66671 3.343 8.66671 5C8.66671 6.657 7.32337 8 5.66671 8C4.01004 8 2.66671 6.657 2.66671 5ZM3.89004 10C2.67671 10 1.66671 10.999 1.66671 12.2667V13.3333H9.66671V12.2667C9.66671 10.999 8.65671 10 7.44337 10H3.89004ZM0.333374 12.2667C0.333374 10.2783 1.92671 8.66667 3.89004 8.66667H7.44337C9.40671 8.66667 11 10.2783 11 12.2667V14.0667C11 14.398 10.7334 14.6667 10.4067 14.6667H0.926707C0.600041 14.6667 0.333374 14.398 0.333374 14.0667V12.2667ZM15.2234 14H12.2434V13.7273V12.6667H14.3334V12.2667C14.3334 11.5987 13.77 11 13 11H12.1267C12 10.5073 11.7734 10.0553 11.47 9.66667H13C14.4734 9.66667 15.6667 10.8307 15.6667 12.2667V13.5667C15.6667 13.806 15.4667 14 15.2234 14ZM11 6.66667C11 6.29833 11.3 6 11.6667 6C12.0334 6 12.3334 6.29833 12.3334 6.66667C12.3334 7.035 12.0334 7.33333 11.6667 7.33333C11.3 7.33333 11 7.035 11 6.66667ZM11.6667 4.66667C10.5634 4.66667 9.66671 5.562 9.66671 6.66667C9.66671 7.77133 10.5634 8.66667 11.6667 8.66667C12.77 8.66667 13.6667 7.77133 13.6667 6.66667C13.6667 5.562 12.77 4.66667 11.6667 4.66667Z" fill="#999999"/>
</svg>
