<svg width="16" height="16" viewBox="0 0 16 16" fill="none" xmlns="http://www.w3.org/2000/svg">
<g clip-path="url(#clip0_10196_28079)">
<path d="M8.00002 15.3334C12.0501 15.3334 15.3334 12.0501 15.3334 8.00002C15.3334 3.94993 12.0501 0.666687 8.00002 0.666687C3.94993 0.666687 0.666687 3.94993 0.666687 8.00002C0.666687 12.0501 3.94993 15.3334 8.00002 15.3334Z" fill="#999999"/>
<path d="M7.53909 5.64127C7.57953 5.65802 7.62287 5.66665 7.66665 5.66665H8.33331C8.37709 5.66665 8.42043 5.65802 8.46087 5.64127C8.50132 5.62452 8.53806 5.59997 8.56902 5.56902C8.59997 5.53806 8.62452 5.50132 8.64127 5.46087C8.65803 5.42043 8.66665 5.37709 8.66665 5.33331V4.66665C8.66665 4.62287 8.65803 4.57953 8.64127 4.53909C8.62452 4.49864 8.59997 4.4619 8.56902 4.43094C8.53806 4.39999 8.50132 4.37544 8.46087 4.35869C8.42043 4.34193 8.37709 4.33331 8.33331 4.33331H7.66665C7.62287 4.33331 7.57953 4.34193 7.53909 4.35869C7.49864 4.37544 7.4619 4.39999 7.43094 4.43094C7.39999 4.4619 7.37544 4.49864 7.35869 4.53909C7.34194 4.57953 7.33331 4.62287 7.33331 4.66665V5.33331C7.33331 5.37709 7.34194 5.42043 7.35869 5.46087C7.37544 5.50132 7.39999 5.53806 7.43094 5.56902C7.4619 5.59997 7.49864 5.62452 7.53909 5.64127Z" fill="white"/>
<path d="M7.33331 7.66665V10.3333H6.66665C6.62287 10.3333 6.57953 10.3419 6.53908 10.3587C6.49864 10.3754 6.4619 10.4 6.43094 10.4309C6.39999 10.4619 6.37544 10.4986 6.35869 10.5391C6.34193 10.5795 6.33331 10.6229 6.33331 10.6666V11.3333C6.33331 11.3771 6.34193 11.4204 6.35869 11.4609C6.37544 11.5013 6.39999 11.5381 6.43094 11.569C6.4619 11.6 6.49864 11.6245 6.53908 11.6413C6.57953 11.658 6.62287 11.6666 6.66665 11.6666H9.33331C9.37709 11.6666 9.42043 11.658 9.46087 11.6413C9.50132 11.6245 9.53806 11.6 9.56902 11.569C9.59997 11.5381 9.62452 11.5013 9.64127 11.4609C9.65802 11.4204 9.66665 11.3771 9.66665 11.3333V10.6666C9.66665 10.6229 9.65802 10.5795 9.64127 10.5391C9.62452 10.4986 9.59997 10.4619 9.56902 10.4309C9.53806 10.4 9.50132 10.3754 9.46087 10.3587C9.42043 10.3419 9.37709 10.3333 9.33331 10.3333H8.66665V6.66665C8.66678 6.62284 8.65825 6.57943 8.64154 6.53893C8.62484 6.49843 8.60029 6.46163 8.56931 6.43065C8.53833 6.39967 8.50153 6.37512 8.46103 6.35842C8.42053 6.34171 8.37712 6.33318 8.33331 6.33331H6.99998C6.95621 6.33331 6.91286 6.34194 6.87242 6.35869C6.83198 6.37544 6.79523 6.39999 6.76428 6.43094C6.73332 6.4619 6.70877 6.49864 6.69202 6.53909C6.67527 6.57953 6.66665 6.62287 6.66665 6.66665V7.33331C6.66665 7.37709 6.67527 7.42043 6.69202 7.46087C6.70877 7.50132 6.73332 7.53806 6.76428 7.56902C6.79523 7.59997 6.83198 7.62452 6.87242 7.64127C6.91286 7.65802 6.95621 7.66665 6.99998 7.66665H7.33331Z" fill="white"/>
</g>
<defs>
<clipPath id="clip0_10196_28079">
<rect width="16" height="16" fill="white"/>
</clipPath>
</defs>
</svg>
