<svg width="20" height="20" viewBox="0 0 20 20" fill="none" xmlns="http://www.w3.org/2000/svg">
<path d="M13.3333 2.49992H4.16667V17.4999H15.8333V5.01617H13.75C13.6395 5.01617 13.5335 4.97227 13.4554 4.89413C13.3772 4.81599 13.3333 4.71001 13.3333 4.5995V2.49992ZM3.33333 0.833252H14.2379C14.3474 0.833221 14.4558 0.854769 14.557 0.896664C14.6582 0.93856 14.7501 0.999981 14.8275 1.07742L17.2563 3.507C17.4124 3.66331 17.5001 3.87523 17.5 4.09617V18.3333C17.5 18.5543 17.4122 18.7662 17.2559 18.9225C17.0996 19.0788 16.8877 19.1666 16.6667 19.1666H3.33333C3.11232 19.1666 2.90036 19.0788 2.74408 18.9225C2.5878 18.7662 2.5 18.5543 2.5 18.3333V1.66659C2.5 1.44557 2.5878 1.23361 2.74408 1.07733C2.90036 0.921049 3.11232 0.833252 3.33333 0.833252ZM6.66667 8.33325H13.3333C13.4438 8.33325 13.5498 8.37715 13.628 8.45529C13.7061 8.53343 13.75 8.63941 13.75 8.74992V9.58325C13.75 9.69376 13.7061 9.79974 13.628 9.87788C13.5498 9.95602 13.4438 9.99992 13.3333 9.99992H6.66667C6.55616 9.99992 6.45018 9.95602 6.37204 9.87788C6.2939 9.79974 6.25 9.69376 6.25 9.58325V8.74992C6.25 8.63941 6.2939 8.53343 6.37204 8.45529C6.45018 8.37715 6.55616 8.33325 6.66667 8.33325ZM6.66667 12.4999H10.4167C10.4714 12.4999 10.5256 12.5107 10.5761 12.5316C10.6267 12.5526 10.6726 12.5833 10.7113 12.622C10.75 12.6606 10.7807 12.7066 10.8016 12.7571C10.8226 12.8077 10.8333 12.8619 10.8333 12.9166V13.7499C10.8333 13.8046 10.8226 13.8588 10.8016 13.9094C10.7807 13.9599 10.75 14.0059 10.7113 14.0445C10.6726 14.0832 10.6267 14.1139 10.5761 14.1349C10.5256 14.1558 10.4714 14.1666 10.4167 14.1666H6.66667C6.55616 14.1666 6.45018 14.1227 6.37204 14.0445C6.2939 13.9664 6.25 13.8604 6.25 13.7499V12.9166C6.25 12.8061 6.2939 12.7001 6.37204 12.622C6.45018 12.5438 6.55616 12.4999 6.66667 12.4999Z" fill="#999999"/>
</svg>
