<svg width="16" height="16" viewBox="0 0 16 16" fill="none" xmlns="http://www.w3.org/2000/svg">
<g clip-path="url(#clip0_8620_2264)">
<path d="M4.11816 0.953914C4.33594 0.662105 4.74449 0.577211 5.06348 0.768368L6.5166 1.63946C6.97992 1.43631 7.48434 1.32794 8 1.32794C8.51605 1.32797 9.02071 1.43696 9.48438 1.64044L10.9385 0.768368L11.0039 0.734188C11.3335 0.579322 11.7334 0.696487 11.9248 1.01544L11.96 1.07989C12.1042 1.38743 12.0115 1.7565 11.7393 1.95977L11.6787 2.00079L10.75 2.55645C11.3564 3.23256 11.6943 4.11037 11.6943 5.02325V5.08673C11.7838 5.1387 11.8705 5.19532 11.9551 5.25567C11.9807 5.24157 12.0063 5.22678 12.0342 5.21563L13.3574 4.68731L13.4268 4.6629C13.7766 4.56255 14.1527 4.74168 14.291 5.08673L14.3145 5.15704C14.4078 5.48344 14.2588 5.83264 13.958 5.99005L13.8906 6.02032L12.9551 6.39434C13.2102 6.8715 13.3502 7.4069 13.3506 7.95782V8.6043H14.6162C15.0126 8.60448 15.3347 8.92566 15.335 9.32208C15.335 9.7187 15.0128 10.0407 14.6162 10.0408H13.3496C13.3433 10.6359 13.2381 11.2255 13.0381 11.785L12.9434 12.0311C12.918 12.0922 12.8908 12.1526 12.8633 12.2127L13.8906 12.6248L13.958 12.6551C14.2805 12.8238 14.4291 13.2132 14.291 13.5584C14.1528 13.9037 13.7767 14.0826 13.4268 13.9822L13.3574 13.9588L12.0762 13.4461C12.0394 13.4894 12.003 13.5329 11.9648 13.575L11.7832 13.7664C11.3487 14.2008 10.8432 14.5569 10.2891 14.8191L10.0479 14.9256C9.39898 15.1943 8.7033 15.3328 8.00098 15.3328C7.38662 15.3328 6.77745 15.2267 6.2002 15.0203L5.9541 14.9256C5.38645 14.6904 4.86353 14.3598 4.40918 13.9481L4.21875 13.7664C4.11623 13.6639 4.01937 13.5563 3.92578 13.4461L2.64551 13.9588C2.30036 14.0968 1.911 13.9481 1.74219 13.6258L1.71094 13.5584C1.56384 13.1903 1.74338 12.7723 2.11133 12.6248L3.13965 12.2117C3.11222 12.1519 3.08481 12.092 3.05957 12.0311C2.82439 11.4633 2.68837 10.8594 2.6582 10.2469L2.65332 10.0408H1.38672C0.989989 10.0408 0.667969 9.71881 0.667969 9.32208C0.668211 8.92556 0.990138 8.6043 1.38672 8.6043H2.65234V7.95782C2.65269 7.40724 2.78926 6.87048 3.04395 6.39337L2.11133 6.02032C1.74342 5.87288 1.56396 5.45483 1.71094 5.08673L1.74219 5.02032C1.91082 4.69754 2.30011 4.54916 2.64551 4.68731L3.96875 5.21563C3.99632 5.22668 4.02149 5.24173 4.04688 5.25567C4.13033 5.19609 4.21646 5.14109 4.30469 5.08966V5.02325C4.30474 4.11023 4.64239 3.2316 5.24902 2.55548L4.32422 2.00079C3.98414 1.79669 3.87417 1.35558 4.07812 1.01544L4.11816 0.953914ZM5.78906 6.08184C5.41912 6.11893 5.06781 6.26413 4.78027 6.49981L4.6416 6.62481C4.28819 6.97848 4.08925 7.45882 4.08887 7.9588V9.98419C4.08889 10.4976 4.19036 11.0059 4.38672 11.4803C4.58329 11.9548 4.87119 12.3876 5.23438 12.7508L5.375 12.8826C5.70732 13.1837 6.08873 13.4265 6.50391 13.5984L6.68359 13.6678C6.8786 13.7375 7.07919 13.7888 7.28223 13.827V9.98419C7.28231 9.58763 7.60444 9.26659 8.00098 9.26641C8.39764 9.26643 8.71867 9.58754 8.71875 9.98419V13.8289C8.98506 13.7792 9.24656 13.7026 9.49805 13.5984L9.67383 13.5203C10.0793 13.3285 10.4497 13.0686 10.7676 12.7508L10.8994 12.6111C11.2007 12.2787 11.4442 11.8957 11.6162 11.4803L11.6846 11.3016C11.8356 10.8793 11.914 10.4337 11.9141 9.98419V7.9588L11.9043 7.77227C11.8674 7.40226 11.721 7.05115 11.4854 6.76348L11.3604 6.62481C11.0509 6.31533 10.6446 6.12499 10.2129 6.08184L10.0273 6.07208H5.97559L5.78906 6.08184ZM8 2.76446C7.47598 2.76446 6.9702 2.94699 6.56836 3.27618L6.40234 3.42657C6.06954 3.75953 5.85344 4.18627 5.77539 4.64434C5.84123 4.64034 5.90729 4.63562 5.97363 4.63556H10.0283L10.1924 4.63946C10.2032 4.64 10.2139 4.64175 10.2246 4.64239C10.1588 4.25767 9.99458 3.89487 9.74609 3.59161L9.59668 3.42657C9.17323 3.00322 8.59878 2.76452 8 2.76446Z" fill="#3C3C3C"/>
</g>
<defs>
<clipPath id="clip0_8620_2264">
<rect width="16" height="16" fill="white"/>
</clipPath>
</defs>
</svg>
