<svg width="16" height="16" viewBox="0 0 16 16" fill="none" xmlns="http://www.w3.org/2000/svg">
<path d="M0.666016 5.09589C0.666016 4.83447 0.818817 4.59716 1.05681 4.48898L7.72348 1.45868C7.89876 1.37901 8.09993 1.37901 8.27522 1.45868L14.9419 4.48898C15.1799 4.59716 15.3327 4.83447 15.3327 5.0959V11.5879C15.3327 11.8404 15.19 12.0713 14.9642 12.1842L8.29749 15.5175C8.10981 15.6114 7.88889 15.6114 7.70121 15.5175L1.03454 12.1842C0.808684 12.0713 0.666016 11.8404 0.666016 11.5879V5.09589ZM12.8112 4.98512L7.99935 2.7979L3.16148 4.99693L7.97266 7.06944L12.8112 4.98512ZM8.66602 8.22255V13.8426L13.9993 11.1759V5.9251L8.66602 8.22255ZM1.99935 5.9481V11.1759L7.33268 13.8426V8.24554L1.99935 5.9481Z" fill="#3C3C3C"/>
</svg>
