<svg width="17" height="17" viewBox="0 0 17 17" fill="none" xmlns="http://www.w3.org/2000/svg">
<path d="M1.18457 8.49935C1.18457 12.5493 4.46791 15.8327 8.51791 15.8327C12.5679 15.8327 15.8512 12.5493 15.8512 8.49935C15.8512 4.44935 12.5679 1.16602 8.51791 1.16602C4.46791 1.16602 1.18457 4.44935 1.18457 8.49935ZM8.85124 11.166C8.89502 11.166 8.93836 11.1746 8.97881 11.1914C9.01925 11.2081 9.05599 11.2327 9.08695 11.2636C9.1179 11.2946 9.14245 11.3313 9.15921 11.3718C9.17596 11.4122 9.18458 11.4556 9.18458 11.4993V12.166C9.18458 12.2098 9.17596 12.2531 9.15921 12.2936C9.14245 12.334 9.1179 12.3708 9.08695 12.4017C9.05599 12.4327 9.01925 12.4572 8.97881 12.474C8.93836 12.4907 8.89502 12.4993 8.85124 12.4993H8.18458C8.14081 12.4993 8.09746 12.4907 8.05702 12.474C8.01658 12.4572 7.97983 12.4327 7.94888 12.4017C7.91792 12.3708 7.89337 12.334 7.87662 12.2936C7.85987 12.2531 7.85125 12.2098 7.85125 12.166V11.4993C7.85125 11.4556 7.85987 11.4122 7.87662 11.3718C7.89337 11.3313 7.91792 11.2946 7.94888 11.2636C7.97983 11.2327 8.01658 11.2081 8.05702 11.1914C8.09746 11.1746 8.14081 11.166 8.18458 11.166H8.85124ZM5.91058 6.50135C6.04058 5.77735 6.36958 5.24535 6.89791 4.90468C7.31158 4.63468 7.82025 4.49935 8.42325 4.49935C9.21558 4.49935 9.87391 4.69135 10.3982 5.07502C10.9226 5.45935 11.1846 6.02735 11.1846 6.78102C11.1846 7.24302 11.0706 7.63202 10.8426 7.94835C10.7092 8.14035 10.4536 8.38568 10.0749 8.68402L9.70158 8.97735C9.49824 9.13735 9.36291 9.32402 9.29625 9.53702C9.27825 9.59502 9.26225 9.70335 9.24858 9.86135C9.2414 9.94447 9.20332 10.0219 9.14185 10.0783C9.08039 10.1347 9 10.166 8.91658 10.166H8.16991C8.12357 10.166 8.07775 10.1563 8.03537 10.1375C7.99299 10.1188 7.95498 10.0914 7.92377 10.0572C7.89257 10.0229 7.86884 9.98255 7.85411 9.93862C7.83939 9.89468 7.83398 9.84816 7.83825 9.80202C7.88125 9.33802 7.92725 9.04435 7.97625 8.92135C8.06725 8.69202 8.30225 8.42802 8.68091 8.12968L9.06491 7.82568C9.07279 7.8197 9.0827 7.8123 9.09437 7.8036C9.26982 7.67277 9.84158 7.24641 9.84158 6.86635C9.84158 6.46068 9.77091 6.31168 9.56724 6.08902C9.36391 5.86635 8.90524 5.79468 8.49158 5.79468C8.08491 5.79468 7.73725 5.90268 7.56725 6.17635C7.48886 6.30195 7.42522 6.43617 7.37758 6.57635C7.35623 6.64325 7.33996 6.71167 7.32891 6.78102C7.31563 6.85849 7.2754 6.92877 7.21532 6.97946C7.15524 7.03014 7.07918 7.05797 7.00058 7.05802H6.21558C6.16865 7.05799 6.12224 7.04805 6.07942 7.02885C6.03659 7.00965 5.9983 6.98162 5.96705 6.94659C5.9358 6.91157 5.91231 6.87035 5.89809 6.82561C5.88388 6.78088 5.87928 6.73365 5.88458 6.68702C5.89291 6.61268 5.90158 6.55035 5.91058 6.50135Z" fill="#3C3C3C"/>
</svg>
