<svg width="16" height="16" viewBox="0 0 16 16" fill="none" xmlns="http://www.w3.org/2000/svg">
<path d="M3.33333 2.00033V14.0003H12.6667V2.00033H3.33333ZM2.66667 0.666992H13.3333C13.7015 0.666992 14 0.979682 14 1.3654V14.6352C14 15.021 13.7015 15.3337 13.3333 15.3337H2.66667C2.29848 15.3337 2 15.021 2 14.6352V1.3654C2 0.979682 2.29848 0.666992 2.66667 0.666992ZM5 4.66699H7C7.1841 4.66699 7.33333 4.81623 7.33333 5.00033V5.66699C7.33333 5.85109 7.1841 6.00033 7 6.00033H5C4.81591 6.00033 4.66667 5.85109 4.66667 5.66699V5.00033C4.66667 4.81623 4.81591 4.66699 5 4.66699ZM5 7.33366H11C11.1841 7.33366 11.3333 7.4829 11.3333 7.66699V8.33366C11.3333 8.51775 11.1841 8.66699 11 8.66699H5C4.81591 8.66699 4.66667 8.51775 4.66667 8.33366V7.66699C4.66667 7.4829 4.81591 7.33366 5 7.33366ZM5 10.0003H11C11.1841 10.0003 11.3333 10.1496 11.3333 10.3337V11.0003C11.3333 11.1844 11.1841 11.3337 11 11.3337H5C4.81591 11.3337 4.66667 11.1844 4.66667 11.0003V10.3337C4.66667 10.1496 4.81591 10.0003 5 10.0003Z" fill="#2B2F36"/>
</svg>
