<svg width="12" height="12" viewBox="0 0 12 12" fill="none" xmlns="http://www.w3.org/2000/svg">
<g clip-path="url(#clip0_9160_82251)">
<path d="M0.5 6C0.5 9.0375 2.9625 11.5 6 11.5C9.0375 11.5 11.5 9.0375 11.5 6C11.5 2.9625 9.0375 0.5 6 0.5C2.9625 0.5 0.5 2.9625 0.5 6ZM6.25001 8C6.28284 8 6.31535 8.00647 6.34568 8.01903C6.37601 8.03159 6.40357 8.05001 6.42678 8.07322C6.45 8.09644 6.46841 8.124 6.48098 8.15433C6.49354 8.18466 6.50001 8.21717 6.50001 8.25V8.75C6.50001 8.78283 6.49354 8.81534 6.48098 8.84567C6.46841 8.876 6.45 8.90356 6.42678 8.92678C6.40357 8.94999 6.37601 8.96841 6.34568 8.98097C6.31535 8.99354 6.28284 9 6.25001 9H5.75001C5.71718 9 5.68467 8.99354 5.65434 8.98097C5.624 8.96841 5.59644 8.94999 5.57323 8.92678C5.55002 8.90356 5.5316 8.876 5.51904 8.84567C5.50647 8.81534 5.50001 8.78283 5.50001 8.75V8.25C5.50001 8.21717 5.50647 8.18466 5.51904 8.15433C5.5316 8.124 5.55002 8.09644 5.57323 8.07322C5.59644 8.05001 5.624 8.03159 5.65434 8.01903C5.68467 8.00647 5.71718 8 5.75001 8H6.25001ZM4.04451 4.5015C4.14201 3.9585 4.38876 3.5595 4.78501 3.304C5.09526 3.1015 5.47676 3 5.92901 3C6.52326 3 7.017 3.144 7.41025 3.43175C7.8035 3.72 8 4.146 8 4.71125C8 5.05775 7.9145 5.3495 7.7435 5.58675C7.64351 5.73075 7.45175 5.91475 7.16776 6.1385L6.88776 6.3585C6.73526 6.4785 6.63376 6.6185 6.58376 6.77825C6.57026 6.82175 6.55826 6.903 6.54801 7.0215C6.54263 7.08384 6.51406 7.14189 6.46796 7.1842C6.42186 7.2265 6.36158 7.24998 6.29901 7.25H5.73901C5.70425 7.24997 5.66989 7.2427 5.6381 7.22865C5.60632 7.21459 5.57781 7.19407 5.5544 7.16838C5.531 7.14269 5.5132 7.1124 5.50216 7.07945C5.49111 7.0465 5.48706 7.01161 5.49026 6.977C5.52251 6.629 5.55701 6.40875 5.59376 6.3165C5.66201 6.1445 5.83826 5.9465 6.12226 5.72275L6.41026 5.49475C6.41616 5.49026 6.4236 5.48472 6.43235 5.47819C6.56393 5.38007 6.99275 5.0603 6.99275 4.77525C6.99275 4.471 6.93976 4.35925 6.78701 4.19225C6.63451 4.02525 6.29051 3.9715 5.98026 3.9715C5.67526 3.9715 5.41451 4.0525 5.28701 4.25775C5.22822 4.35195 5.18049 4.45262 5.14476 4.55775C5.12874 4.60792 5.11654 4.65924 5.10826 4.71125C5.09829 4.76935 5.06812 4.82207 5.02306 4.86008C4.978 4.8981 4.92096 4.91896 4.86201 4.919H4.27326C4.23806 4.91898 4.20326 4.91152 4.17113 4.89712C4.13901 4.88272 4.1103 4.8617 4.08686 4.83543C4.06342 4.80917 4.0458 4.77825 4.03514 4.7447C4.02448 4.71115 4.02103 4.67573 4.02501 4.64075C4.03126 4.585 4.03776 4.53825 4.04451 4.5015Z" fill="#3C3C3C"/>
</g>
<defs>
<clipPath id="clip0_9160_82251">
<rect width="12" height="12" fill="white"/>
</clipPath>
</defs>
</svg>
