<svg width="14" height="14" viewBox="0 0 14 14" fill="none" xmlns="http://www.w3.org/2000/svg">
<g clip-path="url(#clip0_8483_7361)">
<path d="M7.00065 12.2497C4.10116 12.2497 1.75065 9.89917 1.75065 6.99967C1.75065 4.10018 4.10116 1.74967 7.00065 1.74967C9.90015 1.74967 12.2507 4.10018 12.2507 6.99967C12.2507 9.89917 9.90015 12.2497 7.00065 12.2497ZM7.00065 13.4163C10.5445 13.4163 13.4173 10.5435 13.4173 6.99967C13.4173 3.45585 10.5445 0.583008 7.00065 0.583008C3.45682 0.583008 0.583984 3.45585 0.583984 6.99967C0.583984 10.5435 3.45682 13.4163 7.00065 13.4163Z" fill="#F34C3D"/>
<path d="M6.70898 4.08301C6.5479 4.08301 6.41732 4.21359 6.41732 4.37467V7.87467C6.41732 8.03576 6.5479 8.16634 6.70898 8.16634H7.29232C7.4534 8.16634 7.58398 8.03576 7.58398 7.87467V4.37467C7.58398 4.21359 7.4534 4.08301 7.29232 4.08301H6.70898Z" fill="#F34C3D"/>
<path d="M6.70898 8.74967C6.5479 8.74967 6.41732 8.88026 6.41732 9.04134V9.62467C6.41732 9.78576 6.5479 9.91634 6.70898 9.91634H7.29232C7.4534 9.91634 7.58398 9.78576 7.58398 9.62467V9.04134C7.58398 8.88026 7.4534 8.74967 7.29232 8.74967H6.70898Z" fill="#F34C3D"/>
</g>
<defs>
<clipPath id="clip0_8483_7361">
<rect width="14" height="14" fill="white"/>
</clipPath>
</defs>
</svg>
