<svg xmlns="http://www.w3.org/2000/svg" width="19" height="19" viewBox="0 0 19 19" fill=""> <path d="M8.19092 16C8.12455 16 8.05716 15.9924 7.99079 15.9773C7.64928 15.8988 7.38526 15.6282 7.31539 15.285L5.8902 8.30291L4.8669 11.3093C4.74365 11.6712 4.40379 11.9148 4.02106 11.9148H0.893453C0.400045 11.9148 0 11.5146 0 11.0214C0 10.5282 0.400251 10.1279 0.893453 10.1279H3.3809L5.25994 4.60626C5.39019 4.22373 5.76015 3.9727 6.16225 4.00238C6.56477 4.02793 6.90051 4.31998 6.9813 4.71528L8.67361 13.0057L10.6085 10.4781C10.8092 10.217 11.1374 10.0878 11.463 10.1395C11.7882 10.1931 12.0582 10.4216 12.1639 10.7335L13.0005 13.1912H17.5729C18.0663 13.1912 18.4664 13.5915 18.4664 14.0847C18.4664 14.5779 18.0661 14.9781 17.5729 14.9781H12.3606C11.9778 14.9781 11.638 14.7343 11.5147 14.3726L11.011 12.8922L8.90053 15.6496C8.81706 15.7586 8.70964 15.8468 8.58659 15.9076C8.46353 15.9683 8.32815 16 8.19092 16Z" fill=""/> </svg>