<svg width="14" height="14" viewBox="0 0 14 14" fill="currentColor" xmlns="http://www.w3.org/2000/svg">
<g clip-path="url(#clip0_8845_11763)">
<path d="M4.375 7.21875C4.375 7.0447 4.44414 6.87778 4.56721 6.75471C4.69028 6.63164 4.8572 6.5625 5.03125 6.5625H8.53125C8.7053 6.5625 8.87222 6.63164 8.99529 6.75471C9.11836 6.87778 9.1875 7.0447 9.1875 7.21875C9.1875 7.3928 9.11836 7.55972 8.99529 7.68279C8.87222 7.80586 8.7053 7.875 8.53125 7.875H5.03125C4.8572 7.875 4.69028 7.80586 4.56721 7.68279C4.44414 7.55972 4.375 7.3928 4.375 7.21875ZM3.5 9.1875C3.32595 9.1875 3.15903 9.25664 3.03596 9.37971C2.91289 9.50278 2.84375 9.6697 2.84375 9.84375C2.84375 10.0178 2.91289 10.1847 3.03596 10.3078C3.15903 10.4309 3.32595 10.5 3.5 10.5H7C7.17405 10.5 7.34097 10.4309 7.46404 10.3078C7.58711 10.1847 7.65625 10.0178 7.65625 9.84375C7.65625 9.6697 7.58711 9.50278 7.46404 9.37971C7.34097 9.25664 7.17405 9.1875 7 9.1875H3.5Z" fill="currentColor"/>
<path d="M11.375 -0.00439453C12.8223 -0.00439453 14 1.15761 14 2.62061C14 3.47986 13.7043 4.31198 13.3149 5.08636C12.9273 5.85548 12.4154 6.62461 11.9306 7.35086L11.921 7.36573C11.424 8.11211 10.955 8.81736 10.6076 9.50598C10.2594 10.1964 10.0625 10.8132 10.0625 11.375C10.0626 11.6017 10.1214 11.8246 10.2333 12.0218C10.3451 12.2191 10.5061 12.384 10.7006 12.5005C10.8952 12.617 11.1166 12.6811 11.3432 12.6866C11.5699 12.6921 11.7942 12.6388 11.9941 12.5318C12.194 12.4249 12.3629 12.2679 12.4841 12.0763C12.6053 11.8847 12.6749 11.665 12.6859 11.4385C12.697 11.212 12.6492 10.9865 12.5472 10.784C12.4452 10.5815 12.2925 10.4089 12.1039 10.283C11.9648 10.1839 11.8699 10.0346 11.8392 9.86662C11.8085 9.69868 11.8444 9.52538 11.9394 9.38351C12.0343 9.24164 12.1808 9.14235 12.3478 9.10673C12.5148 9.07111 12.689 9.10196 12.8336 9.19273C13.3017 9.50567 13.6568 9.96084 13.8464 10.491C14.036 11.0212 14.0501 11.5983 13.8866 12.1372C13.7232 12.676 13.3907 13.1479 12.9385 13.4834C12.4862 13.8188 11.9381 13.9999 11.375 14H2.62501C1.92881 14 1.26114 13.7234 0.768852 13.2311C0.276569 12.7389 7.51326e-06 12.0712 7.51326e-06 11.375C7.51326e-06 9.99073 0.779632 8.63186 1.55488 7.43223C1.73863 7.15048 1.92034 6.87456 2.10001 6.60448C2.51388 5.98411 2.90763 5.39173 3.22613 4.81248H2.19626C1.69226 4.81248 0.987883 4.69611 0.527633 4.12736C0.180945 3.70227 -0.00575667 3.16911 7.51326e-06 2.62061C7.51326e-06 1.92441 0.276569 1.25673 0.768852 0.76445C1.26114 0.272167 1.92881 -0.00439453 2.62501 -0.00439453H11.375ZM11.375 1.30811C11.0269 1.30811 10.6931 1.44639 10.4469 1.69253C10.2008 1.93867 10.0625 2.27251 10.0625 2.62061C10.0625 3.03711 10.2576 3.35036 10.6461 3.61111C10.763 3.68942 10.8516 3.80321 10.8988 3.9357C10.9461 4.06818 10.9496 4.21235 10.9087 4.34694C10.8678 4.48154 10.7848 4.59943 10.6718 4.68325C10.5588 4.76707 10.4219 4.81237 10.2813 4.81248H4.69701C4.28838 5.69011 3.69863 6.57561 3.14563 7.40511C2.97763 7.65798 2.81226 7.90473 2.65738 8.14448C1.86376 9.37211 1.31251 10.4265 1.31251 11.375C1.31251 11.7231 1.45079 12.0569 1.69693 12.3031C1.94307 12.5492 2.27691 12.6875 2.62501 12.6875H9.10088C8.87077 12.2884 8.74976 11.8357 8.75001 11.375C8.75001 10.5184 9.04576 9.68798 9.43601 8.91448C9.82188 8.14973 10.3311 7.38498 10.8141 6.66048L10.829 6.63773C11.326 5.89136 11.7941 5.18698 12.1424 4.49573C12.4906 3.80448 12.6875 3.18586 12.6875 2.62061C12.6875 1.88736 12.1021 1.30811 11.375 1.30811ZM2.62501 1.30811C2.27691 1.30811 1.94307 1.44639 1.69693 1.69253C1.45079 1.93867 1.31251 2.27251 1.31251 2.62061C1.31251 2.90148 1.40001 3.11848 1.54876 3.30136C1.63363 3.40636 1.83313 3.49998 2.19626 3.49998H8.91101C8.80186 3.21977 8.74722 2.92131 8.75001 2.62061C8.75001 2.14286 8.87776 1.69398 9.10088 1.30811H2.62501Z" fill="currentColor"/>
</g>
<defs>
<clipPath id="clip0_8845_11763">
<rect width="14" height="14" fill="currentColor"/>
</clipPath>
</defs>
</svg>
