<?xml version="1.0" standalone="no"?>
<!DOCTYPE svg PUBLIC "-//W3C//DTD SVG 1.1//EN" "http://www.w3.org/Graphics/SVG/1.1/DTD/svg11.dtd"><svg t="1744271361133"
    class="icon" viewBox="0 0 1024 1024" version="1.1" xmlns="http://www.w3.org/2000/svg" p-id="1306"
    xmlns:xlink="http://www.w3.org/1999/xlink" width="200" height="200">
    <path
        d="M512 896a384 384 0 1 0 0-768 384 384 0 0 0 0 768z m0 85.357714A469.357714 469.357714 0 1 1 512 42.642286a469.357714 469.357714 0 0 1 0 938.715428z m-21.357714-298.715428h42.715428c11.702857 0 21.284571 9.508571 21.284572 21.357714v42.642286c0 11.776-9.508571 21.357714-21.284572 21.357714h-42.715428a21.357714 21.357714 0 0 1-21.284572-21.357714v-42.642286c0-11.776 9.508571-21.357714 21.284572-21.357714zM343.478857 395.995429c0.512-4.754286 1.097143-8.777143 1.682286-11.849143 8.265143-46.372571 29.330286-80.457143 63.122286-102.180572 26.550857-17.334857 59.026286-25.965714 97.645714-25.965714 50.761143 0 92.891429 12.288 126.390857 36.864 33.572571 24.576 50.322286 60.928 50.322286 109.129143 0 29.622857-7.314286 54.491429-21.869715 74.752-8.484571 12.288-24.868571 27.940571-49.152 47.104l-23.917714 18.724571c-12.946286 10.24-21.650286 22.162286-25.892571 35.84a115.565714 115.565714 0 0 0-3.072 20.772572 21.357714 21.357714 0 0 1-21.211429 19.456h-47.762286a21.357714 21.357714 0 0 1-21.211428-23.259429c2.706286-29.696 5.632-48.493714 8.777143-56.32 5.851429-14.701714 20.845714-31.597714 45.129143-50.761143l24.576-19.382857c8.045714-6.144 49.737143-35.474286 49.737142-61.44s-4.608-35.474286-17.554285-49.737143c-13.092571-14.262857-42.422857-18.870857-68.900572-18.870857-26.038857 0-48.274286 6.948571-59.172571 24.429714-5.046857 8.118857-9.142857 16.822857-12.141714 25.6a89.234286 89.234286 0 0 0-3.072 13.165715 21.357714 21.357714 0 0 1-21.065143 17.700571h-50.176a21.357714 21.357714 0 0 1-21.211429-23.771428z"
        p-id="1307"></path>
</svg>