<?xml version="1.0" standalone="no"?><!DOCTYPE svg PUBLIC "-//W3C//DTD SVG 1.1//EN" "http://www.w3.org/Graphics/SVG/1.1/DTD/svg11.dtd"><svg t="1741431139830" class="icon" viewBox="0 0 1024 1024" version="1.1" xmlns="http://www.w3.org/2000/svg" p-id="1750" xmlns:xlink="http://www.w3.org/1999/xlink" width="200" height="200"><path d="M896 146.176c0-39.978667-42.88-66.688-78.976-46.848-48.512 26.624-192.128 104.192-278.101333 138.368-100.053333 39.722667-186.197333 54.656-284.928 59.264C185.6 300.117333 128 355.370667 128 426.666667v170.666666c0 71.296 57.6 126.549333 125.994667 129.706667q17.493333 0.853333 34.56 2.090667l-31.744 158.506666a42.666667 42.666667 0 0 0 83.712 16.725334l32.981333-165.034667c53.888 9.173333 107.306667 23.893333 165.418667 46.976 85.973333 34.176 229.546667 111.786667 278.101333 138.368 36.096 19.84 78.976-6.869333 78.976-46.848zM384 654.592c60.501333 10.026667 120.874667 26.368 186.453333 52.437333 70.485333 27.989333 174.336 81.877333 240.213334 117.162667V199.808c-65.877333 35.285333-169.728 89.173333-240.213334 117.162667-65.578667 26.026667-125.952 42.410667-186.453333 52.48zM298.666667 379.690667q-20.138667 1.536-40.704 2.517333C232.234667 383.402667 213.333333 403.712 213.333333 426.666667v170.666666c0 22.954667 18.901333 43.264 44.629334 44.458667q20.608 0.938667 40.704 2.56z" fill="#999999" p-id="1751"></path></svg>