<?xml version="1.0" standalone="no"?><!DOCTYPE svg PUBLIC "-//W3C//DTD SVG 1.1//EN" "http://www.w3.org/Graphics/SVG/1.1/DTD/svg11.dtd"><svg t="1743996529965" class="icon" viewBox="0 0 1024 1024" version="1.1" xmlns="http://www.w3.org/2000/svg" p-id="15794" xmlns:xlink="http://www.w3.org/1999/xlink" width="200" height="200"><path d="M487.310222 0c-14.961778 0-29.582222 4.266667-41.984 10.410667l-346.055111 199.68C73.841778 224.824889 56.888889 252.416 56.888889 284.16v398.677333c0 30.037333 17.066667 57.344 41.927111 73.898667l345.827556 199.509333c13.425778 8.874667 28.728889 10.808889 42.666666 10.808889 14.904889 0 29.582222-4.209778 41.927111-10.410666l346.055111-199.68c25.429333-14.791111 42.382222-42.382222 42.382223-74.126223V284.216889c0-30.037333-17.066667-57.344-41.927111-73.898667L529.692444 10.638222 529.237333 10.467556A95.288889 95.288889 0 0 0 487.310222 0zM150.641778 677.774222V289.336889l336.668444-194.218667 336.611556 194.218667v388.437333l-336.611556 194.218667-336.668444-194.218667z m547.441778-266.581333c22.641778-13.539556 30.435556-41.415111 16.611555-63.032889-10.353778-24.462222-39.480889-30.151111-61.838222-16.782222L499.086222 422.456889l-0.341333 0.284444c-8.192 5.461333-19.626667 5.859556-30.378667-0.227555L326.200889 333.368889c-21.390222-14.222222-51.484444-6.940444-65.422222 13.937778-14.222222 21.447111-6.997333 51.598222 13.880889 65.536L420.977778 504.035556a28.444444 28.444444 0 0 1 13.027555 24.803555v186.026667c0 25.827556 21.048889 46.876444 46.876445 46.876444 25.770667 0 46.876444-21.048889 46.876444-46.876444v-186.026667a27.875556 27.875556 0 0 1 14.051556-24.291555l156.273778-93.411556z" p-id="15795"></path></svg>