<?xml version="1.0" standalone="no"?>
<!DOCTYPE svg PUBLIC "-//W3C//DTD SVG 1.1//EN" "http://www.w3.org/Graphics/SVG/1.1/DTD/svg11.dtd"><svg t="1743996439335"
    class="icon" viewBox="0 0 1024 1024" version="1.1" xmlns="http://www.w3.org/2000/svg" p-id="15496"
    xmlns:xlink="http://www.w3.org/1999/xlink" width="200" height="200">
    <path
        d="M512 113.777778a455.111111 455.111111 0 0 1 321.422222 777.329778 45.966222 45.966222 0 0 1-65.536-0.568889l-38.343111-39.765334a45.511111 45.511111 0 0 1 65.536-63.146666l4.437333 4.608a364.088889 364.088889 0 1 0-575.032888 0l4.437333-4.608a45.511111 45.511111 0 1 1 65.536 63.146666l-38.343111 39.765334a46.08 46.08 0 0 1-65.536 0.568889A453.745778 453.745778 0 0 1 56.888889 568.888889a455.111111 455.111111 0 0 1 455.111111-455.111111z m0 182.044444a45.511111 45.511111 0 0 1 45.511111 45.511111v239.729778a91.022222 91.022222 0 1 1-91.022222 0V341.333333a45.511111 45.511111 0 0 1 45.511111-45.511111z"
        p-id="15497"></path>
</svg>