<?xml version="1.0" standalone="no"?><!DOCTYPE svg PUBLIC "-//W3C//DTD SVG 1.1//EN" "http://www.w3.org/Graphics/SVG/1.1/DTD/svg11.dtd"><svg t="1743996673121" class="icon" viewBox="0 0 1024 1024" version="1.1" xmlns="http://www.w3.org/2000/svg" p-id="16233" xmlns:xlink="http://www.w3.org/1999/xlink" width="200" height="200"><path d="M479.345778 56.888889a239.729778 239.729778 0 0 0-239.672889 239.502222c0 72.021333 30.037333 137.784889 81.294222 182.215111l-123.392 226.019556a47.900444 47.900444 0 1 0 84.195556 45.909333L425.528889 487.025778a47.900444 47.900444 0 0 0-18.773333-64.853334c-43.121778-23.893333-71.224889-70.257778-71.224889-125.724444a143.701333 143.701333 0 0 1 143.815111-143.758222 143.815111 143.815111 0 0 1 143.758222 143.758222 47.900444 47.900444 0 0 0 95.914667 0A239.502222 239.502222 0 0 0 479.288889 56.888889z" p-id="16234"></path><path d="M595.285333 869.774222a47.957333 47.957333 0 0 1 64.853334-19.911111 143.815111 143.815111 0 0 0 190.862222-200.533333 143.815111 143.815111 0 0 0-195.413333-50.915556 47.957333 47.957333 0 0 1-65.479112-17.578666L446.293333 331.889778a47.900444 47.900444 0 1 1 83.057778-47.900445l122.197333 211.626667A239.786667 239.786667 0 0 1 967.111111 718.620444a239.445333 239.445333 0 0 1-231.992889 243.712 239.729778 239.729778 0 0 1-119.864889-27.761777 47.900444 47.900444 0 0 1-19.911111-64.739556z" p-id="16235"></path><path d="M178.460444 539.761778a47.900444 47.900444 0 0 1-15.132444 65.991111 143.758222 143.758222 0 1 0 220.16 121.856c0-26.453333 21.447111-47.900444 47.900444-47.900445h287.630223a47.900444 47.900444 0 1 1 0 95.800889H474.453333A239.502222 239.502222 0 0 1 242.915556 967.111111a239.729778 239.729778 0 0 1-242.801778-233.073778 239.445333 239.445333 0 0 1 112.298666-209.464889 47.957333 47.957333 0 0 1 66.048 15.189334z" p-id="16236"></path></svg>