<svg width="18" height="18" viewBox="0 0 18 18" fill="" xmlns="http://www.w3.org/2000/svg">
<path d="M7.98692 1.10678C8.3192 0.982462 8.68224 0.966255 9.02427 1.06047L9.16909 1.10678L15.0631 3.31703C15.3619 3.4291 15.6228 3.62378 15.8153 3.8784C16.0077 4.13302 16.1238 4.43709 16.1501 4.75517L16.156 4.8941V9.40975C16.156 10.7742 15.7876 12.1132 15.0897 13.2856C14.3918 14.4581 13.3904 15.4203 12.191 16.0708L11.9671 16.1879L9.14299 17.5999C8.98749 17.6775 8.81765 17.7222 8.64408 17.7312C8.47051 17.7402 8.29695 17.7133 8.13427 17.6521L8.01303 17.5999L5.18895 16.1879C3.96857 15.5777 2.93557 14.6493 2.19901 13.5007C1.46245 12.3522 1.04966 11.026 1.00421 9.66235L1 9.40975V4.8941C1 4.57509 1.09062 4.26265 1.2613 3.99314C1.43198 3.72363 1.6757 3.50814 1.96409 3.37176L2.09292 3.31703L7.98692 1.10678ZM8.57801 2.68385L2.684 4.8941V9.40975C2.68402 10.4665 2.96814 11.5037 3.5066 12.413C4.04506 13.3222 4.81806 14.07 5.74468 14.578L5.94255 14.6815L8.57801 15.9993L11.2135 14.6815C12.1588 14.2089 12.9597 13.4909 13.5322 12.6025C14.1048 11.7141 14.4279 10.6882 14.4678 9.63204L14.472 9.40975V4.8941L8.57801 2.68385ZM11.4686 6.52422C11.6201 6.3732 11.8234 6.28553 12.0373 6.279C12.2511 6.27247 12.4594 6.34758 12.6198 6.48906C12.7803 6.63055 12.8809 6.8278 12.9012 7.04076C12.9215 7.25372 12.8599 7.46642 12.7291 7.63566L12.6592 7.71481L8.25215 12.1227C8.09162 12.2832 7.87774 12.3792 7.65111 12.3923C7.42449 12.4055 7.20091 12.335 7.02283 12.1943L6.942 12.1227L4.91783 10.0985C4.76521 9.94734 4.67615 9.74355 4.66886 9.52886C4.66158 9.31417 4.73663 9.10481 4.87865 8.94364C5.02067 8.78247 5.21892 8.68167 5.43282 8.66188C5.64672 8.6421 5.8601 8.70481 6.02927 8.83719L6.10842 8.90708L7.59708 10.3957L11.4686 6.52422Z" fill=""/>
</svg>
