<?xml version="1.0" standalone="no"?><!DOCTYPE svg PUBLIC "-//W3C//DTD SVG 1.1//EN" "http://www.w3.org/Graphics/SVG/1.1/DTD/svg11.dtd"><svg t="1743996491713" class="icon" viewBox="0 0 1024 1024" version="1.1" xmlns="http://www.w3.org/2000/svg" p-id="15644" xmlns:xlink="http://www.w3.org/1999/xlink" width="200" height="200"><path d="M298.666667 881.777778a28.444444 28.444444 0 0 1 28.444444-28.444445h369.777778a28.444444 28.444444 0 0 1 28.444444 28.444445v28.444444a28.444444 28.444444 0 0 1-28.444444 28.444445h-369.777778a28.444444 28.444444 0 0 1-28.444444-28.444445v-28.444444z m288.142222-628.622222a42.780444 42.780444 0 0 1 20.707555 57.002666l-113.208888 241.436445a43.121778 43.121778 0 0 1-79.246223-3.413334 42.780444 42.780444 0 0 1 1.422223-32.711111L529.635556 274.033778a43.121778 43.121778 0 0 1 57.173333-20.821334V253.155556zM128 192V682.666667h768V170.666667H128v21.333333zM42.666667 142.222222a56.888889 56.888889 0 0 1 56.888889-56.888889h824.888888a56.888889 56.888889 0 0 1 56.888889 56.888889v568.888889a56.888889 56.888889 0 0 1-56.888889 56.888889H99.555556a56.888889 56.888889 0 0 1-56.888889-56.888889v-568.888889z m181.248 303.388445a42.496 42.496 0 0 1-11.377778-50.972445 42.496 42.496 0 0 1 11.377778-14.677333l79.530666-79.075556a43.064889 43.064889 0 0 1 70.030223 13.880889 42.666667 42.666667 0 0 1-9.272889 46.535111l-51.768889 51.484445 51.768889 51.484444a42.723556 42.723556 0 0 1-30.378667 72.988445c-11.377778 0-22.300444-4.494222-30.378667-12.515556l-79.530666-79.075555v-0.056889z m576.170666 0l-79.530666 79.132444a43.064889 43.064889 0 0 1-73.329778-30.208 42.666667 42.666667 0 0 1 12.515555-30.264889l51.768889-51.484444-51.768889-51.484445-0.113777-0.113777a42.666667 42.666667 0 0 1 30.549333-72.817778c11.377778 0 22.300444 4.494222 30.378667 12.515555l79.530666 79.075556a42.496 42.496 0 0 1 15.303111 32.824889 42.439111 42.439111 0 0 1-15.36 32.824889z" p-id="15645"></path></svg>