<?xml version="1.0" standalone="no"?><!DOCTYPE svg PUBLIC "-//W3C//DTD SVG 1.1//EN" "http://www.w3.org/Graphics/SVG/1.1/DTD/svg11.dtd"><svg t="1743996558423" class="icon" viewBox="0 0 1024 1024" version="1.1" xmlns="http://www.w3.org/2000/svg" p-id="15940" xmlns:xlink="http://www.w3.org/1999/xlink" width="200" height="200"><path d="M557.283556 50.972444l415.744 415.800889c25.031111 24.974222 25.031111 65.479111 0 90.453334l-415.744 415.857777c-25.031111 24.974222-65.536 24.974222-90.510223 0l-415.857777-415.857777a64 64 0 0 1 0-90.453334l415.857777-415.857777c24.974222-24.917333 65.479111-24.917333 90.453334 0zM512 96.142222l-90.453333 90.453334 72.078222 72.021333c5.632-1.706667 11.434667-2.56 17.294222-2.673778H512a64 64 0 0 1 61.326222 82.375111l112.298667 112.298667A63.943111 63.943111 0 0 1 768 512a64 64 0 1 1-123.619556-23.324444L540.103111 384.284444l0.341333 262.314667c20.764444 10.353778 35.157333 31.630222 35.555556 56.32v1.024a64 64 0 1 1-91.534222-57.799111l-0.398222-268.572444a64 64 0 0 1-31.687112-81.009778L382.008889 226.247111 96.142222 512 512 927.800889 927.800889 512 512 96.199111z" p-id="15941"></path></svg>