<svg width="18" height="18" viewBox="0 0 18 18" fill="" xmlns="http://www.w3.org/2000/svg">
<path d="M4.72802 12.375H13.272C13.4595 12.2625 13.6613 12.1725 13.875 12.1088V10.875C13.875 10.6761 13.796 10.4854 13.6553 10.3447C13.5147 10.204 13.3239 10.125 13.125 10.125H4.87502C4.6761 10.125 4.48534 10.204 4.34469 10.3447C4.20403 10.4854 4.12502 10.6761 4.12502 10.875V12.1088C4.33877 12.1725 4.54089 12.2625 4.72802 12.375ZM2.62502 12.1088V10.875C2.62502 10.2783 2.86207 9.706 3.28403 9.28404C3.70598 8.86208 4.27828 8.62503 4.87502 8.62503H8.25002V7.03053C7.54302 6.84799 6.92687 6.41386 6.51706 5.80953C6.10725 5.20519 5.93192 4.47214 6.02393 3.74778C6.11593 3.02342 6.46896 2.35748 7.01684 1.87479C7.56472 1.3921 8.26983 1.12579 9.00002 1.12579C9.7302 1.12579 10.4353 1.3921 10.9832 1.87479C11.5311 2.35748 11.8841 3.02342 11.9761 3.74778C12.0681 4.47214 11.8928 5.20519 11.483 5.80953C11.0732 6.41386 10.457 6.84799 9.75002 7.03053V8.62503H13.125C13.7218 8.62503 14.294 8.86208 14.716 9.28404C15.138 9.706 15.375 10.2783 15.375 10.875V12.1088C15.9521 12.2808 16.4524 12.646 16.7922 13.1431C17.132 13.6402 17.2906 14.239 17.2414 14.8391C17.1921 15.4392 16.938 16.0042 16.5217 16.4392C16.1054 16.8743 15.5522 17.153 14.9549 17.2286C14.3575 17.3042 13.7523 17.1722 13.2407 16.8546C12.7291 16.537 12.3423 16.0532 12.145 15.4843C11.9477 14.9154 11.9521 14.296 12.1573 13.7299C12.3625 13.1638 12.756 12.6854 13.272 12.375H4.72802C5.24399 12.6854 5.63757 13.1638 5.84276 13.7299C6.04796 14.296 6.05229 14.9154 5.85503 15.4843C5.65778 16.0532 5.27093 16.537 4.75935 16.8546C4.24776 17.1722 3.64255 17.3042 3.04518 17.2286C2.4478 17.153 1.89459 16.8743 1.47829 16.4392C1.062 16.0042 0.807925 15.4392 0.758676 14.8391C0.709427 14.239 0.867995 13.6402 1.20779 13.1431C1.54759 12.646 2.04797 12.2808 2.62502 12.1088ZM9.00002 5.62503C9.39784 5.62503 9.77937 5.467 10.0607 5.18569C10.342 4.90439 10.5 4.52286 10.5 4.12503C10.5 3.72721 10.342 3.34568 10.0607 3.06437C9.77937 2.78307 9.39784 2.62503 9.00002 2.62503C8.60219 2.62503 8.22066 2.78307 7.93935 3.06437C7.65805 3.34568 7.50002 3.72721 7.50002 4.12503C7.50002 4.52286 7.65805 4.90439 7.93935 5.18569C8.22066 5.467 8.60219 5.62503 9.00002 5.62503ZM14.625 15.75C14.9234 15.75 15.2095 15.6315 15.4205 15.4205C15.6315 15.2095 15.75 14.9234 15.75 14.625C15.75 14.3267 15.6315 14.0405 15.4205 13.8295C15.2095 13.6186 14.9234 13.5 14.625 13.5C14.3266 13.5 14.0405 13.6186 13.8295 13.8295C13.6185 14.0405 13.5 14.3267 13.5 14.625C13.5 14.9234 13.6185 15.2095 13.8295 15.4205C14.0405 15.6315 14.3266 15.75 14.625 15.75ZM3.37502 15.75C3.67338 15.75 3.95953 15.6315 4.17051 15.4205C4.38149 15.2095 4.50002 14.9234 4.50002 14.625C4.50002 14.3267 4.38149 14.0405 4.17051 13.8295C3.95953 13.6186 3.67338 13.5 3.37502 13.5C3.07665 13.5 2.7905 13.6186 2.57952 13.8295C2.36854 14.0405 2.25002 14.3267 2.25002 14.625C2.25002 14.9234 2.36854 15.2095 2.57952 15.4205C2.7905 15.6315 3.07665 15.75 3.37502 15.75Z" fill=""/>
</svg>
