<?xml version="1.0" standalone="no"?><!DOCTYPE svg PUBLIC "-//W3C//DTD SVG 1.1//EN" "http://www.w3.org/Graphics/SVG/1.1/DTD/svg11.dtd"><svg t="1747987111238" class="icon" viewBox="0 0 1024 1024" version="1.1" xmlns="http://www.w3.org/2000/svg" p-id="1421" xmlns:xlink="http://www.w3.org/1999/xlink" width="200" height="200"><path d="M479.004444 51.598222a52.508444 52.508444 0 0 1 42.496 2.730667l396.515556 206.734222 6.257778 3.811556a52.337778 52.337778 0 0 1 21.902222 42.837333v417.735111c0 17.408-8.590222 33.564444-22.755556 43.349333l-6.371555 3.697778-396.288 197.632a52.394667 52.394667 0 0 1-41.244445 2.389334l-5.688888-2.389334-396.401778-197.632a52.679111 52.679111 0 0 1-29.070222-47.047111v-420.977778c0-19.626667 11.036444-37.717333 28.615111-46.648889L473.144889 54.158222 479.004444 51.598222zM124.188444 711.111111l335.189334 167.253333v-352.711111l-135.964445-66.901333v111.786667a37.831111 37.831111 0 1 1-75.719111 0V421.376L124.188444 360.675556v350.435555z m410.965334-189.212444v356.352L870.4 711.111111V343.153778L535.153778 521.898667zM363.861333 394.126222l130.048 64 315.392-168.277333-127.032889-66.218667-318.407111 170.496zM166.4 296.96l113.777778 55.921778 320.739555-171.690667-103.822222-54.215111-330.695111 169.984z" p-id="1422"></path><path d="M45.511111 725.447111v-420.977778c0-20.707556 11.662222-39.822222 30.151111-49.265777L471.893333 51.655111h0.113778L477.809778 48.924444h0.170666L483.555556 47.217778a55.466667 55.466667 0 0 1 39.253333 4.551111l396.515555 206.734222h0.170667l6.257778 3.868445 0.113778 0.113777 5.12 4.209778c11.377778 10.296889 18.090667 25.088 18.033777 40.96v417.735111c0 18.318222-9.102222 35.441778-23.950222 45.681778l-0.170666 0.113778-6.428445 3.697778-0.113778 0.113777-396.288 197.632a55.239111 55.239111 0 0 1-43.52 2.503111l-0.170666-0.056888-5.688889-2.389334-0.113778-0.056889-396.401778-197.632a55.523556 55.523556 0 0 1-30.72-49.607111z m827.733333-12.515555l-1.592888 0.739555-335.189334 167.139556-4.152889 2.104889V520.192l1.536-0.796444 339.399111-180.906667v374.385778zM537.998222 523.491556v350.151111l329.557334-164.408889V347.818667l-329.557334 175.786666z m-217.372444-69.404445l4.096 2.048 135.964444 66.844445 1.536 0.796444v359.139556l-340.878222-170.097778V356.124444l4.096 1.991112 123.505778 60.700444 1.536 0.796444v150.926223l0.739555 7.054222a34.986667 34.986667 0 0 0 34.360889 27.989333l7.054222-0.682666a35.043556 35.043556 0 0 0 27.989334-34.360889V454.144z m362.951111-233.016889L810.666667 287.288889l4.778666 2.446222-4.778666 2.56-315.392 168.277333-1.251556 0.682667-1.365333-0.625778-130.048-64-4.949334-2.446222 4.892445-2.616889 318.464-170.496 1.308444-0.739555 1.365334 0.739555zM370.119111 393.955556L493.795556 454.883556l309.304888-165.034667-120.888888-63.089778-312.206223 167.196445z m128.398222-269.425778l103.765334 54.215111 4.778666 2.446222-325.518222 174.250667-1.251555 0.739555-1.365334-0.682666-113.777778-55.921778-5.063111-2.503111 5.12-2.616889 330.695111-169.927111 1.251556-0.682667 1.365333 0.682667zM172.714667 296.96l107.406222 52.792889 314.652444-168.448-97.678222-51.029333-324.380444 166.684444z m152.746666 281.884444a40.675556 40.675556 0 0 1-31.687111 31.630223l-8.192 0.853333a40.675556 40.675556 0 0 1-39.936-32.483556l-0.796444-8.248888V423.253333L126.976 365.226667v344.064l329.557333 164.465777V527.416889l-130.275555-64.113778v107.235556l-0.796445 8.248889zM51.143111 725.447111c0 18.773333 10.752 36.124444 27.591111 44.487111l396.401778 197.632 5.404444 2.275556a49.493333 49.493333 0 0 0 38.968889-2.275556l396.288-197.632 6.200889-3.584a49.834667 49.834667 0 0 0 21.333334-40.903111V307.712a49.493333 49.493333 0 0 0-20.764445-40.504889l-6.087111-3.697778L520.192 56.832A49.664 49.664 0 0 0 480.142222 54.215111L474.339556 56.888889 78.222222 260.323556a49.720889 49.720889 0 0 0-27.079111 44.202666v420.920889z" p-id="1423"></path></svg>