<?xml version="1.0" standalone="no"?><!DOCTYPE svg PUBLIC "-//W3C//DTD SVG 1.1//EN" "http://www.w3.org/Graphics/SVG/1.1/DTD/svg11.dtd"><svg t="1743997003002" class="icon" viewBox="0 0 1024 1024" version="1.1" xmlns="http://www.w3.org/2000/svg" p-id="18681" xmlns:xlink="http://www.w3.org/1999/xlink" width="200" height="200"><path d="M881.777778 109.681778a53.304889 53.304889 0 0 0-78.961778-46.193778c-48.526222 26.282667-192.113778 102.684444-278.129778 136.419556-100.067556 39.139556-186.197333 53.873778-284.899555 58.368C171.406222 261.404444 113.777778 315.904 113.777778 386.161778v168.220444c0 70.257778 57.628444 124.757333 126.008889 127.829334 11.662222 0.568889 23.153778 1.251556 34.531555 2.048l-31.744 156.273777a41.585778 41.585778 0 0 0 6.371556 31.573334 43.178667 43.178667 0 0 0 59.164444 11.662222 42.097778 42.097778 0 0 0 18.204445-26.737778l32.995555-162.702222c53.873778 9.102222 107.292444 23.552 165.376 46.307555 85.959111 33.678222 229.546667 110.193778 278.129778 136.362667a53.304889 53.304889 0 0 0 78.961778-46.136889V109.681778z m-512 501.134222c60.529778 9.898667 120.888889 25.998222 186.424889 51.712 70.542222 27.534222 174.364444 80.668444 240.241777 115.484444V162.474667c-65.877333 34.816-169.699556 87.893333-240.241777 115.484444-65.536 25.656889-125.895111 41.813333-186.424889 51.768889v281.031111zM284.444444 339.854222c-13.425778 1.024-26.965333 1.820444-40.675555 2.503111-25.770667 1.137778-44.657778 21.162667-44.657778 43.804445v168.220444c0 22.641778 18.887111 42.666667 44.657778 43.804445 13.710222 0.625778 27.306667 1.479111 40.675555 2.503111V339.854222z" p-id="18682"></path></svg>