<?xml version="1.0" standalone="no"?><!DOCTYPE svg PUBLIC "-//W3C//DTD SVG 1.1//EN" "http://www.w3.org/Graphics/SVG/1.1/DTD/svg11.dtd"><svg t="1747217178384" class="icon" viewBox="0 0 1024 1024" version="1.1" xmlns="http://www.w3.org/2000/svg" p-id="1519" xmlns:xlink="http://www.w3.org/1999/xlink" width="200" height="200"><path d="M263.509333 61.098667A46.023111 46.023111 0 0 1 323.982222 49.208889l93.013334 55.751111a236.316444 236.316444 0 0 1 189.952 0l93.070222-55.751111 4.152889-2.218667a46.023111 46.023111 0 0 1 58.936889 18.033778l2.275555 4.152889a45.966222 45.966222 0 0 1-14.165333 56.32l-3.868445 2.56-59.278222 35.555555a236.657778 236.657778 0 0 1 60.359111 157.923556v3.982222c5.688889 3.356444 11.207111 6.940444 16.554667 10.808889a46.193778 46.193778 0 0 1 5.12-2.503111l84.650667-33.792 4.494222-1.592889a46.08 46.08 0 0 1 55.296 27.192889l1.479111 4.437333a46.023111 46.023111 0 0 1-22.755556 53.304889l-4.323555 1.991111-59.847111 23.893334c16.327111 30.492444 25.201778 64.853333 25.258666 100.124444v41.358222h80.952889a45.966222 45.966222 0 1 1 0 91.932445h-81.009778a342.357333 342.357333 0 0 1-19.968 111.672889l-6.030222 15.701333c-1.649778 3.925333-3.413333 7.736889-5.176889 11.548444l65.820445 26.396445 4.266666 1.934222a46.08 46.08 0 0 1-34.019555 84.992l-4.437333-1.536-81.92-32.824889c-2.389333 2.787556-4.721778 5.632-7.168 8.305778l-11.605334 12.231111a342.641778 342.641778 0 0 1-95.687111 67.413333l-15.36 6.826667a342.414222 342.414222 0 0 1-246.328889 6.087111l-15.701333-6.087111a342.641778 342.641778 0 0 1-98.872889-62.577778l-12.174222-11.662222a345.429333 345.429333 0 0 1-18.773334-20.48l-81.92 32.768a45.966222 45.966222 0 0 1-57.799111-21.333333l-1.991111-4.266667a46.023111 46.023111 0 0 1 25.6-59.733333l65.763556-26.453334a342.528 342.528 0 0 1-30.776889-125.724444l-0.284445-13.198222H88.746667a46.023111 46.023111 0 0 1 0-91.932445h80.952889v-41.358222c0-35.271111 8.760889-69.632 25.031111-100.124444l-59.619556-23.893334a45.966222 45.966222 0 0 1-25.6-59.733333l1.991111-4.266667a45.966222 45.966222 0 0 1 57.799111-21.333333l84.650667 33.792c1.706667 0.682667 3.356444 1.649778 4.949333 2.503111 5.404444-3.868444 10.922667-7.395556 16.668445-10.808889v-3.982222a236.657778 236.657778 0 0 1 60.359111-157.923556l-59.164445-35.555555a45.966222 45.966222 0 0 1-15.815111-63.032889l2.616889-3.925333zM370.346667 389.290667a120.832 120.832 0 0 0-64.568889 26.737777l-8.817778 8.021334a121.002667 121.002667 0 0 0-35.384889 85.390222v129.592889a250.481778 250.481778 0 0 0 73.329778 177.095111l8.931555 8.419556c21.276444 19.285333 45.681778 34.816 72.248889 45.852444l11.548445 4.380444c12.515556 4.494222 25.315556 7.850667 38.286222 10.24v-246.044444a45.966222 45.966222 0 0 1 91.989333 0v246.158222c17.009778-3.185778 33.735111-8.078222 49.834667-14.791111l11.264-4.949333a250.481778 250.481778 0 0 0 69.973333-49.265778l8.476445-8.931556c19.285333-21.276444 34.816-45.795556 45.795555-72.362666l4.437334-11.434667c9.671111-27.022222 14.620444-55.580444 14.620444-84.309333V509.383111l-0.568889-11.946667a120.888889 120.888889 0 0 0-26.794666-64.568888l-7.964445-8.874667a120.832 120.832 0 0 0-73.500444-34.759111l-11.889778-0.568889H382.350222l-11.946666 0.568889zM512 176.924444c-33.564444 0-65.877333 11.662222-91.591111 32.768l-10.638222 9.614223a144.497778 144.497778 0 0 0-40.163556 77.767111 212.764444 212.764444 0 0 1 12.629333-0.398222h259.470223l10.524444 0.284444 2.161778 0.113778a144.440889 144.440889 0 0 0-30.606222-67.128889l-9.671111-10.638222A144.497778 144.497778 0 0 0 512 176.924444z" p-id="1520"></path></svg>