<?xml version="1.0" standalone="no"?><!DOCTYPE svg PUBLIC "-//W3C//DTD SVG 1.1//EN" "http://www.w3.org/Graphics/SVG/1.1/DTD/svg11.dtd"><svg t="1746718254929" class="icon" viewBox="0 0 1024 1024" version="1.1" xmlns="http://www.w3.org/2000/svg" p-id="5460" xmlns:xlink="http://www.w3.org/1999/xlink" width="200" height="200"><path d="M512 970.688A117.312 117.312 0 1 0 512 736a117.312 117.312 0 0 0 0 234.688z m0-64A53.312 53.312 0 1 1 512 800a53.312 53.312 0 0 1 0 106.688zM511.808 672a309.312 309.312 0 1 0 0-618.688 309.312 309.312 0 0 0 0 618.688z m0-64a245.312 245.312 0 1 1 0-490.688 245.312 245.312 0 0 1 0 490.688z" p-id="5461"></path><path d="M374.08 394.688H256v-64h118.08C381.248 174.848 440.256 53.312 512 53.312c71.68 0 130.752 121.6 137.92 277.376H768v64h-118.08C642.752 550.4 583.744 672 512 672c-71.68 0-130.752-121.536-137.92-277.312z m64.064 0C444.608 518.016 486.912 608 512 608c25.088 0 67.392-89.984 73.856-213.312H438.144z m0-64h147.712C579.392 207.296 537.088 117.312 512 117.312c-25.088 0-67.392 89.984-73.856 213.376z" p-id="5462"></path><path d="M544 614.848v177.344h-64v-177.28zM128 821.312h275.072a32 32 0 0 1 0 64H128a32 32 0 1 1 0-64zM620.48 821.312h275.072a32 32 0 0 1 0 64H620.48a32 32 0 1 1 0-64z" p-id="5463"></path></svg>