<svg width="20" height="20" viewBox="0 0 20 20" fill="none" xmlns="http://www.w3.org/2000/svg">
<g clip-path="url(#clip0_4727_11832)">
<path fill-rule="evenodd" clip-rule="evenodd" d="M6.53583 3.16829C8.22667 2.16746 9.07167 1.66663 10 1.66663C10.9283 1.66663 11.7733 2.16663 13.4642 3.16829L14.0358 3.50663C15.7267 4.50829 16.5717 5.00913 17.0358 5.83329C17.5 6.65829 17.5 7.65829 17.5 9.66163V10.3383C17.5 12.3408 17.5 13.3425 17.0358 14.1666C16.5717 14.9908 15.7267 15.4916 14.0358 16.4925L13.4642 16.8316C11.7733 17.8325 10.9283 18.3333 10 18.3333C9.07167 18.3333 8.22667 17.8333 6.53583 16.8316L5.96417 16.4925C4.27333 15.4925 3.42833 14.9908 2.96417 14.1666C2.5 13.3416 2.5 12.3416 2.5 10.3383V9.66163C2.5 7.65829 2.5 6.65746 2.96417 5.83329C3.42833 5.00913 4.27333 4.50829 5.96417 3.50663L6.53583 3.16829ZM10.8333 13.3333C10.8333 13.5543 10.7455 13.7663 10.5893 13.9225C10.433 14.0788 10.221 14.1666 10 14.1666C9.77899 14.1666 9.56702 14.0788 9.41074 13.9225C9.25446 13.7663 9.16667 13.5543 9.16667 13.3333C9.16667 13.1123 9.25446 12.9003 9.41074 12.744C9.56702 12.5878 9.77899 12.5 10 12.5C10.221 12.5 10.433 12.5878 10.5893 12.744C10.7455 12.9003 10.8333 13.1123 10.8333 13.3333ZM10 5.20829C10.1658 5.20829 10.3247 5.27414 10.4419 5.39135C10.5592 5.50856 10.625 5.66753 10.625 5.83329V10.8333C10.625 10.9991 10.5592 11.158 10.4419 11.2752C10.3247 11.3924 10.1658 11.4583 10 11.4583C9.83424 11.4583 9.67527 11.3924 9.55806 11.2752C9.44085 11.158 9.375 10.9991 9.375 10.8333V5.83329C9.375 5.66753 9.44085 5.50856 9.55806 5.39135C9.67527 5.27414 9.83424 5.20829 10 5.20829Z" fill="#6C87FF"/>
<rect x="0.25" y="0.25" width="5.5" height="5.5" rx="2.75" fill="#BF1C0D"/>
<rect x="0.25" y="0.25" width="5.5" height="5.5" rx="2.75" stroke="white" stroke-width="0.5"/>
</g>
<defs>
<clipPath id="clip0_4727_11832">
<rect width="20" height="20" fill="white"/>
</clipPath>
</defs>
</svg>
