<svg width="16" height="16" viewBox="0 0 16 16" fill="none" xmlns="http://www.w3.org/2000/svg">
<path d="M5.66667 3.33333C4.74667 3.33333 4 4.07967 4 5C4 5.92033 4.74667 6.66667 5.66667 6.66667C6.58667 6.66667 7.33333 5.92033 7.33333 5C7.33333 4.07967 6.58667 3.33333 5.66667 3.33333ZM2.66667 5C2.66667 3.343 4.01 2 5.66667 2C7.32333 2 8.66667 3.343 8.66667 5C8.66667 6.657 7.32333 8 5.66667 8C4.01 8 2.66667 6.657 2.66667 5ZM3.89 10C2.67667 10 1.66667 10.999 1.66667 12.2667V13.3333H9.66667V12.2667C9.66667 10.999 8.65667 10 7.44333 10H3.89ZM0.333334 12.2667C0.333334 10.2783 1.92667 8.66667 3.89 8.66667H7.44333C9.40667 8.66667 11 10.2783 11 12.2667V14.0667C11 14.398 10.7333 14.6667 10.4067 14.6667H0.926667C0.600001 14.6667 0.333334 14.398 0.333334 14.0667V12.2667ZM15.2233 14H12.2433V13.7273V12.6667H14.3333V12.2667C14.3333 11.5987 13.77 11 13 11H12.1267C12 10.5073 11.7733 10.0553 11.47 9.66667H13C14.4733 9.66667 15.6667 10.8307 15.6667 12.2667V13.5667C15.6667 13.806 15.4667 14 15.2233 14ZM11 6.66667C11 6.29833 11.3 6 11.6667 6C12.0333 6 12.3333 6.29833 12.3333 6.66667C12.3333 7.035 12.0333 7.33333 11.6667 7.33333C11.3 7.33333 11 7.035 11 6.66667ZM11.6667 4.66667C10.5633 4.66667 9.66667 5.562 9.66667 6.66667C9.66667 7.77133 10.5633 8.66667 11.6667 8.66667C12.77 8.66667 13.6667 7.77133 13.6667 6.66667C13.6667 5.562 12.77 4.66667 11.6667 4.66667Z" fill="#0025CC"/>
</svg>
