<svg width="16" height="16" viewBox="0 0 16 16" fill="none" xmlns="http://www.w3.org/2000/svg">
<path d="M11.8368 9.33334C12.2344 9.33369 12.6156 9.49188 12.8966 9.77315C13.1776 10.0544 13.3354 10.4357 13.3354 10.8333V11.4453C13.3354 11.8273 13.2161 12.1998 12.9941 12.5107C11.9634 13.9533 10.2808 14.6673 8.00077 14.6673C5.71943 14.6673 4.03743 13.9527 3.00943 12.51C2.78818 12.1993 2.66933 11.8274 2.66943 11.446V10.8327C2.66961 10.4351 2.82763 10.0538 3.10877 9.77268C3.38991 9.49153 3.77117 9.33351 4.16877 9.33334H11.8368ZM8.0001 1.33667C8.43784 1.33667 8.87129 1.42289 9.27571 1.5904C9.68013 1.75792 10.0476 2.00345 10.3571 2.31298C10.6667 2.62251 10.9122 2.98997 11.0797 3.39439C11.2472 3.79881 11.3334 4.23226 11.3334 4.67C11.3334 5.10774 11.2472 5.5412 11.0797 5.94561C10.9122 6.35003 10.6667 6.7175 10.3571 7.02703C10.0476 7.33655 9.68013 7.58208 9.27571 7.7496C8.87129 7.91712 8.43784 8.00334 8.0001 8.00334C7.11605 8.00334 6.2682 7.65215 5.64308 7.02703C5.01796 6.4019 4.66677 5.55406 4.66677 4.67C4.66677 3.78595 5.01796 2.9381 5.64308 2.31298C6.2682 1.68786 7.11605 1.33667 8.0001 1.33667Z" fill="#999999"/>
</svg>
