<?xml version="1.0" standalone="no"?><!DOCTYPE svg PUBLIC "-//W3C//DTD SVG 1.1//EN" "http://www.w3.org/Graphics/SVG/1.1/DTD/svg11.dtd"><svg t="1743996634439" class="icon" viewBox="0 0 1024 1024" version="1.1" xmlns="http://www.w3.org/2000/svg" p-id="16086" xmlns:xlink="http://www.w3.org/1999/xlink" width="200" height="200"><path d="M454.371556 62.976c18.887111-7.111111 39.537778-7.964444 58.993777-2.673778l8.248889 2.673778 335.303111 125.724444a95.857778 95.857778 0 0 1 61.838223 81.806223l0.341333 7.964444V535.324444a431.047111 431.047111 0 0 1-225.564445 378.88l-12.743111 6.712889L520.135111 1001.244444a71.907556 71.907556 0 0 1-57.400889 2.958223l-6.883555-2.958223-160.654223-80.327111a431.104 431.104 0 0 1-238.08-371.256889L56.888889 535.324444V278.414222a95.800889 95.800889 0 0 1 54.840889-86.584889l7.338666-3.128889 335.303112-125.724444z m33.621333 89.713778l-335.303111 125.724444V535.324444a335.303111 335.303111 0 0 0 174.08 294.001778l11.320889 5.916445 149.902222 74.922666 149.959111-74.979555a335.303111 335.303111 0 0 0 185.116444-287.232l0.227556-12.629334V278.414222l-335.303111-125.724444z" p-id="16087"></path><path d="M483.555556 275.911111C405.162667 275.911111 341.333333 339.057778 341.333333 416.995556a38.684444 38.684444 0 0 0 77.368889 0c0-35.669333 28.330667-63.715556 64.853334-63.715556 35.669333 0 64.853333 29.297778 64.853333 65.422222a20.252444 20.252444 0 0 1-2.844445 8.817778 81.351111 81.351111 0 0 1-8.760888 12.8 390.257778 390.257778 0 0 1-27.192889 29.013333l-0.341334 0.398223c-14.449778 14.392889-30.435556 30.435556-42.837333 48.469333-12.515556 18.318222-21.617778 39.253333-21.617778 63.544889v43.804444a38.684444 38.684444 0 1 0 77.425778 0v-43.804444c0-6.599111 4.096-15.075556 12.344889-25.6 7.964444-10.24 18.659556-20.935111 29.639111-31.914667l0.341333-0.341333c13.653333-13.653333 28.899556-28.899556 40.618667-45.909334 11.889778-17.180444 20.593778-36.750222 20.593778-59.278222 0-78.734222-63.715556-142.791111-142.222222-142.791111z m0 431.786667a54.044444 54.044444 0 1 0 0 108.145778 54.044444 54.044444 0 0 0 0-108.088889z" p-id="16088"></path></svg>