<svg width="14" height="14" viewBox="0 0 14 14" fill="" xmlns="http://www.w3.org/2000/svg">
<path d="M9.60941 10.4344C8.6575 11.205 7.44515 11.6667 6.12498 11.6667C3.0644 11.6667 0.583313 9.18559 0.583313 6.12501C0.583313 3.06443 3.0644 0.583344 6.12498 0.583344C9.18556 0.583344 11.6666 3.06443 11.6666 6.12501C11.6666 7.44518 11.205 8.65753 10.4344 9.60944L12.635 11.8101C12.8615 12.0365 12.8572 12.4044 12.6308 12.6308C12.4044 12.8572 12.0365 12.8615 11.8101 12.6351L9.60941 10.4344ZM10.5 6.12501C10.5 3.70876 8.54123 1.75001 6.12498 1.75001C3.70873 1.75001 1.74998 3.70876 1.74998 6.12501C1.74998 8.54126 3.70873 10.5 6.12498 10.5C8.54123 10.5 10.5 8.54126 10.5 6.12501Z" fill="#747474"/>
</svg>
