<svg xmlns="http://www.w3.org/2000/svg" width="20" height="20" viewBox="0 0 20 20" fill="">
<path d="M12.291 9.94315C12.2765 9.35597 12.0368 8.79593 11.6204 8.37958C11.2041 7.96327 10.6441 7.72369 10.057 7.70911L10.0001 7.70834C9.3923 7.70834 8.80938 7.94981 8.37961 8.37958C7.94984 8.80935 7.70837 9.39227 7.70837 10.0001L7.70914 10.0564C7.71607 10.3381 7.77481 10.6163 7.88278 10.877C7.99794 11.155 8.16682 11.4076 8.37961 11.6204C8.5924 11.8332 8.845 12.0021 9.12302 12.1172C9.40105 12.2324 9.69915 12.2916 10.0001 12.2916C10.301 12.2916 10.599 12.2324 10.877 12.1172C11.1551 12.0021 11.4076 11.8332 11.6204 11.6204C11.8332 11.4076 12.0021 11.155 12.1172 10.877C12.2324 10.599 12.2916 10.301 12.2917 10.0001L12.291 9.94315ZM13.5406 10.0872C13.5299 10.5226 13.439 10.9525 13.2722 11.3553C13.0942 11.785 12.8332 12.1755 12.5044 12.5043C12.1755 12.8332 11.7851 13.0942 11.3554 13.2722C10.9257 13.4501 10.4652 13.5416 10.0001 13.5416C9.53499 13.5416 9.07435 13.4501 8.64465 13.2722C8.21497 13.0942 7.82454 12.8332 7.49567 12.5043C7.16681 12.1755 6.90598 11.785 6.728 11.3553C6.56114 10.9525 6.47016 10.5226 6.45944 10.0872L6.45837 10.0001C6.45837 9.06075 6.83148 8.15983 7.49567 7.49564C8.15986 6.83144 9.06078 6.45834 10.0001 6.45834L10.088 6.45941C10.9954 6.48193 11.8609 6.85222 12.5044 7.49564C13.1686 8.15983 13.5417 9.06075 13.5417 10.0001L13.5406 10.0872Z" fill=""/>
<path d="M10.0023 6.30795L10.0902 6.30991H10.0922L10.2689 6.31772C11.1497 6.382 11.982 6.76132 12.6107 7.38998L12.7367 7.52182C13.35 8.19906 13.6918 9.08235 13.6918 10.0003V10.0023L13.6908 10.0892V10.0912C13.681 10.4882 13.6069 10.881 13.472 11.2542L13.4105 11.4124C13.225 11.8604 12.9535 12.2679 12.6107 12.6107C12.3107 12.9107 11.9612 13.1562 11.5785 13.3372L11.4125 13.4105C11.0207 13.5727 10.6045 13.666 10.182 13.6869L10.0004 13.6917C9.57604 13.6917 9.15496 13.6186 8.75623 13.4759L8.58728 13.4105C8.19536 13.2481 7.83454 13.02 7.52087 12.7357L7.39001 12.6107C7.09006 12.3107 6.84446 11.9611 6.66345 11.5785L6.58923 11.4124C6.43717 11.0452 6.34578 10.6564 6.31775 10.2611L6.30994 10.0912L6.30896 10.0892L6.30994 10.0882L6.30798 10.0023V10.0003L6.31287 9.81674C6.35819 8.90439 6.74102 8.03898 7.39001 7.38998C8.08234 6.69766 9.02128 6.30795 10.0004 6.30795H10.0023ZM9.99939 6.60873C9.10011 6.60892 8.23782 6.96601 7.60193 7.6019C6.96587 8.23795 6.60876 9.1008 6.60876 10.0003L6.60974 10.0833L6.63123 10.3949C6.66755 10.7047 6.74672 11.0088 6.86658 11.2982L6.93396 11.4505C7.10023 11.802 7.32643 12.1223 7.60193 12.3978L7.72302 12.513C8.01118 12.7741 8.34252 12.984 8.70251 13.1331L8.85779 13.1937C9.22393 13.3246 9.61065 13.3919 10.0004 13.3919L10.1664 13.3871C10.555 13.368 10.9381 13.2823 11.2982 13.1331L11.4506 13.0658C11.802 12.8994 12.1223 12.6733 12.3978 12.3978C12.7127 12.0829 12.9627 11.7095 13.1332 11.2982L13.2396 11.0042C13.332 10.7061 13.3833 10.3961 13.391 10.0833L13.392 10.0003L13.3871 9.83139C13.3482 9.0492 13.0397 8.30453 12.514 7.72397L12.3978 7.6019C11.7817 6.98584 10.9532 6.63129 10.0844 6.60971V6.60873H9.99939ZM10.0023 7.55795L10.059 7.55893H10.0609L10.2933 7.57651C10.8328 7.64178 11.3387 7.88558 11.7269 8.27377L11.8842 8.44662C12.1809 8.80656 12.3682 9.24405 12.4242 9.70639L12.4408 9.93979V9.94174L12.4418 9.99838V10.0003L12.4301 10.2396C12.4144 10.3986 12.3826 10.5555 12.3363 10.7083L12.2562 10.9339C12.1335 11.2302 11.9536 11.5002 11.7269 11.7269C11.5569 11.8969 11.363 12.0407 11.1517 12.1537L10.934 12.2562C10.7119 12.3481 10.4779 12.4065 10.2396 12.43L10.0004 12.4417C9.75982 12.4417 9.52078 12.4058 9.29138 12.3363L9.0658 12.2562C8.84377 12.1642 8.63666 12.0399 8.45154 11.888L8.2738 11.7269C8.1039 11.557 7.96001 11.3628 7.84705 11.1517L7.74451 10.9339C7.62953 10.6563 7.56634 10.3599 7.55896 10.0599V10.058L7.55798 10.0023V10.0003L7.57068 9.75912C7.62611 9.20003 7.87306 8.67452 8.2738 8.27377C8.7317 7.81587 9.35279 7.55795 10.0004 7.55795H10.0023ZM9.78845 7.8685C9.29814 7.91717 8.83717 8.13423 8.48572 8.48569C8.08408 8.88733 7.85876 9.43233 7.85876 10.0003V10.0531L7.87341 10.2494C7.89632 10.445 7.94619 10.637 8.02185 10.8197L8.11169 11.0101C8.21074 11.1952 8.33672 11.365 8.48572 11.514L8.64197 11.6556C8.80432 11.7888 8.98538 11.8982 9.18005 11.9789L9.3783 12.0492C9.57955 12.1102 9.7893 12.1419 10.0004 12.1419L10.2103 12.1312C10.4194 12.1106 10.6249 12.0596 10.8197 11.9789L11.0101 11.889C11.1954 11.7899 11.3649 11.6631 11.514 11.514C11.7129 11.3151 11.8713 11.0795 11.9789 10.8197L12.0492 10.6214C12.1101 10.4207 12.1418 10.2118 12.142 10.0013L12.141 9.94662L12.1263 9.74252C12.0772 9.33715 11.9129 8.95371 11.6527 8.63803L11.514 8.48569C11.1735 8.14525 10.7303 7.93159 10.2572 7.87436L10.0531 7.85873H10.0004L9.78845 7.8685Z" fill=""/>
<path d="M17.7084 10C17.7084 9.80236 17.6592 9.58976 17.5128 9.26804C17.3987 9.01736 17.2389 8.72762 17.0216 8.34976L16.7846 7.94083L16.7843 7.94022L15.1819 5.17685C14.8412 4.58977 14.6076 4.18863 14.3936 3.89145C14.1876 3.60542 14.0279 3.45698 13.8565 3.35831C13.6853 3.25974 13.4765 3.19618 13.1248 3.16162C12.7596 3.12573 12.2942 3.125 11.6142 3.125H8.38589C7.7059 3.125 7.24052 3.12574 6.87527 3.16162C6.52363 3.19618 6.31481 3.25976 6.14362 3.35831C5.97223 3.45698 5.81248 3.60544 5.60651 3.89145C5.39252 4.1886 5.15865 4.58972 4.81808 5.1767L4.81824 5.17685L3.21576 7.94022L3.21545 7.94052C2.87315 8.53011 2.63971 8.93376 2.48746 9.26819C2.3409 9.59011 2.29169 9.80259 2.29169 10C2.29169 10.1974 2.3409 10.4099 2.48746 10.7318C2.60166 10.9826 2.76157 11.2724 2.97879 11.6504L3.21545 12.0595L3.21576 12.0598L4.81808 14.823L5.0549 15.2298C5.27436 15.6042 5.446 15.8857 5.60651 16.1086C5.81248 16.3946 5.97223 16.543 6.14362 16.6417C6.31481 16.7402 6.52363 16.8038 6.87527 16.8384C7.24052 16.8743 7.7059 16.875 8.38589 16.875H11.6142C12.2942 16.875 12.7596 16.8743 13.1248 16.8384C13.4765 16.8038 13.6853 16.7403 13.8565 16.6417C14.0279 16.543 14.1876 16.3946 14.3936 16.1086C14.5541 15.8857 14.7257 15.6042 14.9452 15.2298L15.1819 14.823L16.7843 12.0598L16.7845 12.0595L17.0213 11.6504C17.2385 11.2724 17.3983 10.9826 17.5125 10.7318C17.659 10.4099 17.7084 10.1974 17.7084 10ZM18.9584 10C18.9584 10.4384 18.8397 10.8335 18.6502 11.2497C18.4664 11.6533 18.1957 12.1182 17.8656 12.6868L17.8657 12.6869L16.2632 15.4501L16.2631 15.4503C15.9346 16.0165 15.6663 16.4803 15.408 16.839C15.1417 17.2088 14.8588 17.5069 14.4803 17.7249C14.1015 17.943 13.701 18.0378 13.247 18.0824C12.8067 18.1257 12.27 18.125 11.6142 18.125H8.38589C7.73009 18.125 7.19327 18.1257 6.7529 18.0824C6.29898 18.0378 5.89862 17.943 5.51984 17.7249C5.14124 17.5069 4.8584 17.2088 4.5921 16.839C4.39839 16.57 4.19909 16.2418 3.9729 15.8557L3.737 15.4503L3.73685 15.4501L2.13437 12.6869C1.8043 12.1184 1.53366 11.6533 1.34991 11.2497C1.16043 10.8335 1.04169 10.4384 1.04169 10C1.04169 9.56157 1.16043 9.16651 1.34991 8.75031C1.53369 8.34664 1.80438 7.88158 2.13452 7.31293L3.73685 4.54987L3.737 4.54971L3.9729 4.14429C4.19909 3.75816 4.39839 3.43 4.5921 3.16101C4.8584 2.79123 5.14124 2.49307 5.51984 2.27509C5.89862 2.057 6.29898 1.96218 6.7529 1.91757C7.19327 1.8743 7.73009 1.875 8.38589 1.875H11.6142C12.27 1.875 12.8067 1.8743 13.247 1.91757C13.701 1.96218 14.1015 2.05699 14.4803 2.27509C14.8588 2.49307 15.1417 2.79124 15.408 3.16101C15.6017 3.43 15.801 3.75816 16.0272 4.14429L16.2631 4.54971L16.2632 4.54987L18.1018 7.72049C18.326 8.11021 18.5128 8.44756 18.6506 8.75046C18.8401 9.16684 18.9584 9.56182 18.9584 10Z" fill=""/>
<path d="M18.8034 9.84766C18.7865 9.5969 18.728 9.35709 18.6374 9.11133L18.5143 8.8125C18.3798 8.51671 18.1955 8.18448 17.9714 7.79492L16.1335 4.625L15.8972 4.21973C15.7278 3.93067 15.5748 3.67644 15.4294 3.45703L15.2858 3.24902C15.0591 2.93425 14.8257 2.68036 14.5339 2.48535L14.405 2.40527C14.1397 2.25258 13.8613 2.16284 13.5524 2.10938L13.2321 2.06641C13.0165 2.04523 12.7767 2.03544 12.5085 2.03027L11.614 2.02539H8.38544C7.89178 2.02539 7.47132 2.02428 7.11005 2.04199L6.76727 2.06641C6.38081 2.1044 6.04359 2.17938 5.72821 2.33398L5.59442 2.40527C5.32912 2.55807 5.11209 2.75397 4.91083 2.99414L4.71356 3.24902C4.61898 3.38039 4.52253 3.52669 4.42157 3.68848L4.10223 4.21973L2.26434 7.3877C2.01565 7.81605 1.80374 8.18159 1.63739 8.50391L1.48602 8.8125C1.30174 9.21733 1.19208 9.59057 1.19208 10L1.19696 10.1523C1.22066 10.5034 1.32483 10.8334 1.48602 11.1875L1.63739 11.4961C1.69288 11.6036 1.75274 11.7162 1.81805 11.834L2.26434 12.6113L4.10223 15.7803L4.42157 16.3115C4.52253 16.4733 4.61898 16.6196 4.71356 16.751L4.91083 17.0059C5.11209 17.246 5.32912 17.4419 5.59442 17.5947L5.72821 17.666C6.04359 17.8206 6.38081 17.8956 6.76727 17.9336L7.11005 17.958C7.47132 17.9757 7.89178 17.9746 8.38544 17.9746H11.614L12.5085 17.9697C12.7767 17.9646 13.0165 17.9548 13.2321 17.9336L13.5524 17.8906C13.8613 17.8372 14.1397 17.7474 14.405 17.5947L14.5339 17.5146C14.8257 17.3196 15.0592 17.0657 15.2858 16.751L15.4792 16.4678C15.6756 16.1646 15.8861 15.8014 16.1335 15.375L17.736 12.6113L18.1813 11.834C18.3119 11.5987 18.4233 11.3852 18.5134 11.1875L18.6374 10.8887C18.7462 10.5937 18.8083 10.3071 18.8083 10L18.8034 9.84766ZM17.5495 9.86816C17.5374 9.77517 17.512 9.67045 17.4645 9.54199L17.3766 9.33008C17.2659 9.08659 17.1086 8.80266 16.8913 8.4248L16.655 8.01562L16.6501 8.00781L16.6491 8.00684L15.0524 5.25195C14.7959 4.80978 14.6019 4.47835 14.4333 4.21777L14.2722 3.97949C14.1231 3.77251 14.0042 3.64675 13.8923 3.56152L13.7819 3.48828C13.6722 3.42511 13.5399 3.37567 13.3376 3.34082L13.11 3.31055C12.9321 3.29306 12.7289 3.28487 12.485 3.28027L11.614 3.27539H8.38544C7.8737 3.27539 7.48899 3.27602 7.17841 3.29102L6.89032 3.31055C6.63592 3.33555 6.46744 3.37581 6.33759 3.42969L6.21844 3.48828C6.10853 3.55157 5.99937 3.64073 5.86786 3.79785L5.72821 3.97949C5.62398 4.12425 5.51448 4.29488 5.38837 4.50293L4.94794 5.25195L3.3454 8.01562C3.08759 8.45967 2.8938 8.79357 2.75067 9.07031L2.62372 9.33008C2.48232 9.64067 2.44208 9.8315 2.44208 10L2.44989 10.1318C2.46799 10.2711 2.5176 10.4368 2.62372 10.6699L2.82684 11.0723C2.90698 11.2209 3.00052 11.3863 3.10907 11.5752L3.3454 11.9844L4.94696 14.7471L5.18427 15.1543L5.48016 15.6465C5.56917 15.7893 5.65028 15.9123 5.72821 16.0205L5.86786 16.2021C5.99937 16.3593 6.10853 16.4484 6.21844 16.5117L6.33759 16.5703C6.46744 16.6242 6.63592 16.6645 6.89032 16.6895L7.17841 16.71C7.48899 16.725 7.87372 16.7246 8.38544 16.7246H11.614L12.485 16.7197C12.7289 16.7151 12.9321 16.7069 13.11 16.6895L13.3376 16.6592C13.5399 16.6243 13.6722 16.5749 13.7819 16.5117L13.8923 16.4385C14.0042 16.3533 14.1231 16.2275 14.2722 16.0205L14.5202 15.6465C14.6091 15.5038 14.7056 15.3412 14.8151 15.1543L15.0524 14.748L16.6501 11.9922L16.655 11.9844L16.8913 11.5752L17.1735 11.0723C17.2536 10.9236 17.3202 10.7917 17.3757 10.6699L17.4645 10.458C17.5358 10.2654 17.5583 10.1264 17.5583 10L17.5495 9.86816ZM17.8474 10.1729C17.8318 10.2909 17.7993 10.4167 17.7458 10.5615L17.6491 10.7939C17.5903 10.923 17.5199 11.0614 17.4372 11.2148L17.1511 11.7256L16.9147 12.1348L15.0749 15.3057C14.9104 15.5864 14.7704 15.8178 14.6413 16.0127L14.5153 16.1963C14.3553 16.4185 14.2169 16.5674 14.0749 16.6758L13.9313 16.7715C13.7843 16.8562 13.6172 16.9158 13.3893 16.9551L13.1393 16.9873C12.9521 17.0057 12.74 17.0158 12.4899 17.0205L11.614 17.0254H8.38544C7.87798 17.0254 7.48462 17.0244 7.1618 17.0088L6.86102 16.9873C6.58814 16.9605 6.38928 16.9159 6.2243 16.8477L6.06903 16.7715C5.92191 16.6868 5.78654 16.5724 5.63837 16.3955L5.48505 16.1963C5.40253 16.0817 5.31702 15.9528 5.22528 15.8057L4.92548 15.3057L4.68817 14.8984L3.08563 12.1348L2.8493 11.7256C2.68644 11.4422 2.55356 11.2047 2.44794 10.9951L2.35126 10.7939C2.23751 10.5441 2.17633 10.3498 2.15302 10.1729L2.1413 10C2.1413 9.77368 2.19954 9.53931 2.35126 9.20605L2.48407 8.93457C2.63278 8.64688 2.83008 8.30541 3.08563 7.86523L4.68817 5.10156L5.13153 4.34766C5.26084 4.13437 5.3754 3.95597 5.48505 3.80371L5.63837 3.60449C5.78654 3.4276 5.92191 3.31322 6.06903 3.22852L6.2243 3.15234C6.38928 3.08413 6.58814 3.03951 6.86102 3.0127L7.1618 2.99121C7.48462 2.97555 7.87798 2.97461 8.38544 2.97461H11.614L12.4899 2.97949C12.74 2.98423 12.9521 2.9943 13.1393 3.0127L13.3893 3.04492C13.6172 3.08423 13.7843 3.14385 13.9313 3.22852L14.0749 3.32422C14.2169 3.43258 14.3553 3.5815 14.5153 3.80371L14.6843 4.05273C14.8596 4.32357 15.0568 4.66314 15.3112 5.10156L16.9138 7.86523L17.1511 8.27441L17.152 8.27539L17.4382 8.78516C17.5208 8.93848 17.5904 9.07709 17.6491 9.20605L17.7458 9.43848C17.826 9.65565 17.8581 9.83006 17.8581 10L17.8474 10.1729ZM19.1022 10.1729C19.083 10.4578 19.0169 10.7258 18.9186 10.9922L18.7868 11.3115C18.5999 11.722 18.3249 12.1923 17.9977 12.7559C17.9968 12.7577 17.9968 12.76 17.9958 12.7617L16.3932 15.5254C16.1479 15.9482 15.9333 16.3194 15.7302 16.6328L15.53 16.9268C15.2907 17.259 15.0327 17.5424 14.7018 17.7637L14.5554 17.8545C14.2527 18.0287 13.9387 18.1286 13.6042 18.1865L13.2614 18.2314C13.0368 18.2535 12.7883 18.2642 12.5143 18.2695L11.614 18.2754H8.38544C7.89591 18.2754 7.46689 18.2752 7.09344 18.2568L6.73798 18.2314C6.33009 18.1913 5.95515 18.1108 5.59735 17.9355L5.44501 17.8545C5.14249 17.6803 4.89932 17.4592 4.68134 17.1992L4.4704 16.9268C4.27217 16.6515 4.06968 16.3179 3.84344 15.9316L3.60712 15.5254L2.00458 12.7617C1.75811 12.3372 1.54168 11.966 1.36981 11.6328L1.21356 11.3115C1.04329 10.9375 0.924111 10.5716 0.897156 10.1729L0.891296 10C0.891297 9.53271 1.01899 9.1159 1.21356 8.68848L1.36981 8.36719C1.54172 8.03401 1.75805 7.66193 2.00458 7.2373L3.60712 4.47461L3.84344 4.06934L4.16766 3.5293C4.27131 3.36325 4.3713 3.21085 4.4704 3.07324L4.68134 2.80078C4.89932 2.54077 5.14249 2.31972 5.44501 2.14551L5.59735 2.06445C5.95515 1.88925 6.33009 1.80866 6.73798 1.76855L7.09344 1.74316C7.46689 1.72478 7.89591 1.72461 8.38544 1.72461H11.614L12.5143 1.73047C12.7883 1.73577 13.0368 1.7465 13.2614 1.76855L13.6042 1.81348C13.9387 1.87143 14.2527 1.97125 14.5554 2.14551L14.7018 2.23633C15.0327 2.45762 15.2907 2.74098 15.53 3.07324L15.6794 3.29102C15.7297 3.36698 15.7809 3.44632 15.8327 3.5293L16.1569 4.06836L16.3893 4.46973C16.3904 4.47144 16.3922 4.47285 16.3932 4.47461L18.2311 7.64551L18.5407 8.19727C18.6338 8.37035 18.7163 8.53355 18.7868 8.68848L18.9196 9.00781C19.0374 9.32746 19.1081 9.64965 19.1081 10L19.1022 10.1729Z" fill=""/>
</svg>