<?xml version="1.0" standalone="no"?><!DOCTYPE svg PUBLIC "-//W3C//DTD SVG 1.1//EN" "http://www.w3.org/Graphics/SVG/1.1/DTD/svg11.dtd"><svg t="1740042476096" class="icon" viewBox="0 0 1024 1024" version="1.1" xmlns="http://www.w3.org/2000/svg" p-id="8203" xmlns:xlink="http://www.w3.org/1999/xlink" width="200" height="200"><path d="M846 960.5H178c-62.4 0-113-50.6-113-113v-752c0-17.7 14.3-32 32-32h704c17.7 0 32 14.3 32 32v642h13c62.3 0 113 50 113 111.5s-50.7 111.5-113 111.5z m-533.8-64H846c27 0 49-21.3 49-47.5s-22-47.5-49-47.5H312.2C319.1 815.9 323 832 323 849s-3.9 33.1-10.8 47.5zM129 826.1c0 38.9 31.5 70.4 70.4 70.4H210c27 0 49-21.3 49-47.5 0-25.6-21-46.5-47.2-47.5-16.9-0.6-32.2-12.3-33.7-29.1-1.7-19 13.2-34.9 31.9-34.9h559v-610H129v698.6z" p-id="8204"></path><path d="M672 289.5H224c-17.7 0-32-14.3-32-32s14.3-32 32-32h448c17.7 0 32 14.3 32 32s-14.3 32-32 32zM640 449.5H224c-17.7 0-32-14.3-32-32s14.3-32 32-32h416c17.7 0 32 14.3 32 32s-14.3 32-32 32zM544 609.5H224c-17.7 0-32-14.3-32-32s14.3-32 32-32h320c17.7 0 32 14.3 32 32s-14.3 32-32 32z" p-id="8205"></path></svg>