<svg width="14" height="14" viewBox="0 0 14 14" fill="none" xmlns="http://www.w3.org/2000/svg">
<path fill-rule="evenodd" clip-rule="evenodd" d="M2.3 8.3V11.7H5.7V8.3H2.3ZM2.2 7C1.53726 7 1 7.53726 1 8.2V11.8C1 12.4627 1.53726 13 2.2 13H5.8C6.46274 13 7 12.4627 7 11.8V8.2C7 7.53726 6.46274 7 5.8 7H2.2Z" fill="#0025CC"/>
<path fill-rule="evenodd" clip-rule="evenodd" d="M2.3 1.3V4.7H5.7V1.3H2.3ZM2.2 0C1.53726 0 1 0.537258 1 1.2V4.8C1 5.46274 1.53726 6 2.2 6H5.8C6.46274 6 7 5.46274 7 4.8V1.2C7 0.537258 6.46274 0 5.8 0H2.2Z" fill="#0025CC"/>
<path fill-rule="evenodd" clip-rule="evenodd" d="M9.3 8.3V11.7H12.7V8.3H9.3ZM9.2 7C8.53726 7 8 7.53726 8 8.2V11.8C8 12.4627 8.53726 13 9.2 13H12.8C13.4627 13 14 12.4627 14 11.8V8.2C14 7.53726 13.4627 7 12.8 7H9.2Z" fill="#0025CC"/>
<path fill-rule="evenodd" clip-rule="evenodd" d="M9.3 4.7H11C11.9389 4.7 12.7 3.93888 12.7 3C12.7 2.06112 11.9389 1.3 11 1.3C10.0611 1.3 9.3 2.06112 9.3 3V4.7ZM11 0C9.34315 0 8 1.34315 8 3V6H11C12.6569 6 14 4.65685 14 3C14 1.34315 12.6569 0 11 0Z" fill="#0025CC"/>
</svg>
