<svg width="17" height="16" viewBox="0 0 17 16" fill="none" xmlns="http://www.w3.org/2000/svg">
<rect x="0.5" width="16" height="16" rx="6" fill="url(#paint0_linear_12323_44139)"/>
<path d="M7.86373 10.2273V7.68182H7.54554C7.50376 7.68182 7.46238 7.67359 7.42378 7.6576C7.38518 7.64161 7.3501 7.61817 7.32056 7.58863C7.29101 7.55908 7.26757 7.524 7.25158 7.4854C7.23559 7.4468 7.22736 7.40542 7.22736 7.36364V6.72727C7.22736 6.68549 7.23559 6.64411 7.25158 6.60551C7.26757 6.56691 7.29101 6.53183 7.32056 6.50228C7.3501 6.47274 7.38518 6.4493 7.42378 6.43331C7.46238 6.41732 7.50376 6.40909 7.54554 6.40909H8.81827C8.86009 6.40897 8.90152 6.41711 8.94018 6.43305C8.97884 6.449 9.01397 6.47243 9.04354 6.502C9.07311 6.53157 9.09654 6.5667 9.11249 6.60536C9.12844 6.64402 9.13658 6.68545 9.13645 6.72727V10.2273H9.77282C9.8146 10.2273 9.85598 10.2355 9.89458 10.2515C9.93318 10.2675 9.96826 10.2909 9.99781 10.3205C10.0274 10.35 10.0508 10.3851 10.0668 10.4237C10.0828 10.4623 10.091 10.5037 10.091 10.5455V11.1818C10.091 11.2236 10.0828 11.265 10.0668 11.3036C10.0508 11.3422 10.0274 11.3773 9.99781 11.4068C9.96826 11.4364 9.93318 11.4598 9.89458 11.4758C9.85598 11.4918 9.8146 11.5 9.77282 11.5H7.22736C7.18558 11.5 7.1442 11.4918 7.1056 11.4758C7.06699 11.4598 7.03192 11.4364 7.00237 11.4068C6.97283 11.3773 6.94939 11.3422 6.9334 11.3036C6.91741 11.265 6.90918 11.2236 6.90918 11.1818V10.5455C6.90918 10.5037 6.91741 10.4623 6.9334 10.4237C6.94939 10.3851 6.97283 10.35 7.00237 10.3205C7.03192 10.2909 7.06699 10.2675 7.1056 10.2515C7.1442 10.2355 7.18558 10.2273 7.22736 10.2273H7.86373ZM8.18191 5.77273C8.14012 5.77273 8.09875 5.7645 8.06014 5.74851C8.02154 5.73252 7.98646 5.70908 7.95692 5.67953C7.92737 5.64999 7.90394 5.61491 7.88795 5.57631C7.87196 5.53771 7.86373 5.49633 7.86373 5.45455V4.81818C7.86373 4.7764 7.87196 4.73502 7.88795 4.69642C7.90394 4.65782 7.92737 4.62274 7.95692 4.59319C7.98646 4.56365 8.02154 4.54021 8.06014 4.52422C8.09875 4.50823 8.14012 4.5 8.18191 4.5H8.81827C8.86006 4.5 8.90143 4.50823 8.94003 4.52422C8.97864 4.54021 9.01371 4.56365 9.04326 4.59319C9.07281 4.62274 9.09624 4.65782 9.11223 4.69642C9.12822 4.73502 9.13645 4.7764 9.13645 4.81818V5.45455C9.13645 5.49633 9.12822 5.53771 9.11223 5.57631C9.09624 5.61491 9.07281 5.64999 9.04326 5.67953C9.01371 5.70908 8.97864 5.73252 8.94003 5.74851C8.90143 5.7645 8.86006 5.77273 8.81827 5.77273H8.18191Z" fill="white"/>
<defs>
<linearGradient id="paint0_linear_12323_44139" x1="0.5" y1="8" x2="16.5" y2="8" gradientUnits="userSpaceOnUse">
<stop stop-color="#6C9FFF"/>
<stop offset="1" stop-color="#6C87FF"/>
</linearGradient>
</defs>
</svg>
