<svg width="12" height="12" viewBox="0 0 12 12" fill="none" xmlns="http://www.w3.org/2000/svg">
<g clip-path="url(#clip0_5385_27766)">
<path d="M6.70609 3.41895L6.70609 11.2937C6.70609 11.4938 6.63829 11.6615 6.50269 11.7966C6.36708 11.9317 6.19947 11.9995 5.99983 12C5.80019 12.0005 5.63257 11.9327 5.49697 11.7966C5.36137 11.6605 5.29357 11.4929 5.29357 11.2937L5.29357 3.41895L3.28073 5.43179C3.13948 5.57304 2.97469 5.64084 2.78635 5.63519C2.59801 5.62954 2.43322 5.56174 2.29197 5.43179C2.15072 5.29054 2.07727 5.12268 2.07162 4.92823C2.06597 4.73377 2.13353 4.56615 2.27431 4.42537L5.50545 1.19423C5.57607 1.12361 5.65258 1.07346 5.73498 1.0438C5.81738 1.01414 5.90566 0.99954 5.99983 1.00001C6.094 1.00048 6.18228 1.01508 6.26468 1.0438C6.34707 1.07252 6.42358 1.12267 6.49421 1.19423L9.72535 4.42537C9.8666 4.56662 9.9344 4.73424 9.92875 4.92822C9.9231 5.12221 9.84941 5.29006 9.70769 5.43179C9.56644 5.56127 9.40164 5.62907 9.21331 5.63519C9.02497 5.64131 8.86018 5.57351 8.71893 5.43179L6.70609 3.41895Z" fill="#F34C3D"/>
</g>
<defs>
<clipPath id="clip0_5385_27766">
<rect width="12" height="12" fill="white" transform="translate(12 12) rotate(180)"/>
</clipPath>
</defs>
</svg>
