<svg width="16" height="16" viewBox="0 0 16 16" fill="none" xmlns="http://www.w3.org/2000/svg">
<path d="M5.66665 3.33333C4.74665 3.33333 3.99998 4.07967 3.99998 5C3.99998 5.92033 4.74665 6.66667 5.66665 6.66667C6.58665 6.66667 7.33331 5.92033 7.33331 5C7.33331 4.07967 6.58665 3.33333 5.66665 3.33333ZM2.66665 5C2.66665 3.343 4.00998 2 5.66665 2C7.32331 2 8.66665 3.343 8.66665 5C8.66665 6.657 7.32331 8 5.66665 8C4.00998 8 2.66665 6.657 2.66665 5ZM3.88998 10C2.67665 10 1.66665 10.999 1.66665 12.2667V13.3333H9.66665V12.2667C9.66665 10.999 8.65665 10 7.44331 10H3.88998ZM0.333313 12.2667C0.333313 10.2783 1.92665 8.66667 3.88998 8.66667H7.44331C9.40665 8.66667 11 10.2783 11 12.2667V14.0667C11 14.398 10.7333 14.6667 10.4066 14.6667H0.926646C0.59998 14.6667 0.333313 14.398 0.333313 14.0667V12.2667ZM15.2233 14H12.2433V13.7273V12.6667H14.3333V12.2667C14.3333 11.5987 13.77 11 13 11H12.1267C12 10.5073 11.7733 10.0553 11.47 9.66667H13C14.4733 9.66667 15.6667 10.8307 15.6667 12.2667V13.5667C15.6667 13.806 15.4667 14 15.2233 14ZM11 6.66667C11 6.29833 11.3 6 11.6666 6C12.0333 6 12.3333 6.29833 12.3333 6.66667C12.3333 7.035 12.0333 7.33333 11.6666 7.33333C11.3 7.33333 11 7.035 11 6.66667ZM11.6666 4.66667C10.5633 4.66667 9.66665 5.562 9.66665 6.66667C9.66665 7.77133 10.5633 8.66667 11.6666 8.66667C12.77 8.66667 13.6666 7.77133 13.6666 6.66667C13.6666 5.562 12.77 4.66667 11.6666 4.66667Z" fill="#0025CC"/>
</svg>
