<svg width="38" height="38" viewBox="0 0 38 38" fill="none" xmlns="http://www.w3.org/2000/svg">
<rect x="0.000488281" width="37.9995" height="38" rx="12" fill="#0025CC"/>
<path fill-rule="evenodd" clip-rule="evenodd" d="M12.3157 7.75C12.3157 7.75 12.4753 13.3109 11.5271 16.6104C11.1917 18.5343 9.90276 22.4531 9.35858 23.7597C8.81508 25.2038 8.40609 25.9608 7.24927 28.5745C7.24927 28.5745 8.13946 27.953 9.3031 27.0558C9.59568 26.3159 10.786 23.5204 11.2743 22.0356C11.5456 21.2106 12.4241 17.7054 12.7614 16.1935C12.7614 16.1935 13.2973 12.827 13.2915 11.3851C13.2915 11.3851 13.28 8.50122 13.2795 8.36416L12.3157 7.75Z" fill="white"/>
<path fill-rule="evenodd" clip-rule="evenodd" d="M13.6929 8.42969C13.6929 8.42969 13.8472 12.6861 13.3764 15.1598C13.3788 15.7091 12.5029 19.9008 12.2326 21.0004C11.6909 22.9252 10.7415 25.8813 10.7415 25.8813C10.7415 25.8813 11.9736 24.9151 12.4522 24.4326C13.4759 21.1809 13.8047 19.2088 14.0722 17.4229C14.2057 16.461 14.5383 13.7818 14.5308 11.9281C14.5237 10.1414 14.5209 9.45624 14.5187 8.90695L13.6929 8.42969Z" fill="white"/>
<path fill-rule="evenodd" clip-rule="evenodd" d="M14.8619 9.18115C14.8619 9.18115 14.8733 12.0649 14.8759 12.6828C14.8784 13.3007 14.8177 15.2922 14.618 16.8721C14.4182 18.4521 13.7496 22.9178 13.5453 23.3307C13.5453 23.3307 14.5034 22.5714 14.8453 22.2268C14.979 21.2649 15.3815 18.174 15.445 17.624C15.4988 17.1575 15.6425 15.4948 15.6688 13.5721C15.6845 12.4233 15.6246 11.032 15.5505 9.65892C15.275 9.45409 14.8619 9.18115 14.8619 9.18115Z" fill="white"/>
<path fill-rule="evenodd" clip-rule="evenodd" d="M16.1176 13.293C16.1176 13.293 16.1314 13.9138 16.1354 14.1C16.2968 14.2516 16.9112 14.8898 17.318 15.3374C17.7529 15.8027 18.5656 16.8999 18.873 17.3603C18.873 17.3603 19.1 17.1481 19.2841 16.8956C19.0219 16.4669 18.0784 15.2677 17.6459 14.765C17.2132 14.2623 16.5114 13.6062 16.1176 13.293Z" fill="white"/>
<path fill-rule="evenodd" clip-rule="evenodd" d="M16.0825 11.5571C16.0825 11.5571 16.099 12.3019 16.1017 12.4261C16.3612 12.7308 17.4262 13.7108 19.5736 16.5197L19.9838 15.9906C18.8397 14.4709 18.3853 13.9465 17.892 13.38C17.3086 12.7098 16.2101 11.6165 16.0825 11.5571Z" fill="white"/>
<path fill-rule="evenodd" clip-rule="evenodd" d="M15.9975 9.97949C15.9975 9.97949 16.0113 10.6001 16.0153 10.7864C16.209 10.9683 17.5642 12.2424 18.0186 12.7912C18.278 13.0959 19.5463 14.6939 20.1984 15.6109L20.6307 15.0979C20.6307 15.0979 19.6288 13.6277 18.58 12.4682C17.479 11.2507 16.4464 10.2801 15.9975 9.97949Z" fill="white"/>
<path fill-rule="evenodd" clip-rule="evenodd" d="M25.2608 8.20129C25.2608 8.20129 22.2036 14.8688 19.1357 18.2048C17.6079 20.2793 13.7681 24.1448 12.3503 25.3659C10.8529 26.7496 9.91883 27.4011 7.00024 29.8028C7.00024 29.8028 8.43393 29.5973 10.3579 29.2286C11.1421 28.5277 14.2068 25.9313 15.6616 24.4666C16.47 23.6527 19.5747 20.0323 20.8636 18.4457C20.8636 18.4457 23.4751 14.7851 24.3105 13.0777C24.3105 13.0777 25.9815 9.66261 26.061 9.49976L25.2608 8.20129Z" fill="white"/>
<path fill-rule="evenodd" clip-rule="evenodd" d="M26.5159 9.82715C26.5159 9.82715 24.2148 14.9497 22.2033 17.5934C21.8851 18.2441 18.3825 22.6777 17.415 23.8167C15.6391 25.7696 12.8099 28.6866 12.8099 28.6866C12.8099 28.6866 14.8161 28.2896 15.6739 28.0038C18.8047 24.769 20.3524 22.6336 21.7178 20.6816C22.4404 19.6243 24.4348 16.6284 25.4798 14.46C26.5149 12.3442 26.8295 11.5609 27.1479 10.9104L26.5159 9.82715Z" fill="white"/>
<path fill-rule="evenodd" clip-rule="evenodd" d="M27.5688 11.4502C27.5688 11.4502 25.8979 14.8653 25.5397 15.597C25.1818 16.3288 23.9452 18.6465 22.7819 20.3951C21.6186 22.1438 18.2453 27.0117 17.7583 27.3782C17.7583 27.3782 19.3144 27.0632 19.9268 26.8589C20.6494 25.8016 22.9397 22.3876 23.3372 21.7753C23.6745 21.2559 24.8187 19.3762 25.9738 17.1195C26.6638 15.7711 27.4048 14.091 28.1178 12.4242C27.9061 12.0183 27.5688 11.4502 27.5688 11.4502Z" fill="white"/>
<path fill-rule="evenodd" clip-rule="evenodd" d="M26.3353 17.3301C26.3353 17.3301 25.9374 18.1433 25.8181 18.387C25.9254 18.6917 26.2938 19.9299 26.5208 20.7819C26.7726 21.6759 27.1471 24.1773 27.2369 24.9796C27.2369 24.9796 27.6732 24.8568 28.0805 24.6529C28.0281 23.9218 27.5525 21.2011 27.3289 20.26C27.1053 19.3192 26.6357 17.9994 26.3353 17.3301Z" fill="white"/>
<path fill-rule="evenodd" clip-rule="evenodd" d="M27.4444 15.0508C27.4444 15.0508 26.9669 16.0266 26.8874 16.1891C27.0195 16.7577 27.7993 19.2765 28.6995 24.3527L29.5853 23.9421C29.121 21.2075 28.8272 19.688 28.5676 18.6237C28.2605 17.365 27.57 15.2131 27.4444 15.0508Z" fill="white"/>
<path fill-rule="evenodd" clip-rule="evenodd" d="M28.3715 13.0234C28.3715 13.0234 27.9736 13.8366 27.8542 14.0805C27.9831 14.446 28.8853 17.0035 29.1063 18.019C29.2384 18.5874 29.9132 22.0223 30.1438 23.6468L31.0012 23.2922C31.0012 23.2922 30.6318 20.181 30.0499 17.9766C29.439 15.6622 28.7518 13.7134 28.3715 13.0234Z" fill="white"/>
</svg>
