<svg width="14" height="14" viewBox="0 0 14 14" fill="none" xmlns="http://www.w3.org/2000/svg">
<path d="M7.00065 12.25C9.90015 12.25 12.2507 9.89954 12.2507 7.00004C12.2507 4.10055 9.90015 1.75004 7.00065 1.75004C4.10116 1.75004 1.75065 4.10055 1.75065 7.00004C1.75065 9.89954 4.10116 12.25 7.00065 12.25ZM7.00065 13.4167C3.45682 13.4167 0.583984 10.5439 0.583984 7.00004C0.583984 3.45621 3.45682 0.583374 7.00065 0.583374C10.5445 0.583374 13.4173 3.45621 13.4173 7.00004C13.4173 10.5439 10.5445 13.4167 7.00065 13.4167ZM6.32399 8.33001L9.41758 5.23642C9.53148 5.12251 9.71616 5.12251 9.83006 5.23642L10.2425 5.6489C10.3564 5.7628 10.3564 5.94747 10.2425 6.06138L6.53023 9.77369C6.41632 9.88759 6.23165 9.88759 6.11775 9.77369L3.9825 7.63844C3.8686 7.52454 3.8686 7.33987 3.9825 7.22596L4.39498 6.81348C4.50888 6.69958 4.69356 6.69958 4.80746 6.81348L6.32399 8.33001Z" fill="url(#paint0_linear_8582_19775)"/>
<defs>
<linearGradient id="paint0_linear_8582_19775" x1="20.8255" y1="5.60578" x2="1.56859" y2="5.60578" gradientUnits="userSpaceOnUse">
<stop stop-color="#6C87FF"/>
<stop offset="1" stop-color="#B273FF"/>
</linearGradient>
</defs>
</svg>
