<svg width="16" height="16" viewBox="0 0 16 16" fill="none" xmlns="http://www.w3.org/2000/svg">
<rect width="16" height="16" rx="6" fill="url(#paint0_linear_8538_5844)"/>
<path d="M5.42468 7.57581C5.61995 7.38072 5.93658 7.3806 6.13179 7.57581L7.59226 9.03629L10.3496 6.27899C10.5448 6.08403 10.8615 6.084 11.0567 6.27899L11.1278 6.35011C11.3228 6.54531 11.3227 6.86201 11.1278 7.05722L7.94582 10.2392L7.86779 10.3034C7.72933 10.3948 7.55545 10.4098 7.40513 10.349C7.34456 10.3246 7.28781 10.2882 7.23871 10.2392L5.35355 8.35404C5.15837 8.15886 5.15854 7.84222 5.35355 7.64693L5.42468 7.57581Z" fill="white"/>
<defs>
<linearGradient id="paint0_linear_8538_5844" x1="25.2361" y1="6.2617" x2="1.22756" y2="6.2617" gradientUnits="userSpaceOnUse">
<stop stop-color="#6C87FF"/>
<stop offset="1" stop-color="#B273FF"/>
</linearGradient>
</defs>
</svg>
