<svg width="16" height="16" viewBox="0 0 16 16" fill="none" xmlns="http://www.w3.org/2000/svg">
<path d="M12 7L13.3334 7C13.3771 7 13.4205 7.00862 13.4609 7.02537C13.5014 7.04212 13.5381 7.06668 13.5691 7.09763C13.6 7.12858 13.6246 7.16533 13.6413 7.20577C13.6581 7.24621 13.6667 7.28956 13.6667 7.33333L13.6667 8.66667C13.6667 8.71044 13.6581 8.75379 13.6413 8.79423C13.6246 8.83467 13.6 8.87142 13.5691 8.90237C13.5381 8.93332 13.5014 8.95787 13.4609 8.97463C13.4205 8.99138 13.3771 9 13.3334 9L12 9C11.9116 9 11.8269 8.96488 11.7643 8.90237C11.7018 8.83986 11.6667 8.75507 11.6667 8.66667L11.6667 7.33333C11.6667 7.28956 11.6753 7.24621 11.6921 7.20577C11.7088 7.16533 11.7334 7.12858 11.7643 7.09763C11.7953 7.06668 11.832 7.04212 11.8725 7.02537C11.9129 7.00862 11.9563 7 12 7ZM2.66671 7L4.00004 7C4.04381 7 4.08716 7.00862 4.1276 7.02537C4.16804 7.04212 4.20479 7.06668 4.23574 7.09763C4.2667 7.12858 4.29125 7.16533 4.308 7.20577C4.32475 7.24621 4.33337 7.28956 4.33337 7.33333L4.33337 8.66667C4.33337 8.75507 4.29826 8.83986 4.23574 8.90237C4.17323 8.96488 4.08845 9 4.00004 9L2.66671 9C2.62293 9 2.57959 8.99138 2.53915 8.97463C2.4987 8.95787 2.46196 8.93332 2.43101 8.90237C2.40005 8.87142 2.3755 8.83467 2.35875 8.79423C2.342 8.75379 2.33337 8.71044 2.33337 8.66667L2.33337 7.33333C2.33337 7.28956 2.342 7.24621 2.35875 7.20577C2.3755 7.16533 2.40005 7.12858 2.43101 7.09763C2.46196 7.06668 2.4987 7.04212 2.53915 7.02537C2.57959 7.00862 2.62293 7 2.66671 7ZM7.33337 7L8.66671 7C8.71048 7 8.75383 7.00862 8.79427 7.02537C8.83471 7.04212 8.87146 7.06668 8.90241 7.09763C8.93336 7.12858 8.95792 7.16533 8.97467 7.20577C8.99142 7.24621 9.00004 7.28956 9.00004 7.33333L9.00004 8.66667C9.00004 8.71044 8.99142 8.75379 8.97467 8.79423C8.95792 8.83467 8.93336 8.87142 8.90241 8.90237C8.87146 8.93332 8.83471 8.95787 8.79427 8.97463C8.75383 8.99138 8.71048 9 8.66671 9L7.33337 9C7.24497 9 7.16018 8.96488 7.09767 8.90237C7.03516 8.83986 7.00004 8.75507 7.00004 8.66667L7.00004 7.33333C7.00004 7.28956 7.00866 7.24621 7.02541 7.20577C7.04217 7.16533 7.06672 7.12858 7.09767 7.09763C7.12862 7.06668 7.16537 7.04212 7.20581 7.02537C7.24626 7.00862 7.2896 7 7.33337 7Z" fill="#3C3C3C"/>
</svg>
