<svg width="16" height="16" viewBox="0 0 16 16" fill="none" xmlns="http://www.w3.org/2000/svg">
<path d="M12.3591 8.65985L6.32207 8.63301C6.14005 8.6322 5.9927 8.48404 5.99195 8.30106L5.98934 7.66978C5.98859 7.48568 6.13643 7.33583 6.31956 7.33506C6.32051 7.33506 6.32146 7.33506 6.3224 7.33506L12.4808 7.36245L10.955 5.82867C10.8255 5.6985 10.8255 5.48744 10.955 5.35727L11.4239 4.88586C11.5534 4.75569 11.7634 4.75569 11.8929 4.88586L14.4721 7.47859C14.7311 7.73894 14.7311 8.16105 14.4721 8.4214L11.8929 11.0141C11.7634 11.1443 11.5534 11.1443 11.4239 11.0141L10.955 10.5427C10.8255 10.4125 10.8255 10.2015 10.955 10.0713L12.3591 8.65985ZM10.2861 2.66666H2.65939V13.3333H10.2861C10.4692 13.3333 10.6177 13.4826 10.6177 13.6667V14.3333C10.6177 14.5174 10.4692 14.6667 10.2861 14.6667H1.9962C1.62993 14.6667 1.33301 14.3682 1.33301 14V1.99999C1.33301 1.63181 1.62993 1.33333 1.9962 1.33333H10.2861C10.4692 1.33333 10.6177 1.48257 10.6177 1.66666V2.33333C10.6177 2.51742 10.4692 2.66666 10.2861 2.66666Z" fill="#B3B3B3"/>
</svg>
