<svg width="80" height="80" viewBox="0 0 80 80" fill="none" xmlns="http://www.w3.org/2000/svg">
<rect width="80" height="80" rx="40" fill="white"/>
<path d="M70.7039 65.5138C74.8067 60.5775 77.6602 54.7256 79.0231 48.4532C80.3859 42.1809 80.218 35.6725 78.5336 29.4788C76.8492 23.285 73.6978 17.5881 69.3459 12.8699C64.9941 8.15165 59.5699 4.55098 53.5322 2.37244C47.4945 0.193897 41.0209 -0.498415 34.6591 0.354065C28.2972 1.20655 22.2343 3.57874 16.9831 7.26998C11.7319 10.9612 7.44706 15.8629 4.49093 21.5604C1.5348 27.2578 -0.00560681 33.5835 1.53345e-05 40.0022C0.00217275 49.3332 3.29037 58.3653 9.2876 65.5138L9.23046 65.5623C9.43044 65.8023 9.65899 66.008 9.86468 66.2451C10.1218 66.5394 10.3989 66.8165 10.6646 67.1022C11.4645 67.9706 12.2873 68.8048 13.15 69.5876C13.4129 69.8276 13.6843 70.0504 13.95 70.279C14.8642 71.0675 15.8041 71.816 16.7782 72.513C16.9039 72.5987 17.0182 72.7101 17.1439 72.7987V72.7644C23.8349 77.473 31.8169 80 39.9986 80C48.1803 80 56.1623 77.473 62.8533 72.7644V72.7987C62.979 72.7101 63.0905 72.5987 63.219 72.513C64.1903 71.8131 65.1331 71.0675 66.0473 70.279C66.313 70.0504 66.5844 69.8247 66.8472 69.5876C67.71 68.802 68.5327 67.9706 69.3326 67.1022C69.5983 66.8165 69.8726 66.5394 70.1326 66.2451C70.3354 66.008 70.5668 65.8023 70.7668 65.5595L70.7039 65.5138ZM39.9958 17.1475C42.5384 17.1475 45.0239 17.9015 47.1381 19.3141C49.2522 20.7267 50.8999 22.7345 51.873 25.0836C52.846 27.4327 53.1006 30.0175 52.6045 32.5113C52.1085 35.0051 50.8841 37.2958 49.0862 39.0937C47.2883 40.8916 44.9976 42.116 42.5038 42.612C40.01 43.1081 37.4252 42.8535 35.0761 41.8804C32.727 40.9074 30.7192 39.2597 29.3066 37.1455C27.894 35.0314 27.14 32.5459 27.14 30.0033C27.14 26.5937 28.4944 23.3238 30.9054 20.9129C33.3163 18.5019 36.5862 17.1475 39.9958 17.1475ZM17.161 65.5138C17.2106 61.7626 18.735 58.1819 21.4045 55.5461C24.0739 52.9103 27.6738 51.4315 31.4252 51.4296H48.5663C52.3177 51.4315 55.9176 52.9103 58.5871 55.5461C61.2565 58.1819 62.7809 61.7626 62.8305 65.5138C56.565 71.1598 48.4299 74.2845 39.9958 74.2845C31.5616 74.2845 23.4266 71.1598 17.161 65.5138Z" fill="#CCCCCC"/>
</svg>
