<svg width="16" height="16" viewBox="0 0 16 16" fill="none" xmlns="http://www.w3.org/2000/svg">
<g clip-path="url(#clip0_10130_26116)">
<path fill-rule="evenodd" clip-rule="evenodd" d="M8.00058 5.18367C8.74733 5.18377 9.46374 5.48085 9.9918 6.00887C10.5198 6.53698 10.817 7.25327 10.817 8.00008C10.817 8.7469 10.5198 9.46315 9.9918 9.99129C9.46373 10.5194 8.74737 10.8164 8.00058 10.8165C7.25377 10.8165 6.53749 10.5193 6.00937 9.99129C5.48126 9.46314 5.18418 8.74697 5.18418 8.00008C5.1842 7.25318 5.48124 6.537 6.00937 6.00887C6.53749 5.48085 7.25378 5.18369 8.00058 5.18367ZM8.00058 6.62996C7.63742 6.62998 7.28868 6.77459 7.03183 7.03133C6.77497 7.28819 6.63049 7.63682 6.63047 8.00008C6.63047 8.36333 6.775 8.71195 7.03183 8.96883C7.28868 9.22557 7.63741 9.37018 8.00058 9.37019C8.36373 9.37009 8.71255 9.22562 8.96933 8.96883C9.22609 8.71196 9.3707 8.36327 9.3707 8.00008C9.37068 7.63691 9.22608 7.28817 8.96933 7.03133C8.71255 6.77458 8.3637 6.63006 8.00058 6.62996Z" fill="#B3B3B3"/>
<path fill-rule="evenodd" clip-rule="evenodd" d="M8.01816 0.299881C8.32583 0.299881 8.59278 0.300287 8.81308 0.315506C9.04453 0.330903 9.27813 0.365734 9.5084 0.461014L9.69687 0.549881C9.8801 0.647953 10.0485 0.77344 10.1959 0.920975C10.3922 1.11755 10.5486 1.35081 10.6549 1.6075L10.7262 1.81844C10.7834 2.03003 10.8012 2.24541 10.8092 2.46004V2.46492C10.8101 2.53372 10.8288 2.60144 10.8629 2.66121C10.8962 2.71942 10.9438 2.7682 11.0006 2.80379C11.0598 2.83496 11.126 2.85204 11.193 2.85164C11.2615 2.85114 11.3294 2.83332 11.3893 2.79988L11.3932 2.79695C11.6473 2.66208 11.9106 2.54361 12.2086 2.50398L12.4156 2.48738C12.6234 2.48072 12.8322 2.50454 13.0338 2.55867C13.235 2.61279 13.4268 2.697 13.6031 2.80672L13.775 2.92488L13.7779 2.92781C13.9637 3.07663 14.1242 3.25504 14.2516 3.45613L14.4615 3.79402C14.5294 3.90681 14.5954 4.02097 14.6598 4.13582L14.6783 4.16707C14.8126 4.39272 14.9401 4.62204 15.0602 4.85555L15.1363 5.01765C15.183 5.12762 15.2208 5.24132 15.2486 5.3575L15.2828 5.53328L15.2838 5.53719C15.32 5.81278 15.301 6.09291 15.2291 6.3614C15.1571 6.63006 15.0332 6.88293 14.8639 7.10359C14.68 7.34204 14.4451 7.51062 14.2027 7.66316C14.0664 7.74885 14.0007 7.8783 13.9996 7.99715C14.0017 8.06522 14.0208 8.13175 14.0553 8.19051C14.0727 8.2201 14.0937 8.24742 14.1178 8.27156L14.1988 8.33504L14.2027 8.33699C14.4448 8.48937 14.6805 8.65766 14.8639 8.89656C15.1628 9.28657 15.315 9.76709 15.2994 10.254L15.2828 10.463C15.2509 10.7107 15.164 10.9306 15.0621 11.1387C14.9649 11.3374 14.8318 11.5683 14.6773 11.835L14.6607 11.8643L14.6598 11.8653C14.506 12.132 14.3726 12.3622 14.2496 12.546C14.1205 12.7378 13.9736 12.9237 13.775 13.0762C13.3851 13.3752 12.9044 13.5273 12.4176 13.5118L12.2086 13.4952C11.9099 13.4563 11.6467 13.3371 11.3932 13.2032L11.3883 13.2003C11.3285 13.1668 11.2605 13.1491 11.192 13.1485C11.1255 13.1481 11.0595 13.1637 11.0006 13.1944C10.9436 13.2302 10.8961 13.2804 10.8629 13.3389C10.8291 13.3987 10.8109 13.4665 10.8102 13.5352V13.5401C10.7988 13.8259 10.7709 14.1138 10.6559 14.3917C10.5493 14.6486 10.3926 14.8825 10.1959 15.0792C9.99927 15.2757 9.76522 15.4308 9.5084 15.5372C9.27777 15.6334 9.045 15.6695 8.81308 15.6856C8.5932 15.7001 8.32587 15.7003 8.01816 15.7003H7.98301C7.82911 15.7003 7.68499 15.7002 7.55234 15.6983L7.18808 15.6846C6.95642 15.6693 6.72228 15.6345 6.4918 15.5391C6.23495 15.4326 6.00186 15.2758 5.80527 15.0792C5.60861 14.8824 5.45169 14.6487 5.34531 14.3917C5.22951 14.1136 5.20169 13.8262 5.19101 13.5401V13.5343C5.19053 13.4658 5.17215 13.3984 5.13828 13.3389C5.10471 13.2801 5.05647 13.2306 4.99863 13.1954C4.93999 13.1647 4.87442 13.1483 4.8082 13.1485C4.73977 13.1489 4.67171 13.167 4.61191 13.2003L4.60801 13.2032C4.35377 13.3382 4.09071 13.4564 3.79258 13.4962C3.51689 13.5323 3.23593 13.5135 2.96738 13.4415C2.69928 13.3695 2.44743 13.2452 2.22715 13.0762L2.08652 12.9561C1.95506 12.831 1.8482 12.6905 1.75156 12.547L1.75058 12.546C1.62763 12.3622 1.49416 12.1319 1.34043 11.8653L1.32383 11.835L1.10996 11.461C1.04533 11.3455 0.986903 11.2388 0.938085 11.1397C0.835928 10.931 0.749986 10.711 0.717382 10.463C0.681143 10.1873 0.699174 9.90729 0.771093 9.63875C0.843138 9.37005 0.967926 9.11724 1.1373 8.89656L1.28379 8.72957C1.43843 8.57465 1.61571 8.45139 1.79746 8.33699L1.80234 8.33406C1.86125 8.29896 1.91119 8.24965 1.9459 8.19051C1.97976 8.13267 1.99802 8.067 2.00058 8.00008C1.99802 7.93316 1.97976 7.86748 1.9459 7.80965C1.91111 7.75036 1.86144 7.70023 1.80234 7.66512L1.79746 7.66316C1.55545 7.51084 1.32069 7.34234 1.1373 7.10359C0.795523 6.65782 0.64398 6.09408 0.717382 5.53719L0.751561 5.35652C0.794323 5.18007 0.862593 5.01762 0.939061 4.8614C1.03626 4.66269 1.16931 4.43188 1.32383 4.16512L1.34043 4.13582C1.49366 3.87008 1.62699 3.63959 1.74961 3.45613C1.87688 3.25492 2.03651 3.07578 2.22226 2.92683L2.22617 2.9239C2.44675 2.75471 2.69886 2.63065 2.96738 2.55867C3.236 2.48671 3.51686 2.46772 3.79258 2.50398C4.09072 2.54371 4.35358 2.66313 4.60703 2.79695L4.61191 2.79988C4.6718 2.83328 4.73963 2.85123 4.8082 2.85164C4.87433 2.85195 4.93906 2.8343 4.99765 2.80379C5.05498 2.76798 5.1039 2.72 5.1373 2.66121C5.17119 2.60145 5.1892 2.53361 5.19004 2.46492V2.46004C5.20142 2.1741 5.23018 1.88645 5.34531 1.60847L5.43418 1.42C5.53222 1.2368 5.65681 1.0684 5.8043 0.920975C6.00097 0.72448 6.23492 0.568336 6.4918 0.46199L6.4957 0.460037C6.71673 0.373656 6.95102 0.325646 7.18808 0.315506C7.40812 0.301051 7.67506 0.299881 7.98301 0.299881H8.01816ZM8.00058 1.74617C7.66589 1.74617 7.45041 1.74667 7.28672 1.75789C7.12851 1.76905 7.07057 1.78756 7.04551 1.79793C6.88059 1.8662 6.74958 1.99633 6.68125 2.16121C6.66772 2.19374 6.6452 2.27035 6.63633 2.51375C6.61305 3.12838 6.29527 3.72685 5.72422 4.05672C5.15278 4.3873 4.47467 4.36336 3.93125 4.07625C3.71497 3.96233 3.63902 3.94396 3.6041 3.93953C3.42754 3.9162 3.24746 3.9641 3.10605 4.07234C3.08374 4.0898 3.03898 4.13163 2.95176 4.26082L2.95078 4.25984C2.85912 4.3967 2.75158 4.58401 2.58457 4.87312C2.41739 5.16253 2.31021 5.34925 2.23789 5.49715C2.16806 5.63949 2.15501 5.69844 2.15195 5.72371V5.72566C2.12861 5.90232 2.17639 6.08128 2.28476 6.22273C2.3072 6.25177 2.36154 6.30929 2.56699 6.43855C3.08853 6.76624 3.44785 7.34068 3.44785 8.00008C3.44785 8.65948 3.08853 9.23392 2.56699 9.5616C2.36297 9.68996 2.30653 9.74722 2.28379 9.77644C2.20254 9.88249 2.15577 10.0103 2.14707 10.1417L2.15195 10.2745V10.2764C2.15504 10.302 2.16762 10.3595 2.23789 10.502C2.27413 10.5758 2.31882 10.6602 2.37558 10.7618L2.58457 11.127L2.58555 11.129C2.70126 11.336 2.82364 11.5398 2.95176 11.7393L3.0543 11.877C3.07842 11.9048 3.09509 11.9192 3.10605 11.9278C3.24746 12.0361 3.42657 12.084 3.60312 12.0606C3.63816 12.0562 3.71592 12.0377 3.93125 11.9239C4.47544 11.6368 5.15298 11.6138 5.72422 11.9434C6.29527 12.2733 6.61305 12.8718 6.63633 13.4864C6.6452 13.7298 6.66772 13.8054 6.68125 13.838C6.71502 13.9194 6.76538 13.9944 6.82773 14.0567C6.89007 14.119 6.96412 14.1685 7.04551 14.2022C7.07057 14.2126 7.12851 14.2311 7.28672 14.2423C7.45041 14.2535 7.66589 14.254 8.00058 14.254C8.33488 14.254 8.5499 14.2535 8.71348 14.2423L8.88437 14.2218C8.92144 14.2146 8.94227 14.2074 8.95469 14.2022C9.03617 14.1685 9.11106 14.1191 9.17344 14.0567C9.23575 13.9943 9.28522 13.9194 9.31894 13.838C9.33248 13.8054 9.355 13.7298 9.36387 13.4864C9.38716 12.8717 9.70544 12.2723 10.277 11.9425C10.8482 11.613 11.5257 11.6369 12.0689 11.9239L12.3014 12.0343C12.3511 12.0533 12.3788 12.0585 12.3961 12.0606C12.5726 12.0838 12.7528 12.0361 12.8941 11.9278C12.9165 11.9103 12.9621 11.8687 13.0494 11.7393C13.141 11.6025 13.2497 11.4159 13.4166 11.127C13.5837 10.8377 13.69 10.6509 13.7623 10.503L13.7633 10.502C13.8329 10.36 13.8452 10.3017 13.8482 10.2764V10.2745C13.8714 10.0971 13.8245 9.91839 13.7164 9.77742C13.694 9.74839 13.6385 9.69076 13.4332 9.5616C12.9117 9.23392 12.5533 8.65948 12.5533 8.00008C12.5533 7.34068 12.9117 6.76624 13.4332 6.43855C13.6385 6.30939 13.694 6.25176 13.7164 6.22273L13.7857 6.11043C13.8437 5.99226 13.8667 5.85809 13.8492 5.72566L13.8482 5.72371C13.8452 5.69817 13.8334 5.64039 13.7633 5.49812C13.6909 5.35062 13.5837 5.16237 13.4166 4.87312C13.2491 4.58308 13.1405 4.39732 13.0484 4.26082C12.9612 4.13163 12.9165 4.0898 12.8941 4.07234L12.7818 4.00203C12.6637 3.94401 12.5294 3.92211 12.3971 3.93953C12.3622 3.94389 12.2849 3.96215 12.0689 4.07625C11.5249 4.36337 10.8482 4.38617 10.277 4.05672C9.70552 3.72693 9.38716 3.12859 9.36387 2.51375C9.355 2.2704 9.33248 2.19473 9.31894 2.16219C9.25064 1.99736 9.11952 1.86622 8.95469 1.79793C8.92982 1.78759 8.87209 1.7691 8.71348 1.75789C8.5499 1.74668 8.33488 1.74617 8.00058 1.74617Z" fill="#B3B3B3"/>
</g>
<defs>
<clipPath id="clip0_10130_26116">
<rect width="16" height="16" fill="white"/>
</clipPath>
</defs>
</svg>
