<svg width="16" height="16" viewBox="0 0 16 16" fill="none" xmlns="http://www.w3.org/2000/svg">
<path fill-rule="evenodd" clip-rule="evenodd" d="M7.99707 3.51224C8.58823 3.51176 9.15876 3.72885 9.60059 4.12161C10.0424 4.51445 10.3249 5.05593 10.3936 5.6431C10.4621 6.23026 10.3129 6.82304 9.97363 7.30716C9.65726 7.75841 9.1951 8.08341 8.66797 8.23587V8.64993H9.55664C9.72743 8.6488 9.89225 8.71256 10.0176 8.82864C10.1431 8.94502 10.2198 9.10516 10.2314 9.27591C10.2429 9.4467 10.1888 9.61638 10.0801 9.74857C9.97123 9.88069 9.81534 9.96627 9.64551 9.98782L9.63672 9.9888L9.56738 9.99368L9.55664 9.99466L8.66797 9.99368V11.1753C8.66628 11.3441 8.60102 11.5065 8.48535 11.6294C8.36934 11.7524 8.21063 11.8279 8.04199 11.8394C7.87345 11.8509 7.70681 11.7978 7.5752 11.6919C7.44372 11.586 7.35678 11.4341 7.33203 11.2671L7.33008 11.2554L7.3252 11.1841V8.23587C6.79944 8.08227 6.33962 7.75605 6.02441 7.30521C5.68638 6.82147 5.53709 6.23023 5.60547 5.64407C5.67404 5.05779 5.9559 4.51639 6.39648 4.12357C6.83715 3.7309 7.40683 3.51323 7.99707 3.51224ZM7.99707 4.85599C7.71398 4.85599 7.44236 4.96832 7.24219 5.16849C7.04215 5.36864 6.92969 5.64038 6.92969 5.92337C6.92984 6.20625 7.04215 6.47822 7.24219 6.67825C7.44233 6.87819 7.71416 6.99075 7.99707 6.99075C8.28 6.99071 8.55184 6.87825 8.75195 6.67825C8.95199 6.47822 9.0643 6.20625 9.06445 5.92337C9.06445 5.64046 8.95189 5.36863 8.75195 5.16849C8.55182 4.96835 8.2801 4.85603 7.99707 4.85599Z" fill="#B3B3B3"/>
<path fill-rule="evenodd" clip-rule="evenodd" d="M7.81543 0.0513008C7.93817 0.0155625 8.06867 0.015504 8.19141 0.0513008L14.4492 1.87943C14.5887 1.92014 14.7116 2.00537 14.7988 2.12161C14.8857 2.23769 14.9326 2.37898 14.9326 2.52396V6.27298C14.9325 8.33522 14.2841 10.3462 13.0781 12.0191C11.8721 13.6918 10.1694 14.9425 8.21289 15.5943C8.07531 15.64 7.92663 15.64 7.78906 15.5943C5.83205 14.9424 4.12914 13.6913 2.92285 12.0181C1.71664 10.3448 1.06734 8.33375 1.06738 6.27103V2.52396C1.06745 2.37894 1.11525 2.23771 1.20215 2.12161C1.28933 2.00537 1.41228 1.92014 1.55176 1.87943L7.81543 0.0513008ZM2.41113 3.02591V6.27103C2.41131 9.84733 4.65353 13.0304 8 14.2447L8.19531 14.1734C9.75069 13.5653 11.0927 12.5112 12.0518 11.1441C13.0107 9.77691 13.5447 8.15626 13.5869 6.48685L13.5898 6.27298V3.02689L8.00195 1.39407L2.41113 3.02591Z" fill="#B3B3B3"/>
</svg>
